<?xml version="1.0" encoding="UTF-8" standalone="no"?><!DOCTYPE svg PUBLIC "-//W3C//DTD SVG 1.1//EN" "http://www.w3.org/Graphics/SVG/1.1/DTD/svg11.dtd"><svg width="100%" height="100%" viewBox="0 0 201 201" version="1.1" xmlns="http://www.w3.org/2000/svg" xmlns:xlink="http://www.w3.org/1999/xlink" xml:space="preserve" xmlns:serif="http://www.serif.com/" style="fill-rule:evenodd;clip-rule:evenodd;stroke-linejoin:round;stroke-miterlimit:2;"><rect id="bestellen" x="0.864" y="0.382" width="200" height="200" style="fill:none;"/><path d="M58.136,97.848c0,-0 -0.428,0.956 -0.941,2.96c-0.216,0.843 -0.421,1.799 -0.58,2.959c-0.101,0.734 -0.161,1.521 -0.189,2.367c-0.037,1.103 0.016,2.292 0.046,3.547c0.131,5.48 0.397,12.236 0.661,18.921c0.569,14.39 1.25,28.379 1.25,28.379c0.001,0.274 0.225,0.495 0.499,0.494c0.274,-0.001 0.495,-0.224 0.494,-0.498c-0,-0 0.565,-13.994 1.013,-28.389c0.208,-6.686 0.418,-13.445 0.504,-18.925c0.019,-1.256 0.062,-2.445 0.016,-3.548c-0.035,-0.845 -0.102,-1.632 -0.209,-2.365c-0.169,-1.158 -0.381,-2.113 -0.604,-2.954c-0.53,-1.999 -0.967,-2.953 -0.967,-2.953c-0.001,-0.273 -0.224,-0.495 -0.498,-0.494c-0.274,0.001 -0.496,0.225 -0.495,0.499Z"/><path d="M42.387,62.088c-0.256,0.004 -0.467,0.202 -0.487,0.457c0,0 -0.704,2.612 -1.123,6.602c-0.15,1.428 -0.23,3 -0.232,4.691c-0.001,0.662 0.028,1.334 0.069,2.019c0.08,1.321 0.212,2.678 0.431,4.038c0.511,3.19 1.428,6.391 2.705,9.256c2.811,6.304 7.538,10.977 15.137,10.797c7.451,-0.2 12.028,-4.952 14.663,-11.291c4.572,-11.002 3.197,-26.685 3.197,-26.685c-0.043,-0.615 -0.56,-1.089 -1.176,-1.079l-33.184,1.195Zm0.561,0.994l31.518,0.128c0.076,3.6 -0.005,15.495 -3.955,24.12c-2.249,4.909 -5.8,8.75 -11.663,8.71c-5.742,-0.021 -9.047,-3.833 -11.078,-8.635c-1.09,-2.577 -1.766,-5.457 -2.308,-8.287c-0.241,-1.26 -0.457,-2.507 -0.669,-3.721c-0.402,-2.293 -0.736,-4.438 -1.013,-6.321c-0.426,-2.902 -0.715,-5.087 -0.832,-5.994Z"/><path d="M43.376,80.678c0,-0 0.343,0.356 1.565,0.954c0.455,0.222 0.906,0.417 1.564,0.592c0.386,0.102 0.798,0.167 1.252,0.199c0.583,0.041 1.213,-0.006 1.877,-0.031c2.906,-0.109 6.473,-0.347 10.013,-0.583c7.635,-0.51 15.019,-1.131 15.019,-1.131c0.274,-0 0.497,-0.223 0.497,-0.497c-0,-0.274 -0.223,-0.496 -0.497,-0.496c0,-0 -7.384,-0.622 -15.019,-1.132c-3.54,-0.236 -7.107,-0.474 -10.013,-0.582c-0.664,-0.025 -1.294,-0.073 -1.877,-0.032c-0.454,0.032 -0.866,0.097 -1.252,0.199c-0.658,0.175 -1.109,0.37 -1.564,0.593c-1.222,0.597 -1.565,0.954 -1.565,0.954c-0.274,-0 -0.496,0.222 -0.496,0.496c0,0.274 0.222,0.497 0.496,0.497Z"/><path d="M79.281,112.79c1.152,-1.859 2.24,-3.877 3.202,-6.152c0.866,-2.049 1.608,-4.234 2.261,-6.543c0.49,-1.736 0.905,-3.531 1.252,-5.369c0.502,-2.658 0.838,-5.401 1.133,-8.152c1.787,-16.632 1.175,-33.735 0.911,-39.127c0,0 8.171,-0.474 8.171,-0.474c0.109,5.34 0.698,22.411 3.878,39.291c1.789,9.497 4.399,18.927 8.188,26.184c0.123,0.245 0.421,0.344 0.666,0.222c0.245,-0.123 0.344,-0.422 0.221,-0.667c-3.495,-7.271 -5.744,-16.649 -7.205,-26.06c-3.142,-20.242 -2.592,-40.635 -2.592,-40.635c0.005,-0.437 -0.17,-0.857 -0.484,-1.161c-0.313,-0.304 -0.739,-0.466 -1.175,-0.447l-11.594,0.338c-0.467,0.02 -0.906,0.226 -1.221,0.571c-0.316,0.344 -0.48,0.801 -0.459,1.267c0,0 0.496,16.111 -1.049,33.543c-0.342,3.861 -0.816,7.782 -1.338,11.619c-0.227,1.668 -0.458,3.319 -0.696,4.944c-0.146,0.998 -0.289,1.984 -0.426,2.961c-0.336,2.401 -0.69,4.696 -1.097,6.899c-0.434,2.346 -0.841,4.517 -1.452,6.54c-0.112,0.25 -0.001,0.544 0.249,0.657c0.249,0.112 0.543,0.001 0.656,-0.249Z"/><path d="M86.145,45.3c-0.774,-0.32 -0.911,-0.825 -1.261,-1.291c-0.082,-0.109 0.049,-0.252 -0.006,-0.368c-0.029,-0.059 0.067,-0.122 0.045,-0.184c-0.046,-0.127 0.063,-0.261 0.054,-0.4c-0.03,-0.433 0.027,-0.91 0.283,-1.29c0.212,-0.312 0.481,-0.629 0.913,-0.674c5.875,-0.675 5.816,-0.752 6.952,-0.79c0.683,-0.022 1.773,-0.04 4.766,-0.176c1.403,-0.069 2.299,1.149 2.274,2.336c-0.026,1.243 -0.949,2.388 -3.037,2.522c-0.274,-0.002 -0.498,0.218 -0.5,0.492c-0.003,0.274 0.218,0.498 0.492,0.501c3.102,0.253 4.524,-1.525 4.826,-3.35c0.384,-2.317 -1.233,-4.803 -4,-5.059c-4.993,-0.441 -4.774,-0.508 -6.048,-0.521c-0.802,-0.008 -2.196,0.019 -5.947,0.005c-3.216,0.046 -5.366,2.823 -5.464,5.528c-0.033,0.922 0.111,1.862 0.594,2.589c0.257,0.387 0.482,0.779 0.879,1.023c0.465,0.286 0.83,0.612 1.414,0.688c0.231,0.031 0.417,0.143 0.663,0.118c0.77,-0.077 1.345,-0.117 2.199,-0.711c0.272,-0.025 0.474,-0.267 0.448,-0.539c-0.025,-0.273 -0.266,-0.474 -0.539,-0.449Z"/><path d="M84.399,88.636c-0.16,-0.262 -0.269,-0.095 -0.269,0.097c-0,0.274 0.222,0.497 0.496,0.497c-0,-0 -0.071,0.136 0.835,0.954c0.264,0.238 0.406,0.383 0.835,0.592c0.203,0.099 0.412,0.166 0.668,0.199c0.31,0.04 0.648,-0.006 1.002,-0.031c1.562,-0.109 3.45,-0.346 5.345,-0.583c4.111,-0.514 8.017,-1.131 8.017,-1.131c0.274,-0 0.497,-0.223 0.497,-0.497c-0,-0.274 -0.223,-0.496 -0.497,-0.496c0,-0 -3.906,-0.618 -8.017,-1.132c-1.895,-0.237 -3.783,-0.473 -5.345,-0.582c-0.354,-0.025 -0.692,-0.072 -1.002,-0.031c-0.256,0.033 -0.465,0.1 -0.668,0.199c-0.429,0.209 -0.571,0.354 -0.835,0.592c-0.626,0.564 -0.565,0.638 -0.752,0.855c-0.169,0.197 -0.264,0.362 -0.31,0.498Z"/><g><path d="M121.977,115.633c-0,-0 1.229,-2.1 2.946,-5.536c0.59,-1.18 1.209,-2.494 1.848,-3.948c0.244,-0.555 0.471,-1.13 0.708,-1.72c0.316,-0.785 0.645,-1.589 0.949,-2.422c0.673,-1.843 1.298,-3.792 1.945,-5.744c2.507,-7.559 4.972,-15.306 6.265,-19.211c1.278,-3.913 6.407,-5.905 10.665,-5.491c2.184,0.213 4.199,1.048 5.302,2.795c0.943,1.493 1.219,3.57 0.571,6.293c-1.094,4.625 -2.369,10.367 -3.595,16.055c-2.63,12.201 -5.045,24.131 -5.045,24.131c-0.06,0.267 0.108,0.533 0.376,0.593c0.267,0.06 0.533,-0.108 0.593,-0.375c-0,-0 2.93,-11.804 6.073,-23.873c1.463,-5.615 2.969,-11.282 4.253,-15.843c1.024,-3.66 0.576,-6.48 -0.623,-8.555c-1.516,-2.621 -4.332,-4.108 -7.52,-4.539c-5.846,-0.79 -12.77,2.206 -14.725,7.535c-1.403,3.872 -4.185,11.522 -6.806,19.052c-0.677,1.943 -1.367,3.87 -1.956,5.742c-0.266,0.847 -0.494,1.685 -0.721,2.5c-0.171,0.613 -0.341,1.208 -0.485,1.797c-0.377,1.543 -0.685,2.962 -0.934,4.258c-0.726,3.773 -1.025,6.187 -1.025,6.187c-0.088,0.26 0.052,0.542 0.311,0.63c0.26,0.088 0.542,-0.052 0.63,-0.311Z"/><path d="M154.104,80.698c0,-0 -0.514,0.118 -1.64,0.672c-0.45,0.221 -0.882,0.44 -1.434,0.795c-0.283,0.182 -0.56,0.367 -0.844,0.605c-0.25,0.209 -0.49,0.446 -0.731,0.696c-1.491,1.543 -3.17,3.41 -4.996,4.684c-1.192,0.831 -2.355,1.519 -3.507,1.555c-1.093,0.035 -2.089,-0.503 -2.929,-1.875c-1.304,-2.128 -2.277,-5.719 -2.726,-11.42c-0.003,-0.274 -0.228,-0.494 -0.502,-0.491c-0.274,0.003 -0.494,0.228 -0.491,0.502c-0.359,6.188 0.25,10.183 1.348,12.655c1.23,2.767 3.156,3.792 5.205,3.972c2.113,0.186 4.532,-0.786 6.842,-2.295c1.831,-1.197 3.637,-2.697 5.023,-4.199c0.258,-0.279 0.501,-0.559 0.701,-0.853c0.226,-0.331 0.404,-0.643 0.556,-0.974c0.29,-0.63 0.472,-1.112 0.606,-1.624c0.33,-1.261 0.317,-1.815 0.317,-1.815c0.163,-0.22 0.117,-0.531 -0.103,-0.694c-0.22,-0.163 -0.532,-0.116 -0.695,0.104Z"/><path d="M135.161,85.158c0.008,0.048 0.031,0.107 0.067,0.161c0.095,0.146 0.253,0.226 0.415,0.226l0.001,0l-0,-0l0,-0c0,-0.008 0.005,-0.127 0.245,-0.072l-0.244,0.072l-0.001,-0l-0,0l0.001,-0c0.087,-0 0.174,-0.023 0.253,-0.07c0.035,0.008 0.075,0.02 0.121,0.037c0.261,0.095 0.178,0.184 0.948,0.413c0.288,0.086 0.392,0.163 0.78,0.204c0.155,0.016 0.274,0.055 0.444,0.024c0.235,-0.044 0.472,-0.154 0.723,-0.261c0.502,-0.214 1.018,-0.513 1.601,-0.725c1.073,-0.391 2.219,-0.791 3.378,-0.543c1.409,0.3 2.737,1.2 3.759,3.363c0.078,0.263 0.354,0.413 0.617,0.335c0.262,-0.077 0.413,-0.353 0.335,-0.616c-0.587,-4.31 -3.032,-5.853 -5.551,-6.44c-1.501,-0.349 -3.078,-0.184 -4.5,0.117c-0.642,0.136 -1.252,0.297 -1.765,0.542c-0.165,0.078 -0.322,0.158 -0.448,0.273c-0.164,0.149 -0.265,0.259 -0.364,0.431c-0.238,0.411 -0.307,0.526 -0.401,0.871c-0.209,0.776 -0.151,0.74 -0.182,1.015c-0.01,0.084 0.01,0.105 -0.017,0.103c-0.674,-0.033 -0.495,0.271 -0.215,0.54Z"/><path d="M142.448,82.769c-0.043,0.028 -0.072,0.041 -0.013,0.016c0.021,-0.009 0.023,-0.012 0.013,-0.016c0.046,-0.029 0.108,-0.075 0.1,-0.108c-0.015,-0.061 0.075,-0.018 0.067,-0.067c-0.026,-0.166 0.184,-0.026 0.192,-0.14c0.011,-0.161 0.184,0.024 0.221,-0.097c0.035,-0.114 0.136,0.055 0.185,-0.039c0.025,-0.049 0.062,0.037 0.09,-0.007c0.025,-0.04 0.051,0.037 0.079,0c0.141,-0.191 0.185,0.205 0.373,0.084c0.083,-0.053 0.057,0.119 0.149,0.078c0.144,-0.063 0.042,0.201 0.211,0.175c0.061,-0.009 0.003,0.087 0.069,0.083c0.159,-0.008 -0.051,0.217 0.145,0.264c0.062,0.015 -0.035,0.085 0.034,0.11c0.101,0.036 -0.1,0.136 0.03,0.216c0.051,0.032 -0.067,0.069 -0.004,0.119c0.04,0.031 -0.074,0.051 -0.02,0.104c0.024,0.023 -0.013,0.007 -0.077,0.059c-0.138,0.112 -0.058,-0.031 -0.367,-0.437c0.088,-0.26 -0.052,-0.542 -0.311,-0.63c-0.26,-0.087 -0.542,0.052 -0.629,0.312c-1.113,0.307 -0.642,0.66 -0.685,0.702c-0.161,0.157 -0.375,1.049 2.431,0.241c0.312,-0.09 0.591,0.004 1.07,-0.396c0.185,-0.154 0.301,-0.415 0.451,-0.662c0.282,-0.465 0.505,-1.03 0.882,-1.485c0.255,-0.307 0.438,-0.667 0.775,-0.834c0.177,-0.088 0.322,-0.247 0.532,-0.251c0.985,-0.018 2.13,0.549 3.6,2.233c0.141,0.236 0.446,0.313 0.681,0.172c0.235,-0.14 0.312,-0.445 0.172,-0.681c-1.666,-4.406 -4.128,-4.951 -6.051,-4.634c-1.774,0.293 -3.378,1.792 -4.402,3.172c-0.153,0.207 -0.309,0.407 -0.381,0.624c-0.062,0.19 -0.086,0.335 -0.073,0.509c0.037,0.513 0.076,0.625 0.189,0.911c0.101,0.257 0.24,0.287 0.272,0.3Z"/><path d="M146.582,78.611c-0.093,0.089 -0.239,0.187 -0.138,0.19l0.026,-0.002c0.027,-0.051 0.063,-0.098 0.109,-0.138l0.003,-0.048l-0,-0.002c0.033,-0.031 0.059,-0.06 0.066,-0.085c0.027,-0.099 0.173,-0.094 0.203,-0.183c0.101,-0.294 0.53,-0.136 0.722,-0.348c0.061,-0.068 0.159,0.057 0.224,-0.01c0.115,-0.118 0.25,0.181 0.409,0.093c0.066,-0.036 0.083,0.133 0.16,0.105c0.072,-0.026 0.014,0.187 0.103,0.174c0.024,-0.004 -0.006,0.035 -0.003,0.06c0.012,0.102 -0.067,0.175 -0.196,0.18c-0.399,0.017 -0.397,0.19 -0.965,0.136c-0.165,-0.219 -0.476,-0.263 -0.695,-0.098l-0.031,0.026c-0.007,0.079 -0.04,0.13 -0.109,0.138c-0.087,0.165 -0.078,0.372 0.042,0.531c-0.144,0.763 -0.008,0.782 0.048,1.31c0.019,0.177 0.13,0.192 0.179,0.34c0.085,0.257 0.303,0.238 0.422,0.425c0.103,0.164 0.271,0.095 0.386,0.222c0.188,0.207 0.409,0.03 0.619,0.161c0.309,0.193 0.523,-0.112 0.865,-0.083c0.333,0.028 0.5,-0.314 0.821,-0.462c0.444,-0.203 0.632,-0.719 0.917,-1.306c0.096,-0.196 0.12,-0.438 0.146,-0.689c0.058,-0.576 0.005,-1.291 -0.256,-2.024c-0.624,-1.751 -2.117,-3.886 -4.926,-4.427c-2.187,-0.422 -5.235,-0.022 -9.216,2.853c-0.241,0.13 -0.332,0.431 -0.202,0.672c0.13,0.242 0.431,0.332 0.672,0.202c2.783,-1.046 4.851,-1.215 6.452,-0.968c1.553,0.24 2.35,1.157 2.793,2.041c0.15,0.298 0.346,0.758 0.35,1.014Z"/></g><g><path d="M149.663,116.319c0,0 1.212,-1.717 2.997,-4.647c0.867,-1.423 1.836,-3.101 2.874,-5c0.382,-0.7 0.756,-1.43 1.134,-2.186c0.551,-1.106 1.108,-2.258 1.654,-3.449c0.779,-1.7 1.529,-3.476 2.298,-5.254c3.486,-8.067 6.976,-16.332 8.778,-20.494c1.824,-4.254 7.066,-5.895 10.962,-4.677c3.568,1.116 5.767,4.745 3.595,10.993c-1.726,4.985 -3.792,11.187 -5.803,17.334c-4.312,13.179 -8.379,26.084 -8.379,26.084c-0.088,0.259 0.052,0.541 0.311,0.629c0.26,0.087 0.542,-0.052 0.629,-0.312c0,0 4.581,-12.723 9.402,-25.716c2.246,-6.05 4.54,-12.155 6.452,-17.058c3.311,-8.521 -0.278,-13.419 -5.153,-15.13c-5.417,-1.902 -12.78,0.378 -15.541,6.272c-1.912,4.118 -5.693,12.263 -9.319,20.277c-0.799,1.765 -1.607,3.516 -2.34,5.237c-0.513,1.205 -0.99,2.393 -1.435,3.546c-0.306,0.789 -0.593,1.556 -0.853,2.311c-0.705,2.046 -1.291,3.893 -1.758,5.493c-0.962,3.294 -1.413,5.347 -1.413,5.347c-0.11,0.251 0.003,0.544 0.254,0.654c0.251,0.111 0.544,-0.003 0.654,-0.254Z"/><path d="M184.879,81.768c0,-0 -0.552,0.115 -1.726,0.64c-0.476,0.212 -0.94,0.43 -1.526,0.775c-0.305,0.178 -0.603,0.362 -0.911,0.597c-0.272,0.208 -0.536,0.445 -0.802,0.694c-1.671,1.564 -3.552,3.445 -5.487,4.603c-1.245,0.746 -2.403,1.369 -3.446,1.066c-0.977,-0.283 -1.682,-1.26 -2.199,-3.092c-0.74,-2.618 -1.037,-6.603 -0.654,-12.488c0.035,-0.272 -0.156,-0.521 -0.428,-0.557c-0.272,-0.035 -0.521,0.156 -0.557,0.428c-1.522,7.709 -1.414,12.459 -0.484,15.211c0.686,2.03 1.889,3.098 3.208,3.652c1.793,0.751 4.068,0.348 6.411,-0.774c2.35,-1.126 4.85,-2.953 6.742,-4.799c0.284,-0.277 0.552,-0.555 0.779,-0.851c0.253,-0.329 0.459,-0.645 0.639,-0.978c0.341,-0.63 0.564,-1.123 0.741,-1.643c0.427,-1.261 0.463,-1.849 0.463,-1.849c0.176,-0.211 0.147,-0.524 -0.064,-0.699c-0.21,-0.175 -0.523,-0.147 -0.699,0.064Z"/><path d="M166.593,84.251c0.003,0.05 0.024,0.116 0.059,0.177c0.091,0.159 0.258,0.248 0.43,0.248l0,0.001l-0,-0.001l0,0l0,0.001l0.002,-0.001l-0.002,0c0.001,-0.008 0.012,-0.115 0.221,-0.058l-0.219,0.058c0.077,0 0.155,-0.018 0.227,-0.056c0.035,0.01 0.074,0.024 0.119,0.043c0.256,0.111 0.165,0.195 0.916,0.471c0.281,0.103 0.375,0.19 0.756,0.256c0.151,0.027 0.264,0.078 0.433,0.057c0.284,-0.037 0.577,-0.164 0.89,-0.27c0.616,-0.21 1.26,-0.514 1.966,-0.633c0.85,-0.144 1.727,-0.29 2.536,0.129c1.182,0.613 2.205,1.84 2.845,4.252c0.029,0.273 0.273,0.471 0.545,0.442c0.273,-0.028 0.471,-0.273 0.442,-0.545c0.225,-4.613 -1.736,-6.614 -3.861,-7.596c-1.452,-0.672 -3.117,-0.684 -4.643,-0.502c-0.658,0.079 -1.291,0.196 -1.832,0.409c-0.172,0.067 -0.337,0.136 -0.471,0.244c-0.174,0.138 -0.284,0.241 -0.395,0.408c-0.263,0.397 -0.343,0.504 -0.456,0.846c-0.253,0.763 -0.195,0.727 -0.241,1.002c-0.014,0.084 0.005,0.106 -0.022,0.103c-0.669,-0.068 -0.512,0.235 -0.245,0.515Z"/><path d="M174.213,82.711c-9,1.78 -3.955,2.381 1.637,1.126c0.313,-0.071 0.601,0.023 1.118,-0.362c0.204,-0.153 0.342,-0.423 0.514,-0.676c0.33,-0.484 0.608,-1.071 1.02,-1.542c0.278,-0.319 0.475,-0.691 0.814,-0.843c0.141,-0.064 0.239,-0.231 0.399,-0.208c0.909,0.13 1.861,0.965 3.003,3.053c0.088,0.26 0.37,0.399 0.629,0.311c0.26,-0.087 0.399,-0.369 0.312,-0.629c-0.347,-2.303 -1.031,-3.656 -1.74,-4.53c-0.396,-0.488 -0.871,-0.74 -1.318,-0.97c-0.719,-0.37 -1.474,-0.331 -2.247,-0.221c-1.693,0.241 -3.428,1.707 -4.56,3.08c-0.164,0.199 -0.331,0.392 -0.417,0.604c-0.075,0.185 -0.107,0.331 -0.106,0.505c0.005,0.632 0.076,0.758 0.17,1.049c0.052,0.162 0.116,0.185 0.116,0.185c-0,-0 0.073,0.002 0.064,-0.024c-0.026,-0.079 0.092,-0.032 0.082,-0.082c-0.037,-0.174 0.184,-0.05 0.185,-0.152c0.002,-0.117 0.14,0.002 0.156,-0.087c0.013,-0.075 0.095,0.019 0.114,-0.045c0.063,-0.214 0.235,0.09 0.335,-0.056c0.048,-0.071 0.089,0.069 0.143,0.008c0.051,-0.056 0.072,0.072 0.127,0.023c0.033,-0.029 0.038,0.047 0.072,0.02c0.157,-0.121 0.116,0.217 0.301,0.149c0.097,-0.035 0.033,0.135 0.139,0.115c0.192,-0.036 -0.017,0.26 0.213,0.293c0.086,0.013 -0.035,0.12 0.06,0.148c0.133,0.04 -0.114,0.178 0.053,0.28c0.092,0.057 -0.155,0.12 -0.02,0.256c0.04,0.04 0.039,0.068 -0.049,0.134c-0.092,0.069 -0.062,0.06 -0.41,-0.512c0.11,-0.251 -0.004,-0.544 -0.255,-0.654c-0.25,-0.111 -0.543,0.003 -0.654,0.254Z"/><path d="M178.144,78.544c-0.144,0.066 -0.293,0.119 -0.179,0.15c0.049,0.014 0.088,0.005 0.117,-0.022l0.02,-0.03l0.015,-0.018l0.005,-0.008c0.004,-0.011 0.008,-0.021 0.012,-0.031l0.01,-0.041c0.087,-0.039 0.172,-0.084 0.195,-0.13c0.042,-0.084 0.168,-0.053 0.214,-0.126c0.137,-0.217 0.457,-0.024 0.638,-0.179c0.058,-0.05 0.127,0.056 0.187,0.007c0.152,-0.125 0.276,0.214 0.478,0.139c0.104,-0.038 0.104,0.192 0.228,0.174c0.049,-0.007 0.017,0.107 0.071,0.105c0.068,-0.002 0.022,0.1 0.012,0.182c-0.013,0.101 -0.109,0.148 -0.238,0.122c-0.392,-0.078 -0.428,0.08 -0.979,-0.1c-0.113,-0.25 -0.407,-0.361 -0.657,-0.248c-0.07,0.032 -0.13,0.078 -0.176,0.134l-0.01,0.019c-0.006,0.007 -0.012,0.014 -0.017,0.022l-0.008,0.007c-0.09,0.137 -0.109,0.315 -0.037,0.475c-0.305,0.71 -0.191,0.756 -0.26,1.272c-0.023,0.176 0.077,0.217 0.089,0.369c0.021,0.278 0.244,0.31 0.315,0.519c0.068,0.201 0.266,0.163 0.357,0.322c0.162,0.284 0.463,0.112 0.672,0.302c0.257,0.231 0.499,-0.053 0.814,0.047c0.074,0.023 0.127,-0.048 0.204,-0.04c0.339,0.036 0.536,-0.288 0.893,-0.426c0.404,-0.157 0.628,-0.603 0.958,-1.116c0.107,-0.165 0.159,-0.378 0.217,-0.599c0.134,-0.52 0.198,-1.177 0.11,-1.889c-0.236,-1.919 -1.213,-4.368 -3.509,-5.523c-2.026,-1.019 -5.135,-1.291 -9.611,1.548c-0.249,0.115 -0.357,0.41 -0.242,0.659c0.115,0.248 0.41,0.357 0.659,0.242c2.896,-0.895 4.89,-0.836 6.326,-0.319c1.346,0.485 1.775,1.658 1.981,2.677c0.088,0.434 0.197,1.063 0.126,1.352Z"/></g><path d="M24.616,116.098l27.148,57.126c0,0 87.931,5.157 92.576,1.571c4.646,-3.586 30.602,-54.673 30.446,-59.414c-0.156,-4.741 -149.609,-3.002 -150.17,0.717Z" style="fill:#fff;"/><path d="M24.126,116.024c-0.015,0.098 -0,0.198 0.042,0.288c0,-0 3.11,7.742 7.274,17.551c1.565,3.687 3.298,7.647 5.045,11.608c1.746,3.958 3.498,7.911 5.168,11.549c4.436,9.659 8.088,17.165 8.088,17.165c0.351,0.737 1.075,1.225 1.89,1.273c0,0 37.613,2.08 64.971,2.481c11.23,0.164 20.749,0.033 25.311,-0.6c1.846,-0.255 3.047,-0.695 3.55,-1.088c0.854,-0.667 2.422,-2.772 4.34,-5.907c3.414,-5.581 8.245,-14.575 12.836,-23.681c5.512,-10.933 10.678,-22.024 12.664,-27.552c0.66,-1.836 0.963,-3.157 0.939,-3.778c-0.02,-0.508 -0.273,-1.205 -1.222,-1.666c-0.845,-0.411 -2.848,-0.813 -5.812,-1.109c-9.838,-0.98 -31.108,-1.296 -54.393,-1.139c-30.994,0.208 -65.562,1.249 -81.422,2.637c-4.041,0.354 -6.881,0.735 -8.163,1.125c-0.757,0.231 -1.072,0.607 -1.106,0.843Zm149.091,0.065c-0.133,0.495 -0.378,1.17 -0.689,2.006c-2.026,5.436 -7.27,16.324 -12.837,27.059c-4.645,8.957 -9.516,17.806 -12.954,23.29c-1.559,2.489 -2.743,4.25 -3.459,4.844c-0.089,0.028 -0.509,0.155 -0.862,0.221c-0.894,0.169 -2.128,0.294 -3.645,0.391c-5.019,0.32 -12.982,0.281 -22.091,0.065c-24.24,-0.577 -56.546,-2.477 -63.451,-2.893c-1.168,-2.493 -4.063,-8.632 -7.644,-15.919c-1.766,-3.593 -3.725,-7.447 -5.691,-11.301c-1.968,-3.856 -3.944,-7.701 -5.814,-11.243c-4.34,-8.217 -7.967,-14.821 -8.824,-16.376c0.043,-0.017 0.089,-0.034 0.133,-0.049c1.025,-0.331 3.312,-0.627 6.597,-0.9c12.741,-1.061 40.256,-1.677 67.762,-1.729c27.52,-0.051 55.027,0.464 67.685,1.682c2.708,0.26 4.693,0.528 5.784,0.852Z"/></svg>