<?xml version="1.0" encoding="UTF-8" standalone="no"?><!DOCTYPE svg PUBLIC "-//W3C//DTD SVG 1.1//EN" "http://www.w3.org/Graphics/SVG/1.1/DTD/svg11.dtd"><svg width="100%" height="100%" viewBox="0 0 201 200" version="1.1" xmlns="http://www.w3.org/2000/svg" xmlns:xlink="http://www.w3.org/1999/xlink" xml:space="preserve" xmlns:serif="http://www.serif.com/" style="fill-rule:evenodd;clip-rule:evenodd;stroke-linejoin:round;stroke-miterlimit:2;"><rect id="bezahlen" x="0.27" y="0" width="200" height="200" style="fill:none;"/><g><ellipse cx="55.885" cy="48.541" rx="24.298" ry="23.558" style="fill:#fff;"/><path d="M55.885,24.487c-6.814,-0.112 -13.028,2.461 -17.601,6.688c-4.733,4.375 -7.691,10.529 -7.799,17.366c-0.108,6.919 2.742,13.217 7.391,17.793c4.593,4.52 10.958,7.333 18.009,7.437c7.123,0.096 13.61,-2.619 18.374,-7.055c4.926,-4.587 7.983,-11.034 8.066,-18.175c0.04,-5.733 -1.825,-11.072 -5.103,-15.348c-0.833,-1.086 -1.753,-2.108 -2.772,-3.028c-1.209,-1.092 -2.527,-2.075 -3.959,-2.884c-2.091,-1.18 -4.352,-2.085 -6.77,-2.567c-2.53,-0.505 -5.134,-0.57 -7.836,-0.227Zm-0,0.992c2.502,0.318 4.78,1.064 6.976,2.006c1.969,0.844 3.767,1.916 5.442,3.161c1.11,0.825 2.14,1.732 3.105,2.705c0.802,0.809 1.552,1.663 2.239,2.568c2.691,3.547 4.36,7.885 4.393,12.622c0.069,5.992 -2.405,11.439 -6.44,15.39c-4.019,3.934 -9.561,6.413 -15.715,6.496c-6.226,0.091 -11.906,-2.247 -16.08,-6.113c-4.298,-3.981 -7.018,-9.559 -7.116,-15.773c-0.099,-6.297 2.481,-12.032 6.708,-16.2c4.206,-4.147 10.025,-6.755 16.488,-6.862Z"/><ellipse cx="89.156" cy="48.735" rx="24.298" ry="23.558" style="fill:#fff;"/><path d="M89.156,24.681c-6.814,-0.113 -13.028,2.46 -17.601,6.688c-4.732,4.375 -7.691,10.529 -7.799,17.366c-0.108,6.919 2.742,13.217 7.391,17.792c4.593,4.521 10.958,7.334 18.009,7.437c7.123,0.096 13.61,-2.618 18.374,-7.054c4.927,-4.588 7.983,-11.034 8.066,-18.175c0.04,-5.733 -1.825,-11.072 -5.103,-15.349c-0.833,-1.085 -1.753,-2.108 -2.771,-3.027c-1.21,-1.093 -2.527,-2.075 -3.96,-2.884c-2.091,-1.18 -4.352,-2.085 -6.77,-2.567c-2.53,-0.505 -5.134,-0.57 -7.836,-0.227Zm-0,0.992c2.502,0.318 4.78,1.064 6.976,2.005c1.969,0.845 3.767,1.916 5.442,3.162c1.11,0.825 2.141,1.731 3.105,2.705c0.802,0.809 1.552,1.663 2.239,2.568c2.691,3.547 4.36,7.885 4.393,12.622c0.069,5.991 -2.405,11.439 -6.44,15.39c-4.019,3.934 -9.561,6.412 -15.715,6.495c-6.226,0.092 -11.906,-2.246 -16.08,-6.113c-4.298,-3.98 -7.018,-9.558 -7.116,-15.772c-0.099,-6.297 2.481,-12.032 6.708,-16.2c4.206,-4.148 10.025,-6.755 16.488,-6.862Z"/></g><g><path id="polygon9" d="M126.397,126.172l-8.568,0l5.359,-33.136l8.568,0l-5.359,33.136Z" style="fill:#fff;fill-rule:nonzero;"/><path d="M126.397,126.448c0.135,-0 0.251,-0.098 0.272,-0.232l5.881,-33.051c0.037,-0.233 -0.029,-0.471 -0.182,-0.65c-0.153,-0.18 -0.377,-0.283 -0.612,-0.283l-8.568,-0.125c-0.456,0 -0.844,0.331 -0.917,0.781c0,0 -2.972,16.797 -4.594,26.459c-0.258,1.538 -0.489,2.894 -0.644,3.976c-0.237,1.659 -0.331,2.667 -0.331,2.667c-0.053,0.33 0.041,0.667 0.258,0.922c0.217,0.255 0.535,0.402 0.869,0.402c0,-0 2.14,-0.114 4.284,-0.33c2.165,-0.219 4.284,-0.536 4.284,-0.536Zm-0.233,-0.586c-0.608,-0.087 -2.315,-0.326 -4.051,-0.502c-1.05,-0.106 -2.098,-0.187 -2.896,-0.242c0.078,-0.387 0.168,-0.857 0.266,-1.399c0.194,-1.075 0.402,-2.435 0.642,-3.976c1.315,-8.45 3.367,-22.383 3.867,-25.789c0,-0 6.832,-0.1 6.832,-0.1l-4.66,32.008Z"/><path id="path11" d="M157.457,93.846c-1.69,-0.67 -4.371,-1.41 -7.685,-1.41c-8.461,-0 -14.419,4.512 -14.456,10.962c-0.07,4.759 4.266,7.403 7.509,8.99c3.315,1.621 4.442,2.68 4.442,4.125c-0.034,2.22 -2.679,3.243 -5.146,3.243c-3.42,0 -5.253,-0.527 -8.039,-1.762l-1.128,-0.53l-1.199,7.439c2.01,0.915 5.712,1.727 9.556,1.763c8.99,0 14.843,-4.442 14.912,-11.316c0.034,-3.772 -2.256,-6.663 -7.192,-9.024c-2.997,-1.517 -4.832,-2.539 -4.832,-4.09c0.035,-1.41 1.552,-2.855 4.935,-2.855c2.786,-0.071 4.832,0.599 6.382,1.269l0.775,0.352l1.166,-7.156Z" style="fill:#fff;fill-rule:nonzero;"/><path d="M157.729,93.891c0.02,-0.128 -0.05,-0.253 -0.171,-0.301c-0.954,-0.465 -2.223,-0.974 -3.775,-1.373c-1.19,-0.305 -2.531,-0.525 -4.011,-0.626c-1.881,-0.093 -3.651,0.027 -5.277,0.366c-1.903,0.396 -3.604,1.085 -5.044,1.994c-3.386,2.138 -5.341,5.492 -5.364,9.44c-0.021,2.119 0.703,3.886 1.833,5.351c1.668,2.163 4.247,3.65 6.397,4.684c-0,0 -0,0 -0,0c1.406,0.677 2.395,1.236 3.049,1.784c0.516,0.432 0.779,0.812 0.786,1.292c-0.012,0.759 -0.552,1.256 -1.241,1.596c-0.802,0.396 -1.812,0.586 -2.79,0.594c-1.559,0.012 -2.77,-0.089 -3.903,-0.331c-1.218,-0.261 -2.345,-0.68 -3.714,-1.273c-0.014,-0.006 -1.13,-0.519 -1.13,-0.519c-0.281,-0.132 -0.607,-0.124 -0.882,0.021c-0.274,0.145 -0.465,0.41 -0.514,0.717l-1.139,7.448c-0.067,0.413 0.151,0.819 0.531,0.992c1.184,0.527 2.92,1.023 4.928,1.351c1.55,0.253 3.264,0.411 5.005,0.412c0.003,-0 0.005,-0 0.008,-0c4.243,-0.038 7.806,-1.027 10.438,-2.754c3.256,-2.137 5.125,-5.386 5.128,-9.4c-0,0 -0,-0 -0,-0c-0,-1.843 -0.509,-3.487 -1.565,-4.965c-1.233,-1.725 -3.222,-3.232 -6.047,-4.552c-1.412,-0.698 -2.563,-1.284 -3.378,-1.876c-0.742,-0.54 -1.198,-1.054 -1.209,-1.717c0.012,-0.602 0.367,-1.195 1.072,-1.643c0.75,-0.477 1.866,-0.788 3.384,-0.802c0.004,-0 0.007,-0.001 0.011,-0.001c1.189,-0.041 2.242,0.056 3.176,0.233c1.198,0.228 2.202,0.584 3.054,0.943c-0.005,-0.003 0.773,0.342 0.773,0.342c0.098,0.044 0.212,0.04 0.307,-0.01c0.095,-0.051 0.161,-0.144 0.179,-0.251l1.095,-7.166Zm-24.019,25.031c1.492,0.674 2.727,1.146 4.061,1.453c1.26,0.29 2.609,0.432 4.35,0.446c1.617,0.013 3.295,-0.384 4.466,-1.17c1.084,-0.727 1.764,-1.774 1.794,-3.121c-0,-0.006 -0,-0.011 -0,-0.017c0.006,-0.889 -0.276,-1.683 -0.988,-2.481c-0.723,-0.81 -1.994,-1.655 -4.06,-2.683c-1.842,-0.916 -4.079,-2.186 -5.496,-4.068c-0.801,-1.062 -1.322,-2.333 -1.292,-3.865c-0,-0.003 -0,-0.007 -0,-0.011c0.017,-3.1 1.631,-5.646 4.245,-7.393c1.214,-0.812 2.631,-1.466 4.233,-1.929c1.453,-0.42 3.036,-0.717 4.749,-0.802c1.387,-0.095 2.661,-0.052 3.806,0.07c1.419,0.152 2.623,0.41 3.565,0.688l0,-0l-1.116,6.457l-0.37,-0.172c-0.886,-0.394 -1.933,-0.787 -3.184,-1.05c-0.983,-0.207 -2.092,-0.332 -3.349,-0.312c-1.72,-0.017 -2.991,0.341 -3.855,0.868c-1.04,0.635 -1.518,1.526 -1.548,2.394c-0,0.004 -0,0.008 -0,0.012c-0.007,0.764 0.339,1.434 1.019,2.075c0.839,0.793 2.233,1.557 4.047,2.496c0.004,0.002 0.007,0.004 0.011,0.006c2.089,1.023 3.685,2.137 4.806,3.378c1.362,1.508 2.001,3.206 1.965,5.153c-0.068,3.513 -1.75,6.329 -4.633,8.147c-2.443,1.541 -5.732,2.366 -9.625,2.331c-1.636,-0.029 -3.252,-0.206 -4.712,-0.47c-1.478,-0.268 -2.792,-0.626 -3.806,-1.018l0.917,-5.412Z"/><path id="path13" d="M168.844,114.433c0.706,-1.903 3.421,-9.271 3.421,-9.271c-0.036,0.071 0.704,-1.939 1.127,-3.172l0.599,2.855c-0,0 1.622,7.932 1.975,9.588l-7.122,0Zm10.576,-21.397l-6.627,0c-2.044,0 -3.597,0.599 -4.478,2.75l-12.727,30.386l8.99,-0c0,-0 1.48,-4.09 1.798,-4.971l11.001,0c0.246,1.164 1.022,4.971 1.022,4.971l7.933,-0l-6.912,-33.136Z" style="fill:#fff;fill-rule:nonzero;"/><path d="M179.69,92.98c-0.027,-0.128 -0.139,-0.219 -0.27,-0.219l-6.627,-0.576c-1.231,-0.073 -2.31,0.095 -3.238,0.567c-0.942,0.479 -1.706,1.307 -2.308,2.596c0.004,-0.008 -0.537,1.133 -1.349,2.997c-0.378,0.869 -0.805,1.899 -1.278,3.037c-3.69,8.878 -10.008,24.381 -10.008,24.381c-0.137,0.327 -0.101,0.7 0.095,0.995c0.196,0.295 0.527,0.472 0.881,0.472l8.99,-0.086c0.41,0 0.775,-0.256 0.915,-0.641l1.538,-4.388c0,-0 9.698,-0.102 9.698,-0.102c-0,0 0.933,4.309 0.933,4.309c0.072,0.35 0.38,0.602 0.737,0.602l7.933,-0.089c0.2,-0 0.389,-0.09 0.514,-0.245c0.126,-0.155 0.176,-0.358 0.135,-0.554l-7.291,-33.056Zm-0.493,0.351l6.327,32.169c0,-0 -6.504,-0.073 -6.504,-0.073c-0,-0 -0.855,-4.392 -0.855,-4.392c-0.079,-0.373 -0.408,-0.639 -0.788,-0.639l-11.001,-0.115c-0.387,-0 -0.734,0.243 -0.865,0.608l-1.606,4.304c0,-0 -6.717,-0.064 -6.717,-0.064c1.735,-4.037 6.687,-15.572 9.73,-22.785c0.479,-1.135 0.914,-2.162 1.268,-3.041c0.759,-1.885 1.192,-3.072 1.192,-3.072c0.001,-0.002 0.003,-0.005 0.004,-0.008c0.285,-0.803 0.662,-1.36 1.192,-1.706c0.612,-0.398 1.355,-0.578 2.219,-0.63l6.404,-0.556Zm-8.012,11.447c-0.067,0.16 -0.788,1.88 -1.521,3.849c-0.205,0.548 -0.424,1.112 -0.588,1.679c-0.09,0.314 -0.156,0.623 -0.214,0.932c-0.098,0.519 -0.169,0.986 -0.211,1.439c-0.068,0.729 -0.049,1.257 -0.066,1.661c-0.031,0.084 -0.019,0.179 0.033,0.253c0.051,0.074 0.136,0.118 0.226,0.118l7.122,0.291c0.17,-0 0.332,-0.077 0.44,-0.21c0.107,-0.133 0.149,-0.307 0.114,-0.474l-1.607,-9.664l-0.502,-2.876c-0.096,-0.458 -0.487,-0.796 -0.955,-0.825c-0.467,-0.029 -0.897,0.258 -1.049,0.701c-0.34,0.9 -0.868,2.217 -1.102,2.812c-0.058,0.147 -0.098,0.253 -0.116,0.303l-0.004,0.011Zm2.073,1.032l1.992,8.086l-5.822,0.238c0.203,-0.244 0.442,-0.536 0.706,-0.91c0.262,-0.371 0.511,-0.772 0.775,-1.231c0.156,-0.272 0.307,-0.55 0.442,-0.848c0.243,-0.538 0.443,-1.109 0.643,-1.659c0.591,-1.617 1.078,-3.102 1.264,-3.676Z"/><path id="path15" d="M110.673,93.036l-8.391,22.596l-0.917,-4.583c-1.551,-5.288 -6.416,-11.033 -11.845,-13.889l7.685,28.977l9.061,0l13.467,-33.101l-9.06,0Z" style="fill:#fff;fill-rule:nonzero;"/><path d="M110.673,92.761c-0.115,-0 -0.218,0.071 -0.258,0.179c-0,0 -1.13,2.303 -2.562,5.477c-0.759,1.683 -1.594,3.599 -2.404,5.535c-0.637,1.521 -1.252,3.05 -1.804,4.473c-0.371,0.958 -0.717,1.865 -1.025,2.687l-0.088,-0.405c-0.858,-2.852 -2.619,-5.833 -4.921,-8.453c-2.17,-2.468 -4.811,-4.62 -7.586,-6.054c-0.381,-0.201 -0.845,-0.157 -1.181,0.112c-0.337,0.268 -0.483,0.71 -0.373,1.126l7.943,28.909c0.095,0.359 0.42,0.609 0.791,0.609l9.061,-0.087c0.298,0 0.566,-0.18 0.678,-0.456l13.133,-33.237c0.046,-0.114 0.033,-0.244 -0.036,-0.347c-0.069,-0.102 -0.184,-0.164 -0.308,-0.164l-9.06,0.096Zm0.211,0.553l8.293,0.088c0,-0 -13.397,31.998 -13.397,31.998c0,0 -7.937,-0.076 -7.937,-0.076c-0,0 -6.604,-25.821 -6.604,-25.821c1.686,1.197 3.262,2.661 4.629,4.261c2.014,2.358 3.57,5.015 4.312,7.562c0.003,0.009 0.888,4.549 0.888,4.549c0.108,0.543 0.564,0.948 1.116,0.992c0.553,0.044 1.067,-0.285 1.26,-0.804c-0,0 1.154,-2.964 2.51,-6.781c0.51,-1.438 1.042,-2.997 1.553,-4.566c0.649,-1.996 1.267,-3.993 1.791,-5.763c0.83,-2.807 1.419,-5.009 1.586,-5.639Z"/><path id="path17" d="M94.491,93.036l-13.785,0l-0.141,0.67c10.753,2.75 17.874,9.378 20.8,17.345l-2.996,-15.229c-0.494,-2.117 -2.01,-2.716 -3.878,-2.786Z" style="fill:#fff;fill-rule:nonzero;"/><path d="M94.501,92.761c-0.003,-0 -0.007,-0 -0.01,-0c-0,-0 -1.435,-0.287 -3.446,-0.561c-0.751,-0.102 -1.563,-0.191 -2.413,-0.266c-0.342,-0.03 -0.687,-0.049 -1.034,-0.067c-0.699,-0.036 -1.396,-0.067 -2.067,-0.077c-2.635,-0.041 -4.825,0.03 -4.825,0.03c-0.575,-0 -1.072,0.403 -1.191,0.966l-0.134,0.671c-0.133,0.634 0.256,1.26 0.884,1.421c4.858,1.16 8.967,3.14 12.276,5.696c3.806,2.94 6.561,6.629 8.154,10.723c0.129,0.349 0.504,0.541 0.863,0.441c0.359,-0.101 0.58,-0.46 0.508,-0.825l-3.318,-15.18c-0.292,-1.14 -0.848,-1.871 -1.581,-2.325c-0.734,-0.454 -1.651,-0.631 -2.666,-0.647Zm-0.012,0.551c0.888,0.054 1.689,0.228 2.316,0.655c0.574,0.391 0.984,1.005 1.181,1.93c0,0 1.756,10.022 1.756,10.022c-1.53,-2.529 -3.526,-4.855 -5.97,-6.883c-2.252,-1.87 -4.886,-3.479 -7.884,-4.761c0.56,-0.014 1.135,-0.04 1.71,-0.069c0.347,-0.018 0.692,-0.038 1.034,-0.068c0.85,-0.074 1.662,-0.163 2.413,-0.265c1.972,-0.269 3.389,-0.55 3.444,-0.561Z"/></g><g><path id="Shape1" d="M59.71,173.01c-0,0.654 -0.464,1.446 -1.035,1.773l-19.993,11.565c-0.572,0.327 -1.498,0.327 -2.071,0l-19.993,-11.565c-0.572,-0.327 -1.035,-1.118 -1.035,-1.773l0,-23.13c0,-0.654 0.464,-1.446 1.035,-1.773l19.993,-11.565c0.573,-0.327 1.499,-0.327 2.071,0l19.993,11.565c0.572,0.327 1.035,1.118 1.035,1.773l-0,23.13Zm110.999,-21.466l-17.897,-0l0,4.282l6.428,-0l0,18.302l5.066,-0l0,-18.302l6.402,-0l0.001,-4.282Zm-81.308,-0l-17.923,-0l-0,4.282l6.428,-0l-0,18.302l5.066,-0l-0,-18.302l6.428,-0l0.001,-4.282Zm51.808,-0.709c-5.639,0 -8.772,3.6 -8.772,8.81l0,14.484l5.012,0l0,-14.592c0,-2.264 1.335,-4.01 3.814,-4.01c2.479,0 3.786,2.073 3.786,4.01l0,14.592l5.012,0l-0,-14.484c0.028,-5.21 -3.214,-8.81 -8.852,-8.81Zm-18.904,0.709l0,22.584l5.012,-0l0,-22.584l-5.012,-0Zm-16.997,8.946l0.164,1.009l4.712,12.629l2.043,-0l6.401,-22.584l-4.931,-0l-3.051,11.865l-0.191,1.282l-0.245,-1.282l-4.085,-11.865l-1.635,-0l-4.086,11.865l-0.245,1.282l-0.163,-1.282l-3.051,-11.865l-4.957,-0l6.401,22.584l2.043,-0l4.712,-12.629l0.163,-1.009" style="fill:#fff;fill-rule:nonzero;"/><path d="M59.931,173.01l0.166,-23.13c0.003,-0.391 -0.129,-0.826 -0.35,-1.21c-0.221,-0.384 -0.532,-0.715 -0.872,-0.912c0.002,0.001 -19.911,-11.703 -19.911,-11.703c-0.001,-0 -0.002,-0.001 -0.003,-0.001c-0.363,-0.211 -0.838,-0.324 -1.314,-0.327c-0.479,-0.004 -0.956,0.107 -1.322,0.314l-20.072,11.435c-0.386,0.217 -0.744,0.589 -1.001,1.022c-0.26,0.437 -0.409,0.934 -0.412,1.382c-0,0 -0.137,23.13 -0.137,23.13c-0.002,0.472 0.152,0.996 0.419,1.458c0.267,0.46 0.645,0.852 1.054,1.088c-0.004,-0.002 19.939,11.651 19.939,11.651c0.001,0.001 0.003,0.001 0.004,0.002c0.423,0.243 0.974,0.377 1.528,0.378c0.554,0.001 1.105,-0.133 1.529,-0.375c0.001,-0.001 0.003,-0.001 0.004,-0.002c0,-0 2.142,-1.21 4.993,-2.9c1.518,-0.9 3.234,-1.937 4.941,-2.991c2.094,-1.294 4.171,-2.608 5.866,-3.699c2.29,-1.474 3.867,-2.54 3.867,-2.54c0.317,-0.207 0.607,-0.535 0.802,-0.917c0.191,-0.373 0.303,-0.784 0.282,-1.153l-0,0Zm-0.442,0c-0.016,0.288 -0.145,0.596 -0.327,0.868c-0.174,0.263 -0.408,0.483 -0.657,0.608c-0.001,0 -0.001,0 -0.001,0.001c-0,-0 -1.711,0.835 -4.13,2.085c-1.791,0.926 -3.965,2.07 -6.131,3.241c-1.765,0.953 -3.519,1.925 -5.056,2.791c-2.831,1.597 -4.921,2.834 -5.001,2.881c-0.149,0.085 -0.345,0.115 -0.539,0.115c-0.196,0 -0.394,-0.028 -0.543,-0.113c0.004,0.003 -20.04,-11.475 -20.04,-11.475c-0.002,-0 -0.003,-0.001 -0.004,-0.002c-0.162,-0.091 -0.302,-0.255 -0.409,-0.436c-0.107,-0.18 -0.187,-0.379 -0.188,-0.564c0,0 -0.137,-23.13 -0.137,-23.13c-0.001,-0.207 0.079,-0.435 0.197,-0.639c0.119,-0.206 0.275,-0.395 0.457,-0.501l19.919,-11.697c0.206,-0.119 0.477,-0.174 0.748,-0.176c0.272,-0.002 0.547,0.046 0.756,0.164c-0.003,-0.002 20.071,11.424 20.071,11.424c0,0 0.001,0.001 0.002,0.001c0.231,0.13 0.437,0.356 0.59,0.612c0.153,0.258 0.255,0.548 0.257,0.812c-0,0 0.166,23.13 0.166,23.13Zm50.834,-11.77l-3.49,-9.94c-0.104,-0.302 -0.389,-0.505 -0.708,-0.505l-1.635,0.011c-0.315,0 -0.595,0.2 -0.698,0.498l-3.551,10.543l-2.763,-10.44c-0.062,-0.243 -0.282,-0.413 -0.533,-0.413l-4.957,0.035c-0.161,0 -0.313,0.076 -0.41,0.205c-0.098,0.128 -0.129,0.295 -0.085,0.45l6.564,22.538c0.042,0.149 0.178,0.252 0.332,0.252l2.043,-0.016c0.138,0 0.261,-0.085 0.31,-0.215l4.531,-12.429c0.233,0.774 1.059,3.506 1.935,6.231c1.032,3.212 2.128,6.399 2.128,6.399c0.132,0.354 0.47,0.589 0.848,0.589l2.043,0.044c0.424,0 0.797,-0.282 0.913,-0.69c0,-0 0.566,-1.851 1.328,-4.503c1.892,-6.584 5.059,-18.085 5.059,-18.085c0.08,-0.282 0.023,-0.585 -0.153,-0.819c-0.177,-0.234 -0.453,-0.371 -0.746,-0.371l-4.931,0.025c-0.415,-0 -0.778,0.281 -0.881,0.683l-2.493,9.923Zm30.886,-10.625c-1.95,-0.155 -3.634,0.134 -5.039,0.791c-0.714,0.334 -1.34,0.779 -1.901,1.29c-0.94,0.857 -1.661,1.939 -2.144,3.2c-0.429,1.118 -0.64,2.383 -0.674,3.749c-0,0 0.043,14.484 0.043,14.484c0,0.521 0.423,0.943 0.943,0.943l5.012,-0.034c0.502,-0 0.909,-0.407 0.909,-0.909l-0.114,-14.592c-0.007,-0.934 0.242,-1.77 0.775,-2.362c0.509,-0.565 1.267,-0.896 2.244,-0.905c0.951,-0.008 1.694,0.356 2.208,0.919c0.581,0.637 0.883,1.507 0.891,2.348c-0,-0 0.135,14.592 0.135,14.592c0,0.305 0.247,0.552 0.552,0.552l5.012,-0.048c0.278,-0 0.503,-0.226 0.503,-0.504l-0.14,-14.484c-0.013,-2.75 -0.904,-5.059 -2.546,-6.655c-1.569,-1.524 -3.825,-2.404 -6.669,-2.375Zm-18.904,0.708c-0.121,0 -0.22,0.099 -0.22,0.221c-0,-0 -0.205,1.029 -0.419,2.71c-0.092,0.715 -0.177,1.532 -0.247,2.439c-0.041,0.519 -0.073,1.062 -0.089,1.626c-0.041,1.498 -0.013,3.124 -0.003,4.743c0.037,5.57 0.153,11.066 0.153,11.066c0,0.456 0.37,0.825 0.825,0.825l5.012,-0.082c0.41,0 0.743,-0.333 0.743,-0.743l-0.422,-22.584c0,-0.178 -0.144,-0.321 -0.321,-0.321l-5.012,0.1Zm-32.684,0.221c0,-0.059 -0.023,-0.115 -0.064,-0.156c-0.042,-0.042 -0.098,-0.065 -0.156,-0.065c-0,0 -1.892,-0.234 -4.481,-0.454c-0.974,-0.082 -2.038,-0.155 -3.137,-0.214c-0.445,-0.024 -0.894,-0.039 -1.344,-0.053c-0.908,-0.027 -1.817,-0.049 -2.688,-0.057c-3.425,-0.029 -6.273,0.027 -6.273,0.027c-0.537,0 -0.972,0.435 -0.972,0.972l0.037,4.282c0,0.516 0.419,0.934 0.935,0.934l5.563,-0.051c-0,-0 0.199,17.419 0.199,17.419c0,0.367 0.298,0.665 0.666,0.665l5.066,-0.061c0.333,-0 0.603,-0.271 0.603,-0.604l-0.233,-17.941c0,-0 6.058,-0.082 6.058,-0.082c0.154,-0 0.279,-0.125 0.279,-0.279l-0.058,-4.282Zm81.308,-0c0,-0.059 -0.023,-0.115 -0.064,-0.156c-0.042,-0.042 -0.098,-0.065 -0.156,-0.065c-0,0 -1.889,-0.234 -4.474,-0.453c-0.973,-0.083 -2.035,-0.156 -3.132,-0.215c-0.445,-0.024 -0.893,-0.039 -1.343,-0.053c-0.907,-0.027 -1.814,-0.049 -2.684,-0.057c-3.42,-0.029 -6.264,0.027 -6.264,0.027c-0.536,0 -0.971,0.435 -0.971,0.972l0.037,4.282c-0,0.516 0.418,0.934 0.934,0.934l5.563,-0.051c0,-0 0.2,17.419 0.2,17.419c-0,0.367 0.298,0.665 0.665,0.665l5.066,-0.062c0.334,0 0.604,-0.27 0.604,-0.603l-0.234,-17.942c0,0 6.032,-0.081 6.032,-0.081c0.154,-0 0.279,-0.125 0.279,-0.279l-0.058,-4.282Zm-65.621,8.946l0.218,-0.035c0,0 0.214,0.956 0.214,0.955c0.083,0.186 1.423,3.162 2.708,6.172c0.972,2.28 1.91,4.572 2.34,5.628c-0,-0 0.704,-0.016 0.704,-0.016c0.205,-0.772 0.577,-2.152 1.053,-3.855c1.485,-5.313 3.939,-13.772 4.839,-16.867c-0,0 -2.986,-0.015 -2.986,-0.015c-0,0 -2.927,11.124 -2.927,11.124l-0.191,1.233c-0.06,0.402 -0.401,0.702 -0.807,0.711c-0.407,0.008 -0.76,-0.278 -0.836,-0.677c-0,-0 -0.228,-1.231 -0.228,-1.231c0,0 -3.823,-11.328 -3.823,-11.328c0,-0 -0.575,-0.004 -0.575,-0.004c0,0 -3.974,11.297 -3.974,11.297l-0.244,1.23c-0.06,0.312 -0.337,0.534 -0.654,0.524c-0.317,-0.01 -0.58,-0.249 -0.62,-0.563c0,-0 -0.15,-1.248 -0.15,-1.248c0,-0 -2.854,-11.434 -2.854,-11.434c-0,-0 -3.85,-0.028 -3.85,-0.028c-0,0 5.988,21.721 5.988,21.721c0,0 1.552,0.012 1.552,0.012c0,-0 4.718,-12.357 4.718,-12.357l0.167,-0.984l0.218,0.035Zm35.901,-9.434c2.685,0.027 4.805,0.881 6.257,2.35c1.496,1.514 2.271,3.679 2.232,6.237l-0.136,13.978c0,-0 -3.956,-0.039 -3.956,-0.039c0,0 0.131,-14.045 0.131,-14.045c0.01,-1.177 -0.403,-2.397 -1.201,-3.303c-0.753,-0.856 -1.849,-1.437 -3.273,-1.45c-1.47,-0.012 -2.6,0.514 -3.379,1.352c-0.79,0.849 -1.219,2.042 -1.23,3.401c-0,-0 -0.107,13.677 -0.107,13.677c0,0 -3.164,-0.021 -3.164,-0.021c0,-0 0.041,-13.548 0.041,-13.548c-0.038,-1.39 0.171,-2.656 0.603,-3.767c0.314,-0.806 0.722,-1.538 1.276,-2.16c0.42,-0.472 0.904,-0.886 1.457,-1.242c1.195,-0.768 2.664,-1.279 4.449,-1.42Zm29.276,0.735l-0.053,3.752c0,-0 -6.126,-0.083 -6.126,-0.083c-0.202,0 -0.365,0.164 -0.365,0.366l-0.23,17.691c-0,0 -3.798,-0.046 -3.798,-0.046c0,-0 0.202,-17.645 0.202,-17.645c0,-0.484 -0.391,-0.875 -0.875,-0.875l-5.485,-0.051c-0,0 0.02,-2.37 0.02,-2.37c1.116,0.014 3.088,0.031 5.301,0.012c0.87,-0.007 1.777,-0.029 2.684,-0.057c0.45,-0.013 0.898,-0.029 1.343,-0.053c1.097,-0.059 2.159,-0.132 3.132,-0.214c2.059,-0.175 3.677,-0.359 4.25,-0.427l-0,0Zm-81.308,0l-0.053,3.752c0,-0 -6.152,-0.083 -6.152,-0.083c-0.202,-0 -0.366,0.164 -0.366,0.366l-0.23,17.691c0,0 -3.797,-0.046 -3.797,-0.046c-0,-0 0.202,-17.645 0.202,-17.645c-0,-0.484 -0.392,-0.875 -0.875,-0.875l-5.486,-0.051c0,0 0.021,-2.37 0.021,-2.37c1.117,0.014 3.092,0.031 5.31,0.012c0.871,-0.007 1.78,-0.029 2.688,-0.056c0.45,-0.014 0.899,-0.029 1.344,-0.053c1.099,-0.06 2.163,-0.132 3.137,-0.215c2.063,-0.175 3.684,-0.359 4.257,-0.427l-0,0Zm33.391,-0.021l4.422,0.088c-0,0 -0.402,21.515 -0.402,21.515c0,-0 -3.441,-0.056 -3.441,-0.056c0.033,-1.73 0.108,-5.97 0.136,-10.255c0.011,-1.619 0.039,-3.245 -0.002,-4.743c-0.016,-0.564 -0.049,-1.107 -0.089,-1.626c-0.071,-0.907 -0.156,-1.724 -0.247,-2.439c-0.156,-1.218 -0.306,-2.094 -0.377,-2.484l0,-0Z"/><path id="Shape2" d="M48.079,161.499l-5.231,7.665l-2.669,-4.091l3.078,-4.609c0.572,-0.819 1.797,-3.082 0.381,-6.164c-1.145,-2.51 -3.623,-3.71 -5.802,-3.71c-2.18,0 -4.55,1.118 -5.829,3.71c-1.444,2.973 -0.191,5.291 0.353,6.083c0,-0 1.716,2.509 3.133,4.637l2.316,3.354l3.487,5.347c0.027,0.028 0.572,0.873 1.552,0.873c0.926,-0 1.499,-0.845 1.581,-0.927l8.171,-12.111l-4.521,0l-0,-0.057Zm-10.27,0.191c-0,0 -1.362,-2.073 -2.261,-3.519c-0.954,-1.555 0.108,-3.872 2.261,-3.872c2.151,-0 3.214,2.319 2.261,3.872c-0.871,1.446 -2.261,3.519 -2.261,3.519Z" style="fill:#fff;fill-rule:nonzero;"/><path d="M48.079,161.72l-0.221,-0.22c-0,-0.044 0.013,-0.087 0.038,-0.125c0,0 -1.519,1.754 -2.983,3.581c-0.736,0.919 -1.453,1.851 -1.982,2.548c-0.102,-0.165 -0.211,-0.339 -0.323,-0.517c-0.432,-0.685 -0.916,-1.427 -1.236,-1.914c0,-0 2.689,-4.072 2.689,-4.072c0.404,-0.592 1.094,-1.822 1.166,-3.514c0.044,-1.029 -0.133,-2.233 -0.76,-3.568c-0.632,-1.354 -1.601,-2.375 -2.716,-3.065c-1.224,-0.757 -2.618,-1.121 -3.915,-1.108c-1.311,0.014 -2.681,0.381 -3.887,1.171c-1.047,0.686 -1.977,1.683 -2.631,3.043c-0.001,0.001 -0.002,0.003 -0.002,0.004c-0.608,1.288 -0.771,2.461 -0.704,3.468c0.106,1.615 0.792,2.803 1.174,3.346c-0.001,-0.002 3.18,4.593 3.18,4.593l2.361,3.335c0,0 3.544,5.292 3.544,5.292c0.019,0.029 0.041,0.057 0.066,0.081c0.021,0.02 0.295,0.414 0.779,0.693c0.304,0.176 0.683,0.312 1.132,0.306c0.359,-0.004 0.677,-0.101 0.947,-0.244c0.554,-0.293 0.896,-0.776 0.96,-0.841c0.021,-0.021 0.039,-0.044 0.056,-0.069l8.021,-12.212c0.058,-0.085 0.063,-0.196 0.015,-0.287c-0.049,-0.091 -0.144,-0.148 -0.247,-0.148l-4.521,0.058l-0,0.385Zm0.1,0.059l3.892,0.05c0,-0 -8.017,11.569 -8.017,11.569c-0.082,0.1 -0.277,0.339 -0.567,0.521c-0.174,0.108 -0.388,0.193 -0.639,0.19c-0.25,-0.003 -0.459,-0.087 -0.626,-0.189c-0.364,-0.222 -0.553,-0.542 -0.568,-0.558l0.066,0.082l-3.421,-5.389l-2.285,-3.395c0.006,0.008 -3.078,-4.671 -3.078,-4.671c-0.001,-0 -0.001,-0.001 -0.001,-0.001c-0.29,-0.431 -0.804,-1.372 -0.859,-2.636c-0.035,-0.794 0.121,-1.713 0.622,-2.717c0.536,-1.058 1.282,-1.836 2.12,-2.36c0.943,-0.59 2.006,-0.852 3.018,-0.841c0.991,0.01 2.05,0.314 2.974,0.91c0.826,0.533 1.541,1.309 1.998,2.334c0,0.001 0.001,0.002 0.001,0.003c0.458,1.019 0.587,1.931 0.54,2.71c-0.073,1.22 -0.586,2.098 -0.885,2.518l-3.113,4.611c-0.221,0.331 -0.224,0.763 -0.006,1.097c0,-0 0.847,1.323 1.608,2.451c0.581,0.861 1.114,1.606 1.114,1.606c0.171,0.261 0.46,0.419 0.772,0.422c0.311,0.004 0.604,-0.149 0.78,-0.406c-0,-0 1.234,-1.966 2.395,-3.983c0.977,-1.698 1.892,-3.414 2.165,-3.928Zm-10.552,0.036c-0.191,-0.107 -0.522,-0.31 -0.951,-0.636c-0.192,-0.146 -0.373,-0.302 -0.577,-0.5c-0.076,-0.074 -0.145,-0.152 -0.216,-0.236c-0.135,-0.158 -0.27,-0.321 -0.393,-0.497c-0.29,-0.415 -0.534,-0.868 -0.769,-1.261c-0.001,-0.001 -0.002,-0.003 -0.003,-0.005c-0.63,-1.12 -0.582,-2.491 0.082,-3.536c0.6,-0.944 1.642,-1.652 3.009,-1.588c1.313,0.067 2.29,0.764 2.777,1.721c0.499,0.979 0.52,2.196 -0.126,3.129l-2.468,3.407c-0.036,0.054 -0.093,0.088 -0.156,0.096l-0.027,0.002c-0.073,-0 -0.141,-0.036 -0.182,-0.096Zm10.232,-0.307l0.217,0.212l0,-0l-0.218,-0.22l0.001,0.008Zm0.008,0.053c0.004,0.015 0.01,0.028 0.016,0.042c0.028,0.052 0.075,0.09 0.129,0.106l-0.145,-0.148Zm-9.947,-0.513c-0.025,-0.162 -0.061,-0.359 -0.122,-0.598c-0.081,-0.319 -0.187,-0.65 -0.342,-1.02c-0.08,-0.19 -0.179,-0.375 -0.286,-0.559c-0.251,-0.43 -0.552,-0.836 -0.796,-1.214c-0.329,-0.493 -0.334,-1.131 -0.067,-1.642c0.273,-0.521 0.783,-0.94 1.502,-0.973c0.773,-0.04 1.386,0.31 1.731,0.84c0.393,0.604 0.497,1.394 0.142,2.051l-1.762,3.115Z"/><path d="M32.797,168.919l-5.121,-7.201c-0,-0 -1.362,-2.073 -2.261,-3.519c-0.954,-1.555 0.108,-3.873 2.261,-3.873c0.273,0 0.518,0.028 0.763,0.109l1.798,-3.3c-0.818,-0.355 -1.716,-0.546 -2.533,-0.546c-2.18,-0 -4.55,1.118 -5.829,3.71c-1.444,2.973 -0.191,5.291 0.353,6.083l8.962,13.283c0.082,0.109 0.654,0.955 1.607,0.955c0.954,0 1.499,-0.818 1.581,-0.927l2.697,-4.119l-2.316,-3.409l-1.961,2.755l-0.001,-0.001Z" style="fill:#fff;fill-rule:nonzero;"/><path d="M32.823,168.496c-0.269,-0.511 -0.86,-1.622 -1.552,-2.829c-0.539,-0.941 -1.134,-1.923 -1.642,-2.736c-0.65,-1.038 -1.158,-1.779 -1.158,-1.779l0.021,0.03l-2.235,-3.505c-0.302,-0.488 -0.268,-1.102 0.006,-1.584c0.264,-0.466 0.756,-0.814 1.413,-0.82l0.469,0.053c0.43,0.142 0.901,-0.044 1.118,-0.442l1.763,-3.319c0.121,-0.222 0.143,-0.484 0.061,-0.723c-0.082,-0.239 -0.261,-0.432 -0.492,-0.532c-0.455,-0.193 -0.931,-0.342 -1.408,-0.441c-0.503,-0.104 -1.006,-0.157 -1.483,-0.151c-1.316,0.016 -2.689,0.386 -3.898,1.182c-1.048,0.689 -1.979,1.689 -2.631,3.053c-0.001,0.002 -0.002,0.003 -0.002,0.005c-0.606,1.29 -0.768,2.465 -0.699,3.473c0.11,1.615 0.798,2.803 1.181,3.345c-0.003,-0.006 9.149,13.15 9.149,13.15c0.005,0.007 0.009,0.014 0.014,0.02c0.061,0.078 0.347,0.482 0.819,0.775c0.314,0.194 0.703,0.343 1.16,0.337c0.451,-0.007 0.828,-0.153 1.127,-0.346c0.456,-0.296 0.722,-0.693 0.78,-0.772c0.006,-0.007 0.011,-0.015 0.016,-0.023l2.636,-4.158c0.075,-0.114 0.074,-0.261 -0.003,-0.374l-2.368,-3.373c-0.05,-0.074 -0.133,-0.119 -0.223,-0.12c-0.089,-0.001 -0.173,0.042 -0.225,0.115l-1.714,2.489Zm-4.876,-15.105l0.983,-1.761c-0.041,-0.011 -0.081,-0.021 -0.122,-0.03c-0.374,-0.086 -0.748,-0.136 -1.104,-0.14c-1.008,-0.012 -2.067,0.245 -3.008,0.831c-0.836,0.521 -1.582,1.294 -2.12,2.348c-0.502,1.001 -0.659,1.919 -0.626,2.712c0.052,1.263 0.563,2.205 0.851,2.637c0.001,0.001 0.003,0.003 0.004,0.005c-0,-0 8.772,13.412 8.757,13.392c0.042,0.056 0.232,0.356 0.563,0.575c0.18,0.119 0.404,0.219 0.672,0.223c0.269,0.004 0.496,-0.079 0.677,-0.188c0.324,-0.197 0.518,-0.47 0.571,-0.541c0,0 2.625,-3.882 2.625,-3.882c0,-0 -1.923,-2.929 -1.923,-2.929l-1.769,2.405c-0.036,0.051 -0.092,0.084 -0.153,0.091l-0.027,0.002c-0.059,-0 -0.115,-0.024 -0.156,-0.066l-0.001,-0l0.001,0c-0.009,-0.008 -0.017,-0.018 -0.024,-0.028l-0,-0c-0,-0 -1.141,-1.2 -2.392,-2.637c-0.711,-0.818 -1.444,-1.702 -2.045,-2.449c-0.768,-0.954 -1.301,-1.677 -1.301,-1.677c-0.007,-0.01 -0.013,-0.02 -0.02,-0.03c-0,0 -0.419,-0.604 -0.937,-1.395c-0.436,-0.667 -0.939,-1.47 -1.35,-2.136c-0.002,-0.002 -0.003,-0.004 -0.004,-0.005c-0.674,-1.118 -0.629,-2.513 0.01,-3.597c0.592,-1.005 1.669,-1.755 3.097,-1.741c0.093,0.001 0.183,0.004 0.271,0.011Z"/></g></svg>