<svg width="100%" height="100%" viewBox="0 0 237 139" version="1.1" xmlns="http://www.w3.org/2000/svg">
  <g id="card1">
    <g>
      <path d="M89.5,0.198c-10.72,-0 -20.33,4.74 -26.86,12.22c5.48,6.27 8.8,14.47 8.8,23.45c0,8.98 -3.33,17.18 -8.8,23.45c6.54,7.48 16.15,12.22 26.86,12.22c19.7,-0 35.67,-15.97 35.67,-35.67c0,-19.7 -15.97,-35.67 -35.67,-35.67Z" style="fill:#d179aa;fill-rule:nonzero;" />
      <path d="M62.63,12.418c-6.54,-7.48 -16.15,-12.22 -26.86,-12.22c-19.7,-0 -35.67,15.97 -35.67,35.67c0,19.7 15.97,35.67 35.67,35.67c10.72,-0 20.33,-4.74 26.86,-12.22c-5.48,-6.27 -8.8,-14.47 -8.8,-23.45c0,-8.98 3.33,-17.18 8.8,-23.45Z" style="fill:#015478;fill-rule:nonzero;" />
      <path d="M62.63,12.418c-5.48,6.27 -8.8,14.47 -8.8,23.45c0,8.98 3.33,17.18 8.8,23.45c5.48,-6.27 8.8,-14.47 8.8,-23.45c0,-8.98 -3.32,-17.18 -8.8,-23.45Z" style="fill:#af436e;fill-rule:nonzero;" />
    </g>
    <g>
      <g>
        <path d="M89.83,93.168c0.09,-0.44 0.18,-0.86 0.28,-1.3l19.96,-0c1.12,-0 2.18,0.24 3.13,0.86c1.29,0.84 2.08,2.03 2.42,3.51c0.23,1.01 0.4,2.04 0.59,3.05c0.44,2.34 0.88,4.67 1.32,7.01c0.42,2.24 0.85,4.48 1.27,6.72c0.46,2.44 0.92,4.89 1.38,7.33c0.15,0.79 0.3,1.58 0.45,2.37c0.01,0.05 0.03,0.11 0.1,0.17c0.04,-0.09 0.08,-0.18 0.12,-0.28c1.54,-3.89 3.08,-7.77 4.62,-11.66c2.48,-6.26 4.96,-12.52 7.44,-18.78c0.13,-0.33 0.08,-0.31 0.44,-0.31l12.08,-0c-6.4,15.25 -12.78,30.46 -19.16,45.68l-12.49,-0c-0.02,-0.08 -0.06,-0.17 -0.08,-0.26c-1.65,-6.36 -3.29,-12.71 -4.94,-19.07c-1.51,-5.82 -3.01,-11.63 -4.52,-17.45c-0.13,-0.48 -0.29,-0.96 -0.47,-1.42c-0.3,-0.77 -0.82,-1.37 -1.51,-1.83c-0.77,-0.51 -1.6,-0.91 -2.45,-1.27c-2.33,-1.01 -4.75,-1.76 -7.21,-2.4c-0.82,-0.22 -1.66,-0.4 -2.48,-0.6c-0.09,-0.01 -0.16,-0.03 -0.29,-0.07Z" style="fill:#015478;fill-rule:nonzero;" />
        <path d="M160.71,135.848c0.71,-3.33 1.42,-6.63 2.13,-9.97c0.12,0.05 0.23,0.09 0.33,0.14c1.11,0.52 2.22,1.02 3.38,1.43c1.5,0.53 3.04,0.89 4.62,1.09c1.25,0.16 2.5,0.24 3.75,0.21c1.46,-0.03 2.89,-0.24 4.24,-0.81c0.62,-0.26 1.19,-0.59 1.69,-1.04c0.76,-0.68 1.19,-1.53 1.23,-2.55c0.03,-0.76 -0.18,-1.45 -0.63,-2.07c-0.33,-0.46 -0.73,-0.84 -1.17,-1.19c-0.86,-0.68 -1.81,-1.24 -2.79,-1.74c-1.21,-0.63 -2.43,-1.23 -3.63,-1.88c-1.57,-0.85 -3.05,-1.85 -4.37,-3.06c-1.32,-1.21 -2.42,-2.59 -3.13,-4.25c-0.64,-1.52 -0.86,-3.1 -0.76,-4.74c0.1,-1.56 0.43,-3.06 1.05,-4.49c1.01,-2.34 2.61,-4.22 4.64,-5.74c1.94,-1.45 4.1,-2.43 6.42,-3.1c1.39,-0.4 2.81,-0.68 4.26,-0.84c1.3,-0.15 2.6,-0.23 3.9,-0.21c3.63,0.04 7.14,0.72 10.55,1.96c0.05,0.02 0.11,0.04 0.19,0.08c-0.69,3.21 -1.37,6.4 -2.07,9.62c-0.12,-0.05 -0.21,-0.08 -0.3,-0.12c-2,-0.89 -4.08,-1.49 -6.24,-1.8c-1.43,-0.21 -2.87,-0.28 -4.31,-0.18c-1.09,0.07 -2.16,0.26 -3.17,0.7c-0.66,0.28 -1.27,0.64 -1.75,1.17c-0.24,0.27 -0.46,0.56 -0.62,0.88c-0.46,0.92 -0.41,1.83 0.15,2.71c0.3,0.47 0.69,0.85 1.12,1.19c0.74,0.6 1.56,1.09 2.39,1.54c1.39,0.75 2.78,1.48 4.17,2.24c1.48,0.81 2.9,1.71 4.19,2.81c0.85,0.73 1.63,1.53 2.28,2.44c1.16,1.63 1.81,3.44 1.93,5.43c0.19,3.16 -0.51,6.11 -2.26,8.77c-1.25,1.9 -2.91,3.38 -4.85,4.54c-1.96,1.18 -4.07,1.96 -6.29,2.47c-1.46,0.34 -2.94,0.55 -4.44,0.66c-1.75,0.14 -3.5,0.13 -5.26,-0c-2.62,-0.19 -5.21,-0.59 -7.75,-1.3c-0.87,-0.24 -1.72,-0.53 -2.55,-0.88c-0.07,-0.02 -0.15,-0.06 -0.27,-0.12Z" style="fill:#015478;fill-rule:nonzero;" />
        <path d="M162.32,91.888c-3.26,15.25 -6.52,30.44 -9.77,45.66l-11.76,-0c-0.04,-0.21 9.66,-45.32 9.77,-45.66l11.76,-0Z" style="fill:#015478;fill-rule:nonzero;" />
        <g>
          <path d="M145.07,91.878c-3.92,0.28 -8.61,-0.56 -12.17,0.3c-4.06,10.24 -8.1,20.49 -12.17,30.72c-8.25,-30.83 3.89,-33.92 -30.61,-31.03c-0.45,0.04 -0.18,0.86 -0.28,1.3c4.84,1.69 12.73,1.85 14.39,7.6c3.2,12.26 6.33,24.53 9.54,36.78l12.49,-0c6.38,-15.22 12.76,-30.43 19.16,-45.68c-0.16,0.01 -0.26,0.01 -0.35,0.01Z" style="fill:#015478;fill-rule:nonzero;" />
          <path d="M150.55,91.888c-0.11,0.34 -9.8,45.45 -9.77,45.66l11.76,-0c3.26,-15.22 6.51,-30.42 9.77,-45.66l-11.76,-0Z" style="fill:#015478;fill-rule:nonzero;" />
          <path d="M194.4,121.718c-0.12,-1.99 -0.77,-3.8 -1.93,-5.43c-0.65,-0.92 -1.43,-1.72 -2.28,-2.44c-1.29,-1.1 -2.71,-2 -4.19,-2.81c-1.38,-0.76 -2.78,-1.49 -4.17,-2.24c-0.84,-0.45 -1.65,-0.94 -2.39,-1.54c-0.43,-0.35 -0.82,-0.73 -1.12,-1.19c-0.56,-0.87 -0.62,-1.78 -0.15,-2.71c0.16,-0.32 0.38,-0.62 0.62,-0.88c0.48,-0.53 1.09,-0.89 1.75,-1.17c1.01,-0.43 2.08,-0.62 3.17,-0.7c1.44,-0.09 2.88,-0.03 4.31,0.18c2.16,0.31 4.25,0.91 6.24,1.8c0.09,0.04 0.18,0.07 0.3,0.12c0.69,-3.22 1.38,-6.42 2.07,-9.62c-0.08,-0.03 -0.13,-0.06 -0.19,-0.08c-3.41,-1.24 -6.92,-1.92 -10.55,-1.96c-1.3,-0.02 -2.6,0.06 -3.9,0.21c-1.44,0.17 -2.86,0.44 -4.26,0.84c-2.32,0.67 -4.48,1.65 -6.42,3.1c-2.03,1.52 -3.63,3.4 -4.64,5.74c-0.62,1.43 -0.95,2.93 -1.05,4.49c-0.1,1.64 0.12,3.22 0.76,4.74c0.71,1.66 1.8,3.04 3.13,4.25c1.32,1.21 2.8,2.21 4.37,3.06c1.2,0.65 2.42,1.24 3.63,1.88c0.97,0.51 1.92,1.06 2.79,1.74c0.44,0.35 0.84,0.73 1.17,1.19c0.45,0.62 0.66,1.31 0.63,2.07c-0.04,1.02 -0.47,1.87 -1.23,2.55c-0.5,0.45 -1.07,0.78 -1.69,1.04c-1.36,0.57 -2.78,0.78 -4.24,0.81c-1.26,0.02 -2.51,-0.05 -3.75,-0.21c-1.58,-0.2 -3.12,-0.57 -4.62,-1.09c-1.16,-0.41 -2.27,-0.91 -3.38,-1.43c-0.1,-0.05 -0.21,-0.09 -0.33,-0.14c-0.71,3.34 -1.42,6.64 -2.13,9.97c0.11,0.05 0.2,0.1 0.29,0.13c0.83,0.36 1.68,0.64 2.55,0.88c2.54,0.71 5.13,1.11 7.75,1.3c1.75,0.13 3.5,0.14 5.26,-0c1.5,-0.12 2.98,-0.33 4.44,-0.66c2.22,-0.51 4.33,-1.29 6.29,-2.47c1.94,-1.17 3.6,-2.65 4.85,-4.54c1.73,-2.67 2.43,-5.61 2.24,-8.78Z" style="fill:#015478;fill-rule:nonzero;" />
          <path d="M226.73,91.918c-0.12,-0.01 -0.22,-0.02 -0.31,-0.02l-9.71,-0c-0.58,-0 -1.15,0.06 -1.71,0.24c-1.63,0.53 -2.75,1.6 -3.41,3.17c-4.46,10.64 -8.92,21.28 -13.39,31.92c-1.39,3.31 -2.78,6.63 -4.17,9.94c-0.05,0.12 -0.1,0.25 -0.15,0.38l12.37,-0c0.82,-2.27 1.64,-4.53 2.46,-6.8l15.22,-0c0.48,2.27 0.95,4.53 1.43,6.8l10.89,-0c-3.17,-15.23 -6.34,-30.42 -9.52,-45.63Zm-14.56,29.44c0.02,-0.26 6.06,-16.89 6.23,-17.12c1.2,5.72 2.38,11.42 3.57,17.11c-0.27,0.09 -9.54,0.09 -9.8,0.01Z" style="fill:#015478;fill-rule:nonzero;" />
        </g>
      </g>
    </g>
  </g>
</svg>