<?xml version="1.0" encoding="UTF-8" standalone="no"?><!DOCTYPE svg PUBLIC "-//W3C//DTD SVG 1.1//EN" "http://www.w3.org/Graphics/SVG/1.1/DTD/svg11.dtd"><svg width="100%" height="100%" viewBox="0 0 201 201" version="1.1" xmlns="http://www.w3.org/2000/svg" xmlns:xlink="http://www.w3.org/1999/xlink" xml:space="preserve" xmlns:serif="http://www.serif.com/" style="fill-rule:evenodd;clip-rule:evenodd;stroke-linejoin:round;stroke-miterlimit:2;"><rect id="datatrans" x="0.453" y="0.154" width="200" height="200" style="fill:none;"/><path d="M8.429,95.242c-0.014,0.08 0.008,0.162 0.061,0.225c0.052,0.062 0.129,0.098 0.211,0.098c-0,-0 0.304,0.233 0.991,0.527c0.302,0.13 0.607,0.241 0.991,0.329c0.291,0.067 0.593,0.101 0.893,0.116c1.093,0.057 2.082,-0.056 2.082,-0.056c0.579,0 1.075,-0.417 1.174,-0.989l0.598,-5.002c0.047,-0.27 -0.028,-0.547 -0.204,-0.756c-0.177,-0.21 -0.437,-0.331 -0.711,-0.331l-4.957,0.314c-0.299,0 -0.555,0.216 -0.606,0.51l-0.523,5.015Zm0.679,-0.465l0.924,-3.8c0,-0 3.337,0.211 3.337,0.211c0,0 -0.647,2.846 -0.647,2.846c-0.335,-0.012 -0.733,-0.014 -1.146,0.007c-0.3,0.015 -0.602,0.05 -0.893,0.116c-0.384,0.088 -0.689,0.2 -0.991,0.329c-0.255,0.109 -0.44,0.208 -0.584,0.291Z"/><path d="M27.548,108.566c0.037,0.101 0.091,0.195 0.161,0.279c0.18,0.218 0.449,0.344 0.732,0.344l4.578,-0.06c0.433,-0 0.803,-0.311 0.878,-0.737l4.29,-26.57c0.026,-0.149 -0.015,-0.302 -0.113,-0.417c-0.097,-0.116 -0.24,-0.183 -0.392,-0.183l-4.984,0.072c-0.214,-0 -0.397,0.154 -0.433,0.364l-1.584,10.022l-0,-0c-0.175,-0.236 -0.369,-0.459 -0.581,-0.675c-0.369,-0.377 -0.796,-0.698 -1.278,-1.001c-0,-0 -0,-0 -0,-0c-0.44,-0.274 -0.925,-0.495 -1.473,-0.674c-0.694,-0.227 -1.476,-0.339 -2.341,-0.405c-0.877,-0.062 -1.698,-0.034 -2.474,0.086c-0.888,0.137 -1.699,0.42 -2.453,0.781c-0,-0 -0,-0 -0,-0c-0.679,0.346 -1.303,0.738 -1.867,1.183c-0.597,0.471 -1.123,1.003 -1.592,1.58c0,0 0,0 0,0c-0.452,0.56 -0.848,1.149 -1.182,1.771c-0.335,0.623 -0.61,1.277 -0.826,1.962c-0.205,0.648 -0.36,1.284 -0.463,1.91c-0.111,0.677 -0.163,1.341 -0.157,1.991c0.006,0.629 0.062,1.244 0.169,1.845c0.11,0.613 0.271,1.211 0.486,1.794c-0,0 -0,0 -0,0c0.213,0.579 0.47,1.121 0.775,1.627c0.314,0.523 0.676,1.008 1.087,1.453c0.409,0.443 0.854,0.841 1.341,1.19c0.476,0.342 0.989,0.64 1.541,0.892c0.584,0.264 1.206,0.462 1.869,0.585c0.6,0.112 1.233,0.167 1.9,0.159c0.614,-0.007 1.21,-0.068 1.786,-0.186c0.595,-0.123 1.17,-0.301 1.724,-0.54c0,-0 0,-0 0,-0c0.303,-0.132 0.596,-0.278 0.876,-0.442Zm3.069,-15.969c0.065,0.091 0.177,0.133 0.286,0.108c0.108,-0.025 0.19,-0.112 0.209,-0.221l1.95,-10.305c-0,-0 4.003,0.058 4.003,0.058c0,-0 -4.781,25.1 -4.781,25.1c-0,0 -2.684,-0.035 -2.684,-0.035c0,-0 0.169,-0.84 0.169,-0.84c0.081,-0.429 -0.133,-0.86 -0.524,-1.055c-0.392,-0.194 -0.864,-0.105 -1.158,0.219c-0.311,0.335 -0.651,0.627 -1.017,0.88c-0.365,0.252 -0.759,0.46 -1.18,0.63c-0.429,0.173 -0.875,0.299 -1.333,0.381c-0.451,0.081 -0.916,0.116 -1.395,0.11c-0.521,-0.006 -1.015,-0.06 -1.482,-0.159c-0.483,-0.102 -0.935,-0.257 -1.358,-0.462c-0.001,-0 -0.001,-0 -0.001,-0c-0.414,-0.199 -0.799,-0.434 -1.155,-0.701c-0.358,-0.268 -0.684,-0.572 -0.983,-0.909c0,-0 -0,-0 -0,-0c-0.3,-0.339 -0.562,-0.707 -0.788,-1.101c-0.224,-0.388 -0.409,-0.805 -0.562,-1.247c-0.158,-0.458 -0.274,-0.927 -0.35,-1.406c-0.075,-0.474 -0.108,-0.958 -0.103,-1.453c0.005,-0.517 0.06,-1.043 0.157,-1.58c0.093,-0.514 0.229,-1.037 0.405,-1.569c-0,-0 -0,-0 -0,-0c0.177,-0.535 0.402,-1.045 0.671,-1.531c0.267,-0.485 0.58,-0.946 0.938,-1.382c0.361,-0.44 0.772,-0.837 1.223,-1.203c0.441,-0.358 0.919,-0.69 1.447,-0.981c0.54,-0.315 1.132,-0.556 1.78,-0.732c0.624,-0.17 1.285,-0.307 2.007,-0.358c0.597,-0.046 1.149,-0.048 1.667,-0.005c0.588,0.049 1.121,0.123 1.607,0.292c0.457,0.155 0.872,0.333 1.251,0.571c0.405,0.254 0.766,0.539 1.084,0.886Zm-1.032,8.336c0,-0 0,-0 0,-0c0.143,-0.333 0.252,-0.669 0.333,-1.008c0.083,-0.352 0.13,-0.706 0.146,-1.065c0.016,-0.356 0.001,-0.698 -0.04,-1.026c-0.045,-0.358 -0.127,-0.697 -0.238,-1.022c0,0 0,0 0,0c-0.106,-0.311 -0.24,-0.596 -0.394,-0.86c-0.166,-0.286 -0.364,-0.541 -0.584,-0.774c0,-0 -0,-0 -0,-0c-0.216,-0.228 -0.455,-0.428 -0.713,-0.608c-0.252,-0.177 -0.526,-0.326 -0.818,-0.456c-0,-0.001 -0.001,-0.001 -0.001,-0.001c-0.302,-0.134 -0.62,-0.234 -0.951,-0.308c-0.315,-0.07 -0.644,-0.108 -0.985,-0.123c-0.41,-0.018 -0.803,0.01 -1.183,0.071c-0.407,0.065 -0.794,0.181 -1.167,0.333c-0,0 -0,0 -0,0c-0.358,0.148 -0.689,0.33 -1,0.535c-0.323,0.212 -0.615,0.459 -0.888,0.732c-0.275,0.275 -0.517,0.58 -0.738,0.91c-0.211,0.314 -0.392,0.656 -0.554,1.02c0,0 0,0 0,0c-0.166,0.379 -0.289,0.769 -0.38,1.168c-0.09,0.397 -0.135,0.804 -0.151,1.222c-0.042,0.741 0.049,1.439 0.242,2.082c0.214,0.715 0.582,1.351 1.075,1.927c0.515,0.6 1.145,1.038 1.872,1.338c0.639,0.265 1.363,0.399 2.17,0.42c0.464,0.008 0.909,-0.031 1.333,-0.121c0.457,-0.096 0.889,-0.252 1.299,-0.456c0.357,-0.226 0.707,-0.438 0.986,-0.728c0.295,-0.305 0.541,-0.614 0.745,-0.98c0.144,-0.292 0.295,-0.549 0.382,-0.867c0.126,-0.457 0.192,-0.855 0.202,-1.355Zm-0.516,-0.195c-0.186,0.22 -0.366,0.37 -0.566,0.561c-0.281,0.268 -0.561,0.448 -0.88,0.65c-0,0 -0,0 -0.001,0c-0.261,0.201 -0.56,0.301 -0.862,0.449c-0.186,0.09 -0.377,0.168 -0.58,0.243c-0,-0 -0.001,-0 -0.001,0c-0.231,0.112 -0.477,0.19 -0.733,0.247c-0.257,0.056 -0.526,0.094 -0.808,0.099c-0.489,0.013 -0.934,-0.034 -1.33,-0.173c-0.398,-0.139 -0.754,-0.347 -1.05,-0.652c-0,-0 -0.001,-0.001 -0.001,-0.001c-0.313,-0.32 -0.558,-0.678 -0.714,-1.09c-0.157,-0.417 -0.25,-0.875 -0.259,-1.379c0,-0.007 0,-0.013 0,-0.019c-0.01,-0.294 -0.001,-0.582 0.041,-0.865c0.043,-0.286 0.107,-0.568 0.204,-0.844c0.096,-0.274 0.206,-0.534 0.341,-0.776c0.138,-0.247 0.292,-0.479 0.472,-0.69c-0,-0 -0,-0 -0,-0c0.178,-0.209 0.369,-0.402 0.585,-0.571c0.217,-0.169 0.448,-0.322 0.702,-0.452c0.258,-0.132 0.528,-0.24 0.816,-0.312c0.285,-0.071 0.582,-0.119 0.895,-0.132c0.262,-0.012 0.515,-0.006 0.761,0.027c0.254,0.034 0.499,0.087 0.736,0.169c0.231,0.08 0.45,0.174 0.653,0.292c0.208,0.12 0.405,0.256 0.584,0.416c0.182,0.161 0.348,0.341 0.493,0.547c0.141,0.2 0.268,0.419 0.375,0.661c0.115,0.261 0.208,0.536 0.271,0.829c0.062,0.282 0.102,0.577 0.116,0.888c0.014,0.316 0.002,0.63 -0.043,0.945c-0.045,0.311 -0.115,0.622 -0.217,0.933l0,0Z"/><path d="M50.241,108.416c0.028,0.125 0.086,0.244 0.17,0.345c0.155,0.185 0.384,0.292 0.625,0.292l4.652,-0.079c0.357,-0 0.663,-0.257 0.725,-0.609l2.816,-17.962c0.021,-0.119 -0.012,-0.242 -0.09,-0.334c-0.077,-0.093 -0.192,-0.146 -0.313,-0.146l-4.947,0.093c-0.153,-0 -0.285,0.11 -0.311,0.261l-0.215,1.374c-0.168,-0.236 -0.354,-0.46 -0.557,-0.679c-0.365,-0.394 -0.788,-0.724 -1.269,-1.045c-0,0 -0,0 -0,0c-0.445,-0.276 -0.939,-0.492 -1.491,-0.677c-0.701,-0.235 -1.485,-0.364 -2.359,-0.447c-0.884,-0.051 -1.714,-0.017 -2.493,0.12c-0.889,0.155 -1.7,0.459 -2.448,0.841c-0,0 -0,0 -0,0c-0.673,0.36 -1.29,0.764 -1.849,1.217c-0.589,0.478 -1.116,1.007 -1.58,1.587c-0.449,0.56 -0.842,1.15 -1.172,1.772c-0.331,0.623 -0.603,1.276 -0.814,1.96c-0.201,0.647 -0.352,1.282 -0.452,1.906c-0.107,0.675 -0.159,1.336 -0.151,1.983c0.008,0.626 0.064,1.238 0.173,1.835c0.111,0.609 0.271,1.203 0.486,1.783c0,0 0,0 0,0c0.215,0.573 0.472,1.111 0.777,1.612c0.315,0.516 0.674,0.996 1.085,1.436c-0,0 -0,0 -0,0c0.407,0.437 0.85,0.829 1.333,1.172c0.474,0.336 0.983,0.631 1.53,0.877c0.578,0.26 1.193,0.454 1.848,0.574c0.595,0.108 1.221,0.161 1.881,0.151c0.592,-0.009 1.165,-0.067 1.718,-0.179c0.575,-0.116 1.129,-0.284 1.662,-0.509c0,-0 0.001,-0 0.001,-0c0.358,-0.151 0.702,-0.326 1.029,-0.525Zm3.045,-15.818c0.065,0.09 0.177,0.132 0.285,0.107c0.108,-0.024 0.191,-0.112 0.21,-0.221l0.357,-1.831c0,-0 4.194,0.079 4.194,0.079c-0,-0 -3.249,16.76 -3.249,16.76c0,-0 -3.058,-0.052 -3.058,-0.052c-0,-0 0.177,-0.898 0.177,-0.898c0.066,-0.369 -0.118,-0.738 -0.454,-0.907c-0.335,-0.168 -0.741,-0.095 -0.997,0.178c-0.318,0.329 -0.662,0.613 -1.029,0.858c-0.368,0.245 -0.763,0.445 -1.181,0.605c-0.427,0.164 -0.87,0.281 -1.327,0.358c-0.447,0.075 -0.908,0.106 -1.383,0.098c-0.528,-0.008 -1.028,-0.065 -1.501,-0.166c-0.491,-0.105 -0.95,-0.265 -1.38,-0.474c0,-0 0,-0 0,-0c-0.419,-0.204 -0.807,-0.444 -1.166,-0.717c-0.362,-0.273 -0.69,-0.583 -0.991,-0.926c-0.302,-0.344 -0.563,-0.718 -0.791,-1.118c-0.223,-0.393 -0.408,-0.814 -0.56,-1.261c-0.158,-0.462 -0.272,-0.935 -0.348,-1.418c-0.074,-0.477 -0.106,-0.965 -0.1,-1.463c0.007,-0.519 0.063,-1.049 0.163,-1.588c0.096,-0.516 0.236,-1.04 0.416,-1.573c-0,-0 0,-0 0,-0.001c0.181,-0.536 0.411,-1.045 0.683,-1.532c0.271,-0.485 0.587,-0.945 0.949,-1.38c0,-0 0,-0.001 0,-0.001c0.364,-0.438 0.776,-0.835 1.233,-1.196c0.445,-0.352 0.934,-0.668 1.467,-0.947c0.542,-0.298 1.139,-0.51 1.784,-0.672c0.619,-0.155 1.275,-0.283 1.988,-0.324c0.592,-0.056 1.137,-0.077 1.652,-0.039c0.58,0.042 1.106,0.114 1.586,0.281c0.459,0.141 0.876,0.301 1.26,0.527c0.414,0.243 0.782,0.514 1.111,0.854Zm-1.032,8.318c-0,-0 -0,-0 -0,-0c0.145,-0.332 0.255,-0.672 0.336,-1.02c0.081,-0.35 0.127,-0.707 0.144,-1.073c0.016,-0.355 0.001,-0.693 -0.04,-1.017c-0.045,-0.358 -0.128,-0.695 -0.24,-1.015c0,-0 0,-0 0,-0c-0.107,-0.306 -0.242,-0.588 -0.397,-0.85c-0.166,-0.28 -0.362,-0.531 -0.58,-0.763c-0,0 -0.001,0 -0.001,-0c-0.216,-0.228 -0.455,-0.428 -0.712,-0.608c-0.252,-0.176 -0.526,-0.325 -0.818,-0.456c-0.001,0 -0.001,-0 -0.001,-0c-0.303,-0.135 -0.62,-0.234 -0.951,-0.308c-0.315,-0.071 -0.644,-0.109 -0.985,-0.123c-0.41,-0.018 -0.803,0.01 -1.182,0.071c-0.408,0.064 -0.795,0.18 -1.168,0.333c0,-0 0,-0 0,-0c-0.358,0.148 -0.689,0.329 -1,0.534c-0.322,0.213 -0.615,0.46 -0.888,0.733c-0.274,0.274 -0.517,0.58 -0.738,0.909c-0.211,0.314 -0.391,0.656 -0.553,1.02c-0,0 -0,0 -0,0.001c-0.167,0.378 -0.289,0.768 -0.38,1.167c-0.09,0.397 -0.136,0.804 -0.151,1.222c-0.042,0.741 0.049,1.439 0.241,2.082c0.215,0.715 0.582,1.351 1.075,1.926c0.516,0.601 1.146,1.039 1.872,1.339c0.639,0.264 1.363,0.399 2.17,0.42c0.464,0.008 0.908,-0.032 1.333,-0.121c0.457,-0.096 0.889,-0.251 1.299,-0.455c0.361,-0.228 0.715,-0.444 0.997,-0.741c0.294,-0.309 0.539,-0.622 0.741,-0.994c0,-0 0,-0.001 0.001,-0.001c0.139,-0.293 0.285,-0.548 0.371,-0.862c0.125,-0.46 0.191,-0.856 0.205,-1.35Zm-0.515,-0.198c-0.187,0.218 -0.367,0.367 -0.57,0.559c-0.281,0.267 -0.562,0.453 -0.885,0.662c-0.26,0.205 -0.559,0.308 -0.859,0.458c-0.185,0.091 -0.375,0.169 -0.576,0.243c-0.001,0 -0.001,0 -0.001,0c-0.232,0.113 -0.477,0.191 -0.733,0.248c-0.257,0.057 -0.526,0.095 -0.808,0.099c-0.49,0.013 -0.934,-0.034 -1.33,-0.172c-0.399,-0.14 -0.754,-0.348 -1.05,-0.653c-0.001,-0 -0.001,-0 -0.001,-0c-0.313,-0.321 -0.559,-0.679 -0.715,-1.091c-0.157,-0.417 -0.249,-0.875 -0.258,-1.379c-0,-0.007 -0,-0.013 -0,-0.019c-0.011,-0.294 -0.001,-0.582 0.041,-0.865c0.043,-0.286 0.106,-0.569 0.203,-0.844c0.096,-0.274 0.206,-0.534 0.341,-0.776c0.139,-0.247 0.292,-0.479 0.472,-0.691c0,0 0,0 0,0c0.178,-0.209 0.37,-0.402 0.586,-0.57c0.216,-0.169 0.448,-0.323 0.702,-0.452c0.258,-0.133 0.528,-0.241 0.816,-0.313c0.285,-0.071 0.582,-0.119 0.895,-0.132c0.262,-0.011 0.515,-0.006 0.761,0.028c0.254,0.034 0.5,0.087 0.736,0.168c0.231,0.08 0.45,0.175 0.654,0.293c0.208,0.12 0.404,0.256 0.584,0.416c0.181,0.161 0.347,0.339 0.492,0.541c0.142,0.199 0.269,0.414 0.376,0.652c0.115,0.255 0.208,0.526 0.271,0.816c0.06,0.278 0.1,0.57 0.114,0.879c0.015,0.324 0.003,0.642 -0.041,0.956c-0.044,0.317 -0.115,0.63 -0.217,0.939l-0,-0Z"/><path d="M70.506,85.396c0.014,-0.08 -0.008,-0.162 -0.061,-0.225c-0.052,-0.063 -0.129,-0.099 -0.211,-0.099c0,0 -1.989,-0.295 -3.463,-0.467c-0.834,-0.098 -1.484,-0.146 -1.484,-0.146c-0.431,-0 -0.8,0.309 -0.876,0.733c0,0 -0.354,1.216 -0.66,2.454c-0.126,0.513 -0.244,1.028 -0.338,1.454c-0,0 -1.892,-0.013 -1.892,-0.013c-0.608,-0 -1.127,0.439 -1.228,1.038l-0.675,4.177c-0.06,0.353 0.04,0.715 0.271,0.989c0.232,0.274 0.572,0.432 0.931,0.432l1.439,-0.015l-0.876,5.345l-0.122,0.933l-0.053,1.009c0.008,0.619 0.071,1.185 0.191,1.699c0.149,0.641 0.378,1.206 0.689,1.694c0.277,0.435 0.59,0.824 0.946,1.164c0.364,0.348 0.766,0.65 1.212,0.899c0.423,0.236 0.866,0.436 1.332,0.596c0.447,0.152 0.912,0.272 1.397,0.354c0,0 0,0 0.001,0c0.455,0.077 0.902,0.135 1.342,0.171c0.463,0.039 0.917,0.056 1.362,0.05l1.317,-0.08l1.063,-0.148c0.388,-0.055 0.696,-0.354 0.765,-0.74l0.674,-4.183c0.046,-0.26 -0.032,-0.526 -0.212,-0.719c-0.179,-0.193 -0.438,-0.291 -0.701,-0.265l-0.617,0.044l-0.849,0.013c-0.481,0.007 -0.918,-0.01 -1.31,-0.057c-0.455,-0.055 -0.845,-0.143 -1.168,-0.278c0,-0 0,-0 -0,-0c-0.191,-0.08 -0.338,-0.2 -0.429,-0.377c-0.104,-0.204 -0.153,-0.458 -0.158,-0.76l0.009,-0.359l0.041,-0.371c-0.001,0.007 0.991,-6.235 0.991,-6.235c-0,-0.001 4.793,-0.08 4.793,-0.08c0.254,0 0.471,-0.182 0.516,-0.432l0.669,-4.184c0.024,-0.132 -0.013,-0.268 -0.099,-0.37c-0.086,-0.103 -0.213,-0.163 -0.347,-0.163l-4.853,0.083c0,0 0.731,-4.565 0.731,-4.565Zm1.142,19.791l-0.479,2.481c0,0 -0.368,0.04 -0.368,0.04c-0,0 -1.121,0.032 -1.121,0.032c-0.385,-0.006 -0.777,-0.032 -1.177,-0.076c-0.385,-0.043 -0.777,-0.105 -1.176,-0.184c-0.375,-0.074 -0.734,-0.177 -1.078,-0.306c-0.347,-0.13 -0.677,-0.291 -0.991,-0.478c-0.001,0 -0.001,-0 -0.001,-0c-0.288,-0.171 -0.546,-0.377 -0.779,-0.612c-0.23,-0.234 -0.431,-0.5 -0.607,-0.796c-0,0 -0,0 -0,0c-0.182,-0.304 -0.305,-0.656 -0.385,-1.05c-0.077,-0.377 -0.107,-0.791 -0.101,-1.243l0.058,-0.725c0,-0 0.134,-0.861 0.134,-0.861c-0,-0 1.258,-6.699 1.258,-6.699c0.061,-0.346 -0.035,-0.702 -0.261,-0.971c-0.226,-0.27 -0.56,-0.425 -0.911,-0.425l-1.396,-0.014c0,-0 0.302,-1.73 0.302,-1.73c0,-0 1.832,-0.013 1.832,-0.013c0.593,-0 1.101,-0.426 1.205,-1.011c0,0 0.191,-1.251 0.33,-2.512c0.077,-0.694 0.137,-1.386 0.177,-1.871c0.197,-0.02 0.42,-0.044 0.658,-0.072c1.099,-0.128 2.484,-0.325 3.118,-0.417l0,0l-0.899,4.594c-0.019,0.106 0.01,0.215 0.079,0.298c0.069,0.082 0.171,0.13 0.279,0.13l4.731,0.08c0,0 -0.62,3.197 -0.62,3.197c-0,0 -4.886,-0.08 -4.886,-0.08c-0.297,-0 -0.551,0.213 -0.602,0.505l-1.293,6.706l-0.07,0.477c0,0 -0.028,0.491 -0.028,0.491c-0.012,0.709 0.152,1.274 0.436,1.711c0.241,0.369 0.578,0.649 1.007,0.845c0.359,0.162 0.779,0.29 1.262,0.383c0.531,0.102 1.143,0.157 1.835,0.168l0.528,0.008Z"/><path d="M87.677,108.416c0.028,0.125 0.085,0.244 0.17,0.345c0.155,0.185 0.384,0.292 0.625,0.292l4.652,-0.079c0.357,-0 0.663,-0.257 0.725,-0.609l2.816,-17.962c0.021,-0.119 -0.012,-0.242 -0.09,-0.334c-0.077,-0.093 -0.192,-0.146 -0.313,-0.146l-4.947,0.093c-0.153,-0 -0.285,0.11 -0.311,0.261l-0.216,1.374c-0.167,-0.236 -0.353,-0.46 -0.556,-0.679c-0.365,-0.394 -0.788,-0.724 -1.269,-1.045c-0,0 -0,0 -0,0c-0.445,-0.276 -0.939,-0.492 -1.491,-0.677c-0.701,-0.235 -1.485,-0.364 -2.359,-0.447c-0.884,-0.051 -1.714,-0.017 -2.493,0.12c-0.889,0.155 -1.7,0.459 -2.448,0.841c-0,0 -0,0 -0,0c-0.673,0.36 -1.29,0.764 -1.849,1.217c-0.589,0.478 -1.116,1.007 -1.581,1.587c-0.448,0.56 -0.841,1.15 -1.171,1.772c-0.331,0.623 -0.603,1.276 -0.815,1.96c-0.2,0.647 -0.351,1.282 -0.451,1.906c-0.108,0.675 -0.159,1.336 -0.151,1.983c0.008,0.626 0.064,1.238 0.173,1.835c0.11,0.609 0.271,1.204 0.486,1.783c0.215,0.573 0.472,1.111 0.777,1.612c0.315,0.516 0.674,0.996 1.085,1.436c0.407,0.437 0.85,0.829 1.333,1.172c0.474,0.336 0.983,0.631 1.53,0.877c0.578,0.26 1.193,0.454 1.848,0.574c0.594,0.108 1.221,0.161 1.881,0.151c0.591,-0.009 1.164,-0.067 1.718,-0.179c0.574,-0.116 1.129,-0.284 1.662,-0.509c0,-0 0,-0 0,-0c0.359,-0.151 0.702,-0.325 1.03,-0.525Zm3.045,-15.819c0.065,0.091 0.177,0.133 0.285,0.108c0.108,-0.024 0.191,-0.112 0.21,-0.221l0.357,-1.831c0,-0 4.194,0.079 4.194,0.079c-0,-0 -3.249,16.76 -3.249,16.76c0,-0 -3.059,-0.052 -3.059,-0.052c0,-0 0.178,-0.898 0.178,-0.898c0.066,-0.369 -0.118,-0.738 -0.454,-0.907c-0.335,-0.168 -0.741,-0.095 -0.997,0.178c-0.318,0.329 -0.662,0.613 -1.029,0.858c-0.368,0.245 -0.763,0.445 -1.181,0.605c-0.427,0.164 -0.871,0.281 -1.328,0.358c-0.447,0.075 -0.908,0.106 -1.382,0.098c-0.528,-0.008 -1.028,-0.065 -1.501,-0.166c-0.491,-0.105 -0.95,-0.265 -1.38,-0.474c0,-0 0,-0 0,-0c-0.419,-0.204 -0.807,-0.445 -1.166,-0.717c-0.362,-0.273 -0.69,-0.583 -0.991,-0.926c-0,-0 -0,-0 -0,-0c-0.302,-0.344 -0.564,-0.718 -0.791,-1.118c-0.223,-0.393 -0.408,-0.814 -0.56,-1.261c0,-0 0,-0 0,-0c-0.158,-0.462 -0.273,-0.935 -0.348,-1.418c-0.074,-0.477 -0.106,-0.965 -0.1,-1.463c0.007,-0.519 0.063,-1.049 0.163,-1.588c0.096,-0.516 0.236,-1.04 0.416,-1.573c-0,-0 -0,-0 -0,-0.001c0.181,-0.536 0.411,-1.045 0.683,-1.532c0.271,-0.485 0.587,-0.945 0.949,-1.381c0.363,-0.438 0.776,-0.835 1.233,-1.196c0.445,-0.352 0.934,-0.668 1.467,-0.947c0.542,-0.298 1.139,-0.51 1.784,-0.672c0.619,-0.155 1.275,-0.283 1.988,-0.324c0.592,-0.056 1.137,-0.077 1.652,-0.039c0.58,0.042 1.105,0.114 1.586,0.281c0.459,0.141 0.876,0.301 1.26,0.527c0.414,0.243 0.782,0.514 1.111,0.853Zm-1.033,8.319c0,-0 0,-0 0,-0c0.146,-0.332 0.256,-0.672 0.337,-1.02c0.081,-0.35 0.127,-0.707 0.144,-1.073c0.016,-0.355 0.001,-0.693 -0.04,-1.017c-0.045,-0.358 -0.128,-0.695 -0.24,-1.015c-0.107,-0.306 -0.242,-0.588 -0.398,-0.85c-0.165,-0.28 -0.361,-0.531 -0.579,-0.763c-0.001,0 -0.001,0 -0.001,-0c-0.216,-0.228 -0.455,-0.428 -0.712,-0.608c-0.253,-0.176 -0.526,-0.325 -0.819,-0.456c0,0 0,-0 -0,-0c-0.303,-0.135 -0.62,-0.234 -0.951,-0.308c-0.316,-0.071 -0.644,-0.109 -0.985,-0.123c-0.41,-0.018 -0.803,0.01 -1.183,0.071c-0.407,0.064 -0.794,0.18 -1.167,0.333c0,-0 -0,-0 -0,-0c-0.358,0.148 -0.689,0.329 -1,0.534c-0.322,0.213 -0.615,0.46 -0.888,0.733c-0.275,0.274 -0.517,0.58 -0.738,0.909c-0.211,0.314 -0.391,0.656 -0.553,1.02c-0,0 -0,0 -0,0c-0.167,0.379 -0.289,0.769 -0.38,1.168c-0.09,0.397 -0.136,0.804 -0.151,1.222c-0.042,0.741 0.049,1.439 0.241,2.082c0.215,0.715 0.582,1.351 1.075,1.926c0.516,0.601 1.145,1.039 1.872,1.339c0.639,0.264 1.363,0.399 2.17,0.42c0.464,0.008 0.908,-0.032 1.332,-0.121c0.458,-0.096 0.89,-0.251 1.3,-0.455c0.361,-0.228 0.715,-0.444 0.997,-0.741c0.294,-0.309 0.539,-0.622 0.741,-0.994c0,-0 0,-0 0,-0.001c0.14,-0.293 0.286,-0.548 0.371,-0.862c0.126,-0.46 0.192,-0.856 0.205,-1.35Zm-0.514,-0.198c-0.187,0.218 -0.367,0.367 -0.57,0.559c-0.281,0.267 -0.562,0.453 -0.885,0.662c-0.26,0.205 -0.559,0.308 -0.86,0.458c-0.184,0.091 -0.374,0.169 -0.575,0.243c-0.001,0 -0.001,0 -0.002,0c-0.231,0.113 -0.476,0.191 -0.732,0.248c-0.257,0.057 -0.526,0.095 -0.808,0.099c-0.49,0.013 -0.934,-0.034 -1.33,-0.172c-0.399,-0.139 -0.754,-0.348 -1.051,-0.653c0,-0 0,-0 -0,-0c-0.313,-0.32 -0.559,-0.678 -0.715,-1.091c-0.157,-0.417 -0.249,-0.875 -0.258,-1.379c-0,-0.007 -0,-0.013 -0,-0.019c-0.011,-0.294 -0.001,-0.582 0.041,-0.865c0.043,-0.286 0.106,-0.568 0.203,-0.844c0.096,-0.274 0.206,-0.535 0.341,-0.776c0.139,-0.247 0.292,-0.479 0.472,-0.691c0.178,-0.209 0.37,-0.402 0.586,-0.57c0.216,-0.169 0.448,-0.323 0.702,-0.452c0.258,-0.133 0.528,-0.241 0.816,-0.313c0.285,-0.071 0.582,-0.119 0.895,-0.132c0.262,-0.011 0.515,-0.006 0.761,0.028c0.254,0.034 0.499,0.087 0.736,0.168c0.231,0.08 0.45,0.175 0.654,0.293c0.208,0.12 0.404,0.256 0.584,0.415c0.181,0.162 0.347,0.34 0.491,0.542c0.143,0.199 0.27,0.414 0.377,0.651c0.115,0.256 0.207,0.527 0.271,0.817c0.06,0.278 0.1,0.57 0.114,0.879c0.015,0.324 0.003,0.642 -0.041,0.956c-0.044,0.318 -0.115,0.63 -0.217,0.939l-0,0Z"/><path d="M107.942,85.396c0.014,-0.08 -0.008,-0.162 -0.061,-0.225c-0.052,-0.063 -0.129,-0.099 -0.211,-0.099c0,0 -1.989,-0.295 -3.463,-0.467c-0.834,-0.098 -1.484,-0.146 -1.484,-0.146c-0.431,-0 -0.8,0.309 -0.876,0.733c0,0 -0.354,1.216 -0.66,2.454c-0.126,0.513 -0.244,1.028 -0.338,1.454c-0,0 -1.892,-0.013 -1.892,-0.013c-0.608,-0 -1.127,0.439 -1.228,1.039l-0.675,4.176c-0.06,0.354 0.04,0.715 0.271,0.989c0.232,0.274 0.572,0.432 0.931,0.432l1.439,-0.015l-0.876,5.345l-0.123,0.933l-0.053,1.009c0.009,0.619 0.072,1.185 0.192,1.699c0.149,0.641 0.378,1.206 0.689,1.694c0.276,0.435 0.59,0.824 0.946,1.164c0.364,0.349 0.766,0.65 1.213,0.899c0.422,0.236 0.865,0.436 1.331,0.596c0.447,0.152 0.912,0.272 1.397,0.354c0,0 0,0 0,0c0.456,0.077 0.903,0.135 1.343,0.171c0.463,0.039 0.917,0.056 1.362,0.05l1.317,-0.08l1.063,-0.148c0.388,-0.055 0.696,-0.354 0.765,-0.74l0.674,-4.183c0.046,-0.26 -0.033,-0.526 -0.212,-0.719c-0.179,-0.193 -0.439,-0.291 -0.701,-0.265l-0.617,0.044l-0.849,0.013c-0.481,0.007 -0.918,-0.01 -1.31,-0.057c-0.455,-0.055 -0.845,-0.143 -1.168,-0.278c0,-0 -0,-0 -0,-0c-0.191,-0.08 -0.338,-0.2 -0.429,-0.377c-0.104,-0.204 -0.153,-0.458 -0.158,-0.76l0.009,-0.359l0.041,-0.37c-0.001,0.005 0.991,-6.237 0.991,-6.237c-0,0 4.793,-0.079 4.793,-0.079c0.254,0 0.471,-0.182 0.515,-0.432l0.67,-4.184c0.023,-0.132 -0.013,-0.268 -0.099,-0.37c-0.086,-0.103 -0.214,-0.163 -0.348,-0.163l-4.852,0.083c0,0 0.731,-4.565 0.731,-4.565Zm1.142,19.791l-0.479,2.481c0,0 -0.368,0.04 -0.368,0.04c-0,0 -1.121,0.032 -1.121,0.032c-0.385,-0.006 -0.777,-0.032 -1.177,-0.076c-0.385,-0.043 -0.777,-0.105 -1.176,-0.184c-0.375,-0.074 -0.734,-0.177 -1.078,-0.306c-0.347,-0.13 -0.677,-0.291 -0.991,-0.478c-0.001,0 -0.001,-0 -0.001,-0c-0.288,-0.171 -0.546,-0.377 -0.779,-0.612c-0.23,-0.234 -0.431,-0.5 -0.607,-0.796c-0,0 -0,0 -0,0c-0.182,-0.304 -0.305,-0.656 -0.385,-1.05c-0.077,-0.377 -0.107,-0.791 -0.101,-1.243l0.058,-0.725c0,-0 0.134,-0.861 0.134,-0.861c-0,-0 1.258,-6.699 1.258,-6.699c0.061,-0.346 -0.035,-0.702 -0.261,-0.971c-0.226,-0.27 -0.56,-0.425 -0.911,-0.425l-1.396,-0.014c0,-0 0.302,-1.73 0.302,-1.73c0,-0 1.832,-0.013 1.832,-0.013c0.593,-0 1.101,-0.426 1.205,-1.011c0,0 0.191,-1.251 0.33,-2.512c0.077,-0.694 0.137,-1.386 0.176,-1.871c0.198,-0.02 0.421,-0.044 0.659,-0.072c1.099,-0.128 2.484,-0.325 3.118,-0.417l0,0l-0.899,4.594c-0.019,0.106 0.01,0.215 0.079,0.298c0.069,0.082 0.171,0.13 0.279,0.13l4.731,0.08c0,0 -0.62,3.197 -0.62,3.197c-0,0 -4.886,-0.08 -4.886,-0.08c-0.297,-0 -0.551,0.213 -0.602,0.505l-1.293,6.705l-0.07,0.478c0,0 -0.028,0.491 -0.028,0.491c-0.012,0.709 0.152,1.274 0.436,1.711c0.24,0.369 0.577,0.649 1.007,0.844c0.358,0.163 0.779,0.291 1.262,0.384c0.531,0.102 1.143,0.157 1.835,0.168l0.528,0.008Z"/><path d="M121.544,90.037c-0.043,-0.174 -0.126,-0.339 -0.244,-0.48c-0.23,-0.276 -0.571,-0.436 -0.93,-0.436l-4.578,-0.02c-0.598,-0 -1.11,0.429 -1.213,1.018l-2.843,17.958c-0.048,0.271 0.027,0.55 0.204,0.76c0.177,0.211 0.438,0.333 0.714,0.333l4.984,-0.102c0.404,0 0.749,-0.29 0.818,-0.688l1.393,-9.152c0.099,-0.649 0.251,-1.219 0.467,-1.709c0.245,-0.556 0.563,-1.01 0.969,-1.351c0,0 0.001,0 0.001,0c0.395,-0.332 0.842,-0.584 1.345,-0.75c0.48,-0.158 1.005,-0.245 1.578,-0.258l0.852,0.017c0,-0 1.093,0.084 1.093,0.084c0.224,0.027 0.431,-0.127 0.47,-0.349l0.676,-4.338c0.028,-0.153 -0.057,-0.305 -0.202,-0.362c-0.369,-0.135 -0.747,-0.235 -1.135,-0.298c-0.379,-0.061 -0.766,-0.088 -1.163,-0.079c-1.024,-0.184 -1.963,-0.15 -2.893,0.092c-0.122,0.032 -0.243,0.069 -0.363,0.11Zm3.256,0.349c0.361,0.009 0.712,0.05 1.054,0.121c0.255,0.053 0.504,0.125 0.749,0.214c0,0 -0.74,3.643 -0.74,3.643l-0.733,-0.09l-0.921,-0.057c-0.677,-0.015 -1.302,0.063 -1.876,0.226c-0.642,0.181 -1.218,0.474 -1.734,0.87c-0.449,0.345 -0.831,0.788 -1.149,1.326c-0.382,0.645 -0.664,1.435 -0.848,2.371l-1.645,8.383c0,0 -3.179,-0.064 -3.179,-0.064c-0,-0 3.032,-15.77 3.032,-15.77c-0,-0 2.213,-0.01 2.213,-0.01c0,0 -0.043,0.398 -0.043,0.398c-0.086,0.467 0.145,0.934 0.567,1.151c0.422,0.216 0.936,0.131 1.265,-0.211c0.497,-0.658 1.043,-1.177 1.687,-1.575c0.701,-0.431 1.423,-0.768 2.301,-0.926Z"/><path d="M139.068,108.416c0.027,0.125 0.085,0.244 0.169,0.345c0.155,0.185 0.384,0.292 0.626,0.292l4.651,-0.079c0.358,-0 0.663,-0.257 0.725,-0.609l2.817,-17.962c0.021,-0.119 -0.012,-0.242 -0.09,-0.334c-0.078,-0.093 -0.192,-0.146 -0.313,-0.146l-4.948,0.093c-0.153,-0 -0.284,0.11 -0.311,0.261l-0.215,1.374c-0.167,-0.236 -0.353,-0.46 -0.556,-0.679c-0.365,-0.394 -0.788,-0.723 -1.269,-1.045c-0.001,0 -0.001,0 -0.001,0c-0.444,-0.276 -0.939,-0.492 -1.49,-0.677c-0.701,-0.235 -1.485,-0.364 -2.36,-0.447c-0.883,-0.051 -1.713,-0.017 -2.492,0.12c-0.889,0.155 -1.7,0.459 -2.449,0.841c0,0 0,0 0,0c-0.672,0.36 -1.289,0.764 -1.848,1.217c-0.59,0.478 -1.116,1.007 -1.581,1.587c0,-0 0,-0 0,-0c-0.448,0.56 -0.841,1.15 -1.171,1.772c-0.331,0.623 -0.603,1.276 -0.815,1.96c-0.2,0.647 -0.352,1.282 -0.451,1.906c-0.108,0.675 -0.16,1.336 -0.152,1.983c0.008,0.626 0.064,1.238 0.173,1.835c0.111,0.609 0.272,1.204 0.487,1.783c0.215,0.573 0.472,1.111 0.777,1.612c0.314,0.516 0.674,0.996 1.084,1.436c0,0 0,0 0,0c0.408,0.437 0.851,0.829 1.334,1.172c0.474,0.336 0.982,0.631 1.53,0.877c0.578,0.26 1.193,0.454 1.848,0.574c0.594,0.108 1.221,0.161 1.88,0.151c0.592,-0.009 1.165,-0.067 1.719,-0.179c0.574,-0.116 1.129,-0.284 1.662,-0.509c0,-0 0,-0 0,-0c0.358,-0.151 0.702,-0.326 1.03,-0.525Zm3.045,-15.818c0.064,0.09 0.177,0.132 0.285,0.107c0.108,-0.024 0.191,-0.112 0.21,-0.221l0.357,-1.831c-0,-0 4.193,0.079 4.193,0.079c0,-0 -3.248,16.76 -3.248,16.76c-0,-0 -3.059,-0.052 -3.059,-0.052c0,-0 0.177,-0.898 0.177,-0.898c0.067,-0.369 -0.118,-0.738 -0.453,-0.907c-0.335,-0.168 -0.742,-0.095 -0.998,0.178c-0.318,0.329 -0.662,0.613 -1.029,0.858c-0.368,0.245 -0.762,0.445 -1.18,0.605c-0.428,0.164 -0.871,0.281 -1.328,0.358c-0.447,0.075 -0.908,0.106 -1.383,0.098c-0.528,-0.008 -1.028,-0.065 -1.501,-0.166c-0.49,-0.105 -0.949,-0.265 -1.379,-0.474c0,-0 0,-0 -0,-0c-0.419,-0.204 -0.807,-0.445 -1.167,-0.717c-0.361,-0.273 -0.69,-0.584 -0.991,-0.926c-0.301,-0.344 -0.563,-0.718 -0.79,-1.118c-0.224,-0.393 -0.408,-0.814 -0.56,-1.261c0,-0 0,-0 0,-0c-0.158,-0.462 -0.273,-0.935 -0.348,-1.418c-0.075,-0.477 -0.106,-0.965 -0.1,-1.463c0.007,-0.519 0.063,-1.049 0.163,-1.588c0.095,-0.516 0.235,-1.04 0.415,-1.573c0.001,-0 0.001,-0 0.001,-0.001c0.18,-0.536 0.41,-1.045 0.682,-1.532c0.271,-0.485 0.588,-0.945 0.95,-1.381c0.363,-0.438 0.776,-0.835 1.232,-1.196c0.446,-0.352 0.934,-0.668 1.467,-0.947c0.543,-0.298 1.14,-0.51 1.785,-0.672c0.619,-0.155 1.274,-0.283 1.987,-0.324c0.593,-0.056 1.138,-0.077 1.653,-0.039c0.58,0.042 1.105,0.115 1.586,0.281c0.459,0.141 0.875,0.301 1.26,0.527c0.413,0.243 0.781,0.514 1.111,0.854Zm-1.033,8.318c0,-0 0,-0 0,-0c0.145,-0.332 0.256,-0.672 0.336,-1.02c0.082,-0.35 0.128,-0.707 0.144,-1.073c0.016,-0.355 0.001,-0.693 -0.039,-1.017c-0.045,-0.358 -0.128,-0.695 -0.24,-1.015c-0.108,-0.306 -0.243,-0.588 -0.398,-0.85c-0.165,-0.28 -0.361,-0.531 -0.58,-0.763c0,0 0,0 -0,-0c-0.216,-0.228 -0.455,-0.428 -0.712,-0.608c-0.253,-0.176 -0.527,-0.325 -0.819,-0.456c-0,0 -0,-0 -0.001,-0c-0.302,-0.135 -0.62,-0.234 -0.95,-0.308c-0.316,-0.071 -0.644,-0.109 -0.986,-0.123c-0.409,-0.018 -0.802,0.01 -1.182,0.071c-0.407,0.064 -0.794,0.18 -1.167,0.333c-0,-0 -0,-0 -0.001,-0c-0.358,0.148 -0.688,0.329 -1,0.534c-0.322,0.213 -0.614,0.46 -0.887,0.733c-0.275,0.274 -0.517,0.58 -0.738,0.909c-0.211,0.314 -0.392,0.656 -0.553,1.02c-0,0 -0,0 -0.001,0c-0.166,0.379 -0.289,0.769 -0.379,1.168c-0.091,0.397 -0.136,0.804 -0.152,1.222c-0.042,0.741 0.049,1.439 0.242,2.082c0.214,0.715 0.582,1.351 1.074,1.926c0.516,0.601 1.146,1.039 1.872,1.339c0.639,0.264 1.363,0.399 2.171,0.42c0.463,0.008 0.908,-0.032 1.332,-0.121c0.457,-0.096 0.89,-0.251 1.3,-0.455c0.361,-0.228 0.714,-0.444 0.996,-0.741c0.294,-0.309 0.54,-0.622 0.742,-0.994c-0,-0.001 -0,-0.001 -0,-0.001c0.14,-0.293 0.286,-0.548 0.371,-0.862c0.126,-0.46 0.192,-0.856 0.205,-1.35Zm-0.515,-0.198c-0.186,0.218 -0.367,0.367 -0.569,0.559c-0.282,0.267 -0.563,0.453 -0.885,0.662c-0.261,0.206 -0.559,0.308 -0.86,0.458c-0.184,0.091 -0.375,0.169 -0.576,0.243c-0,0 -0,0 -0.001,0c-0.231,0.113 -0.476,0.191 -0.732,0.248c-0.258,0.057 -0.526,0.095 -0.808,0.099c-0.49,0.013 -0.934,-0.034 -1.33,-0.172c-0.399,-0.139 -0.754,-0.348 -1.051,-0.653c-0,-0 -0,-0 -0,-0c-0.313,-0.32 -0.559,-0.679 -0.715,-1.091c-0.157,-0.417 -0.25,-0.874 -0.259,-1.379c0.001,-0.007 0.001,-0.013 0.001,-0.019c-0.011,-0.294 -0.002,-0.582 0.041,-0.865c0.043,-0.286 0.106,-0.568 0.203,-0.844c0.096,-0.275 0.206,-0.535 0.341,-0.776c0.139,-0.247 0.292,-0.479 0.472,-0.691c-0,0 -0,0 -0,0c0.178,-0.209 0.369,-0.402 0.585,-0.57c0.217,-0.169 0.448,-0.323 0.702,-0.452c0.258,-0.133 0.528,-0.241 0.816,-0.313c0.285,-0.071 0.583,-0.119 0.895,-0.132c0.262,-0.011 0.516,-0.006 0.762,0.028c0.253,0.034 0.499,0.087 0.736,0.168c0.23,0.08 0.449,0.175 0.653,0.293c0.208,0.12 0.405,0.256 0.585,0.416c0.18,0.161 0.347,0.339 0.491,0.541c0.142,0.199 0.27,0.414 0.377,0.651c-0,0 -0,0 -0,0c0.115,0.256 0.207,0.527 0.27,0.817c0.061,0.278 0.101,0.57 0.115,0.879c0.014,0.324 0.003,0.642 -0.041,0.956c-0.044,0.318 -0.115,0.63 -0.218,0.939l0,-0Z"/><path d="M157.309,89.691c-0.033,-0.055 -0.071,-0.108 -0.113,-0.158c-0.235,-0.275 -0.578,-0.434 -0.939,-0.434l-4.541,-0.008c-0.603,0 -1.118,0.433 -1.222,1.027l-2.977,17.934c-0.054,0.313 0.032,0.635 0.236,0.878c0.205,0.244 0.507,0.384 0.825,0.384l4.984,-0.059c0.495,0 0.919,-0.357 1.003,-0.845l1.713,-10.804c0.069,-0.406 0.179,-0.776 0.341,-1.095c0.166,-0.328 0.381,-0.604 0.653,-0.82c0.276,-0.218 0.574,-0.386 0.898,-0.497c0.323,-0.109 0.67,-0.168 1.04,-0.173c0.354,-0.005 0.676,0.029 0.965,0.113c0.294,0.085 0.554,0.216 0.775,0.403c0.204,0.172 0.357,0.386 0.456,0.645c0.1,0.263 0.151,0.566 0.156,0.906l-0.035,0.48l-0.12,0.725l-1.562,9.844c-0.03,0.172 0.018,0.349 0.131,0.482c0.112,0.134 0.278,0.211 0.453,0.211l4.947,-0.069c0.254,0 0.471,-0.183 0.515,-0.433l1.629,-10.178c0.062,-0.375 0.111,-0.727 0.143,-1.053c0.04,-0.398 0.058,-0.758 0.054,-1.079c-0.007,-0.461 -0.049,-0.902 -0.128,-1.323c-0.084,-0.451 -0.208,-0.878 -0.374,-1.283c-0.16,-0.388 -0.351,-0.75 -0.577,-1.084c-0.23,-0.341 -0.494,-0.654 -0.793,-0.938c0,0 0,0 0,0c-0.266,-0.327 -0.565,-0.612 -0.896,-0.879c-0.328,-0.263 -0.685,-0.483 -1.075,-0.687c0,0 0,0 -0,0c-0.416,-0.218 -0.858,-0.381 -1.335,-0.514c-0.445,-0.125 -0.912,-0.194 -1.409,-0.243c-0.576,-0.043 -1.122,-0.023 -1.645,0.033c-0.592,0.063 -1.142,0.203 -1.668,0.388c-0,-0 -0,-0 -0,-0c-0.173,0.062 -0.343,0.13 -0.508,0.203Zm8.151,2.094c0.261,0.263 0.49,0.551 0.688,0.864c0.194,0.306 0.357,0.636 0.49,0.99c-0,0 -0,0 -0,0c0.139,0.37 0.239,0.759 0.304,1.167c0.06,0.387 0.086,0.79 0.08,1.212c-0.004,0.297 -0.031,0.629 -0.079,0.996c-0.04,0.31 -0.096,0.645 -0.167,1.004l-1.833,9.691c0,-0 -3.803,-0.053 -3.803,-0.053c-0,-0 1.707,-9.114 1.707,-9.114c-0.001,0.005 0.138,-0.715 0.138,-0.715c0,0 0.076,-0.739 0.076,-0.739c0.007,-0.536 -0.07,-1.012 -0.217,-1.431c-0.18,-0.516 -0.474,-0.946 -0.869,-1.299c-0,-0 -0,-0 -0.001,-0.001c-0.378,-0.337 -0.824,-0.585 -1.336,-0.748c-0.427,-0.135 -0.902,-0.206 -1.428,-0.213c-0.551,-0.007 -1.068,0.07 -1.554,0.221c-0.509,0.158 -0.98,0.405 -1.418,0.734c0,-0 -0,-0 -0,-0c-0.472,0.355 -0.855,0.808 -1.151,1.357c-0.248,0.459 -0.431,0.989 -0.549,1.591l-1.822,9.911c0,0 -2.848,-0.033 -2.848,-0.033c-0,-0 2.881,-15.606 2.881,-15.606c-0,0 2.103,-0.004 2.103,-0.004c-0,0 -0.022,0.163 -0.022,0.163c-0.082,0.502 0.168,1.001 0.618,1.237c0.451,0.237 1.003,0.159 1.37,-0.194c0.262,-0.274 0.544,-0.525 0.85,-0.751c0.308,-0.227 0.627,-0.443 0.979,-0.624c0.364,-0.191 0.748,-0.355 1.172,-0.465c0.412,-0.107 0.845,-0.187 1.311,-0.222c0.411,-0.041 0.8,-0.058 1.18,-0.036c0.409,0.025 0.796,0.067 1.171,0.165c0.364,0.095 0.705,0.21 1.029,0.366c0.339,0.164 0.655,0.35 0.95,0.579l-0,-0Z"/><path d="M176.77,94.475c0.166,-0.082 0.357,-0.116 0.574,-0.135c0.19,-0.017 0.393,0 0.621,0.029c0.312,0.04 0.606,0.129 0.904,0.242c0.283,0.107 0.544,0.26 0.813,0.434c0.277,0.171 0.52,0.39 0.764,0.628c0.231,0.224 0.439,0.482 0.642,0.767c0.166,0.196 0.406,0.315 0.662,0.33c0.257,0.015 0.509,-0.076 0.696,-0.252c0,-0 0.804,-0.615 1.592,-1.263c0.783,-0.644 1.542,-1.314 1.542,-1.314c0.445,-0.417 0.507,-1.1 0.145,-1.591c-0.425,-0.604 -0.905,-1.14 -1.444,-1.6c-0.55,-0.47 -1.164,-0.854 -1.828,-1.172c-0,-0 -0,-0.001 -0.001,-0.001c-0.685,-0.324 -1.427,-0.567 -2.228,-0.718c-0.707,-0.134 -1.46,-0.198 -2.259,-0.192c-0.513,0.004 -1.01,0.039 -1.489,0.109c-0.512,0.075 -1.005,0.186 -1.48,0.335c0,-0 -0,-0 -0,-0c-0.46,0.145 -0.889,0.318 -1.287,0.523c-0.435,0.224 -0.834,0.481 -1.197,0.775c-0.001,-0 -0.001,0 -0.001,0c-0.363,0.294 -0.688,0.619 -0.973,0.981c-0.28,0.355 -0.525,0.74 -0.729,1.161c-0.215,0.441 -0.377,0.909 -0.478,1.407c-0.092,0.453 -0.139,0.931 -0.134,1.432c0.004,0.391 0.035,0.76 0.096,1.107c0.07,0.403 0.174,0.779 0.316,1.126c0.134,0.327 0.294,0.641 0.487,0.938c0.188,0.29 0.401,0.566 0.645,0.826c0.24,0.256 0.504,0.5 0.794,0.73c0.268,0.211 0.556,0.412 0.867,0.6c0.312,0.189 0.644,0.372 0.997,0.546c0.323,0.16 0.663,0.315 1.02,0.462l1.676,0.667c0,0 1.091,0.615 1.091,0.615c0,0 0.064,0.173 0.064,0.173c0.001,0.057 0.005,0.11 -0.028,0.15c-0.037,0.045 -0.086,0.082 -0.146,0.115c-0.001,0 -0.001,0 -0.001,0.001c-0.168,0.091 -0.349,0.161 -0.545,0.206c-0.199,0.047 -0.411,0.073 -0.636,0.076c-0.415,0.006 -0.801,-0.033 -1.155,-0.13c-0.364,-0.099 -0.695,-0.251 -0.991,-0.464c0,-0.001 -0,-0.001 -0,-0.001c-0.35,-0.253 -0.694,-0.535 -1.03,-0.849c-0.319,-0.299 -0.633,-0.625 -0.94,-0.978c-0.147,-0.174 -0.357,-0.281 -0.584,-0.298c-0.227,-0.017 -0.451,0.058 -0.621,0.209l-3.062,2.776c-0.284,0.251 -0.349,0.669 -0.154,0.994c0.424,0.683 0.931,1.298 1.528,1.841c0.566,0.515 1.21,0.968 1.935,1.356c0.763,0.408 1.584,0.71 2.466,0.899c0.807,0.173 1.664,0.255 2.571,0.241c0.591,-0.009 1.146,-0.056 1.666,-0.142c0.593,-0.099 1.141,-0.246 1.644,-0.443c0,-0 0,-0 0,-0c0.456,-0.179 0.875,-0.384 1.257,-0.617c0.42,-0.257 0.797,-0.544 1.128,-0.865c0.315,-0.304 0.592,-0.628 0.831,-0.974c0.243,-0.354 0.449,-0.728 0.613,-1.126c0,-0 0,-0 0,-0c0.161,-0.39 0.281,-0.785 0.359,-1.187c0.078,-0.405 0.116,-0.816 0.109,-1.233c-0.01,-0.672 -0.124,-1.283 -0.344,-1.833c-0.235,-0.586 -0.584,-1.106 -1.055,-1.555c0,-0 0,-0 0,-0c-0.47,-0.448 -1.04,-0.871 -1.714,-1.266c-0.555,-0.325 -1.18,-0.632 -1.876,-0.921l-1.632,-0.673c-0.274,-0.132 -0.51,-0.257 -0.709,-0.376c-0.17,-0.103 -0.313,-0.2 -0.426,-0.294c0,0 0,0 0,0c-0.095,-0.079 -0.169,-0.167 -0.218,-0.269c-0.049,-0.103 -0.075,-0.218 -0.077,-0.345c-0.002,-0.156 0.022,-0.296 0.081,-0.417c0.06,-0.123 0.152,-0.227 0.276,-0.313Zm-0.306,-0.459c-0.213,0.137 -0.37,0.31 -0.478,0.513c-0.104,0.195 -0.157,0.42 -0.162,0.676c-0.003,0.218 0.038,0.415 0.116,0.595c0.079,0.183 0.202,0.345 0.365,0.49c0.13,0.115 0.293,0.236 0.491,0.364c0.213,0.138 0.466,0.284 0.761,0.437l1.63,0.736c0.652,0.295 1.236,0.606 1.753,0.932c0.602,0.379 1.11,0.78 1.523,1.201c0.366,0.371 0.633,0.794 0.806,1.269c0.166,0.455 0.24,0.958 0.232,1.508c-0.006,0.349 -0.048,0.692 -0.124,1.029c-0.075,0.333 -0.186,0.66 -0.331,0.981c-0.146,0.325 -0.325,0.629 -0.536,0.915c-0.207,0.281 -0.446,0.543 -0.715,0.787c-0,0 -0,0 -0,0c-0.282,0.257 -0.601,0.483 -0.954,0.684c-0.332,0.189 -0.697,0.352 -1.091,0.493c-0.433,0.155 -0.904,0.264 -1.411,0.332c-0.464,0.062 -0.957,0.088 -1.482,0.08c-0.802,-0.013 -1.557,-0.108 -2.265,-0.283c-0.745,-0.184 -1.436,-0.462 -2.075,-0.829c0,-0 0,-0 0,-0c-0.603,-0.347 -1.136,-0.747 -1.602,-1.197c-0.318,-0.307 -0.602,-0.638 -0.854,-0.994c-0,-0 1.982,-1.696 1.982,-1.696c0.156,0.17 0.314,0.334 0.474,0.493c0.38,0.377 0.771,0.717 1.171,1.024c0.458,0.352 0.975,0.612 1.548,0.786c0.507,0.154 1.059,0.234 1.658,0.243c0.366,0.005 0.71,-0.029 1.035,-0.094c0.37,-0.075 0.714,-0.199 1.033,-0.362c0.391,-0.199 0.677,-0.463 0.88,-0.766c0.225,-0.335 0.342,-0.729 0.348,-1.183c0.005,-0.35 -0.063,-0.658 -0.178,-0.93c-0.137,-0.323 -0.354,-0.594 -0.644,-0.818c-0,0 -0,0 -0,0c-0.159,-0.122 -0.349,-0.25 -0.569,-0.386c-0.237,-0.145 -0.513,-0.299 -0.828,-0.462c-0.021,-0.011 -0.044,-0.021 -0.066,-0.03l-1.689,-0.724c-0.296,-0.132 -0.59,-0.275 -0.869,-0.422c-0.293,-0.155 -0.569,-0.317 -0.83,-0.484c0,0 -0,0 -0,-0c-0.229,-0.146 -0.44,-0.302 -0.636,-0.466c-0.2,-0.166 -0.381,-0.344 -0.546,-0.529c0,-0 -0,-0.001 -0.001,-0.001c-0.149,-0.167 -0.278,-0.345 -0.392,-0.531c-0.113,-0.185 -0.206,-0.38 -0.284,-0.584c0,-0 -0,-0 -0,-0.001c-0.08,-0.207 -0.134,-0.431 -0.17,-0.671c-0.036,-0.236 -0.049,-0.486 -0.046,-0.751c0.003,-0.335 0.041,-0.653 0.109,-0.955c0.069,-0.304 0.174,-0.589 0.312,-0.857c0,-0 0,-0 0.001,-0c0.136,-0.266 0.298,-0.508 0.481,-0.731c0.183,-0.222 0.392,-0.42 0.622,-0.598c0.245,-0.189 0.514,-0.352 0.805,-0.494c0.285,-0.139 0.592,-0.254 0.92,-0.349c0.357,-0.105 0.728,-0.179 1.113,-0.228c0.374,-0.048 0.761,-0.07 1.16,-0.067c0.632,0.005 1.227,0.066 1.785,0.178c0.585,0.117 1.128,0.295 1.628,0.536c0.475,0.227 0.908,0.51 1.309,0.836c0.144,0.118 0.284,0.24 0.421,0.369c-0.185,0.191 -0.385,0.4 -0.583,0.612c-0.287,0.306 -0.569,0.616 -0.802,0.875c-0.071,-0.055 -0.144,-0.106 -0.218,-0.156c-0.387,-0.257 -0.778,-0.469 -1.196,-0.619c0,-0 -0,-0.001 -0,-0.001c-0.395,-0.131 -0.774,-0.233 -1.164,-0.276c-0.399,-0.044 -0.786,-0.058 -1.18,-0.008c-0.358,0.046 -0.665,0.111 -0.931,0.224c-0.22,0.093 -0.41,0.197 -0.57,0.335Z"/><path d="M186.965,103.557c-0,-0 -0.187,-0.187 -0.287,-0.294c0.009,-0.009 0.013,-0.015 0.007,-0.02c-0.103,-0.089 -0.076,-0.053 -0.007,0.02c-0.012,0.014 -0.036,0.033 -0.057,0.06c-0.123,0.159 -0.335,0.362 -0.624,0.811c-0.18,0.28 -0.344,0.567 -0.496,0.936c-0.116,0.279 -0.199,0.576 -0.265,0.873c-0.241,1.085 -0.3,2.092 -0.3,2.092c-0.06,0.346 0.036,0.7 0.262,0.968c0.226,0.269 0.559,0.423 0.909,0.423l4.957,-0.259c0.452,-0 0.839,-0.325 0.916,-0.771l0.543,-5.011c0.03,-0.178 -0.019,-0.359 -0.135,-0.497c-0.116,-0.138 -0.286,-0.217 -0.466,-0.217l-4.957,0.334l-0,0.552Zm0.362,0.024l3.836,0.258c-0,0 -0.821,3.432 -0.821,3.432c0,0 -2.761,-0.145 -2.761,-0.145c0.044,-0.237 0.085,-0.493 0.118,-0.757c0.038,-0.302 0.059,-0.609 0.044,-0.911c-0.019,-0.399 -0.078,-0.724 -0.153,-1.048c-0.094,-0.401 -0.194,-0.649 -0.263,-0.829Zm-0.079,-0.203c-0.011,-0.022 -0.017,-0.035 -0.007,-0.039c0.108,-0.042 0.079,-0.011 0.007,0.039Z"/></svg>