<?xml version="1.0" encoding="UTF-8" standalone="no"?><!DOCTYPE svg PUBLIC "-//W3C//DTD SVG 1.1//EN" "http://www.w3.org/Graphics/SVG/1.1/DTD/svg11.dtd"><svg width="100%" height="100%" viewBox="0 0 201 201" version="1.1" xmlns="http://www.w3.org/2000/svg" xmlns:xlink="http://www.w3.org/1999/xlink" xml:space="preserve" xmlns:serif="http://www.serif.com/" style="fill-rule:evenodd;clip-rule:evenodd;stroke-linejoin:round;stroke-miterlimit:2;"><rect id="delivery" x="0.294" y="0.474" width="200" height="200" style="fill:none;"/><path d="M113.032,105.598c-0.06,-0.001 -0.117,0.022 -0.16,0.063c0,0 -2.077,1.742 -4.674,4.044c-1.452,1.287 -3.057,2.748 -4.568,4.149c-1.08,1.001 -2.103,1.975 -2.986,2.827c-1.74,1.677 -2.933,2.881 -2.933,2.881c-0.289,0.285 -0.376,0.718 -0.219,1.093c0.156,0.375 0.525,0.617 0.931,0.612c-0,0 10.941,-0.163 23.35,-0.379c16.254,-0.284 35.024,-0.654 35.024,-0.654c0.24,-0.003 0.457,-0.141 0.563,-0.356c0.105,-0.216 0.079,-0.472 -0.066,-0.663l-10.102,-13.047c-0.093,-0.122 -0.237,-0.195 -0.39,-0.198l-33.77,-0.372Zm0.093,0.444l33.411,0.925c0,0 8.989,12.002 8.989,12.002c-4.464,0.016 -20.019,0.072 -33.773,0.147c-8.864,0.049 -16.98,0.109 -20.894,0.138c0.352,-0.351 0.745,-0.746 1.168,-1.175c0.862,-0.874 1.847,-1.886 2.86,-2.954c1.418,-1.495 2.897,-3.083 4.201,-4.522c2.086,-2.3 3.718,-4.189 4.038,-4.561Z"/><path d="M142.725,119.767c0,-0 -0.182,0.955 -0.355,2.53c-0.062,0.565 -0.118,1.195 -0.152,1.892c-0.028,0.595 -0.038,1.227 -0.028,1.889c0.021,1.39 0.121,2.895 0.197,4.395c0.259,5.163 0.571,10.253 0.571,10.253c0.008,0.21 0.1,0.408 0.256,0.55c0.155,0.141 0.361,0.214 0.571,0.202l4.319,-0.34c0.184,-0.011 0.356,-0.094 0.478,-0.231c0.122,-0.138 0.185,-0.318 0.174,-0.502l-1.671,-20.563c-0.007,-0.121 -0.112,-0.214 -0.233,-0.207c-0.122,0.007 -0.215,0.111 -0.208,0.233l0.703,19.911c-0,-0 -2.837,0.105 -2.837,0.105c-0.026,-1.622 -0.093,-5.533 -0.195,-9.484c-0.039,-1.501 -0.052,-3.01 -0.137,-4.398c-0.041,-0.66 -0.098,-1.29 -0.172,-1.88c-0.086,-0.694 -0.189,-1.317 -0.294,-1.876c-0.293,-1.558 -0.546,-2.496 -0.546,-2.496c-0.005,-0.121 -0.107,-0.216 -0.229,-0.212c-0.121,0.005 -0.217,0.107 -0.212,0.229Z"/><path d="M111.738,120.088c-0,0 -0.328,0.933 -0.748,2.484c-0.151,0.558 -0.307,1.182 -0.452,1.877c-0.123,0.592 -0.237,1.225 -0.334,1.89c-0.204,1.398 -0.346,2.925 -0.513,4.443c-0.572,5.223 -1.078,10.382 -1.078,10.382c-0.028,0.235 0.049,0.469 0.211,0.64c0.163,0.171 0.393,0.262 0.628,0.246l5.192,-0.447c0.336,-0.023 0.607,-0.285 0.64,-0.62l1.631,-21.165c0.012,-0.122 -0.076,-0.23 -0.197,-0.242c-0.122,-0.012 -0.23,0.077 -0.242,0.198l-2.491,20.48c-0,0 -3.666,0.17 -3.666,0.17c0.243,-1.711 0.783,-5.539 1.295,-9.409c0.2,-1.514 0.426,-3.031 0.561,-4.438c0.064,-0.669 0.105,-1.311 0.126,-1.915c0.025,-0.71 0.022,-1.352 0.009,-1.93c-0.038,-1.607 -0.134,-2.591 -0.134,-2.591c0.014,-0.121 -0.072,-0.231 -0.193,-0.245c-0.121,-0.015 -0.231,0.071 -0.245,0.192Z"/><path d="M10.062,102.882c0,0 0.677,-0.327 1.842,-1.052c0.508,-0.316 1.087,-0.699 1.736,-1.173c0.419,-0.306 0.854,-0.651 1.308,-1.03c0.596,-0.498 1.21,-1.065 1.866,-1.656c2.863,-2.576 6.366,-5.791 9.828,-8.97c7.452,-6.84 14.667,-13.54 14.667,-13.54c0.092,-0.08 0.101,-0.219 0.021,-0.311c-0.081,-0.091 -0.22,-0.101 -0.312,-0.02c0,-0 -7.58,6.283 -15.33,12.784c-3.601,3.02 -7.244,6.076 -10.17,8.58c-0.671,0.574 -1.313,1.109 -1.884,1.635c-0.435,0.401 -0.834,0.788 -1.192,1.163c-0.554,0.582 -1.009,1.107 -1.388,1.569c-0.87,1.061 -1.283,1.69 -1.283,1.69c-0.091,0.08 -0.101,0.22 -0.02,0.311c0.08,0.092 0.22,0.101 0.311,0.02Z"/><path d="M9.757,102.564c-0.041,0.043 -0.063,0.101 -0.061,0.16c0,0 -0.019,5.053 0.044,12.265c0.034,3.829 0.096,8.264 0.182,12.873c0.034,1.82 0.078,3.667 0.127,5.515c0.081,3.106 0.172,6.212 0.27,9.19c0.387,11.707 0.785,21.437 0.785,21.437c0.018,0.501 0.414,0.906 0.915,0.934l75.941,4.026c0.122,0.007 0.243,-0.016 0.353,-0.067c0,-0 2.511,-1.172 4.528,-3.296c1.284,-1.352 2.362,-3.083 2.541,-5.125c0.23,-2.631 -1.015,-5.848 -5.512,-9.439c-2.714,-2.167 -6.34,-3.428 -10.46,-4.126c-9.513,-1.611 -21.693,-0.234 -30.931,-0.739c-5.393,-0.295 -9.769,-1.198 -11.902,-3.858c-2.448,-3.052 -3.646,-7.8 -4.553,-13.043c-1.211,-6.994 -1.884,-14.862 -4.121,-20.88c-1.142,-3.07 -2.691,-5.663 -4.908,-7.433c-2.717,-2.17 -5.034,-2.706 -6.999,-2.406c-2.689,0.412 -4.727,2.412 -6.239,4.012Zm0.387,0.235c1.453,-1.511 3.386,-3.383 5.926,-3.751c1.855,-0.268 4.027,0.28 6.573,2.347c2.125,1.725 3.588,4.244 4.665,7.214c2.178,6.002 2.778,13.832 3.927,20.796c0.894,5.414 2.131,10.308 4.631,13.475c1.944,2.463 5.652,3.627 10.333,4.118c7.498,0.787 17.532,-0.101 26.491,0.423c6.512,0.381 12.452,1.492 16.348,4.65c3.944,3.196 5.166,5.958 4.946,8.277c-0.162,1.707 -1.103,3.133 -2.185,4.256c-1.542,1.601 -3.393,2.594 -3.945,2.87c-0.001,0.001 -74.838,-4.419 -74.838,-4.419c-0.081,-2.647 -0.339,-10.937 -0.698,-20.559c-0.112,-2.977 -0.239,-6.082 -0.377,-9.186c-0.081,-1.846 -0.167,-3.692 -0.261,-5.51c-0.239,-4.604 -0.489,-9.031 -0.725,-12.854c-0.409,-6.64 -0.759,-11.442 -0.811,-12.147Z"/><path d="M64.608,67.444c0,0 3.149,0.186 8.374,0.374c2.18,0.079 4.716,0.148 7.536,0.207c1.59,0.033 3.269,0.058 5.023,0.071c1.615,0.013 3.293,0.011 5.024,0.005c6.2,-0.02 13.069,-0.091 20.092,-0.152c25.818,-0.223 53.704,-0.519 58.026,-0.565c-0,-0 4.282,36.975 4.282,36.975c0,-0 0.393,12.221 0.393,12.221c-0,-0 -18.649,-0.807 -18.649,-0.807c-0.121,-0.006 -0.225,0.088 -0.231,0.209c-0.006,0.122 0.088,0.225 0.209,0.231l19.007,1.065c0.095,0.005 0.188,-0.03 0.256,-0.097c0.068,-0.066 0.105,-0.158 0.103,-0.253l-0.253,-12.611c-0,-0.011 -0.001,-0.023 -0.002,-0.035l-3.902,-37.619c-0.036,-0.328 -0.314,-0.575 -0.643,-0.574c-0,0 -30.526,-0.042 -58.605,-0.023c-7.023,0.005 -13.892,-0.001 -20.093,0.037c-1.73,0.01 -3.408,0.024 -5.023,0.052c-1.754,0.03 -3.432,0.07 -5.022,0.118c-2.82,0.085 -5.355,0.178 -7.534,0.277c-5.223,0.238 -8.37,0.453 -8.37,0.453c-0.122,0 -0.22,0.1 -0.219,0.222c0,0.121 0.099,0.22 0.221,0.219Z"/><path d="M94.999,156.526c-0,-0 0.307,-0.573 0.741,-1.697c0.188,-0.486 0.387,-1.053 0.583,-1.726c0.126,-0.432 0.24,-0.9 0.346,-1.403c0.139,-0.658 0.248,-1.375 0.375,-2.13c0.553,-3.294 1.19,-7.367 1.819,-11.394c1.354,-8.669 2.615,-17.113 2.615,-17.113c0.022,-0.12 -0.058,-0.235 -0.178,-0.257c-0.119,-0.021 -0.234,0.058 -0.256,0.178c-0,-0 -1.806,8.345 -3.605,16.931c-0.835,3.99 -1.68,8.026 -2.328,11.302c-0.148,0.751 -0.299,1.46 -0.402,2.125c-0.079,0.508 -0.137,0.986 -0.172,1.435c-0.055,0.699 -0.069,1.299 -0.065,1.82c0.009,1.205 0.093,1.85 0.093,1.85c-0.022,0.119 0.058,0.234 0.177,0.256c0.12,0.022 0.235,-0.057 0.257,-0.177Z"/><path d="M172.953,105.288c-0,0 -1.249,-0.181 -3.454,-0.396c-0.979,-0.095 -2.135,-0.194 -3.455,-0.278c-1.058,-0.067 -2.214,-0.127 -3.456,-0.161c-1.091,-0.03 -2.247,-0.026 -3.457,-0.03c-6.402,-0.018 -14.31,0.024 -22.124,0.058c-16.813,0.073 -33.186,0.2 -33.186,0.2c-0.191,-0.001 -0.351,0.143 -0.369,0.333l-0.881,10.691c-0.011,0.122 0.077,0.229 0.199,0.241c0.121,0.012 0.229,-0.077 0.24,-0.198l1.137,-10.324c2.398,0.05 17.439,0.363 32.85,0.634c7.813,0.138 15.719,0.286 22.121,0.353c1.21,0.012 2.366,0.032 3.457,0.016c1.243,-0.017 2.399,-0.062 3.457,-0.115c1.322,-0.066 2.479,-0.15 3.459,-0.232c2.208,-0.186 3.459,-0.35 3.459,-0.35c0.122,0 0.221,-0.098 0.222,-0.219c0.001,-0.122 -0.098,-0.222 -0.219,-0.223Z"/><path d="M71.376,96.55c-0,0 1.84,0.134 5.058,0.226c1.431,0.041 3.126,0.07 5.052,0.065c1.255,-0.002 2.604,-0.027 4.037,-0.07c1.883,-0.055 3.908,-0.156 6.05,-0.251c9.336,-0.414 20.865,-0.973 32.257,-1.525c24.511,-1.188 48.381,-2.402 48.381,-2.402c0.122,-0.005 0.217,-0.107 0.212,-0.229c-0.005,-0.122 -0.108,-0.216 -0.229,-0.212c-0,0 -23.892,0.661 -48.421,1.397c-11.4,0.343 -22.938,0.689 -32.277,1.008c-2.142,0.073 -4.169,0.131 -6.051,0.223c-1.432,0.071 -2.779,0.151 -4.03,0.247c-1.921,0.147 -3.608,0.308 -5.031,0.461c-3.201,0.344 -5.026,0.621 -5.026,0.621c-0.121,0.005 -0.216,0.108 -0.211,0.23c0.004,0.121 0.107,0.216 0.229,0.211Z"/><path d="M58.778,67.932c0,-0 -0.065,1.216 0.048,3.215c0.048,0.84 0.139,1.804 0.274,2.873c0.076,0.607 0.168,1.242 0.291,1.901c0.208,1.119 0.491,2.299 0.81,3.516c0.687,2.618 1.599,5.39 2.717,7.998c2.011,4.691 4.755,8.828 8.314,10.653c2.982,1.522 6.769,2.253 10.722,2.666c5.743,0.6 11.83,0.547 16.166,1.507c2.63,0.582 4.607,1.522 5.403,3.268c0.048,0.111 0.178,0.162 0.29,0.114c0.111,-0.049 0.163,-0.179 0.114,-0.291c-0.791,-1.9 -2.851,-3.023 -5.653,-3.739c-4.321,-1.103 -10.432,-1.251 -16.18,-2.03c-3.758,-0.509 -7.358,-1.284 -10.161,-2.82c-3.227,-1.76 -5.566,-5.682 -7.319,-10.033c-1.029,-2.55 -1.828,-5.259 -2.489,-7.796c-0.31,-1.189 -0.577,-2.344 -0.845,-3.423c-0.158,-0.637 -0.322,-1.245 -0.476,-1.824c-0.274,-1.025 -0.517,-1.945 -0.736,-2.743c-0.525,-1.908 -0.851,-3.061 -0.851,-3.061c-0.014,-0.121 -0.123,-0.208 -0.244,-0.195c-0.121,0.013 -0.208,0.122 -0.195,0.244Z"/><path d="M142.899,75.542c5.025,7.941 5.336,14.647 2.649,20.567c8.059,-2.591 14.581,-2.462 19.917,-0.233c-2.236,-6.359 -2.857,-13.076 -1.643,-20.198c-6.018,1.38 -12.839,1.563 -20.923,-0.136Z" style="fill:#fff;"/><path d="M142.945,75.326c-0.087,-0.019 -0.176,0.017 -0.227,0.09c-0.05,0.073 -0.053,0.169 -0.005,0.243c0.611,1.229 1.091,2.411 1.533,3.56c0.481,1.253 0.865,2.45 1.167,3.616c0.216,0.832 0.389,1.642 0.52,2.437c0.138,0.835 0.233,1.65 0.272,2.452c0.137,2.835 -0.398,5.487 -1.518,7.995c-0.154,0.34 -0.093,0.74 0.156,1.019c0.248,0.279 0.639,0.386 0.995,0.271c3.524,-1.17 6.749,-1.803 9.708,-1.952c3.589,-0.18 6.782,0.347 9.634,1.503c0.269,0.112 0.58,0.056 0.793,-0.145c0.213,-0.201 0.288,-0.508 0.19,-0.784c-1.155,-3.168 -1.901,-6.43 -2.209,-9.795c-0.299,-3.261 -0.192,-6.616 0.353,-10.075c0.028,-0.162 -0.027,-0.327 -0.147,-0.44c-0.119,-0.113 -0.287,-0.159 -0.448,-0.122c-3.192,0.774 -6.617,1.208 -10.349,1.201c-3.229,-0.006 -6.686,-0.341 -10.418,-1.074Zm0.499,0.561c3.527,0.755 6.817,1.146 9.909,1.232c3.526,0.097 6.793,-0.204 9.859,-0.812c-0.549,3.289 -0.706,6.496 -0.495,9.627c0.2,2.965 0.732,5.861 1.574,8.692c-2.65,-0.921 -5.576,-1.366 -8.814,-1.268c-2.569,0.078 -5.337,0.502 -8.321,1.302c1.025,-2.906 1.386,-5.999 0.788,-9.302c-0.194,-1.072 -0.499,-2.162 -0.921,-3.266c-0.383,-1.002 -0.853,-2.012 -1.436,-3.031c-0.607,-1.057 -1.325,-2.101 -2.143,-3.174l-0,-0Z"/><path d="M66.428,83.534c3.428,7.285 3.64,13.951 1.807,20.222c5.499,-3.644 9.949,-4.366 13.59,-2.834c-1.526,-6.067 -1.95,-12.703 -1.121,-19.983c-4.106,2.165 -8.761,3.239 -14.276,2.595Z" style="fill:#fff;"/><path d="M66.453,83.315c-0.079,-0.009 -0.158,0.025 -0.204,0.09c-0.047,0.065 -0.055,0.151 -0.021,0.223c0.336,1.021 0.586,2.007 0.833,2.989c0.256,1.018 0.466,2.004 0.649,2.982c0.189,1.012 0.333,2.002 0.445,2.981c0.115,1.011 0.206,2.005 0.227,2.99c0.058,2.719 -0.301,5.356 -1.028,7.929c-0.108,0.369 0.026,0.767 0.337,0.996c0.31,0.229 0.73,0.239 1.051,0.026c2.777,-1.887 5.272,-2.995 7.534,-3.394c1.927,-0.34 3.674,-0.167 5.262,0.478c0.258,0.109 0.556,0.062 0.769,-0.121c0.213,-0.183 0.304,-0.47 0.236,-0.742c-0.827,-3.104 -1.361,-6.363 -1.585,-9.789c-0.208,-3.176 -0.151,-6.493 0.191,-9.964c0.019,-0.165 -0.055,-0.327 -0.192,-0.42c-0.138,-0.094 -0.315,-0.104 -0.462,-0.027c-2.095,1.146 -4.341,2 -6.785,2.476c-2.242,0.438 -4.649,0.56 -7.257,0.297Zm0.405,0.495c2.484,0.289 4.798,0.226 6.971,-0.128c2.251,-0.367 4.35,-1.05 6.329,-1.979c-0.376,3.225 -0.505,6.326 -0.397,9.311c0.11,3.038 0.467,5.955 1.05,8.759c-1.475,-0.42 -3.07,-0.516 -4.799,-0.255c-1.928,0.291 -4.028,1.039 -6.317,2.296c0.613,-2.728 0.847,-5.535 0.558,-8.431c-0.071,-0.705 -0.172,-1.417 -0.321,-2.129c-0.145,-0.692 -0.326,-1.383 -0.55,-2.077c-0.322,-0.992 -0.705,-1.982 -1.186,-2.974c-0.392,-0.808 -0.842,-1.592 -1.338,-2.393l0,0Z"/><g><path d="M75.405,131.767c3.427,-1.395 9.252,-5.842 11.766,-10.435c1.909,-3.487 1.946,-7.049 -2.138,-9.527c-3.112,-1.887 -5.94,-1.534 -8.462,-0.882c-1.99,0.514 -3.771,1.24 -5.337,1.037c-0.93,-0.121 -1.767,-0.604 -2.525,-1.697c-0.736,-1.064 -1.476,-3.553 -2.322,-6.838c-1.996,-7.743 -4.483,-19.82 -8.33,-28.529c-1.501,-3.4 -3.216,-6.29 -5.173,-8.249c-1.82,-1.822 -3.859,-2.851 -6.126,-2.834c-2.359,0.019 -3.994,1.431 -5.006,3.922c-1.276,3.146 -1.53,8.14 -1.134,13.957c1.12,16.487 7.334,39.725 8.134,45.11c0.357,2.265 1.72,3.964 3.757,5.136c1.579,0.909 3.568,1.507 5.737,1.826c2.79,0.409 5.879,0.386 8.739,0.067c3.467,-0.388 6.578,-1.202 8.42,-2.064Zm-0.169,-0.407c-1.86,0.673 -4.949,1.136 -8.34,1.258c-2.756,0.099 -5.705,-0.043 -8.357,-0.564c-1.912,-0.375 -3.659,-0.947 -5.043,-1.786c-1.476,-0.895 -2.523,-2.1 -2.768,-3.766c-0.835,-5.366 -7.179,-28.498 -8.429,-44.931c-0.42,-5.517 -0.285,-10.261 0.898,-13.257c0.726,-1.837 1.848,-2.97 3.58,-3c1.885,-0.034 3.567,0.853 5.097,2.353c1.872,1.836 3.506,4.57 4.962,7.775c5.643,12.421 8.577,31.794 11.106,35.359c0.958,1.35 2.023,1.914 3.182,2.051c1.664,0.197 3.554,-0.552 5.661,-1.121c2.334,-0.63 4.958,-1.009 7.866,0.712c3.712,2.195 3.658,5.425 1.971,8.592c-2.406,4.517 -8.052,8.922 -11.386,10.325Z"/><path d="M126.805,108.87c0.99,-1.306 3.633,-5.014 3.884,-7.731c0.145,-1.565 -0.439,-2.827 -2.336,-3.293c-4.088,-1.003 -5.553,0.361 -5.819,2.326c-0.353,2.613 1.703,6.732 2.684,8.514c-1.497,0.169 -4.715,0.498 -9.314,0.792c-2.912,0.186 -6.376,0.361 -10.307,0.468c-3.329,0.102 -7.668,1.232 -11.644,2.617c-0.756,0.264 -1.501,0.533 -2.216,0.821c-0.755,0.304 -1.481,0.619 -2.165,0.939c-1.189,0.557 -2.254,1.104 -3.156,1.603c-1.899,1.052 -3.039,1.831 -3.039,1.831c-0.11,0.053 -0.156,0.185 -0.103,0.294c0.053,0.11 0.185,0.156 0.295,0.103c-0,-0 1.209,-0.376 3.127,-0.999c0.943,-0.306 2.042,-0.671 3.256,-1.075c0.449,-0.15 0.91,-0.31 1.383,-0.476c0.743,-0.261 1.512,-0.53 2.296,-0.807c1.747,-0.616 3.572,-1.254 5.37,-1.768c2.382,-0.68 4.703,-1.187 6.666,-1.283c3.951,-0.2 7.431,-0.454 10.356,-0.714c6.564,-0.584 10.328,-1.183 10.328,-1.183c0.216,-0.032 0.402,-0.17 0.493,-0.369c0.091,-0.197 0.076,-0.427 -0.039,-0.61Zm-0.265,-0.416c0.836,-1.178 2.589,-3.83 3.22,-6.152c0.463,-1.704 0.313,-3.237 -1.593,-3.648c-3.222,-0.693 -4.461,0.096 -4.625,1.639c-0.281,2.642 2.175,6.841 2.998,8.161Z"/><path d="M126.387,115.628c1.092,-1.285 4.131,-5.087 4.368,-7.836c0.131,-1.525 -0.512,-2.766 -2.597,-3.224c-4.27,-0.936 -5.952,0.252 -6.368,2.002c-0.282,1.186 0.042,2.731 0.615,4.249c0.683,1.806 1.709,3.573 2.345,4.591c-1.652,0.166 -5.287,0.498 -10.509,0.793c-3.264,0.185 -7.147,0.358 -11.553,0.463c-3.697,0.1 -8.506,1.219 -12.927,2.585c-0.848,0.262 -1.683,0.528 -2.486,0.814c-0.85,0.303 -1.666,0.618 -2.439,0.939c-1.342,0.559 -2.549,1.109 -3.573,1.612c-2.155,1.061 -3.463,1.852 -3.463,1.852c-0.112,0.048 -0.163,0.178 -0.115,0.29c0.048,0.112 0.178,0.164 0.29,0.115c-0,0 1.353,-0.373 3.501,-0.994c1.055,-0.306 2.287,-0.671 3.647,-1.077c0.504,-0.151 1.022,-0.313 1.552,-0.48c0.833,-0.263 1.696,-0.537 2.577,-0.816c1.96,-0.62 4.011,-1.256 6.03,-1.769c2.669,-0.68 5.268,-1.183 7.468,-1.28c4.424,-0.202 8.321,-0.457 11.596,-0.719c7.351,-0.587 11.569,-1.188 11.569,-1.188c0.219,-0.029 0.407,-0.17 0.495,-0.372c0.078,-0.178 0.068,-0.381 -0.023,-0.55Zm-0.27,-0.389c0.915,-1.139 2.971,-3.871 3.695,-6.251c0.517,-1.699 0.314,-3.216 -1.817,-3.625c-3.492,-0.669 -4.938,-0.008 -5.238,1.423c-0.216,1.026 0.142,2.34 0.67,3.632c0.842,2.062 2.162,4.059 2.69,4.821Z"/><path d="M48.006,42.569c-6.411,1.6 -9.31,8.363 -7.944,13.71c1.233,4.825 5.885,8.58 14.583,6.571c9.617,-2.245 11.926,-8.841 9.838,-14.103c-0.969,-2.443 -2.904,-4.667 -5.597,-6.02c-1.019,-0.511 -2.146,-0.91 -3.364,-1.113c-1.215,-0.203 -2.513,-0.243 -3.871,-0.053c-1.188,0.166 -2.389,0.509 -3.645,1.008l-0,-0Zm0.113,0.426c1.271,-0.181 2.452,-0.183 3.59,-0.125c1.226,0.063 2.358,0.257 3.423,0.542c1.026,0.274 1.974,0.639 2.842,1.093c2.232,1.169 3.91,2.929 4.759,4.956c1.864,4.449 -0.288,9.873 -8.435,11.982c-7.759,2.029 -12.074,-1.116 -13.31,-5.416c-1.428,-4.972 1.169,-11.349 7.131,-13.032l0,0Z"/><path d="M49.646,76.279c-0.022,0.612 -0.007,1.21 0.089,1.862c0.09,0.608 0.253,1.204 0.465,1.815c0.135,0.391 0.301,0.772 0.493,1.149c0.186,0.369 0.406,0.725 0.64,1.074c0.803,1.194 1.812,2.29 2.954,3.224c2.584,2.115 5.903,3.383 9.627,2.764c4.496,-0.749 9.659,-4.304 14.771,-12.764c0.066,-0.103 0.036,-0.239 -0.067,-0.305c-0.102,-0.066 -0.239,-0.036 -0.304,0.067c-5.296,7.794 -10.293,11.025 -14.609,11.53c-2.279,0.267 -4.338,-0.265 -6.118,-1.259c-1.884,-1.053 -3.414,-2.655 -4.602,-4.382c-0.211,-0.306 -0.412,-0.615 -0.612,-0.92c-0.207,-0.315 -0.412,-0.621 -0.609,-0.932c-0.314,-0.494 -0.605,-0.966 -0.876,-1.452c-0.301,-0.541 -0.586,-1.021 -0.809,-1.551c-0.022,-0.12 -0.137,-0.199 -0.256,-0.177c-0.12,0.022 -0.199,0.137 -0.177,0.257Z"/><path d="M76.214,74.124c-0.039,0.05 -0.054,0.114 -0.042,0.176c0.012,0.062 0.05,0.116 0.104,0.148c0,0 0.55,0.604 1.278,1.274c0.331,0.305 0.679,0.602 1.013,0.863c0.584,0.454 1.074,0.761 1.074,0.761c0.436,0.259 0.998,0.148 1.302,-0.259c-0,0 0.923,-1.232 2.071,-2.822c2.012,-2.79 4.728,-6.665 4.728,-6.665c0.233,-0.311 0.191,-0.747 -0.095,-1.009l-3.214,-2.761c-0.13,-0.118 -0.303,-0.177 -0.479,-0.161c-0.175,0.015 -0.335,0.104 -0.442,0.244l-7.298,10.211Zm0.557,0.015l7.293,-8.92c-0,0 2.059,1.995 2.059,1.995c-0.885,1.112 -3.017,3.8 -4.646,5.901c-0.662,0.853 -1.238,1.61 -1.623,2.119c-0.118,-0.056 -0.246,-0.114 -0.381,-0.173c-0.389,-0.17 -0.815,-0.334 -1.242,-0.479c-0.604,-0.206 -1.149,-0.36 -1.459,-0.443l-0.001,-0Z"/></g><g><path d="M167.505,140.52l26.15,-0.058c-0,-0 -1.095,-70.173 -13.36,-69.544c-12.264,0.628 -13.626,57.395 -12.79,69.602Z" style="fill:#fff;"/><path d="M167.285,140.535c0.008,0.116 0.104,0.206 0.221,0.206c-0,-0 3.444,0.201 7.845,0.375c2.467,0.097 5.227,0.18 7.846,0.243c1.872,0.044 3.669,0.072 5.23,0.087c3.074,0.03 5.23,0.014 5.23,0.014c0.267,-0 0.523,-0.108 0.71,-0.299c0.188,-0.19 0.291,-0.448 0.286,-0.715c0,-0 -0.584,-30.376 -4.496,-51.018c-1.416,-7.474 -3.294,-13.681 -5.686,-16.798c-1.256,-1.637 -2.673,-2.468 -4.21,-2.381c-2.081,0.119 -3.921,1.642 -5.451,4.296c-1.954,3.392 -3.465,8.662 -4.601,14.816c-3.31,17.944 -3.501,43.457 -2.924,51.174Zm0.427,-0.248c-0.456,-7.947 0.073,-33.054 3.557,-50.723c1.179,-5.98 2.691,-11.101 4.633,-14.381c1.282,-2.167 2.716,-3.519 4.428,-3.597c1.62,-0.073 2.926,1.347 4.122,3.649c1.728,3.326 3.075,8.491 4.151,14.48c3.293,18.332 3.936,44.329 4.037,49.749c-0.921,0.002 -2.411,0.011 -4.217,0.037c-1.561,0.022 -3.358,0.057 -5.23,0.11c-2.619,0.074 -5.378,0.17 -7.844,0.278c-3.766,0.166 -6.831,0.348 -7.637,0.398l0,-0Z"/><path d="M177.255,43.573c-7.377,0.244 -12.408,6.67 -12.676,12.692c-0.254,5.704 3.67,11.124 13.853,10.871c10.813,-0.29 16.201,-6.813 16.027,-12.91c-0.089,-3.13 -1.603,-6.232 -4.661,-8.39c-1.052,-0.742 -2.286,-1.385 -3.713,-1.83c-1.322,-0.412 -2.8,-0.679 -4.434,-0.737c-1.369,-0.047 -2.821,0.069 -4.396,0.304l-0,-0Zm0.02,0.44c1.538,0.086 2.923,0.31 4.222,0.57c1.475,0.297 2.784,0.695 3.966,1.169c1.208,0.486 2.266,1.051 3.174,1.708c2.493,1.804 3.824,4.264 3.941,6.835c0.245,5.395 -4.634,10.956 -14.199,11.415c-9.205,0.46 -12.949,-4.25 -12.853,-9.415c0.107,-5.71 4.769,-11.865 11.749,-12.282l0,0Z"/><path d="M174.952,171.459c-2.729,-3.542 -7.312,-6.743 -11.389,-8.018c-4.382,-1.37 -8.16,-0.516 -8.883,4.036c-0.482,3.041 1.387,4.875 4.291,5.905c6.109,2.169 17.008,0.618 17.008,0.618c0.416,-0.065 0.721,-0.428 0.711,-0.849c0,-0 -0.088,-7.929 -0.222,-15.964c-0.028,-1.614 -0.049,-3.231 -0.094,-4.789c-0.021,-0.698 -0.046,-1.384 -0.08,-2.052c-0.043,-0.811 -0.095,-1.594 -0.153,-2.343c-0.101,-1.3 -0.207,-2.484 -0.319,-3.512c-0.261,-2.399 -0.496,-3.9 -0.496,-3.9c-0.003,-0.121 -0.104,-0.218 -0.225,-0.215c-0.122,0.003 -0.219,0.104 -0.216,0.225c0,0 -0.166,1.51 -0.317,3.919c-0.065,1.032 -0.116,2.219 -0.158,3.523c-0.024,0.75 -0.04,1.535 -0.046,2.348c-0.004,0.668 0.003,1.354 0.014,2.052c0.026,1.559 0.079,3.176 0.125,4.788c0.167,5.758 0.356,11.46 0.449,14.228Zm0.028,0.833c-2.677,-3.582 -7.466,-6.838 -11.661,-8.032c-3.735,-1.063 -7.015,-0.485 -7.528,3.379c-0.421,3.148 2.375,4.465 5.835,5.047c4.903,0.826 11.23,0.067 13.36,-0.235l-0.006,-0.159Z"/><path d="M186.616,171.603c-2.729,-3.542 -7.313,-6.744 -11.389,-8.018c-4.383,-1.371 -8.16,-0.516 -8.883,4.035c-0.482,3.042 1.387,4.876 4.29,5.906c6.11,2.168 17.009,0.618 17.009,0.618c0.416,-0.065 0.72,-0.428 0.711,-0.85c-0,0 -0.088,-7.929 -0.223,-15.964c-0.027,-1.613 -0.048,-3.231 -0.094,-4.789c-0.02,-0.697 -0.045,-1.383 -0.079,-2.051c-0.043,-0.811 -0.095,-1.595 -0.153,-2.343c-0.102,-1.301 -0.207,-2.484 -0.319,-3.513c-0.262,-2.398 -0.496,-3.899 -0.496,-3.899c-0.003,-0.122 -0.104,-0.218 -0.226,-0.216c-0.121,0.003 -0.218,0.104 -0.215,0.226c-0,0 -0.166,1.51 -0.317,3.918c-0.065,1.033 -0.116,2.22 -0.158,3.524c-0.024,0.75 -0.041,1.535 -0.046,2.347c-0.004,0.669 0.003,1.355 0.014,2.053c0.026,1.558 0.079,3.175 0.125,4.788c0.167,5.757 0.355,11.459 0.449,14.228Zm0.028,0.833c-2.677,-3.582 -7.466,-6.838 -11.662,-8.032c-3.735,-1.063 -7.014,-0.485 -7.528,3.378c-0.42,3.148 2.375,4.465 5.836,5.048c4.903,0.826 11.23,0.067 13.359,-0.235l-0.005,-0.159Z"/><path d="M180.105,85.779c0,0 -0.955,-0.334 -2.595,-0.775c-0.748,-0.202 -1.623,-0.415 -2.615,-0.628c-0.554,-0.119 -1.14,-0.231 -1.755,-0.335c-0.567,-0.096 -1.158,-0.177 -1.765,-0.26c-3.246,-0.447 -6.957,-0.899 -10.326,-1.321c-4.785,-0.6 -8.886,-1.094 -10.022,-1.23c-0,-0 -14.585,-21.673 -14.585,-21.673c-0.066,-0.102 -0.203,-0.131 -0.305,-0.065c-0.102,0.066 -0.132,0.203 -0.065,0.305l13.945,22.491c0.113,0.174 0.296,0.291 0.502,0.32c-0,-0 4.667,0.741 10.287,1.6c3.357,0.514 7.049,1.092 10.294,1.548c0.607,0.085 1.198,0.169 1.769,0.231c0.62,0.068 1.215,0.121 1.78,0.157c1.012,0.066 1.913,0.1 2.687,0.11c1.698,0.023 2.708,-0.038 2.708,-0.038c0.121,0.017 0.232,-0.067 0.249,-0.188c0.017,-0.121 -0.067,-0.232 -0.188,-0.249Z"/><path d="M121.709,58.027c-0,-0 0.576,0.186 1.692,0.39c0.48,0.088 1.035,0.17 1.689,0.23c0.419,0.038 0.868,0.057 1.349,0.061c0.628,0.006 1.305,-0.029 2.02,-0.054c3.118,-0.11 6.966,-0.293 10.77,-0.474c8.188,-0.389 16.153,-0.825 16.153,-0.825c0.122,-0.003 0.219,-0.103 0.216,-0.225c-0.002,-0.122 -0.103,-0.219 -0.225,-0.216c0,-0 -7.976,-0.118 -16.173,-0.181c-3.808,-0.029 -7.66,-0.058 -10.78,-0.043c-0.716,0.003 -1.393,-0.005 -2.021,0.026c-0.48,0.024 -0.928,0.061 -1.345,0.115c-0.652,0.086 -1.202,0.19 -1.679,0.297c-1.107,0.249 -1.675,0.458 -1.675,0.458c-0.122,0.002 -0.218,0.103 -0.216,0.225c0.002,0.121 0.103,0.218 0.225,0.216Z"/><path d="M147.274,53.031c0,-0.543 -0.441,-0.984 -0.984,-0.984l-14.785,-0c-0.543,-0 -0.984,0.441 -0.984,0.984l0,1.968c0,0.543 0.441,0.983 0.984,0.983l14.785,0c0.543,0 0.984,-0.44 0.984,-0.983l0,-1.968Z" style="fill:#fff;"/><path d="M147.495,53.031c0.078,-0.36 -0.049,-0.683 -0.234,-0.971c-0.208,-0.324 -0.565,-0.482 -0.971,-0.57c0,0 -0.861,-0.181 -2.218,-0.334c-0.342,-0.039 -0.712,-0.065 -1.108,-0.084c-0.354,-0.017 -0.725,-0.023 -1.109,-0.024c-4.357,-0.01 -10.35,0.176 -10.35,0.176c-0.496,0.011 -0.947,0.209 -1.265,0.542c-0.315,0.329 -0.518,0.773 -0.507,1.265c-0,-0 0.045,1.968 0.045,1.968c0.012,0.474 0.201,0.904 0.519,1.207c0.315,0.3 0.739,0.493 1.208,0.481c-0,0 14.785,-0.386 14.785,-0.386c0.357,-0.01 0.679,-0.156 0.906,-0.397c0.223,-0.236 0.363,-0.555 0.354,-0.905c-0,-0 -0.055,-1.968 -0.055,-1.968Zm-0.441,-0l-0.055,1.968c-0.006,0.192 -0.093,0.362 -0.223,0.485c-0.126,0.119 -0.299,0.185 -0.486,0.18c0,-0 -14.785,-0.387 -14.785,-0.387c-0.075,-0.001 -0.136,-0.045 -0.184,-0.095c-0.044,-0.046 -0.058,-0.114 -0.057,-0.183c0,-0 0.045,-1.968 0.045,-1.968c0.002,-0.052 0.035,-0.093 0.07,-0.126c0.032,-0.03 0.079,-0.036 0.126,-0.035c-0,0 5.993,0.186 10.35,0.176c0.384,-0.001 0.755,-0.007 1.109,-0.024c0.396,-0.019 0.766,-0.045 1.109,-0.084c1.356,-0.153 2.217,-0.334 2.217,-0.334c0.152,-0.033 0.3,-0.071 0.421,0.006c0.156,0.101 0.3,0.225 0.343,0.421Z"/><path d="M149.296,49.257c0,-0.423 -0.344,-0.767 -0.767,-0.767l-18.858,-0c-0.423,-0 -0.767,0.344 -0.767,0.767l0,1.534c0,0.423 0.344,0.767 0.767,0.767l18.858,0c0.423,0 0.767,-0.344 0.767,-0.767l0,-1.534Z" style="fill:#fff;"/><path d="M148.529,48.054c-0.032,-0.015 -0.07,-0.026 -0.113,-0.034c-0.172,-0.032 -0.513,-0.106 -1.018,-0.182c-0.458,-0.068 -1.027,-0.141 -1.698,-0.208c-0.437,-0.043 -0.908,-0.085 -1.414,-0.11c-0.45,-0.022 -0.924,-0.028 -1.414,-0.029c-5.556,-0.016 -13.201,0.201 -13.201,0.201c-0.43,0.009 -0.821,0.179 -1.098,0.467c-0.274,0.285 -0.451,0.671 -0.443,1.098c0,-0 0.031,1.534 0.031,1.534c0.009,0.415 0.174,0.792 0.452,1.059c0.275,0.264 0.647,0.434 1.058,0.425c0,0 18.858,-0.43 18.858,-0.43c0.289,-0.007 0.55,-0.125 0.735,-0.319c0.182,-0.191 0.297,-0.45 0.29,-0.735c0,0 -0.037,-1.534 -0.037,-1.534c0.055,-0.291 -0.054,-0.552 -0.209,-0.779c-0.171,-0.252 -0.457,-0.376 -0.779,-0.437l0,0.013Zm-18.851,1.234c0.25,0.007 7.731,0.216 13.194,0.201c0.49,-0.002 0.964,-0.007 1.414,-0.03c0.506,-0.025 0.977,-0.066 1.414,-0.11c0.671,-0.067 1.24,-0.139 1.698,-0.208c0.727,-0.109 1.131,-0.202 1.131,-0.202c0.11,-0.021 0.219,-0.046 0.305,0.013c0.11,0.074 0.215,0.165 0.242,0.305l-0.038,1.534c-0.003,0.139 -0.066,0.261 -0.159,0.35c-0.091,0.086 -0.215,0.133 -0.35,0.13c0,-0 -18.858,-0.43 -18.858,-0.43l-0.024,-0.05l0.031,-1.503Z"/><path d="M146.682,45.316c-0,-0.435 -0.353,-0.787 -0.788,-0.787l-13.402,-0c-0.435,-0 -0.788,0.352 -0.788,0.787l0,1.574c0,0.435 0.353,0.788 0.788,0.788l13.402,-0c0.435,-0 0.788,-0.353 0.788,-0.788l-0,-1.574Z" style="fill:#fff;"/><path d="M145.894,44.004c-0.012,-0.004 -0.026,-0.008 -0.04,-0.012c-0.061,-0.015 -0.176,-0.051 -0.362,-0.089c-0.352,-0.072 -0.899,-0.171 -1.608,-0.26c-0.31,-0.038 -0.645,-0.068 -1.005,-0.088c-0.32,-0.018 -0.657,-0.024 -1.005,-0.025c-3.95,-0.012 -9.382,0.183 -9.382,0.183c-0.441,0.011 -0.841,0.184 -1.123,0.481c-0.278,0.293 -0.46,0.686 -0.449,1.122c0,-0 0.041,1.574 0.041,1.574c0.012,0.42 0.178,0.802 0.461,1.07c0.28,0.265 0.654,0.438 1.07,0.426c-0,-0 13.402,-0.399 13.402,-0.399c0.3,-0.009 0.571,-0.132 0.762,-0.335c0.187,-0.199 0.306,-0.467 0.296,-0.762c0,0 -0.05,-1.574 -0.05,-1.574c0.075,-0.304 -0.037,-0.573 -0.187,-0.821c-0.17,-0.282 -0.475,-0.408 -0.821,-0.493l0,0.002Zm0.567,1.312l-0.05,1.574c-0.004,0.14 -0.071,0.263 -0.165,0.352c-0.091,0.085 -0.217,0.13 -0.352,0.126c0,-0 -13.402,-0.399 -13.402,-0.399c-0,0 -0.044,-0.079 -0.044,-0.079c-0,0 0.041,-1.574 0.041,-1.574l0.003,0.029c-0,-0 5.432,0.194 9.382,0.183c0.348,-0.001 0.685,-0.008 1.005,-0.026c0.36,-0.02 0.695,-0.049 1.005,-0.088c0.709,-0.088 1.256,-0.188 1.608,-0.26c0.269,-0.054 0.402,-0.099 0.402,-0.099c0.106,-0.026 0.206,-0.083 0.292,-0.031c0.119,0.071 0.239,0.147 0.275,0.292Z"/></g></svg>