<svg clip-rule="evenodd" fill-rule="evenodd" stroke-miterlimit="10" viewBox="0 0 417 457" xmlns="http://www.w3.org/2000/svg"><path d="m305.03 396.87h-215.09l-3-382.34 218.09 1z" fill="#015478" fill-rule="nonzero"/><path d="m299.45 15.56-70.06 49.21-6.2 300.18 69.61 28.82z" fill="#fff" fill-rule="nonzero" stroke="#bdccd4" stroke-width="3"/><path d="m235.94 202.67c1.77-2.66 6.98-6.65 9.64-.44v30.59s1.33 6.21-3.55 6.21-6.32-.44-6.76-6.21z" fill="#caa674" fill-rule="nonzero"/><path d="m238.48 209.32c2.66-1.77 25.72-1.33 25.72-1.33s9.31 2.66 5.32 4.88-29.26 3.99-30.59 2.22-.45-5.77-.45-5.77z" fill="#898989" fill-rule="nonzero"/><ellipse cx="240.26" cy="225.28" fill="#898989" rx="3.01" ry="3.35"/><g fill-rule="nonzero"><path d="m84.63 5.63 230.69-.45 1.33 3.55-7.94 391.41h-14.68l7.53-380.09-204.17 1.43-5.26 378.4-16.48.28 6.32-390.99 2.66-3.54z" fill="#898989"/><path d="m416.47 385.49h-107.52l-.24 14.57 107.76.36z" fill="#caa674"/><path d="m75.77 385.49h-75.16v14.93l75.16-.36z" fill="#caa674"/><path d="m168.11 421.92s1.77 6.65 0 8.42-28.82 10.64-28.82 10.64l-1.77-10.64 18.62-10.2z" fill="#fff" stroke="#bdccd4" stroke-width="3"/><path d="m199.49 421.04s-1.77 6.65 0 8.42 28.82 10.64 28.82 10.64l1.77-10.64-18.62-10.2z" fill="#fff" stroke="#bdccd4" stroke-width="3"/><path d="m174.76 434.78-52.32 15.52s-8.87-15.96 13.74-23.94c13.75-4.85 14.19 12.41 14.19 12.41s23.5-8.87 25.27-6.65-.88 2.66-.88 2.66z" fill="#015478"/><path d="m194.94 434.34 52.32 15.52s8.87-15.96-13.74-23.94c-13.75-4.85-14.19 12.41-14.19 12.41s-23.5-8.87-25.27-6.65.88 2.66.88 2.66z" fill="#015478"/><path d="m225.52 287.58c-.5 18.47 1.93 123.48-8.42 131.95-4.96 4.06-9.45 3.67-9.45 3.67-3.32-.42-5.57-2.98-8.11-4.6-4.39-2.8-15.81-115.31-13.17-117.65 2.63-2.33-12.73 120.92-14.49 121.85s-17.12-1.4-18.88-2.33-10.1-138.19 7.46-168.54c0 0 1.32-.47 4.83-1.87 9.49-3.78 28.67-10.12 45.22-2.8 11.07 4.89 13.68 25.68 15.01 40.32z" fill="#898989"/><path d="m210.23 73.75c-10.24-4.45-50.55 2.67-35.25 37.92l18.84-8.32 10.64 14.63-3.55 26.6s-4.88 6.65-.44 15.52c4.43 8.87 25.72 20.4 33.7 3.77 11.47-23.89-4.54-35.36-8.08-37.58-3.55-2.21 14.73-39.24-15.86-52.54z"/><path d="m118.05 154.7 4.33 29.26 20-.12 2.34-28.7z" fill="#caa674"/><path d="m120.21 145.26 21.93-.75 5.02 12.45-31.16.8z" fill="#fff" stroke="#808080" stroke-width="2"/><path d="m119.78 162.98 24.5-.88-1 15.07-22.61-.44z" fill="#693f11"/><path d="m174.98 108.67s-3.33 34.24 5.32 36.24 25.49-1.21 32.81-16.51c0 0 7.32.67 7.76-6.34.14-2.13-2.33-3.69-5.32-6.74-.61-.03-1.2-.1-1.77-.22-12.19-2.5-16.99-24.16-18.18-30.15-5.76 4.14-11.53 8.28-17.29 12.41z" fill="#f9d4bb"/></g><ellipse cx="180.18" cy="114.11" rx="2.33" ry="5.32"/><ellipse cx="196.26" cy="114.41" rx="2.33" ry="5.32"/><path d="m178.75 121.75s-8.66-.23-8.98 2.44c-.77 6.42 7.21 5.65 7.21 5.65z" fill="#f9d4bb" fill-rule="nonzero"/><path d="m203.58 163.43c8.87 1.77 25.27 9.31 27.05 11.53s29.71 41.68 16.85 58.53l-17.89-5.59s-6.72-18.35-12.04-20.57 2.01 43.01 2.01 43.01l-57.21 1.33.44-31.48s-3.68 26.73-11.85 30.28c-9.17 3.98-15.19-13.44-15.19-13.44l4.66-11.31s9.31-47.22 18.62-55.2c3.84-3.29 24.61-10.2 24.61-10.2z" fill="#af436e" fill-rule="nonzero"/><path d="m125.54 210.1 12.86 29.59 13.97-8.65-23.72-34.36z" fill="#f9d4bb" fill-rule="nonzero"/><path d="m169.29 236.27c-4 1.41-5.91 8.63-6.1 11.03s24.48 24.32 27.27 24.48 8.19-8.89 8.03-10.3c-.15-1.41-27.41-25.84-29.2-25.21z" fill="#015478" fill-rule="nonzero"/><path d="m169.72 239.64-2.55 7.78 24.1 22.23 4.77-7.79z" fill="#fff" fill-rule="nonzero"/><path d="m247.47 233.48-38.13 31.92s-3.65 4.99-9.75 7.54c-3.57 1.49-9.55.81-11.97 1.33-6.21 1.33-11.31-11.31-11.31-11.31s14.63-2 17.29-2-1.49-6.46-2.88-7.54c-.36-.28-5.01-4.37-5.01-4.37 1.88-1.88 14.32 3.04 15.65 3.93s5.32 2.22 5.32 2.22l23.94-28.82z" fill="#f9d4bb" fill-rule="nonzero"/><path d="m204.91 138.15s-6.21 19.51-1.33 25.27-20.4 25.27-20.4 25.27l-5.32-22.61 5.32-5.76s1.77-13.75.89-16.85" fill="#f9d4bb" fill-rule="nonzero"/><path d="m125.54 210.1-11.97-30.04 2-13.75s7.09-7.54 8.87-7.54-3.55 6.87-4.43 7.54c-.89.67-1.55 2.22-1.55 2.22s6.43-5.32 8.42-4.66-7.09 9.31-7.09 9.31 6.65-5.1 7.54-4.21-3.43 5.32-5.65 7.76c0 0 .77 7.76.72 7.23l2.49-.14 4.43 14.85 2.22 11.75z" fill="#f9d4bb" fill-rule="nonzero"/><path d="m126.05 106.63c-1.43-.32 4.59 5.39 4.37 8.91-.48 7.72-12.62 3.73-11.92 10.72.45 4.52 6.28 9.51 10.06 10.96 3.78 1.44 3.53 1.39 3.53 1.39s-8.79-6.98-6.03-10.89c3.55-5.05 10.3-2.06 12.27-7.28 2.15-5.65-1.59-11.41-12.28-13.81z" fill="#fff" fill-rule="nonzero" stroke="#bdccd4" stroke-width="3"/></svg>