<?xml version="1.0" encoding="UTF-8" standalone="no"?><!DOCTYPE svg PUBLIC "-//W3C//DTD SVG 1.1//EN" "http://www.w3.org/Graphics/SVG/1.1/DTD/svg11.dtd"><svg width="100%" height="100%" viewBox="0 0 319 357" version="1.1" xmlns="http://www.w3.org/2000/svg" xmlns:xlink="http://www.w3.org/1999/xlink" xml:space="preserve" xmlns:serif="http://www.serif.com/" style="fill-rule:evenodd;clip-rule:evenodd;stroke-miterlimit:10;"><rect id="delivery" x="0" y="0" width="318.25" height="355.73" style="fill:none;"/><clipPath id="_clip1"><rect x="0" y="0" width="318.25" height="355.73"/></clipPath><g clip-path="url(#_clip1)"><g id="delivery1" serif:id="delivery"><path d="M99.945,330.42c-26.44,0.91 -38.09,19.71 -25.53,20.97c12.56,1.26 110.12,0.77 114.87,-0.91c4.75,-1.68 -24.08,-22.79 -29.17,-22.79c-5.1,-0.01 -60.17,2.73 -60.17,2.73Z" style="fill:#cec8c4;fill-rule:nonzero;"/><g><path d="M233.595,307.26l-164.61,0l-2.29,-292.6l166.9,0.76l0,291.84Z" style="fill:#015478;fill-rule:nonzero;"/><g><path d="M229.325,15.44l-53.61,37.67l-4.75,229.71l53.27,22.06l5.09,-289.44Z" style="fill:#fff;fill-rule:nonzero;stroke:#bdccd4;stroke-width:3px;"/><g><path d="M180.715,158.63c1.36,-2.04 5.34,-5.09 7.38,-0.34l0,23.41c0,-0 1.02,4.75 -2.71,4.75c-3.73,-0 -4.84,-0.34 -5.18,-4.75l0.51,-23.07Z" style="fill:#caa674;fill-rule:nonzero;"/><path d="M182.665,163.72c2.04,-1.36 19.68,-1.02 19.68,-1.02c0,0 7.13,2.04 4.07,3.73c-3.06,1.69 -22.4,3.05 -23.41,1.7c-1.02,-1.35 -0.34,-4.41 -0.34,-4.41Z" style="fill:#898989;fill-rule:nonzero;"/><ellipse cx="184.025" cy="175.94" rx="2.3" ry="2.56" style="fill:#898989;"/></g></g><path d="M64.925,7.84l176.54,-0.34l1.02,2.72l-6.08,299.54l-11.23,-0l5.77,-290.88l-156.26,1.1l-4.02,289.58l-12.62,0.21l4.85,-299.21l2.03,-2.72Z" style="fill:#898989;fill-rule:nonzero;"/><path d="M318.875,298.55l-82.28,0l-0.19,11.14l82.47,0.28l0,-11.42Z" style="fill:#caa674;fill-rule:nonzero;"/><path d="M58.145,298.55l-57.52,0l0,11.42l57.52,-0.28l0,-11.14Z" style="fill:#caa674;fill-rule:nonzero;"/></g><path d="M128.805,326.43c0,0 1.36,5.09 0,6.45c-1.36,1.36 -22.06,8.14 -22.06,8.14l-1.36,-8.14l14.25,-7.8l9.17,1.35Z" style="fill:#fff;fill-rule:nonzero;stroke:#bdccd4;stroke-width:3px;"/><path d="M152.825,325.75c0,0 -1.36,5.09 0,6.45c1.36,1.36 22.06,8.14 22.06,8.14l1.36,-8.14l-14.25,-7.8l-9.17,1.35Z" style="fill:#fff;fill-rule:nonzero;stroke:#bdccd4;stroke-width:3px;"/><path d="M133.895,336.27l-40.04,11.88c0,0 -6.79,-12.22 10.52,-18.32c10.53,-3.71 10.86,9.5 10.86,9.5c0,0 17.98,-6.79 19.34,-5.09c1.36,1.69 -0.68,2.03 -0.68,2.03Z" style="fill:#015478;fill-rule:nonzero;"/><path d="M149.345,335.93l40.04,11.88c0,0 6.79,-12.22 -10.52,-18.32c-10.53,-3.71 -10.86,9.5 -10.86,9.5c0,0 -17.98,-6.79 -19.34,-5.09c-1.36,1.69 0.68,2.03 0.68,2.03Z" style="fill:#015478;fill-rule:nonzero;"/><path d="M172.745,223.61c-0.38,14.14 1.47,94.5 -6.45,100.98c-3.79,3.11 -7.23,2.81 -7.23,2.81c-2.54,-0.32 -4.26,-2.28 -6.21,-3.52c-3.36,-2.14 -12.1,-88.25 -10.08,-90.03c2.02,-1.79 -9.74,92.53 -11.09,93.25c-1.34,0.71 -13.1,-1.07 -14.45,-1.79c-1.34,-0.71 -7.73,-105.75 5.71,-128.98c0,0 1.01,-0.36 3.7,-1.43c7.26,-2.9 21.94,-7.74 34.61,-2.14c8.47,3.74 10.47,19.66 11.49,30.85Z" style="fill:#898989;fill-rule:nonzero;"/><path d="M161.045,59.98c-7.84,-3.41 -38.68,2.04 -26.98,29.02l14.42,-6.36l8.14,11.2l-2.71,20.36c0,0 -3.73,5.09 -0.34,11.88c3.39,6.79 19.68,15.61 25.79,2.88c8.78,-18.29 -3.47,-27.06 -6.19,-28.76c-2.71,-1.71 11.28,-30.04 -12.13,-40.22Z" style="fill-rule:nonzero;"/><path d="M96.625,85.14c-1.09,-0.25 3.51,4.12 3.34,6.82c-0.37,5.91 -9.65,2.85 -9.12,8.2c0.35,3.46 4.81,7.28 7.7,8.38c2.89,1.1 2.7,1.07 2.7,1.07c0,0 -6.72,-5.34 -4.62,-8.34c2.72,-3.87 7.88,-1.58 9.39,-5.57c1.65,-4.32 -1.21,-8.73 -9.39,-10.56Z" style="fill:#fff;fill-rule:nonzero;stroke:#bdccd4;stroke-width:2px;"/><g><path d="M90.495,121.92l3.32,22.4l15.31,-0.09l1.79,-21.96l-20.42,-0.35Z" style="fill:#caa674;fill-rule:nonzero;"/><path d="M92.155,114.7l16.78,-0.57l3.84,9.53l-23.85,0.61l3.23,-9.57Z" style="fill:#fff;fill-rule:nonzero;stroke:#808080;stroke-width:2px;"/><path d="M91.825,128.27l18.75,-0.68l-0.77,11.53l-17.3,-0.34l-0.68,-10.51Z" style="fill:#693f11;fill-rule:nonzero;"/></g><path d="M134.065,86.7c0,0 -2.54,26.21 4.07,27.73c6.62,1.53 19.51,-0.93 25.11,-12.63c0,0 5.6,0.51 5.94,-4.85c0.1,-1.63 -1.78,-2.83 -4.07,-5.16c-0.47,-0.02 -0.92,-0.08 -1.36,-0.17c-9.33,-1.91 -13.01,-18.49 -13.91,-23.07c-4.41,3.17 -8.82,6.33 -13.23,9.5l-2.55,8.65Z" style="fill:#f9d4bb;fill-rule:nonzero;"/><ellipse cx="138.045" cy="90.86" rx="1.78" ry="4.07"/><ellipse cx="150.355" cy="91.09" rx="1.78" ry="4.07"/><path d="M136.955,96.71c0,0 -6.63,-0.18 -6.87,1.87c-0.59,4.92 5.52,4.32 5.52,4.32l1.35,-6.19Z" style="fill:#f9d4bb;fill-rule:nonzero;"/><path d="M155.955,128.6c6.79,1.36 19.34,7.13 20.7,8.82c1.36,1.69 22.73,31.9 12.89,44.79l-13.69,-4.28c0,0 -5.14,-14.05 -9.21,-15.74c-4.07,-1.7 1.54,32.91 1.54,32.91l-43.78,1.02l0.34,-24.09c0,0 -2.82,20.46 -9.07,23.18c-7.02,3.05 -11.63,-10.28 -11.63,-10.28l3.56,-8.65c0,0 7.13,-36.14 14.25,-42.25c2.94,-2.52 18.83,-7.8 18.83,-7.8l15.27,2.37Z" style="fill:#af436e;fill-rule:nonzero;"/><g><path d="M96.235,164.32l9.84,22.65l10.69,-6.62l-18.15,-26.3l-2.38,10.27Z" style="fill:#f9d4bb;fill-rule:nonzero;"/></g><g><path d="M129.715,184.35c-3.06,1.08 -4.52,6.61 -4.67,8.44c-0.15,1.83 18.74,18.61 20.87,18.73c2.13,0.12 6.27,-6.8 6.15,-7.88c-0.12,-1.08 -20.98,-19.77 -22.35,-19.29Z" style="fill:#015478;fill-rule:nonzero;"/><path d="M130.045,186.93l-1.95,5.96l18.44,17.01l3.65,-5.97l-20.14,-17Z" style="fill:#fff;fill-rule:nonzero;"/></g><path d="M189.545,182.22l-29.18,24.43c0,-0 -2.79,3.82 -7.46,5.77c-2.73,1.14 -7.31,0.62 -9.16,1.02c-4.75,1.02 -8.65,-8.65 -8.65,-8.65c0,-0 11.2,-1.53 13.23,-1.53c2.03,-0 -1.14,-4.94 -2.21,-5.77c-0.28,-0.22 -3.83,-3.34 -3.83,-3.34c1.44,-1.44 10.96,2.33 11.98,3c1.02,0.68 4.07,1.7 4.07,1.7l18.32,-22.06l12.89,5.43Z" style="fill:#f9d4bb;fill-rule:nonzero;"/><path d="M156.975,109.26c0,-0 -4.75,14.93 -1.02,19.34c3.73,4.41 -15.61,19.34 -15.61,19.34l-4.07,-17.31l4.07,-4.41c0,0 1.36,-10.52 0.68,-12.89" style="fill:#f9d4bb;fill-rule:nonzero;"/><path d="M96.235,164.32l-9.16,-22.99l1.53,-10.52c0,0 5.43,-5.77 6.79,-5.77c1.36,0 -2.71,5.26 -3.39,5.77c-0.68,0.51 -1.19,1.7 -1.19,1.7c0,0 4.92,-4.07 6.45,-3.56c1.53,0.51 -5.43,7.13 -5.43,7.13c0,0 5.09,-3.9 5.77,-3.22c0.68,0.68 -2.63,4.07 -4.32,5.94c0,0 0.59,5.94 0.55,5.54l1.91,-0.11l3.39,11.37l1.7,8.99l-4.6,-0.27Z" style="fill:#f9d4bb;fill-rule:nonzero;"/></g></g></svg>