<?xml version="1.0" encoding="UTF-8" standalone="no"?><!DOCTYPE svg PUBLIC "-//W3C//DTD SVG 1.1//EN" "http://www.w3.org/Graphics/SVG/1.1/DTD/svg11.dtd"><svg width="100%" height="100%" viewBox="0 0 200 201" version="1.1" xmlns="http://www.w3.org/2000/svg" xmlns:xlink="http://www.w3.org/1999/xlink" xml:space="preserve" xmlns:serif="http://www.serif.com/" style="fill-rule:evenodd;clip-rule:evenodd;stroke-linejoin:round;stroke-miterlimit:2;"><rect id="handy" x="0" y="0.285" width="200" height="200" style="fill:none;"/><path d="M74.489,35.761c-0.266,0.047 -0.484,0.24 -0.562,0.5c0,-0 -2.555,6.271 -6.087,15.949c-1.713,4.693 -3.629,10.164 -5.611,16.098c-1.161,3.474 -2.322,7.102 -3.463,10.818c-1.098,3.575 -2.157,7.234 -3.203,10.896c-5.708,19.99 -10.961,40.104 -12.799,49.671c-0.527,2.745 -0.759,4.73 -0.713,5.748c0.037,0.813 0.226,1.391 0.41,1.755c0.379,0.752 1.652,1.985 4.075,2.926c4.679,1.817 15.046,4.146 26.495,6.226c15.016,2.729 31.905,5.071 39.995,5.439c2.674,0.122 4.54,-0.027 5.337,-0.307c0.497,-0.175 1.12,-0.546 1.678,-1.318c0.45,-0.622 0.984,-1.688 1.519,-3.174c1.958,-5.435 4.565,-17.431 7.178,-31.73c4.712,-25.782 9.511,-59.099 10.88,-74.427c0.333,-3.721 0.46,-6.411 0.351,-7.726c-0.063,-0.76 -0.253,-1.242 -0.41,-1.466c-0.33,-0.47 -1.338,-1.106 -3.03,-1.588c-4.159,-1.185 -13.19,-2.386 -23.197,-3.283c-15.428,-1.384 -33.179,-2.062 -38.843,-1.007Zm62.794,7.398c0.012,0.13 0.025,0.298 0.029,0.447c0.025,0.987 -0.07,2.553 -0.259,4.599c-0.932,10.11 -4.21,31.554 -8.011,52.886c-3.801,21.333 -8.122,42.55 -11.185,52.121c-0.509,1.592 -1.227,3.174 -1.532,3.82c-1.065,0.11 -3.14,-0.079 -5.912,-0.344c-7.089,-0.678 -18.14,-2.361 -29.11,-4.367c-11.005,-2.012 -21.926,-4.352 -28.653,-6.341c-1.771,-0.524 -3.606,-1.264 -4.591,-1.68c0.036,-0.336 0.086,-0.728 0.148,-1.105c0.44,-2.681 1.423,-6.898 2.751,-12.135c2.861,-11.291 7.461,-27.194 11.841,-42.751c0.868,-3.083 1.713,-6.156 2.52,-9.182c0.838,-3.143 1.641,-6.229 2.386,-9.223c1.51,-6.064 2.862,-11.694 3.974,-16.559c1.953,-8.545 3.206,-14.625 3.535,-16.243l-0,0c5.216,-0.692 18.481,-0.027 31.502,1.191c11.713,1.095 23.228,2.642 28.487,4.095c0.847,0.234 1.732,0.615 2.08,0.771Z"/><path d="M117.065,41.787c-0.052,0.004 -0.375,0.026 -0.636,0.026c-1.693,-0.001 -5.225,-0.44 -9.11,-0.968c-4.366,-0.592 -9.119,-1.362 -12.155,-1.878c-1.083,-0.184 -1.902,-0.295 -2.298,-0.394c-0.355,-1.169 -0.576,-2.332 -0.576,-2.332c0.11,-0.251 -0.003,-0.544 -0.254,-0.655c-0.251,-0.11 -0.544,0.004 -0.654,0.254c-0,0 -0.706,0.484 -1.5,1.492c-0.402,0.51 -0.546,1.094 -0.744,1.693c-0.063,0.192 -0.049,0.375 -0.072,0.565c-0.133,1.097 0.45,1.964 1.149,2.625c0.211,0.2 0.487,0.328 0.776,0.458c0.392,0.15 1.708,0.435 3.61,0.609c3.119,0.286 8.017,0.477 12.498,0.536c4.043,0.053 7.715,-0.033 9.446,-0.266c0.834,-0.112 1.341,-0.323 1.493,-0.487c0.505,-0.548 0.849,-1.108 1.038,-1.787c0.209,-0.753 0.259,-1.637 0.177,-2.794c0,-0.274 -0.222,-0.496 -0.496,-0.496c-0.274,-0 -0.497,0.222 -0.497,0.496c-0.057,0.805 -0.157,1.45 -0.333,1.996c-0.173,0.536 -0.451,0.943 -0.862,1.307Zm-24.182,-3.157c0.049,0.16 0.1,0.319 0.154,0.475c0.02,0.059 0.066,0.152 0.12,0.13c0.024,-0.009 0.064,-0.028 0.053,-0.048c-0.105,-0.198 -0.175,-0.419 -0.327,-0.557Zm-0.137,-0.09c-0.021,-0.009 -0.042,-0.017 -0.065,-0.023c0.018,0.008 0.04,0.016 0.065,0.023Z"/><path d="M69.29,56.305c0.325,-1.248 0.428,-2.865 0.248,-4.7c-0.065,-0.661 -0.21,-1.313 -0.363,-1.988c-0.254,-1.122 -0.61,-2.219 -1.079,-3.261c-0.517,-1.151 -1.199,-2.185 -1.966,-3.049c-2.645,-2.977 -6.29,-4.025 -10.316,-1.152c-0.628,0.446 -0.976,1.187 -0.918,1.955c0.129,1.421 0.223,3.184 0.292,4.93c0.12,2.991 0.17,5.928 0.186,7.04c-0.99,1.879 -4.594,8.805 -6.929,14.472c-1.251,3.036 -2.126,5.741 -2.174,7.24c-0.098,3.118 -2.751,12.945 -2.961,20.598c-0.109,3.945 0.449,7.335 2.136,9.15c1.472,1.582 2.701,3.018 3.697,4.253c2.25,2.789 3.308,4.53 3.308,4.53c0.136,0.238 0.44,0.321 0.678,0.185c0.238,-0.136 0.32,-0.44 0.184,-0.678c0,0 -0.992,-1.841 -3.153,-4.816c-0.949,-1.307 -2.124,-2.83 -3.54,-4.514c-1.379,-1.636 -1.568,-4.608 -1.312,-8.007c0.579,-7.672 3.703,-17.411 3.949,-20.537c0.126,-1.625 1.562,-4.796 3.217,-8.159c2.9,-5.894 6.634,-12.261 6.634,-12.261c0.164,-0.293 0.252,-0.622 0.254,-0.958c0,0 0.095,-3.773 0.065,-7.64c-0.01,-1.275 -0.036,-2.56 -0.081,-3.726c1.366,-0.479 2.552,0.131 3.571,1.135c0.714,0.703 1.402,1.525 2.008,2.448c0.638,0.973 1.229,1.971 1.728,2.992c0.818,1.674 1.479,3.19 1.646,4.458c-0.017,0.274 0.192,0.509 0.466,0.526c0.273,0.016 0.508,-0.193 0.525,-0.466Z"/><g><path d="M128.573,72.182c3.208,8.131 21.477,-0.767 17.662,-9.983c-2.457,-5.934 -21.494,0.272 -17.662,9.983Z" style="fill:#fff;"/><path d="M128.111,72.365c0.033,1.1 0.392,1.865 0.883,2.692c0.137,0.23 0.317,0.39 0.492,0.591c0.567,0.647 1.3,1.039 2.128,1.408c0.768,0.343 1.635,0.495 2.555,0.527c2.403,0.086 5.116,-0.901 7.499,-2.349c4.978,-3.025 8.46,-8.471 6.091,-13.666c-0.745,-1.611 -2.263,-2.677 -4.345,-2.994c-2.743,-0.417 -6.505,0.381 -9.687,2.168c-4.459,2.502 -7.792,6.761 -5.616,11.623Zm0.924,-0.365c-1.179,-3.436 0.69,-6.241 3.515,-8.13c2.894,-1.936 6.812,-2.895 9.658,-2.499c1.19,0.166 2.172,0.56 2.502,1.459c0.653,1.763 0.185,3.453 -0.785,4.933c-1.012,1.543 -2.628,2.819 -4.387,3.772c-1.49,0.807 -3.115,1.281 -4.62,1.521c-0.658,0.105 -1.279,0.201 -1.881,0.204c-0.686,0.003 -1.299,0.121 -1.892,-0.093c-0.165,-0.06 -0.324,-0.058 -0.485,-0.13c-0.596,-0.268 -1.131,-0.477 -1.625,-1.037Z"/><path d="M130.285,64.953c0.256,0.584 0.037,0.478 0.322,1.035c0.202,0.396 0.114,0.633 0.404,0.959c0.061,0.068 0.127,0.127 0.205,0.173c0.174,0.105 0.367,0.17 0.542,0.271c1.1,0.635 2.074,1.495 2.621,2.825c0.57,1.387 0.908,2.971 0.735,4.883c-0.072,0.265 0.084,0.538 0.348,0.609c0.265,0.072 0.538,-0.084 0.61,-0.348c1.038,-2.207 1.284,-4.254 1.098,-6.129c-0.104,-1.049 -0.442,-1.972 -0.856,-2.852c-0.507,-1.075 -1.271,-1.945 -2.159,-2.678c-0.273,-0.225 -0.561,-0.44 -0.887,-0.583c-0.142,-0.062 -0.28,-0.136 -0.436,-0.141c-0.386,-0.011 -0.578,-0.021 -0.945,0.112c-0.193,0.069 -0.251,0.038 -0.426,0.147c-0.596,0.374 -0.462,0.251 -0.983,0.743c-0.269,-0.053 -0.53,0.122 -0.583,0.391c-0.054,0.268 0.121,0.53 0.39,0.583Z"/></g><g><path d="M125.673,89.167c3.208,8.13 26.173,-1.402 22.358,-10.618c-2.456,-5.934 -26.19,0.907 -22.358,10.618Z" style="fill:#fff;"/><path d="M125.212,89.349c0.123,1.509 0.881,2.539 2,3.495c0.672,0.575 1.516,0.906 2.47,1.207c0.84,0.265 1.767,0.382 2.753,0.378c2.623,-0.008 5.582,-0.964 8.298,-2.287c3.355,-1.634 6.331,-4.012 7.97,-6.618c1.529,-2.432 2.014,-5.057 0.857,-7.608c-0.75,-1.643 -2.561,-2.76 -5.142,-2.975c-3.052,-0.253 -7.234,0.594 -10.96,2.283c-5.8,2.629 -10.425,7.181 -8.246,12.125l-0,-0Zm0.923,-0.364c-1.265,-3.62 1.586,-6.585 5.479,-8.584c3.655,-1.877 8.281,-2.863 11.656,-2.593c1.575,0.126 2.871,0.405 3.232,1.374c0.56,1.491 0.065,2.936 -0.889,4.262c-1.429,1.986 -3.956,3.638 -6.676,4.822c-1.869,0.814 -3.854,1.31 -5.681,1.607c-0.832,0.135 -1.618,0.25 -2.367,0.295c-0.919,0.054 -1.717,0.167 -2.468,-0.022c-0.903,-0.227 -1.684,-0.408 -2.286,-1.161l-0,-0Z"/><path d="M53.591,148.308c-0,-0 -0.319,0.71 -0.724,2.363c-0.114,0.469 -0.2,0.951 -0.288,1.549c-0.071,0.481 -0.141,0.975 -0.172,1.533c-0.018,0.326 -0.017,0.663 -0.001,1.013c0.132,2.779 0.514,6.26 0.7,10.079c0.234,4.797 0.365,10.089 0.004,15.134c-0.348,4.883 -1.09,9.501 -2.558,13.166c-0.115,0.248 -0.006,0.543 0.242,0.659c0.249,0.115 0.544,0.006 0.659,-0.242c3.058,-5.799 4.566,-14.327 5.209,-22.479c0.316,-4 0.422,-7.893 0.397,-11.316c-0.013,-1.76 -0.03,-3.395 -0.142,-4.847c-0.038,-0.481 -0.082,-0.943 -0.161,-1.378c-0.09,-0.494 -0.203,-0.937 -0.336,-1.363c-0.255,-0.817 -0.497,-1.442 -0.762,-2.015c-0.655,-1.414 -1.081,-1.973 -1.081,-1.973c-0.033,-0.272 -0.28,-0.467 -0.552,-0.434c-0.272,0.032 -0.466,0.279 -0.434,0.551Z"/><path d="M100.969,156.464c0,0 -0.607,0.178 -1.879,0.926c-0.507,0.299 -1.009,0.647 -1.631,1.148c-0.321,0.258 -0.631,0.541 -0.95,0.879c-0.279,0.296 -0.541,0.632 -0.808,0.988c-0.8,1.071 -1.605,2.34 -2.462,3.719c-1.647,2.651 -3.393,5.76 -4.987,9.133c-3.008,6.365 -5.459,13.6 -5.667,20.355c-0.023,0.273 0.179,0.514 0.452,0.538c0.273,0.024 0.513,-0.178 0.537,-0.451c0.569,-3.893 1.966,-7.841 3.74,-11.659c1.991,-4.285 4.506,-8.33 6.899,-11.886c1.951,-2.899 3.922,-5.378 5.36,-7.437c0.182,-0.261 0.344,-0.519 0.486,-0.779c0.245,-0.449 0.422,-0.864 0.596,-1.273c0.22,-0.511 0.377,-0.923 0.512,-1.346c0.482,-1.521 0.558,-2.211 0.558,-2.211c0.177,-0.209 0.152,-0.522 -0.056,-0.7c-0.209,-0.177 -0.522,-0.152 -0.7,0.056Z"/><path d="M127.385,81.937c0.256,0.584 0.038,0.478 0.322,1.035c0.202,0.397 0.115,0.633 0.404,0.959c0.061,0.068 0.127,0.127 0.205,0.174c0.174,0.104 0.367,0.169 0.542,0.271c1.1,0.634 2.075,1.495 2.621,2.825c0.571,1.386 0.909,2.971 0.735,4.883c-0.072,0.264 0.084,0.537 0.348,0.609c0.265,0.072 0.538,-0.084 0.61,-0.349c1.038,-2.207 1.284,-4.254 1.098,-6.128c-0.104,-1.049 -0.442,-1.973 -0.856,-2.852c-0.507,-1.076 -1.27,-1.946 -2.159,-2.678c-0.273,-0.226 -0.561,-0.441 -0.887,-0.583c-0.142,-0.063 -0.28,-0.137 -0.436,-0.141c-0.386,-0.011 -0.578,-0.022 -0.945,0.111c-0.192,0.07 -0.251,0.039 -0.426,0.148c-0.596,0.373 -0.462,0.25 -0.983,0.743c-0.269,-0.054 -0.53,0.121 -0.583,0.39c-0.054,0.269 0.121,0.53 0.39,0.583Z"/></g><g><path d="M124.428,106.006c3.208,8.13 21.477,-0.767 17.662,-9.984c-2.457,-5.933 -21.494,0.273 -17.662,9.984Z" style="fill:#fff;"/><path d="M123.966,106.188c0.033,1.101 0.392,1.865 0.883,2.692c0.137,0.23 0.317,0.39 0.492,0.591c0.567,0.648 1.3,1.039 2.128,1.409c0.768,0.343 1.635,0.494 2.555,0.527c2.403,0.085 5.116,-0.902 7.499,-2.35c4.978,-3.025 8.46,-8.471 6.091,-13.666c-0.745,-1.61 -2.263,-2.676 -4.344,-2.993c-2.743,-0.418 -6.506,0.381 -9.688,2.167c-4.459,2.503 -7.792,6.762 -5.616,11.623Zm0.924,-0.364c-1.179,-3.436 0.69,-6.242 3.515,-8.131c2.894,-1.936 6.812,-2.894 9.658,-2.499c1.19,0.166 2.172,0.561 2.502,1.46c0.653,1.763 0.185,3.453 -0.785,4.932c-1.012,1.544 -2.628,2.82 -4.387,3.773c-1.49,0.807 -3.115,1.28 -4.62,1.52c-0.658,0.105 -1.279,0.201 -1.881,0.204c-0.686,0.004 -1.299,0.122 -1.892,-0.093c-0.165,-0.059 -0.324,-0.058 -0.485,-0.13c-0.596,-0.268 -1.131,-0.476 -1.625,-1.036Z"/><path d="M126.14,98.776c0.256,0.584 0.038,0.478 0.322,1.035c0.202,0.397 0.115,0.633 0.404,0.959c0.061,0.068 0.127,0.127 0.205,0.174c0.174,0.104 0.367,0.169 0.542,0.27c1.1,0.635 2.074,1.496 2.621,2.826c0.57,1.386 0.908,2.971 0.735,4.883c-0.072,0.264 0.084,0.537 0.348,0.609c0.265,0.072 0.538,-0.085 0.61,-0.349c1.038,-2.207 1.284,-4.254 1.098,-6.128c-0.104,-1.05 -0.442,-1.973 -0.856,-2.852c-0.507,-1.076 -1.27,-1.946 -2.159,-2.679c-0.273,-0.225 -0.561,-0.44 -0.887,-0.582c-0.142,-0.063 -0.28,-0.137 -0.436,-0.141c-0.386,-0.011 -0.578,-0.022 -0.945,0.111c-0.192,0.07 -0.251,0.039 -0.426,0.148c-0.596,0.373 -0.462,0.25 -0.983,0.743c-0.269,-0.054 -0.53,0.121 -0.583,0.39c-0.054,0.269 0.121,0.53 0.39,0.583Z"/></g></svg>