<?xml version="1.0" encoding="UTF-8" standalone="no"?><!DOCTYPE svg PUBLIC "-//W3C//DTD SVG 1.1//EN" "http://www.w3.org/Graphics/SVG/1.1/DTD/svg11.dtd"><svg width="100%" height="100%" viewBox="0 0 201 201" version="1.1" xmlns="http://www.w3.org/2000/svg" xmlns:xlink="http://www.w3.org/1999/xlink" xml:space="preserve" xmlns:serif="http://www.serif.com/" style="fill-rule:evenodd;clip-rule:evenodd;stroke-linejoin:round;stroke-miterlimit:2;"><rect id="im-betrieb" x="0.793" y="0.747" width="200" height="200" style="fill:none;"/><path d="M75.904,132.04c3.428,-1.395 9.252,-5.842 11.766,-10.435c1.909,-3.487 1.946,-7.05 -2.138,-9.527c-3.111,-1.887 -5.94,-1.534 -8.462,-0.882c-1.99,0.514 -3.771,1.24 -5.336,1.037c-0.93,-0.121 -1.767,-0.604 -2.525,-1.697c-0.737,-1.064 -1.477,-3.553 -2.323,-6.838c-1.995,-7.744 -4.483,-19.82 -8.329,-28.53c-1.502,-3.399 -3.217,-6.289 -5.173,-8.248c-1.821,-1.823 -3.86,-2.851 -6.127,-2.834c-2.358,0.019 -3.994,1.431 -5.005,3.922c-1.277,3.146 -1.53,8.14 -1.135,13.957c1.121,16.486 7.334,39.725 8.135,45.11c0.356,2.265 1.719,3.964 3.756,5.136c1.579,0.909 3.568,1.507 5.738,1.826c2.789,0.409 5.879,0.386 8.738,0.067c3.467,-0.388 6.579,-1.202 8.42,-2.064Zm-0.169,-0.407c-1.859,0.673 -4.948,1.136 -8.34,1.258c-2.756,0.099 -5.705,-0.043 -8.356,-0.564c-1.912,-0.375 -3.66,-0.947 -5.044,-1.786c-1.476,-0.895 -2.523,-2.101 -2.768,-3.766c-0.835,-5.366 -7.178,-28.499 -8.429,-44.931c-0.42,-5.517 -0.285,-10.261 0.899,-13.257c0.725,-1.837 1.847,-2.97 3.58,-3c1.884,-0.034 3.567,0.853 5.096,2.353c1.873,1.836 3.507,4.57 4.963,7.775c5.642,12.421 8.577,31.794 11.105,35.359c0.958,1.35 2.023,1.914 3.182,2.051c1.664,0.197 3.555,-0.552 5.661,-1.121c2.334,-0.63 4.959,-1.009 7.866,0.711c3.713,2.196 3.658,5.425 1.971,8.593c-2.405,4.517 -8.052,8.922 -11.386,10.325Z"/><path d="M42.054,83.493c-1.839,0.306 -3.524,1.631 -4.942,3.771c-1.009,1.521 -1.865,3.459 -2.543,5.708c-0.377,1.251 -0.689,2.601 -0.933,4.03c-0.222,1.301 -0.377,2.67 -0.484,4.09c-0.684,9.043 0.745,20.175 4.913,30.063c2.567,6.059 7.906,8.603 13.966,9.312c9.703,1.135 21.24,-2.474 25.169,-2.874c2.529,-0.258 5.131,-2.131 7.4,-4.535c3.088,-3.27 5.577,-7.488 6.487,-9.6c0.294,-0.684 0.417,-1.177 0.389,-1.383c-0.062,-0.453 0.527,-1.622 0.886,-2.857c0.349,-1.199 0.493,-2.446 -0.105,-3.258c-0.553,-0.753 -1.769,-1.185 -4.161,-0.784c-0.12,0.019 -0.203,0.132 -0.184,0.252c0.019,0.12 0.133,0.203 0.253,0.184c2.113,-0.316 3.198,-0.022 3.674,0.65c0.5,0.704 0.293,1.77 -0.024,2.792c-0.413,1.332 -1.019,2.607 -0.961,3.099c0.018,0.159 -0.127,0.522 -0.362,1.043c-0.925,2.049 -3.429,6.13 -6.502,9.276c-2.136,2.187 -4.539,3.936 -6.882,4.135c-3.887,0.332 -15.336,3.737 -24.903,2.466c-5.491,-0.729 -10.362,-3.019 -12.61,-8.553c-3.945,-9.656 -5.141,-20.485 -4.457,-29.275c0.134,-1.722 0.347,-3.364 0.601,-4.91c0.285,-1.737 0.624,-3.349 1.058,-4.801c0.406,-1.36 0.877,-2.574 1.415,-3.626c1.054,-2.061 2.338,-3.485 3.944,-3.986c0.118,-0.028 0.192,-0.147 0.163,-0.265c-0.028,-0.119 -0.147,-0.192 -0.265,-0.164Z"/><path d="M69.225,138.594c-0,0 0.038,1.072 0.219,2.797c0.066,0.622 0.151,1.314 0.273,2.072c0.105,0.647 0.234,1.331 0.391,2.043c0.328,1.495 0.762,3.1 1.169,4.704c1.403,5.518 2.843,10.948 2.843,10.948c0.081,0.336 0.372,0.58 0.717,0.601l4.077,0.175c0.226,0.014 0.445,-0.08 0.591,-0.254c0.145,-0.173 0.199,-0.406 0.146,-0.626l-6.142,-23.285c-0.029,-0.119 -0.148,-0.191 -0.266,-0.163c-0.119,0.029 -0.191,0.148 -0.163,0.266l4.973,22.562c0,0 -2.524,-0.201 -2.524,-0.201c-0.338,-1.527 -1.331,-5.983 -2.372,-10.48c-0.374,-1.612 -0.724,-3.236 -1.118,-4.716c-0.188,-0.704 -0.387,-1.372 -0.591,-1.995c-0.239,-0.729 -0.48,-1.383 -0.707,-1.966c-0.63,-1.616 -1.088,-2.586 -1.088,-2.586c-0.028,-0.118 -0.148,-0.191 -0.266,-0.162c-0.118,0.029 -0.191,0.148 -0.162,0.266Z"/><path d="M47.407,138.702c0,-0 -0.528,0.831 -1.295,2.26c-0.246,0.458 -0.5,0.971 -0.773,1.54c-0.235,0.488 -0.478,1.006 -0.717,1.562c-0.146,0.341 -0.286,0.696 -0.425,1.06c-0.562,1.475 -1.127,3.091 -1.702,4.698c-1.975,5.527 -3.876,10.996 -3.876,10.996c-0.081,0.221 -0.058,0.467 0.064,0.668c0.123,0.201 0.33,0.336 0.564,0.364l3.091,0.324c0.33,0.041 0.644,-0.152 0.757,-0.464l7.581,-22.394c0.042,-0.114 -0.017,-0.241 -0.132,-0.282c-0.114,-0.042 -0.241,0.018 -0.282,0.132l-8.296,21.517c-0,0 -1.551,-0.221 -1.551,-0.221c0.689,-1.753 2.29,-5.837 3.88,-9.973c0.612,-1.592 1.237,-3.187 1.772,-4.672c0.132,-0.366 0.258,-0.726 0.37,-1.081c0.181,-0.576 0.334,-1.128 0.475,-1.651c0.164,-0.609 0.306,-1.164 0.418,-1.672c0.349,-1.583 0.491,-2.558 0.491,-2.558c0.042,-0.114 -0.016,-0.241 -0.13,-0.283c-0.114,-0.043 -0.241,0.016 -0.284,0.13Z"/><path d="M93.169,155.476c1.88,0.202 6.997,0.681 10.688,0.373c1.461,-0.122 2.704,-0.378 3.47,-0.797c0.7,-0.384 1.04,-0.914 0.988,-1.559c-0.202,-2.524 -0.986,-4.005 -2.043,-4.784c-0.978,-0.722 -2.217,-0.868 -3.57,-0.619c-2.8,0.514 -6.125,2.798 -8.324,4.531c1.169,-2.815 2.831,-7.337 3.575,-11.855c0.637,-3.864 0.571,-7.72 -0.885,-10.587c-1.088,-2.113 -2.543,-3.677 -4.161,-4.777c-0.774,-0.526 -1.582,-0.951 -2.398,-1.273c-1.496,-0.592 -2.989,-0.897 -4.312,-1.01c-2.519,-0.214 -4.346,0.195 -4.346,0.195c-0.121,0.012 -0.21,0.119 -0.199,0.24c0.012,0.122 0.119,0.211 0.241,0.2c-0,-0 1.753,0.074 4.081,0.673c1.169,0.301 2.469,0.741 3.775,1.398c0.68,0.342 1.359,0.74 2.02,1.211c1.356,0.967 2.63,2.25 3.568,4.042c1.342,2.529 1.365,5.968 0.869,9.419c-1.029,7.152 -4.383,14.37 -4.383,14.37c-0.148,0.31 -0.054,0.681 0.225,0.882c0.279,0.201 0.661,0.173 0.908,-0.066c-0,0 0.074,-0.074 0.213,-0.207Zm0.453,-0.428c2.118,0.158 6.764,0.426 10.162,0.049c1.319,-0.146 2.444,-0.383 3.127,-0.782c0.338,-0.197 0.557,-0.424 0.523,-0.74c-0.227,-2.132 -0.842,-3.404 -1.754,-4.041c-0.767,-0.535 -1.729,-0.58 -2.764,-0.361c-3.459,0.728 -7.684,4.384 -9.294,5.875Z"/><path d="M97.26,147.908c1.647,0.057 5.984,0.138 8.98,-0.416c1.276,-0.236 2.314,-0.606 2.86,-1.103c0.467,-0.424 0.633,-0.94 0.434,-1.553c-1.054,-3.253 -3.161,-3.792 -5.403,-3.196c-1.958,0.521 -4.05,2.011 -5.607,3.32c1.17,-2.818 2.799,-7.266 3.539,-11.711c0.642,-3.859 0.582,-7.711 -0.868,-10.579c-1.052,-2.056 -2.427,-3.628 -3.939,-4.793c-0.731,-0.562 -1.491,-1.033 -2.258,-1.413c-0.488,-0.241 -0.976,-0.449 -1.462,-0.618c-1.275,-0.445 -2.494,-0.696 -3.559,-0.807c-2.043,-0.212 -3.436,0.022 -3.436,0.022c-0.122,0.002 -0.218,0.103 -0.216,0.225c0.003,0.122 0.104,0.218 0.226,0.216c-0,-0 1.313,0.176 3.176,0.753c0.941,0.292 2.006,0.689 3.121,1.237c0.411,0.202 0.827,0.424 1.247,0.665c0.65,0.371 1.301,0.799 1.934,1.297c1.297,1.02 2.522,2.339 3.453,4.106c1.348,2.53 1.379,5.972 0.887,9.428c-1.017,7.159 -4.363,14.388 -4.363,14.388c-0.142,0.295 -0.045,0.649 0.227,0.831c0.271,0.182 0.636,0.137 0.854,-0.106c0,-0 0.061,-0.07 0.173,-0.193Zm0.43,-0.461c1.855,-0.004 5.7,-0.091 8.406,-0.676c0.904,-0.195 1.675,-0.444 2.182,-0.774c0.368,-0.239 0.578,-0.517 0.447,-0.885c-0.91,-2.549 -2.552,-2.992 -4.312,-2.469c-2.652,0.789 -5.507,3.534 -6.723,4.804Z"/><path d="M48.505,42.842c-6.411,1.6 -9.31,8.363 -7.944,13.709c1.233,4.825 5.885,8.581 14.583,6.572c9.617,-2.245 11.927,-8.841 9.839,-14.103c-0.97,-2.443 -2.904,-4.667 -5.598,-6.02c-1.019,-0.512 -2.145,-0.91 -3.364,-1.113c-1.215,-0.203 -2.512,-0.243 -3.87,-0.053c-1.188,0.166 -2.389,0.509 -3.646,1.008l0,-0Zm0.113,0.426c1.271,-0.181 2.452,-0.183 3.59,-0.125c1.226,0.063 2.358,0.257 3.424,0.542c1.025,0.274 1.974,0.638 2.841,1.093c2.232,1.169 3.91,2.929 4.759,4.956c1.864,4.449 -0.288,9.872 -8.434,11.982c-7.759,2.029 -12.075,-1.116 -13.31,-5.416c-1.429,-4.972 1.169,-11.35 7.13,-13.032l0,0Z"/><path d="M50.145,76.552c-0.021,0.612 -0.007,1.209 0.09,1.862c0.089,0.608 0.253,1.204 0.464,1.815c0.135,0.391 0.302,0.772 0.493,1.149c0.187,0.369 0.406,0.725 0.641,1.074c0.802,1.194 1.812,2.29 2.953,3.224c2.585,2.114 5.904,3.383 9.627,2.763c4.496,-0.748 9.66,-4.303 14.771,-12.763c0.066,-0.103 0.036,-0.239 -0.066,-0.305c-0.103,-0.066 -0.239,-0.036 -0.305,0.066c-5.295,7.795 -10.293,11.026 -14.609,11.531c-2.279,0.267 -4.338,-0.265 -6.118,-1.259c-1.883,-1.053 -3.414,-2.655 -4.602,-4.382c-0.21,-0.306 -0.412,-0.615 -0.612,-0.92c-0.206,-0.315 -0.412,-0.621 -0.609,-0.932c-0.313,-0.494 -0.605,-0.966 -0.876,-1.452c-0.301,-0.541 -0.585,-1.022 -0.808,-1.551c-0.022,-0.12 -0.137,-0.199 -0.257,-0.177c-0.12,0.022 -0.199,0.137 -0.177,0.257Z"/><path d="M76.713,74.397c-0.038,0.05 -0.053,0.114 -0.041,0.176c0.012,0.062 0.049,0.116 0.103,0.148c0,-0 0.551,0.604 1.278,1.274c0.331,0.305 0.679,0.602 1.014,0.863c0.584,0.454 1.074,0.761 1.074,0.761c0.436,0.259 0.997,0.148 1.301,-0.259c0,0 0.924,-1.232 2.071,-2.823c2.013,-2.789 4.729,-6.664 4.729,-6.664c0.232,-0.311 0.191,-0.747 -0.096,-1.009l-3.213,-2.761c-0.13,-0.118 -0.304,-0.177 -0.479,-0.161c-0.175,0.015 -0.336,0.104 -0.443,0.243l-7.298,10.212Zm0.558,0.015l7.292,-8.92c0,0 2.059,1.995 2.059,1.995c-0.884,1.112 -3.017,3.799 -4.646,5.901c-0.661,0.853 -1.238,1.61 -1.622,2.119c-0.119,-0.056 -0.247,-0.114 -0.381,-0.173c-0.389,-0.17 -0.816,-0.334 -1.242,-0.479c-0.605,-0.206 -1.15,-0.36 -1.46,-0.443l-0,-0Z"/><path d="M80.252,95.651c-0.062,-0.001 -0.122,0.023 -0.164,0.067c-0,0 -3.37,3.109 -6.252,5.852c-2.196,2.091 -4.098,3.968 -4.098,3.968c-0.231,0.239 -0.297,0.593 -0.168,0.899c0.129,0.306 0.428,0.506 0.76,0.507c0,0 3.124,0.124 8.154,0.199c2.346,0.035 5.105,0.035 8.155,0.043c23.798,0.065 65.238,0.01 65.238,0.01c0.268,0.001 0.513,-0.154 0.626,-0.398c0.113,-0.244 0.073,-0.531 -0.101,-0.735l-7.819,-9.035c-0.114,-0.134 -0.279,-0.212 -0.454,-0.216l-63.877,-1.161Zm0.092,0.444l63.475,1.944c0,-0 6.569,7.768 6.569,7.768c-7.625,-0.083 -42.625,-0.459 -63.74,-0.606c-3.049,-0.021 -5.809,-0.047 -8.154,-0.035c-2.681,0.014 -4.82,0.047 -6.234,0.075c0.685,-0.753 1.572,-1.732 2.502,-2.776c2.426,-2.722 5.145,-5.864 5.582,-6.37Z"/><path d="M90.065,149.896l19.501,-0.795c0.533,-0.024 0.947,-0.474 0.925,-1.008c0,0 -0.215,-6.649 -0.566,-14.644c-0.089,-2.033 -0.193,-4.153 -0.307,-6.273c-0.067,-1.261 -0.139,-2.521 -0.22,-3.763c-0.205,-3.144 -0.422,-6.165 -0.63,-8.774c-0.391,-4.917 -0.729,-8.352 -0.729,-8.352c-0.005,-0.121 -0.108,-0.216 -0.229,-0.211c-0.122,0.005 -0.217,0.108 -0.212,0.229c0,0 -0.058,3.451 -0.047,8.383c0.005,2.618 0.034,5.647 0.085,8.797c0.021,1.244 0.052,2.506 0.087,3.768c0.059,2.122 0.128,4.244 0.204,6.278c0.233,6.186 0.481,11.563 0.581,13.681c0,-0 -22.579,1.099 -22.579,1.099c-0.233,0.011 -0.453,0.113 -0.609,0.286c-0.157,0.172 -0.239,0.4 -0.227,0.633l0.079,1.446c0.022,0.453 0.39,0.812 0.843,0.825l51.488,1.183c0.268,0.008 0.51,-0.161 0.594,-0.416c0.085,-0.255 -0.008,-0.535 -0.227,-0.69l-3.812,-2.644c-0.087,-0.061 -0.189,-0.098 -0.295,-0.105l-20.73,-1.262c0,0 -2.356,-41.093 -2.356,-41.093c-0.006,-0.121 -0.11,-0.215 -0.231,-0.209c-0.122,0.007 -0.216,0.111 -0.209,0.232l1.897,41.53c0.012,0.234 0.197,0.422 0.43,0.438l20.955,1.514c0,0 2.001,1.422 2.001,1.422l-45.455,-1.505Z"/><g><path d="M154.36,132.985c0.008,0.116 0.104,0.206 0.221,0.205c-0,0 3.443,0.202 7.845,0.375c2.467,0.097 5.227,0.181 7.846,0.244c1.872,0.044 3.669,0.072 5.23,0.087c3.074,0.029 5.23,0.014 5.23,0.014c0.267,-0.001 0.523,-0.108 0.71,-0.299c0.188,-0.191 0.291,-0.448 0.286,-0.715c0,-0 -0.584,-30.377 -4.496,-51.018c-1.416,-7.474 -3.294,-13.681 -5.686,-16.798c-1.256,-1.637 -2.673,-2.468 -4.21,-2.381c-2.081,0.119 -3.921,1.642 -5.451,4.296c-1.954,3.392 -3.465,8.661 -4.601,14.816c-3.31,17.943 -3.501,43.456 -2.924,51.174Zm0.427,-0.249c-0.456,-7.946 0.073,-33.054 3.557,-50.723c1.179,-5.979 2.691,-11.1 4.633,-14.381c1.282,-2.166 2.716,-3.518 4.428,-3.596c1.62,-0.074 2.926,1.347 4.122,3.649c1.728,3.326 3.075,8.491 4.151,14.48c3.293,18.332 3.936,44.329 4.037,49.748c-0.921,0.003 -2.411,0.012 -4.217,0.037c-1.561,0.022 -3.358,0.058 -5.23,0.111c-2.619,0.074 -5.378,0.17 -7.844,0.278c-3.766,0.165 -6.831,0.348 -7.637,0.397l0,0Z"/><path d="M164.33,36.022c-7.376,0.245 -12.408,6.671 -12.676,12.692c-0.254,5.705 3.67,11.125 13.853,10.872c10.813,-0.29 16.201,-6.813 16.027,-12.911c-0.089,-3.13 -1.603,-6.232 -4.661,-8.39c-1.052,-0.741 -2.286,-1.385 -3.713,-1.83c-1.322,-0.412 -2.8,-0.679 -4.434,-0.736c-1.369,-0.048 -2.821,0.068 -4.396,0.303Zm0.02,0.441c1.538,0.085 2.923,0.309 4.222,0.57c1.475,0.296 2.784,0.694 3.966,1.169c1.208,0.485 2.266,1.051 3.174,1.708c2.493,1.804 3.824,4.263 3.941,6.835c0.245,5.394 -4.634,10.956 -14.199,11.414c-9.205,0.46 -12.949,-4.25 -12.853,-9.415c0.107,-5.71 4.769,-11.864 11.749,-12.281Z"/><path d="M162.027,163.909c-2.729,-3.542 -7.312,-6.744 -11.389,-8.018c-4.382,-1.37 -8.16,-0.516 -8.883,4.035c-0.482,3.042 1.387,4.876 4.291,5.906c6.109,2.168 17.008,0.618 17.008,0.618c0.416,-0.065 0.721,-0.428 0.711,-0.85c0,0 -0.088,-7.929 -0.222,-15.964c-0.028,-1.613 -0.049,-3.231 -0.094,-4.789c-0.021,-0.697 -0.046,-1.383 -0.08,-2.051c-0.043,-0.811 -0.095,-1.595 -0.153,-2.343c-0.101,-1.301 -0.207,-2.484 -0.319,-3.512c-0.261,-2.399 -0.496,-3.9 -0.496,-3.9c-0.003,-0.122 -0.104,-0.218 -0.225,-0.216c-0.122,0.003 -0.219,0.104 -0.216,0.226c0,0 -0.166,1.51 -0.317,3.918c-0.065,1.033 -0.116,2.22 -0.158,3.524c-0.024,0.75 -0.04,1.535 -0.046,2.347c-0.004,0.669 0.003,1.355 0.014,2.053c0.026,1.558 0.079,3.175 0.125,4.788c0.167,5.757 0.356,11.46 0.449,14.228Zm0.028,0.833c-2.677,-3.582 -7.466,-6.838 -11.661,-8.032c-3.735,-1.063 -7.015,-0.485 -7.529,3.378c-0.42,3.148 2.376,4.466 5.836,5.048c4.903,0.826 11.23,0.067 13.36,-0.235l-0.006,-0.159Z"/><path d="M173.691,164.052c-2.729,-3.542 -7.313,-6.743 -11.389,-8.018c-4.383,-1.37 -8.16,-0.516 -8.883,4.036c-0.482,3.041 1.387,4.875 4.29,5.906c6.11,2.168 17.009,0.617 17.009,0.617c0.416,-0.064 0.72,-0.428 0.711,-0.849c-0,0 -0.088,-7.929 -0.223,-15.964c-0.027,-1.613 -0.048,-3.231 -0.094,-4.789c-0.02,-0.698 -0.045,-1.383 -0.08,-2.051c-0.042,-0.812 -0.094,-1.595 -0.152,-2.343c-0.102,-1.301 -0.207,-2.484 -0.319,-3.513c-0.262,-2.399 -0.496,-3.899 -0.496,-3.899c-0.003,-0.122 -0.104,-0.219 -0.226,-0.216c-0.121,0.003 -0.218,0.104 -0.215,0.226c-0,-0 -0.166,1.51 -0.317,3.918c-0.065,1.032 -0.116,2.219 -0.158,3.523c-0.024,0.751 -0.041,1.535 -0.046,2.348c-0.004,0.669 0.003,1.355 0.014,2.053c0.026,1.558 0.079,3.175 0.125,4.788c0.167,5.757 0.355,11.459 0.449,14.227Zm0.028,0.833c-2.677,-3.582 -7.466,-6.837 -11.662,-8.032c-3.735,-1.063 -7.014,-0.485 -7.528,3.379c-0.42,3.148 2.375,4.465 5.836,5.048c4.903,0.825 11.23,0.066 13.359,-0.236l-0.005,-0.159Z"/><path d="M167.18,78.229c0,-0 -0.955,-0.334 -2.595,-0.776c-0.748,-0.201 -1.623,-0.414 -2.615,-0.628c-0.554,-0.119 -1.14,-0.23 -1.755,-0.334c-0.567,-0.096 -1.158,-0.177 -1.765,-0.261c-3.246,-0.446 -6.957,-0.898 -10.326,-1.32c-4.785,-0.6 -8.887,-1.094 -10.022,-1.231c-0,0 -14.585,-21.672 -14.585,-21.672c-0.066,-0.102 -0.203,-0.132 -0.305,-0.065c-0.102,0.066 -0.132,0.202 -0.066,0.305l13.946,22.49c0.113,0.175 0.296,0.292 0.502,0.32c-0,0 4.667,0.741 10.287,1.601c3.356,0.513 7.049,1.091 10.294,1.547c0.607,0.086 1.198,0.169 1.769,0.232c0.62,0.068 1.215,0.12 1.78,0.157c1.012,0.065 1.913,0.099 2.687,0.11c1.698,0.023 2.708,-0.038 2.708,-0.038c0.121,0.017 0.232,-0.068 0.249,-0.188c0.017,-0.121 -0.067,-0.232 -0.188,-0.249Z"/><path d="M108.784,50.476c-0,0 0.576,0.187 1.692,0.391c0.48,0.088 1.035,0.17 1.689,0.229c0.419,0.038 0.868,0.057 1.349,0.062c0.628,0.006 1.305,-0.029 2.02,-0.054c3.118,-0.111 6.966,-0.293 10.77,-0.474c8.188,-0.389 16.153,-0.825 16.153,-0.825c0.122,-0.003 0.219,-0.104 0.216,-0.225c-0.002,-0.122 -0.103,-0.219 -0.225,-0.217c0,0 -7.976,-0.118 -16.173,-0.18c-3.808,-0.029 -7.66,-0.058 -10.78,-0.044c-0.716,0.003 -1.393,-0.004 -2.021,0.027c-0.48,0.023 -0.929,0.06 -1.345,0.115c-0.652,0.085 -1.202,0.19 -1.679,0.297c-1.107,0.248 -1.675,0.457 -1.675,0.457c-0.122,0.003 -0.219,0.103 -0.216,0.225c0.002,0.122 0.103,0.219 0.225,0.216Z"/><path d="M134.349,45.48c0,-0.543 -0.441,-0.983 -0.984,-0.983l-14.785,-0c-0.543,-0 -0.984,0.44 -0.984,0.983l0,1.968c0,0.543 0.441,0.984 0.984,0.984l14.785,0c0.543,0 0.984,-0.441 0.984,-0.984l0,-1.968Z" style="fill:#fff;"/><path d="M134.57,45.48c0.078,-0.36 -0.049,-0.683 -0.234,-0.97c-0.208,-0.324 -0.565,-0.482 -0.971,-0.57c0,0 -0.861,-0.181 -2.218,-0.335c-0.342,-0.038 -0.712,-0.064 -1.108,-0.084c-0.354,-0.017 -0.725,-0.022 -1.109,-0.023c-4.357,-0.01 -10.35,0.175 -10.35,0.175c-0.496,0.012 -0.947,0.209 -1.265,0.542c-0.315,0.33 -0.518,0.774 -0.507,1.265c-0,0 0.045,1.968 0.045,1.968c0.012,0.474 0.201,0.904 0.519,1.208c0.315,0.3 0.739,0.493 1.208,0.481c-0,0 14.785,-0.386 14.785,-0.386c0.357,-0.01 0.679,-0.157 0.906,-0.397c0.223,-0.237 0.363,-0.555 0.354,-0.906c-0,0 -0.055,-1.968 -0.055,-1.968Zm-0.441,0l-0.055,1.968c-0.006,0.193 -0.093,0.363 -0.223,0.486c-0.126,0.119 -0.299,0.185 -0.486,0.179l-14.785,-0.386c-0.075,-0.002 -0.136,-0.045 -0.184,-0.095c-0.044,-0.047 -0.058,-0.114 -0.057,-0.184c0,0 0.045,-1.968 0.045,-1.968c0.002,-0.051 0.035,-0.092 0.07,-0.125c0.032,-0.031 0.079,-0.036 0.126,-0.035c-0,-0 5.993,0.185 10.35,0.176c0.384,-0.001 0.755,-0.007 1.109,-0.024c0.396,-0.019 0.766,-0.045 1.108,-0.084c1.357,-0.153 2.218,-0.335 2.218,-0.335c0.152,-0.033 0.3,-0.071 0.421,0.007c0.156,0.1 0.3,0.225 0.343,0.42Z"/><path d="M136.371,41.707c0,-0.424 -0.344,-0.767 -0.767,-0.767l-18.858,-0c-0.423,-0 -0.767,0.343 -0.767,0.767l0,1.534c0,0.423 0.344,0.767 0.767,0.767l18.858,-0c0.423,-0 0.767,-0.344 0.767,-0.767l0,-1.534Z" style="fill:#fff;"/><path d="M135.604,40.504c-0.032,-0.015 -0.07,-0.027 -0.113,-0.035c-0.172,-0.031 -0.513,-0.105 -1.018,-0.181c-0.458,-0.069 -1.027,-0.141 -1.698,-0.208c-0.437,-0.044 -0.908,-0.085 -1.414,-0.11c-0.45,-0.022 -0.924,-0.028 -1.414,-0.029c-5.556,-0.016 -13.201,0.201 -13.201,0.201c-0.43,0.008 -0.821,0.179 -1.098,0.467c-0.274,0.285 -0.451,0.671 -0.443,1.098c0,-0 0.031,1.534 0.031,1.534c0.009,0.415 0.174,0.792 0.452,1.058c0.275,0.264 0.647,0.435 1.058,0.426c0,0 18.858,-0.43 18.858,-0.43c0.289,-0.007 0.55,-0.125 0.735,-0.319c0.182,-0.192 0.297,-0.45 0.29,-0.735c0,-0 -0.037,-1.534 -0.037,-1.534c0.055,-0.291 -0.054,-0.553 -0.209,-0.78c-0.171,-0.251 -0.457,-0.376 -0.779,-0.436l0,0.013Zm-18.851,1.233c0.25,0.007 7.731,0.217 13.194,0.202c0.49,-0.002 0.964,-0.008 1.414,-0.03c0.506,-0.025 0.977,-0.066 1.414,-0.11c0.671,-0.067 1.24,-0.139 1.698,-0.208c0.727,-0.11 1.131,-0.203 1.131,-0.203c0.11,-0.02 0.219,-0.045 0.305,0.013c0.11,0.075 0.215,0.165 0.242,0.306l-0.038,1.534c-0.003,0.138 -0.066,0.261 -0.159,0.349c-0.091,0.086 -0.215,0.134 -0.35,0.131c0,-0 -18.858,-0.43 -18.858,-0.43l-0.024,-0.05l0.031,-1.504Z"/><path d="M133.757,37.766c-0,-0.435 -0.353,-0.788 -0.788,-0.788l-13.402,0c-0.435,0 -0.788,0.353 -0.788,0.788l0,1.574c0,0.434 0.353,0.787 0.788,0.787l13.402,0c0.435,0 0.788,-0.353 0.788,-0.787l-0,-1.574Z" style="fill:#fff;"/><path d="M132.969,36.453c-0.012,-0.004 -0.026,-0.008 -0.04,-0.011c-0.061,-0.015 -0.176,-0.051 -0.362,-0.089c-0.352,-0.072 -0.899,-0.172 -1.608,-0.26c-0.31,-0.039 -0.645,-0.068 -1.005,-0.088c-0.32,-0.018 -0.657,-0.025 -1.005,-0.026c-3.95,-0.011 -9.382,0.183 -9.382,0.183c-0.441,0.012 -0.841,0.185 -1.123,0.481c-0.278,0.293 -0.46,0.687 -0.449,1.123c0,-0 0.041,1.574 0.041,1.574c0.012,0.42 0.178,0.802 0.461,1.07c0.28,0.264 0.654,0.437 1.07,0.426c-0,-0 13.402,-0.399 13.402,-0.399c0.3,-0.01 0.571,-0.132 0.762,-0.335c0.187,-0.2 0.306,-0.467 0.296,-0.762c0,-0 -0.05,-1.574 -0.05,-1.574c0.075,-0.304 -0.037,-0.573 -0.187,-0.821c-0.17,-0.283 -0.475,-0.408 -0.821,-0.493l0,0.001Zm0.567,1.313l-0.05,1.574c-0.004,0.14 -0.071,0.262 -0.165,0.351c-0.091,0.086 -0.217,0.131 -0.352,0.126c0,0 -13.402,-0.398 -13.402,-0.398l-0.044,-0.079c-0,-0 0.041,-1.574 0.041,-1.574c-0,-0 0.003,0.028 0.003,0.028c-0,0 5.432,0.195 9.382,0.183c0.348,-0.001 0.685,-0.007 1.005,-0.025c0.36,-0.02 0.695,-0.05 1.005,-0.088c0.709,-0.089 1.256,-0.188 1.608,-0.26c0.269,-0.055 0.402,-0.099 0.402,-0.099c0.106,-0.026 0.206,-0.084 0.292,-0.032c0.119,0.072 0.239,0.148 0.275,0.293Z"/></g></svg>