<svg clip-rule="evenodd" fill-rule="evenodd" stroke-miterlimit="10" viewBox="0 0 382 373" xmlns="http://www.w3.org/2000/svg"><path d="m17.88 326.59c-27.93 17.96-22.95 38.91 13.97 41.9s285.32 5.99 299.29 2-22.95-40.9-37.91-40.9-275.35-3-275.35-3z" fill="#cec8c4" fill-rule="nonzero"/><path d="m173.54 316.8c-1.65 0-3.1 1.35-3.23 2.99l-1.57 20.89c-.12 1.65 1.12 3.02 2.77 3.05l61.84 1.11c1.65.03 2.58-1.23 2.07-2.8l-1.71-5.23c-.51-1.57-2.17-3.38-3.69-4.03l-34.49-14.79c-1.52-.65-4.11-1.18-5.76-1.18h-16.23z" fill-rule="nonzero"/><path d="m62.13 246.42h8.07v89.18h-8.07z" fill="#030303"/><path d="m45.51 251.77h8.24v99.76h-8.24z" fill="#030303"/><path d="m128.63 251.77h8.78v99.76h-8.78z" fill="#030303"/><g fill-rule="nonzero"><path d="m62.81 102.79c-5.06 2.1-51.06 11.86-51.06 11.86l21.06 138.49 111.88 2.62 19.86-15.72-74.57-28.29z" fill="#af436e"/><path d="m59.71 188.45s-11.82 24.39-3.98 37.28c6.96 11.43 58.66 19.39 96.44 18.39 0 0-13.65 89.58-11.66 92.56s50.91.69 50.91.69-2.96-90.27-8.93-102.2-58.16-36.29-87.49-39.77c-29.32-3.47-35.29-6.95-35.29-6.95z" fill="#015478"/><path d="m173.52 321.18 20.38-2.49s14.91-92.96 4.47-96.93c-10.44-3.98-55.68-27.84-75.06-26.35s-.99 35.29-.99 35.29l48.22 9.94z" fill="#015478"/><path d="m165.92 115.72s28.01-14.69 31.91-13.42 22.01 7.95 22.01 7.95l-7.2 14.26-15.38-2.62s-16.15 9.82-27.84 6-3.5-12.17-3.5-12.17z" fill="#f9d4bb"/><path d="m189.24 107.51s10.98-2.83 13.85-.49c2.87 2.35.55 5.9.55 5.9s-11.94 2.67-13.27 1.93-1.13-7.34-1.13-7.34z" fill="#f9d4bb"/><path d="m162.53 112.11 9.98 17.96s-20.74 61.93-42.12 60-47.66-95.92-47.66-95.92l19.89 2.82s13.69 2.53 16.15 11.08c2.46 8.54 15.83 45.96 15.83 45.96z" fill="#caa674"/><path d="m65.14 89.87 37.71 36.84-10.83-32.05s3.85-10.55 6.25-19.18-21.62-24.94-21.62-24.94l-21.58 22.06z" fill="#f9d4bb"/><path d="m67.25 55.78c17.36 23.01-16.55 79.52-36.73 53.28-22.74-29.56 23.97-46.67 23.97-46.67-22.97-38.08 12.76-57.22 13.56-57.22.81 0 17.32-11.99 34.32 2.76 14.28 12.39 15.34 28.06 11.71 36.54"/><path d="m106.67 81.24c-4.7.2-28.48 4.51-35.38-20.28 0 0-13.72 1.53-12.51-9.92 1.21-11.44 11.3-3.81 11.3-3.81s20.99-2.67 32.29-20.98c.56-.91 1.7-1.23 2.33-.88 12.6 7.15 6.36 26.41 6.36 26.05 0-.38 8.25 5.3 6.92 7.97-.86 1.73-4.13 3.09-4.94 3.09s-.6 5.48-.6 5.48-3.06 13.17-5.77 13.28z" fill="#f9d4bb"/><path d="m119.83 166.58 3.48 28.83-62.13-18.89 13.92-56.17 17.39.5 24.36 25.35z" fill="#caa674"/><path d="m112.58 194.74s14.7-2.53 18.92-1.11 16.47 10.27 17.78 16.11-37.51-6.36-37.51-6.36z" fill="#f9d4bb"/><path d="m70.97 90.26c-47.89 40.9-19.69 51.72-19.17 85.7.05 3.18 16.96 20.95 16.96 20.95l47.89 9.98 3.1-20.21s-44-8.09-46.7-10.88-.87-43.81-.87-43.81l31.5-4.92z" fill="#caa674"/></g><path d="m252.37 195.91h15.96v131.69h-15.96z"/><path d="m321.54 359.52h-117.74l48.57-31.93h15.96z" fill-rule="nonzero"/><path d="m177.12 153.16h173.98l30.32 38.28-226.67 1.98z" fill="#caa674" fill-rule="nonzero"/><path d="m155.74 190.94h224.19v14.42h-224.19z" fill="#8b745b"/><path d="m150.93 338.08c-1.65 0-3.1 1.35-3.23 2.99l-1.57 20.89c-.12 1.65 1.12 3.02 2.77 3.05l61.84 1.11c1.65.03 2.58-1.23 2.07-2.8l-1.71-5.23c-.51-1.57-2.17-3.38-3.69-4.03l-34.49-14.79c-1.52-.65-4.11-1.18-5.76-1.18h-16.23z" fill-rule="nonzero"/><ellipse cx="102.3" cy="48.88" rx="2.31" ry="5.69"/><path d="m190.6 169.99c-.22 11.5 42.79 15.7 46.72-1.63 2.77-12.19-46.45-12.13-46.72 1.63z" fill="#015478" fill-rule="nonzero"/><path d="m191.75 167.8c-.48 12.91 45.67 15.05 46.59.16.69-11.12-46.11-12.96-46.59-.16z" fill="#3a829b" fill-rule="nonzero"/><ellipse cx="214.47" cy="167.85" fill="#015478" rx="13.04" ry="5.57"/><path d="m298.04 177.14s1.15 3.24 0 4.96c-1.15 1.73-48.79 3.41-49.37 1.29-1.42-5.22 4.96-10.88 6.89-11.44 2.35-.68 31.21-.99 35.59 0 5.74 1.3 6.89 5.19 6.89 5.19z" fill="#015478" fill-rule="nonzero"/><path d="m256.19 174.56s32.44-.48 33.97 0c2.04.64 5.57 2.3 5.57 3.62s-44.37 3.07-44 1.32 4.46-4.94 4.46-4.94z" fill="#fff" fill-rule="nonzero"/><path d="m203.39 102.15c-12.09-4.42-18 17.66.68 15.25v-4.01s-7.8.59-7.49-3.72c.23-3.3 5.03-3.38 6.74-3.13.24.03.07-4.39.07-4.39z" fill="#3a829b" fill-rule="nonzero"/><path d="m202.88 98.36s14.55-12.09 28.92.64l-5 8.89s-21.35.63-21.51-.31c-.17-.93-2.41-9.22-2.41-9.22z" fill="#015478" fill-rule="nonzero"/><ellipse cx="217.16" cy="104.51" rx="10.28" ry="5.31"/><path d="m202.87 98.39.94 21.22s12.13 11.14 26.9.17c.19-.14 1.07-20.8 1.07-20.8s-15.46 11.1-28.38-.21c-.17-.14-.37-.23-.53-.38z" fill="#3a829b" fill-rule="nonzero"/><path d="m210.26 67.72c-1.43-.32 4.59 5.39 4.37 8.91-.48 7.72-12.62 3.73-11.92 10.72.45 4.52 6.28 9.51 10.06 10.96 3.78 1.44 3.53 1.39 3.53 1.39s-8.79-6.98-6.03-10.89c3.55-5.05 10.3-2.06 12.27-7.28 2.15-5.65-1.59-11.41-12.28-13.81z" fill="#fff" fill-rule="nonzero" stroke="#bdccd4" stroke-width="3"/></svg>