<?xml version="1.0" encoding="UTF-8" standalone="no"?><!DOCTYPE svg PUBLIC "-//W3C//DTD SVG 1.1//EN" "http://www.w3.org/Graphics/SVG/1.1/DTD/svg11.dtd"><svg width="100%" height="100%" viewBox="0 0 293 285" version="1.1" xmlns="http://www.w3.org/2000/svg" xmlns:xlink="http://www.w3.org/1999/xlink" xml:space="preserve" xmlns:serif="http://www.serif.com/" style="fill-rule:evenodd;clip-rule:evenodd;stroke-miterlimit:10;"><rect id="inhouse" x="0" y="0" width="291.884" height="284.562" style="fill:none;"/><clipPath id="_clip1"><rect x="0" y="0" width="291.884" height="284.562"/></clipPath><g clip-path="url(#_clip1)"><g id="inhouse1" serif:id="inhouse"><path d="M14.414,250.231c-21.38,13.74 -17.56,29.78 10.69,32.07c28.25,2.29 218.35,4.58 229.04,1.53c10.69,-3.05 -17.56,-31.3 -29.01,-31.3c-11.45,-0.01 -210.72,-2.3 -210.72,-2.3Z" style="fill:#cec8c4;fill-rule:nonzero;"/><g><path d="M134.254,242.731c-1.65,-0 -3.1,1.35 -3.23,2.99l-1.1,14.58c-0.12,1.65 1.12,3.02 2.77,3.05l45.92,0.82c1.65,0.03 2.58,-1.23 2.07,-2.8l-0.87,-2.67c-0.51,-1.57 -2.17,-3.38 -3.69,-4.03l-25.1,-10.76c-1.52,-0.65 -4.11,-1.18 -5.76,-1.18l-11.01,-0Z" style="fill-rule:nonzero;"/></g><g><rect x="48.284" y="188.871" width="6.17" height="68.25" style="fill:#030303;"/><rect x="35.564" y="192.971" width="6.3" height="76.35" style="fill:#030303;"/><rect x="99.174" y="192.971" width="6.72" height="76.35" style="fill:#030303;"/><path d="M48.804,78.951c-3.88,1.6 -39.08,9.07 -39.08,9.07l16.12,105.99l85.62,2l15.2,-12.03l-57.07,-21.65l-20.79,-83.38Z" style="fill:#af436e;fill-rule:nonzero;"/></g><path d="M46.434,144.511c-0,-0 -9.05,18.66 -3.04,28.53c5.33,8.75 44.89,14.84 73.8,14.08c-0,-0 -10.44,68.55 -8.92,70.83c1.52,2.28 38.96,0.53 38.96,0.53c-0,-0 -2.27,-69.08 -6.83,-78.21c-4.56,-9.13 -44.51,-27.77 -66.95,-30.43c-22.44,-2.66 -27.02,-5.33 -27.02,-5.33Z" style="fill:#015478;fill-rule:nonzero;"/><path d="M133.534,246.081l15.6,-1.9c-0,-0 11.41,-71.14 3.42,-74.18c-7.99,-3.04 -42.61,-21.3 -57.44,-20.16c-14.84,1.14 -0.76,27.01 -0.76,27.01l36.9,7.61l2.28,61.62Z" style="fill:#015478;fill-rule:nonzero;"/><path d="M127.714,88.841c-0,-0 21.44,-11.24 24.42,-10.27c2.98,0.97 16.84,6.09 16.84,6.09l-5.51,10.92l-11.77,-2c-0,-0 -12.36,7.51 -21.3,4.59c-8.95,-2.93 -2.68,-9.33 -2.68,-9.33Z" style="fill:#f9d4bb;fill-rule:nonzero;"/><g><path d="M157.384,78.461c-9.26,-3.38 -13.78,13.52 0.52,11.67l-0,-3.07c-0,-0 -5.97,0.45 -5.73,-2.85c0.18,-2.53 3.85,-2.59 5.16,-2.4c0.18,0.03 0.05,-3.35 0.05,-3.35Z" style="fill:#015478;fill-rule:nonzero;"/><path d="M157.994,76.561c-0,-0 9.13,-9.25 20.13,0.49l-2.83,5.8c-0,-0 -16.34,0.48 -16.46,-0.24c-0.12,-0.71 -0.84,-6.05 -0.84,-6.05Z" style="fill:#fff;fill-rule:nonzero;stroke:#bdccd4;stroke-width:2px;"/><ellipse cx="167.924" cy="80.271" rx="7.87" ry="4.07"/><path d="M156.994,75.581l0.72,16.24c-0,-0 9.28,8.52 20.58,0.13c0.14,-0.11 0.82,-15.92 0.82,-15.92c-0,-0 -11.83,8.49 -21.72,-0.16c-0.13,-0.1 -0.28,-0.17 -0.4,-0.29Z" style="fill:#015478;fill-rule:nonzero;"/></g><path d="M162.974,42.351c-1.09,-0.25 3.51,4.12 3.34,6.82c-0.37,5.91 -9.65,2.85 -9.12,8.2c0.35,3.46 4.81,7.28 7.7,8.38c2.89,1.1 2.7,1.07 2.7,1.07c-0,-0 -6.72,-5.34 -4.62,-8.34c2.72,-3.87 7.88,-1.58 9.39,-5.57c1.65,-4.32 -1.21,-8.72 -9.39,-10.56Z" style="fill:#fff;fill-rule:nonzero;stroke:#bdccd4;stroke-width:2px;"/><path d="M145.554,82.561c-0,-0 8.4,-2.17 10.6,-0.37c2.2,1.8 0.42,4.51 0.42,4.51c-0,-0 -9.14,2.05 -10.15,1.48c-1.01,-0.57 -0.87,-5.62 -0.87,-5.62Z" style="fill:#f9d4bb;fill-rule:nonzero;"/><path d="M125.124,86.081l7.63,13.74c-0,-0 -15.87,47.4 -32.24,45.92c-16.36,-1.48 -36.47,-73.4 -36.47,-73.4l15.22,2.16c-0,-0 10.47,1.94 12.36,8.48c1.89,6.54 12.12,35.18 12.12,35.18l21.38,-32.08Z" style="fill:#caa674;fill-rule:nonzero;"/><path d="M50.584,69.071l28.86,28.2l-8.29,-24.53c-0,-0 2.95,-8.07 4.78,-14.68c1.84,-6.61 -16.54,-19.09 -16.54,-19.09l-16.52,16.88l7.71,13.22Z" style="fill:#f9d4bb;fill-rule:nonzero;"/><path d="M52.204,42.981c13.28,17.61 -12.67,60.86 -28.11,40.78c-17.4,-22.62 18.35,-35.72 18.35,-35.72c-17.58,-29.14 9.76,-43.79 10.38,-43.79c0.62,-0 13.25,-9.17 26.26,2.12c10.92,9.48 11.74,21.48 8.96,27.96" style="fill-rule:nonzero;"/><path d="M82.364,62.461c-3.6,0.15 -21.79,3.45 -27.08,-15.52c-0,-0 -10.5,1.17 -9.58,-7.59c0.92,-8.76 8.65,-2.92 8.65,-2.92c-0,-0 16.06,-2.04 24.71,-16.06c0.43,-0.7 1.3,-0.94 1.78,-0.67c9.65,5.47 4.87,20.21 4.87,19.94c-0,-0.29 6.31,4.06 5.29,6.1c-0.66,1.32 -3.16,2.36 -3.78,2.36c-0.62,-0 -0.46,4.2 -0.46,4.2c-0,-0 -2.32,10.08 -4.4,10.16Z" style="fill:#f9d4bb;fill-rule:nonzero;"/><path d="M92.444,127.771l2.66,22.06l-47.55,-14.45l10.65,-42.99l13.32,0.38l18.64,19.4l2.28,15.6Z" style="fill:#caa674;fill-rule:nonzero;"/><path d="M86.894,149.321c-0,-0 11.25,-1.94 14.48,-0.85c3.22,1.09 12.61,7.86 13.61,12.33c1,4.47 -28.71,-4.87 -28.71,-4.87l0.62,-6.61Z" style="fill:#f9d4bb;fill-rule:nonzero;"/><path d="M55.044,69.361c-36.65,31.3 -15.07,39.58 -14.67,65.58c0.04,2.44 12.98,16.03 12.98,16.03l36.65,7.63l2.37,-15.47c-0,-0 -33.67,-6.19 -35.74,-8.32c-2.07,-2.13 -0.66,-33.52 -0.66,-33.52l24.11,-3.76l-25.04,-28.17Z" style="fill:#caa674;fill-rule:nonzero;"/><g><rect x="193.864" y="150.211" width="12.22" height="100.78"/><path d="M246.804,275.421l-90.1,-0l37.16,-24.43l12.22,-0l40.72,24.43Z" style="fill-rule:nonzero;"/><path d="M136.284,117.501l133.14,-0l23.21,29.29l-173.47,1.52l17.12,-30.81Z" style="fill:#caa674;fill-rule:nonzero;"/><rect x="119.924" y="146.411" width="171.57" height="11.03" style="fill:#8b745b;"/></g><g><path d="M116.944,259.011c-1.65,-0 -3.1,1.35 -3.23,2.99l-1.1,14.58c-0.12,1.65 1.12,3.02 2.77,3.05l45.92,0.82c1.65,0.03 2.58,-1.23 2.07,-2.8l-0.87,-2.67c-0.51,-1.57 -2.17,-3.38 -3.69,-4.03l-25.1,-10.76c-1.52,-0.65 -4.11,-1.18 -5.76,-1.18l-11.01,-0Z" style="fill-rule:nonzero;"/></g><ellipse cx="79.024" cy="37.691" rx="1.77" ry="4.35"/><path d="M147.484,128.701c-0.37,9.88 34.95,11.52 35.66,0.12c0.52,-8.5 -35.3,-9.91 -35.66,-0.12Z" style="fill:#015478;fill-rule:nonzero;"/><g><path d="M228.814,135.851c-0,-0 0.88,2.48 -0,3.8c-0.88,1.32 -37.34,2.61 -37.78,0.99c-1.08,-3.99 3.8,-8.33 5.27,-8.75c1.8,-0.52 23.89,-0.76 27.24,-0c4.4,0.98 5.27,3.96 5.27,3.96Z" style="fill:#015478;fill-rule:nonzero;"/><path d="M196.794,133.881c-0,-0 24.82,-0.37 26,-0c1.56,0.49 4.26,1.76 4.26,2.77c-0,1.01 -33.95,2.35 -33.67,1.01c0.28,-1.35 3.41,-3.78 3.41,-3.78Z" style="fill:#fff;fill-rule:nonzero;"/></g></g></g></svg>