<?xml version="1.0" encoding="UTF-8" standalone="no"?><!DOCTYPE svg PUBLIC "-//W3C//DTD SVG 1.1//EN" "http://www.w3.org/Graphics/SVG/1.1/DTD/svg11.dtd"><svg width="100%" height="100%" viewBox="0 0 201 201" version="1.1" xmlns="http://www.w3.org/2000/svg" xmlns:xlink="http://www.w3.org/1999/xlink" xml:space="preserve" xmlns:serif="http://www.serif.com/" style="fill-rule:evenodd;clip-rule:evenodd;stroke-linejoin:round;stroke-miterlimit:2;"><rect id="kasse" x="0.224" y="0.932" width="200" height="200" style="fill:none;"/><path d="M105.964,162.113c-3.029,-0.635 -14.885,-3.113 -28.771,-5.925c-4.102,-0.831 -8.384,-1.679 -12.668,-2.521c-2.119,-0.417 -4.239,-0.832 -6.34,-1.232c-5.171,-0.985 -10.215,-1.925 -14.816,-2.763c-12.164,-2.215 -21.202,-3.769 -21.202,-3.769c-0.149,-0.03 -0.295,0.066 -0.326,0.215c-0.03,0.149 0.066,0.295 0.215,0.325c0,0 8.92,2.127 20.976,4.875c4.559,1.04 9.566,2.159 14.708,3.288c2.089,0.459 4.201,0.911 6.314,1.361c4.269,0.911 8.54,1.815 12.638,2.665c16.114,3.341 29.532,6.019 29.532,6.019c0.26,0.054 0.531,0.02 0.771,-0.096l71.032,-34.463c0.368,-0.177 0.595,-0.559 0.574,-0.967l-4.128,-78.253c-0.019,-0.386 -0.318,-0.7 -0.702,-0.738c-0,-0 -9.046,-0.874 -17.449,2.814c-4.991,2.19 -9.755,5.975 -12.302,12.468c-4.375,11.148 -1.432,21.133 -3.873,32.192c-1.273,5.765 -4.044,11.822 -10.166,18.504c-8.976,9.799 -14.572,12.888 -18.207,14.573c-2.457,1.139 -4.037,1.681 -5.166,3.11c-0.578,0.732 -1.042,1.696 -1.434,3.095c-0.77,2.751 -0.908,6.689 -0.744,10.702c0.239,5.858 1.111,11.873 1.534,14.521Zm0.563,-0.028l70.009,-33.536c-0,-0 -3.59,-76.911 -3.59,-76.911c-2.18,-0.125 -9.318,-0.264 -16.047,2.637c-4.703,2.026 -9.209,5.546 -11.644,11.631c-4.417,11.04 -1.526,20.98 -4.024,31.945c-1.345,5.904 -4.215,12.105 -10.54,18.916c-9.174,9.879 -14.882,12.966 -18.581,14.649c-2.32,1.056 -3.833,1.516 -4.905,2.854c-0.533,0.665 -0.953,1.547 -1.32,2.822c-0.772,2.688 -0.923,6.545 -0.791,10.476c0.198,5.874 1.035,11.911 1.433,14.517Z"/><path d="M173.724,50.637c0,-0 -4.616,-0.798 -11.632,-1.872c-2.458,-0.377 -5.207,-0.776 -8.156,-1.185c-1.14,-0.158 -2.308,-0.31 -3.501,-0.463c-2.116,-0.271 -4.306,-0.549 -6.541,-0.813c-3.217,-0.38 -6.524,-0.736 -9.824,-1.099c-19.233,-2.12 -38.219,-4.148 -38.219,-4.148c-0.089,-0.01 -0.178,-0.009 -0.267,0.003c0,-0 -6.549,0.91 -12.475,4.85c-3.481,2.314 -6.746,5.662 -8.387,10.453c-1.462,4.27 -1.589,8.307 -1.606,12.396c-0.017,3.869 0.063,7.785 -0.925,12.007c-0.996,4.255 -3.083,8.82 -7.441,13.972c-9.779,11.566 -24.669,15.523 -33.641,21.25c-3.271,2.088 -5.772,4.409 -7.021,7.371c-1.585,3.758 -2.247,7.404 -2.425,10.59c-0.353,6.293 1.178,10.788 1.178,10.788c0.048,0.144 0.204,0.223 0.349,0.175c0.144,-0.049 0.222,-0.205 0.174,-0.349c0,-0 -1.437,-4.418 -1.014,-10.571c0.214,-3.108 0.904,-6.659 2.497,-10.307c1.22,-2.796 3.64,-4.95 6.768,-6.893c9.139,-5.678 24.202,-9.549 34.228,-21.119c4.618,-5.333 6.839,-10.09 7.931,-14.527c1.069,-4.342 1.046,-8.38 1.108,-12.369c0.061,-3.893 0.2,-7.738 1.637,-11.788c1.531,-4.324 4.534,-7.314 7.709,-9.377c5.065,-3.294 10.587,-4.241 11.512,-4.382c1.733,0.204 19.775,2.336 38.053,4.436c3.298,0.379 6.602,0.767 9.823,1.112c2.237,0.239 4.434,0.455 6.557,0.661c1.198,0.116 2.371,0.228 3.517,0.327c2.966,0.257 5.735,0.479 8.215,0.658c7.08,0.513 11.757,0.761 11.757,0.761c0.152,0.017 0.288,-0.092 0.305,-0.243c0.017,-0.152 -0.092,-0.288 -0.243,-0.305Z"/><path d="M48.911,117.662c0,0 0.933,0.407 2.685,0.973c0.766,0.247 1.666,0.512 2.717,0.774c0.678,0.169 1.412,0.323 2.198,0.468c1.03,0.191 2.147,0.345 3.326,0.522c5.14,0.773 11.495,1.67 17.776,2.555c13.519,1.907 26.688,3.692 26.688,3.692c0.15,0.024 0.292,-0.078 0.317,-0.228c0.024,-0.15 -0.078,-0.292 -0.228,-0.316c-0,-0 -13.059,-2.469 -26.487,-4.933c-6.24,-1.145 -12.552,-2.303 -17.673,-3.194c-1.174,-0.205 -2.283,-0.412 -3.32,-0.556c-0.791,-0.111 -1.537,-0.196 -2.234,-0.251c-1.079,-0.084 -2.017,-0.117 -2.822,-0.124c-1.841,-0.017 -2.854,0.074 -2.854,0.074c-0.151,-0.024 -0.292,0.078 -0.317,0.228c-0.024,0.15 0.078,0.292 0.228,0.316Z"/><path d="M53.911,114.385c-0,-0 0.932,0.406 2.684,0.972c0.766,0.248 1.666,0.513 2.717,0.774c0.678,0.169 1.413,0.323 2.198,0.469c1.03,0.19 2.147,0.344 3.326,0.522c5.14,0.772 11.495,1.669 17.777,2.555c13.518,1.906 26.687,3.691 26.687,3.691c0.151,0.025 0.292,-0.077 0.317,-0.228c0.024,-0.15 -0.078,-0.292 -0.228,-0.316c-0,0 -13.059,-2.469 -26.487,-4.933c-6.24,-1.145 -12.552,-2.302 -17.673,-3.194c-1.174,-0.204 -2.283,-0.411 -3.32,-0.556c-0.791,-0.111 -1.537,-0.196 -2.234,-0.25c-1.079,-0.084 -2.017,-0.117 -2.822,-0.125c-1.841,-0.016 -2.854,0.074 -2.854,0.074c-0.15,-0.024 -0.292,0.078 -0.316,0.228c-0.025,0.151 0.077,0.292 0.228,0.317Z"/><path d="M59.565,111.419c0,-0 0.933,0.406 2.685,0.972c0.766,0.248 1.666,0.513 2.717,0.774c0.678,0.169 1.412,0.324 2.198,0.469c1.03,0.19 2.147,0.345 3.326,0.522c5.14,0.772 11.495,1.669 17.776,2.555c13.519,1.906 26.688,3.692 26.688,3.692c0.15,0.024 0.292,-0.078 0.317,-0.228c0.024,-0.151 -0.078,-0.292 -0.229,-0.317c0,0 -13.058,-2.469 -26.486,-4.933c-6.24,-1.144 -12.552,-2.302 -17.673,-3.194c-1.174,-0.204 -2.283,-0.411 -3.321,-0.556c-0.791,-0.11 -1.536,-0.196 -2.233,-0.25c-1.079,-0.084 -2.017,-0.117 -2.822,-0.125c-1.841,-0.016 -2.854,0.074 -2.854,0.074c-0.151,-0.024 -0.292,0.078 -0.317,0.229c-0.024,0.15 0.078,0.291 0.228,0.316Z"/><path d="M65.296,108.567c-0,-0 0.933,0.406 2.684,0.972c0.766,0.248 1.666,0.513 2.717,0.774c0.679,0.169 1.413,0.323 2.198,0.469c1.03,0.19 2.148,0.344 3.326,0.521c5.14,0.773 11.495,1.67 17.777,2.556c13.518,1.906 26.688,3.691 26.688,3.691c0.15,0.025 0.292,-0.077 0.316,-0.228c0.024,-0.15 -0.078,-0.292 -0.228,-0.316c-0,-0 -13.059,-2.469 -26.486,-4.933c-6.24,-1.145 -12.553,-2.303 -17.673,-3.194c-1.175,-0.204 -2.284,-0.411 -3.321,-0.556c-0.791,-0.111 -1.536,-0.196 -2.233,-0.25c-1.08,-0.085 -2.018,-0.118 -2.822,-0.125c-1.842,-0.016 -2.855,0.074 -2.855,0.074c-0.15,-0.024 -0.292,0.078 -0.316,0.228c-0.025,0.151 0.078,0.292 0.228,0.317Z"/><path d="M67.717,104.686c0,-0 0.933,0.406 2.685,0.972c0.766,0.248 1.666,0.513 2.717,0.774c0.678,0.169 1.412,0.323 2.198,0.469c1.03,0.19 2.147,0.344 3.326,0.521c5.14,0.773 11.495,1.67 17.777,2.556c13.518,1.906 26.687,3.691 26.687,3.691c0.151,0.025 0.292,-0.077 0.317,-0.228c0.024,-0.15 -0.078,-0.292 -0.228,-0.316c-0,-0 -13.059,-2.469 -26.487,-4.933c-6.24,-1.145 -12.552,-2.303 -17.673,-3.194c-1.174,-0.204 -2.283,-0.411 -3.32,-0.556c-0.791,-0.111 -1.537,-0.196 -2.234,-0.25c-1.079,-0.085 -2.017,-0.118 -2.822,-0.125c-1.841,-0.016 -2.854,0.074 -2.854,0.074c-0.15,-0.024 -0.292,0.078 -0.317,0.228c-0.024,0.151 0.078,0.292 0.228,0.317Z"/><path d="M85.266,59.703c-0.075,-0.007 -0.149,0.017 -0.206,0.066c-0.057,0.049 -0.092,0.119 -0.096,0.194c0,-0 -0.431,2.805 -0.867,6.419c-0.243,2.02 -0.48,4.279 -0.681,6.43c-0.144,1.535 -0.259,3.009 -0.349,4.292c-0.178,2.524 -0.256,4.297 -0.256,4.297c-0.036,0.67 0.464,1.249 1.132,1.31l46.487,3.921c0.253,0.023 0.504,-0.059 0.695,-0.227c0.191,-0.167 0.305,-0.405 0.315,-0.659l0.656,-21.286c0.015,-0.389 -0.275,-0.721 -0.662,-0.759l-46.168,-3.998Zm0.261,0.583l45.072,4.799c-0,0 -0.963,19.607 -0.963,19.607c0,-0 -44.265,-4.346 -44.265,-4.346c0.042,-0.759 0.097,-1.838 0.147,-3.107c0.052,-1.285 0.099,-2.763 0.125,-4.305c0.036,-2.159 0.049,-4.431 0.029,-6.465c-0.029,-2.949 -0.114,-5.37 -0.145,-6.183l-0,-0Z"/><path d="M134.566,50.92c-0,-0 1.777,0.414 4.23,0.868c1.296,0.24 2.762,0.484 4.245,0.701c1.162,0.17 2.326,0.316 3.407,0.433c2.866,0.31 5.127,0.458 5.127,0.458c0.487,0.043 0.954,-0.205 1.191,-0.633c0.238,-0.427 0.201,-0.955 -0.093,-1.346c0,0 -3.414,-4.39 -1.778,-8.876c0.815,-2.234 2.877,-4.44 7.079,-6.219c6.476,-2.755 11.484,1.128 15.18,6.958c5.02,7.917 7.634,19.481 7.852,24.889c0.048,1.168 0.016,2.029 -0.167,2.456c-0,0 -5.339,-1.514 -5.339,-1.514c-0.146,-0.044 -0.3,0.039 -0.344,0.185c-0.043,0.145 0.039,0.299 0.185,0.343l5.556,1.755c0.134,0.041 0.28,-0.001 0.374,-0.106c0.521,-0.567 0.699,-2.885 0.353,-6.132c-0.655,-6.145 -2.982,-15.731 -7.141,-22.694c-4.042,-6.769 -9.818,-11.005 -17.291,-8.047c-5.028,2 -7.425,4.689 -8.444,7.319c-1.32,3.41 -0.299,6.827 0.694,8.967c-0.796,-0.069 -1.747,-0.146 -2.779,-0.216c-1.085,-0.073 -2.256,-0.131 -3.43,-0.167c-1.498,-0.045 -2.985,-0.059 -4.302,-0.049c-2.495,0.02 -4.317,0.117 -4.317,0.117c-0.151,-0.013 -0.285,0.099 -0.299,0.251c-0.013,0.152 0.099,0.285 0.251,0.299Z"/><path d="M153.313,37.541c0.365,0.099 0.584,0.23 0.94,0.344c0.301,0.096 0.542,0.203 0.845,0.292c0.182,0.053 0.349,0.116 0.535,0.157c0.176,0.039 0.353,0.072 0.532,0.103c1.046,0.179 2.099,0.463 3.108,0.942c1.006,0.477 1.979,1.078 2.879,1.797c2.732,2.183 4.823,5.273 5.271,8.262c0.013,0.152 0.146,0.264 0.298,0.251c0.152,-0.013 0.264,-0.147 0.251,-0.298c-0.098,-3.921 -2.695,-8.343 -6.251,-11.055c-1.215,-0.927 -2.55,-1.637 -3.93,-2.071c-0.442,-0.139 -0.89,-0.256 -1.343,-0.312c-0.199,-0.025 -0.397,-0.043 -0.596,-0.035c-0.235,0.01 -0.458,0.026 -0.686,0.081c-0.358,0.087 -0.667,0.161 -0.993,0.334c-0.391,0.207 -0.632,0.384 -0.978,0.67c-0.148,0.032 -0.243,0.179 -0.21,0.328c0.032,0.148 0.179,0.243 0.328,0.21Z"/><path d="M134.59,50.645c0,0 -3.549,-14.646 11.59,-17.499c9.54,-1.798 19.247,1.879 19.247,1.879c-14.063,-0.702 -18.681,4.98 -13.744,17.121" style="fill:#fff;"/><path d="M134.858,50.58c0,0 -0.07,-1.433 0.172,-3.482c0.081,-0.691 0.198,-1.439 0.368,-2.236c0.181,-0.852 0.454,-1.733 0.798,-2.634c0.306,-0.804 0.673,-1.621 1.17,-2.407c1.554,-2.461 4.276,-4.631 9.021,-5.578c3.252,-0.663 6.534,-0.664 9.42,-0.392c1.462,0.137 2.823,0.344 4.029,0.572c-3.951,0.475 -6.776,1.687 -8.487,3.604c-2.655,2.976 -2.712,7.713 0.079,14.223c0.057,0.141 0.218,0.209 0.359,0.152c0.141,-0.058 0.209,-0.219 0.152,-0.36c-2.375,-6.168 -2.365,-10.587 0.213,-13.272c2.351,-2.447 6.775,-3.377 13.235,-2.938c0.397,0.02 0.75,-0.252 0.831,-0.641c0.081,-0.39 -0.133,-0.78 -0.504,-0.921c-0,0 -4.128,-1.646 -9.694,-2.348c-3.065,-0.387 -6.561,-0.477 -10.047,0.126c-5.614,0.996 -8.872,3.546 -10.71,6.441c-0.607,0.956 -1.075,1.949 -1.377,2.952c-0.323,1.073 -0.482,2.142 -0.533,3.153c-0.045,0.902 -0.022,1.745 0.074,2.51c0.275,2.182 0.895,3.606 0.895,3.606c0.036,0.148 0.185,0.239 0.333,0.203c0.148,-0.036 0.239,-0.185 0.203,-0.333Z"/><path d="M27.483,123.92c-0.079,-0.012 -0.16,0.011 -0.221,0.064c-0.061,0.053 -0.096,0.13 -0.095,0.211c0,-0 -0.278,4.848 -0.453,9.715c-0.174,4.857 -0.244,9.713 -0.244,9.713c0.005,0.549 0.4,1.018 0.94,1.116c0,0 2.204,0.47 5.864,1.168c2.391,0.456 5.405,0.994 8.822,1.609c21.464,3.858 58.865,10.432 58.865,10.432c0.284,0.052 0.576,-0.031 0.791,-0.224c0.215,-0.194 0.327,-0.476 0.306,-0.764l-1.834,-22.155c-0.028,-0.367 -0.306,-0.666 -0.67,-0.72l-72.071,-10.165Zm0.26,0.598l70.954,11.028c-0,0 1.418,20.345 1.418,20.345c-6.507,-1.231 -38.39,-7.259 -57.574,-10.814c-3.413,-0.633 -6.424,-1.194 -8.821,-1.612c-2.288,-0.399 -4.015,-0.681 -4.992,-0.837c-0.059,-1.658 -0.193,-5.195 -0.383,-8.733c-0.221,-4.112 -0.516,-8.21 -0.602,-9.377l-0,0Z"/></svg>