<?xml version="1.0" encoding="UTF-8" standalone="no"?><!DOCTYPE svg PUBLIC "-//W3C//DTD SVG 1.1//EN" "http://www.w3.org/Graphics/SVG/1.1/DTD/svg11.dtd"><svg width="100%" height="100%" viewBox="0 0 356 348" version="1.1" xmlns="http://www.w3.org/2000/svg" xmlns:xlink="http://www.w3.org/1999/xlink" xml:space="preserve" xmlns:serif="http://www.serif.com/" style="fill-rule:evenodd;clip-rule:evenodd;stroke-miterlimit:10;"><rect id="kitchen" x="0" y="0" width="355.073" height="347.906" style="fill:none;"/><clipPath id="_clip1"><rect x="0" y="0" width="355.073" height="347.906"/></clipPath><g clip-path="url(#_clip1)"><g id="kitchen1" serif:id="kitchen"><path d="M263.348,188.056c-3,31.11 -3.69,57.18 -3.69,57.18l-40.45,0.98c0,0 6.63,-26.54 2.67,-32.84c-3.96,-6.29 41.47,-25.32 41.47,-25.32Z" style="fill:#f9d4bb;fill-rule:nonzero;"/><path d="M278.978,145.176c0,0 -1.05,20.95 -4.67,24.67c0,0 18.02,-11.08 18.02,7.7c0,9.07 -6.5,17.94 -10.18,18.3c-6.14,0.6 -12.1,-2.92 -12.1,-2.92c0,0 -5.92,31.76 -38.18,33.7c-32.26,1.94 -36.3,-44.13 -36.46,-45.15c-1.26,-8.01 7.94,-49.58 25.52,-51.3c17.58,-1.72 54.98,-4.47 58.05,15Z" style="fill:#f9d4bb;fill-rule:nonzero;"/><path d="M230.65,164.107c0.389,-4.276 2.324,-7.601 4.319,-7.419c1.996,0.181 3.3,3.8 2.911,8.076c-0.388,4.277 -2.324,7.601 -4.319,7.42c-1.995,-0.181 -3.3,-3.8 -2.911,-8.077Z"/><path d="M204.185,162.042c0.389,-4.277 2.324,-7.601 4.319,-7.42c1.996,0.181 3.3,3.8 2.911,8.077c-0.388,4.276 -2.324,7.601 -4.319,7.419c-1.995,-0.181 -3.299,-3.8 -2.911,-8.076Z"/><path d="M210.898,171.866c0,0 -25.68,-5.6 -28.39,-0.35c-2.71,5.25 7.17,17.36 22.35,18.19" style="fill:#f9d4bb;fill-rule:nonzero;"/><path d="M212.268,196.306c-1.49,-4.22 5.52,-6.8 9.47,-6.83c3.95,-0.03 6.83,6.32 8.62,8.73c2.51,3.37 5.87,3.82 12.22,-1.93c6.35,-5.75 -2.03,8.03 -7.72,9.52c-5.71,1.5 -19.02,0.63 -22.59,-9.49Z" style="fill:#693f11;fill-rule:nonzero;"/><path d="M210.758,197.036c1.74,-4.12 -5.09,-7.12 -9.03,-7.39c-3.94,-0.27 -7.2,5.89 -9.14,8.19c-2.71,3.21 -6.09,3.46 -12.08,-2.66c-5.98,-6.12 1.54,8.14 7.13,9.97c5.6,1.83 18.94,1.77 23.12,-8.11Z" style="fill:#693f11;fill-rule:nonzero;"/><path d="M261.378,137.956c2.94,6.13 0.32,18.73 -0.05,24.72c-0.37,5.99 4.3,10.52 4.3,10.52l4.7,0.58l3.99,-3.92c0,0 11.16,-33.61 4.98,-43.62c-6.18,-10.01 -17.56,-11.07 -17.56,-11.07l-39.34,1.26c0,0 -12.67,11.55 -21.27,3.03c-8.59,-8.53 -4.47,21.79 4.53,20.37c9,-1.42 55.72,-1.87 55.72,-1.87Z" style="fill:#693f11;fill-rule:nonzero;"/><g><path d="M218.198,120.286c0,0 39.89,16.32 65.27,12.32l12.44,-47.15c0,0 47.28,-6.04 26.77,-38.46c-13.89,-21.96 -34.52,2.8 -34.52,2.8c0,0 9.73,-23.77 -7.46,-32.36c-17.19,-8.6 -42.39,18 -40.83,27.93c0,0 -15.45,-27.1 -31.36,-5.23c-16.73,22.99 20.09,34.15 20.09,34.15l-10.4,46Z" style="fill:#fff;fill-rule:nonzero;stroke:#bdccd4;stroke-width:3px;"/><path d="M230.568,112.686l6.22,-17.95" style="fill:none;fill-rule:nonzero;stroke:#bdccd4;stroke-width:3px;"/><path d="M247.068,116.866l7.58,-27.17" style="fill:none;fill-rule:nonzero;stroke:#bdccd4;stroke-width:3px;"/><path d="M265.678,122.996l4.07,-24.39" style="fill:none;fill-rule:nonzero;stroke:#bdccd4;stroke-width:3px;"/></g><path d="M150.468,333.506c-3.99,-113.73 197.53,-133.68 189.55,0" style="fill:#fff;fill-rule:nonzero;stroke:#015478;stroke-width:3px;"/><g><path d="M239.718,244.016c0,0 -16.99,61.18 -8.25,84.58" style="fill:#fff;fill-rule:nonzero;stroke:#015478;stroke-width:3px;"/><path d="M215.913,281.646c3.527,-0.191 6.555,2.701 6.758,6.454c0.203,3.753 -2.496,6.955 -6.023,7.146c-3.527,0.19 -6.555,-2.702 -6.758,-6.455c-0.203,-3.752 2.496,-6.954 6.023,-7.145Z"/><path d="M210.922,308.065c3.527,-0.19 6.555,2.702 6.758,6.454c0.203,3.753 -2.496,6.955 -6.023,7.146c-3.527,0.191 -6.555,-2.701 -6.758,-6.454c-0.203,-3.753 2.496,-6.955 6.023,-7.146Z"/><path d="M234.056,238.613c4.277,-0.231 7.988,4.015 8.284,9.476c0.295,5.462 -2.937,10.083 -7.213,10.315c-4.277,0.231 -7.989,-4.015 -8.284,-9.476c-0.295,-5.462 2.937,-10.083 7.213,-10.315Z"/><path d="M240.378,240.736c13.24,-7.02 9.63,8.68 14.17,20.66c3.04,8.02 15.11,13.66 15.11,13.66c0,0 -24.83,9.66 -28.94,-10.05c-4.11,-19.71 -0.34,-24.27 -0.34,-24.27Z" style="fill-rule:nonzero;"/><path d="M235.138,238.516c0,0 -52.42,-5.59 -21.48,36.47c0.01,0 0.16,-23.9 21.48,-36.47Z" style="fill-rule:nonzero;"/></g><g><path d="M42.128,261.556l-11.29,4.09l41.58,1.93l11.02,-3.87l-41.31,-2.15Z" style="fill-rule:nonzero;"/><g><path d="M61.108,336.456l35.46,-11.31l8.06,-10.88l-0.47,-54.17l-48.21,8.12l-9.8,53.48l14.96,14.76Z" style="fill-rule:nonzero;"/><path d="M0.288,306.896c-1.11,-30.47 22.47,-50.01 46.19,-50.01c23.72,0 57.75,2.96 57.75,2.96c0,0 -44.66,11.82 -43.12,54.21l0,22.4l-60.82,-7.41l0,-22.15Z" style="fill:#898989;fill-rule:nonzero;"/><path d="M45.378,260.326c0,0 -24.61,4.51 -31.31,25.21l38.79,4.12c0,0 10.83,-22.67 31.98,-26.66c19.76,-3.73 -39.46,-2.67 -39.46,-2.67Z" style="fill-rule:nonzero;"/></g><g><path d="M100.868,215.396c0,0 22.77,-8.36 20.9,39.23l-10.74,-9.35l-8.9,4.38l-6.55,-7.78l-7.54,5.84l0.05,-31.37l12.78,-0.95Z" style="fill:#bdccd4;fill-rule:nonzero;"/><path d="M46.868,263.296c0,0 -5.85,-42.91 19.27,-50.03l34.94,2.71c0,0 -32.83,13.33 -24.54,49.13" style="fill:#fff;fill-rule:nonzero;stroke:#bdccd4;stroke-width:3px;"/><path d="M52.018,253.226l16.63,1.14" style="fill:none;fill-rule:nonzero;stroke:#898989;stroke-width:3px;"/><path d="M53.248,241.796l15.79,1.15" style="fill:none;fill-rule:nonzero;stroke:#898989;stroke-width:3px;"/><path d="M56.478,231.466l15.8,1.15" style="fill:none;fill-rule:nonzero;stroke:#898989;stroke-width:3px;"/><path d="M62.128,222.126l16.63,1.15" style="fill:none;fill-rule:nonzero;stroke:#898989;stroke-width:3px;"/></g></g></g></g></svg>