<?xml version="1.0" encoding="UTF-8" standalone="no"?><!DOCTYPE svg PUBLIC "-//W3C//DTD SVG 1.1//EN" "http://www.w3.org/Graphics/SVG/1.1/DTD/svg11.dtd"><svg width="100%" height="100%" viewBox="0 0 201 201" version="1.1" xmlns="http://www.w3.org/2000/svg" xmlns:xlink="http://www.w3.org/1999/xlink" xml:space="preserve" xmlns:serif="http://www.serif.com/" style="fill-rule:evenodd;clip-rule:evenodd;stroke-linejoin:round;stroke-miterlimit:2;"><rect id="kueche" x="0.54" y="0.83" width="200" height="200" style="fill:none;"/><clipPath id="_clip1"><rect x="0.54" y="0.83" width="200" height="200"/></clipPath><g clip-path="url(#_clip1)"><path d="M130.155,161.268c-1.666,-0.24 -6.108,-0.867 -11.238,-1.505c-1.661,-0.206 -3.395,-0.404 -5.131,-0.586c-2.977,-0.31 -5.95,-0.594 -8.573,-0.811c-4.942,-0.408 -8.601,-0.607 -8.601,-0.607c-0.15,-0.02 -0.289,0.086 -0.309,0.237c-0.021,0.151 0.086,0.29 0.236,0.31c0,0 3.584,0.767 8.459,1.669c2.588,0.479 5.532,0.984 8.486,1.465c1.723,0.28 3.448,0.543 5.105,0.779c6.513,0.928 11.943,1.581 11.943,1.581c0.29,0.038 0.583,-0.028 0.828,-0.186l33.252,-21.768c0.3,-0.194 0.474,-0.532 0.456,-0.889l-1.49,-26.437c-0.02,-0.403 -0.331,-0.73 -0.732,-0.77c0,0 -9.049,-0.839 -17.435,2.885c-4.964,2.204 -9.699,5.992 -12.209,12.474c-2.254,5.822 -3.303,11.555 -3.698,16.592c-0.569,7.241 0.207,13.037 0.651,15.567Zm0.558,-0.15l32.334,-20.644c-0,-0 -1.064,-25.159 -1.064,-25.159c-2.216,-0.134 -9.318,-0.287 -16.029,2.57c-4.729,2.014 -9.265,5.529 -11.736,11.626c-2.307,5.691 -3.421,11.314 -3.889,16.262c-0.673,7.105 -0.013,12.819 0.384,15.345Z"/><path d="M162.788,114.285c-0,-0 -1.908,-0.415 -4.967,-0.931c-1.311,-0.221 -2.821,-0.45 -4.483,-0.672c-0.956,-0.127 -1.957,-0.249 -2.996,-0.351c-2.765,-0.274 -5.772,-0.48 -8.766,-0.707c-10.299,-0.781 -20.469,-1.457 -20.469,-1.457c-0.073,-0.006 -0.147,-0.004 -0.219,0.006c-0,0 -6.526,0.943 -12.406,4.91c-3.434,2.317 -6.65,5.653 -8.242,10.412c-1.299,3.889 -2.155,8.54 -2.71,13.116c-1.233,10.17 -0.997,19.947 -0.997,19.947c0.002,0.153 0.127,0.275 0.279,0.273c0.152,-0.001 0.275,-0.126 0.273,-0.278c-0,-0 0.028,-9.723 1.521,-19.797c0.663,-4.471 1.613,-9.011 2.985,-12.79c1.579,-4.357 4.633,-7.355 7.854,-9.418c5.14,-3.293 10.727,-4.2 11.599,-4.325c1.099,0.103 10.653,1.006 20.335,1.835c2.992,0.256 5.993,0.535 8.766,0.709c1.042,0.065 2.05,0.106 3.014,0.133c1.676,0.048 3.203,0.064 4.533,0.056c3.102,-0.018 5.051,-0.121 5.051,-0.121c0.152,0.012 0.285,-0.101 0.297,-0.253c0.013,-0.152 -0.1,-0.285 -0.252,-0.297Z"/><path d="M123.638,114.569c0,-0 1.777,0.414 4.23,0.868c1.296,0.24 2.762,0.484 4.245,0.701c1.163,0.17 2.326,0.316 3.407,0.433c2.867,0.31 5.127,0.458 5.127,0.458c0.487,0.043 0.954,-0.205 1.192,-0.633c0.237,-0.427 0.201,-0.955 -0.093,-1.346c-0,0 -3.414,-4.39 -1.778,-8.876c0.815,-2.234 2.877,-4.44 7.079,-6.219c6.476,-2.755 11.483,1.128 15.179,6.958c5.02,7.917 7.635,19.481 7.853,24.889c0.047,1.168 0.016,2.029 -0.168,2.456c0,0 -5.339,-1.514 -5.339,-1.514c-0.146,-0.044 -0.3,0.039 -0.343,0.184c-0.044,0.146 0.039,0.3 0.185,0.344l5.555,1.755c0.135,0.041 0.281,-0.001 0.374,-0.106c0.521,-0.567 0.699,-2.885 0.353,-6.132c-0.655,-6.145 -2.981,-15.731 -7.14,-22.694c-4.043,-6.769 -9.818,-11.005 -17.292,-8.047c-5.028,2 -7.425,4.689 -8.443,7.319c-1.321,3.41 -0.3,6.826 0.693,8.967c-0.796,-0.069 -1.747,-0.146 -2.779,-0.216c-1.084,-0.073 -2.256,-0.131 -3.43,-0.167c-1.498,-0.045 -2.984,-0.059 -4.302,-0.049c-2.495,0.02 -4.317,0.117 -4.317,0.117c-0.151,-0.013 -0.285,0.099 -0.298,0.251c-0.014,0.152 0.099,0.285 0.25,0.299Z"/><path d="M142.385,101.19c0.365,0.099 0.584,0.23 0.94,0.344c0.301,0.096 0.543,0.203 0.845,0.292c0.182,0.053 0.35,0.116 0.535,0.157c0.176,0.039 0.354,0.072 0.533,0.103c1.046,0.179 2.098,0.463 3.107,0.942c1.006,0.477 1.98,1.078 2.879,1.797c2.733,2.183 4.823,5.273 5.271,8.262c0.013,0.152 0.147,0.264 0.298,0.251c0.152,-0.013 0.265,-0.147 0.251,-0.298c-0.098,-3.921 -2.694,-8.343 -6.25,-11.055c-1.216,-0.927 -2.551,-1.637 -3.93,-2.071c-0.443,-0.139 -0.89,-0.256 -1.344,-0.312c-0.198,-0.025 -0.397,-0.044 -0.596,-0.035c-0.235,0.01 -0.458,0.026 -0.686,0.081c-0.358,0.087 -0.666,0.161 -0.992,0.334c-0.392,0.207 -0.633,0.384 -0.978,0.67c-0.149,0.032 -0.243,0.179 -0.211,0.328c0.032,0.148 0.179,0.243 0.328,0.21Z"/><path d="M123.662,114.294c0,0 -3.548,-14.646 11.59,-17.499c9.54,-1.798 19.248,1.879 19.248,1.879c-14.063,-0.702 -18.682,4.98 -13.744,17.121" style="fill:#fff;"/><path d="M123.93,114.229c0,0 -0.069,-1.433 0.172,-3.482c0.082,-0.691 0.198,-1.439 0.368,-2.236c0.182,-0.852 0.454,-1.733 0.798,-2.634c0.307,-0.804 0.674,-1.621 1.17,-2.407c1.554,-2.461 4.277,-4.631 9.021,-5.578c3.253,-0.663 6.534,-0.664 9.421,-0.392c1.461,0.137 2.822,0.344 4.028,0.572c-3.95,0.475 -6.776,1.687 -8.487,3.604c-2.655,2.976 -2.711,7.713 0.079,14.223c0.057,0.141 0.218,0.209 0.359,0.152c0.141,-0.058 0.209,-0.219 0.152,-0.36c-2.375,-6.168 -2.364,-10.587 0.213,-13.272c2.351,-2.447 6.775,-3.377 13.235,-2.938c0.398,0.02 0.75,-0.252 0.831,-0.641c0.082,-0.39 -0.132,-0.78 -0.504,-0.921c-0,0 -4.128,-1.646 -9.694,-2.348c-3.065,-0.387 -6.561,-0.477 -10.047,0.126c-5.613,0.996 -8.872,3.546 -10.71,6.441c-0.606,0.956 -1.075,1.949 -1.377,2.952c-0.323,1.073 -0.482,2.142 -0.532,3.153c-0.046,0.902 -0.022,1.745 0.074,2.51c0.274,2.182 0.894,3.606 0.894,3.606c0.036,0.148 0.185,0.239 0.333,0.203c0.148,-0.036 0.239,-0.185 0.203,-0.333Z"/><path d="M117.114,143.81c-0.078,-0.008 -0.156,0.018 -0.213,0.07c-0.058,0.053 -0.091,0.127 -0.091,0.205c-0,0 -0.244,0.685 -0.495,1.79c-0.127,0.563 -0.239,1.192 -0.335,1.88c-0.037,0.266 -0.062,0.533 -0.081,0.805c-0.03,0.453 -0.043,0.906 -0.047,1.342c-0.017,1.709 0.049,3.13 0.049,3.13c0.002,0.565 0.395,1.054 0.947,1.176l9.795,1.893c0.282,0.063 0.577,-0.008 0.801,-0.192c0.223,-0.183 0.35,-0.459 0.343,-0.748l-0.555,-10.12c-0.007,-0.308 -0.242,-0.562 -0.548,-0.593l-9.57,-0.638Zm0.357,0.606l8.536,1.169c0,0 -0.089,8.395 -0.089,8.395c-0,0 -7.576,-1.887 -7.576,-1.887c0.012,-0.569 0.02,-1.348 0.007,-2.198c-0.006,-0.435 -0.021,-0.888 -0.054,-1.341c-0.02,-0.272 -0.047,-0.539 -0.085,-0.805c-0.1,-0.687 -0.214,-1.316 -0.345,-1.878c-0.15,-0.647 -0.297,-1.15 -0.394,-1.455l0,-0Z"/><ellipse cx="26.401" cy="27.966" rx="58.58" ry="15.514" style="fill:#fff;"/><path d="M26.401,12.177c-17.468,-0.094 -33.176,1.85 -43.956,5.003c-5.436,1.59 -9.63,3.497 -12.2,5.592c-1.991,1.624 -3.026,3.387 -3.036,5.194c-0.009,1.814 1.018,3.59 2.999,5.24c2.555,2.129 6.743,4.085 12.18,5.736c10.774,3.272 26.501,5.38 44.013,5.467c17.54,0.076 33.31,-1.895 44.131,-5.074c5.529,-1.625 9.787,-3.586 12.399,-5.722c2.151,-1.761 3.233,-3.691 3.24,-5.647c0.007,-1.96 -1.07,-3.899 -3.215,-5.678c-2.602,-2.158 -6.858,-4.15 -12.39,-5.806c-3.222,-0.964 -6.881,-1.845 -10.903,-2.542c-3.44,-0.596 -7.145,-1.071 -11.058,-1.406c-3.546,-0.304 -7.259,-0.494 -11.106,-0.551c-3.601,-0.054 -7.305,0.032 -11.098,0.194Zm0,0.551c3.775,0.161 7.451,0.438 11.023,0.748c3.796,0.329 7.456,0.725 10.952,1.181c3.836,0.5 7.466,1.077 10.845,1.718c3.913,0.741 7.49,1.552 10.636,2.487c5.143,1.528 9.13,3.303 11.56,5.294c1.483,1.215 2.369,2.461 2.374,3.81c0.006,1.756 -1.413,3.343 -3.77,4.883c-3.53,2.306 -9.128,4.319 -16.169,5.919c-10.121,2.299 -23.187,3.719 -37.451,3.783c-14.28,0.069 -27.374,-1.228 -37.527,-3.438c-7.122,-1.55 -12.787,-3.539 -16.37,-5.835c-2.572,-1.648 -4.06,-3.408 -4.07,-5.312c-0.01,-1.912 1.462,-3.697 4.027,-5.378c3.57,-2.34 9.23,-4.397 16.356,-6.026c10.155,-2.32 23.268,-3.756 37.584,-3.834Z"/><path d="M-10.045,144.729c-0,0 4.391,0.923 11.353,1.973c2.545,0.384 5.428,0.779 8.567,1.137c2.702,0.309 5.59,0.589 8.605,0.818c13.712,1.042 30,1.335 43.256,-0.34c7.215,-0.912 13.543,-2.452 18.117,-4.814c4.645,-2.399 7.522,-5.662 7.923,-9.927c0.838,-8.972 0.786,-25.386 0.365,-42.696c-0.744,-30.544 -2.62,-63.879 -2.62,-63.879c-0.008,-0.152 -0.137,-0.27 -0.289,-0.262c-0.152,0.007 -0.27,0.137 -0.262,0.289c0,0 1.435,33.34 1.8,63.877c0.206,17.231 0.076,33.566 -0.865,42.485c-0.382,3.64 -2.977,6.313 -6.966,8.32c-4.421,2.224 -10.527,3.598 -17.471,4.416c-13.134,1.546 -29.231,0.931 -42.814,0.05c-3,-0.194 -5.879,-0.386 -8.577,-0.567c-3.139,-0.21 -6.029,-0.403 -8.586,-0.577c-7.002,-0.479 -11.457,-0.849 -11.457,-0.849c-0.15,-0.022 -0.29,0.083 -0.312,0.233c-0.022,0.151 0.082,0.291 0.233,0.313Z"/></g></svg>