<?xml version="1.0" encoding="UTF-8" standalone="no"?><!DOCTYPE svg PUBLIC "-//W3C//DTD SVG 1.1//EN" "http://www.w3.org/Graphics/SVG/1.1/DTD/svg11.dtd"><svg width="100%" height="100%" viewBox="0 0 200 201" version="1.1" xmlns="http://www.w3.org/2000/svg" xmlns:xlink="http://www.w3.org/1999/xlink" xml:space="preserve" xmlns:serif="http://www.serif.com/" style="fill-rule:evenodd;clip-rule:evenodd;stroke-linejoin:round;stroke-miterlimit:2;"><rect id="mastercard" x="0" y="0.532" width="200" height="200" style="fill:none;"/><g><ellipse cx="69.902" cy="94.929" rx="43.786" ry="42.452" style="fill:#fff;"/><path d="M69.902,51.98c-12.137,-0.111 -23.181,4.534 -31.271,12.122c-8.322,7.804 -13.511,18.724 -13.616,30.827c-0.106,12.185 4.967,23.251 13.208,31.253c8.113,7.878 19.305,12.77 31.679,12.871c12.446,0.093 23.764,-4.691 32.045,-12.489c8.514,-8.017 13.804,-19.227 13.883,-31.635c0.039,-9.931 -3.241,-19.151 -8.911,-26.565c-1.442,-1.885 -3.035,-3.656 -4.781,-5.272c-2.076,-1.922 -4.346,-3.652 -6.792,-5.125c-3.583,-2.157 -7.5,-3.832 -11.668,-4.865c-4.391,-1.088 -9.011,-1.458 -13.776,-1.122Zm0,0.993c4.564,0.321 8.859,1.378 12.916,2.9c3.719,1.395 7.172,3.238 10.339,5.459c2.124,1.489 4.108,3.143 5.939,4.947c1.529,1.505 2.953,3.108 4.248,4.811c5.083,6.685 8.166,14.903 8.201,23.839c0.072,11.258 -4.634,21.469 -12.257,28.85c-7.536,7.296 -17.909,11.844 -29.386,11.93c-11.549,0.094 -22.056,-4.323 -29.75,-11.547c-7.89,-7.407 -12.833,-17.753 -12.933,-29.233c-0.101,-11.564 4.709,-22.064 12.525,-29.661c7.723,-7.507 18.372,-12.188 30.158,-12.295Z"/><ellipse cx="129.858" cy="95.278" rx="43.786" ry="42.452" style="fill:#fff;"/><path d="M129.858,52.329c-12.137,-0.111 -23.18,4.535 -31.271,12.123c-8.321,7.804 -13.51,18.723 -13.616,30.826c-0.106,12.186 4.968,23.251 13.208,31.253c8.113,7.878 19.305,12.77 31.679,12.871c12.447,0.093 23.764,-4.691 32.045,-12.488c8.515,-8.018 13.804,-19.228 13.883,-31.636c0.039,-9.931 -3.24,-19.15 -8.911,-26.565c-1.441,-1.884 -3.035,-3.656 -4.78,-5.272c-2.077,-1.922 -4.346,-3.652 -6.793,-5.125c-3.583,-2.156 -7.5,-3.831 -11.668,-4.865c-4.391,-1.088 -9.011,-1.458 -13.776,-1.122Zm0,0.993c4.564,0.321 8.86,1.378 12.916,2.9c3.719,1.395 7.173,3.238 10.34,5.459c2.123,1.489 4.107,3.143 5.938,4.947c1.529,1.505 2.953,3.108 4.248,4.811c5.083,6.685 8.167,14.904 8.202,23.839c0.072,11.258 -4.634,21.469 -12.258,28.85c-7.536,7.296 -17.908,11.844 -29.386,11.93c-11.549,0.094 -22.056,-4.323 -29.75,-11.547c-7.889,-7.407 -12.833,-17.753 -12.933,-29.233c-0.101,-11.564 4.71,-22.064 12.525,-29.661c7.724,-7.507 18.372,-12.187 30.158,-12.295Z"/></g></svg>