<svg clip-rule="evenodd" fill-rule="evenodd" stroke-miterlimit="10" viewBox="0 0 285 300" xmlns="http://www.w3.org/2000/svg"><path d="m243.87 272.57c0 2.75-2.25 5-5 5h-29.1c-2.75 0-5-2.25-5-5v-28.65c0-2.75 2.25-5 5-5h29.1c2.75 0 5 2.25 5 5z" fill="none" stroke="#c6b2b0" stroke-width="4"/><path d="m214.33 253.62 11.49 11.13 23.52-47.03" fill="none" stroke="#015478" stroke-width="7"/><g fill-rule="nonzero"><path d="m.59 187.31c-.92 47.6 177.02 64.95 193.29-6.73 11.45-50.44-192.19-50.21-193.29 6.73z" fill="#015478"/><path d="m5.35 178.24c-2 53.4 188.95 62.26 192.77.65 2.85-46-190.79-53.6-192.77-.65z" fill="#3a829b"/><path d="m47.88 171.81c12.72 37.21 108.67 37.74 105-12.92-2.29-31.68-116.12-19.63-105 12.92z" fill="#015478"/><path d="m53.82 112.85c-44.32-15.16-65.97 60.63 2.5 52.36v-13.78s-28.57 2.04-27.45-12.78c.86-11.33 18.43-11.62 24.72-10.76.86.11.23-15.04.23-15.04z" fill="#3a829b"/><path d="m51.93 99.84s53.32-41.49 105.99 2.2l-18.32 30.53s-78.25 2.15-78.84-1.07c-.59-3.23-8.83-31.66-8.83-31.66z" fill="#015478"/></g><ellipse cx="104.28" cy="120.95" rx="37.67" ry="18.24"/><path d="m51.92 99.92 3.44 72.85s44.44 38.24 98.57.59c.68-.48 3.91-71.4 3.91-71.4s-56.66 38.11-104-.72c-.6-.47-1.34-.81-1.92-1.32z" fill="#3a829b" fill-rule="nonzero"/><path d="m87.81 15.23c-4.25-.89 13.66 15.03 13.01 24.86-1.43 21.53-37.57 10.39-35.49 29.89 1.34 12.6 18.71 26.53 29.96 30.56 11.26 4.03 10.52 3.89 10.52 3.89s-26.17-19.46-17.96-30.39c10.58-14.09 30.66-5.75 36.55-20.3 6.38-15.75-4.76-31.81-36.59-38.51z" fill="#fff" fill-rule="nonzero" stroke="#bdccd4" stroke-width="3"/></svg>