<?xml version="1.0" encoding="UTF-8" standalone="no"?><!DOCTYPE svg PUBLIC "-//W3C//DTD SVG 1.1//EN" "http://www.w3.org/Graphics/SVG/1.1/DTD/svg11.dtd"><svg width="100%" height="100%" viewBox="0 0 264 297" version="1.1" xmlns="http://www.w3.org/2000/svg" xmlns:xlink="http://www.w3.org/1999/xlink" xml:space="preserve" xmlns:serif="http://www.serif.com/" style="fill-rule:evenodd;clip-rule:evenodd;stroke-miterlimit:10;"><rect id="order" x="0.601" y="0" width="261.948" height="295.685" style="fill:none;"/><clipPath id="_clip1"><rect x="0.601" y="0" width="261.948" height="295.685"/></clipPath><g clip-path="url(#_clip1)"><g id="order1" serif:id="order"><path d="M191.088,251.18l12.36,9.82l24.54,-39.86" style="fill:none;fill-rule:nonzero;stroke:#015478;stroke-width:7px;"/><path d="M1.218,187.67c-0.92,47.6 177.02,64.95 193.29,-6.73c11.44,-50.43 -192.19,-50.21 -193.29,6.73Z" style="fill-rule:nonzero;"/><path d="M5.978,178.61c-2,53.4 188.95,62.26 192.77,0.65c2.84,-46 -190.79,-53.6 -192.77,-0.65Z" style="fill:#015478;fill-rule:nonzero;"/><path d="M48.508,172.17c12.72,37.21 108.67,37.74 105,-12.92c-2.29,-31.67 -116.12,-19.63 -105,12.92Z" style="fill-rule:nonzero;"/><path d="M54.448,113.21c-44.32,-15.16 -65.97,60.63 2.5,52.36l0,-13.78c0,-0 -28.57,2.04 -27.45,-12.78c0.86,-11.33 18.43,-11.62 24.72,-10.76c0.85,0.12 0.23,-15.04 0.23,-15.04Z" style="fill:#015478;fill-rule:nonzero;"/><path d="M52.558,100.21c0,-0 53.32,-41.49 105.99,2.2l-18.32,30.53c0,-0 -78.25,2.15 -78.84,-1.07c-0.59,-3.22 -8.83,-31.66 -8.83,-31.66Z" style="fill:#fff;fill-rule:nonzero;stroke:#bdccd4;stroke-width:3px;"/><ellipse cx="104.908" cy="121.32" rx="37.67" ry="18.24"/><path d="M52.548,100.29l3.44,72.85c0,-0 44.44,38.24 98.57,0.59c0.68,-0.48 3.91,-71.4 3.91,-71.4c0,-0 -56.66,38.11 -104,-0.72c-0.6,-0.48 -1.34,-0.81 -1.92,-1.32Z" style="fill:#015478;fill-rule:nonzero;"/><path d="M88.438,15.6c-4.25,-0.89 13.66,15.03 13.01,24.86c-1.43,21.53 -37.57,10.39 -35.49,29.89c1.34,12.6 18.71,26.53 29.96,30.56c11.26,4.03 10.52,3.89 10.52,3.89c0,-0 -26.17,-19.46 -17.96,-30.39c10.58,-14.09 30.66,-5.75 36.55,-20.3c6.38,-15.75 -4.76,-31.81 -36.59,-38.51Z" style="fill:#fff;fill-rule:nonzero;stroke:#bdccd4;stroke-width:3px;"/></g></g></svg>