<svg clip-rule="evenodd" fill-rule="evenodd" stroke-linejoin="round" stroke-miterlimit="2" viewBox="0 0 202 259" xmlns="http://www.w3.org/2000/svg"><g fill-rule="nonzero"><path d="m76.3.12c-9.13 0-17.32 4.03-22.89 10.41 4.67 5.34 7.5 12.32 7.5 19.97s-2.83 14.63-7.5 19.97c5.57 6.38 13.75 10.41 22.89 10.41 16.78 0 30.38-13.6 30.38-30.38s-13.6-30.38-30.38-30.38z" fill="#ba5c8b"/><path d="m53.41 10.53c-5.57-6.38-13.75-10.41-22.89-10.41-16.78 0-30.38 13.6-30.38 30.38s13.6 30.38 30.38 30.38c9.13 0 17.32-4.03 22.89-10.41-4.67-5.34-7.5-12.32-7.5-19.97 0-7.64 2.84-14.63 7.5-19.97z" fill="#015478"/><path d="m53.41 10.53c-4.67 5.34-7.5 12.32-7.5 19.97s2.83 14.63 7.5 19.97c4.67-5.34 7.5-12.32 7.5-19.97 0-7.64-2.83-14.63-7.5-19.97z" fill="#812a93"/><path d="m76.58 79.33c.08-.38.15-.73.23-1.11h17c.96 0 1.85.21 2.66.73 1.1.71 1.77 1.73 2.06 2.99.2.86.34 1.73.51 2.6.38 1.99.75 3.98 1.12 5.97.36 1.91.72 3.82 1.08 5.73.39 2.08.78 4.16 1.17 6.24.13.67.25 1.34.38 2.02.01.05.03.09.09.15.03-.08.07-.16.1-.24 1.31-3.31 2.62-6.62 3.93-9.93 2.11-5.33 4.22-10.67 6.34-16 .11-.28.07-.26.37-.26h10.29c-5.45 13-10.88 25.95-16.32 38.92h-10.64c-.02-.07-.05-.14-.07-.22-1.4-5.42-2.8-10.83-4.21-16.25-1.28-4.96-2.56-9.91-3.85-14.86-.11-.41-.25-.81-.4-1.21-.26-.66-.7-1.17-1.28-1.56-.66-.44-1.36-.77-2.08-1.08-1.99-.86-4.05-1.5-6.14-2.05-.7-.18-1.41-.34-2.12-.51-.05-.02-.11-.04-.22-.07z" fill="#015478"/><path d="m136.96 115.69c.61-2.84 1.21-5.65 1.82-8.49.11.04.2.08.28.12.94.44 1.89.87 2.88 1.22 1.28.45 2.59.76 3.94.93 1.06.13 2.13.2 3.2.18 1.24-.02 2.46-.21 3.62-.69.53-.22 1.02-.5 1.44-.89.64-.58 1.01-1.3 1.04-2.17.03-.65-.16-1.24-.54-1.76-.28-.39-.63-.72-1-1.01-.74-.58-1.54-1.05-2.37-1.49-1.03-.54-2.07-1.05-3.09-1.6-1.34-.73-2.6-1.58-3.72-2.61-1.13-1.03-2.06-2.21-2.66-3.62-.55-1.29-.74-2.64-.65-4.04.08-1.33.37-2.61.9-3.83.86-1.99 2.22-3.59 3.95-4.89 1.65-1.23 3.5-2.07 5.47-2.64 1.19-.34 2.4-.58 3.63-.72 1.1-.13 2.21-.19 3.32-.18 3.09.04 6.08.62 8.98 1.67.05.02.09.04.16.07-.59 2.73-1.17 5.46-1.76 8.2-.1-.04-.18-.07-.26-.1-1.7-.76-3.48-1.27-5.32-1.53-1.22-.18-2.44-.23-3.67-.15-.93.06-1.84.22-2.7.59-.56.24-1.08.54-1.49.99-.2.23-.39.48-.53.75-.4.79-.35 1.56.13 2.3.26.4.59.72.96 1.02.63.51 1.33.93 2.04 1.31 1.18.64 2.37 1.26 3.55 1.91 1.26.69 2.47 1.46 3.57 2.4.73.62 1.39 1.3 1.94 2.08.99 1.39 1.54 2.93 1.65 4.63.16 2.7-.43 5.2-1.93 7.47-1.07 1.62-2.48 2.88-4.13 3.87-1.67 1-3.47 1.67-5.36 2.1-1.25.29-2.51.47-3.78.57-1.49.12-2.99.11-4.48 0-2.24-.16-4.44-.51-6.6-1.11-.74-.21-1.47-.45-2.17-.75-.08-.03-.16-.07-.26-.11z" fill="#015478"/><path d="m138.34 78.24c-2.78 12.99-5.55 25.94-8.32 38.9h-10.02c-.03-.18 8.23-38.61 8.32-38.9z" fill="#015478"/><path d="m123.64 78.22h-10c-.3 0-.26-.02-.37.26-2.11 5.33-4.22 10.67-6.34 16-1.31 3.31-2.62 6.62-3.93 9.93-.03.08-.07.16-.1.24-.06-.06-.08-.1-.09-.15-.13-.67-.25-1.34-.38-2.02-.39-2.08-.78-4.16-1.17-6.24-.36-1.91-.72-3.82-1.08-5.73-.38-1.99-.75-3.98-1.12-5.97-.16-.87-.31-1.74-.51-2.6-.29-1.26-.96-2.28-2.06-2.99-.81-.52-1.71-.73-2.66-.73h-17c-.08.38-.16.73-.23 1.11.1.03.17.05.23.06.71.17 1.41.33 2.12.51 2.09.55 4.15 1.19 6.14 2.05.72.31 1.43.65 2.08 1.08.59.39 1.03.9 1.28 1.56.15.4.3.8.4 1.21 1.29 4.95 2.57 9.91 3.85 14.86 1.4 5.42 2.8 10.83 4.21 16.25.02.08.05.15.07.22h10.64c5.44-12.97 10.87-25.92 16.32-38.92-.14.01-.22.01-.3.01z" fill="#015478"/><path d="m128.31 78.24c-.09.29-8.35 38.72-8.32 38.9h10.02c2.77-12.96 5.55-25.91 8.32-38.9z" fill="#015478"/><path d="m165.66 103.65c-.1-1.7-.66-3.24-1.65-4.63-.56-.78-1.21-1.46-1.94-2.08-1.1-.93-2.31-1.7-3.57-2.4-1.18-.65-2.37-1.27-3.55-1.91-.71-.39-1.41-.8-2.04-1.31-.37-.29-.7-.62-.96-1.02-.48-.74-.53-1.52-.13-2.3.14-.27.33-.52.53-.75.41-.45.93-.76 1.49-.99.86-.37 1.77-.53 2.7-.59 1.23-.08 2.45-.02 3.67.15 1.84.27 3.62.78 5.32 1.53.07.03.15.06.26.1.59-2.74 1.17-5.47 1.76-8.2-.07-.03-.11-.05-.16-.07-2.9-1.05-5.89-1.63-8.98-1.67-1.11-.01-2.22.05-3.32.18-1.23.14-2.44.37-3.63.72-1.97.57-3.82 1.41-5.47 2.64-1.73 1.29-3.09 2.89-3.95 4.89-.53 1.22-.81 2.5-.9 3.83-.09 1.4.1 2.75.65 4.04.6 1.42 1.53 2.59 2.66 3.62s2.38 1.88 3.72 2.61c1.02.55 2.06 1.06 3.09 1.6.83.43 1.64.9 2.37 1.49.38.3.72.62 1 1.01.38.53.56 1.11.54 1.76-.03.87-.4 1.59-1.04 2.17-.43.38-.92.67-1.44.89-1.16.49-2.37.67-3.62.69-1.07.02-2.14-.05-3.2-.18-1.35-.17-2.66-.48-3.94-.93-.99-.35-1.94-.77-2.88-1.22-.09-.04-.18-.08-.28-.12-.61 2.84-1.21 5.65-1.82 8.49.1.05.17.08.25.11.71.3 1.43.55 2.17.75 2.16.6 4.37.95 6.6 1.11 1.49.11 2.99.12 4.48 0 1.28-.1 2.54-.28 3.78-.57 1.89-.44 3.69-1.1 5.36-2.1 1.65-1 3.06-2.25 4.13-3.87 1.51-2.27 2.11-4.77 1.94-7.47z" fill="#015478"/><path d="m193.21 78.26c-.1-.01-.18-.02-.27-.02h-8.27c-.49 0-.98.05-1.46.2-1.39.45-2.35 1.37-2.91 2.7-3.8 9.07-7.6 18.13-11.4 27.2-1.18 2.82-2.37 5.64-3.55 8.47-.04.1-.08.21-.13.33h10.54c.7-1.93 1.4-3.86 2.1-5.79h12.97c.41 1.93.81 3.86 1.22 5.79h9.28c-2.71-12.98-5.42-25.93-8.12-38.88zm-12.4 25.08c.02-.22 5.16-14.39 5.31-14.58 1.02 4.88 2.03 9.73 3.04 14.57-.23.07-8.14.07-8.35.01z" fill="#015478"/></g><path d="m4.86 147.66h153.77v55.37h-153.77z" fill="#015478"/><path d="m51.59 185.35c0 .6-.43 1.33-.95 1.63l-18.38 10.63c-.53.3-1.38.3-1.9 0l-18.38-10.63c-.53-.3-.95-1.03-.95-1.63v-21.26c0-.6.43-1.33.95-1.63l18.38-10.63c.53-.3 1.38-.3 1.9 0l18.38 10.63c.53.3.95 1.03.95 1.63zm102.02-19.73h-16.45v3.94h5.91v16.82h4.66v-16.82h5.88zm-74.73 0h-16.47v3.94h5.91v16.82h4.66v-16.82h5.91zm47.62-.65c-5.18 0-8.06 3.31-8.06 8.1v13.31h4.61v-13.41c0-2.08 1.23-3.68 3.51-3.68s3.48 1.91 3.48 3.68v13.41h4.61v-13.31c.01-4.79-2.97-8.1-8.15-8.1zm-17.38.65v20.76h4.61v-20.76zm-15.62 8.23.15.93 4.33 11.61h1.88l5.88-20.76h-4.53l-2.8 10.91-.18 1.18-.23-1.18-3.76-10.91h-1.5l-3.76 10.91-.23 1.18-.15-1.18-2.8-10.91h-4.56l5.88 20.76h1.88l4.33-11.61z" fill="#fff" fill-rule="nonzero"/><path d="m40.9 174.77-4.81 7.04-2.45-3.76 2.83-4.24c.53-.75 1.65-2.83.35-5.67-1.05-2.31-3.33-3.41-5.33-3.41s-4.18 1.03-5.36 3.41c-1.33 2.73-.18 4.86.33 5.59 0 0 1.58 2.31 2.88 4.26l2.13 3.08 3.2 4.91c.03.03.53.8 1.43.8.85 0 1.38-.78 1.45-.85l7.51-11.13h-4.16zm-9.43.18s-1.25-1.91-2.08-3.23c-.88-1.43.1-3.56 2.08-3.56s2.95 2.13 2.08 3.56c-.81 1.32-2.08 3.23-2.08 3.23z" fill="#ba5c8b" fill-rule="nonzero"/><path d="m26.86 181.59-4.71-6.62s-1.25-1.91-2.08-3.23c-.88-1.43.1-3.56 2.08-3.56.25 0 .48.03.7.1l1.65-3.03c-.75-.33-1.58-.5-2.33-.5-2 0-4.18 1.03-5.36 3.41-1.33 2.73-.18 4.86.33 5.59l8.24 12.21c.08.1.6.88 1.48.88s1.38-.75 1.45-.85l2.48-3.79-2.13-3.13z" fill="#ba5c8b" fill-rule="nonzero"/><circle cx="80.66" cy="253.28" fill="#015478" r="5.34"/><circle cx="98" cy="253.28" fill="#015478" r="5.34"/><circle cx="115.88" cy="253.28" fill="#015478" r="5.34"/></svg>