<?xml version="1.0" encoding="UTF-8" standalone="no"?><!DOCTYPE svg PUBLIC "-//W3C//DTD SVG 1.1//EN" "http://www.w3.org/Graphics/SVG/1.1/DTD/svg11.dtd"><svg width="100%" height="100%" viewBox="0 0 195 265" version="1.1" xmlns="http://www.w3.org/2000/svg" xmlns:xlink="http://www.w3.org/1999/xlink" xml:space="preserve" xmlns:serif="http://www.serif.com/" style="fill-rule:evenodd;clip-rule:evenodd;stroke-linejoin:round;stroke-miterlimit:2;"><rect id="pay" x="0" y="0" width="193.95" height="264.05" style="fill:none;"/><clipPath id="_clip1"><rect x="0" y="0" width="193.95" height="264.05"/></clipPath><g clip-path="url(#_clip1)"><g id="pay1" serif:id="pay"><g><rect x="13.58" y="153.79" width="153.77" height="55.37" style="fill:#015478;"/><g><path id="Shape1_00000116219441230345891260000011196105261295895687_" d="M60.31,191.49c0,0.6 -0.43,1.33 -0.95,1.63l-18.38,10.63c-0.53,0.3 -1.38,0.3 -1.9,0l-18.38,-10.63c-0.53,-0.3 -0.95,-1.03 -0.95,-1.63l-0,-21.26c-0,-0.6 0.43,-1.33 0.95,-1.63l18.38,-10.63c0.53,-0.3 1.38,-0.3 1.9,0l18.38,10.63c0.53,0.3 0.95,1.03 0.95,1.63l0,21.26Zm102.02,-19.73l-16.45,0l0,3.94l5.91,0l0,16.82l4.66,0l0,-16.82l5.88,0l0,-3.94Zm-74.73,0l-16.47,0l0,3.94l5.91,0l0,16.82l4.66,0l0,-16.82l5.91,0l-0.01,-3.94Zm47.62,-0.65c-5.18,0 -8.06,3.31 -8.06,8.1l0,13.31l4.61,0l0,-13.41c0,-2.08 1.23,-3.68 3.51,-3.68c2.28,0 3.48,1.91 3.48,3.68l0,13.41l4.61,0l0,-13.31c0.01,-4.79 -2.97,-8.1 -8.15,-8.1Zm-17.38,0.65l0,20.76l4.61,0l0,-20.76l-4.61,0Zm-15.62,8.22l0.15,0.93l4.33,11.61l1.88,0l5.88,-20.76l-4.53,0l-2.8,10.91l-0.18,1.18l-0.23,-1.18l-3.76,-10.91l-1.5,0l-3.76,10.91l-0.23,1.18l-0.15,-1.18l-2.8,-10.91l-4.56,0l5.88,20.76l1.88,0l4.33,-11.61l0.17,-0.93" style="fill:#fff;fill-rule:nonzero;"/><path id="Shape2_00000000216123324150194180000009860897486554506636_" d="M49.62,180.91l-4.81,7.04l-2.45,-3.76l2.83,-4.24c0.53,-0.75 1.65,-2.83 0.35,-5.67c-1.05,-2.31 -3.33,-3.41 -5.33,-3.41c-2,0 -4.18,1.03 -5.36,3.41c-1.33,2.73 -0.18,4.86 0.33,5.59c0,0 1.58,2.31 2.88,4.26l2.13,3.08l3.2,4.91c0.03,0.03 0.53,0.8 1.43,0.8c0.85,0 1.38,-0.78 1.45,-0.85l7.51,-11.13l-4.16,0l0,-0.03Zm-9.43,0.17c0,0 -1.25,-1.91 -2.08,-3.23c-0.88,-1.43 0.1,-3.56 2.08,-3.56c1.98,0 2.95,2.13 2.08,3.56c-0.81,1.33 -2.08,3.23 -2.08,3.23Z" style="fill:#ba5c8b;fill-rule:nonzero;"/><path d="M35.58,187.73l-4.71,-6.62c0,0 -1.25,-1.91 -2.08,-3.23c-0.88,-1.43 0.1,-3.56 2.08,-3.56c0.25,0 0.48,0.03 0.7,0.1l1.65,-3.03c-0.75,-0.33 -1.58,-0.5 -2.33,-0.5c-2,0 -4.18,1.03 -5.36,3.41c-1.33,2.73 -0.18,4.86 0.33,5.59l8.24,12.21c0.08,0.1 0.6,0.88 1.48,0.88c0.88,0 1.38,-0.75 1.45,-0.85l2.48,-3.79l-2.13,-3.13l-1.8,2.52Z" style="fill:#ba5c8b;fill-rule:nonzero;"/></g></g><g><circle cx="89.38" cy="259.41" r="5.34" style="fill:#015478;"/><circle cx="106.72" cy="259.41" r="5.34" style="fill:#015478;"/><circle cx="124.6" cy="259.41" r="5.34" style="fill:#015478;"/></g><g><path d="M73.41,0.7c-8.8,0 -16.69,3.89 -22.06,10.04c4.5,5.15 7.23,11.88 7.23,19.25c0,7.37 -2.73,14.1 -7.23,19.25c5.37,6.15 13.26,10.04 22.06,10.04c16.18,0 29.29,-13.11 29.29,-29.29c0,-16.17 -13.11,-29.29 -29.29,-29.29Z" style="fill:#d179aa;fill-rule:nonzero;"/><path d="M51.35,10.74c-5.37,-6.15 -13.26,-10.04 -22.06,-10.04c-16.18,0 -29.29,13.11 -29.29,29.29c0,16.18 13.11,29.29 29.29,29.29c8.8,0 16.69,-3.89 22.06,-10.04c-4.5,-5.15 -7.23,-11.88 -7.23,-19.25c0,-7.37 2.73,-14.1 7.23,-19.25Z" style="fill:#015478;fill-rule:nonzero;"/><path d="M51.35,10.74c-4.5,5.15 -7.23,11.88 -7.23,19.25c0,7.37 2.73,14.1 7.23,19.25c4.5,-5.15 7.23,-11.88 7.23,-19.25c0,-7.37 -2.73,-14.1 -7.23,-19.25Z" style="fill:#af436e;fill-rule:nonzero;"/></g><g id="hK2UzP_00000019648046823941800650000014669990781893877439_"><g><path d="M73.69,77.05c0.08,-0.36 0.15,-0.71 0.23,-1.07l16.39,0c0.92,0 1.79,0.2 2.57,0.71c1.06,0.69 1.71,1.67 1.99,2.89c0.19,0.83 0.33,1.67 0.49,2.51c0.36,1.92 0.72,3.84 1.08,5.76c0.35,1.84 0.69,3.68 1.04,5.52c0.38,2.01 0.75,4.01 1.13,6.02c0.12,0.65 0.24,1.3 0.37,1.94c0.01,0.04 0.02,0.09 0.08,0.14c0.03,-0.08 0.07,-0.15 0.1,-0.23c1.26,-3.19 2.53,-6.38 3.79,-9.57c2.04,-5.14 4.07,-10.28 6.11,-15.43c0.11,-0.27 0.07,-0.25 0.36,-0.25l9.92,0c-5.25,12.53 -10.49,25.01 -15.73,37.51l-10.25,0c-0.02,-0.07 -0.05,-0.14 -0.07,-0.21c-1.35,-5.22 -2.7,-10.44 -4.05,-15.66c-1.24,-4.78 -2.47,-9.55 -3.71,-14.33c-0.1,-0.4 -0.24,-0.78 -0.39,-1.17c-0.25,-0.63 -0.67,-1.13 -1.24,-1.5c-0.63,-0.42 -1.32,-0.74 -2.01,-1.04c-1.92,-0.83 -3.9,-1.45 -5.92,-1.97c-0.68,-0.18 -1.36,-0.33 -2.04,-0.49c-0.08,-0.03 -0.14,-0.05 -0.24,-0.08Z" style="fill:#015478;fill-rule:nonzero;"/><path d="M131.89,112.1c0.58,-2.73 1.16,-5.44 1.75,-8.18c0.1,0.04 0.19,0.08 0.27,0.12c0.91,0.43 1.83,0.84 2.78,1.17c1.23,0.43 2.5,0.73 3.79,0.9c1.02,0.13 2.05,0.19 3.08,0.17c1.2,-0.02 2.37,-0.2 3.49,-0.67c0.51,-0.21 0.98,-0.49 1.39,-0.86c0.62,-0.56 0.97,-1.25 1.01,-2.09c0.02,-0.62 -0.15,-1.19 -0.52,-1.7c-0.27,-0.37 -0.6,-0.69 -0.96,-0.98c-0.71,-0.56 -1.49,-1.01 -2.29,-1.43c-0.99,-0.52 -2,-1.01 -2.98,-1.54c-1.29,-0.7 -2.5,-1.52 -3.59,-2.51c-1.09,-0.99 -1.99,-2.13 -2.57,-3.49c-0.53,-1.25 -0.71,-2.54 -0.62,-3.89c0.08,-1.28 0.35,-2.51 0.86,-3.69c0.83,-1.92 2.14,-3.46 3.81,-4.71c1.59,-1.19 3.37,-2 5.27,-2.55c1.14,-0.33 2.31,-0.56 3.5,-0.69c1.06,-0.12 2.13,-0.19 3.2,-0.17c2.98,0.03 5.86,0.59 8.66,1.61c0.04,0.02 0.09,0.04 0.15,0.06c-0.56,2.63 -1.13,5.26 -1.7,7.9c-0.1,-0.04 -0.18,-0.07 -0.25,-0.1c-1.64,-0.73 -3.35,-1.22 -5.13,-1.48c-1.17,-0.17 -2.36,-0.23 -3.54,-0.15c-0.89,0.06 -1.77,0.22 -2.6,0.57c-0.54,0.23 -1.04,0.52 -1.43,0.96c-0.2,0.22 -0.38,0.46 -0.51,0.72c-0.38,0.76 -0.34,1.51 0.13,2.22c0.25,0.38 0.57,0.7 0.92,0.98c0.61,0.49 1.28,0.9 1.96,1.27c1.14,0.62 2.29,1.22 3.42,1.84c1.22,0.67 2.38,1.41 3.44,2.31c0.7,0.6 1.34,1.26 1.87,2.01c0.95,1.34 1.49,2.82 1.59,4.46c0.16,2.6 -0.42,5.02 -1.86,7.2c-1.03,1.56 -2.39,2.77 -3.98,3.73c-1.61,0.97 -3.34,1.61 -5.16,2.03c-1.2,0.28 -2.42,0.45 -3.65,0.55c-1.44,0.11 -2.88,0.1 -4.32,0c-2.16,-0.16 -4.28,-0.49 -6.36,-1.07c-0.71,-0.2 -1.41,-0.43 -2.09,-0.72c-0.06,-0.03 -0.13,-0.06 -0.23,-0.11Z" style="fill:#015478;fill-rule:nonzero;"/><path d="M133.21,76c-2.68,12.52 -5.35,25 -8.02,37.5l-9.66,0c-0.03,-0.17 7.93,-37.22 8.02,-37.5l9.66,0Z" style="fill:#015478;fill-rule:nonzero;"/><g><path d="M119.05,75.99c-3.22,0.23 -7.07,-0.46 -10,0.25c-3.34,8.41 -6.65,16.82 -10,25.23c-6.77,-25.32 3.19,-27.86 -25.14,-25.48c-0.37,0.03 -0.15,0.71 -0.23,1.07c3.97,1.39 10.45,1.52 11.82,6.24c2.62,10.06 5.2,20.14 7.83,30.2l10.25,0c5.24,-12.5 10.48,-24.98 15.73,-37.51l-0.26,0Z" style="fill:#015478;fill-rule:nonzero;"/><path d="M123.55,76c-0.09,0.28 -8.05,37.32 -8.02,37.5l9.66,0c2.67,-12.5 5.35,-24.98 8.02,-37.5l-9.66,0Z" style="fill:#015478;fill-rule:nonzero;"/><path d="M159.56,100.5c-0.1,-1.64 -0.64,-3.12 -1.59,-4.46c-0.54,-0.75 -1.17,-1.41 -1.87,-2.01c-1.06,-0.9 -2.23,-1.64 -3.44,-2.31c-1.13,-0.62 -2.28,-1.22 -3.42,-1.84c-0.69,-0.37 -1.36,-0.78 -1.96,-1.27c-0.35,-0.28 -0.68,-0.6 -0.92,-0.98c-0.46,-0.72 -0.51,-1.46 -0.13,-2.22c0.13,-0.26 0.32,-0.51 0.51,-0.72c0.39,-0.44 0.9,-0.73 1.43,-0.96c0.83,-0.35 1.71,-0.51 2.6,-0.57c1.18,-0.08 2.37,-0.02 3.54,0.15c1.78,0.26 3.49,0.75 5.13,1.48c0.07,0.03 0.15,0.06 0.25,0.1c0.57,-2.64 1.13,-5.27 1.7,-7.9c-0.07,-0.03 -0.11,-0.05 -0.15,-0.06c-2.8,-1.02 -5.68,-1.57 -8.66,-1.61c-1.07,-0.01 -2.14,0.05 -3.2,0.17c-1.18,0.14 -2.35,0.36 -3.5,0.69c-1.9,0.55 -3.68,1.36 -5.27,2.55c-1.67,1.25 -2.98,2.79 -3.81,4.71c-0.51,1.18 -0.78,2.41 -0.86,3.69c-0.09,1.35 0.09,2.65 0.62,3.89c0.58,1.37 1.48,2.5 2.57,3.49c1.09,0.99 2.3,1.81 3.59,2.51c0.98,0.53 1.99,1.02 2.98,1.54c0.8,0.42 1.58,0.87 2.29,1.43c0.36,0.29 0.69,0.6 0.96,0.98c0.37,0.51 0.54,1.07 0.52,1.7c-0.03,0.84 -0.39,1.53 -1.01,2.09c-0.41,0.37 -0.88,0.64 -1.39,0.86c-1.11,0.47 -2.29,0.64 -3.49,0.67c-1.03,0.02 -2.06,-0.04 -3.08,-0.17c-1.3,-0.16 -2.56,-0.47 -3.79,-0.9c-0.95,-0.33 -1.87,-0.74 -2.78,-1.17c-0.08,-0.04 -0.17,-0.07 -0.27,-0.12c-0.59,2.74 -1.17,5.45 -1.75,8.18c0.09,0.04 0.17,0.08 0.24,0.11c0.68,0.29 1.38,0.53 2.09,0.72c2.08,0.58 4.21,0.91 6.36,1.07c1.44,0.1 2.88,0.11 4.32,0c1.23,-0.1 2.45,-0.27 3.65,-0.55c1.82,-0.42 3.56,-1.06 5.16,-2.03c1.59,-0.96 2.95,-2.17 3.98,-3.73c1.43,-2.19 2,-4.6 1.85,-7.2Z" style="fill:#015478;fill-rule:nonzero;"/><path d="M186.11,76.02c-0.1,-0.01 -0.18,-0.02 -0.26,-0.02l-7.97,0c-0.48,0 -0.95,0.05 -1.4,0.2c-1.34,0.43 -2.26,1.32 -2.8,2.61c-3.66,8.74 -7.33,17.48 -10.99,26.22c-1.14,2.72 -2.28,5.44 -3.42,8.16c-0.04,0.1 -0.08,0.2 -0.13,0.31l10.16,0c0.68,-1.86 1.35,-3.72 2.02,-5.58l12.5,0c0.39,1.86 0.78,3.72 1.18,5.58l8.95,0c-2.63,-12.51 -5.23,-24.99 -7.84,-37.48Zm-11.96,24.18c0.02,-0.21 4.97,-13.87 5.12,-14.06c0.98,4.7 1.96,9.38 2.93,14.05c-0.22,0.07 -7.84,0.07 -8.05,0.01Z" style="fill:#015478;fill-rule:nonzero;"/></g></g></g></g></g></svg>