<?xml version="1.0" encoding="UTF-8" standalone="no"?><!DOCTYPE svg PUBLIC "-//W3C//DTD SVG 1.1//EN" "http://www.w3.org/Graphics/SVG/1.1/DTD/svg11.dtd"><svg width="100%" height="100%" viewBox="0 0 257 224" version="1.1" xmlns="http://www.w3.org/2000/svg" xmlns:xlink="http://www.w3.org/1999/xlink" xml:space="preserve" xmlns:serif="http://www.serif.com/" style="fill-rule:evenodd;clip-rule:evenodd;stroke-miterlimit:10;"><rect id="pos" x="0" y="0" width="256.118" height="223.175" style="fill:none;"/><clipPath id="_clip1"><rect x="0" y="0" width="256.118" height="223.175"/></clipPath><g clip-path="url(#_clip1)"><g id="pos1" serif:id="pos"><g><path d="M231.57,62.41c-0,0 4.9,115.17 -0,121.3c-4.9,6.13 -89.44,40.13 -89.44,40.13l-26.96,-37.68l45.9,-118.69l70.5,-5.06Z" style="fill-rule:nonzero;"/><path d="M0,215.27c0,0 0,-52.38 7.35,-59.73c7.35,-7.35 49.08,-22.76 53.91,-29.41c9.8,-13.48 14.14,-58.21 20.83,-63.71c20.83,-17.15 139.68,1.23 149.48,0c-0,0 -24.39,-1.17 -28.78,15c-4.17,15.37 -3.99,51.17 -15.02,58.52c-11.03,7.35 -32.06,23.34 -37.37,34.62c-6.45,13.71 -7.36,53.29 -7.36,53.29l-143.04,-8.58Z" style="fill:#898989;fill-rule:nonzero;"/><path d="M90.61,70.91l-13.78,50.55l97.41,4.59l10.11,-52.38l-93.74,-2.76Z" style="fill-rule:nonzero;"/><path d="M92.68,75.65l-11.86,46.2l93.34,4.2l9.14,-47.88l-90.62,-2.52Z" style="fill:#fff;fill-rule:nonzero;"/><g><path d="M236.47,16.47c0,0 20.78,-3.51 19.6,35.83l-9.8,-8.87l-7.35,6.12l-6.13,-8.57l-6.13,7.34l-1.23,-30.62l11.04,-1.23Z" style="fill:#bdccd4;fill-rule:nonzero;"/><path d="M188.78,62.01c-0,0 -4.64,-39.29 16.86,-46.26l31.24,2.15c-0,0 -29.77,14.93 -21.45,45.65" style="fill:#fff;fill-rule:nonzero;stroke:#bdccd4;stroke-width:3px;"/><path d="M195.45,51.47l13.73,1.21" style="fill:none;fill-rule:nonzero;stroke:#898989;stroke-width:3px;"/><path d="M195.45,42.29l13.73,1.21" style="fill:none;fill-rule:nonzero;stroke:#898989;stroke-width:3px;"/><path d="M197.92,33.25l13.73,1.2" style="fill:none;fill-rule:nonzero;stroke:#898989;stroke-width:3px;"/><path d="M202.51,24.99l13.73,1.21" style="fill:none;fill-rule:nonzero;stroke:#898989;stroke-width:3px;"/></g><path d="M97.97,104.85l58.88,2.3" style="fill:none;fill-rule:nonzero;stroke:#bdccd4;stroke-width:5px;"/><path d="M102.56,91.98l44.15,2.31" style="fill:none;fill-rule:nonzero;stroke:#bdccd4;stroke-width:5px;"/></g><path d="M27.84,158.23c1.94,-0.65 48.57,-24.61 48.57,-24.61l91.31,3.89l-34.97,25.36l-104.91,-4.64Z" style="fill:#ccc;fill-rule:nonzero;"/><path d="M45.32,145.27l112.03,5.19" style="fill:none;fill-rule:nonzero;stroke:#898989;stroke-width:3px;"/><path d="M52,164.05l57.03,-31.08" style="fill:none;fill-rule:nonzero;stroke:#898989;stroke-width:3px;"/><path d="M90.81,167.29l53.46,-33.67" style="fill:none;fill-rule:nonzero;stroke:#898989;stroke-width:3px;"/></g></g></svg>