<svg clip-rule="evenodd" fill-rule="evenodd" stroke-miterlimit="10" viewBox="0 0 258 300" xmlns="http://www.w3.org/2000/svg"><g fill-rule="nonzero"><path d="m95.62 143.87-40.7 22.85c-1.54 20.23-7.07 40.91-7.07 40.91l-47.81 32.76 67.79 58.39s22.3-34.77 32.37-38.13 74.5-20.81 81.21-26.17c6.71-5.37 33.01-107.38 33.01-107.38s-39.6-40.54-67.24-33.56c-24.19 6.1-44.94 53.66-51.56 50.33z" fill="#f9d4bb"/><path d="m225.91 104.91c-4.42 1.92 7.6 4.86 6.76 13.09-.59 5.77 10.14-6.55 7.81-10.98-2.32-4.44-4.86-6.34-14.57-2.11z" fill="#ffecdf" stroke="#875b52" stroke-width="2"/><path d="m226.24 155.43s9.75 3.55 2.22 10.2" fill="#ffecdf" stroke="#875b52" stroke-width="2"/><path d="m144.63 1.17c16.16-.92 93.77-3.2 98.32 5.78 2.51 4.97-24.42 208.49-33.21 214.09-10.83 6.91-113.42-1.66-112.08-10.22 1.33-8.56 35.55-209 46.97-209.65z" fill="#015478"/><path d="m146.61 6.26 88.39 3.54-32.87 203.18-96.54-7.6 41.02-199.12z" fill="#fff"/><path d="m163.58 78.95-17.04-1.79 2.69-17.18 17.04 1.8z" fill="#fff"/><path d="m164.7 80.44-19.7-2.08 3.11-19.85 19.7 2.08zm-16.62-4.48 14.38 1.52 2.27-14.49-14.38-1.52z"/><path d="m160.15 74.42-8.9-.94 1.41-8.96 8.9.94z"/><path d="m150.19 86.72-6.07-.64.96-6.12 6.07.64z"/><path d="m160.53 94.07-11.56-1.22.96-6.12 11.56 1.22z"/><path d="m162.08 87.98-6.07-.65.96-6.11 6.07.64z"/><path d="m194.96 91.44-6.07-.64.96-6.11 6.07.64z"/><path d="m166.12 115.78-6.07-.64 2.24-14.32 6.08.64z"/><path d="m170.98 122.55-6.08-.64.96-6.12 6.08.64z"/><path d="m174.31 102.09-6.07-.64.96-6.12 6.07.64z"/><path d="m179.17 108.86-6.08-.64.96-6.12 6.08.64z"/><path d="m178.37 113.95-6.07-.64.96-6.12 6.07.64z"/><path d="m190.29 118.56-6.07-.64.96-6.12 6.07.64z"/><path d="m187 102.65-6.07-.65.96-6.11 6.07.64z"/><path d="m182.41 80.85-6.08-.64.96-6.12 6.08.64z"/><path d="m167.56 88.57-6.07-.64.96-6.12 6.07.64z"/><path d="m172.85 67.63-6.07-.64.95-6.12 6.08.65z"/><path d="m178.47 68.23-6.07-.64.96-6.12 6.07.64z"/><path d="m148.01 98.98-6.07-.64.96-6.12 6.07.64z"/><path d="m172.75 122.74-6.07-.64.96-6.12 6.07.64z"/><path d="m201.25 125.75-6.07-.64.96-6.12 6.07.64z"/><path d="m195.43 125.13-6.07-.64.96-6.12 6.07.64z"/><path d="m189.36 124.49-6.07-.64.96-6.12 6.07.64z"/><path d="m183.37 74.7-6.07-.64.96-6.12 6.07.64z"/><path d="m188.23 81.46-6.08-.64.96-6.11 6.07.64z"/><path d="m201.03 92.1-6.07-.64.96-6.12 6.07.64z"/><path d="m187.9 96.94-12.82-1.36.96-6.11 12.82 1.35z"/><path d="m192.62 103.69-6.07-.64.96-6.12 6.07.64z"/><path d="m168.24 101.47-6.07-.64.95-6.12 6.08.64z"/><path d="m176.59 80.24-6.08-.64.96-6.12 6.08.64z"/><path d="m187.26 87.6-11.89-1.25.96-6.12 11.89 1.25z"/><path d="m197.81 109.99-6.07-.64.96-6.12 6.07.64z"/><path d="m202.66 116.76-6.07-.65 3.77-24.04 6.07.64z"/><path d="m191.73 109.36-6.07-.64.96-6.12 6.07.65z"/><path d="m157.04 120.37-17.04-1.8 2.7-17.17 17.04 1.8z" fill="#fff"/><path d="m158.16 121.85-19.7-2.08 3.11-19.85 19.7 2.08zm-16.62-4.48 14.38 1.52 2.27-14.49-14.38-1.52z"/><path d="m207.19 83.56-17.04-1.8 2.69-17.17 17.04 1.8z" fill="#fff"/><path d="m208.31 85.04-19.7-2.08 3.11-19.85 19.7 2.08zm-16.62-4.48 14.38 1.52 2.27-14.49-14.38-1.52z"/><path d="m153.66 115.84-8.9-.94 1.41-8.96 8.89.93z"/><path d="m203.76 79.02-8.9-.93 1.41-8.97 8.9.94z"/><path d="m104.72 148.09c5.64-11.56-7.38-22.82 3.36-26.85 37.97-14.24 18.42-53.74 18.42-53.74h-7.38l-15.44 20.81h-11.41c-3.36 0-32.21 45.64-34.23 49.66-.53 1.06-1.2 6.61-1.9 14.19-.4 4.37-.82 9.43-1.22 14.69l51.02-14.36c-1.74-.85-2.25-2.28-1.22-4.4z" fill="#f9d4bb"/><path d="m255.91 100.05c-8.47-14.11-36.91-3.36-33.56 8.05 3.36 11.41 6.35 16.11 16.6 12.75 10.25-3.35 20.99-14.09 16.96-20.8z" fill="#f9d4bb"/><path d="m257.61 130.58c1.52-9.86-11.77-14.09-21.66-8.72s-15.93 6.71-11.9 14.77 8.13 13.42 16.15 12.08 16.06-9.41 17.41-18.13z" fill="#f9d4bb"/><path d="m218.08 161.79c4.61 7.53 19.07 16.63 29.13-3.09s-36.12-8.32-29.13 3.09z" fill="#f9d4bb"/><path d="m206.58 176.63c-2.39 6.1 13.77 12.08 13.77 12.08l-2.03 6.66s15.03 4.03 20.1-9.37-24.05-29.26-31.84-9.37z" fill="#f9d4bb"/></g><circle cx="187.22" cy="18.09" r="4.49"/></svg>