<?xml version="1.0" encoding="UTF-8" standalone="no"?><!DOCTYPE svg PUBLIC "-//W3C//DTD SVG 1.1//EN" "http://www.w3.org/Graphics/SVG/1.1/DTD/svg11.dtd"><svg width="100%" height="100%" viewBox="0 0 227 262" version="1.1" xmlns="http://www.w3.org/2000/svg" xmlns:xlink="http://www.w3.org/1999/xlink" xml:space="preserve" xmlns:serif="http://www.serif.com/" style="fill-rule:evenodd;clip-rule:evenodd;stroke-miterlimit:10;"><rect id="scan" x="0.689" y="0" width="225.535" height="261.293" style="fill:none;"/><clipPath id="_clip1"><rect x="0.689" y="0" width="225.535" height="261.293"/></clipPath><g clip-path="url(#_clip1)"><g id="scan1" serif:id="scan"><path d="M84.349,126.326l-35.62,20c-1.35,17.71 -6.19,35.8 -6.19,35.8l-41.85,28.67l59.33,51.1c0,0 19.52,-30.43 28.33,-33.37c8.81,-2.94 65.2,-18.21 71.07,-22.91c5.87,-4.7 28.89,-93.98 28.89,-93.98c0,0 -34.66,-35.48 -58.84,-29.37c-21.17,5.35 -39.33,46.98 -45.12,44.06Z" style="fill:#f9d4bb;fill-rule:nonzero;"/><path d="M198.369,92.226c-3.87,1.68 6.65,4.25 5.91,11.46c-0.52,5.05 8.87,-5.73 6.84,-9.61c-2.03,-3.88 -4.25,-5.55 -12.75,-1.85Z" style="fill:#ffecdf;fill-rule:nonzero;stroke:#875b52;stroke-width:2px;"/><path d="M198.659,136.446c0,0 8.54,3.1 1.94,8.93" style="fill:#ffecdf;fill-rule:nonzero;stroke:#875b52;stroke-width:2px;"/><path d="M127.239,1.436c14.14,-0.81 82.07,-2.8 86.05,5.06c2.2,4.35 -21.38,182.47 -29.07,187.37c-9.48,6.05 -99.27,-1.45 -98.09,-8.95c1.16,-7.49 31.11,-182.91 41.11,-183.48Z" style="fill:#015478;fill-rule:nonzero;"/><path d="M128.979,5.896l77.35,3.09l-28.77,177.83l-84.49,-6.65l35.91,-174.27Z" style="fill:#fff;fill-rule:nonzero;"/><g><g><g><path d="M143.819,69.516l-14.91,-1.58l2.36,-15.03l14.91,1.58l-2.36,15.03Z" style="fill:#fff;fill-rule:nonzero;"/><path d="M144.799,70.806l-17.24,-1.82l2.72,-17.38l17.24,1.82l-2.72,17.38Zm-14.54,-3.92l12.59,1.33l1.99,-12.68l-12.59,-1.33l-1.99,12.68Z" style="fill-rule:nonzero;"/></g><path d="M140.819,65.546l-7.78,-0.82l1.23,-7.85l7.78,0.82l-1.23,7.85Z" style="fill-rule:nonzero;"/><path d="M132.109,76.306l-5.32,-0.56l0.84,-5.35l5.32,0.56l-0.84,5.35Z" style="fill-rule:nonzero;"/><path d="M141.159,82.736l-10.12,-1.06l0.84,-5.36l10.11,1.07l-0.83,5.35Z" style="fill-rule:nonzero;"/><path d="M142.509,77.406l-5.31,-0.56l0.84,-5.35l5.31,0.56l-0.84,5.35Z" style="fill-rule:nonzero;"/><path d="M171.289,80.446l-5.32,-0.56l0.84,-5.36l5.32,0.56l-0.84,5.36Z" style="fill-rule:nonzero;"/><path d="M146.049,101.746l-5.32,-0.56l1.97,-12.53l5.31,0.56l-1.96,12.53Z" style="fill-rule:nonzero;"/><path d="M150.299,107.666l-5.32,-0.56l0.84,-5.35l5.32,0.56l-0.84,5.35Z" style="fill-rule:nonzero;"/><path d="M153.219,89.766l-5.32,-0.56l0.84,-5.36l5.32,0.56l-0.84,5.36Z" style="fill-rule:nonzero;"/><path d="M157.469,95.686l-5.32,-0.56l0.84,-5.36l5.32,0.56l-0.84,5.36Z" style="fill-rule:nonzero;"/><path d="M156.769,100.136l-5.32,-0.56l0.84,-5.35l5.32,0.56l-0.84,5.35Z" style="fill-rule:nonzero;"/><path d="M167.199,104.176l-5.31,-0.56l0.84,-5.36l5.31,0.56l-0.84,5.36Z" style="fill-rule:nonzero;"/><path d="M164.329,90.246l-5.32,-0.56l0.84,-5.36l5.31,0.57l-0.83,5.35Z" style="fill-rule:nonzero;"/><path d="M160.299,71.176l-5.31,-0.56l0.84,-5.36l5.31,0.56l-0.84,5.36Z" style="fill-rule:nonzero;"/><path d="M147.309,77.926l-5.31,-0.56l0.84,-5.35l5.31,0.56l-0.84,5.35Z" style="fill-rule:nonzero;"/><path d="M151.929,59.606l-5.31,-0.56l0.84,-5.36l5.31,0.56l-0.84,5.36Z" style="fill-rule:nonzero;"/><path d="M156.859,60.126l-5.32,-0.56l0.84,-5.36l5.32,0.56l-0.84,5.36Z" style="fill-rule:nonzero;"/><path d="M130.199,87.046l-5.31,-0.56l0.83,-5.36l5.32,0.56l-0.84,5.36Z" style="fill-rule:nonzero;"/><path d="M151.849,107.836l-5.31,-0.56l0.84,-5.36l5.31,0.56l-0.84,5.36Z" style="fill-rule:nonzero;"/><path d="M176.799,110.466l-5.32,-0.56l0.84,-5.36l5.32,0.56l-0.84,5.36Z" style="fill-rule:nonzero;"/><path d="M171.699,109.926l-5.31,-0.56l0.84,-5.35l5.31,0.56l-0.84,5.35Z" style="fill-rule:nonzero;"/><path d="M166.389,109.366l-5.32,-0.56l0.84,-5.36l5.32,0.57l-0.84,5.35Z" style="fill-rule:nonzero;"/><path d="M161.149,65.786l-5.32,-0.56l0.84,-5.36l5.31,0.57l-0.83,5.35Z" style="fill-rule:nonzero;"/><path d="M165.389,71.706l-5.31,-0.56l0.84,-5.35l5.31,0.56l-0.84,5.35Z" style="fill-rule:nonzero;"/><path d="M176.599,81.016l-5.32,-0.56l0.84,-5.35l5.32,0.56l-0.84,5.35Z" style="fill-rule:nonzero;"/><path d="M165.109,85.256l-11.22,-1.19l0.83,-5.35l11.23,1.18l-0.84,5.36Z" style="fill-rule:nonzero;"/><path d="M169.239,91.166l-5.31,-0.56l0.84,-5.36l5.31,0.56l-0.84,5.36Z" style="fill-rule:nonzero;"/><path d="M147.899,89.216l-5.31,-0.56l0.84,-5.36l5.31,0.57l-0.84,5.35Z" style="fill-rule:nonzero;"/><path d="M155.209,70.636l-5.32,-0.56l0.84,-5.36l5.32,0.56l-0.84,5.36Z" style="fill-rule:nonzero;"/><path d="M164.549,77.076l-10.41,-1.09l0.84,-5.36l10.41,1.1l-0.84,5.35Z" style="fill-rule:nonzero;"/><path d="M173.779,96.676l-5.31,-0.56l0.84,-5.36l5.31,0.56l-0.84,5.36Z" style="fill-rule:nonzero;"/><path d="M178.029,102.596l-5.31,-0.56l3.29,-21.05l5.32,0.56l-3.3,21.05Z" style="fill-rule:nonzero;"/><path d="M168.459,96.126l-5.31,-0.56l0.84,-5.35l5.31,0.56l-0.84,5.35Z" style="fill-rule:nonzero;"/><g><path d="M138.099,105.756l-14.91,-1.57l2.36,-15.03l14.91,1.57l-2.36,15.03Z" style="fill:#fff;fill-rule:nonzero;"/><path d="M139.089,107.056l-17.24,-1.82l2.72,-17.38l17.24,1.82l-2.72,17.38Zm-14.55,-3.92l12.59,1.33l1.99,-12.68l-12.59,-1.33l-1.99,12.68Z" style="fill-rule:nonzero;"/></g><g><path d="M181.989,73.536l-14.91,-1.57l2.35,-15.03l14.92,1.58l-2.36,15.02Z" style="fill:#fff;fill-rule:nonzero;"/><path d="M182.969,74.836l-17.24,-1.82l2.72,-17.38l17.24,1.82l-2.72,17.38Zm-14.54,-3.92l12.58,1.33l1.99,-12.68l-12.58,-1.33l-1.99,12.68Z" style="fill-rule:nonzero;"/></g><path d="M135.139,101.796l-7.79,-0.82l1.23,-7.85l7.79,0.82l-1.23,7.85Z" style="fill-rule:nonzero;"/><path d="M178.989,69.576l-7.79,-0.82l1.23,-7.85l7.79,0.82l-1.23,7.85Z" style="fill-rule:nonzero;"/></g></g><path d="M92.309,130.026c4.93,-10.12 -6.46,-19.97 2.94,-23.5c33.23,-12.46 16.12,-47.03 16.12,-47.03l-6.46,0l-13.51,18.21l-9.99,0c-2.94,0 -28.19,39.94 -29.96,43.47c-0.46,0.93 -1.05,5.78 -1.66,12.42c-0.35,3.83 -0.71,8.25 -1.07,12.86l44.65,-12.57c-1.51,-0.76 -1.96,-2.01 -1.06,-3.86Z" style="fill:#f9d4bb;fill-rule:nonzero;"/><g><path d="M224.629,87.976c-7.41,-12.35 -32.31,-2.94 -29.37,7.05c2.94,9.99 5.56,14.1 14.53,11.16c8.97,-2.94 18.36,-12.34 14.84,-18.21Z" style="fill:#f9d4bb;fill-rule:nonzero;"/><path d="M226.119,114.696c1.33,-8.63 -10.3,-12.33 -18.95,-7.64c-8.65,4.69 -13.94,5.87 -10.42,12.92c3.52,7.05 7.12,11.75 14.13,10.57c7.01,-1.17 14.06,-8.22 15.24,-15.85Z" style="fill:#f9d4bb;fill-rule:nonzero;"/><path d="M191.519,142.016c4.04,6.59 16.69,14.56 25.5,-2.71c8.81,-17.27 -31.61,-7.28 -25.5,2.71Z" style="fill:#f9d4bb;fill-rule:nonzero;"/><path d="M181.459,154.996c-2.09,5.34 12.05,10.57 12.05,10.57l-1.78,5.83c0,0 13.15,3.52 17.59,-8.2c4.44,-11.72 -21.04,-25.61 -27.86,-8.2Z" style="fill:#f9d4bb;fill-rule:nonzero;"/></g><circle cx="164.509" cy="16.246" r="3.93"/></g></g></svg>