<svg clip-rule="evenodd" fill-rule="evenodd" stroke-miterlimit="10" viewBox="0 0 448 369" xmlns="http://www.w3.org/2000/svg"><g fill-rule="nonzero"><path d="m21.42 349.56c-32.78 7.04-26.93 15.25 16.39 16.42 43.31 1.17 334.81 2.35 351.2.78 16.39-1.56-26.93-16.03-44.48-16.03s-323.11-1.17-323.11-1.17z" fill="#cec8c4"/><path d="m261.25 232.37-23.5 46.3 5.53 17.96 16.58-13.82z" fill="#af436e"/><path d="m194.92 208.88 37.31 89.82h22.11l99.49-82.22 5.53 17.28 8.98-2.08-23.6-71.93-8.98 4.15 14.62 41.53-107.1 80.84-32.33-78.08z" fill="#af436e"/><path d="m243.14 84.45 11.6 10.91 6.89-17.05s6.57-7.17 9.06-14.25c2.49-7.07-9.76-23.14-9.76-23.14l-30.19 38.58z" fill="#f9d4bb"/><path d="m255.69 46.34c-13.7 35.89-84.09 24.99-88.14-1.66-5.72-37.66 49-11.51 49-11.51-9.25-27.25 38.02-30.86 38.64-30.91s9.22-5.99 24.52 2.56c15.3 8.54 13.53 22.41 11.25 29.46"/><path d="m286.79 65.24c-1.45 1.43-20.67 7.36-27.56-13.3 0 0-10.44 2.17-10.24-7.65s8.44-3.96 8.44-3.96 15.95-3.6 23.47-19.9c.37-.81 2.01-.16 2.5.12 11.72 6.55 6.56 21 6.54 20.7-.02-.32 6.33 5.36 5.5 6.74s-5.72 2.76-6.34 2.81z" fill="#f9d4bb"/></g><path d="m283.502 34.582c1.172-.085 2.267 1.803 2.442 4.214.175 2.412-.634 4.438-1.807 4.523-1.173.086-2.267-1.803-2.442-4.214s.634-4.438 1.807-4.523z"/><circle cx="153.46" cy="298.01" r="68.4"/><circle cx="152.97" cy="298.12" fill="#fff" r="56.7"/><circle cx="378.7" cy="298.01" r="68.4"/><circle cx="378.21" cy="298.12" fill="#fff" r="56.7"/><path d="m269.54 92.81 62.18 47.67s13.13-6.91 15.89-4.15 11.05 7.6 11.05 10.36-2.98 11.33-5.05 13.41-7.1-.71-7.1-.71 2.34-12.66-8.58-9.93c-8.47 2.12-3.09 10.33-1.01 11.71 2.07 1.38-12.81-6.87-17.64-13.09-4.84-6.22-49.75-33.16-49.75-33.16v-22.11z" fill="#f9d4bb" fill-rule="nonzero"/><path d="m176.95 190.92c-11.05 6.22-16.58 23.49 44.91 21.42s-44.91-21.42-44.91-21.42z" fill="#693f11" fill-rule="nonzero"/><path d="m350.38 205.43s-41.46-23.49-84.29 47.67l-4.84-20.73s40.07-64.26 84.98-45.6z" fill="#af436e" fill-rule="nonzero"/><path d="m258.89 280.71-94.71-.57s-23.15-.79-23.11 18.08c.03 12.88 10.44 21.1 22.99 21.1s95.8.73 95.8.73 23.96-1.48 23.96-20.75c-.01-16.56-24.93-18.59-24.93-18.59z" fill="#fff" fill-rule="nonzero" stroke="#bdccd4" stroke-width="3"/><path d="m305.356 302.263-23.95 8.933 4.107 11.01 23.949-8.933z"/><path d="m259.75 279.57c-1.58-.46-2.55.47-2.15 2.07l7.89 31.43c.4 1.6 2.02 2.49 3.59 1.99l49.57-16.02c1.57-.51 1.99-1.96.94-3.23l-3.53-4.24c-1.06-1.27-3.26-2.42-4.91-2.57l-24.18-2.12c-1.64-.14-4.28-.64-5.87-1.1z" fill="#898989" fill-rule="nonzero"/><path d="m178.33 159.14s-10.89 12.56-9.67 26.26c1.18 13.3 87.6 43.98 87.6 43.98l-19.98 54.89s36.54 4.44 50.53 2.69c15.99-2-4.67-72.09-4.67-72.09l-60.97-50.89z" fill-rule="nonzero"/><path d="m153.46 139.79c2.07 9.67 46.97 42.84 81.51 33.86l22.82-52.51 6.91 1.38 10.2-28.87s-33-30.55-38.53-26.4-6.22 3.45-6.91 4.15c-4.83 4.83-76.14 67.71-76 68.39z" fill="#015478" fill-rule="nonzero"/><path d="m346.23 186.77 17.27-8.29 3.46 8.29-15.89 6.91z" fill="#af436e" fill-rule="nonzero"/><path d="m351.07 204.05 17.27-8.29 3.45 8.29-15.89 6.91z" fill="#af436e" fill-rule="nonzero"/><path d="m358.67 164.66 14.51 54.59 36.61-1.39 9.26-17.09-3.78-52.5-39.33 1.88z" fill="#f9d4bb" fill-rule="nonzero"/><circle cx="378.36" cy="299.05" fill="#898989" r="11.4"/><path d="m259.98 125.63 6.62 25.9 17.96-1.96-.56-26.01z" fill="#caa674" fill-rule="nonzero"/><path d="m261.05 116.95 19.64-2.71 5.67 10.72-27.94 3.62z" fill="#fff" fill-rule="nonzero" stroke="#808080" stroke-width="2"/><path d="m262.07 134.5 21.73-2.64.33 13.3-19.4 2.66z" fill="#693f11" fill-rule="nonzero"/><path d="m217.03 106.63s-11.05 33.86-11.05 38.69 47.67 13.13 47.67 13.13 24.18 6.98 27.64 6.98c3.45 0 7.44-7.67 10.2-13.2s-1.29-14.51-5.44-14.51c-1.38 0-5.87 14.02-22.04 6.22l-2-7.6s-6.29 4.84-6.29 9.67-27.64-13.13-27.64-13.13l10.36-24.18z" fill="#f9d4bb" fill-rule="nonzero"/><path d="m264.39 107.58c-13.11-13-38.25-24.19-49.81-17.92-11.56 6.28-45.08 10.67-57.8-5.02s-39.3-11.3-42.19-9.41l-5.2 3.77s8.09-2.51 21.96 1.26 19.07 33.26 42.77 34.52 46.29-20.88 51.44-20.08c24.28 3.75 42.98 16.99 38.83 12.88z" fill="#fff" fill-rule="nonzero" stroke="#bdccd4" stroke-width="3"/><ellipse cx="340.78" cy="156.02" rx="7.11" ry="7.2"/><ellipse cx="314.58" cy="167.55" rx="7.11" ry="7.2"/><path d="m400.12 163.97 15.15-15.28 4.89 51.9-10.37 17.27z" fill="#caa674" fill-rule="nonzero"/><path d="m344.16 161.97-27.68 12.28-4.95-13.03 27.17-12.12z" fill-rule="nonzero"/><path d="m399.36 147.82c-3.45-2.86-15.59-3.95-17.87-2.81-2.28 1.13-8.74 35.4-7.37 38.01s17.07 5.87 18.26 4.96 8.52-38.88 6.98-40.16z" fill="#015478" fill-rule="nonzero"/><path d="m396.53 150.04-12.99-1.36-7.06 33.91 14.22 3.37z" fill="#fff" fill-rule="nonzero"/><path d="m358.67 164.66 41.45-.69 9.67 53.89-36.61 1.39z" fill="#8b745b" fill-rule="nonzero"/></svg>