<?xml version="1.0" encoding="UTF-8" standalone="no"?><!DOCTYPE svg PUBLIC "-//W3C//DTD SVG 1.1//EN" "http://www.w3.org/Graphics/SVG/1.1/DTD/svg11.dtd"><svg width="100%" height="100%" viewBox="0 0 201 201" version="1.1" xmlns="http://www.w3.org/2000/svg" xmlns:xlink="http://www.w3.org/1999/xlink" xml:space="preserve" xmlns:serif="http://www.serif.com/" style="fill-rule:evenodd;clip-rule:evenodd;stroke-linejoin:round;stroke-miterlimit:2;"><rect id="take-away" x="0.072" y="0.917" width="200" height="200" style="fill:none;"/><clipPath id="_clip1"><rect x="0.072" y="0.917" width="200" height="200"/></clipPath><g clip-path="url(#_clip1)"><g><g><path d="M55.877,107.624c3.183,-3.313 18.884,-19.953 23.415,-29.614c0.864,-1.841 1.321,-3.447 1.267,-4.682c-0.04,-0.918 -0.354,-1.653 -0.943,-2.186c-0.636,-0.575 -1.632,-0.918 -3.071,-0.912c-6.354,0.034 -16.095,5.186 -24.516,11.6c-6.706,5.107 -12.57,11.005 -15.271,15.665c-1.283,2.214 -1.848,4.196 -1.622,5.731c0.443,2.935 1.988,5.283 4.163,6.842c1.435,1.028 3.141,1.724 4.951,2.006c2.117,0.331 4.379,0.136 6.492,-0.689c1.906,-0.745 3.677,-1.991 5.135,-3.761l0,-0Zm-0.321,-0.303c-1.571,1.453 -3.369,2.351 -5.214,2.847c-1.933,0.52 -3.913,0.536 -5.759,0.131c-1.509,-0.33 -2.916,-0.952 -4.111,-1.839c-1.74,-1.292 -3.024,-3.154 -3.39,-5.53c-0.118,-0.758 0.067,-1.654 0.46,-2.659c0.478,-1.22 1.264,-2.575 2.289,-4.014c2.932,-4.116 7.785,-8.876 13.205,-13.124c8.065,-6.322 17.375,-11.538 23.525,-11.663c1.047,-0.022 1.792,0.153 2.262,0.564c0.525,0.46 0.656,1.189 0.553,2.102c-0.216,1.925 -1.468,4.557 -3.272,7.513c-5.932,9.719 -17.85,22.766 -20.548,25.672l0,0Z"/><path d="M65.557,154.914c1.402,0.669 5.678,2.566 8.436,2.246c1.544,-0.179 2.65,-0.998 2.714,-2.93c0.138,-4.157 -1.461,-5.309 -3.415,-5.166c-1.538,0.113 -3.412,1.142 -5.007,2.24c2.187,-3.127 5.232,-8.001 7.145,-13.266c1.58,-4.348 2.372,-8.96 1.384,-13.1c-0.303,-1.266 -1.131,-2.439 -2.363,-3.497c-1.896,-1.626 -4.791,-3.005 -8.004,-4.114c-1.76,-0.608 -3.611,-1.156 -5.444,-1.59c-1.254,-0.297 -2.496,-0.548 -3.69,-0.746c-1.698,-0.28 -3.285,-0.471 -4.659,-0.594c-2.818,-0.253 -4.691,-0.243 -4.691,-0.243c-0.121,-0.014 -0.231,0.073 -0.244,0.194c-0.014,0.121 0.073,0.23 0.194,0.244c0,0 1.671,0.391 4.229,1.011c1.119,0.271 2.4,0.576 3.785,0.92c0.808,0.201 1.647,0.412 2.51,0.626c1.022,0.254 2.073,0.511 3.127,0.79c2.454,0.65 4.926,1.398 7.093,2.305c1.819,0.762 3.425,1.617 4.608,2.6c0.922,0.766 1.586,1.592 1.825,2.522c0.988,3.821 0.278,8.103 -1.105,12.163c-3.006,8.822 -9.225,16.607 -9.225,16.607c-0.188,0.23 -0.164,0.566 0.055,0.766c0.21,0.193 0.529,0.196 0.742,0.012Zm0.351,-0.338c1.278,0.569 4.305,1.806 6.76,1.962c1.783,0.114 3.268,-0.352 3.288,-2.324c0.035,-3.345 -1.02,-4.405 -2.588,-4.255c-2.679,0.258 -6.357,3.57 -7.46,4.617Z"/><path d="M48.061,172.844c1.557,1.33 6.791,5.587 10.888,6.452c2.249,0.475 4.164,-0.038 5.105,-2.349c1.078,-2.647 1.084,-4.475 0.476,-5.692c-0.6,-1.2 -1.804,-1.862 -3.343,-2.128c-4.042,-0.7 -10.509,1.417 -12.822,2.246c-0.034,-1.767 -0.072,-6.137 0.181,-12.528c0.151,-3.796 0.403,-8.304 0.823,-13.403c0.358,-4.467 -0.321,-11.888 -1.282,-18.97c-0.215,-1.589 -0.432,-3.163 -0.687,-4.676c-0.275,-1.631 -0.576,-3.193 -0.88,-4.643c-0.361,-1.724 -0.726,-3.28 -1.057,-4.607c-0.704,-2.822 -1.235,-4.57 -1.235,-4.57c-0.024,-0.119 -0.14,-0.197 -0.259,-0.174c-0.12,0.023 -0.198,0.139 -0.174,0.259c-0,-0 0.185,2.053 0.541,5.259c0.169,1.524 0.378,3.299 0.627,5.237c0.191,1.488 0.413,3.067 0.645,4.694c0.509,3.567 1.076,7.364 1.464,10.938c0.47,4.328 0.741,8.318 0.553,11.124c-0.336,5.132 -0.516,9.667 -0.6,13.485c-0.19,8.558 0.088,13.514 0.088,13.514c0.009,0.207 0.119,0.397 0.294,0.508c0.174,0.112 0.392,0.132 0.584,0.053l0.07,-0.029Zm0.479,-0.192c1.488,1.208 5.303,4.137 8.795,5.438c2.576,0.96 4.987,1.061 5.951,-1.447c0.893,-2.326 0.963,-3.912 0.411,-4.962c-0.487,-0.927 -1.467,-1.375 -2.672,-1.559c-4.051,-0.62 -10.565,1.773 -12.485,2.53Z"/><path d="M77.791,48.855c-6.411,1.6 -9.31,8.364 -7.944,13.71c1.233,4.825 5.885,8.581 14.583,6.572c9.617,-2.245 11.927,-8.841 9.839,-14.103c-0.97,-2.444 -2.904,-4.667 -5.598,-6.02c-1.019,-0.512 -2.146,-0.91 -3.364,-1.113c-1.215,-0.203 -2.512,-0.243 -3.87,-0.054c-1.189,0.166 -2.389,0.51 -3.646,1.008l-0,0Zm0.113,0.427c1.271,-0.182 2.452,-0.184 3.59,-0.126c1.226,0.063 2.358,0.258 3.424,0.543c1.025,0.274 1.973,0.638 2.841,1.092c2.232,1.169 3.91,2.93 4.759,4.957c1.864,4.449 -0.288,9.872 -8.434,11.981c-7.759,2.029 -12.075,-1.115 -13.311,-5.415c-1.428,-4.972 1.169,-11.35 7.131,-13.032l0,-0Z"/><path d="M79.431,82.565c-0.021,0.612 -0.007,1.21 0.089,1.863c0.09,0.608 0.254,1.203 0.465,1.814c0.135,0.391 0.302,0.772 0.493,1.15c0.187,0.369 0.406,0.725 0.641,1.073c0.802,1.194 1.812,2.29 2.953,3.224c2.585,2.115 5.904,3.384 9.627,2.764c4.496,-0.748 9.66,-4.304 14.771,-12.764c0.066,-0.102 0.036,-0.239 -0.066,-0.305c-0.103,-0.065 -0.239,-0.035 -0.305,0.067c-5.296,7.795 -10.293,11.026 -14.609,11.53c-2.279,0.267 -4.338,-0.264 -6.118,-1.259c-1.883,-1.052 -3.414,-2.655 -4.602,-4.381c-0.21,-0.307 -0.412,-0.615 -0.612,-0.921c-0.206,-0.315 -0.412,-0.621 -0.609,-0.931c-0.313,-0.495 -0.605,-0.966 -0.876,-1.452c-0.301,-0.541 -0.586,-1.022 -0.808,-1.552c-0.022,-0.119 -0.137,-0.199 -0.257,-0.177c-0.12,0.022 -0.199,0.137 -0.177,0.257Z"/><path d="M105.999,80.411c-0.038,0.05 -0.053,0.114 -0.042,0.176c0.012,0.062 0.05,0.115 0.104,0.148c0,-0 0.551,0.604 1.278,1.274c0.331,0.305 0.679,0.602 1.014,0.862c0.584,0.454 1.073,0.762 1.073,0.762c0.437,0.259 0.998,0.147 1.302,-0.259c0,-0 0.924,-1.233 2.071,-2.823c2.013,-2.789 4.728,-6.664 4.728,-6.664c0.233,-0.311 0.192,-0.748 -0.095,-1.009l-3.213,-2.761c-0.13,-0.119 -0.304,-0.177 -0.479,-0.162c-0.175,0.016 -0.336,0.104 -0.443,0.244l-7.298,10.212Zm0.558,0.014l7.292,-8.919c0,-0 2.059,1.994 2.059,1.994c-0.884,1.112 -3.017,3.8 -4.646,5.901c-0.661,0.853 -1.238,1.611 -1.622,2.119c-0.119,-0.056 -0.247,-0.114 -0.381,-0.173c-0.389,-0.17 -0.816,-0.333 -1.242,-0.478c-0.605,-0.206 -1.15,-0.36 -1.46,-0.443l-0,-0.001Z"/></g><path d="M53.384,155.282c-0.089,-0.174 -0.144,-0.089 -0.138,0.006c0.008,0.117 0.105,0.206 0.22,0.206l0,0l0,-0l0.015,-0l-0.015,0c0,0 0.113,0.13 0.63,0.384c0.179,0.088 0.342,0.16 0.603,0.223c0.147,0.035 0.303,0.054 0.475,0.057c0.22,0.004 0.455,-0.033 0.703,-0.061c1.087,-0.121 2.415,-0.315 3.735,-0.509c2.85,-0.418 5.596,-0.878 5.596,-0.878c0.121,-0.008 0.213,-0.113 0.205,-0.235c-0.008,-0.121 -0.113,-0.213 -0.235,-0.205c0,-0 -2.782,-0.091 -5.662,-0.126c-1.335,-0.016 -2.677,-0.032 -3.77,-0.008c-0.25,0.006 -0.487,0.001 -0.704,0.034c-0.171,0.025 -0.323,0.064 -0.464,0.119c-0.276,0.109 -0.438,0.213 -0.613,0.332c-0.238,0.162 -0.294,0.246 -0.402,0.338c-0.141,0.119 -0.181,0.232 -0.179,0.323Z"/><path d="M53.463,155.078c-0.03,-0.037 -0.069,-0.074 -0.122,-0.11c-0.117,-0.081 -0.184,-0.163 -0.437,-0.303c-0.188,-0.104 -0.364,-0.195 -0.653,-0.279c-0.148,-0.044 -0.305,-0.069 -0.481,-0.081c-0.224,-0.014 -0.465,0.011 -0.72,0.026c-1.114,0.067 -2.478,0.195 -3.835,0.323c-2.927,0.275 -5.75,0.598 -5.75,0.598c-0.122,0.002 -0.219,0.103 -0.217,0.224c0.002,0.122 0.103,0.219 0.224,0.217c0,0 2.833,0.23 5.768,0.408c1.359,0.082 2.727,0.165 3.843,0.195c0.255,0.006 0.497,0.024 0.72,0.002c0.175,-0.018 0.332,-0.049 0.479,-0.097c0.259,-0.084 0.421,-0.17 0.595,-0.273c0.49,-0.287 0.589,-0.434 0.589,-0.434c0.126,-0.002 0.223,-0.102 0.221,-0.224c-0.002,-0.122 -0.103,-0.219 -0.224,-0.217l-0,0.025Z"/><path d="M44.212,120.727c-0.068,0.001 -0.131,0.034 -0.172,0.089c-0.041,0.054 -0.054,0.125 -0.036,0.191c0,-0 0.598,2.903 1.548,7.036c0.504,2.192 1.11,4.722 1.762,7.35c0.258,1.037 0.529,2.087 0.805,3.136c0.464,1.764 0.939,3.524 1.403,5.21c1.825,6.627 3.407,12.119 3.407,12.119c0.084,0.305 0.313,0.549 0.611,0.654c0.298,0.104 0.629,0.057 0.885,-0.128l49.615,-36.099c0.222,-0.159 0.314,-0.445 0.228,-0.704c-0.086,-0.26 -0.332,-0.433 -0.605,-0.428l-59.451,1.574Zm0.314,0.437l57.155,-0.735c0,-0 -47.249,33.578 -47.249,33.578c-0.55,-2.027 -1.673,-6.143 -2.984,-10.804c-0.474,-1.683 -0.975,-3.436 -1.489,-5.186c-0.306,-1.041 -0.616,-2.079 -0.932,-3.101c-0.799,-2.587 -1.587,-5.066 -2.288,-7.204c-1.078,-3.285 -1.934,-5.75 -2.213,-6.548Z"/><path d="M21.823,120.319c-2.964,-0.148 -5.839,0.165 -8.552,0.925c-2.554,0.716 -4.953,1.822 -7.139,3.233c-1.479,0.955 -2.853,2.062 -4.108,3.29c-1.047,1.025 -2.005,2.141 -2.871,3.327c-3.369,4.618 -5.325,10.323 -5.308,16.472c0.035,7.707 3.186,14.681 8.267,19.711c5.061,5.012 12.033,8.099 19.711,8.058c7.647,-0.044 14.56,-3.178 19.546,-8.224c4.963,-5.022 8.017,-11.934 7.97,-19.545c-0.047,-7.576 -3.155,-14.423 -8.156,-19.36c-4.976,-4.913 -11.822,-7.936 -19.36,-7.887Zm0,0.441c7.379,0.048 14.045,3.082 18.854,7.952c4.785,4.846 7.728,11.512 7.683,18.854c-0.045,7.305 -3.049,13.904 -7.869,18.667c-4.797,4.741 -11.398,7.658 -18.668,7.616c-7.237,-0.039 -13.777,-3.011 -18.501,-7.782c-4.705,-4.751 -7.605,-11.293 -7.573,-18.501c0.016,-5.72 1.894,-10.994 5.019,-15.296c0.803,-1.104 1.688,-2.145 2.641,-3.119c1.146,-1.171 2.392,-2.241 3.727,-3.2c1.996,-1.433 4.185,-2.609 6.534,-3.481c2.558,-0.95 5.282,-1.567 8.153,-1.71Z"/><path d="M116.231,122.24c-2.965,-0.148 -5.839,0.165 -8.552,0.925c-2.554,0.716 -4.953,1.822 -7.139,3.233c-1.479,0.955 -2.853,2.062 -4.108,3.29c-1.047,1.025 -2.006,2.141 -2.871,3.328c-3.369,4.617 -5.325,10.323 -5.308,16.471c0.035,7.707 3.186,14.681 8.266,19.712c5.062,5.012 12.033,8.098 19.712,8.057c7.647,-0.044 14.56,-3.178 19.546,-8.224c4.963,-5.022 8.017,-11.934 7.97,-19.545c-0.047,-7.575 -3.155,-14.423 -8.156,-19.36c-4.976,-4.913 -11.822,-7.936 -19.36,-7.887Zm0,0.441c7.379,0.048 14.045,3.082 18.854,7.952c4.784,4.846 7.728,11.513 7.683,18.854c-0.045,7.305 -3.049,13.905 -7.869,18.668c-4.797,4.74 -11.398,7.657 -18.668,7.615c-7.237,-0.038 -13.777,-3.011 -18.501,-7.782c-4.705,-4.751 -7.606,-11.293 -7.573,-18.501c0.016,-5.719 1.894,-10.994 5.019,-15.295c0.803,-1.105 1.688,-2.146 2.641,-3.12c1.146,-1.171 2.392,-2.241 3.727,-3.2c1.996,-1.433 4.184,-2.609 6.534,-3.481c2.558,-0.949 5.282,-1.566 8.153,-1.71Z"/><path d="M103.47,119.86c0,-0 0.009,0.551 0.176,1.587c0.072,0.443 0.172,0.944 0.326,1.528c0.098,0.372 0.224,0.763 0.374,1.177c0.195,0.54 0.444,1.107 0.697,1.711c1.101,2.632 2.502,5.863 3.889,9.058c2.984,6.877 5.94,13.544 5.94,13.544c0.045,0.113 0.173,0.168 0.286,0.123c0.113,-0.045 0.169,-0.173 0.124,-0.286c-0,-0 -2.441,-6.873 -5.006,-13.917c-1.191,-3.273 -2.396,-6.581 -3.408,-9.25c-0.232,-0.611 -0.441,-1.194 -0.671,-1.721c-0.176,-0.403 -0.354,-0.774 -0.538,-1.112c-0.289,-0.529 -0.562,-0.962 -0.815,-1.332c-0.591,-0.868 -0.964,-1.274 -0.964,-1.274c-0.045,-0.113 -0.173,-0.168 -0.286,-0.123c-0.114,0.045 -0.169,0.174 -0.124,0.287Z"/><path d="M109.354,103.48l-0,-0l-9.628,2.913c-0.263,0.085 -0.461,0.278 -0.561,0.514l-9.16,3.081c-0.116,0.036 -0.182,0.16 -0.146,0.276c0.036,0.117 0.16,0.182 0.276,0.146l9.079,-2.574c0.202,0.758 0.747,2.783 1.381,4.963c0.217,0.747 0.433,1.515 0.682,2.246c0.139,0.407 0.291,0.798 0.444,1.175c0.262,0.642 0.516,1.224 0.76,1.734c0.561,1.171 0.982,1.886 0.982,1.886c0.035,0.117 0.157,0.184 0.274,0.15c0.117,-0.034 0.184,-0.157 0.15,-0.274c-0,0 -0.031,-0.83 -0.191,-2.118c-0.07,-0.562 -0.17,-1.188 -0.296,-1.87c-0.074,-0.4 -0.157,-0.811 -0.261,-1.229c-0.185,-0.749 -0.417,-1.513 -0.637,-2.259c-0.528,-1.785 -1.048,-3.451 -1.351,-4.404c0,-0 8.643,-3 8.643,-3c0.373,-0.121 0.578,-0.52 0.46,-0.894c-0.119,-0.373 -0.516,-0.581 -0.891,-0.465l-0.009,0.003Z"/><path d="M21.157,148.052c-0,-0 0.548,-0.332 1.482,-1.071c0.404,-0.32 0.857,-0.702 1.361,-1.177c0.323,-0.304 0.655,-0.645 0.996,-1.02c0.448,-0.491 0.898,-1.047 1.383,-1.627c2.116,-2.529 4.691,-5.68 7.237,-8.796c5.48,-6.707 10.768,-13.27 10.768,-13.27c0.079,-0.092 0.069,-0.231 -0.023,-0.311c-0.092,-0.079 -0.232,-0.069 -0.311,0.023c-0,0 -5.708,6.201 -11.53,12.613c-2.706,2.979 -5.441,5.992 -7.629,8.458c-0.502,0.566 -0.985,1.094 -1.404,1.609c-0.321,0.393 -0.609,0.771 -0.863,1.136c-0.394,0.569 -0.706,1.074 -0.962,1.52c-0.592,1.033 -0.84,1.625 -0.84,1.625c-0.079,0.092 -0.069,0.231 0.024,0.311c0.092,0.079 0.231,0.069 0.311,-0.023Z"/><path d="M44.194,121.162c-0.152,-0.038 -0.038,0.027 0.075,-0c0.099,-0.024 0.166,-0.111 0.168,-0.209c0.08,-0.111 0.183,-0.281 0.314,-0.539c0.073,-0.143 0.122,-0.231 0.164,-0.443c0.02,-0.104 0.026,-0.207 0.012,-0.326c-0.017,-0.146 -0.075,-0.296 -0.124,-0.455c-0.22,-0.702 -0.531,-1.541 -0.843,-2.382c-0.675,-1.822 -1.375,-3.546 -1.375,-3.546c-0.028,-0.118 -0.148,-0.191 -0.266,-0.162c-0.118,0.028 -0.191,0.148 -0.163,0.266c0,0 0.166,1.853 0.398,3.782c0.107,0.891 0.213,1.78 0.339,2.504c0.028,0.164 0.045,0.324 0.097,0.461c0.042,0.113 0.094,0.202 0.16,0.284c0.134,0.17 0.217,0.226 0.348,0.32c0.477,0.346 0.642,0.427 0.696,0.445Z"/><path d="M20.95,148.125c-0,-0 0.516,0.296 1.552,0.717c0.445,0.181 0.962,0.372 1.581,0.56c0.396,0.12 0.825,0.227 1.287,0.327c0.605,0.13 1.264,0.23 1.958,0.347c3.027,0.509 6.771,1.092 10.473,1.668c7.968,1.24 15.73,2.39 15.73,2.39c0.12,0.022 0.235,-0.057 0.257,-0.177c0.022,-0.119 -0.057,-0.234 -0.177,-0.257c0,0 -7.661,-1.694 -15.548,-3.379c-3.664,-0.782 -7.369,-1.573 -10.379,-2.178c-0.69,-0.138 -1.341,-0.28 -1.952,-0.374c-0.467,-0.072 -0.907,-0.124 -1.32,-0.153c-0.645,-0.046 -1.196,-0.052 -1.676,-0.042c-1.119,0.024 -1.706,0.117 -1.706,0.117c-0.12,-0.022 -0.235,0.057 -0.257,0.177c-0.022,0.119 0.057,0.235 0.177,0.257Z"/><path d="M36.135,106.924c-0.042,-0.162 -0.124,-0.12 -0.166,-0.042c-0.056,0.106 -0.018,0.237 0.085,0.296c-0.015,0.012 -0.034,0.026 -0.052,0.037c-0.176,0.108 -0.52,0.216 -1.149,0.324c-0.451,0.077 -1.041,0.15 -1.81,0.213c-2.099,0.175 -3.084,1.142 -3.334,2.099c-0.355,1.355 0.716,2.874 2.628,3.038c1.791,0.145 8.779,1.17 14.092,1.408c1.694,0.076 3.225,0.087 4.371,-0.061c0.287,-0.037 0.552,-0.083 0.788,-0.147c0.577,-0.156 1.014,-0.351 1.295,-0.572c0.812,-0.725 1.142,-1.208 1.166,-1.581c0.032,-0.486 -0.094,-0.845 -0.473,-1.029c-0.444,-0.216 -1.063,-0.218 -1.063,-0.218c-0.12,-0.021 -0.235,0.059 -0.256,0.179c-0.021,0.12 0.059,0.234 0.179,0.255c0,0 0.4,0.209 0.576,0.495c0.011,0.018 -0.033,0.032 -0.03,0.052c0.005,0.045 -0.098,-0.086 -0.149,-0.034c-0.146,0.15 -0.422,0.258 -0.851,0.438c-0.114,0.054 -0.273,0.05 -0.458,0.082c-0.269,0.046 -0.589,0.067 -0.952,0.101c-1.078,0.099 -2.505,0.166 -4.095,0.157c-5.293,-0.03 -12.291,-0.609 -14.079,-0.659c-1.184,-0.028 -1.971,-0.853 -1.804,-1.701c0.145,-0.741 0.937,-1.394 2.527,-1.626c1.702,-0.252 2.55,-0.499 2.954,-0.703c0.357,-0.181 0.447,-0.368 0.458,-0.495c0.015,-0.159 -0.07,-0.293 -0.163,-0.369c-0.037,-0.03 -0.07,-0.051 -0.087,-0.06c-0.109,-0.061 -0.143,0.019 -0.148,0.123Zm-0.075,0.257l-0.001,0c-0.038,0.056 0.105,0.026 0.105,0.026l-0.086,-0.022l-0.001,0.003l0.001,0.001c0.009,0.008 0.017,0.019 0.009,0.023c-0.007,0.004 -0.009,-0.009 -0.009,-0.023l-0.009,-0.006l-0.009,-0.002Z"/><path d="M73.081,75.505c-0,-0 0.065,0.683 0.334,1.918c0.106,0.489 0.25,1.041 0.436,1.674c0.103,0.347 0.221,0.709 0.359,1.089c0.125,0.344 0.269,0.697 0.424,1.062c0.535,1.259 1.193,2.658 1.905,4.156c1.757,3.694 3.93,7.943 6.202,11.815c3.603,6.141 7.493,11.296 10.413,11.857c0.119,0.026 0.236,-0.05 0.263,-0.168c0.026,-0.119 -0.05,-0.237 -0.168,-0.263c-2.245,-0.559 -4.878,-4.079 -7.495,-8.605c-2.084,-3.604 -4.119,-7.855 -5.909,-11.813c-1.357,-2.998 -2.521,-5.846 -3.516,-8.089c-0.123,-0.278 -0.248,-0.545 -0.377,-0.798c-0.215,-0.424 -0.431,-0.808 -0.635,-1.168c-0.246,-0.434 -0.468,-0.813 -0.683,-1.15c-0.707,-1.109 -1.143,-1.68 -1.143,-1.68c-0.045,-0.113 -0.173,-0.168 -0.286,-0.124c-0.113,0.045 -0.169,0.173 -0.124,0.287Z"/></g><g><path d="M167.283,140.963l26.15,-0.058c0,-0 -1.095,-70.173 -13.359,-69.544c-12.265,0.628 -13.627,57.395 -12.791,69.602Z" style="fill:#fff;"/><path d="M167.063,140.978c0.008,0.116 0.105,0.206 0.221,0.206c-0,-0 3.444,0.201 7.846,0.375c2.466,0.097 5.226,0.181 7.845,0.243c1.872,0.045 3.669,0.072 5.23,0.087c3.074,0.03 5.23,0.014 5.23,0.014c0.268,-0 0.523,-0.108 0.711,-0.299c0.187,-0.19 0.29,-0.448 0.286,-0.715c-0,0 -0.585,-30.376 -4.497,-51.018c-1.416,-7.474 -3.294,-13.681 -5.686,-16.798c-1.256,-1.637 -2.673,-2.468 -4.21,-2.381c-2.081,0.119 -3.921,1.642 -5.45,4.296c-1.955,3.392 -3.466,8.662 -4.602,14.816c-3.31,17.944 -3.501,43.457 -2.924,51.174Zm0.427,-0.248c-0.456,-7.947 0.074,-33.054 3.558,-50.723c1.179,-5.98 2.69,-11.101 4.632,-14.381c1.282,-2.167 2.716,-3.519 4.428,-3.597c1.62,-0.073 2.926,1.347 4.122,3.649c1.728,3.326 3.075,8.491 4.151,14.48c3.293,18.332 3.936,44.329 4.037,49.749c-0.921,0.002 -2.411,0.011 -4.217,0.037c-1.561,0.022 -3.358,0.057 -5.23,0.11c-2.619,0.074 -5.378,0.17 -7.844,0.279c-3.766,0.165 -6.831,0.347 -7.637,0.397l0,-0Z"/><path d="M177.033,44.016c-7.376,0.244 -12.408,6.67 -12.676,12.692c-0.254,5.704 3.67,11.124 13.854,10.871c10.813,-0.29 16.2,-6.812 16.026,-12.91c-0.089,-3.13 -1.603,-6.232 -4.661,-8.39c-1.051,-0.742 -2.285,-1.385 -3.713,-1.83c-1.322,-0.412 -2.8,-0.679 -4.434,-0.736c-1.369,-0.048 -2.821,0.068 -4.396,0.303l-0,-0Zm0.02,0.441c1.538,0.085 2.924,0.309 4.222,0.569c1.475,0.297 2.784,0.695 3.966,1.169c1.208,0.486 2.267,1.051 3.174,1.708c2.493,1.804 3.825,4.264 3.941,6.835c0.245,5.395 -4.634,10.956 -14.199,11.415c-9.205,0.46 -12.949,-4.25 -12.852,-9.415c0.106,-5.71 4.768,-11.865 11.748,-12.281l0,-0Z"/><path d="M174.73,171.902c-2.729,-3.542 -7.312,-6.743 -11.389,-8.018c-4.382,-1.37 -8.16,-0.516 -8.883,4.036c-0.482,3.041 1.387,4.875 4.291,5.906c6.109,2.168 17.008,0.617 17.008,0.617c0.417,-0.065 0.721,-0.428 0.711,-0.849c0,-0 -0.088,-7.929 -0.222,-15.964c-0.027,-1.614 -0.049,-3.231 -0.094,-4.789c-0.021,-0.698 -0.045,-1.384 -0.08,-2.052c-0.042,-0.811 -0.094,-1.594 -0.153,-2.343c-0.101,-1.3 -0.207,-2.484 -0.319,-3.512c-0.261,-2.399 -0.496,-3.9 -0.496,-3.9c-0.002,-0.121 -0.104,-0.218 -0.225,-0.215c-0.122,0.003 -0.219,0.104 -0.216,0.225c0,0 -0.165,1.51 -0.317,3.919c-0.065,1.032 -0.116,2.219 -0.158,3.523c-0.024,0.75 -0.04,1.535 -0.045,2.348c-0.005,0.668 0.002,1.354 0.014,2.052c0.025,1.559 0.078,3.176 0.125,4.788c0.166,5.758 0.355,11.46 0.448,14.228Zm0.028,0.833c-2.677,-3.582 -7.465,-6.838 -11.661,-8.032c-3.735,-1.063 -7.015,-0.485 -7.528,3.379c-0.42,3.148 2.375,4.465 5.835,5.047c4.903,0.826 11.23,0.067 13.36,-0.235l-0.006,-0.159Z"/><path d="M186.394,172.046c-2.729,-3.542 -7.312,-6.744 -11.389,-8.018c-4.382,-1.37 -8.16,-0.516 -8.883,4.035c-0.482,3.042 1.387,4.876 4.291,5.906c6.109,2.168 17.008,0.618 17.008,0.618c0.416,-0.065 0.721,-0.428 0.711,-0.85c0,0 -0.088,-7.929 -0.222,-15.964c-0.028,-1.613 -0.049,-3.231 -0.094,-4.789c-0.021,-0.697 -0.046,-1.383 -0.08,-2.051c-0.043,-0.811 -0.095,-1.595 -0.153,-2.343c-0.101,-1.301 -0.207,-2.484 -0.319,-3.512c-0.261,-2.399 -0.496,-3.9 -0.496,-3.9c-0.003,-0.122 -0.104,-0.218 -0.225,-0.216c-0.122,0.003 -0.219,0.104 -0.216,0.226c0,0 -0.166,1.51 -0.317,3.918c-0.065,1.033 -0.116,2.22 -0.158,3.524c-0.024,0.75 -0.04,1.535 -0.046,2.347c-0.004,0.669 0.003,1.355 0.014,2.053c0.026,1.558 0.079,3.175 0.125,4.788c0.167,5.757 0.356,11.46 0.449,14.228Zm0.028,0.833c-2.677,-3.582 -7.466,-6.838 -11.661,-8.032c-3.735,-1.063 -7.015,-0.485 -7.529,3.378c-0.42,3.148 2.376,4.465 5.836,5.048c4.903,0.826 11.23,0.067 13.36,-0.235l-0.006,-0.159Z"/><path d="M179.883,86.222c0,0 -0.955,-0.334 -2.594,-0.775c-0.749,-0.202 -1.624,-0.415 -2.616,-0.628c-0.554,-0.119 -1.14,-0.231 -1.755,-0.335c-0.567,-0.096 -1.158,-0.177 -1.765,-0.26c-3.246,-0.447 -6.956,-0.899 -10.326,-1.321c-4.785,-0.6 -8.886,-1.094 -10.022,-1.23c0,-0 -14.585,-21.673 -14.585,-21.673c-0.066,-0.102 -0.203,-0.131 -0.305,-0.065c-0.102,0.066 -0.131,0.203 -0.065,0.305l13.945,22.491c0.113,0.174 0.296,0.291 0.502,0.32c-0,-0 4.667,0.741 10.287,1.6c3.357,0.514 7.049,1.092 10.294,1.548c0.607,0.085 1.198,0.169 1.77,0.231c0.62,0.068 1.214,0.121 1.779,0.157c1.013,0.066 1.913,0.1 2.688,0.11c1.698,0.023 2.707,-0.038 2.707,-0.038c0.121,0.017 0.233,-0.067 0.249,-0.188c0.017,-0.121 -0.067,-0.232 -0.188,-0.249Z"/><path d="M121.487,58.47c0,-0 0.576,0.186 1.692,0.39c0.48,0.088 1.035,0.17 1.689,0.23c0.419,0.038 0.869,0.057 1.349,0.061c0.629,0.006 1.305,-0.029 2.02,-0.054c3.119,-0.11 6.966,-0.293 10.77,-0.474c8.189,-0.389 16.153,-0.825 16.153,-0.825c0.122,-0.003 0.219,-0.103 0.217,-0.225c-0.003,-0.122 -0.104,-0.219 -0.225,-0.216c-0,-0 -7.976,-0.118 -16.174,-0.181c-3.808,-0.029 -7.66,-0.058 -10.78,-0.043c-0.716,0.003 -1.393,-0.005 -2.021,0.026c-0.48,0.024 -0.928,0.061 -1.345,0.115c-0.651,0.086 -1.202,0.19 -1.679,0.297c-1.107,0.249 -1.675,0.458 -1.675,0.458c-0.121,0.002 -0.218,0.103 -0.216,0.225c0.003,0.121 0.103,0.218 0.225,0.216Z"/><path d="M147.052,53.474c0,-0.543 -0.441,-0.984 -0.984,-0.984l-14.785,-0c-0.543,-0 -0.984,0.441 -0.984,0.984l0,1.968c0,0.543 0.441,0.983 0.984,0.983l14.785,0c0.543,0 0.984,-0.44 0.984,-0.983l0,-1.968Z" style="fill:#fff;"/><path d="M147.273,53.474c0.078,-0.36 -0.049,-0.683 -0.234,-0.971c-0.208,-0.324 -0.565,-0.482 -0.971,-0.57c0,0 -0.861,-0.181 -2.217,-0.334c-0.342,-0.039 -0.713,-0.065 -1.109,-0.084c-0.353,-0.017 -0.725,-0.023 -1.109,-0.024c-4.357,-0.01 -10.35,0.176 -10.35,0.176c-0.496,0.011 -0.947,0.209 -1.265,0.542c-0.315,0.329 -0.518,0.773 -0.507,1.265c-0,-0 0.045,1.968 0.045,1.968c0.012,0.474 0.201,0.904 0.52,1.207c0.315,0.3 0.738,0.493 1.207,0.481c0,0 14.785,-0.386 14.785,-0.386c0.357,-0.01 0.679,-0.156 0.906,-0.397c0.224,-0.236 0.364,-0.555 0.354,-0.905c-0,-0 -0.055,-1.968 -0.055,-1.968Zm-0.441,-0l-0.055,1.968c-0.006,0.192 -0.093,0.362 -0.223,0.485c-0.126,0.119 -0.299,0.185 -0.486,0.18c0,-0 -14.785,-0.387 -14.785,-0.387c-0.074,-0.001 -0.136,-0.045 -0.183,-0.095c-0.045,-0.046 -0.059,-0.114 -0.058,-0.183c0,-0 0.046,-1.968 0.046,-1.968c0.001,-0.052 0.035,-0.093 0.069,-0.126c0.032,-0.03 0.079,-0.036 0.126,-0.035c0,0 5.993,0.186 10.35,0.176c0.384,-0.001 0.756,-0.007 1.109,-0.024c0.396,-0.019 0.767,-0.045 1.109,-0.084c1.356,-0.153 2.217,-0.334 2.217,-0.334c0.152,-0.033 0.3,-0.071 0.421,0.006c0.156,0.101 0.3,0.225 0.343,0.421Z"/><path d="M149.074,49.7c0,-0.423 -0.343,-0.767 -0.767,-0.767l-18.858,-0c-0.423,-0 -0.767,0.344 -0.767,0.767l0,1.534c0,0.423 0.344,0.767 0.767,0.767l18.858,0c0.424,0 0.767,-0.344 0.767,-0.767l0,-1.534Z" style="fill:#fff;"/><path d="M148.307,48.497c-0.032,-0.015 -0.07,-0.026 -0.113,-0.034c-0.172,-0.032 -0.513,-0.106 -1.018,-0.182c-0.458,-0.068 -1.026,-0.14 -1.697,-0.208c-0.438,-0.043 -0.909,-0.085 -1.415,-0.11c-0.45,-0.022 -0.924,-0.028 -1.414,-0.029c-5.556,-0.016 -13.201,0.201 -13.201,0.201c-0.43,0.009 -0.821,0.179 -1.098,0.467c-0.274,0.286 -0.451,0.671 -0.443,1.098c0,-0 0.031,1.534 0.031,1.534c0.009,0.415 0.174,0.792 0.452,1.059c0.276,0.264 0.647,0.434 1.058,0.425c0,0 18.858,-0.43 18.858,-0.43c0.289,-0.007 0.55,-0.125 0.735,-0.319c0.183,-0.191 0.297,-0.45 0.29,-0.735c0,0 -0.037,-1.534 -0.037,-1.534c0.055,-0.291 -0.054,-0.552 -0.208,-0.779c-0.172,-0.252 -0.458,-0.376 -0.78,-0.437l0,0.013Zm-18.851,1.234c0.25,0.007 7.731,0.216 13.194,0.201c0.49,-0.001 0.964,-0.007 1.414,-0.03c0.506,-0.024 0.977,-0.066 1.415,-0.11c0.671,-0.067 1.239,-0.138 1.697,-0.207c0.727,-0.11 1.131,-0.203 1.131,-0.203c0.11,-0.021 0.22,-0.046 0.306,0.013c0.109,0.074 0.214,0.165 0.241,0.305l-0.038,1.534c-0.003,0.139 -0.066,0.261 -0.159,0.35c-0.091,0.086 -0.215,0.133 -0.35,0.13c0,0 -18.858,-0.43 -18.858,-0.43c0,-0 -0.023,-0.05 -0.023,-0.05l0.03,-1.503Z"/><path d="M146.46,45.759c-0,-0.435 -0.353,-0.787 -0.787,-0.787l-13.403,-0c-0.435,-0 -0.787,0.352 -0.787,0.787l-0,1.574c-0,0.435 0.352,0.788 0.787,0.788l13.403,-0c0.434,-0 0.787,-0.353 0.787,-0.788l-0,-1.574Z" style="fill:#fff;"/><path d="M145.673,44.447c-0.013,-0.004 -0.027,-0.008 -0.041,-0.012c-0.061,-0.015 -0.176,-0.051 -0.362,-0.089c-0.352,-0.072 -0.898,-0.171 -1.608,-0.259c-0.31,-0.039 -0.645,-0.069 -1.005,-0.089c-0.32,-0.018 -0.657,-0.024 -1.005,-0.025c-3.95,-0.012 -9.382,0.183 -9.382,0.183c-0.44,0.011 -0.841,0.184 -1.123,0.481c-0.278,0.293 -0.46,0.686 -0.449,1.122c0,-0 0.041,1.574 0.041,1.574c0.012,0.42 0.178,0.802 0.461,1.07c0.28,0.265 0.655,0.438 1.07,0.426c-0,-0 13.403,-0.399 13.403,-0.399c0.3,-0.009 0.571,-0.132 0.761,-0.335c0.187,-0.199 0.306,-0.467 0.296,-0.762c0,0 -0.05,-1.574 -0.05,-1.574c0.076,-0.304 -0.037,-0.573 -0.186,-0.821c-0.171,-0.282 -0.476,-0.408 -0.821,-0.493l-0,0.002Zm0.566,1.312l-0.05,1.574c-0.004,0.14 -0.07,0.263 -0.165,0.352c-0.091,0.085 -0.217,0.13 -0.351,0.126c-0,-0 -13.403,-0.399 -13.403,-0.399c-0,0 -0.044,-0.079 -0.044,-0.079c-0,0 0.041,-1.574 0.041,-1.574l0.003,0.029c-0,-0 5.432,0.194 9.382,0.183c0.348,-0.001 0.685,-0.008 1.005,-0.026c0.36,-0.02 0.695,-0.049 1.005,-0.088c0.71,-0.088 1.256,-0.188 1.608,-0.26c0.269,-0.054 0.403,-0.099 0.403,-0.099c0.105,-0.026 0.205,-0.083 0.292,-0.031c0.118,0.071 0.238,0.147 0.274,0.292Z"/></g></g></svg>