<?xml version="1.0" encoding="UTF-8" standalone="no"?><!DOCTYPE svg PUBLIC "-//W3C//DTD SVG 1.1//EN" "http://www.w3.org/Graphics/SVG/1.1/DTD/svg11.dtd"><svg width="100%" height="100%" viewBox="0 0 342 282" version="1.1" xmlns="http://www.w3.org/2000/svg" xmlns:xlink="http://www.w3.org/1999/xlink" xml:space="preserve" xmlns:serif="http://www.serif.com/" style="fill-rule:evenodd;clip-rule:evenodd;stroke-miterlimit:10;"><rect id="take-away" x="0" y="0" width="341.812" height="281.09" style="fill:none;"/><clipPath id="_clip1"><rect x="0" y="0" width="341.812" height="281.09"/></clipPath><g clip-path="url(#_clip1)"><g id="take-away1" serif:id="take-away"><path d="M16.782,267.796c-25.08,5.39 -20.61,11.67 12.54,12.57c33.15,0.9 256.22,1.8 268.77,0.6c12.54,-1.2 -20.61,-12.27 -34.04,-12.27c-13.44,0 -247.27,-0.9 -247.27,-0.9Z" style="fill:#cec8c4;fill-rule:nonzero;"/><path d="M200.322,178.116l-17.98,35.43l4.23,13.75l12.69,-10.58l1.06,-38.6Z" style="fill:#af436e;fill-rule:nonzero;"/><path d="M149.562,160.136l28.55,68.74l16.92,0l76.14,-62.92l4.23,13.22l6.88,-1.59l-18.07,-55.05l-6.87,3.18l11.19,31.78l-81.96,61.87l-24.74,-59.75l-12.27,0.52Z" style="fill:#af436e;fill-rule:nonzero;"/><g><path d="M186.472,64.916l8.88,8.35l5.27,-13.05c-0,0 5.03,-5.49 6.94,-10.9c1.91,-5.41 -7.47,-17.71 -7.47,-17.71l-23.1,29.53l9.48,3.78Z" style="fill:#f9d4bb;fill-rule:nonzero;"/><path d="M196.072,35.756c-10.48,27.47 -64.36,19.12 -67.45,-1.27c-4.38,-28.82 37.5,-8.81 37.5,-8.81c-7.08,-20.85 29.1,-23.61 29.57,-23.65c0.47,-0.04 7.06,-4.58 18.77,1.96c11.71,6.54 10.36,17.15 8.61,22.55" style="fill-rule:nonzero;"/><path d="M219.872,50.216c-1.11,1.09 -15.82,5.63 -21.09,-10.18c-0,0 -7.99,1.66 -7.84,-5.86c0.15,-7.51 6.46,-3.03 6.46,-3.03c-0,0 12.21,-2.75 17.96,-15.23c0.29,-0.62 1.54,-0.12 1.92,0.09c8.97,5.01 5.02,16.07 5.01,15.84c-0.02,-0.25 4.84,4.1 4.21,5.16c-0.64,1.05 -4.38,2.11 -4.85,2.15l-1.78,11.06Z" style="fill:#f9d4bb;fill-rule:nonzero;"/><path d="M217.389,26.752c0.897,-0.065 1.734,1.379 1.869,3.223c0.134,1.844 -0.486,3.394 -1.383,3.459c-0.898,0.066 -1.735,-1.379 -1.869,-3.223c-0.134,-1.844 0.486,-3.394 1.383,-3.459Z"/></g><circle cx="117.832" cy="228.346" r="52.35"/><circle cx="117.462" cy="228.426" r="43.39" style="fill:#fff;"/><circle cx="290.212" cy="228.346" r="52.35"/><circle cx="289.832" cy="228.426" r="43.39" style="fill:#fff;"/><path d="M206.662,71.306l47.59,36.48c-0,0 10.05,-5.29 12.16,-3.17c2.11,2.11 8.46,5.82 8.46,7.93c-0,2.11 -2.28,8.67 -3.86,10.26c-1.59,1.59 -5.44,-0.54 -5.44,-0.54c-0,0 1.79,-9.69 -6.56,-7.6c-6.48,1.62 -2.36,7.9 -0.78,8.96c1.59,1.06 -9.8,-5.26 -13.5,-10.02c-3.7,-4.76 -38.07,-25.38 -38.07,-25.38l-0,-16.92Z" style="fill:#f9d4bb;fill-rule:nonzero;"/><path d="M135.812,146.396c-8.46,4.76 -12.69,17.98 34.37,16.39c47.06,-1.59 -34.37,-16.39 -34.37,-16.39Z" style="fill:#693f11;fill-rule:nonzero;"/><path d="M268.532,157.496c-0,0 -31.73,-17.98 -64.51,36.48l-3.7,-15.86c-0,0 30.67,-49.17 65.04,-34.9l3.17,14.28Z" style="fill:#af436e;fill-rule:nonzero;"/><path d="M198.522,215.106l-72.48,-0.43c-0,0 -17.72,-0.6 -17.69,13.84c0.02,9.86 7.99,16.15 17.59,16.15c9.6,0 73.31,0.56 73.31,0.56c-0,0 18.33,-1.13 18.33,-15.88c0.01,-12.68 -19.06,-14.24 -19.06,-14.24Z" style="fill:#fff;fill-rule:nonzero;stroke:#bdccd4;stroke-width:3px;"/><path d="M234.142,231.584l-18.328,6.836l3.142,8.423l18.328,-6.836l-3.142,-8.423Z"/><g><path d="M199.852,214.436c-1.58,-0.46 -2.55,0.47 -2.15,2.07l5.7,22.68c0.4,1.6 2.02,2.49 3.59,1.99l36.6,-11.82c1.57,-0.51 1.99,-1.96 0.94,-3.23l-1.8,-2.17c-1.06,-1.27 -3.26,-2.42 -4.91,-2.57l-17.1,-1.5c-1.64,-0.14 -4.28,-0.64 -5.87,-1.1l-15,-4.35Z" style="fill:#898989;fill-rule:nonzero;"/></g><path d="M136.872,122.066c-0,0 -8.33,9.61 -7.4,20.09c0.9,10.18 67.04,33.66 67.04,33.66l-15.29,42.01c-0,0 27.96,3.4 38.67,2.06c12.24,-1.53 -3.58,-55.17 -3.58,-55.17l-46.66,-38.95l-32.78,-3.7Z" style="fill-rule:nonzero;"/><path d="M117.832,107.266c1.59,7.4 35.94,32.78 62.38,25.91l17.46,-40.19l5.29,1.06l7.81,-22.1c-0,0 -25.26,-23.38 -29.49,-20.2c-4.23,3.17 -4.76,2.64 -5.29,3.17c-3.7,3.7 -58.27,51.83 -58.16,52.35Z" style="fill:#015478;fill-rule:nonzero;"/><path d="M265.362,143.216l13.21,-6.34l2.65,6.34l-12.16,5.29l-3.7,-5.29Z" style="fill:#af436e;fill-rule:nonzero;"/><path d="M269.062,156.436l13.22,-6.34l2.64,6.34l-12.16,5.29l-3.7,-5.29Z" style="fill:#af436e;fill-rule:nonzero;"/><path d="M274.872,126.296l11.11,41.78l28.02,-1.06l7.09,-13.08l-2.9,-40.18l-30.1,1.44l-13.22,11.1Z" style="fill:#f9d4bb;fill-rule:nonzero;"/><circle cx="289.942" cy="229.146" r="8.72" style="fill:#898989;"/><g><path d="M199.352,96.436l5.07,19.82l13.74,-1.51l-0.43,-19.9l-18.38,1.59Z" style="fill:#caa674;fill-rule:nonzero;"/><path d="M200.172,89.786l15.03,-2.07l4.34,8.2l-21.38,2.77l2.01,-8.9Z" style="fill:#fff;fill-rule:nonzero;stroke:#808080;stroke-width:2px;"/><path d="M200.952,103.216l16.63,-2.02l0.25,10.18l-14.84,2.04l-2.04,-10.2Z" style="fill:#693f11;fill-rule:nonzero;"/></g><path d="M166.482,81.886c-0,0 -8.46,25.91 -8.46,29.61c-0,3.7 36.48,10.05 36.48,10.05c-0,0 18.51,5.34 21.15,5.34c2.64,0 5.69,-5.87 7.81,-10.1c2.12,-4.23 -0.99,-11.1 -4.16,-11.1c-1.06,0 -4.49,10.73 -16.86,4.76l-1.53,-5.82c-0,0 -4.81,3.7 -4.81,7.4c-0,3.7 -21.15,-10.05 -21.15,-10.05l7.93,-18.51l-16.4,-1.58Z" style="fill:#f9d4bb;fill-rule:nonzero;"/><path d="M202.732,82.616c-10.04,-9.95 -29.27,-18.52 -38.12,-13.71c-8.85,4.8 -34.5,8.16 -44.23,-3.84c-9.73,-12.01 -30.08,-8.64 -32.29,-7.2l-3.98,2.88c-0,0 6.19,-1.92 16.81,0.96c10.62,2.88 14.6,25.45 32.73,26.41c18.14,0.96 35.43,-15.98 39.37,-15.37c18.57,2.88 32.88,13.02 29.71,9.87Z" style="fill:#fff;fill-rule:nonzero;stroke:#bdccd4;stroke-width:2px;"/><ellipse cx="261.192" cy="119.686" rx="5.44" ry="5.51"/><ellipse cx="241.132" cy="128.506" rx="5.44" ry="5.51"/><path d="M306.602,125.776l11.59,-11.7l3.74,39.72l-7.93,13.22l-7.4,-41.24Z" style="fill:#caa674;fill-rule:nonzero;"/><path d="M263.772,124.236l-21.18,9.4l-3.79,-9.97l20.79,-9.28l4.18,9.85Z" style="fill-rule:nonzero;"/><g><path d="M306.012,113.406c-2.64,-2.19 -11.93,-3.02 -13.68,-2.15c-1.74,0.87 -6.69,27.09 -5.64,29.09c1.05,2 13.06,4.49 13.97,3.8c0.92,-0.7 6.53,-29.76 5.35,-30.74Z" style="fill:#015478;fill-rule:nonzero;"/><path d="M303.852,115.106l-9.94,-1.04l-5.4,25.95l10.88,2.58l4.46,-27.49Z" style="fill:#fff;fill-rule:nonzero;"/></g><path d="M274.872,126.296l31.73,-0.52l7.4,41.24l-28.02,1.06l-11.11,-41.78Z" style="fill:#8b745b;fill-rule:nonzero;"/></g></g></svg>