<?xml version="1.0" encoding="UTF-8" standalone="no"?><!DOCTYPE svg PUBLIC "-//W3C//DTD SVG 1.1//EN" "http://www.w3.org/Graphics/SVG/1.1/DTD/svg11.dtd"><svg width="100%" height="100%" viewBox="0 0 231 84" version="1.1" xmlns="http://www.w3.org/2000/svg" xmlns:xlink="http://www.w3.org/1999/xlink" xml:space="preserve" xmlns:serif="http://www.serif.com/" style="fill-rule:evenodd;clip-rule:evenodd;stroke-linejoin:round;stroke-miterlimit:2;"><rect id="twint" x="0" y="0" width="230.25" height="82.9" style="fill:none;"/><clipPath id="_clip1"><rect x="0" y="0" width="230.25" height="82.9"/></clipPath><g clip-path="url(#_clip1)"><g id="twint1" serif:id="twint"><rect x="0.375" y="0.488" width="230.25" height="82.9" style="fill:#015478;"/><path id="Shape1_00000052073373825724267200000002959048514848074680_" d="M70.345,56.928c-0,0.9 -0.64,1.99 -1.42,2.44l-27.51,15.92c-0.79,0.45 -2.06,0.45 -2.85,0l-27.51,-15.92c-0.79,-0.45 -1.42,-1.54 -1.42,-2.44l-0,-31.83c-0,-0.9 0.64,-1.99 1.42,-2.44l27.51,-15.92c0.79,-0.45 2.06,-0.45 2.85,0l27.51,15.92c0.79,0.45 1.42,1.54 1.42,2.44l-0,31.83Zm152.75,-29.54l-24.63,0l-0,5.89l8.85,0l-0,25.19l6.97,0l-0,-25.19l8.81,0l-0,-5.89Zm-111.89,0l-24.67,0l-0,5.89l8.85,0l-0,25.19l6.97,0l-0,-25.19l8.85,0l-0,-5.89Zm71.3,-0.97c-7.76,0 -12.07,4.95 -12.07,12.12l-0,19.93l6.9,0l0,-20.08c0,-3.11 1.84,-5.52 5.25,-5.52c3.41,0 5.21,2.85 5.21,5.52l0,20.08l6.9,0l0,-19.93c0.03,-7.17 -4.44,-12.12 -12.19,-12.12Zm-26.02,0.97l-0,31.08l6.9,0l-0,-31.08l-6.9,0Zm-23.39,12.31l0.22,1.39l6.48,17.38l2.81,0l8.81,-31.08l-6.79,0l-4.2,16.33l-0.26,1.76l-0.34,-1.76l-5.62,-16.33l-2.25,0l-5.62,16.33l-0.34,1.76l-0.22,-1.76l-4.2,-16.33l-6.82,0l8.81,31.08l2.81,0l6.48,-17.38l0.24,-1.39" style="fill:#fff;fill-rule:nonzero;"/><path id="Shape2_00000011014704979527395230000012637302901649132966_" d="M54.335,41.088l-7.2,10.55l-3.67,-5.63l4.24,-6.34c0.79,-1.13 2.47,-4.24 0.53,-8.48c-1.58,-3.45 -4.99,-5.11 -7.99,-5.11c-3,0 -6.26,1.54 -8.02,5.11c-1.99,4.09 -0.26,7.28 0.49,8.37c-0,0 2.36,3.45 4.31,6.38l3.19,4.62l4.8,7.36c0.04,0.04 0.79,1.2 2.14,1.2c1.27,0 2.06,-1.16 2.17,-1.28l11.25,-16.67l-6.22,0l-0,-0.08l-0.02,0Zm-14.13,0.27c-0,0 -1.87,-2.85 -3.11,-4.84c-1.31,-2.14 0.15,-5.33 3.11,-5.33c2.96,0 4.42,3.19 3.11,5.33c-1.2,1.98 -3.11,4.84 -3.11,4.84Z" style="fill:#af436e;fill-rule:nonzero;"/><path d="M33.305,51.298l-7.05,-9.91c-0,0 -1.87,-2.85 -3.11,-4.84c-1.31,-2.14 0.15,-5.33 3.11,-5.33c0.38,0 0.71,0.04 1.05,0.15l2.47,-4.54c-1.12,-0.49 -2.36,-0.75 -3.49,-0.75c-3,0 -6.26,1.54 -8.02,5.11c-1.99,4.09 -0.26,7.28 0.49,8.37l12.33,18.28c0.11,0.15 0.9,1.31 2.21,1.31c1.31,0 2.06,-1.13 2.17,-1.28l3.71,-5.67l-3.19,-4.69l-2.68,3.79Z" style="fill:#af436e;fill-rule:nonzero;"/></g></g></svg>