<?xml version="1.0" encoding="UTF-8" standalone="no"?><!DOCTYPE svg PUBLIC "-//W3C//DTD SVG 1.1//EN" "http://www.w3.org/Graphics/SVG/1.1/DTD/svg11.dtd"><svg width="100%" height="100%" viewBox="0 0 201 201" version="1.1" xmlns="http://www.w3.org/2000/svg" xmlns:xlink="http://www.w3.org/1999/xlink" xml:space="preserve" xmlns:serif="http://www.serif.com/" style="fill-rule:evenodd;clip-rule:evenodd;stroke-linejoin:round;stroke-miterlimit:2;"><rect id="twint" x="0.097" y="0.816" width="200" height="200" style="fill:none;"/><g><path id="Shape1" d="M62.759,103.38c0,0.754 -0.534,1.666 -1.192,2.043l-23.032,13.322c-0.659,0.377 -1.726,0.377 -2.385,0l-23.033,-13.322c-0.659,-0.377 -1.192,-1.288 -1.192,-2.043l0,-26.645c0,-0.754 0.534,-1.666 1.192,-2.043l23.033,-13.323c0.659,-0.377 1.726,-0.377 2.385,0l23.032,13.323c0.659,0.377 1.192,1.288 1.192,2.043l0,26.645Zm127.869,-24.729l-20.616,-0l0,4.933l7.405,-0l-0,21.084l5.836,-0l-0,-21.084l7.374,-0l0.001,-4.933Zm-93.666,-0l-20.647,-0l0,4.933l7.405,-0l0,21.084l5.836,-0l0,-21.084l7.405,-0l0.001,-4.933Zm59.683,-0.816c-6.495,-0 -10.105,4.147 -10.105,10.149l0,16.685l5.774,-0l-0,-16.81c-0,-2.608 1.538,-4.619 4.393,-4.619c2.856,0 4.362,2.388 4.362,4.619l0,16.81l5.773,-0l0,-16.685c0.032,-6.002 -3.702,-10.149 -10.197,-10.149Zm-21.777,0.816l0,26.017l5.774,-0l-0,-26.017l-5.774,-0Zm-19.58,10.306l0.188,1.163l5.428,14.548l2.354,-0l7.374,-26.017l-5.68,-0l-3.515,13.669l-0.22,1.477l-0.282,-1.477l-4.707,-13.669l-1.883,-0l-4.706,13.669l-0.283,1.477l-0.187,-1.477l-3.515,-13.669l-5.711,-0l7.374,26.017l2.354,-0l5.428,-14.548l0.188,-1.163" style="fill:#fff;fill-rule:nonzero;"/><path d="M62.98,103.38l0.166,-26.645c0.003,-0.442 -0.146,-0.931 -0.396,-1.365c-0.249,-0.432 -0.6,-0.805 -0.983,-1.027c0.001,0.001 -22.95,-13.461 -22.95,-13.461c-0.001,-0 -0.002,-0.001 -0.003,-0.001c-0.406,-0.236 -0.938,-0.362 -1.472,-0.365c-0.535,-0.003 -1.069,0.12 -1.479,0.352l-23.111,13.192c-0.429,0.243 -0.827,0.657 -1.112,1.138c-0.288,0.486 -0.455,1.039 -0.458,1.537c0,-0 -0.137,26.645 -0.137,26.645c-0.002,0.521 0.17,1.101 0.466,1.612c0.294,0.508 0.712,0.943 1.164,1.204c-0.004,-0.002 22.978,13.408 22.978,13.408c0.001,0.001 0.003,0.002 0.004,0.002c0.467,0.268 1.074,0.415 1.685,0.415c0.611,0.001 1.219,-0.145 1.687,-0.412c0.001,-0.001 0.003,-0.001 0.004,-0.002c0,-0 2.466,-1.397 5.753,-3.34c1.749,-1.034 3.73,-2.223 5.701,-3.43c2.417,-1.481 4.817,-2.982 6.777,-4.226c2.647,-1.68 4.475,-2.892 4.475,-2.892c0.361,-0.231 0.689,-0.602 0.913,-1.032c0.22,-0.422 0.349,-0.889 0.328,-1.307Zm-0.442,-0c-0.016,0.338 -0.163,0.701 -0.373,1.022c-0.203,0.31 -0.475,0.574 -0.768,0.723c-0.001,0 -0.001,0.001 -0.002,0.001c0,-0 -1.961,0.981 -4.737,2.437c-2.056,1.079 -4.554,2.411 -7.043,3.768c-2.029,1.106 -4.047,2.23 -5.815,3.231c-3.262,1.846 -5.674,3.269 -5.761,3.32c-0.192,0.11 -0.446,0.152 -0.697,0.152c-0.252,0.001 -0.507,-0.04 -0.7,-0.15c0.004,0.003 -23.079,-13.232 -23.079,-13.232c-0.001,-0.001 -0.002,-0.002 -0.004,-0.002c-0.205,-0.117 -0.384,-0.323 -0.52,-0.552c-0.135,-0.229 -0.233,-0.483 -0.234,-0.718c0,-0 -0.137,-26.645 -0.137,-26.645c-0.001,-0.258 0.097,-0.54 0.243,-0.793c0.147,-0.255 0.343,-0.486 0.569,-0.617l22.958,-13.456c0.249,-0.143 0.577,-0.21 0.904,-0.212c0.329,-0.002 0.661,0.058 0.914,0.201c-0.003,-0.002 23.11,13.182 23.11,13.182c0,0 0.001,0.001 0.001,0.001c0.275,0.155 0.521,0.423 0.702,0.728c0.181,0.306 0.301,0.651 0.303,0.966l0.166,26.645Zm58.55,-13.12l-4.152,-11.853c-0.104,-0.302 -0.388,-0.505 -0.708,-0.505l-1.883,0.011c-0.315,0 -0.595,0.2 -0.697,0.498l-4.206,12.449l-3.255,-12.346c-0.063,-0.243 -0.282,-0.413 -0.533,-0.413l-5.711,0.036c-0.161,-0 -0.313,0.075 -0.41,0.204c-0.098,0.128 -0.129,0.295 -0.085,0.45l7.537,25.971c0.042,0.149 0.178,0.251 0.332,0.251l2.354,-0.015c0.137,-0 0.261,-0.086 0.309,-0.215l5.275,-14.425c0.219,0.707 1.241,3.992 2.315,7.267c1.212,3.692 2.487,7.359 2.487,7.359c0.132,0.354 0.47,0.589 0.847,0.589l2.354,0.044c0.424,0 0.797,-0.282 0.913,-0.69c0,-0 0.647,-2.134 1.523,-5.19c2.176,-7.586 5.837,-20.831 5.837,-20.831c0.08,-0.282 0.023,-0.585 -0.153,-0.819c-0.177,-0.233 -0.453,-0.371 -0.746,-0.371l-5.68,0.025c-0.415,0 -0.778,0.281 -0.881,0.683l-2.983,11.836Zm35.557,-12.646c-2.232,-0.154 -4.159,0.194 -5.76,0.96c-0.81,0.387 -1.522,0.896 -2.156,1.482c-1.063,0.982 -1.877,2.216 -2.42,3.653c-0.482,1.276 -0.721,2.717 -0.755,4.275c-0,-0 0.043,16.685 0.043,16.685c0,0.521 0.423,0.943 0.943,0.943l5.774,-0.034c0.502,-0 0.909,-0.407 0.909,-0.909l-0.114,-16.81c-0.008,-1.109 0.294,-2.098 0.927,-2.8c0.607,-0.672 1.508,-1.067 2.671,-1.076c1.132,-0.009 2.015,0.428 2.625,1.098c0.686,0.754 1.042,1.783 1.049,2.778c0,-0 0.136,16.81 0.136,16.81c-0,0.305 0.247,0.552 0.552,0.552l5.773,-0.049c0.278,0 0.504,-0.225 0.504,-0.503l-0.14,-16.685c-0.011,-3.154 -1.029,-5.803 -2.91,-7.635c-1.797,-1.752 -4.386,-2.764 -7.651,-2.735Zm-21.777,0.816c-0.121,0 -0.22,0.099 -0.22,0.221c-0,-0 -0.205,1.193 -0.419,3.122c-0.092,0.823 -0.177,1.767 -0.247,2.81c-0.041,0.598 -0.073,1.224 -0.089,1.873c-0.041,1.725 -0.013,3.598 -0.003,5.463c0.037,6.418 0.153,12.749 0.153,12.749c0,0.455 0.37,0.825 0.825,0.825l5.774,-0.082c0.41,-0 0.743,-0.333 0.743,-0.743l-0.422,-26.017c-0,-0.177 -0.144,-0.321 -0.321,-0.321l-5.774,0.1Zm-37.685,0.221c0,-0.058 -0.023,-0.115 -0.065,-0.156c-0.041,-0.041 -0.097,-0.065 -0.156,-0.065c0,0 -2.184,-0.234 -5.161,-0.453c-1.122,-0.083 -2.349,-0.156 -3.614,-0.215c-0.512,-0.024 -1.03,-0.039 -1.548,-0.053c-1.047,-0.027 -2.093,-0.049 -3.097,-0.057c-3.946,-0.028 -7.227,0.028 -7.227,0.028c-0.536,-0 -0.971,0.434 -0.971,0.971l0.037,4.933c0,0.516 0.418,0.934 0.934,0.934l6.539,-0.052c0,-0 0.201,20.202 0.201,20.202c-0,0.367 0.298,0.665 0.665,0.665l5.836,-0.062c0.334,0 0.604,-0.27 0.604,-0.603l-0.234,-20.723c0,0 7.035,-0.082 7.035,-0.082c0.154,-0 0.279,-0.125 0.279,-0.279l-0.057,-4.933Zm93.666,0c0,-0.058 -0.023,-0.115 -0.065,-0.156c-0.041,-0.041 -0.097,-0.065 -0.156,-0.065c0,0 -2.18,-0.234 -5.154,-0.453c-1.12,-0.083 -2.344,-0.155 -3.608,-0.215c-0.512,-0.024 -1.028,-0.039 -1.546,-0.053c-1.045,-0.027 -2.09,-0.049 -3.092,-0.057c-3.94,-0.029 -7.216,0.027 -7.216,0.027c-0.536,0 -0.971,0.435 -0.971,0.972l0.037,4.933c-0,0.516 0.418,0.934 0.934,0.934l6.539,-0.052c-0,-0 0.201,20.202 0.201,20.202c-0,0.367 0.297,0.665 0.665,0.665l5.836,-0.062c0.333,0 0.603,-0.27 0.603,-0.603l-0.233,-20.723c-0,-0 7.004,-0.082 7.004,-0.082c0.154,-0 0.279,-0.125 0.279,-0.279l-0.057,-4.933Zm-75.562,10.306l0.219,-0.035c-0,0 0.239,1.111 0.239,1.111c0.097,0.22 1.609,3.658 3.065,7.129c1.134,2.702 2.231,5.417 2.702,6.589c-0,0 1.013,-0.019 1.013,-0.019c0.232,-0.867 0.675,-2.503 1.246,-4.54c1.743,-6.225 4.63,-16.205 5.618,-19.612c-0,0 -3.736,-0.016 -3.736,-0.016c-0,-0 -3.391,12.927 -3.391,12.927l-0.22,1.428c-0.06,0.403 -0.401,0.703 -0.807,0.711c-0.407,0.009 -0.76,-0.277 -0.836,-0.677c-0,0 -0.265,-1.424 -0.265,-1.424c-0,-0 -4.444,-13.132 -4.444,-13.132c0,-0 -0.823,-0.005 -0.823,-0.005c0,-0 -4.596,13.1 -4.596,13.1l-0.281,1.426c-0.06,0.311 -0.337,0.533 -0.654,0.523c-0.317,-0.01 -0.58,-0.248 -0.62,-0.563c0,0 -0.174,-1.442 -0.174,-1.442c-0,-0 -3.318,-13.238 -3.318,-13.238c-0,0 -4.604,-0.028 -4.604,-0.028c0,-0 6.961,25.154 6.961,25.154c-0,-0 1.862,0.012 1.862,0.012c0,-0 5.435,-14.276 5.435,-14.276l0.191,-1.138l0.218,0.035Zm41.358,-10.902c3.106,0.028 5.559,1.013 7.239,2.709c1.734,1.751 2.637,4.256 2.595,7.218l-0.136,16.179c0,0 -4.718,-0.039 -4.718,-0.039c0,-0 0.132,-16.263 0.132,-16.263c0.01,-1.331 -0.457,-2.71 -1.36,-3.733c-0.85,-0.963 -2.086,-1.616 -3.69,-1.629c-1.655,-0.012 -2.929,0.578 -3.806,1.523c-0.89,0.958 -1.372,2.305 -1.383,3.839c0,-0 -0.107,15.896 -0.107,15.896c0,-0 -3.925,-0.023 -3.925,-0.023c-0,-0 0.041,-15.748 0.041,-15.748c-0.029,-1.337 0.14,-2.575 0.482,-3.695c0.376,-1.226 0.943,-2.315 1.753,-3.211c0.495,-0.547 1.065,-1.025 1.713,-1.434c1.391,-0.877 3.102,-1.447 5.17,-1.589Zm33.76,0.84l-0.054,4.406c0,0 -7.098,-0.083 -7.098,-0.083c-0.202,0 -0.366,0.164 -0.366,0.366l-0.231,20.474c0,-0 -4.567,-0.049 -4.567,-0.049c-0,0 0.203,-20.425 0.203,-20.425c0,-0.484 -0.392,-0.875 -0.875,-0.875l-6.463,-0.052c-0.001,-0 0.022,-3.021 0.022,-3.021c1.255,0.014 3.603,0.033 6.252,0.014c1.002,-0.008 2.047,-0.03 3.092,-0.058c0.518,-0.013 1.035,-0.029 1.546,-0.052c1.264,-0.06 2.488,-0.132 3.608,-0.215c2.413,-0.178 4.303,-0.366 4.931,-0.43l-0,-0Zm-93.666,-0l-0.054,4.406c0,0 -7.129,-0.083 -7.129,-0.083c-0.202,-0 -0.365,0.164 -0.365,0.366l-0.231,20.474c-0,-0 -4.568,-0.049 -4.568,-0.049c0,0 0.203,-20.425 0.203,-20.425c0,-0.484 -0.391,-0.875 -0.875,-0.875l-6.463,-0.052c-0,-0 0.023,-3.022 0.023,-3.022c1.256,0.015 3.609,0.034 6.262,0.015c1.004,-0.008 2.05,-0.03 3.097,-0.057c0.518,-0.014 1.036,-0.029 1.549,-0.053c1.264,-0.059 2.491,-0.132 3.613,-0.215c2.416,-0.178 4.31,-0.366 4.938,-0.43l-0,-0Zm38.387,-0.019l5.189,0.09c0,0 -0.404,24.948 -0.404,24.948c-0,0 -4.203,-0.06 -4.203,-0.06c0.032,-1.908 0.109,-6.895 0.138,-11.935c0.011,-1.865 0.039,-3.738 -0.003,-5.463c-0.015,-0.649 -0.048,-1.275 -0.088,-1.873c-0.071,-1.043 -0.156,-1.987 -0.247,-2.81c-0.159,-1.437 -0.314,-2.466 -0.382,-2.897l-0,0Z"/><path id="Shape2" d="M49.36,90.12l-6.025,8.829l-3.075,-4.713l3.545,-5.309c0.659,-0.943 2.071,-3.551 0.439,-7.101c-1.318,-2.891 -4.174,-4.274 -6.684,-4.274c-2.51,0 -5.241,1.288 -6.715,4.274c-1.663,3.425 -0.22,6.095 0.408,7.007c-0,0 1.976,2.891 3.609,5.342l2.667,3.865l4.017,6.159c0.032,0.032 0.659,1.005 1.789,1.005c1.066,0 1.726,-0.973 1.82,-1.068l9.413,-13.951l-5.208,-0l-0,-0.065Zm-11.831,0.22c0,-0 -1.568,-2.388 -2.605,-4.054c-1.098,-1.791 0.126,-4.462 2.605,-4.462c2.479,0 3.703,2.672 2.605,4.462c-1.004,1.666 -2.605,4.054 -2.605,4.054Z" style="fill:#fff;fill-rule:nonzero;"/><path d="M49.36,89.964l-0,0.376l-0.22,-0.219c-0.001,-0.044 0.012,-0.088 0.038,-0.126c-0,0 -1.72,2.047 -3.381,4.164c-0.899,1.145 -1.775,2.305 -2.388,3.125c-0.147,-0.236 -0.308,-0.494 -0.477,-0.76c-0.524,-0.829 -1.113,-1.729 -1.479,-2.287c-0,-0 3.156,-4.773 3.156,-4.773c0.462,-0.675 1.239,-2.064 1.323,-3.974c0.051,-1.166 -0.149,-2.531 -0.859,-4.045c-0.714,-1.536 -1.812,-2.692 -3.074,-3.475c-1.387,-0.861 -2.968,-1.275 -4.439,-1.262c-1.487,0.014 -3.042,0.43 -4.412,1.325c-1.19,0.777 -2.247,1.909 -2.992,3.453c-0,0.001 -0.001,0.003 -0.002,0.004c-0.692,1.461 -0.878,2.794 -0.805,3.938c0.118,1.833 0.896,3.184 1.329,3.8c-0.001,-0.001 3.657,5.298 3.657,5.298l2.712,3.845c0,-0 4.074,6.105 4.074,6.105c0.02,0.029 0.042,0.056 0.067,0.081c0.023,0.023 0.332,0.47 0.88,0.788c0.34,0.197 0.764,0.349 1.267,0.344c0.4,-0.005 0.755,-0.113 1.057,-0.272c0.629,-0.331 1.016,-0.88 1.089,-0.955c0.021,-0.021 0.04,-0.043 0.057,-0.068l9.262,-14.053c0.058,-0.085 0.064,-0.196 0.015,-0.287c-0.048,-0.091 -0.143,-0.149 -0.247,-0.149l-5.208,0.059Zm0.092,0.443l4.588,0.052c-0,-0 -9.259,13.407 -9.259,13.407c-0.094,0.115 -0.325,0.403 -0.672,0.621c-0.21,0.132 -0.471,0.236 -0.774,0.233c-0.304,-0.003 -0.557,-0.103 -0.76,-0.227c-0.429,-0.261 -0.652,-0.634 -0.67,-0.653l0.066,0.082l-3.952,-6.202l-2.636,-3.905c0.006,0.009 -3.555,-5.375 -3.555,-5.375c-0.001,-0 -0.001,-0.001 -0.001,-0.002c-0.34,-0.504 -0.947,-1.607 -1.013,-3.09c-0.042,-0.931 0.137,-2.01 0.722,-3.187c0.628,-1.242 1.5,-2.155 2.481,-2.771c1.108,-0.695 2.355,-1.005 3.543,-0.994c1.166,0.01 2.411,0.364 3.498,1.063c0.974,0.627 1.817,1.539 2.356,2.745c0.001,0.001 0.001,0.002 0.001,0.003c0.54,1.198 0.693,2.271 0.64,3.187c-0.085,1.442 -0.69,2.481 -1.043,2.978l-3.58,5.311c-0.222,0.332 -0.224,0.763 -0.006,1.097c-0,0 0.977,1.523 1.851,2.824c0.667,0.994 1.277,1.855 1.277,1.855c0.17,0.261 0.459,0.419 0.771,0.423c0.312,0.003 0.604,-0.15 0.78,-0.407c0,-0 1.433,-2.257 2.793,-4.565c1.152,-1.956 2.242,-3.932 2.554,-4.503Zm-12.115,0.04c-0.208,-0.13 -0.571,-0.373 -1.027,-0.752c-0.21,-0.174 -0.414,-0.363 -0.638,-0.593c-0.085,-0.087 -0.162,-0.179 -0.242,-0.276c-0.152,-0.184 -0.304,-0.374 -0.444,-0.577c-0.332,-0.48 -0.617,-0.998 -0.888,-1.449c-0.001,-0.002 -0.002,-0.004 -0.003,-0.005c-0.706,-1.241 -0.649,-2.765 0.083,-3.931c0.663,-1.056 1.826,-1.845 3.351,-1.783c1.472,0.066 2.567,0.848 3.12,1.917c0.569,1.098 0.594,2.467 -0.125,3.523c-0.414,0.618 -0.916,1.336 -1.385,1.99c-0.763,1.064 -1.426,1.951 -1.426,1.951c-0.041,0.062 -0.11,0.098 -0.184,0.098c-0.08,0 -0.154,-0.043 -0.192,-0.113Zm11.803,-0.318l0.217,0.211l0,0l-0.217,-0.219l-0,0.008Zm-0,0.001c0.001,0.032 0.009,0.063 0.025,0.093c0.029,0.054 0.078,0.093 0.136,0.109l-0.161,-0.202Zm-11.522,-0.386c-0.04,-0.201 -0.096,-0.458 -0.186,-0.778c-0.075,-0.261 -0.162,-0.523 -0.279,-0.821c-0.045,-0.112 -0.095,-0.22 -0.15,-0.332c-0.105,-0.213 -0.213,-0.428 -0.337,-0.639c-0.293,-0.494 -0.635,-0.966 -0.915,-1.402c-0.405,-0.614 -0.401,-1.405 -0.066,-2.037c0.336,-0.634 0.967,-1.132 1.844,-1.167c0.932,-0.042 1.663,0.393 2.074,1.034c0.463,0.723 0.572,1.666 0.143,2.446l-2.128,3.696Z"/><path d="M31.756,98.667l-5.9,-8.295c0,-0 -1.569,-2.388 -2.605,-4.054c-1.099,-1.791 0.125,-4.462 2.605,-4.462c0.314,0 0.597,0.032 0.879,0.126l2.071,-3.802c-0.942,-0.409 -1.976,-0.629 -2.918,-0.629c-2.51,-0 -5.241,1.288 -6.715,4.273c-1.663,3.426 -0.22,6.096 0.408,7.008l10.324,15.303c0.094,0.125 0.752,1.1 1.851,1.1c1.099,-0 1.726,-0.943 1.821,-1.068l3.107,-4.745l-2.668,-3.927l-2.259,3.173l-0.001,-0.001Z" style="fill:#fff;fill-rule:nonzero;"/><path d="M31.778,98.25c-0.306,-0.559 -1.025,-1.858 -1.859,-3.273c-0.634,-1.074 -1.331,-2.199 -1.923,-3.129c-0.698,-1.097 -1.251,-1.906 -1.334,-2.027c0.009,0.013 -2.569,-4.026 -2.569,-4.026c-0.376,-0.61 -0.335,-1.376 0.007,-1.977c0.329,-0.579 0.941,-1.009 1.756,-1.015l0.585,0.07c0.43,0.142 0.901,-0.044 1.118,-0.443l2.037,-3.82c0.121,-0.222 0.143,-0.484 0.061,-0.723c-0.082,-0.239 -0.261,-0.432 -0.493,-0.533c-0.516,-0.218 -1.056,-0.388 -1.596,-0.501c-0.569,-0.119 -1.139,-0.179 -1.68,-0.173c-1.492,0.016 -3.05,0.435 -4.422,1.335c-1.191,0.78 -2.249,1.916 -2.993,3.464c-0,0.002 -0.001,0.003 -0.002,0.005c-0.691,1.464 -0.875,2.798 -0.799,3.943c0.121,1.834 0.901,3.183 1.336,3.799c-0.004,-0.005 10.51,15.17 10.51,15.17c0.005,0.006 0.01,0.013 0.015,0.02c0.068,0.088 0.39,0.545 0.924,0.877c0.35,0.218 0.787,0.386 1.299,0.379c0.505,-0.006 0.928,-0.17 1.263,-0.386c0.517,-0.334 0.818,-0.783 0.884,-0.872c0.006,-0.008 0.011,-0.015 0.016,-0.023l3.046,-4.785c0.075,-0.113 0.074,-0.261 -0.003,-0.373l-2.72,-3.892c-0.05,-0.074 -0.134,-0.118 -0.223,-0.119c-0.089,-0.001 -0.174,0.042 -0.225,0.114l-2.016,2.914Zm-5.531,-17.321l1.26,-2.264c-0.106,-0.029 -0.212,-0.057 -0.318,-0.081c-0.44,-0.101 -0.881,-0.158 -1.301,-0.162c-1.184,-0.013 -2.427,0.293 -3.532,0.983c-0.98,0.613 -1.853,1.522 -2.481,2.76c-0.587,1.175 -0.768,2.252 -0.727,3.182c0.063,1.482 0.667,2.586 1.006,3.091l10.137,15.436c0.07,0.1 0.291,0.419 0.653,0.658c0.218,0.143 0.489,0.261 0.812,0.265c0.323,0.005 0.596,-0.096 0.813,-0.229c0.383,-0.233 0.612,-0.557 0.675,-0.64c-0,0 3.035,-4.508 3.035,-4.508c0,0 -2.275,-3.447 -2.275,-3.447l-2.067,2.823c-0.036,0.051 -0.092,0.084 -0.153,0.091l-0.027,0.002c-0.059,-0 -0.116,-0.024 -0.156,-0.066l-0.001,-0l0.001,0c-0.009,-0.008 -0.017,-0.018 -0.024,-0.028l-0.001,-0c0,-0 -1.288,-1.407 -2.702,-3.075c-0.807,-0.951 -1.641,-1.978 -2.326,-2.843c-0.876,-1.106 -1.488,-1.94 -1.488,-1.94c-0.006,-0.009 -0.013,-0.019 -0.02,-0.029c0,-0 -0.48,-0.697 -1.075,-1.609c-0.502,-0.768 -1.082,-1.691 -1.556,-2.458c-0.001,-0.001 -0.002,-0.003 -0.003,-0.005c-0.75,-1.239 -0.697,-2.787 0.011,-3.991c0.656,-1.117 1.853,-1.948 3.439,-1.935c0.135,0.001 0.264,0.007 0.391,0.019Z"/></g></svg>