<?xml version="1.0" encoding="UTF-8" standalone="no"?><!DOCTYPE svg PUBLIC "-//W3C//DTD SVG 1.1//EN" "http://www.w3.org/Graphics/SVG/1.1/DTD/svg11.dtd"><svg width="100%" height="100%" viewBox="0 0 201 201" version="1.1" xmlns="http://www.w3.org/2000/svg" xmlns:xlink="http://www.w3.org/1999/xlink" xml:space="preserve" xmlns:serif="http://www.serif.com/" style="fill-rule:evenodd;clip-rule:evenodd;stroke-linejoin:round;stroke-miterlimit:2;"><rect id="versenden" x="0.748" y="0.715" width="200" height="200" style="fill:none;"/><g><path d="M20.07,77.846c-0.114,0.023 -0.202,0.115 -0.219,0.23c-0.016,0.116 0.041,0.229 0.144,0.284l33.455,17.854c0,-0 5.035,31.207 5.035,31.207c0.032,0.191 0.17,0.348 0.356,0.403c0.186,0.056 0.387,-0 0.519,-0.143l17.749,-19.256c-0,-0 36.309,13.953 36.309,13.953c0.272,0.103 0.578,0.033 0.778,-0.178l72.846,-76.521c0.308,-0.325 0.37,-0.812 0.153,-1.203c-0.216,-0.392 -0.661,-0.599 -1.1,-0.511c-0,-0 -40.471,7.924 -81.462,16.05c-11.916,2.363 -23.882,4.712 -34.896,6.961c-4.134,0.844 -8.131,1.682 -11.943,2.494c-6.607,1.407 -12.657,2.722 -17.886,3.882c-12.128,2.69 -19.838,4.494 -19.838,4.494Zm0.909,0.407c2.282,-0.381 9.303,-1.565 19.243,-3.327c5.274,-0.935 11.365,-2.041 18.007,-3.277c3.831,-0.713 7.844,-1.472 11.985,-2.278c11.034,-2.149 22.986,-4.57 34.897,-6.96c34.162,-6.855 67.937,-13.701 78.22,-15.788c0,0 -69.852,74.242 -69.852,74.242c0,0 -36.322,-13.691 -36.322,-13.691c-0.227,-0.087 -0.484,-0.026 -0.648,0.153l-17.196,18.898c-0,-0 -5.097,-30.339 -5.097,-30.339c-0.021,-0.125 -0.098,-0.233 -0.21,-0.292l-33.027,-17.341l-0,0Z"/><path d="M59.143,127.565c-0,-0 0.522,-0.074 1.532,-0.419c0.42,-0.144 0.88,-0.323 1.417,-0.585c0.338,-0.164 0.685,-0.362 1.047,-0.592c0.472,-0.3 0.951,-0.666 1.466,-1.04c2.244,-1.633 4.978,-3.694 7.684,-5.733c5.825,-4.392 11.445,-8.719 11.445,-8.719c0.125,-0.086 0.156,-0.258 0.069,-0.383c-0.087,-0.125 -0.259,-0.156 -0.384,-0.069c-0,-0 -6.015,3.757 -12.162,7.685c-2.856,1.824 -5.741,3.668 -8.054,5.202c-0.53,0.352 -1.04,0.674 -1.485,1.011c-0.342,0.259 -0.649,0.516 -0.921,0.775c-0.432,0.412 -0.761,0.78 -1.042,1.124c-0.675,0.827 -0.927,1.29 -0.927,1.29c-0.125,0.087 -0.156,0.259 -0.069,0.384c0.087,0.125 0.259,0.155 0.384,0.069Z"/><path d="M53.916,96.209c0,-0 2.504,-0.688 6.815,-2.054c1.918,-0.608 4.184,-1.353 6.742,-2.242c1.666,-0.579 3.45,-1.228 5.338,-1.936c2.482,-0.93 5.134,-1.979 7.943,-3.075c12.246,-4.777 27.351,-10.731 42.277,-16.615c32.113,-12.66 63.364,-25.057 63.364,-25.057c0.142,-0.055 0.213,-0.214 0.158,-0.356c-0.055,-0.142 -0.214,-0.213 -0.356,-0.159c-0,0 -31.5,11.75 -63.816,23.883c-15.02,5.64 -30.22,11.347 -42.509,16.012c-2.819,1.069 -5.49,2.069 -7.955,3.042c-1.875,0.741 -3.634,1.455 -5.26,2.142c-2.494,1.056 -4.674,2.021 -6.505,2.856c-4.115,1.876 -6.434,3.044 -6.434,3.044c-0.142,0.055 -0.213,0.214 -0.158,0.357c0.054,0.142 0.214,0.213 0.356,0.158Z"/><path d="M78.174,106.92c-0,-0 2.093,-0.898 5.675,-2.625c1.593,-0.768 3.467,-1.7 5.576,-2.799c1.374,-0.717 2.839,-1.511 4.385,-2.373c2.032,-1.132 4.195,-2.395 6.487,-3.717c9.996,-5.767 22.312,-12.94 34.482,-20.028c26.186,-15.251 51.653,-30.166 51.653,-30.166c0.132,-0.075 0.179,-0.244 0.103,-0.376c-0.075,-0.132 -0.244,-0.178 -0.376,-0.103c0,0 -25.81,14.313 -52.275,29.074c-12.301,6.86 -24.748,13.803 -34.803,19.465c-2.306,1.299 -4.495,2.515 -6.504,3.687c-1.529,0.892 -2.96,1.748 -4.276,2.565c-2.021,1.254 -3.778,2.392 -5.25,3.371c-3.311,2.202 -5.15,3.546 -5.15,3.546c-0.133,0.075 -0.179,0.244 -0.103,0.376c0.075,0.132 0.244,0.178 0.376,0.103Z"/></g></svg>