<?xml version="1.0" encoding="UTF-8" standalone="no"?><!DOCTYPE svg PUBLIC "-//W3C//DTD SVG 1.1//EN" "http://www.w3.org/Graphics/SVG/1.1/DTD/svg11.dtd"><svg width="100%" height="100%" viewBox="0 0 201 201" version="1.1" xmlns="http://www.w3.org/2000/svg" xmlns:xlink="http://www.w3.org/1999/xlink" xml:space="preserve" xmlns:serif="http://www.serif.com/" style="fill-rule:evenodd;clip-rule:evenodd;stroke-linejoin:round;stroke-miterlimit:2;"><rect id="visa" x="0.563" y="0.711" width="200" height="200" style="fill:none;"/><g><path id="polygon9" d="M89.835,121.843l-14.051,-0l8.789,-54.342l14.05,-0l-8.788,54.342Z" style="fill:#fff;fill-rule:nonzero;"/><path d="M89.835,122.119c0.136,-0 0.251,-0.099 0.273,-0.232l9.309,-54.258c0.038,-0.233 -0.028,-0.47 -0.181,-0.65c-0.153,-0.179 -0.377,-0.283 -0.613,-0.283l-14.05,-0.124c-0.456,-0 -0.844,0.33 -0.917,0.78c-0,0 -4.716,27.574 -7.338,43.424c-0.417,2.523 -0.789,4.748 -1.055,6.521c-0.408,2.715 -0.606,4.364 -0.606,4.364c-0.053,0.33 0.041,0.667 0.258,0.922c0.217,0.255 0.535,0.401 0.869,0.401c0,0 3.512,-0.113 7.026,-0.329c3.526,-0.218 7.025,-0.536 7.025,-0.536Zm-0.233,-0.573c-0.839,-0.074 -3.806,-0.331 -6.792,-0.515c-2.154,-0.133 -4.307,-0.227 -5.651,-0.279c0.14,-0.739 0.331,-1.778 0.553,-3.059c0.306,-1.766 0.654,-3.995 1.054,-6.521c2.259,-14.299 5.906,-38.168 6.606,-42.75c-0,0 12.314,-0.109 12.314,-0.109l-8.084,53.233Z"/><path id="path11" d="M140.772,68.829c-2.771,-1.099 -7.167,-2.313 -12.603,-2.313c-13.876,-0 -23.647,7.399 -23.707,17.978c-0.115,7.805 6.996,12.14 12.315,14.743c5.436,2.659 7.284,4.395 7.284,6.765c-0.055,3.641 -4.393,5.319 -8.438,5.319c-5.61,-0 -8.616,-0.865 -13.184,-2.891l-1.85,-0.868l-1.967,12.199c3.296,1.501 9.368,2.833 15.671,2.892c14.744,-0 24.342,-7.285 24.456,-18.559c0.056,-6.186 -3.699,-10.926 -11.794,-14.799c-4.915,-2.487 -7.925,-4.163 -7.925,-6.707c0.058,-2.313 2.546,-4.682 8.094,-4.682c4.568,-0.116 7.924,0.982 10.466,2.081l1.271,0.577l1.911,-11.735Z" style="fill:#fff;fill-rule:nonzero;"/><path d="M141.044,68.873c0.021,-0.127 -0.05,-0.252 -0.17,-0.3c-1.568,-0.708 -3.66,-1.479 -6.192,-2.053c-1.935,-0.439 -4.118,-0.75 -6.513,-0.85c-3.028,-0.091 -5.876,0.157 -8.485,0.741c-3.022,0.676 -5.724,1.789 -8.012,3.25c-5.304,3.385 -8.403,8.623 -8.439,14.826c-0.039,3.291 1.086,6.028 2.833,8.304c2.655,3.458 6.776,5.824 10.203,7.484c-0,0 -0,0 -0,0c2.374,1.15 4.04,2.108 5.144,3.037c1.051,0.886 1.526,1.696 1.533,2.68c-0.017,1.202 -0.672,2.106 -1.629,2.764c-1.482,1.02 -3.632,1.49 -5.694,1.5c-2.616,0.013 -4.647,-0.168 -6.545,-0.58c-2.041,-0.443 -3.929,-1.151 -6.223,-2.154c-0.006,-0.003 -1.846,-0.856 -1.846,-0.856c-0.281,-0.131 -0.608,-0.124 -0.882,0.021c-0.275,0.145 -0.465,0.411 -0.515,0.717l-1.906,12.209c-0.067,0.413 0.151,0.819 0.532,0.992c1.903,0.855 4.698,1.658 7.93,2.197c2.514,0.419 5.294,0.683 8.118,0.694c0.002,0 0.005,0 0.007,0c6.848,-0.036 12.603,-1.609 16.859,-4.381c5.222,-3.4 8.223,-8.592 8.251,-15.014c0,-0 0,-0.001 0,-0.001c0.01,-2.934 -0.794,-5.554 -2.467,-7.915c-1.98,-2.792 -5.191,-5.228 -9.745,-7.376c-2.336,-1.165 -4.238,-2.145 -5.584,-3.131c-1.315,-0.964 -2.087,-1.903 -2.098,-3.081c0.023,-1.07 0.647,-2.138 1.911,-2.935c1.265,-0.799 3.146,-1.322 5.704,-1.337c0.003,0 0.007,0 0.01,0c1.973,-0.062 3.717,0.107 5.265,0.407c1.98,0.384 3.641,0.981 5.05,1.58c-0,0 1.269,0.567 1.269,0.567c0.098,0.045 0.212,0.041 0.307,-0.01c0.095,-0.051 0.161,-0.143 0.179,-0.25l1.84,-11.746Zm-0.583,0.141l-1.866,11.045l-0.864,-0.398c-1.443,-0.634 -3.146,-1.268 -5.18,-1.688c-1.595,-0.329 -3.393,-0.526 -5.43,-0.487c-2.768,-0.015 -4.803,0.555 -6.182,1.403c-1.599,0.983 -2.346,2.349 -2.387,3.687c0,0.004 0,0.008 0,0.012c-0.007,1.171 0.537,2.191 1.581,3.17c1.365,1.279 3.632,2.507 6.578,4.018c0.003,0.002 0.007,0.004 0.011,0.006c4.312,2.093 7.363,4.421 9.217,7.101c1.494,2.159 2.195,4.544 2.156,7.205c-0.093,5.921 -2.907,10.68 -7.756,13.763c-4.066,2.584 -9.545,3.992 -16.038,3.958c-2.727,-0.04 -5.409,-0.322 -7.832,-0.753c-2.693,-0.479 -5.064,-1.14 -6.812,-1.858c0,0 1.692,-10.18 1.692,-10.18l0.685,0.325c2.43,1.092 4.431,1.856 6.597,2.348c2.026,0.46 4.195,0.681 6.992,0.694c2.509,0.012 5.115,-0.592 6.929,-1.816c1.578,-1.066 2.585,-2.585 2.623,-4.55c0,-0.006 0,-0.011 0,-0.017c0.005,-1.287 -0.408,-2.433 -1.441,-3.585c-1.148,-1.28 -3.174,-2.6 -6.449,-4.219c-3.119,-1.542 -6.898,-3.691 -9.303,-6.868c-1.417,-1.873 -2.339,-4.115 -2.291,-6.818c-0,-0.004 -0,-0.007 -0,-0.011c0.03,-5.355 2.789,-9.784 7.319,-12.78c2.062,-1.363 4.481,-2.442 7.202,-3.184c2.435,-0.665 5.097,-1.09 7.957,-1.176c2.302,-0.096 4.417,0.037 6.308,0.293c2.399,0.325 4.425,0.839 5.984,1.36l0,0Z"/><path id="path13" d="M159.447,102.591c1.158,-3.122 5.61,-15.204 5.61,-15.204c-0.058,0.116 1.155,-3.18 1.849,-5.203l0.982,4.683c0,-0 2.661,13.007 3.239,15.724l-11.68,0Zm17.345,-35.09l-10.869,-0c-3.351,-0 -5.898,0.982 -7.344,4.508l-20.871,49.833l14.743,0c0,0 2.428,-6.707 2.949,-8.152l18.041,0c0.403,1.908 1.677,8.152 1.677,8.152l13.01,0l-11.336,-54.341Z" style="fill:#fff;fill-rule:nonzero;"/><path d="M177.062,67.444c-0.027,-0.128 -0.14,-0.219 -0.27,-0.219l-10.869,-0.576c-1.9,-0.068 -3.568,0.193 -4.984,0.95c-1.405,0.752 -2.555,2.01 -3.427,3.973c0.003,-0.008 -0.85,1.879 -2.164,4.942c-0.612,1.428 -1.315,3.116 -2.092,4.981c-6.067,14.553 -16.524,39.938 -16.524,39.938c-0.137,0.327 -0.101,0.7 0.095,0.995c0.196,0.295 0.527,0.472 0.881,0.472l14.743,-0.085c0.41,-0 0.776,-0.257 0.915,-0.642l2.686,-7.566c-0,-0 16.738,-0.107 16.738,-0.107c-0,0 1.591,7.492 1.591,7.492c0.071,0.35 0.379,0.602 0.737,0.602l13.01,-0.089c0.199,-0 0.388,-0.09 0.514,-0.245c0.126,-0.155 0.175,-0.358 0.135,-0.553l-11.715,-54.263Zm-0.493,0.344l10.748,53.386c-0,-0 -11.582,-0.08 -11.582,-0.08c0,0 -1.506,-7.57 -1.506,-7.57c-0.079,-0.373 -0.407,-0.639 -0.788,-0.639l-18.041,-0.115c-0.387,0 -0.733,0.243 -0.865,0.608l-2.76,7.488c-0,-0 -12.471,-0.073 -12.471,-0.073c2.375,-5.579 11.014,-25.891 16.25,-38.336c0.783,-1.862 1.494,-3.547 2.082,-4.985c1.261,-3.085 2.007,-5.017 2.007,-5.017c0.001,-0.003 0.002,-0.005 0.003,-0.008c0.556,-1.476 1.319,-2.464 2.313,-3.082c1.099,-0.684 2.432,-0.958 3.964,-1.013l10.646,-0.564Zm-12.597,19.231c-0.125,0.311 -1.248,3.127 -2.434,6.325c-0.334,0.899 -0.687,1.825 -0.982,2.747c-0.161,0.506 -0.298,1.008 -0.425,1.501c-0.209,0.818 -0.388,1.582 -0.526,2.293c-0.215,1.108 -0.318,1.996 -0.416,2.61c-0.031,0.085 -0.019,0.18 0.032,0.254c0.052,0.074 0.136,0.118 0.226,0.118l11.68,0.291c0.171,-0 0.332,-0.077 0.44,-0.21c0.108,-0.133 0.149,-0.307 0.114,-0.475l-2.87,-15.8l-0.886,-4.703c-0.096,-0.458 -0.487,-0.796 -0.955,-0.825c-0.467,-0.029 -0.897,0.258 -1.049,0.701c-0.541,1.485 -1.38,3.66 -1.753,4.642c-0.09,0.236 -0.153,0.406 -0.181,0.486l-0.015,0.045Zm2.195,0.651l0.139,-0.415c0.106,-0.312 0.252,-0.743 0.419,-1.235c0,0 0.241,1.04 0.241,1.04c-0.001,-0.005 3.453,14.982 3.453,14.982c-0,0 -10.472,0.261 -10.472,0.261l-0,0.001c0.309,-0.487 0.708,-1.106 1.141,-1.871c0.358,-0.631 0.718,-1.328 1.09,-2.085c0.225,-0.458 0.447,-0.929 0.652,-1.418c0.375,-0.893 0.708,-1.826 1.038,-2.727c1.245,-3.396 2.264,-6.42 2.264,-6.42c0.014,-0.038 0.025,-0.075 0.035,-0.113Z"/><path id="path15" d="M64.048,67.501l-13.761,37.056l-1.503,-7.516c-2.544,-8.672 -10.523,-18.093 -19.427,-22.778l12.604,47.522l14.859,0l22.086,-54.284l-14.858,-0Z" style="fill:#fff;fill-rule:nonzero;"/><path d="M64.048,67.225c-0.115,-0 -0.218,0.072 -0.258,0.18c-0,-0 -1.705,3.848 -3.904,9.091c-1.169,2.787 -2.471,5.96 -3.747,9.15c-1.005,2.51 -1.986,5.028 -2.878,7.365c-1.019,2.673 -1.927,5.105 -2.631,7.008c-0.001,0.001 -0.654,-3.216 -0.654,-3.216c-0.007,-0.035 -0.016,-0.07 -0.026,-0.104c-1.366,-4.586 -4.194,-9.378 -7.882,-13.598c-3.487,-3.991 -7.737,-7.472 -12.206,-9.798c-0.381,-0.2 -0.844,-0.157 -1.181,0.112c-0.337,0.268 -0.483,0.71 -0.373,1.126l12.862,47.454c0.095,0.359 0.42,0.609 0.791,0.609l14.859,-0.087c0.298,0 0.566,-0.18 0.678,-0.456l21.752,-54.421c0.047,-0.114 0.033,-0.244 -0.036,-0.347c-0.069,-0.102 -0.184,-0.164 -0.308,-0.164l-14.858,0.096Zm0.204,0.553l14.1,0.09c-0,0 -22.02,53.182 -22.02,53.182c-0,0 -13.736,-0.08 -13.736,-0.08c-0,-0 -11.535,-44.46 -11.535,-44.46c3.39,2.147 6.571,4.965 9.264,8.101c3.401,3.959 6.024,8.427 7.274,12.71c0.002,0.008 1.474,7.479 1.474,7.479c0.108,0.543 0.564,0.948 1.117,0.992c0.552,0.043 1.066,-0.285 1.259,-0.804c-0,0 1.863,-4.872 4.121,-11.119c0.85,-2.353 1.749,-4.901 2.627,-7.458c1.115,-3.25 2.2,-6.505 3.133,-9.378c1.539,-4.737 2.666,-8.416 2.922,-9.255Z"/><path id="path17" d="M37.509,67.501l-22.607,-0l-0.231,1.098c17.635,4.509 29.314,15.379 34.113,28.445l-4.915,-24.975c-0.809,-3.471 -3.295,-4.454 -6.36,-4.568Z" style="fill:#fff;fill-rule:nonzero;"/><path d="M37.52,67.225c-0.004,-0 -0.007,-0 -0.011,-0c0,-0 -2.387,-0.289 -5.651,-0.561c-1.229,-0.102 -2.571,-0.191 -3.957,-0.266c-0.561,-0.03 -1.127,-0.049 -1.695,-0.067c-1.146,-0.036 -2.292,-0.066 -3.391,-0.077c-4.32,-0.041 -7.913,0.03 -7.913,0.03c-0.575,-0 -1.072,0.403 -1.19,0.966l-0.225,1.099c-0.133,0.634 0.257,1.261 0.884,1.422c8.059,1.977 14.866,5.315 20.334,9.599c6.289,4.927 10.813,11.1 13.409,17.92c0.128,0.349 0.504,0.541 0.862,0.441c0.359,-0.101 0.58,-0.46 0.508,-0.825l-5.235,-24.926c-0.446,-1.804 -1.315,-2.965 -2.467,-3.691c-1.169,-0.738 -2.638,-1.025 -4.262,-1.064Zm-0.013,0.552c1.498,0.076 2.851,0.36 3.913,1.07c0.993,0.664 1.716,1.709 2.067,3.299c0,0 3.495,19.038 3.495,19.038c-2.64,-4.963 -6.338,-9.499 -11.045,-13.352c-4.588,-3.756 -10.137,-6.855 -16.587,-9.073c1.05,0.002 2.228,-0 3.465,-0.012c1.099,-0.01 2.245,-0.041 3.391,-0.077c0.568,-0.018 1.134,-0.037 1.695,-0.067c1.386,-0.075 2.728,-0.164 3.957,-0.266c3.21,-0.267 5.572,-0.551 5.649,-0.56Z"/></g></svg>