<?xml version="1.0" encoding="UTF-8" standalone="no"?><!DOCTYPE svg PUBLIC "-//W3C//DTD SVG 1.1//EN" "http://www.w3.org/Graphics/SVG/1.1/DTD/svg11.dtd"><svg width="100%" height="100%" viewBox="0 0 201 201" version="1.1" xmlns="http://www.w3.org/2000/svg" xmlns:xlink="http://www.w3.org/1999/xlink" xml:space="preserve" xmlns:serif="http://www.serif.com/" style="fill-rule:evenodd;clip-rule:evenodd;stroke-linejoin:round;stroke-miterlimit:2;"><rect id="weitere" x="0.771" y="0.067" width="200" height="200" style="fill:none;"/><g><path d="M57.404,92.064l-0.728,6.14c-0,0 10.279,5.185 28.63,5.443c18.351,0.257 35.957,-4.134 35.957,-4.134l0.299,-8.251c-0,-0 -15.42,5.275 -32.866,4.429c-17.445,-0.846 -31.292,-3.627 -31.292,-3.627Z" style="fill:#fff;"/><path d="M57.447,91.847c-0.06,-0.012 -0.123,0.002 -0.173,0.038c-0.05,0.036 -0.082,0.092 -0.089,0.153l-1.094,6.097c-0.029,0.246 0.098,0.484 0.319,0.595c0,-0 2.353,1.374 6.919,2.802c1.988,0.622 4.402,1.238 7.214,1.754c4.094,0.751 9.039,1.253 14.75,1.316c6.397,0.056 12.702,-0.445 18.21,-1.131c10.388,-1.294 17.941,-3.233 17.941,-3.233c0.323,-0.081 0.554,-0.365 0.566,-0.698l0.243,-8.253c0.008,-0.228 -0.096,-0.445 -0.279,-0.581c-0.183,-0.136 -0.421,-0.173 -0.636,-0.099c-0,0 -6.627,2.315 -16.102,3.693c-4.916,0.715 -10.596,1.18 -16.518,0.936c-5.74,-0.237 -11.092,-0.687 -15.689,-1.182c-9.356,-1.008 -15.582,-2.207 -15.582,-2.207Zm0.162,0.484c1.244,0.25 7.066,1.384 15.342,2.401c4.604,0.565 9.967,1.093 15.723,1.414c5.985,0.334 11.738,-0.05 16.72,-0.703c7.495,-0.982 13.248,-2.57 15.434,-3.227c0,-0.001 -0.288,6.697 -0.288,6.697c-1.894,0.431 -8.576,1.872 -17.24,2.85c-5.443,0.615 -11.669,1.05 -17.981,0.928c-5.588,-0.095 -10.412,-0.686 -14.427,-1.372c-2.747,-0.469 -5.112,-0.996 -7.081,-1.493c-3.487,-0.88 -5.712,-1.693 -6.524,-2.008l0.322,-5.487Z"/><path d="M57.404,92.064c-0,-0 14.044,-6.628 35.873,-5.832c19.164,0.699 28.84,4.338 28.84,4.338" style="fill:#fff;"/><path d="M57.498,92.263c-0,0 0.984,-0.271 2.83,-0.721c0.829,-0.203 1.815,-0.439 2.969,-0.71c0.405,-0.095 0.826,-0.198 1.267,-0.308c0.661,-0.164 1.364,-0.335 2.106,-0.52c2.413,-0.604 5.253,-1.277 8.497,-1.812c5.113,-0.843 11.202,-1.431 18.085,-1.272c5.677,0.118 10.522,0.509 14.53,0.998c9.472,1.154 14.257,2.858 14.257,2.858c0.114,0.043 0.241,-0.014 0.284,-0.128c0.043,-0.114 -0.015,-0.242 -0.129,-0.284c0,-0 -4.769,-1.889 -14.286,-3.358c-4.022,-0.621 -8.89,-1.164 -14.606,-1.462c-8.705,-0.429 -16.198,0.311 -22.071,1.405c-1.853,0.346 -3.55,0.712 -5.062,1.121c-0.758,0.204 -1.468,0.421 -2.131,0.642c-0.442,0.147 -0.861,0.295 -1.259,0.449c-1.13,0.438 -2.081,0.86 -2.863,1.245c-1.744,0.858 -2.606,1.458 -2.606,1.458c-0.111,0.052 -0.158,0.184 -0.106,0.294c0.052,0.11 0.184,0.157 0.294,0.105Z"/></g><g><path d="M110.378,100.537c0.83,-0.413 14.476,-7.029 35.637,-6.905c16.734,0.098 26.315,2.655 28.484,3.305l-0.206,4.948l-46.603,4.799l-17.353,-6.127l0.041,-0.02Z" style="fill:#fff;"/><path d="M110.356,100.667l-0,0.003l-0.081,-0.328c-0,0 -0.033,0.016 -0.033,0.016c-0,0 0.095,0.42 0.095,0.42c-0.025,0 -0.05,-0.004 -0.073,-0.012l17.303,6.267c0.052,0.018 0.107,0.024 0.161,0.019l46.639,-4.446c0.359,-0.037 0.636,-0.331 0.65,-0.691l0.241,-4.946c0.015,-0.347 -0.208,-0.66 -0.541,-0.76c-1.458,-0.447 -6.233,-1.777 -14.261,-2.67c-4.003,-0.445 -8.817,-0.779 -14.435,-0.844c-7.001,-0.063 -13.2,0.552 -18.376,1.553c-1.949,0.377 -3.75,0.813 -5.395,1.276c-1.991,0.56 -3.748,1.157 -5.264,1.733c-4.071,1.546 -6.381,2.895 -6.706,3.083l0.076,0.327Zm0.613,-0.126c0.954,-0.362 3.161,-1.142 6.427,-2.015c1.537,-0.412 3.303,-0.842 5.285,-1.275c1.635,-0.357 3.412,-0.711 5.326,-1.049c5.089,-0.902 11.14,-1.652 18.003,-1.632c5.549,0 10.308,0.279 14.268,0.67c7.043,0.696 11.543,1.752 13.44,2.267c0,0 -0.128,3.726 -0.128,3.726c-0,0 -45.858,5.074 -45.858,5.074l-16.763,-5.766Z"/><path d="M110.337,100.557l-0.54,6.161c0,-0 10.433,4.867 28.784,4.564c18.35,-0.303 35.813,-5.231 35.813,-5.231l0.047,-8.256c-0,-0 -15.251,5.744 -32.715,5.432c-17.463,-0.313 -31.389,-2.67 -31.389,-2.67Z" style="fill:#fff;"/><path d="M110.374,100.34c-0.061,-0.01 -0.123,0.005 -0.172,0.043c-0.048,0.038 -0.079,0.094 -0.084,0.155l-0.907,6.128c-0.022,0.247 0.113,0.48 0.337,0.585c0,0 2.394,1.302 7.001,2.589c2.007,0.561 4.438,1.103 7.265,1.533c4.115,0.626 9.073,0.976 14.782,0.865c6.397,-0.14 12.683,-0.833 18.168,-1.687c10.343,-1.612 17.833,-3.781 17.833,-3.781c0.321,-0.09 0.543,-0.382 0.545,-0.715l-0.009,-8.256c0.001,-0.228 -0.11,-0.442 -0.297,-0.572c-0.187,-0.13 -0.426,-0.16 -0.639,-0.08c-0,0 -6.553,2.517 -15.981,4.184c-4.892,0.865 -10.556,1.503 -16.482,1.44c-5.745,-0.061 -11.108,-0.347 -15.718,-0.701c-9.382,-0.722 -15.642,-1.73 -15.642,-1.73Zm0.176,0.478c1.252,0.212 7.106,1.168 15.409,1.931c4.619,0.425 9.996,0.788 15.759,0.933c5.993,0.151 11.731,-0.409 16.691,-1.214c7.461,-1.21 13.163,-2.974 15.328,-3.697c-0,-0.001 -0.083,6.703 -0.083,6.703c-1.88,0.488 -8.516,2.133 -17.145,3.376c-5.422,0.781 -11.631,1.405 -17.944,1.476c-5.589,0.076 -10.428,-0.367 -14.463,-0.929c-2.76,-0.385 -5.14,-0.84 -7.123,-1.277c-3.512,-0.773 -5.761,-1.517 -6.582,-1.808l0.153,-5.494Z"/></g><g><path d="M23.46,106.58c-0.061,-0.011 -0.123,0.003 -0.173,0.04c-0.049,0.037 -0.081,0.093 -0.087,0.154l-1.012,6.112c-0.026,0.246 0.105,0.482 0.327,0.59c0,0 2.371,1.343 6.956,2.709c1.997,0.595 4.418,1.179 7.237,1.657c4.104,0.697 9.055,1.131 14.766,1.118c6.397,-0.029 12.695,-0.615 18.194,-1.375c10.369,-1.433 17.895,-3.473 17.895,-3.473c0.322,-0.085 0.549,-0.373 0.557,-0.706l0.132,-8.256c0.005,-0.227 -0.102,-0.443 -0.287,-0.576c-0.184,-0.134 -0.423,-0.168 -0.637,-0.091c-0,-0 -6.595,2.404 -16.051,3.909c-4.906,0.781 -10.58,1.322 -16.503,1.157c-5.744,-0.16 -11.101,-0.538 -15.704,-0.971c-9.369,-0.882 -15.61,-1.998 -15.61,-1.998Zm0.168,0.481c1.247,0.234 7.084,1.29 15.373,2.196c4.611,0.503 9.981,0.959 15.741,1.203c5.989,0.253 11.736,-0.208 16.709,-0.928c7.481,-1.082 13.212,-2.747 15.389,-3.434c0,0 -0.198,6.701 -0.198,6.701c-1.888,0.456 -8.551,1.986 -17.2,3.081c-5.435,0.688 -11.654,1.206 -17.967,1.169c-5.589,-0.02 -10.42,-0.546 -14.445,-1.178c-2.753,-0.432 -5.125,-0.928 -7.1,-1.398c-3.498,-0.833 -5.734,-1.616 -6.55,-1.921l0.248,-5.491Z"/><path d="M23.516,106.995c-0,0 0.98,-0.284 2.821,-0.759c0.825,-0.213 1.808,-0.464 2.958,-0.749c0.404,-0.101 0.823,-0.21 1.263,-0.325c0.659,-0.173 1.36,-0.353 2.099,-0.549c2.405,-0.636 5.236,-1.347 8.472,-1.925c5.101,-0.912 11.181,-1.582 18.066,-1.515c5.679,0.042 10.528,0.368 14.543,0.803c9.485,1.027 14.293,2.667 14.293,2.667c0.115,0.041 0.242,-0.018 0.283,-0.133c0.041,-0.114 -0.018,-0.241 -0.133,-0.282c0,-0 -4.794,-1.824 -14.329,-3.166c-4.03,-0.567 -8.906,-1.044 -14.625,-1.265c-8.71,-0.313 -16.193,0.527 -22.05,1.701c-1.849,0.37 -3.54,0.759 -5.047,1.188c-0.755,0.214 -1.462,0.441 -2.122,0.671c-0.44,0.152 -0.857,0.306 -1.253,0.465c-1.124,0.454 -2.069,0.888 -2.846,1.284c-1.732,0.881 -2.587,1.493 -2.587,1.493c-0.109,0.053 -0.154,0.186 -0.101,0.295c0.053,0.109 0.186,0.155 0.295,0.101Z"/></g><g><path d="M67.602,90.03c0.924,-0.079 16.047,-1.215 35.68,6.681c15.526,6.244 23.495,12.144 25.273,13.546l-2.01,4.526l-45.103,-12.672l-13.885,-12.077l0.045,-0.004Z" style="fill:#fff;"/><path d="M67.598,90.146l-0.008,0.02l-0.048,-0.353c0,0 0.015,0.442 0.015,0.442c-0.053,-0 -0.105,-0.02 -0.145,-0.055l13.787,12.19c0.042,0.036 0.09,0.062 0.143,0.077l45.007,13.014c0.347,0.097 0.712,-0.075 0.859,-0.404l2.042,-4.511c0.141,-0.318 0.049,-0.691 -0.224,-0.906c-1.191,-0.952 -5.143,-3.944 -12.28,-7.726c-3.559,-1.886 -7.914,-3.967 -13.114,-6.093c-6.487,-2.632 -12.478,-4.339 -17.66,-5.311c-1.951,-0.366 -3.786,-0.623 -5.486,-0.797c-2.057,-0.211 -3.911,-0.303 -5.532,-0.324c-4.355,-0.059 -6.999,0.346 -7.371,0.401l0.015,0.336Zm0.552,0.105c1.021,0.014 3.36,0.1 6.718,0.488c1.581,0.183 3.381,0.432 5.384,0.758c1.651,0.269 3.434,0.594 5.338,0.982c5.064,1.033 10.968,2.561 17.342,5.102c5.161,2.041 9.484,4.05 13.023,5.869c6.293,3.236 10.09,5.874 11.665,7.05c0,0 -1.489,3.418 -1.489,3.418c-0,-0 -44.512,-12.142 -44.512,-12.142l-13.469,-11.525Z"/><path d="M67.557,90.034l-2.767,5.53c-0,-0 7.913,8.362 25.089,14.827c17.177,6.465 35.228,8.303 35.228,8.303l3.079,-7.661c0,0 -16.295,-0.265 -32.42,-6.976c-16.125,-6.712 -28.209,-14.023 -28.209,-14.023Z" style="fill:#fff;"/><path d="M67.671,89.845c-0.052,-0.032 -0.116,-0.04 -0.175,-0.023c-0.059,0.017 -0.109,0.058 -0.136,0.113l-3.097,5.365c-0.11,0.222 -0.071,0.489 0.099,0.668c0,0 1.748,2.091 5.559,4.982c1.66,1.26 3.722,2.658 6.192,4.097c3.597,2.095 8.079,4.243 13.429,6.239c6,2.222 12.101,3.888 17.516,5.11c10.211,2.305 17.974,3.042 17.974,3.042c0.331,0.033 0.645,-0.156 0.769,-0.465l3.027,-7.682c0.085,-0.211 0.061,-0.451 -0.065,-0.641c-0.126,-0.189 -0.338,-0.305 -0.565,-0.309c-0,0 -7.02,-0.068 -16.4,-1.985c-4.868,-0.994 -10.369,-2.483 -15.857,-4.72c-5.32,-2.169 -10.203,-4.407 -14.359,-6.432c-8.46,-4.12 -13.911,-7.359 -13.911,-7.359Zm-0.012,0.509c1.086,0.658 6.179,3.699 13.62,7.461c4.139,2.094 9.006,4.408 14.312,6.662c5.517,2.344 11.059,3.933 15.968,5.008c7.383,1.618 13.334,2.074 15.614,2.197c-0,-0 -2.542,6.203 -2.542,6.203c-1.928,-0.237 -8.703,-1.147 -17.185,-3.164c-5.329,-1.267 -11.333,-2.969 -17.23,-5.224c-5.225,-1.984 -9.563,-4.176 -13.108,-6.182c-2.426,-1.373 -4.472,-2.671 -6.156,-3.806c-2.981,-2.01 -4.799,-3.529 -5.456,-4.102l2.163,-5.053Z"/></g></svg>