<?xml version="1.0" encoding="UTF-8" standalone="no"?><!DOCTYPE svg PUBLIC "-//W3C//DTD SVG 1.1//EN" "http://www.w3.org/Graphics/SVG/1.1/DTD/svg11.dtd"><svg width="100%" height="100%" viewBox="0 0 198 138" version="1.1" xmlns="http://www.w3.org/2000/svg" xmlns:xlink="http://www.w3.org/1999/xlink" xml:space="preserve" xmlns:serif="http://www.serif.com/" style="fill-rule:evenodd;clip-rule:evenodd;stroke-linejoin:round;stroke-miterlimit:2;"><rect id="worldline" x="0" y="0" width="197.55" height="137.677" style="fill:none;"/><clipPath id="_clip1"><rect x="0" y="0" width="197.55" height="137.677"/></clipPath><g clip-path="url(#_clip1)"><g id="worldline1" serif:id="worldline"><path d="M90.575,75.64c0.39,-1.62 0.54,-2.39 0.76,-3.15c1.48,-5.05 2.94,-10.1 4.47,-15.13c0.93,-3.05 0.08,-5.8 -1.15,-8.56c-1.59,-3.58 -2.94,-7.27 -4.67,-10.78c-2.2,-4.47 -4.55,-8.88 -7.05,-13.2c-2.61,-4.49 -5.36,-8.91 -8.26,-13.22c-1.66,-2.46 -3.73,-4.64 -6.23,-7.71c5.54,-1.39 10.71,-2.7 15.45,-3.89c8.27,11.46 15.5,22.55 20.48,35.74c0.86,-1.48 1.48,-2.54 2.08,-3.61c2.12,-3.77 4.02,-7.69 6.41,-11.27c3.89,-5.81 8.1,-11.4 12.18,-17.08c0.17,-0.23 0.54,-0.55 0.73,-0.5c2.41,0.61 4.81,1.27 7.59,2.03c-1.61,1.84 -2.82,3.04 -3.82,4.39c-3.6,4.86 -7.32,9.65 -10.64,14.7c-3.1,4.71 -5.65,9.79 -8.63,14.59c-2.81,4.51 -1.09,8.68 0.37,13.02c1.22,3.63 2.17,7.36 3.14,11.07c1.02,3.89 1.91,7.81 3.01,12.35c0.63,-2.16 1,-3.77 1.58,-5.31c2.75,-7.26 5.33,-14.59 8.44,-21.69c2.18,-4.99 4.77,-9.87 7.76,-14.41c3.58,-5.46 7.76,-10.53 11.72,-15.74c0.86,-1.14 1.79,-2.26 2.84,-3.22c0.45,-0.41 1.44,-0.74 1.93,-0.52c1.72,0.76 3.33,1.77 5.4,2.92c-21.07,22.59 -33.2,49.01 -36.63,79.92l-14.18,0c-1.6,-9.87 -3.19,-19.62 -4.77,-29.36c-0.37,-0.03 -0.74,-0.06 -1.12,-0.08c-2.49,9.56 -4.62,19.2 -5.02,29.54c-2.07,0.1 -4,0.24 -5.94,0.29c-1.45,0.04 -2.91,-0.05 -4.36,-0.02c-6.01,0.13 -4.49,-0.18 -5.67,-5.23c-1.77,-7.57 -3.16,-15.23 -4.98,-22.79c-0.98,-4.07 -2.21,-8.14 -3.89,-11.95c-2.99,-6.79 -5.98,-13.64 -9.78,-19.99c-3.86,-6.45 -8.7,-12.32 -13.12,-18.43c-0.21,-0.28 -0.5,-0.52 -0.79,-0.73c-2.3,-1.61 -2.27,-2.49 0.08,-3.89c2.83,-1.68 5.56,-3.55 8.5,-4.99c0.83,-0.41 2.78,-0.04 3.32,0.66c4.72,6.13 9.53,12.23 13.72,18.72c3.13,4.85 5.57,10.19 8,15.45c2.31,5 4.4,10.13 6.22,15.33c1.54,4.4 2.54,8.99 3.79,13.49c0.13,0.46 0.29,0.91 0.73,2.24Z" style="fill:#015478;fill-rule:nonzero;"/><path d="M33.315,22.9c21.15,21.43 30.32,46.69 34.63,74.57l-14.05,0c-0.51,-1.97 -0.91,-3.42 -1.25,-4.89c-0.81,-3.48 -1.44,-7 -2.4,-10.43c-1.39,-4.94 -2.57,-10.01 -4.62,-14.68c-2.99,-6.82 -6.32,-13.55 -10.17,-19.91c-2.76,-4.55 -6.65,-8.4 -9.92,-12.65c-0.42,-0.54 -0.46,-1.93 -0.06,-2.45c2.5,-3.26 5.2,-6.39 7.84,-9.56Z" style="fill:#015478;fill-rule:nonzero;"/><path d="M41.705,97.78l-5.65,0c-2.39,0 -4.79,0.17 -7.15,-0.1c-0.81,-0.09 -1.92,-1.16 -2.16,-2c-1.54,-5.3 -2.44,-10.82 -4.38,-15.95c-2.98,-7.87 -6.56,-15.52 -12.02,-22.11c-0.38,-0.46 -0.46,-1.59 -0.17,-2.14c1.79,-3.37 3.66,-6.71 5.65,-9.96c0.98,-1.6 2.07,-1.53 3.2,0.16c3.37,5.02 7.1,9.8 10.21,14.97c2.12,3.52 3.35,7.56 5.11,11.31c3.61,7.66 5.43,15.84 7.22,24.04c0.07,0.34 0.06,0.7 0.14,1.78Z" style="fill:#015478;fill-rule:nonzero;"/><path d="M36.365,111.42c-0.22,1.66 -0.28,3.3 -0.66,4.87c-1.32,5.48 -3.34,10.86 -3.95,16.41c-0.5,4.53 -3.02,4.13 -5.99,4.19c-2.76,0.06 -4.79,-0.23 -4.71,-3.91c0.06,-2.42 -0.81,-4.88 -1.33,-7.3c-0.12,-0.54 -0.52,-1.02 -1.01,-1.92c-0.46,0.88 -0.84,1.32 -0.93,1.81c-0.52,2.83 -1.01,5.66 -1.42,8.51c-0.29,2.03 -1.14,2.98 -3.38,2.86c-6,-0.31 -5.99,-0.23 -7.32,-5.88c-1.08,-4.55 -2.2,-9.1 -3.31,-13.64c-0.38,-1.54 -0.94,-3.04 -1.13,-4.6c-0.05,-0.44 0.89,-1.36 1.48,-1.46c3.47,-0.59 4.53,1.38 5.15,4.49c1.06,5.33 2.63,10.56 4.43,15.9c1.04,-6.15 2.09,-12.31 3.21,-18.97l6.39,0c1.22,6.14 2.37,11.91 3.67,18.43c0.62,-1.23 1.03,-1.76 1.16,-2.34c1.13,-5.04 2.35,-10.07 3.23,-15.15c0.33,-1.91 1.05,-2.48 2.81,-2.32c1.03,0.09 2.07,0.02 3.61,0.02Z" style="fill:#015478;fill-rule:nonzero;"/><path d="M142.615,97.79c-4.1,0 -4.73,-0.68 -3.81,-4.38c1.32,-5.29 2.7,-10.57 4.32,-15.78c1.61,-5.2 3.22,-10.44 5.41,-15.41c2.17,-4.92 4.86,-9.65 7.68,-14.24c2.54,-4.13 5.54,-7.99 8.42,-11.9c1.32,-1.79 2.8,-3.47 4.27,-5.15c0.3,-0.35 1.17,-0.74 1.27,-0.63c1.3,1.34 2.88,2.6 3.6,4.24c0.36,0.81 -0.71,2.48 -1.48,3.5c-2.8,3.73 -6,7.19 -8.57,11.06c-3.12,4.71 -6.03,9.6 -8.51,14.67c-2.16,4.41 -3.72,9.12 -5.3,13.79c-1.35,4.01 -2.42,8.12 -3.47,12.21c-0.45,1.74 -0.65,3.57 -0.78,5.37c-0.17,2.27 -1.14,3.27 -3.05,2.65Z" style="fill:#015478;fill-rule:nonzero;"/><path d="M36.205,124.06c-0.57,-6.39 5.99,-13.44 13.24,-13.3c9.24,0.18 13.38,5.2 13.87,12.44c0.52,7.78 -4.62,14.16 -13.41,14.47c-6.61,0.24 -14.08,-5.9 -13.7,-13.61Zm6.39,-0.13c-0.19,4.67 2.71,8.29 6.99,8.23c5.04,-0.06 7.68,-2.56 7.82,-8.69c0.07,-3.14 -2.75,-7.29 -6.93,-7.52c-4.23,-0.22 -7.68,3.29 -7.88,7.98Z" style="fill:#015478;fill-rule:nonzero;"/><path d="M107.675,136.67c-0,-4.14 0.03,-8.01 -0.01,-11.89c-0.04,-3.89 -0.21,-7.79 -0.13,-11.67c0.01,-0.63 0.99,-1.74 1.57,-1.76c3.37,-0.16 6.76,-0.31 10.11,-0.01c7.2,0.64 13.17,7.79 11.05,15.39c-1.19,4.25 -3.28,7.51 -7.19,8.96c-4.86,1.8 -10.05,2.19 -15.4,0.98Zm6.04,-20.13c-0,3.76 -0.02,7.38 0.01,11c0.03,4.24 0.05,4.24 4.28,4.17c2.81,-0.05 6.13,-2.43 6.56,-5.1c0.47,-2.91 0.39,-6.06 -1.79,-8.21c-2.37,-2.33 -5.62,-2.48 -9.06,-1.86Z" style="fill:#015478;fill-rule:nonzero;"/><path d="M66.075,136.32l0,-24.71c0.22,-0.07 0.76,-0.41 1.3,-0.42c3.22,-0.02 6.46,-0.23 9.64,0.12c5.42,0.6 9.78,3.21 9.16,9.21c-0.31,2.97 -1.32,6.37 -5.13,7.03c0.63,0.85 1.13,1.5 1.59,2.17c1.36,1.93 2.73,3.84 3.98,5.84c0.09,0.15 -0.79,1.28 -1.28,1.34c-2.93,0.31 -5.23,-0.71 -6.6,-3.51c-0.58,-1.19 -1.11,-2.71 -2.12,-3.32c-1.25,-0.75 -2.97,-0.77 -4.51,-0.95c-0.16,-0.02 -0.6,0.96 -0.64,1.5c-0.08,0.91 0.13,1.84 0.08,2.75c-0.24,3.76 -1.46,4.47 -5.47,2.95Zm5.26,-20.62c0,3.11 -0.06,5.25 0.05,7.39c0.02,0.38 0.74,1.05 1.11,1.03c1.9,-0.11 3.86,-0.16 5.66,-0.7c2.11,-0.64 2.89,-4.58 1.01,-5.59c-2.15,-1.16 -4.8,-1.37 -7.83,-2.13Z" style="fill:#015478;fill-rule:nonzero;"/><path d="M171.115,97.65c-1.86,0 -3.98,0.05 -6.09,-0.08c-0.23,-0.01 -0.67,-1.17 -0.54,-1.68c1.42,-5.55 2.44,-11.28 4.55,-16.57c2.67,-6.67 6.06,-13.08 9.54,-19.39c1.74,-3.16 4.35,-5.84 6.58,-8.74c2.88,2.41 3.25,6.45 1.5,9.23c-2.85,4.54 -5.68,9.13 -7.95,13.97c-2.41,5.14 -4.28,10.55 -6.16,15.92c-0.74,2.14 -0.89,4.49 -1.43,7.34Z" style="fill:#015478;fill-rule:nonzero;"/><path d="M15.095,97.45l-14.87,0c1.2,-9.13 2.35,-17.83 3.56,-26.96c3.59,2.56 12.12,24.43 11.31,26.96Z" style="fill:#015478;fill-rule:nonzero;"/><path d="M90.035,111.66c4.98,-0.7 6.32,-0.76 6.06,4.1c-0.19,3.62 -0.06,7.27 -0.1,10.9c-0.02,1.33 -0.12,2.66 -0.21,4.7c2.26,0.08 4.7,0.29 7.13,0.22c1.48,-0.04 2.81,-0.27 2.8,1.79c-0.01,1.87 0.11,3.69 -2.76,3.55c-3.56,-0.18 -7.15,0.09 -10.71,-0.11c-0.81,-0.04 -2.21,-1.18 -2.23,-1.84c-0.17,-7.44 -0.13,-14.88 -0.14,-22.32c0.01,-0.3 0.1,-0.6 0.16,-0.99Z" style="fill:#015478;fill-rule:nonzero;"/><path d="M160.195,113.39c-0.21,1.04 -0.37,1.45 -0.37,1.87c0.05,6.54 0.15,13.08 0.14,19.62c0,0.6 -0.76,1.2 -1.16,1.8c-0.38,-0.52 -1.09,-1.03 -1.1,-1.55c-0.12,-7 -0.18,-14 -0.11,-20.99c0.01,-0.92 0.65,-2.4 1.32,-2.62c0.87,-0.28 2.37,0.14 3.04,0.81c1.18,1.17 1.96,2.75 2.87,4.18c3.23,5.15 6.44,10.31 9.65,15.48c0.35,0.56 0.6,1.17 1.24,2.44c0.27,-1.36 0.54,-2.08 0.54,-2.8c-0.02,-6.23 -0.13,-12.46 -0.08,-18.68c0.01,-0.68 0.93,-1.35 1.43,-2.02c0.36,0.17 0.73,0.35 1.09,0.52c0,1.16 0.01,2.33 0,3.49c-0.06,6.54 -0.09,13.09 -0.23,19.63c-0.02,0.76 -0.69,2.13 -1.08,2.14c-1.04,0.02 -2.58,-0.22 -3.07,-0.94c-3.47,-5.14 -6.75,-10.42 -10.06,-15.67c-1.28,-2.01 -2.48,-4.09 -4.06,-6.71Z" style="fill:#015478;fill-rule:nonzero;"/><path d="M185.165,113.79l-0,8.68c0.58,0.09 1.25,0.28 1.92,0.27c2.64,-0.03 5.28,-0.21 7.91,-0.12c0.58,0.02 1.12,0.89 1.69,1.37c-0.62,0.39 -1.24,1.09 -1.87,1.11c-2.64,0.07 -5.28,-0.1 -7.92,-0.12c-0.57,0 -1.15,0.26 -1.74,0.4l0,9.26c4.13,0.68 8.53,-0.66 12.6,0.62c0.01,0.35 0.01,0.7 0.02,1.05c-0.89,0.2 -1.78,0.54 -2.68,0.56c-3.32,0.07 -6.65,0.12 -9.96,-0.06c-0.65,-0.03 -1.78,-1.07 -1.79,-1.66c-0.12,-7.41 -0.12,-14.83 0,-22.24c0.01,-0.55 1.21,-1.5 1.9,-1.55c3.2,-0.21 6.42,-0.21 9.63,-0.17c0.76,0.01 1.54,0.41 2.24,0.77c0.13,0.07 0.04,1.1 -0.16,1.18c-0.76,0.32 -1.6,0.58 -2.41,0.6c-3.05,0.09 -6.11,0.05 -9.38,0.05Z" style="fill:#015478;fill-rule:nonzero;"/><path d="M136.525,134.57c3.83,0.86 7.97,-0.67 11.79,0.65c0.01,0.35 0.01,0.7 0.02,1.05c-1.11,0.23 -2.21,0.61 -3.32,0.64c-2.44,0.08 -4.88,0 -7.32,-0.02c-2.82,-0.02 -3.72,-1.24 -3.66,-4.1c0.14,-6.41 0.06,-12.83 0.13,-19.24c0.01,-0.66 0.32,-1.34 0.63,-1.94c0.08,-0.15 0.98,-0.12 1.07,0.05c0.32,0.6 0.63,1.31 0.63,1.97c0.05,6.95 0.03,13.89 0.03,20.94Z" style="fill:#015478;fill-rule:nonzero;"/><path d="M189.815,97.36c1.78,-5.26 3.42,-10.14 5.07,-15.01c0.31,0.04 0.62,0.07 0.93,0.11c0.46,4.8 0.91,9.6 1.42,14.9l-7.42,0Z" style="fill:#015478;fill-rule:nonzero;"/><path d="M151.995,111.41l0,25.09c-0.32,0.03 -0.64,0.07 -0.96,0.1c-0.26,-1.45 -0.71,-2.9 -0.73,-4.35c-0.07,-4.72 0.05,-9.44 0.01,-14.16c-0.01,-1.49 -0.44,-2.99 -0.38,-4.47c0.03,-0.84 0.66,-1.66 1.02,-2.49c0.34,0.09 0.69,0.18 1.04,0.28Z" style="fill:#015478;fill-rule:nonzero;"/></g></g></svg>