<?xml version="1.0" encoding="UTF-8" standalone="no"?><!DOCTYPE svg PUBLIC "-//W3C//DTD SVG 1.1//EN" "http://www.w3.org/Graphics/SVG/1.1/DTD/svg11.dtd"><svg width="100%" height="100%" viewBox="0 0 201 201" version="1.1" xmlns="http://www.w3.org/2000/svg" xmlns:xlink="http://www.w3.org/1999/xlink" xml:space="preserve" xmlns:serif="http://www.serif.com/" style="fill-rule:evenodd;clip-rule:evenodd;stroke-linejoin:round;stroke-miterlimit:2;"><rect id="zahlung" x="0.424" y="0.312" width="200" height="200" style="fill:none;"/><g><path d="M57.057,92.309l-0.729,6.141c0,-0 10.28,5.184 28.631,5.442c18.351,0.258 35.956,-4.134 35.956,-4.134l0.3,-8.251c-0,0 -15.42,5.276 -32.866,4.43c-17.445,-0.846 -31.292,-3.628 -31.292,-3.628Z" style="fill:#fff;"/><path d="M57.1,92.093c-0.06,-0.012 -0.123,0.001 -0.173,0.038c-0.05,0.036 -0.082,0.091 -0.09,0.152l-1.093,6.098c-0.029,0.245 0.098,0.483 0.319,0.595c0,-0 2.353,1.374 6.919,2.802c1.988,0.621 4.402,1.238 7.214,1.754c4.094,0.751 9.039,1.252 14.749,1.316c6.398,0.056 12.703,-0.445 18.211,-1.131c10.388,-1.295 17.94,-3.234 17.94,-3.234c0.324,-0.08 0.554,-0.365 0.567,-0.698l0.243,-8.253c0.008,-0.227 -0.096,-0.444 -0.279,-0.58c-0.183,-0.136 -0.421,-0.173 -0.636,-0.099c-0,-0 -6.627,2.315 -16.102,3.693c-4.916,0.715 -10.597,1.18 -16.518,0.936c-5.741,-0.237 -11.092,-0.687 -15.689,-1.182c-9.356,-1.008 -15.582,-2.207 -15.582,-2.207Zm0.162,0.483c1.244,0.251 7.066,1.385 15.342,2.401c4.604,0.566 9.967,1.094 15.723,1.415c5.985,0.334 11.738,-0.051 16.72,-0.703c7.495,-0.982 13.248,-2.571 15.434,-3.228c0,-0 -0.288,6.698 -0.288,6.698c-1.894,0.43 -8.576,1.871 -17.24,2.85c-5.443,0.615 -11.669,1.049 -17.981,0.927c-5.588,-0.095 -10.412,-0.686 -14.427,-1.371c-2.747,-0.469 -5.113,-0.997 -7.082,-1.494c-3.486,-0.879 -5.711,-1.692 -6.523,-2.008l0.322,-5.487Z"/><path d="M57.057,92.309c-0,0 14.044,-6.627 35.872,-5.831c19.165,0.698 28.841,4.338 28.841,4.338" style="fill:#fff;"/><path d="M57.151,92.509c-0,-0 0.984,-0.271 2.83,-0.722c0.828,-0.202 1.815,-0.439 2.969,-0.709c0.404,-0.095 0.826,-0.199 1.266,-0.308c0.662,-0.164 1.365,-0.335 2.107,-0.521c2.413,-0.604 5.253,-1.277 8.496,-1.811c5.113,-0.843 11.203,-1.432 18.085,-1.272c5.678,0.118 10.523,0.509 14.531,0.997c9.471,1.154 14.257,2.859 14.257,2.859c0.114,0.043 0.241,-0.015 0.284,-0.129c0.043,-0.114 -0.015,-0.241 -0.129,-0.284c0,0 -4.769,-1.888 -14.286,-3.358c-4.022,-0.621 -8.89,-1.164 -14.606,-1.461c-8.705,-0.43 -16.198,0.31 -22.071,1.405c-1.854,0.345 -3.55,0.712 -5.063,1.12c-0.757,0.205 -1.467,0.422 -2.13,0.642c-0.442,0.147 -0.861,0.295 -1.259,0.449c-1.13,0.439 -2.081,0.86 -2.863,1.245c-1.744,0.859 -2.607,1.459 -2.607,1.459c-0.11,0.052 -0.157,0.183 -0.105,0.293c0.052,0.11 0.184,0.158 0.294,0.106Z"/></g><g><path d="M110.031,100.783c0.83,-0.413 14.476,-7.03 35.637,-6.905c16.734,0.098 26.314,2.655 28.484,3.305l-0.206,4.948l-46.603,4.798l-17.353,-6.126l0.041,-0.02Z" style="fill:#fff;"/><path d="M110.009,100.913l-0,0.002l-0.081,-0.327c-0,-0 -0.033,0.016 -0.033,0.016c-0,-0 0.095,0.42 0.095,0.42c-0.025,-0 -0.05,-0.004 -0.073,-0.013l17.303,6.267c0.052,0.018 0.107,0.025 0.161,0.019l46.639,-4.445c0.358,-0.037 0.635,-0.331 0.65,-0.691l0.241,-4.947c0.015,-0.347 -0.208,-0.66 -0.541,-0.759c-1.458,-0.448 -6.233,-1.777 -14.261,-2.67c-4.003,-0.446 -8.818,-0.78 -14.435,-0.845c-7.001,-0.062 -13.2,0.552 -18.376,1.554c-1.949,0.377 -3.751,0.813 -5.395,1.275c-1.991,0.561 -3.748,1.157 -5.264,1.733c-4.071,1.547 -6.381,2.896 -6.707,3.083l0.077,0.328Zm0.613,-0.126c0.954,-0.362 3.161,-1.142 6.427,-2.016c1.537,-0.411 3.303,-0.842 5.285,-1.274c1.634,-0.357 3.412,-0.711 5.326,-1.05c5.088,-0.901 11.14,-1.651 18.003,-1.632c5.549,0.001 10.308,0.279 14.268,0.67c7.043,0.696 11.543,1.753 13.44,2.268c0,0 -0.128,3.726 -0.128,3.726c-0,-0 -45.858,5.074 -45.858,5.074l-16.763,-5.766Z"/><path d="M109.99,100.803l-0.54,6.16c0,0 10.433,4.868 28.784,4.565c18.35,-0.304 35.813,-5.232 35.813,-5.232l0.047,-8.256c-0,0 -15.251,5.745 -32.715,5.432c-17.463,-0.312 -31.389,-2.669 -31.389,-2.669Z" style="fill:#fff;"/><path d="M110.027,100.585c-0.061,-0.01 -0.123,0.006 -0.172,0.043c-0.048,0.038 -0.079,0.094 -0.085,0.156l-0.906,6.128c-0.022,0.246 0.113,0.48 0.337,0.585c0,-0 2.394,1.301 7.001,2.589c2.007,0.561 4.438,1.103 7.265,1.533c4.115,0.625 9.073,0.975 14.782,0.864c6.397,-0.139 12.683,-0.833 18.168,-1.687c10.343,-1.611 17.833,-3.78 17.833,-3.78c0.321,-0.09 0.543,-0.382 0.545,-0.715l-0.01,-8.257c0.002,-0.228 -0.109,-0.441 -0.296,-0.572c-0.187,-0.13 -0.426,-0.159 -0.639,-0.079c-0,-0 -6.553,2.517 -15.981,4.184c-4.892,0.865 -10.556,1.503 -16.482,1.44c-5.745,-0.061 -11.108,-0.347 -15.718,-0.702c-9.382,-0.721 -15.642,-1.73 -15.642,-1.73Zm0.176,0.479c1.252,0.212 7.106,1.168 15.409,1.931c4.619,0.424 9.996,0.788 15.759,0.933c5.992,0.151 11.731,-0.409 16.691,-1.214c7.461,-1.211 13.163,-2.974 15.327,-3.698c0.001,0 -0.083,6.703 -0.083,6.703c-1.879,0.489 -8.515,2.133 -17.144,3.376c-5.422,0.781 -11.631,1.406 -17.944,1.477c-5.589,0.076 -10.428,-0.367 -14.463,-0.93c-2.76,-0.385 -5.14,-0.84 -7.124,-1.276c-3.511,-0.773 -5.76,-1.517 -6.582,-1.808l0.154,-5.494Z"/></g><g><path d="M23.113,106.826c-0.061,-0.012 -0.123,0.003 -0.173,0.04c-0.049,0.037 -0.081,0.092 -0.087,0.154l-1.012,6.111c-0.026,0.246 0.105,0.482 0.327,0.591c0,-0 2.371,1.342 6.956,2.709c1.996,0.595 4.418,1.179 7.237,1.657c4.104,0.696 9.055,1.131 14.766,1.118c6.397,-0.03 12.695,-0.615 18.193,-1.375c10.37,-1.434 17.896,-3.474 17.896,-3.474c0.322,-0.085 0.549,-0.373 0.556,-0.706l0.133,-8.255c0.005,-0.228 -0.102,-0.444 -0.287,-0.577c-0.184,-0.133 -0.423,-0.167 -0.637,-0.09c-0,-0 -6.595,2.404 -16.051,3.909c-4.906,0.78 -10.58,1.321 -16.503,1.157c-5.744,-0.16 -11.101,-0.538 -15.704,-0.972c-9.369,-0.882 -15.61,-1.997 -15.61,-1.997Zm0.168,0.481c1.247,0.234 7.084,1.29 15.373,2.195c4.611,0.504 9.981,0.959 15.741,1.203c5.989,0.254 11.735,-0.208 16.708,-0.927c7.481,-1.082 13.213,-2.748 15.39,-3.434c-0,-0 -0.198,6.7 -0.198,6.7c-1.888,0.456 -8.551,1.987 -17.2,3.082c-5.435,0.687 -11.654,1.206 -17.967,1.168c-5.589,-0.02 -10.42,-0.546 -14.445,-1.177c-2.753,-0.432 -5.125,-0.928 -7.101,-1.399c-3.497,-0.833 -5.733,-1.616 -6.549,-1.92l0.248,-5.491Z"/><path d="M23.169,107.241c-0,-0 0.98,-0.284 2.82,-0.76c0.826,-0.213 1.809,-0.463 2.959,-0.749c0.404,-0.1 0.823,-0.209 1.263,-0.325c0.659,-0.173 1.36,-0.353 2.099,-0.549c2.405,-0.636 5.235,-1.347 8.471,-1.925c5.102,-0.911 11.182,-1.582 18.067,-1.514c5.679,0.042 10.528,0.368 14.543,0.802c9.485,1.027 14.293,2.668 14.293,2.668c0.115,0.041 0.241,-0.019 0.283,-0.133c0.041,-0.115 -0.018,-0.241 -0.133,-0.282c0,-0 -4.794,-1.825 -14.33,-3.166c-4.03,-0.568 -8.905,-1.045 -14.625,-1.266c-8.709,-0.312 -16.192,0.528 -22.049,1.701c-1.849,0.37 -3.541,0.759 -5.048,1.188c-0.754,0.215 -1.461,0.442 -2.121,0.671c-0.44,0.153 -0.857,0.306 -1.253,0.466c-1.124,0.454 -2.069,0.888 -2.846,1.283c-1.732,0.882 -2.587,1.493 -2.587,1.493c-0.109,0.054 -0.155,0.186 -0.101,0.295c0.053,0.11 0.185,0.155 0.295,0.102Z"/></g><g><path d="M67.255,90.275c0.924,-0.078 16.047,-1.214 35.68,6.682c15.526,6.243 23.495,12.144 25.273,13.546l-2.01,4.525l-45.103,-12.671l-13.885,-12.078l0.045,-0.004Z" style="fill:#fff;"/><path d="M67.25,90.392l-0.007,0.019l-0.048,-0.352c-0,-0 0.015,0.441 0.015,0.441c-0.053,0 -0.105,-0.019 -0.145,-0.054l13.787,12.19c0.041,0.036 0.09,0.062 0.143,0.077l45.007,13.013c0.346,0.098 0.712,-0.074 0.858,-0.403l2.043,-4.512c0.141,-0.317 0.049,-0.69 -0.224,-0.905c-1.191,-0.952 -5.143,-3.944 -12.28,-7.726c-3.559,-1.886 -7.914,-3.967 -13.114,-6.093c-6.488,-2.632 -12.478,-4.34 -17.66,-5.312c-1.951,-0.366 -3.787,-0.623 -5.486,-0.797c-2.058,-0.211 -3.911,-0.302 -5.532,-0.324c-4.355,-0.058 -6.999,0.347 -7.371,0.402l0.014,0.336Zm0.553,0.104c1.02,0.015 3.36,0.101 6.718,0.489c1.581,0.183 3.381,0.431 5.384,0.758c1.651,0.269 3.434,0.594 5.338,0.982c5.064,1.033 10.968,2.56 17.342,5.101c5.161,2.041 9.484,4.05 13.022,5.869c6.294,3.237 10.091,5.874 11.666,7.051c-0,-0 -1.489,3.418 -1.489,3.418c-0,-0 -44.512,-12.142 -44.512,-12.142l-13.469,-11.526Z"/><path d="M67.21,90.279l-2.767,5.53c-0,0 7.912,8.363 25.089,14.828c17.176,6.465 35.228,8.302 35.228,8.302l3.079,-7.66c0,-0 -16.295,-0.266 -32.42,-6.977c-16.125,-6.711 -28.209,-14.023 -28.209,-14.023Z" style="fill:#fff;"/><path d="M67.324,90.091c-0.053,-0.032 -0.116,-0.041 -0.175,-0.024c-0.06,0.017 -0.109,0.059 -0.136,0.114l-3.097,5.365c-0.111,0.221 -0.071,0.488 0.099,0.668c0,-0 1.747,2.091 5.559,4.982c1.66,1.259 3.721,2.657 6.192,4.096c3.597,2.095 8.079,4.243 13.429,6.239c6,2.222 12.101,3.889 17.516,5.111c10.211,2.304 17.973,3.041 17.973,3.041c0.332,0.034 0.646,-0.156 0.77,-0.465l3.027,-7.681c0.085,-0.212 0.06,-0.451 -0.066,-0.641c-0.126,-0.19 -0.337,-0.305 -0.565,-0.309c0,-0 -7.019,-0.069 -16.4,-1.985c-4.867,-0.994 -10.368,-2.483 -15.856,-4.721c-5.321,-2.169 -10.203,-4.407 -14.359,-6.431c-8.461,-4.12 -13.911,-7.359 -13.911,-7.359Zm-0.012,0.509c1.086,0.657 6.179,3.699 13.619,7.461c4.14,2.093 9.007,4.408 14.313,6.662c5.517,2.343 11.059,3.932 15.968,5.007c7.383,1.618 13.334,2.074 15.613,2.197c0.001,0 -2.541,6.203 -2.541,6.203c-1.928,-0.237 -8.703,-1.147 -17.185,-3.164c-5.329,-1.267 -11.334,-2.969 -17.23,-5.224c-5.225,-1.984 -9.563,-4.175 -13.108,-6.182c-2.426,-1.373 -4.472,-2.671 -6.156,-3.806c-2.981,-2.01 -4.799,-3.529 -5.456,-4.101l2.163,-5.053Z"/></g></svg>