<svg width="201" height="69" viewBox="0 0 201 69" fill="none" xmlns="http://www.w3.org/2000/svg">
<mask id="mask0_144_391" style="mask-type:alpha" maskUnits="userSpaceOnUse" x="0" y="6" width="200" height="62">
<path d="M200 6.29419H0V67.2742H200V6.29419Z" fill="white"/>
</mask>
<g mask="url(#mask0_144_391)">
<path d="M14.33 25.4941C22.24 25.4941 28.66 31.9141 28.67 39.8341C28.67 47.7441 22.25 54.1641 14.33 54.1641C10.86 54.1641 7.51999 52.9041 4.89999 50.6341V64.8141C4.89999 66.1741 3.79998 67.2641 2.44998 67.2641C1.09998 67.2641 0 66.1641 0 64.8141V39.8341C0 31.9241 6.41999 25.5041 14.33 25.4941ZM23.76 39.8341C23.76 34.6241 19.54 30.4041 14.33 30.4041C9.11999 30.4041 4.91999 34.6241 4.89999 39.8341C4.89999 45.0341 9.11999 49.2441 14.33 49.2641C19.53 49.2641 23.76 45.0441 23.76 39.8341Z" fill="#72C8B0"/>
<path d="M45.33 54.1741C37.42 54.1741 31 47.7542 31 39.8442C31 31.9342 37.42 25.5142 45.33 25.5042C53.24 25.5042 59.66 31.9242 59.66 39.8442V51.7242C59.66 53.0842 58.56 54.1741 57.21 54.1741C55.86 54.1741 54.76 53.0742 54.76 51.7242V50.6542C52.16 52.9342 48.8 54.1942 45.33 54.1842V54.1741ZM35.9 39.8442C35.9 45.0442 40.12 49.2542 45.33 49.2742C50.54 49.2742 54.74 45.0542 54.76 39.8442C54.76 34.6342 50.54 30.4142 45.33 30.4142C40.12 30.4142 35.92 34.6342 35.9 39.8442Z" fill="#72C8B0"/>
<path d="M100.89 22.5042C100.89 20.1142 101.84 17.8241 103.52 16.1341C105.21 14.4441 107.5 13.5042 109.89 13.5042H115.62C116.98 13.5042 118.07 14.6042 118.07 15.9542C118.07 17.3042 116.97 18.4042 115.62 18.4042H109.89C108.8 18.4042 107.76 18.8442 107 19.6042C106.23 20.3742 105.8 21.4242 105.8 22.4942V25.5042H114.39C115.75 25.5042 116.84 26.6042 116.84 27.9542C116.84 29.3042 115.74 30.4042 114.39 30.4042H105.8V51.7042C105.8 53.0642 104.7 54.1542 103.35 54.1542C102 54.1542 100.9 53.0542 100.9 51.7042V30.4142H97.6199C96.2599 30.4142 95.1699 29.3141 95.1699 27.9641C95.1699 26.6141 96.2699 25.5142 97.6199 25.5142H100.9V22.5042H100.89V22.5042Z" fill="black"/>
<path d="M123.82 54.1741C122.46 54.1741 121.37 53.0741 121.37 51.7241V15.6641C121.37 14.3041 122.47 13.2141 123.82 13.2141C125.17 13.2141 126.27 14.3141 126.27 15.6641V51.7241C126.27 53.0841 125.17 54.1741 123.82 54.1741Z" fill="black"/>
<path d="M134.15 54.1742C132.79 54.1742 131.7 53.0742 131.7 51.7242V27.9642C131.7 26.6042 132.8 25.5142 134.15 25.5142C135.5 25.5142 136.6 26.6142 136.6 27.9642V51.7242C136.6 53.0842 135.5 54.1742 134.15 54.1742Z" fill="black"/>
<path d="M134.15 21.6541C132.57 21.6541 131.31 20.3741 131.31 18.8141V17.7841C131.31 16.2041 132.59 14.9441 134.15 14.9441C135.71 14.9441 136.99 16.2241 136.99 17.7841V18.8141C136.99 20.3941 135.71 21.6541 134.15 21.6541Z" fill="black"/>
<path d="M143.49 54.1741C142.13 54.1741 141.04 53.0742 141.04 51.7242V39.8442C141.04 31.9342 147.46 25.5142 155.37 25.5042C163.28 25.5042 169.7 31.9242 169.71 39.8442V51.7242C169.71 53.0842 168.61 54.1741 167.26 54.1741C165.91 54.1741 164.81 53.0742 164.81 51.7242V39.8442C164.81 34.6342 160.59 30.4142 155.38 30.4142C150.17 30.4142 145.97 34.6342 145.95 39.8442V51.7242C145.95 53.0842 144.85 54.1741 143.5 54.1741H143.49Z" fill="black"/>
<path d="M178.85 51.7241C178.85 53.0841 177.75 54.1741 176.4 54.1741C175.05 54.1741 173.95 53.0741 173.95 51.7241V15.6641C173.95 14.3041 175.05 13.2141 176.4 13.2141C177.75 13.2141 178.85 14.3141 178.85 15.6641V39.4041L193.54 25.3641C194.01 24.9141 194.64 24.6641 195.3 24.6841C195.95 24.6841 196.57 24.9741 197.02 25.4441C197.47 25.9141 197.72 26.5441 197.7 27.2041C197.7 27.8541 197.41 28.4741 196.94 28.9241L187.59 37.8641L199.33 50.0141C200.27 50.9841 200.25 52.5441 199.27 53.4941C198.3 54.4341 196.74 54.4141 195.79 53.4341L184.03 41.2641L178.84 46.2241V51.7341L178.85 51.7241Z" fill="black"/>
</g>
<path d="M87.83 53.6141C87.88 52.2641 89 51.2041 90.36 51.2541C91.71 51.3041 92.77 52.4241 92.72 53.7841L92.69 54.5541C92.4 62.4241 85.81 68.5841 77.94 68.3141C72.55 68.1341 67.72 64.9141 65.48 60.0041C64.91 58.7841 65.45 57.3241 66.68 56.7641C67.91 56.1941 69.36 56.7341 69.92 57.9641C71.39 61.1841 74.57 63.3041 78.12 63.4241C83.3 63.6041 87.63 59.5541 87.81 54.3741L87.84 53.5941" fill="#72C8B0"/>
<path d="M92.58 39.7641C92.58 47.6641 86.0801 54.1241 78.3101 54.0141C70.5401 53.9041 64.0601 47.6341 64.0601 39.7641V27.9442C64.0601 26.5942 65.1601 25.5042 66.5001 25.5042C67.8401 25.5042 68.9401 26.6042 68.9401 27.9442V39.7641C68.9401 44.9441 73.14 49.1241 78.32 49.1441C83.5 49.1441 87.68 44.9441 87.7 39.7641V27.9442C87.7 26.5942 88.8 25.5042 90.14 25.5042C91.48 25.5042 92.58 26.6042 92.58 27.9442" fill="#72C8B0"/>
<path d="M14.33 25.4941C22.24 25.4941 28.66 31.9141 28.67 39.8341C28.67 47.7441 22.25 54.1641 14.33 54.1641C10.86 54.1641 7.51999 52.9041 4.89999 50.6341V64.8141C4.89999 66.1741 3.79998 67.2641 2.44998 67.2641C1.09998 67.2641 0 66.1641 0 64.8141V39.8341C0 31.9241 6.41999 25.5041 14.33 25.4941ZM23.76 39.8341C23.76 34.6241 19.54 30.4041 14.33 30.4041C9.11999 30.4041 4.91999 34.6241 4.89999 39.8341C4.89999 45.0341 9.11999 49.2441 14.33 49.2641C19.53 49.2641 23.76 45.0441 23.76 39.8341Z" fill="#00ABBE"/>
<path d="M45.33 54.1741C37.42 54.1741 31 47.7542 31 39.8442C31 31.9342 37.42 25.5142 45.33 25.5042C53.24 25.5042 59.66 31.9242 59.66 39.8442V51.7242C59.66 53.0842 58.56 54.1741 57.21 54.1741C55.86 54.1741 54.76 53.0742 54.76 51.7242V50.6542C52.16 52.9342 48.8 54.1942 45.33 54.1842V54.1741ZM35.9 39.8442C35.9 45.0442 40.12 49.2542 45.33 49.2742C50.54 49.2742 54.74 45.0542 54.76 39.8442C54.76 34.6342 50.54 30.4142 45.33 30.4142C40.12 30.4142 35.92 34.6342 35.9 39.8442Z" fill="#00ABBE"/>
<path d="M100.89 22.5042C100.89 20.1142 101.84 17.8241 103.52 16.1341C105.21 14.4441 107.5 13.5042 109.89 13.5042H115.62C116.98 13.5042 118.07 14.6042 118.07 15.9542C118.07 17.3042 116.97 18.4042 115.62 18.4042H109.89C108.8 18.4042 107.76 18.8442 107 19.6042C106.23 20.3742 105.8 21.4242 105.8 22.4942V25.5042H114.39C115.75 25.5042 116.84 26.6042 116.84 27.9542C116.84 29.3042 115.74 30.4042 114.39 30.4042H105.8V51.7042C105.8 53.0642 104.7 54.1542 103.35 54.1542C102 54.1542 100.9 53.0542 100.9 51.7042V30.4142H97.6199C96.2599 30.4142 95.1699 29.3141 95.1699 27.9641C95.1699 26.6141 96.2699 25.5142 97.6199 25.5142H100.9V22.5042H100.89V22.5042Z" fill="black"/>
<path d="M123.82 54.1741C122.46 54.1741 121.37 53.0741 121.37 51.7241V15.6641C121.37 14.3041 122.47 13.2141 123.82 13.2141C125.17 13.2141 126.27 14.3141 126.27 15.6641V51.7241C126.27 53.0841 125.17 54.1741 123.82 54.1741Z" fill="black"/>
<path d="M134.15 54.1742C132.79 54.1742 131.7 53.0742 131.7 51.7242V27.9642C131.7 26.6042 132.8 25.5142 134.15 25.5142C135.5 25.5142 136.6 26.6142 136.6 27.9642V51.7242C136.6 53.0842 135.5 54.1742 134.15 54.1742Z" fill="black"/>
<path d="M143.49 54.1741C142.13 54.1741 141.04 53.0742 141.04 51.7242V39.8442C141.04 31.9342 147.46 25.5142 155.37 25.5042C163.28 25.5042 169.7 31.9242 169.71 39.8442V51.7242C169.71 53.0842 168.61 54.1741 167.26 54.1741C165.91 54.1741 164.81 53.0742 164.81 51.7242V39.8442C164.81 34.6342 160.59 30.4142 155.38 30.4142C150.17 30.4142 145.97 34.6342 145.95 39.8442V51.7242C145.95 53.0842 144.85 54.1741 143.5 54.1741H143.49Z" fill="black"/>
<path d="M178.85 51.7241C178.85 53.0841 177.75 54.1741 176.4 54.1741C175.05 54.1741 173.95 53.0741 173.95 51.7241V15.6641C173.95 14.3041 175.05 13.2141 176.4 13.2141C177.75 13.2141 178.85 14.3141 178.85 15.6641V39.4041L193.54 25.3641C194.01 24.9141 194.64 24.6641 195.3 24.6841C195.95 24.6841 196.57 24.9741 197.02 25.4441C197.47 25.9141 197.72 26.5441 197.7 27.2041C197.7 27.8541 197.41 28.4741 196.94 28.9241L187.59 37.8641L199.33 50.0141C200.27 50.9841 200.25 52.5441 199.27 53.4941C198.3 54.4341 196.74 54.4141 195.79 53.4341L184.03 41.2641L178.84 46.2241V51.7341L178.85 51.7241Z" fill="black"/>
<path d="M87.83 53.6141C87.88 52.2641 89 51.2041 90.36 51.2541C91.71 51.3041 92.77 52.4241 92.72 53.7841L92.69 54.5541C92.4 62.4241 85.81 68.5841 77.94 68.3141C72.55 68.1341 67.72 64.9141 65.48 60.0041C64.91 58.7841 65.45 57.3241 66.68 56.7641C67.91 56.1941 69.36 56.7341 69.92 57.9641C71.39 61.1841 74.57 63.3041 78.12 63.4241C83.3 63.6041 87.63 59.5541 87.81 54.3741L87.84 53.5941" fill="#00ABBE"/>
<path d="M92.58 39.7641C92.58 47.6641 86.0801 54.1241 78.3101 54.0141C70.5401 53.9041 64.0601 47.6341 64.0601 39.7641V27.9442C64.0601 26.5942 65.1601 25.5042 66.5001 25.5042C67.8401 25.5042 68.9401 26.6042 68.9401 27.9442V39.7641C68.9401 44.9441 73.14 49.1241 78.32 49.1441C83.5 49.1441 87.68 44.9441 87.7 39.7641V27.9442C87.7 26.5942 88.8 25.5042 90.14 25.5042C91.48 25.5042 92.58 26.6042 92.58 27.9442" fill="#00ABBE"/>
<path fill-rule="evenodd" clip-rule="evenodd" d="M139.98 18.2241C142.54 18.3241 144.82 19.0341 147.26 19.6741C147.74 19.8041 148.02 20.2941 147.89 20.7941C147.76 21.2841 147.27 21.5841 146.79 21.4541C144.48 20.8441 142.31 20.1441 139.88 20.0541C139.39 20.0341 139.01 19.6041 139.04 19.1041C139.07 18.5941 139.49 18.2041 139.98 18.2241V18.2241Z" fill="#00ABBE"/>
<path fill-rule="evenodd" clip-rule="evenodd" d="M138.33 13.0643C143.18 10.0243 149 7.52431 154.51 6.20431C154.99 6.09431 155.47 6.39431 155.57 6.89431C155.67 7.38431 155.37 7.88431 154.88 7.99431C149.54 9.26431 143.92 11.6843 139.23 14.6243C138.81 14.8943 138.26 14.7543 138.01 14.3243C137.76 13.8943 137.9 13.3243 138.32 13.0643H138.33Z" fill="#FFCF01"/>
<path fill-rule="evenodd" clip-rule="evenodd" d="M134.67 10.8442C135.18 6.9042 137.35 3.3242 139.8 0.334204C140.12 -0.0557958 140.69 -0.115796 141.06 0.214204C141.43 0.534204 141.48 1.1142 141.16 1.5042C138.92 4.2342 136.9 7.4642 136.44 11.0542C136.38 11.5542 135.93 11.9142 135.44 11.8642C134.95 11.8042 134.61 11.3542 134.67 10.8442V10.8442Z" fill="#ED1652"/>
</svg>
