<svg width="245" height="113" viewBox="0 0 245 113" fill="none" xmlns="http://www.w3.org/2000/svg">
<rect width="244.02" height="112.323" fill="white"/>
<mask id="mask0_145_427" style="mask-type:alpha" maskUnits="userSpaceOnUse" x="22" y="28" width="200" height="62">
<path d="M222 28.2942H22V89.2742H222V28.2942Z" fill="white"/>
</mask>
<g mask="url(#mask0_145_427)">
<path d="M36.33 47.4941C44.24 47.4941 50.66 53.9141 50.67 61.8341C50.67 69.7441 44.25 76.1641 36.33 76.1641C32.86 76.1641 29.52 74.9041 26.9 72.6341V86.8141C26.9 88.1741 25.8 89.2641 24.45 89.2641C23.1 89.2641 22 88.1641 22 86.8141V61.8341C22 53.9241 28.42 47.5041 36.33 47.4941ZM45.76 61.8341C45.76 56.6241 41.54 52.4041 36.33 52.4041C31.12 52.4041 26.92 56.6241 26.9 61.8341C26.9 67.0341 31.12 71.2441 36.33 71.2641C41.53 71.2641 45.76 67.0441 45.76 61.8341Z" fill="#72C8B0"/>
<path d="M67.33 76.1741C59.42 76.1741 53 69.7542 53 61.8442C53 53.9342 59.42 47.5142 67.33 47.5042C75.24 47.5042 81.66 53.9242 81.66 61.8442V73.7242C81.66 75.0842 80.56 76.1741 79.21 76.1741C77.86 76.1741 76.76 75.0742 76.76 73.7242V72.6542C74.16 74.9342 70.8 76.1942 67.33 76.1842V76.1741ZM57.9 61.8442C57.9 67.0442 62.12 71.2542 67.33 71.2742C72.54 71.2742 76.74 67.0542 76.76 61.8442C76.76 56.6342 72.54 52.4142 67.33 52.4142C62.12 52.4142 57.92 56.6342 57.9 61.8442Z" fill="#72C8B0"/>
<path d="M122.89 44.5042C122.89 42.1142 123.84 39.8241 125.52 38.1341C127.21 36.4441 129.5 35.5042 131.89 35.5042H137.62C138.98 35.5042 140.07 36.6042 140.07 37.9542C140.07 39.3042 138.97 40.4042 137.62 40.4042H131.89C130.8 40.4042 129.76 40.8442 129 41.6042C128.23 42.3742 127.8 43.4242 127.8 44.4942V47.5042H136.39C137.75 47.5042 138.84 48.6042 138.84 49.9542C138.84 51.3042 137.74 52.4042 136.39 52.4042H127.8V73.7042C127.8 75.0642 126.7 76.1542 125.35 76.1542C124 76.1542 122.9 75.0542 122.9 73.7042V52.4142H119.62C118.26 52.4142 117.17 51.3141 117.17 49.9641C117.17 48.6141 118.27 47.5142 119.62 47.5142H122.9V44.5042H122.89V44.5042Z" fill="black"/>
<path d="M145.82 76.1741C144.46 76.1741 143.37 75.0741 143.37 73.7241V37.6641C143.37 36.3041 144.47 35.2141 145.82 35.2141C147.17 35.2141 148.27 36.3141 148.27 37.6641V73.7241C148.27 75.0841 147.17 76.1741 145.82 76.1741Z" fill="black"/>
<path d="M156.15 76.1742C154.79 76.1742 153.7 75.0742 153.7 73.7242V49.9642C153.7 48.6042 154.8 47.5142 156.15 47.5142C157.5 47.5142 158.6 48.6142 158.6 49.9642V73.7242C158.6 75.0842 157.5 76.1742 156.15 76.1742Z" fill="black"/>
<path d="M156.15 43.6541C154.57 43.6541 153.31 42.3741 153.31 40.8141V39.7841C153.31 38.2041 154.59 36.9441 156.15 36.9441C157.71 36.9441 158.99 38.2241 158.99 39.7841V40.8141C158.99 42.3941 157.71 43.6541 156.15 43.6541Z" fill="black"/>
<path d="M165.49 76.1741C164.13 76.1741 163.04 75.0742 163.04 73.7242V61.8442C163.04 53.9342 169.46 47.5142 177.37 47.5042C185.28 47.5042 191.7 53.9242 191.71 61.8442V73.7242C191.71 75.0842 190.61 76.1741 189.26 76.1741C187.91 76.1741 186.81 75.0742 186.81 73.7242V61.8442C186.81 56.6342 182.59 52.4142 177.38 52.4142C172.17 52.4142 167.97 56.6342 167.95 61.8442V73.7242C167.95 75.0842 166.85 76.1741 165.5 76.1741H165.49Z" fill="black"/>
<path d="M200.85 73.7241C200.85 75.0841 199.75 76.1741 198.4 76.1741C197.05 76.1741 195.95 75.0741 195.95 73.7241V37.6641C195.95 36.3041 197.05 35.2141 198.4 35.2141C199.75 35.2141 200.85 36.3141 200.85 37.6641V61.4041L215.54 47.3641C216.01 46.9141 216.64 46.6641 217.3 46.6841C217.95 46.6841 218.57 46.9741 219.02 47.4441C219.47 47.9141 219.72 48.5441 219.7 49.2041C219.7 49.8541 219.41 50.4741 218.94 50.9241L209.59 59.8641L221.33 72.0141C222.27 72.9841 222.25 74.5441 221.27 75.4941C220.3 76.4341 218.74 76.4141 217.79 75.4341L206.03 63.2641L200.84 68.2241V73.7341L200.85 73.7241Z" fill="black"/>
</g>
<path d="M109.83 75.6141C109.88 74.2641 111 73.2041 112.36 73.2541C113.71 73.3041 114.77 74.4241 114.72 75.7841L114.69 76.5541C114.4 84.4241 107.81 90.5841 99.94 90.3141C94.55 90.1341 89.72 86.9141 87.48 82.0041C86.91 80.7841 87.45 79.3241 88.68 78.7641C89.91 78.1941 91.36 78.7341 91.92 79.9641C93.39 83.1841 96.57 85.3041 100.12 85.4241C105.3 85.6041 109.63 81.5541 109.81 76.3741L109.84 75.5941" fill="#72C8B0"/>
<path d="M114.58 61.7641C114.58 69.6641 108.08 76.1241 100.31 76.0141C92.5401 75.9041 86.0601 69.6341 86.0601 61.7641V49.9442C86.0601 48.5942 87.1601 47.5042 88.5001 47.5042C89.8401 47.5042 90.9401 48.6042 90.9401 49.9442V61.7641C90.9401 66.9441 95.14 71.1241 100.32 71.1441C105.5 71.1441 109.68 66.9441 109.7 61.7641V49.9442C109.7 48.5942 110.8 47.5042 112.14 47.5042C113.48 47.5042 114.58 48.6042 114.58 49.9442" fill="#72C8B0"/>
<path d="M36.33 47.4941C44.24 47.4941 50.66 53.9141 50.67 61.8341C50.67 69.7441 44.25 76.1641 36.33 76.1641C32.86 76.1641 29.52 74.9041 26.9 72.6341V86.8141C26.9 88.1741 25.8 89.2641 24.45 89.2641C23.1 89.2641 22 88.1641 22 86.8141V61.8341C22 53.9241 28.42 47.5041 36.33 47.4941ZM45.76 61.8341C45.76 56.6241 41.54 52.4041 36.33 52.4041C31.12 52.4041 26.92 56.6241 26.9 61.8341C26.9 67.0341 31.12 71.2441 36.33 71.2641C41.53 71.2641 45.76 67.0441 45.76 61.8341Z" fill="#00ABBE"/>
<path d="M67.33 76.1741C59.42 76.1741 53 69.7542 53 61.8442C53 53.9342 59.42 47.5142 67.33 47.5042C75.24 47.5042 81.66 53.9242 81.66 61.8442V73.7242C81.66 75.0842 80.56 76.1741 79.21 76.1741C77.86 76.1741 76.76 75.0742 76.76 73.7242V72.6542C74.16 74.9342 70.8 76.1942 67.33 76.1842V76.1741ZM57.9 61.8442C57.9 67.0442 62.12 71.2542 67.33 71.2742C72.54 71.2742 76.74 67.0542 76.76 61.8442C76.76 56.6342 72.54 52.4142 67.33 52.4142C62.12 52.4142 57.92 56.6342 57.9 61.8442Z" fill="#00ABBE"/>
<path d="M122.89 44.5042C122.89 42.1142 123.84 39.8241 125.52 38.1341C127.21 36.4441 129.5 35.5042 131.89 35.5042H137.62C138.98 35.5042 140.07 36.6042 140.07 37.9542C140.07 39.3042 138.97 40.4042 137.62 40.4042H131.89C130.8 40.4042 129.76 40.8442 129 41.6042C128.23 42.3742 127.8 43.4242 127.8 44.4942V47.5042H136.39C137.75 47.5042 138.84 48.6042 138.84 49.9542C138.84 51.3042 137.74 52.4042 136.39 52.4042H127.8V73.7042C127.8 75.0642 126.7 76.1542 125.35 76.1542C124 76.1542 122.9 75.0542 122.9 73.7042V52.4142H119.62C118.26 52.4142 117.17 51.3141 117.17 49.9641C117.17 48.6141 118.27 47.5142 119.62 47.5142H122.9V44.5042H122.89V44.5042Z" fill="black"/>
<path d="M145.82 76.1741C144.46 76.1741 143.37 75.0741 143.37 73.7241V37.6641C143.37 36.3041 144.47 35.2141 145.82 35.2141C147.17 35.2141 148.27 36.3141 148.27 37.6641V73.7241C148.27 75.0841 147.17 76.1741 145.82 76.1741Z" fill="black"/>
<path d="M156.15 76.1742C154.79 76.1742 153.7 75.0742 153.7 73.7242V49.9642C153.7 48.6042 154.8 47.5142 156.15 47.5142C157.5 47.5142 158.6 48.6142 158.6 49.9642V73.7242C158.6 75.0842 157.5 76.1742 156.15 76.1742Z" fill="black"/>
<path d="M165.49 76.1741C164.13 76.1741 163.04 75.0742 163.04 73.7242V61.8442C163.04 53.9342 169.46 47.5142 177.37 47.5042C185.28 47.5042 191.7 53.9242 191.71 61.8442V73.7242C191.71 75.0842 190.61 76.1741 189.26 76.1741C187.91 76.1741 186.81 75.0742 186.81 73.7242V61.8442C186.81 56.6342 182.59 52.4142 177.38 52.4142C172.17 52.4142 167.97 56.6342 167.95 61.8442V73.7242C167.95 75.0842 166.85 76.1741 165.5 76.1741H165.49Z" fill="black"/>
<path d="M200.85 73.7241C200.85 75.0841 199.75 76.1741 198.4 76.1741C197.05 76.1741 195.95 75.0741 195.95 73.7241V37.6641C195.95 36.3041 197.05 35.2141 198.4 35.2141C199.75 35.2141 200.85 36.3141 200.85 37.6641V61.4041L215.54 47.3641C216.01 46.9141 216.64 46.6641 217.3 46.6841C217.95 46.6841 218.57 46.9741 219.02 47.4441C219.47 47.9141 219.72 48.5441 219.7 49.2041C219.7 49.8541 219.41 50.4741 218.94 50.9241L209.59 59.8641L221.33 72.0141C222.27 72.9841 222.25 74.5441 221.27 75.4941C220.3 76.4341 218.74 76.4141 217.79 75.4341L206.03 63.2641L200.84 68.2241V73.7341L200.85 73.7241Z" fill="black"/>
<path d="M109.83 75.6141C109.88 74.2641 111 73.2041 112.36 73.2541C113.71 73.3041 114.77 74.4241 114.72 75.7841L114.69 76.5541C114.4 84.4241 107.81 90.5841 99.94 90.3141C94.55 90.1341 89.72 86.9141 87.48 82.0041C86.91 80.7841 87.45 79.3241 88.68 78.7641C89.91 78.1941 91.36 78.7341 91.92 79.9641C93.39 83.1841 96.57 85.3041 100.12 85.4241C105.3 85.6041 109.63 81.5541 109.81 76.3741L109.84 75.5941" fill="#00ABBE"/>
<path d="M114.58 61.7641C114.58 69.6641 108.08 76.1241 100.31 76.0141C92.5401 75.9041 86.0601 69.6341 86.0601 61.7641V49.9442C86.0601 48.5942 87.1601 47.5042 88.5001 47.5042C89.8401 47.5042 90.9401 48.6042 90.9401 49.9442V61.7641C90.9401 66.9441 95.14 71.1241 100.32 71.1441C105.5 71.1441 109.68 66.9441 109.7 61.7641V49.9442C109.7 48.5942 110.8 47.5042 112.14 47.5042C113.48 47.5042 114.58 48.6042 114.58 49.9442" fill="#00ABBE"/>
<path fill-rule="evenodd" clip-rule="evenodd" d="M161.98 40.2241C164.54 40.3241 166.82 41.0341 169.26 41.6741C169.74 41.8041 170.02 42.2941 169.89 42.7941C169.76 43.2841 169.27 43.5841 168.79 43.4541C166.48 42.8441 164.31 42.1441 161.88 42.0541C161.39 42.0341 161.01 41.6041 161.04 41.1041C161.07 40.5941 161.49 40.2041 161.98 40.2241V40.2241Z" fill="#00ABBE"/>
<path fill-rule="evenodd" clip-rule="evenodd" d="M160.33 35.0643C165.18 32.0243 171 29.5243 176.51 28.2043C176.99 28.0943 177.47 28.3943 177.57 28.8943C177.67 29.3843 177.37 29.8843 176.88 29.9943C171.54 31.2643 165.92 33.6843 161.23 36.6243C160.81 36.8943 160.26 36.7543 160.01 36.3243C159.76 35.8943 159.9 35.3243 160.32 35.0643H160.33Z" fill="#FFCF01"/>
<path fill-rule="evenodd" clip-rule="evenodd" d="M156.67 32.8442C157.18 28.9042 159.35 25.3242 161.8 22.3342C162.12 21.9442 162.69 21.8842 163.06 22.2142C163.43 22.5342 163.48 23.1142 163.16 23.5042C160.92 26.2342 158.9 29.4642 158.44 33.0542C158.38 33.5542 157.93 33.9142 157.44 33.8642C156.95 33.8042 156.61 33.3542 156.67 32.8442V32.8442Z" fill="#ED1652"/>
</svg>
