<svg viewBox="0 150 1086 800" xmlns="http://www.w3.org/2000/svg">
  <style>
    .waving {
      opacity: 0;
      animation: waving 10s ease-out infinite;
    }
    .arm {
      transform: rotate(-2deg);
      transform-origin: 45% 65%;
      animation: arm 0.8s ease infinite;
    }
    .order {
      opacity: 0;
      animation: order 10s ease-out infinite;
    }
    .send {
      opacity: 0;
      animation: send 5s ease alternate infinite;
    }
    .gaston {
      opacity: 0;
      animation: movein 10s ease-out infinite;
    }
    .voila {
      opacity: 0;
      animation: appear 10s ease-out infinite;
    }
    .description {
      font-family: 'Merriweather', Georgia, 'Times New Roman', Times, serif; 
      font-size: 60px;
      font-weight: 800;
      fill: #4c4c4c;
    }
    @keyframes waving {
      2% {
        opacity: 1;
      }
      30% {
        opacity: 1;
      }
      32% {
        opacity: 0;
      }
    }
    @keyframes arm {
      50% {
        transform: rotate(8deg);
      }

      100% {
        transform: rotate(-2deg);
      }
    }
    @keyframes order {
      40% {
        opacity: 0;
      }
      42% {
        opacity: 1;
      }
      90% {
        opacity: 1;
      }
      92% {
        opacity: 0;
      }
    }
    @keyframes send {
      75% {
        opacity: 0;
      }
      85% {
        opacity: 1;
      }
      90% {
        opacity: 1;
      }
      100% {
        opacity: 0;
      }
    }
    @keyframes movein {
      65% {
        transform: translateX(150px);
        opacity: 0;
      }
      67% {
        opacity: 1;
      }
      70% {
        transform: translateX(-80px);
      }
      90% {
        opacity: 1;
        transform: translateX(-80px);
      }
      92% {
        opacity: 0;
      }
    }
    @keyframes appear {
      75% {
        opacity: 0;
      }
      77% {
        opacity: 1;
      }
      90% {
        opacity: 1;
      }
      92% {
        opacity: 0;
      }
    }
  </style>
  <g class="background">
    <path d="M294,465C308,452 326,450 339,465L341,467C341,456 342,443 340,432C340,429 340,427 344,428L349,427C347.834,423.442 347.161,419.741 347,416L347,410L327,410C323,411 323,409 323,407L323,396C323,393 321,391 317,391C314,391 313,392 312,395L311,408C311,411 310,412 307,411C301,410 296,404 296,398L295,389C295,386 294,382 297,380C305,374 305,367 304,358C303,350 294,345 286,349C284,350 283,348 282,347C280,344 277,344 274,345C270,347 267,352 267,357C268,362 271,367 275,367C281,368 281,373 282,377C283,380 282,384 277,385C273,387 270,390 269,394L266,399C260,395 253,395 250,400C247,405 246,411 247,417C248,427 251,436 251,446L253,447C257.345,448.039 261.219,450.504 264,454C267,458 269,464 269,472L280,472C281,472 282,472 281,474C275,487 271,500 267,514C266,517 266,519 268,522L269,514C273,495 279,478 294,465ZM311,426L326,427C329,427 330,428 330,431L330,451L313,445C310,444 310,440 310,436C311,433 311,431 309,428C307,426 309,425 311,426Z" style="fill:rgb(242,226,214);fill-rule:nonzero;" />
    <path d="M264,454C261.219,450.504 257.345,448.039 253,447L251,446C239,444 229,446 219,454C218,455 216,458 214,458C212,457 213,453 212,451L212,448C212,444 210,441 207,437C203,431 195,427 195,418C195,413 193,409 197,404L199,399C200,383 198,369 186,357C182,354 178,352 173,353L146,357C144,357 141,358 143,361C146,364 146,368 145,372L145,386L144,389L142,387L141,385C140,384 139,382 137,383L136,386L137,391C137,393 138,395 136,397C134,401 135,404 140,404C144,404 144,406 144,409C145,417 151,424 158,425L169,426C170,426 172,425 172,427L169,429L156,433C149,435 148,436 150,443C150,448 152,453 150,457L141,477C138,485 130,488 126,494C125,496 124,495 123,493L113,477C109,472 108,466 108,460C108,450 108,440 105,430C104,428 103,426 100,426C95,425 89,425 84,428C81,430 79,433 81,437L83,449L82,452C70,464 74,480 90,485C95,486 101,496 100,501C99,505 96,508 92,508C86,509 81,508 75,510C71,510 68,509 69,504L69,495C69,492 67,489 64,489C60,488 58,491 57,494L57,506C57,508 57,510 54,510C52,511 50,510 50,507L49,485C49,479 47,477 41,477L31,476C28,476 25,478 25,481L26,505C26,508 25,509 22,509L7,509C4,508 3,510 3,512L3,533C3,537 4,538 7,538L41,537C44,537 45,538 45,542L46,572L46,639C46,643 45,644 42,644C30,643 17,644 5,645C4,645 1,644 1,647L0,664C0,666 1,666 3,667L19,667C38,663 59,666 79,664C80,663 83,662 83,665C83,668 81,668 79,668L58,677C54,679 51,683 52,688C53,692 57,695 63,695L100,695C105,695 108,692 108,687L108,683C110,679 113,677 117,680C120,682 116,684 116,685L114,689C113,692 113,695 116,697C119,699 121,696 123,694C128,690 132,684 135,678C137,675 139,673 142,673L166,669C172,667 175,660 170,655L160,642C156,638 157,635 160,631C162,628 162,624 166,624L179,624C181,624 182,625 183,627C188,646 197,663 207,680C211,686 214,692 220,696C224,699 227,697 228,693C229,689 228,685 226,681L219,670C211,657 204,643 198,629C197,627 196,624 200,624C205,623 210,621 216,622C230,624 239,611 241,601C245,578 253,555 258,533C263,513 272,493 269,472C269,464 267,458 264,454ZM97,565C84,568 83,570 82,584L83,635C83,641 83,642 77,642L67,642C64,643 63,642 63,639L63,627L66,570L65,541C65,538 66,537 69,536C81,536 93,536 105,534C107,533 110,533 110,536C111,543 114,549 118,555C120,558 120,559 116,560L97,565ZM112,666C111,667 110,668 109,667L108,663L110,662L117,662L117,663L112,666ZM130,654C128,655 128,654 127,652C125,645 119,644 114,643C109,641 108,639 108,634L109,623C109,622 110,620 112,620C117,620 121,624 123,628C125,636 128,643 132,650C134,652 132,653 130,654ZM850,499C846,492 848,485 847,478C846,466 848,454 848,442L850,424L850,403C850,400 849,397 845,395C842,394 839,395 836,397L833,399C825,402 820,407 816,414C813,419 810,425 808,432L805,418C805,415 805,413 808,412L819,406C825,401 825,395 818,391L814,386C808,376 806,366 808,354C808,349 808,344 806,339C804,335 800,333 796,334C792,334 788,335 784,338C780,341 778,344 777,349C775,355 777,363 771,368C769,370 770,372 773,373C775,373 776,374 777,376C778,381 782,382 787,381C788,381 790,380 790,382C790,384 789,384 788,385L782,386C778,386 775,387 772,389C768,391 768,396 773,398C775,399 775,400 774,402C770,408 764,413 761,419C757,425 751,426 745,426C741,426 740,424 740,421L739,411C738,409 737,406 734,406C732,405 731,407 729,409C726,414 726,418 728,423C728,425 729,429 725,429L693,429L696,422C699,418 698,415 696,412C693,409 686,406 683,408C679,410 679,414 680,418C680,421 679,422 676,421L644,418C640,417 640,416 640,412L644,396L643,386C640,382 643,378 643,373L645,372C650,372 651,369 652,365C653,363 653,361 655,360C659,357 659,355 656,352C653,349 653,346 653,343C653,340 656,340 658,339C660,337 663,336 662,332C661,329 659,327 656,328L652,326C643,320 631,322 625,332C620,340 621,350 621,359C621,361 623,363 625,364C627,366 628,368 627,371C626,374 624,375 621,375C615,374 610,377 605,382C600,388 597,396 595,404L587,434C585,430 585,427 585,424L582,417C579,411 574,409 569,412C565,416 560,420 560,427L559,446L558,469C556,481 558,492 562,503C564,509 569,513 575,514L585,515C587,514 588,515 587,517C585,520 583,522 583,525L599,526L605,516C607,513 609,512 612,512C615,513 615,515 615,517C616,520 618,522 618,526L635,525C635,522 632,519 631,515C630,513 630,511 633,512L635,512C637,511 641,510 642,511C644,514 642,517 642,520L641,526L649,526L653,527C655,527 657,528 658,531L661,498C661,495 660,492 665,492C672,493 674,494 674,498L674,502L682,490L686,483C680,478 673,478 666,478L653,477C651,476 649,476 649,474C649,472 648,470 650,469C657,465 656,460 654,454C653,451 654,450 657,450L699,450C703,450 705,451 703,455L703,462L717,453L720,452L730,452L740,451L752,451C754,450 754,452 754,454C753,456 754,459 752,462C760,474 763,487 764,502L765,504C774,514 786,512 799,513C790,524 783,536 777,549C776,552 774,557 778,559C782,561 785,557 787,553L798,532L807,515C810,529 813,543 820,555C823,561 827,563 830,562C833,560 834,556 831,549L818,517C817,512 818,512 822,511L843,509C849,509 853,503 850,499Z" style="fill:rgb(229,209,196);fill-rule:nonzero;" />
    <path d="M752,732C753,736 738,736 735,729L733,730L691,733C679,733 667,729 655,728L641,728C637,733 627,728 628,727L548,727L443,728C434,730 426,729 417,730L412,732C414,737 403,740 399,732L398,730C397,732 395,732 394,732C375,731 356,732 337,734L302,735L293,749L290,752C288,753 287,754 285,753C283,752 284,750 284,748L285,745C280,746 276,751 277,756C278,761 282,764 287,767C298,774 311,775 324,775C342,776 360,775 377,773L407,771C414,770 421,769 428,772C446,778 464,782 483,782L531,782L587,776C593,776 599,775 604,771L613,768C629,769 645,768 661,767C669,766 677,765 685,768C702,773 720,775 739,772C748,771 757,769 765,763C774,757 775,744 766,738C762,734 757,732 752,732Z" style="fill:rgb(206,200,196);fill-rule:nonzero;" />
    <path d="M503,527L466,527L418,557C413,560 408,563 404,568L404,570L408,572L674,572L679,571L678,568C670.285,556.263 663.594,543.884 658,531C657,529 655,527 653,527L649,526L641,526L635,525L618,526L599,526L583,525L576,526L503,527Z" style="fill:rgb(202,166,116);fill-rule:nonzero;" />
    <path d="M707,672L706,672L735,729L745,748C747,753 750,755 754,754C758,752 759,748 757,743L752,732L719,671C715,670 711,672 707,672Z" style="fill:rgb(3,3,3);fill-rule:nonzero;" />
    <path d="M628,727L620,747C619,750 616,755 621,757C625,758 627,754 628,751L631,745L641,727L668,673L652,673L628,727Z" style="fill:rgb(3,3,3);fill-rule:nonzero;" />
    <path d="M285,753C287,754 288,753 290,752L293,749L302,735C311,714 321,693 332,674L336,667L324,666L323,668C308,693 297,719 285,745L284,748C284,750 283,752 285,753Z" style="fill:rgb(3,3,3);fill-rule:nonzero;" />
    <path d="M389,668L386,668L377,669L398,730L399,732C403,740 406,749 411,756C412,758 413,760 415,759C418,758 419,756 419,754L418,747L412,732C403,711 396,690 389,668Z" style="fill:rgb(3,3,3);fill-rule:nonzero;" />
    <path d="M674,581C678,581 680,578 679,574L679,571L674,572L410,571L408,571L404,570C402,580 404,581 412,581L417,582L480,582C501.667,582.01 523.333,582.01 545,582L551,581L620,581L646,582L674,581ZM674,581L646,582L674,581Z" style="fill:rgb(139,116,91);fill-rule:nonzero;" />
    <path d="M545,582L526,582C524,592 525,603 525,613L525,726C525.65,728.965 525.65,732.035 525,735C525,739 524,736 523,737L517,738L513,738L475,739C467,739 450,759 459,759L519,758L563,758C578,758 594,757 609,759C611,759 613,758 614,756C615,754 614,752 613,750L606,741C604,739 602,738 598,738L559,738C548,738 548,738 548,726L547,708C546,666 549,624 545,582Z" style="fill:rgb(3,3,3);fill-rule:nonzero;" />
  </g>
  <g class="chairs" transform="matrix(1,0,0,1,-1139.53,150)">
    <path d="M1867.6,336.012L1867.53,336C1861.53,335 1857.53,335 1853.53,340C1841.82,355.942 1832.39,373.445 1825.53,392L1817.53,417L1818.53,421L1818.53,424C1819.53,428 1817.53,431 1813.53,431L1812.53,450C1812.45,452.333 1812.45,454.667 1812.53,457C1812.53,464 1811.53,471 1822.53,472L1803.53,473L1776.53,475C1761.53,475 1749.53,482 1740.53,494L1734.53,503C1734.53,504 1733.53,506 1735.53,507C1737.53,508 1738.53,507 1739.53,505L1743.53,499C1752.53,488 1762.53,480 1778.53,481C1786.53,482 1795.53,481 1804.53,480C1821.07,477.092 1837.77,475.089 1854.53,474C1861.53,474 1868.53,473 1873.53,480L1875.53,483C1876.53,484 1877.53,485 1878.53,484C1880.53,483 1880.53,482 1880.53,481C1879.53,476 1877.53,472 1873.53,469C1870.53,468 1858.53,467 1859.53,465L1866.53,452C1871.53,443 1872.53,432 1874.53,422L1878.53,383C1880.53,364 1881.53,346 1878.53,327C1878.53,326 1878.53,324 1876.53,324C1873.53,324 1874.53,326 1874.53,327L1874.53,330C1874.53,334.98 1873.54,336.984 1867.6,336.012Z" style="fill:rgb(175,67,110);fill-rule:nonzero;" />
    <path d="M1891.53,312C1888.53,307 1884.53,304 1879.53,301L1869.53,302C1865.2,302.366 1860.86,302.7 1856.53,303L1842.53,312L1841.53,313L1825.53,333L1821.53,340L1813.53,352C1807.53,363 1804.53,376 1801.53,388C1805.81,398.527 1811.17,408.581 1817.53,418L1825.53,392L1828.53,384C1835.53,369 1843.53,354 1853.53,340C1857.53,335 1861.53,335 1867.53,336C1873.53,337 1874.53,335 1874.53,330L1874.53,327C1874.53,326 1873.53,324 1876.53,324C1878.53,324 1878.53,326 1878.53,327C1881.53,346 1880.53,364 1878.53,383L1874.53,422C1872.53,432 1871.53,443 1866.53,452L1859.53,465C1858.53,467 1870.53,468 1873.53,469C1877.53,472 1879.53,476 1880.53,481C1880.53,482 1880.53,483 1878.53,484C1877.53,485 1876.53,484 1875.53,483L1873.53,481C1868.53,473 1861.53,474 1854.53,474C1829.23,476.682 1803.89,479.015 1778.53,481C1762.53,480 1752.53,488 1743.53,499L1739.53,506C1738.53,507 1737.53,508 1735.53,507C1733.53,506 1734.53,504 1734.53,503L1740.53,494C1749.53,482 1761.53,475 1776.53,475L1803.53,473L1822.53,472C1811.53,471 1812.53,464 1812.53,457C1812.43,454.668 1812.43,452.332 1812.53,450L1813.53,431L1785.53,432C1783.53,435 1786.53,439 1783.53,441C1780.53,443 1776.53,443 1773.53,443L1765.53,444C1741.53,444 1728.53,464 1725.53,486L1725.53,513C1725.53,517 1727.53,519 1731.53,519C1751.53,522 1771.53,523 1791.53,523L1807.53,523L1845.53,522L1846.53,522C1850.53,522 1854.53,520 1858.53,521L1873.53,519C1877.53,518 1880.53,516 1882.53,512C1886.53,504 1890.53,496 1892.53,487L1899.53,457L1903.53,435L1904.53,355L1903.53,352C1902.53,337 1899.53,324 1891.53,312ZM1550.37,515.739L1547.53,517L1528.53,518C1527.54,517.811 1526.52,517.811 1525.53,518L1516.53,519C1502.53,519 1489.53,519 1475.53,517L1463.53,516L1442.53,515C1436.53,515 1431.53,513 1428.53,506C1411.53,465 1405.53,423 1406.53,379L1407.53,372L1408.53,364C1411.41,345.418 1420.17,328.24 1433.53,315C1447.53,302 1465.53,299 1478.53,314L1480.53,316C1480.71,316.178 1480.29,316.455 1479.46,316.94L1479.53,317L1481.53,319L1495.53,336L1499.53,343L1505.53,354C1511.53,365 1528.53,426 1528.53,426C1530.53,431 1529.53,437 1532.53,439C1534.53,441 1538.53,440 1541.53,441L1548.53,442C1569.53,442 1580.53,461 1582.53,482L1583.53,507C1583.53,511 1581.53,513 1578.53,513C1568.96,514.063 1559.67,515.127 1550.37,515.739ZM1436.84,477.629L1437.12,478.686L1437.43,479.902C1436.58,479.007 1436.54,478.312 1436.84,477.629ZM1433.04,326.501C1429.95,335.136 1428.24,344.064 1427.53,354L1426.53,357L1427.53,433L1430.53,454C1431.06,455.589 1431.74,458.018 1432.54,460.981L1432.53,461C1430.53,461 1429.53,460 1429.53,458L1426.53,439C1426.31,435.501 1426.04,432.002 1425.77,428.5L1425.54,425.5C1424.64,413.998 1423.81,402.499 1424.53,391C1424.53,373 1424.53,356 1428.53,339L1432.53,327C1432.7,326.831 1432.87,326.661 1433.04,326.501Z" style="fill:rgb(186,92,139);fill-rule:nonzero;" />
    <path d="M1465.69,468.056L1451.53,469C1445.53,469 1441.53,470 1438.53,475C1437.53,477 1435.53,478 1437.53,480C1439.53,482 1440.53,479 1441.53,478C1443.53,476 1445.53,473 1449.53,474L1468.53,475C1477.53,476 1486.53,474 1495.53,474L1527.53,474C1538.53,474 1539.53,475 1542.53,485L1543.53,488C1545.53,494 1546.53,500 1550.53,504C1551.53,506 1553.53,508 1554.53,507C1556.53,506 1556.53,504 1556.53,502L1555.53,500L1553.53,493C1549.53,490 1548.53,485 1547.53,481C1543.53,470 1538.53,466 1526.53,467L1513.8,467C1520.48,459.464 1503.53,411.921 1503.53,411C1499.53,396 1495.53,380 1491.53,372C1487.85,364.646 1485.02,348.84 1478.37,341.676C1477.47,339.887 1472.81,331.413 1466.53,335C1463.53,336 1462.53,338 1460.53,340L1457.53,348C1457.87,348.028 1458.21,348.054 1458.55,348.077C1458.19,348.079 1457.85,348.054 1457.53,348L1456.53,351C1450.53,377 1450.53,404 1451.53,430C1452.5,443.602 1456.3,457.205 1465.69,468.056ZM1433.53,451C1428.94,425.943 1427.6,400.4 1429.53,375C1429.53,359 1430.53,344 1436.53,329C1437.53,328 1437.53,327 1435.53,326C1434.53,325 1433.53,326 1432.53,327L1428.53,339C1424.53,356 1424.53,373 1424.53,391C1423.53,407 1425.53,423 1426.53,439L1429.53,458C1429.53,460 1430.53,461 1432.53,461L1433.53,458L1433.53,451Z" style="fill:rgb(166,70,114);fill-rule:nonzero;" />
  </g>

  <g class="waving">
    <g class="arm">
      <path d="M483.6,455.2C488.6,442.7 489.9,429.1 492.6,415.9C496.2,397.9 498.9,379.9 502,361.8C502.4,359.3 504,356 500,354.5C497.9,359.4 493.8,359.5 489.6,358.5C485.1,357.4 484.3,353.5 484,349.6C479.9,348 480,351.5 479.5,353.6C476.2,368.6 470.3,382.7 463.5,396.4C462.5,398.5 454.536,410.206 452.836,411.906L449.124,505.33C462.625,496.165 477.979,473.469 483.6,455.2Z" style="fill:rgb(202,166,116);fill-rule:nonzero;" />
      <path d="M489.6,358.5C493.8,359.5 497.9,359.4 500,354.5C500.6,342.8 502.4,331.1 503.5,319.5C504.4,309.7 504.8,299.8 508.5,290.2C511,283.6 509.7,275.4 510,268C510,264.3 510,260.6 509.8,257C509.8,255.4 509.2,253.5 507.3,253C505.3,252.4 505.5,255 504.3,255.8L502.9,249.9C501.7,245.6 497.4,245.9 494.4,245.2C492.1,244.7 491.1,247.9 491,250.4C491,251.7 491.2,253.3 489.3,253.4C486,253.8 486,256.1 486,258.6L486,270C486,272 486.5,274.2 484,276L484,270.5C483.7,268.3 482.5,266.7 480.2,266.7C477.4,266.6 477,268.6 477,270.7C477,273.7 476.6,276.8 477.1,279.7C478.6,288.4 479.5,297.4 487.4,303.2C489.1,304.4 489,305.9 489,307.5C489.1,317.8 486.3,327.9 486.7,338.2C486.7,341.9 486.5,346.2 484,349.6C484.3,353.6 485,357.4 489.6,358.5Z" style="fill:rgb(250,221,201);fill-rule:nonzero;" />
    </g>
    <path d="M491,761.3C500,761 509,760.7 517.2,756.3C517.3,754.9 516.7,754 515.8,753.3C515.48,753.048 515.146,752.815 514.8,752.6L514.2,752.2C510.219,749.773 505.803,748.143 501.2,747.4C500.5,747.4 499.8,747.2 499.2,747.1C498.286,746.924 497.384,746.69 496.5,746.4L496.2,746.2L495.9,746.2C494.158,745.525 492.659,744.339 491.6,742.8C487.3,742.5 483.2,741.2 479.2,739.5L477.6,738.7C474.964,737.256 472.006,736.5 469,736.5C467.2,737.2 465.9,738.2 464.9,739.5C463.9,740.8 463.2,742.4 462.9,744.2C461.9,749 458.6,751.2 453.9,750.4C449.6,749.6 447.9,746.7 448.1,742.4C446.8,741.6 445.7,741.7 445.1,742.4L444.7,742.9L444.5,743.2C444.359,743.52 444.258,743.855 444.2,744.2C443.3,747.9 442.8,751.7 442.1,755.4C458.1,760.6 474.5,762 491.1,761.4L491,761.3Z" style="fill:rgb(200,165,125);fill-rule:nonzero;" />
    <path d="M518.8,758.3L517.2,756.3C509,760.8 499.9,761 491.1,761.3C474.5,762 458.1,760.6 442.1,755.4C437.7,764 438.6,765.6 447.9,767.4C466.6,771.4 485.5,771.2 504.5,770.4C509.5,770.2 512.9,769.4 515.1,768.1C515.8,767.7 516.3,767.2 516.8,766.7C518.4,764.8 519,762.2 519,758.5L518.8,758.3ZM519,758.5L518.8,758.3L519,758.5Z" style="fill:rgb(229,209,196);fill-rule:nonzero;" />
    <path d="M453.9,750.4C458.6,751.2 461.9,749 462.9,744.3C463.294,740.753 465.719,737.742 469.1,736.6C469.1,735.6 469.7,734.7 469.9,733.8L469.9,732.9L469.4,732.3L469.1,732.1L468.1,731.7L454.6,729.1L452,728.6C451.309,733.383 449.997,738.055 448.1,742.5C447.8,746.7 449.6,749.6 453.9,750.4Z" style="fill:rgb(247,218,198);fill-rule:nonzero;" />
    <path d="M421.8,586.1C429.6,588.9 437.5,591.3 445.4,593.5C457.9,596.9 470.4,600.3 481.7,606.8C488.6,610.8 495.7,614.6 500.7,621C507.9,630.3 505.7,641 504.5,651.5C502.8,665.1 496.2,677.3 493.4,690.5C492.491,694.8 491.322,699.041 489.9,703.2L487.9,709.5L485.9,715.7L486.6,716.3C487.638,717.007 488.847,717.421 490.1,717.5L496.4,717.5L497.9,717.9L500.1,718L501,718L506.9,717C508.9,716.5 509.9,715.5 510.1,713.2C511.6,693.9 515.6,675 517.7,655.9C519.3,641.9 518.1,627.9 514.8,614.2C511.8,601.7 502.8,593.9 492.2,587.6C488.3,585.2 483.9,583.6 479.7,581.6L417,581.6C417.1,584.6 419.8,585.5 421.7,586.1L421.8,586.1ZM479.7,581.7L417,581.7L479.7,581.7Z" style="fill:rgb(4,59,83);fill-rule:nonzero;" />
    <path d="M499.9,721C498.666,720.494 497.321,720.322 496,720.5C493.5,726.3 491.5,726.8 483.4,723.4L483.1,724L482.9,724.5L482.8,724.7L482.3,726L482,726.9C481.6,728 481.2,729.2 480.6,730.2C479.776,731.577 478.449,732.581 476.9,733C480.5,733.4 484,733.9 487.6,734.2L491.2,734.4C502.4,735 513.5,736 524.7,734.6C525.122,731.883 525.122,729.117 524.7,726.4C516.3,725.1 507.8,724.2 499.9,721Z" style="fill:rgb(200,165,125);fill-rule:nonzero;" />
    <path d="M524.7,734.6C513.5,736 502.4,735 491.2,734.4L487.6,734.2C484,733.9 480.5,733.4 476.9,733L468.1,731.7L469.1,732.1C469.405,732.295 469.648,732.572 469.8,732.9C470,733.2 470,733.5 469.8,733.9C469.8,734.7 469.1,735.7 469,736.5C472.1,736.3 474.8,737.5 477.6,738.8L479.2,739.5C483.2,741.2 487.2,742.5 491.6,742.8C495.065,743.495 498.635,743.495 502.1,742.8L514.1,742.4L518,742.2C521,742.1 522.8,741.9 523.7,741.2C525,740.3 524.9,738.5 524.7,734.6Z" style="fill:rgb(229,209,196);fill-rule:nonzero;" />
    <path d="M451.5,412.5C450.3,413.8 448.6,414.8 448,416.5C446.5,429.5 439,434 424.1,436.1C412.647,437.177 401.096,435.673 390.3,431.7C385,431.2 379.6,431.4 374.6,429.3C372.4,428.4 372.1,430.3 371.4,431.4C368.7,435.7 364.2,438.2 360.8,441.8C360.4,442.3 359.6,442.3 358.8,442.4L358.1,442.5C357.3,445.4 354.9,447.1 353.1,449.2C347.9,455.5 345.7,463.2 343.2,470.9L343.2,471.3C342.385,474.752 339.821,491.879 339.7,496.7C339.5,504.7 339,512.7 339.1,520.9C339.2,526.9 344.4,530.1 349.1,532.3C358.6,537 363.5,544.1 363.2,554.8C363.2,555.4 363.7,556 363.9,556.6C371.5,552.2 379.9,550.3 388.5,549.9C393.7,549.7 398.9,549.3 404.1,549.2C410.802,549.151 417.485,549.924 424,551.5C425.7,551.1 427.4,551.8 429,552.1C430.4,552.4 431.7,552.4 433,551.5L432.1,550.8C431.288,550.061 430.67,549.134 430.3,548.1C429.9,546.8 429.7,545.4 429.8,543.8C429.9,539.8 431.6,538 435.6,538.7C438.8,539.2 441.8,539 444.6,537.4C445.4,535.2 447,533.4 447.3,531C448.1,525 449.3,518.9 450,512.8C450.8,506.8 453.5,501.5 457.5,497.3C460.1,494.6 462.5,491.8 464.9,488.9L467.404,406.595C466.604,407.295 461.461,407.851 459.142,407.699C456.823,407.548 455.1,408.9 453.3,410.7L451.5,412.5Z" style="fill:rgb(202,166,116);fill-rule:nonzero;" />
    <path d="M347.2,420.9C347.489,423.101 347.957,425.275 348.6,427.4C350.5,431.2 352.6,434.9 354,438.8C354.8,441 357.7,440.3 358,442.5L358.8,442.5C359.6,442.3 360.4,442.3 360.8,441.8C364.3,438.3 368.8,435.8 371.4,431.4C372.1,430.3 372.4,428.4 374.7,429.4C379.7,431.4 385,431.2 390.3,431.7C396.584,432.163 402.889,431.135 408.7,428.7C419.3,423.3 423.9,412.7 419.2,401.9C416.2,395.2 412.1,389.2 405,385.9C403.7,385.2 403,384.6 401.6,385.9C399.8,387.7 397.6,387.2 395.6,386.2C391.2,384 387.4,376.2 388,371.4C388.3,368.9 389.4,368.1 391.6,369.3C397.6,372.3 401.6,369.2 405.4,365.1C408.6,361.6 411.9,358.1 413.4,353.7C416.7,344.7 420.2,335.8 424.8,327.3C425.4,326.1 424.8,323.7 426.6,323.8C427.7,323.8 429.1,325.4 429.9,326.6C434.2,332.7 437.8,339.3 440.7,346.1C442,349.1 443.7,350.3 446.7,349.5C445.84,344.548 445.073,339.581 444.4,334.6C444.2,327.2 443.7,319.7 436.7,315.1C430.539,310.83 423.368,308.244 415.9,307.6C390.995,306.449 368.405,322.787 361.7,346.8C359.7,355.2 360.3,363.2 361.7,371.4C362.1,374.2 363,377 360.7,379.4C357.5,382.6 357.2,386.6 358.4,390.6C358.9,392.5 358.9,393.5 357,394.6C351.3,398 348.5,403.6 346.6,409.8C346.607,413.475 346.808,417.146 347.2,420.8L347.2,420.9Z" style="fill:rgb(3,3,3);fill-rule:nonzero;" />
    <path d="M440.7,346.1C437.7,339.2 434.2,332.7 429.9,326.6C429.1,325.4 427.7,323.8 426.6,323.8C424.7,323.8 425.4,326.1 424.7,327.3C420.2,335.8 416.7,344.7 413.4,353.7C411.9,358.1 408.6,361.7 405.4,365.1C401.7,369.1 397.6,372.3 391.6,369.2C389.4,368.1 388.3,368.8 388,371.4C387.4,376.2 391.2,384 395.5,386.1C397.5,387.1 399.8,387.7 401.5,385.9C402.9,384.6 403.7,385.2 405,385.8C412,389.1 416.2,395.2 419.1,401.9C423.8,412.8 419.3,423.3 408.7,428.6C402.7,431.6 396.6,431.6 390.3,431.6C401.088,435.607 412.639,437.145 424.1,436.1C439.1,434.1 446.5,429.5 448,416.6C441.8,419.3 435.2,420.8 428,423C432.1,413 434.5,403 437.2,393.3C438.3,389.2 442.2,388.6 446,388.5C446.5,387.3 447.6,387 448.7,386.5C455.7,383.1 456.3,381.1 453.3,374.1C451.4,369.7 452.3,364.5 449.3,360.4C448.7,359.7 449.7,359 450.3,358.4C452.1,356.8 453.5,355.1 452.4,352.4C451.4,349.6 449.1,349.5 446.7,349.4C443.7,350.3 442,349.1 440.7,346.1ZM434.1,349.9C434.1,351.2 433.9,352.5 432.5,352.3L431.6,352.3C428.9,351.7 429,349 428.8,346.8C428.6,345.4 428.8,343.4 430.3,343.6C433.3,343.9 433.3,346.9 434.1,349L434.1,349.9Z" style="fill:rgb(247,218,198);fill-rule:nonzero;" />
    <path d="M489.1,500.1C484.1,508.9 479.3,517.8 474.3,526.5C473.1,528.5 472,530.6 470,531.9C470,532.6 470,533.3 469.8,533.9C467,539.7 467,539.5 473.4,539.5C477,539.5 479.9,538.1 482.4,536C486,533.3 489.2,531 492.7,536C492.7,536.2 493.6,535.8 494.1,535.7C497.8,535 499.4,532.2 501.1,529.4C501.6,528.5 502.2,527.6 502.9,526.8C504.5,518.9 508.1,511.8 511.6,504.8C515,497.6 518.6,490.6 520.2,482.8L492.2,496.4C490.4,497.2 489.9,498.7 489.1,500.2L489.1,500.1Z" style="fill:rgb(143,184,203);fill-rule:nonzero;" />
    <path d="M435.6,538.7C431.6,538 429.9,539.8 429.8,543.8C429.8,545.4 429.9,546.8 430.4,548.2C430.904,549.598 431.853,550.792 433.1,551.6C436,552.6 439.1,553.1 442.1,553.4C445.127,553.713 448.161,553.947 451.2,554.1C458.8,554.9 466.3,556.3 473.9,556.3C482.171,556.358 489.803,551.748 493.6,544.4C494.6,542.7 495,540.6 497,539.7C497.3,537.4 494.7,537.3 494,535.7C493.6,535.8 492.8,536.1 492.7,536C489.2,531 485.9,533.3 482.5,536C479.9,538 476.9,539.5 473.5,539.5C466.9,539.5 467,539.6 469.8,533.9C470.1,533.3 469.9,532.6 470,531.9C466.7,529.3 464,532.1 461.2,533C457.4,534.3 454.4,537.9 449.9,537.5L444.7,537.5C441.937,538.951 438.747,539.377 435.7,538.7L435.6,538.7Z" style="fill:rgb(247,218,198);fill-rule:nonzero;" />
    <path d="M461.2,533C464.1,532.1 466.7,529.3 470,532C472,530.6 473.1,528.5 474.3,526.5C479.3,517.8 484.2,508.9 489.1,500.1C489.9,498.7 490.4,497.1 492.1,496.4L520.1,482.7C520.5,479.1 517.8,480.7 516.5,480.9C510,482 503.5,483.4 497,484.7C489.9,486 481.2,485.4 476,489.4C470.9,493.4 469.3,501.9 466,508.4C461.8,517.1 458.4,526.1 452.3,533.7C451.3,534.8 449,535.3 449.9,537.5C454.4,537.9 457.4,534.3 461.2,533Z" style="fill:rgb(90,118,134);fill-rule:nonzero;" />
    <path d="M437.2,393.3C434.5,403 432,413 428,423C435,420.8 441.7,419.3 447.9,416.6C448.5,414.8 450.2,413.9 451.4,412.6L453.2,410.7C455.1,409 456.9,407.2 457.3,404.4C458.5,395.4 452.2,392 445.9,388.5C442.1,388.6 438.2,389.2 437.1,393.3L437.2,393.3Z" style="fill:rgb(3,3,3);fill-rule:nonzero;" />
    <path d="M454.6,729L468.1,731.7L476.9,733L478.5,732.3C479.4,731.7 480,731 480.5,730.2C481.2,729.2 481.5,728 482,726.9L482.3,726C482.491,725.463 482.691,724.93 482.9,724.4L483.4,723.4L484.1,719.6C484.3,718.6 484.7,717.6 485.3,716.6L485.9,715.7L487.9,709.5L489.9,703.2L491.8,696.9C492.397,694.817 492.931,692.716 493.4,690.6C496.2,677.3 502.8,665.1 504.4,651.6C505.8,641.1 507.9,630.2 500.7,621C495.7,614.6 488.6,610.8 481.7,606.8C470.3,600.3 457.9,596.9 445.4,593.5C437.4,591.3 429.6,588.9 421.8,586.1C419.8,585.5 417.3,584.5 417.1,581.6L412.1,581.4C403.6,581.2 402.4,579.6 404,570.4L403.8,568.6L403.6,567.8L403.9,567.5C407.7,562.8 413.1,560.3 418.1,557.4C419.8,556.4 421.5,555.4 423.1,554.2L424.1,551.5C418.9,550 413.8,549.5 408.6,549.3L404,549.3C398.8,549.3 393.6,549.7 388.5,549.9C379.8,550.3 371.5,552.2 363.9,556.6C359.9,568.6 353.5,579.7 350.6,592.2C349.3,598 347.8,603.8 348.2,609.5C348.359,612.247 348.967,614.95 350,617.5L359.2,617.2L386.9,616.6C398.6,616.4 403.9,620.2 407.9,631.2C409.4,635.4 410.2,639.9 413.9,643.1C419.4,642.1 424.9,642.8 430.4,643.3L436,643.7C439,644 442.4,643.3 444.8,644.7C447.8,646.5 444.6,649.7 444.5,652.2C444,663 441.8,673.6 439.7,684.2C437.6,694.2 435.1,704.2 432.7,714.2C430.6,723.3 431,724.1 440,726L442.9,726.7L446.3,726.9C447.475,727.09 448.642,727.323 449.8,727.6C450.5,727.8 451.2,728.1 451.9,728.6L454.5,729.1L454.6,729ZM406.3,549.3L408.6,549.3L406.3,549.3Z" style="fill:rgb(1,84,120);fill-rule:nonzero;" />
    <path d="M424,551.5L423,554.2C425.3,559.9 431,559.5 435.2,560.2C448.6,562.4 462.2,562.5 475.6,562.5C484.2,562.5 496,552.8 497.8,544.5L497.9,543.2C497.9,542 497.6,540.8 497,539.7C495,540.7 494.6,542.7 493.6,544.4C489.786,551.732 482.165,556.335 473.9,556.3C466.3,556.3 458.8,554.9 451.2,554.1C448.173,553.787 445.139,553.553 442.1,553.4C439.1,553.1 436,552.6 433.1,551.6C431.7,552.5 430.4,552.4 429.1,552.2C427.4,551.8 425.7,551.2 424.1,551.6L424,551.5Z" style="fill:rgb(139,116,91);fill-rule:nonzero;" />
    <path d="M428.4,344.8C428,346.3 428,347.2 428.4,348.8C428.8,350.4 429.6,351.7 430.9,352.3C432.2,352.9 433.9,352.3 434.5,351C434.9,350 434.7,348.6 434.3,347.4C434.011,346.207 433.427,345.107 432.6,344.2C431.6,343.4 430.4,343.1 429.6,343.8" style="fill:rgb(3,3,3);fill-rule:nonzero;" />
    <path d="M449.4,364C449.8,363.7 450.3,363.5 450.7,363.4C451.7,363.4 452.7,363.9 452.9,364.8C453.1,365.7 452.4,366.8 451.5,366.8C452.5,366.8 453.7,367 454.1,368C454.3,368.8 453.9,369.5 453.5,370.2L451.9,372.7" style="fill:rgb(247,218,198);fill-rule:nonzero;" />
  </g>
  <g class="order">
    <path d="M446.6,508C441.3,515.1 432.3,518.2 424.1,521.5C414.8,525.3 405.8,530 397.3,535.4C395.4,536.6 393.3,538.3 393.5,540.4C393.7,542.3 395.3,543.6 396.8,544.6C404.5,549.6 413.3,553.1 422.4,554.8C427.9,555.8 434.1,555.9 438.7,552.6C443.1,549.5 445,543.9 446.2,538.6C447.4,533.3 448.2,527.8 451.3,523.4" style="fill:rgb(202,166,116);fill-rule:nonzero;" />
    <path d="M327.057,593.254C327.315,594.342 343.556,614.719 350,617.5L359.3,617.3C368.5,617 377.8,616.7 387,616.6C398.6,616.4 403.9,620.3 408,631.3C409.5,635.3 410.3,640 413.9,643.1C419.5,642.2 424.9,642.8 430.5,643.3L436,643.8C439,644 442.5,643.4 444.8,644.8C447.8,646.5 444.6,649.7 444.5,652.2C444.1,663 441.9,673.6 439.7,684.2C437.7,694.2 435.2,704.2 432.8,714.2C430.6,723.3 431.1,724.2 440,726L443,726.7L446.3,727C447.474,727.156 448.641,727.357 449.8,727.6C450.6,727.8 451.3,728.1 452,728.6L454.6,729.1L468,731.7L477,733L478.5,732.3C479.4,731.7 480,731 480.5,730.2C481.2,729.2 481.5,728 482,726.9L482.3,726C482.491,725.463 482.691,724.93 482.9,724.4C482.9,724.3 482.9,724.1 483.1,724L483.4,723.4L484.1,719.6C484.3,718.6 484.7,717.6 485.3,716.6L485.9,715.7L487.9,709.5L489.9,703.2L491.8,696.9C492.397,694.817 492.931,692.716 493.4,690.6C496.2,677.3 502.8,665.1 504.4,651.5C505.8,641.1 507.8,630.2 500.6,621C495.6,614.6 488.6,610.8 481.6,606.8C470.3,600.3 457.9,596.9 445.4,593.5C437.4,591.3 429.6,588.8 421.8,586.1C419.8,585.5 417.3,584.5 417.1,581.6L412.1,581.4C403.5,581.2 402.4,579.6 404,570.4L403.8,568.6L403.9,567.5C407.7,562.8 413,560.3 418.1,557.4C419.8,556.4 421.5,555.4 423.1,554.2L426.007,552.118C420.807,550.618 413.8,549.5 408.6,549.3L404,549.3C398.8,549.3 393.6,549.7 388.4,549.9M406.3,549.3L408.6,549.3L406.3,549.3Z" style="fill:rgb(1,84,120);fill-rule:nonzero;" />
    <path d="M491,761.3C500,761 509,760.7 517.2,756.3C517.3,754.9 516.7,754 515.8,753.3C515.48,753.048 515.146,752.815 514.8,752.6L514.2,752.2C510.219,749.773 505.803,748.143 501.2,747.4C500.5,747.4 499.8,747.2 499.2,747.1C498.286,746.924 497.384,746.69 496.5,746.4L496.2,746.2L495.9,746.2C494.158,745.525 492.659,744.339 491.6,742.8C487.3,742.5 483.2,741.2 479.2,739.5L477.6,738.7C474.964,737.256 472.006,736.5 469,736.5C467.2,737.2 465.9,738.2 464.9,739.5C463.9,740.8 463.2,742.4 462.9,744.2C461.9,749 458.6,751.2 453.9,750.4C449.6,749.6 447.9,746.7 448.1,742.4C446.8,741.6 445.7,741.7 445.1,742.4L444.7,742.9L444.5,743.2C444.359,743.52 444.258,743.855 444.2,744.2C443.3,747.9 442.8,751.7 442.1,755.4C458.1,760.6 474.5,762 491.1,761.4L491,761.3Z" style="fill:rgb(200,165,125);fill-rule:nonzero;" />
    <path d="M518.8,758.3L517.2,756.3C509,760.8 499.9,761 491.1,761.3C474.5,762 458.1,760.6 442.1,755.4C437.7,764 438.6,765.6 447.9,767.4C466.6,771.4 485.5,771.2 504.5,770.4C509.5,770.2 512.9,769.4 515.1,768.1C515.8,767.7 516.3,767.2 516.8,766.7C518.4,764.8 519,762.2 519,758.5L518.8,758.3ZM519,758.5L518.8,758.3L519,758.5Z" style="fill:rgb(229,209,196);fill-rule:nonzero;" />
    <path d="M453.9,750.4C458.6,751.2 461.9,749 462.9,744.3C463.294,740.753 465.719,737.742 469.1,736.6C469.1,735.6 469.7,734.7 469.9,733.8L469.9,732.9L469.4,732.3L469.1,732.1L468.1,731.7L454.6,729.1L452,728.6C451.309,733.383 449.997,738.055 448.1,742.5C447.8,746.7 449.6,749.6 453.9,750.4Z" style="fill:rgb(247,218,198);fill-rule:nonzero;" />
    <path d="M421.8,586.1C429.6,588.9 437.5,591.3 445.4,593.5C457.9,596.9 470.4,600.3 481.7,606.8C488.6,610.8 495.7,614.6 500.7,621C507.9,630.3 505.7,641 504.5,651.5C502.8,665.1 496.2,677.3 493.4,690.5C492.491,694.8 491.322,699.041 489.9,703.2L487.9,709.5L485.9,715.7L486.6,716.3C487.638,717.007 488.847,717.421 490.1,717.5L496.4,717.5L497.9,717.9L500.1,718L501,718L506.9,717C508.9,716.5 509.9,715.5 510.1,713.2C511.6,693.9 515.6,675 517.7,655.9C519.3,641.9 518.1,627.9 514.8,614.2C511.8,601.7 502.8,593.9 492.2,587.6C488.3,585.2 483.9,583.6 479.7,581.6L417,581.6C417.1,584.6 419.8,585.5 421.7,586.1L421.8,586.1ZM479.7,581.7L417,581.7L479.7,581.7Z" style="fill:rgb(4,59,83);fill-rule:nonzero;" />
    <path d="M499.9,721C498.666,720.494 497.321,720.322 496,720.5C493.5,726.3 491.5,726.8 483.4,723.4L483.1,724L482.9,724.5L482.8,724.7L482.3,726L482,726.9C481.6,728 481.2,729.2 480.6,730.2C479.776,731.577 478.449,732.581 476.9,733C480.5,733.4 484,733.9 487.6,734.2L491.2,734.4C502.4,735 513.5,736 524.7,734.6C525.122,731.883 525.122,729.117 524.7,726.4C516.3,725.1 507.8,724.2 499.9,721Z" style="fill:rgb(200,165,125);fill-rule:nonzero;" />
    <path d="M524.7,734.6C513.5,736 502.4,735 491.2,734.4L487.6,734.2C484,733.9 480.5,733.4 476.9,733L468.1,731.7L469.1,732.1C469.405,732.295 469.648,732.572 469.8,732.9C470,733.2 470,733.5 469.8,733.9C469.8,734.7 469.1,735.7 469,736.5C472.1,736.3 474.8,737.5 477.6,738.8L479.2,739.5C483.2,741.2 487.2,742.5 491.6,742.8C495.065,743.495 498.635,743.495 502.1,742.8L514.1,742.4L518,742.2C521,742.1 522.8,741.9 523.7,741.2C525,740.3 524.9,738.5 524.7,734.6Z" style="fill:rgb(229,209,196);fill-rule:nonzero;" />
    <path d="M523.7,741.2C525,740.3 524.9,738.5 524.7,734.6C524.9,738.6 525,740.3 523.7,741.2ZM469,736.5C469,735.7 469.7,734.7 469.9,733.8C469.7,734.8 469.1,735.7 469,736.5ZM496,720.5C495.8,719 497.1,718.7 497.9,717.9L496.4,717.6C494.9,717.4 493.4,717.6 491.8,717.6L490,717.6C488.438,717.487 486.959,716.853 485.8,715.8L485.2,716.6C484.5,717.6 484.2,718.6 484,719.6L483.3,723.4C491.3,726.8 493.4,726.4 495.9,720.4L496,720.5Z" style="fill:rgb(229,209,196);fill-rule:nonzero;" />
    <path d="M484,719.7L483.4,723.4L484.1,719.7L484,719.7ZM490.1,717.6L490.3,717.6L490.1,717.6ZM501,718L500,718C500.4,718.5 500.7,718.5 501,718Z" style="fill:rgb(229,209,196);fill-rule:nonzero;" />
    <path d="M290.3,427C289.782,429.168 289.447,431.376 289.3,433.6C289.4,437.8 289.9,442 289.8,446.2C289.7,448.6 292.6,449 292.1,451.2L292.8,451.4C293.6,451.7 294.4,451.9 294.9,451.7C299.5,449.7 304.6,449.1 308.7,446.1C309.7,445.3 310.7,443.7 312.5,445.4C316.3,449.3 321.3,451.1 326,453.6C331.65,456.417 337.887,457.856 344.2,457.8C356,457 364.2,449 364.1,437.2C364.38,429.799 361.882,422.555 357.1,416.9C356.2,415.9 355.7,414.9 354,415.7C351.7,416.6 349.8,415.3 348.3,413.5C345.1,409.9 344.6,401.2 347,397C348.3,394.8 349.5,394.5 351.2,396.4C355.5,401.6 362,403.9 367.1,401.6C371.3,399.6 375.7,397.6 378.8,394.2C385.3,387 392,380.2 399.4,374.2C400.4,373.2 399.2,367.1 400.9,367.9C401.9,368.3 402.6,370.3 402.9,371.7C404.5,379 405.3,386.4 405.4,393.9C405.4,397.2 406.5,398.9 409.7,399.3C409.7,398.8 413,385.3 413.2,384.7C415.8,377.7 418.2,370.7 413.6,363.7C409.543,357.35 403.886,352.176 397.2,348.7C374.645,338.152 347.568,344.608 332.2,364.2C327.513,371.048 324.249,378.767 322.6,386.9C322,389.6 321.8,392.6 318.6,393.9C314.6,395.7 312.7,399.2 312.3,403.4C312.1,405.4 311.6,406.3 309.5,406.6C302.9,407.6 298.2,411.6 294,416.6C292.58,419.997 291.345,423.469 290.3,427Z" style="fill:rgb(3,3,3);fill-rule:nonzero;" />
    <path d="M405.4,393.9C405.4,386.4 404.5,378.9 402.9,371.7C402.6,370.3 401.9,368.3 400.9,367.9C399.2,367.1 400.6,372.4 399.5,373.3C392,379.3 385.4,386.2 378.9,393.3C375.9,396.7 371.4,398.7 367.2,400.7C362.2,403.1 355.5,401.7 351.2,396.4C349.5,394.5 348.2,394.8 347,397C344.6,401.2 345.1,410 348.3,413.5C349.8,415.3 351.7,416.6 354,415.7C355.7,415 356.2,415.8 357.2,416.9C362.4,422.7 363.9,429.9 364.1,437.2C364.3,449 356.1,457 344.2,457.8C337.887,457.856 331.65,456.417 326,453.6C334.8,461.1 345.1,473.9 356.2,476.9C370.8,480.8 379.8,473.6 386.2,462.3C379.3,462.3 371.6,460.8 364.2,460.1C371.8,452.4 377.8,444.1 384.1,436.1C386.7,432.8 390.5,433.7 394.1,435.1C395,434.2 396.1,434.3 397.3,434.2C405.1,433.9 406.3,432.2 406.3,424.6C406.3,419.8 409.1,415.3 407.8,410.4C407.6,409.6 408.8,409.2 409.6,409C411.8,408.2 413.7,407.1 413.8,404.2C413.9,401.2 411.8,400.2 409.7,399.3C406.5,398.9 405.4,397.2 405.4,393.9Z" style="fill:rgb(247,218,198);fill-rule:nonzero;" />
    <path d="M384,436.1C377.8,444.1 371.8,452.3 364.2,460.1C371.6,460.8 378.3,461.9 385.1,461.8C386.4,460.3 388.3,460.1 389.9,459.4L392.2,458.4C394.6,457.4 397,456.5 398.5,454.1C403,446.3 398.5,440.7 394,435.1C390.5,433.7 386.6,432.8 384,436.1Z" style="fill:rgb(3,3,3);fill-rule:nonzero;" />
    <path d="M406.6,413.7L408,413.7C409,414 409.6,414.9 409.5,415.8C409.3,416.8 408.3,417.4 407.5,417.1C408.3,417.5 409.4,418.2 409.3,419.2C409.3,420 408.6,420.6 407.9,421L405.5,422.7" style="fill:rgb(247,218,198);fill-rule:nonzero;" />
    <path d="M394,394.1C393.1,395.3 392.8,396.1 392.5,397.7C392.2,399.2 392.5,400.9 393.5,401.9C394.5,402.9 396.2,403.2 397.3,402.1C398.1,401.3 398.4,400 398.5,398.7C398.6,397.4 398.6,396.2 398.1,395.1C397.6,394.1 396.5,393.3 395.5,393.6M306.5,414.2C306.5,413.2 305.3,412.3 304.2,412.4C303.1,412.5 302.1,413.1 301.2,413.8C294.2,419.5 290.1,428.3 288.9,437.3C287.7,446.3 289,455.4 291.3,464.2C292.9,470.2 295.3,476.5 300.5,479.8C306.4,483.5 315,481.8 318.9,476C323,470.2 322.2,461.5 327.4,456.5C330.2,453.7 334.4,452.6 337.2,449.9C342.2,445.3 342,436.9 338.5,430.9C335,424.9 329.1,421 323.4,417.2" style="fill:rgb(3,3,3);fill-rule:nonzero;" />
    <path d="M317.8,457.3C310.3,460.5 304.9,467.6 302.2,475.2C299.5,482.8 299,491 299,499.2C298.98,519.075 301.33,538.882 306,558.2C309.5,572.4 315,587.5 327.6,595.4C328.367,595.968 329.258,596.345 330.2,596.5C331.8,596.6 333.2,595.7 334.4,594.7C338.4,591.4 341.6,587.3 345.2,583.4C349.269,578.976 353.859,574.896 358.842,571.39C369.291,564.037 381.471,559.203 394.2,559C398.6,559 403.9,559 406.3,555.5C407.5,553.7 407.6,551.5 408.3,549.4C409.3,545.9 411.8,542.8 415.2,541.2C418,539.9 421.2,539.5 423.8,537.7C427.5,535.1 428.8,530.1 428,525.7C427.2,521.3 425,517.4 422.7,513.6C416.899,503.088 410.029,493.203 402.2,484.1C399.7,481.4 397.2,478.9 395.1,476.1C393.2,473.4 380.7,459.2 386.8,460.9C382,468.3 377.7,475.6 368.8,476.3C359.9,477 350.8,473.3 344.8,466.8C341.5,463.1 339.2,462.7 336.2,458.8C335.1,457.4 333.8,455.3 331.8,455C330.2,454.7 328.4,455.3 326.8,455.4C323.705,455.525 320.657,456.203 317.8,457.4L317.8,457.3ZM425.581,552.493C435.181,546.693 440.4,541.6 448.4,533.8C450,532.3 453.333,522.81 455.05,523.428C461.344,525.693 458.805,522.705 459.38,527.056C459.686,529.373 446.082,541.562 439.098,542.593" style="fill:rgb(202,166,116);fill-rule:nonzero;" />
    <path d="M2701.66,401.618C2700.79,401.454 2701.66,401.618 2701.66,401.618L2698,404.2C2700.3,409.9 2706,409.5 2710.2,410.2C2723.6,412.4 2737.2,412.5 2750.6,412.5C2759.2,412.5 2771,402.8 2772.8,394.5L2772.9,393.2C2772.9,392.023 2772.61,390.846 2772.03,389.763C2771.47,385.141 2760.62,387.123 2757.7,387.3C2747,388 2732.86,385.124 2722.06,387.324L2723.53,385.899C2719.53,390.199 2716,390.5 2711,393.5C2707.43,395.642 2704.27,398.397 2701.66,401.618Z" style="fill:rgb(139,116,91);fill-rule:nonzero;" />
    <path d="M453.9,490.9C454.7,488.1 455.4,485 457.6,482.9C459.8,480.9 463.1,480 466.2,479.4L473.8,478C474.6,477.9 475.5,477.8 476.3,478.1C477.6,478.6 477.9,480.1 478.1,481.3C478.6,486 478.1,490.9 475.6,495C473.1,499.1 468.6,502.4 463.4,502.7C462.4,502.7 461.2,502.7 460.4,503.3C459.8,503.7 459.4,504.3 459.2,504.9C457.835,507.66 456.298,510.332 454.6,512.9C453,515.3 451.2,518 449,520.1C447.4,517.2 445.5,513.5 446,510.1C446.5,506.1 449.4,502.3 451,498.6C452.1,496.1 453,493.6 453.8,490.9L453.9,490.9Z" style="fill:rgb(247,218,198);fill-rule:nonzero;" />
    <path d="M485,472C488.7,472.4 510.9,479.8 517.6,491C518.1,491.6 518.5,492.5 518.5,493.3C518.5,494.3 517.8,495.1 517.3,495.8C507.8,508.5 496.1,524.3 486.3,536.8C485.6,537.8 484.7,539 483.4,539.5C481.6,540.3 479.4,539.7 477.6,539C469.486,535.819 462.103,531.022 455.9,524.9C454,523.1 452.8,521 451.9,518.5C451.3,516.2 452.2,514 453.5,512C455.3,509.3 456.3,506.7 458.3,504C462.321,498.672 466.422,493.405 470.6,488.2C475.3,482.3 480.5,473.4 485,471.9L485,472Z" style="fill:rgb(3,3,3);fill-rule:nonzero;" />
    <path d="M485.2,474.7C488.4,475.1 507.2,481.7 513,491.4C513.4,492.1 513.8,492.8 513.7,493.5C513.7,494.4 513.2,495.1 512.7,495.7C504.7,506.9 494.7,520.9 486.4,531.9C485.7,532.9 484.9,533.9 483.9,534.3C482.3,535 480.5,534.5 478.9,533.8C471.94,530.995 465.64,526.771 460.4,521.4C458.836,519.809 457.701,517.848 457.1,515.7C456.4,513.7 457.3,511.7 458.3,510C459.8,507.6 460.7,505.3 462.4,503L472.9,489C476.9,483.9 481.4,476 485.2,474.7Z" style="fill:white;fill-rule:nonzero;" />
    <path d="M495.9,498.8C496.2,499.3 496.5,499.8 496.5,500.4C496,501.2 495.3,501.2 494.6,500.4L494.5,500.1C493.1,497.9 490,497.4 487.2,497.9C485.2,498.2 483.3,498.2 481.5,499.1L480.7,499.4C479.9,499.8 479.1,500 478.3,499.8L478.3,500.1L478.6,500.4C482.2,502.9 485.6,505.6 489.8,506.8C490.8,507.1 491.8,507.3 492.7,507.8L493.7,507.8L494.3,507.5C494.7,507.5 495,507.4 495.3,507.2C495.7,506.8 496.1,506.3 496.3,505.8C496.639,504.833 496.841,503.823 496.9,502.8C496.9,501.7 496.8,500.3 496.3,499.3L496,499L495.9,498.8Z" style="fill:rgb(212,147,74);fill-rule:nonzero;" />
    <path d="M487.2,497.9C490,497.4 493.2,497.9 494.5,500.2L494.6,500.3C495.2,501 495.4,499.6 495.9,498.8L494.8,497.4C491.8,493.7 487.8,493 483.2,493.6C480.8,493.9 477.8,497.3 477.9,499.4L478.3,499.8C479.1,500 479.9,499.8 480.7,499.4C481,499.4 481.2,499.2 481.5,499.1C483.3,498.1 485.3,498.2 487.2,497.9Z" style="fill:rgb(224,173,114);fill-rule:nonzero;" />
    <path d="M494.6,500.3C495.3,501.3 496,501.3 496.5,500.3C496.5,499.9 496.2,499.3 495.9,498.8C495.4,499.6 495.2,501 494.6,500.3Z" style="fill:rgb(224,173,114);fill-rule:nonzero;" />
    <path d="M491.4,512.5C491.1,512.5 491,512.3 490.8,512.2L491.4,511.2L491.4,511.1C489.5,511.1 487.9,510.3 486.1,509.7C483.6,508.9 481.2,507.9 479.1,506.4C477.9,505.6 476.7,504.6 477.1,502.4C476.3,502.1 475.2,501.6 474.4,503C473.7,504.2 474.7,504.8 475.4,505.3C475.4,505.5 475.4,505.7 475.6,505.7C477.3,506.9 479.6,507.4 479.9,510.1C479.9,510.3 480.1,510.4 480.3,510.4C481.8,510.4 483,511.2 483.9,512.4L484.4,512.4C486.2,511.4 487.2,512.4 488.3,513.4C488.8,513.9 489.5,513.8 490.2,513.3C490.8,512.8 491.3,512.9 491.6,513.5L492.4,513.7C492.6,512.9 492.1,512.7 491.4,512.5Z" style="fill:rgb(150,193,34);fill-rule:nonzero;" />
    <path d="M491.4,511.1L490.8,512.2C491,512.3 491.1,512.5 491.4,512.5C492.1,512.6 492.6,512.9 492.4,513.7C493.2,513.7 493.8,513.5 494.1,512.7C494.4,511.7 493.9,511.3 493.1,511.2L492.5,510.9C492.173,510.995 491.838,511.062 491.5,511.1L491.4,511.1Z" style="fill:rgb(150,193,34);fill-rule:nonzero;" />
    <path d="M490.2,513.3C489.5,513.8 488.8,513.9 488.2,513.4C487.2,512.4 486.2,511.4 484.4,512.4C484.3,512.6 484,512.5 483.9,512.4C483,511.2 481.9,510.4 480.3,510.4C480.1,510.4 479.9,510.3 479.9,510.1C479.5,507.4 477.3,506.9 475.6,505.8L475.3,505.3C474,507.2 475,508.3 475.9,509.3C478.9,512.7 483,514.3 487.3,515.8C487.947,516.029 488.653,516.029 489.3,515.8L489.7,515.1L490.4,515.2L491.6,513.6C491.3,512.9 490.8,512.8 490.2,513.3Z" style="fill:rgb(212,147,74);fill-rule:nonzero;" />
    <path d="M489.2,515.9L490.4,515.2L489.7,515.1L489.2,515.9Z" style="fill:rgb(212,147,74);fill-rule:nonzero;" />
    <path d="M479,506.4C481.179,507.866 483.575,508.98 486.1,509.7C487.9,510.3 489.5,511.2 491.5,511.1C492,510.7 492.7,510.4 493,509.8C492.593,509.782 492.19,509.715 491.8,509.6L490.9,509.3C490.1,509.1 489.2,509.5 488.5,509.1C487.7,508.7 487.5,507.7 486.7,507.4C486.2,507.2 485.7,507.2 485.2,507.2C484.2,507.2 483.2,506.8 482.5,506.2L481.5,505.4L480.3,505.1L479.8,504.5C479.4,504 478.9,503.5 478.4,503.2C478.2,503.1 477.9,503 477.8,502.8L477.3,502.3L477.2,502.5C476.7,504.6 477.9,505.5 479.1,506.5L479,506.4Z" style="fill:rgb(105,63,17);fill-rule:nonzero;" />
    <path d="M491.5,511.1L492.5,511L493.2,510L493,509.8C492.7,510.4 492,510.7 491.5,511.1Z" style="fill:rgb(105,63,17);fill-rule:nonzero;" />
    <path d="M492.7,507.7L491.3,507.5C491.3,507.7 486.8,505.6 487,505.8C485.2,505.5 481.6,502.6 480.8,502.1L478.6,500.4L478.4,500.2C478.1,500.1 477.8,499.9 477.4,500C476.9,500.1 476.6,501 476.7,501.6C476.8,501.9 477,502.1 477.3,502.3C479.6,502.9 480.9,505.1 483.3,505.6C486.4,506.3 489,508.3 492.2,509.1C492.5,509.2 492.8,509.5 493,509.8C493.2,509.5 493.2,509.1 493.1,508.7L493.5,508.2L492.7,507.7Z" style="fill:rgb(218,17,22);fill-rule:nonzero;" />
    <path d="M493,509.8L493.3,509.8C493.7,509.8 494.3,509.6 494.3,509.2L494.1,508.7L493.5,508.1L493.1,508.7L493.1,509.7L493,509.8ZM487,505.8C486.8,505.6 491.3,507.7 491.3,507.5L492.7,507.7L489.8,506.8C485.6,505.6 482.2,502.8 478.6,500.4L480.8,502.1C481.6,502.6 485.2,505.5 487,505.8ZM478.4,503.2C478.9,503.5 479.4,504 479.8,504.5L480.3,505.1L481.5,505.4L482.5,506.2C483.244,506.857 484.207,507.213 485.2,507.2C485.7,507.2 486.2,507.2 486.7,507.4C487.4,507.7 487.7,508.7 488.5,509.1C489.2,509.5 490.1,509.1 490.9,509.3L491.9,509.6L493,509.8C492.8,509.5 492.5,509.2 492.2,509.1C489,508.3 486.4,506.3 483.2,505.6C480.9,505.1 479.6,502.9 477.3,502.3L477.8,502.8C477.9,503 478.2,503.1 478.4,503.2Z" style="fill:rgb(218,17,22);fill-rule:nonzero;" />
    <path d="M474.9,505.2C475.7,504.9 476.5,504.7 477.3,504.9C478.1,505.1 478.9,505.9 478.7,506.7C478.5,507.3 477.7,507.7 477.1,508C470.1,510.8 463.4,514.2 457,518C456.4,518.4 455.8,518.8 455.6,519.4C455.3,520 455.4,520.6 455.6,521.2C455.9,523.8 456.1,526.5 456.2,529.2C456.2,530.2 456.2,531.1 456,531.9C455.544,532.967 454.862,533.923 454,534.7C451,538 447.7,541.1 444.1,543.9C442.9,544.9 441.6,545.9 440,546.2C438.568,546.417 437.106,546.349 435.7,546C431.7,545.2 427.5,544.4 424.8,541.4C417.947,544.015 411.208,546.917 404.6,550.1C405,545.2 400.7,541.3 399.6,536.5L399.7,535.3C399.9,535 400.3,534.9 400.7,534.7L416,529C421,527 426.1,525 431.2,523.2C435.2,521.7 438.9,519.8 442.7,518C453.15,513.08 463.905,508.838 474.9,505.3L474.9,505.2ZM472.3,494C472.5,493.2 472.7,492.4 473.3,491.8C473.7,491.3 474.3,490.9 475,490.5C476.3,489.7 477.5,488.8 478.5,487.7C479.153,487.103 479.636,486.344 479.9,485.5C480.1,484.7 479.9,483.7 479,483.1C478,482.5 476.7,482.8 475.6,483.1C470.1,485.1 465.4,488.8 462.6,493.4C461.6,494.8 458.4,500.5 461.6,501.4C464.4,502.1 467.9,499.7 469.6,498C470.8,496.8 471.6,495.4 472.2,494L472.3,494Z" style="fill:rgb(247,218,198);fill-rule:nonzero;" />
    <g class="send">
      <path d="M525.6,472C527.8,459.7 514.8,455 506.2,459.8M537.7,467.3C538.2,451.5 522.7,440.3 507.2,447.8" style="fill:none;fill-rule:nonzero;stroke:rgb(1,84,120);stroke-width:2px;" />
      <path d="M550.3,464.8C552.9,444.5 527.8,424.8 507.6,437.6" style="fill:none;fill-rule:nonzero;stroke:rgb(1,84,120);stroke-width:2px;" />
    </g>
  </g>
  <g class="waving">
    <path d="M311.1 265v-.4c-6-1.8-11.3-4.9-16.5-8.2a41.8 41.8 0 0 1-18.5-36 42.2 42.2 0 0 1 5-21.2c7.8-14 20-23.5 34.2-29.4 21.2-8.7 43.5-9 66-4.4 22.8 4.7 36.1 29.4 36 50.7.1 9-2.1 17.4-7 23.6-11.5 14.5-24.4 24.7-42.4 28.2-4.4.9-8.8 1.5-13.2 2.1-2.6.4-3.7 1.5-3.8 4.2v.7c.2 6.7 3.8 12 7.3 17.6h-.1c.1.1-1.2 1-1 1 .9.4 2.2.5 3 .6l.8-.3h.3c.2-1.9-1-3.1-2-4.4a33.4 33.4 0 0 1-5.7-11.6c-1.2-3.8-.6-6 4.3-6.7 10.5-1.4 21-3 30.4-8.7 19.2-11.8 33.4-26.9 31.6-51.3a52 52 0 0 0-37.6-47.7c-12-3.2-24-3-36.2-2.5-17 .8-33 5.3-47 15.9-15 11.3-25.8 24.6-25 45 .9 21.9 15.8 37.5 37.1 43.2z" fill="#4b4b4b" />
    <path d="M294.6 255.4c-12.7-8-18.2-22-18.5-35 0 13.3 5.5 27.8 18.5 36a70.4 70.4 0 0 0 16.4 8.2v-1c-5.9-1.8-11.2-4.9-16.4-8.2zM368 267c-4.5.8-8.9 1.4-13.3 2-2.6.4-3.6 1.5-3.8 4.3v1.6-.6c.2-2.8 1.2-4 3.8-4.3 4.4-.6 8.8-1.2 13.2-2 18-3.6 30.9-13.8 42.4-28.3 4.9-6.2 7.1-14.6 7-23.6 0 8.6-2.3 16.6-7 22.6-11.5 14.5-24.4 24.7-42.4 28.2z" fill="#4b4b4b" />
    <path d="M319.3 266c-2.7.4-5.5-.8-8.2-1.4v.4c3.7 2.2 7.9 2.3 12 2.4 3.4.2 5.4 1 7.3 4.3a99 99 0 0 0 6.6 8.2c-4-6.8-6.6-15.3-17.7-13.8z" fill="#4b4b4b" />
    <path d="M339 281.6c1 .3-3.7-5.5-3-5 .8.4 2.2 1.7 3.7 3.3-4.4-7.1-10.3-16.2-20.4-14.8-2.7.3-5.5-1-8.3-1.5v1c2.8.5 5.6 1.8 8.3 1.4 11-1.4 13.7 7 17.7 13.9l1.2 1.4c-.1-.1-.2-.4-.1-.7.6 0 .9.3 1 1-.4 0-.7 0-.8-.2l.3.4c.2 0 .3.2.3.3l.6.6.3.1a16 16 0 0 1-.7-1.2zM359.8 293.9c-.2-.2-.5-.2-.8-.3l-.6-.7-.8-.2.5.8-1 .1c-3.9-.6-6.7-2.8-9.7-5-1.8-1.3-3.3-3-5.2-4.4.3.9.6 2.2-.2 1.4l-1.8-2c3.4 5.2 8 7.3 13.8 10 .9.4 4.4.8 6 .5l-.2-.2z" fill="#4b4b4b" />
    <path d="m339.7 279.9 2.3 3.7.2.6c1.9 1.3 3.4 3 5.3 4.4 3 2.2 5.8 4.4 9.5 5l1.2-.1-.6-.8c-3.6-1.3-8-3.5-10.1-5.1-1.4-1-5-4.8-7.8-7.7zM342.2 284.2a11 11 0 0 0-2.4-1.3l.4.6 1.8 2c.8.9.5-.4.2-1.3z" fill="#4b4b4b" />
    <path d="M339.7 279.9a27.1 27.1 0 0 0-3.7-3.3c-.7-.5 4 5.3 3 5l.8 1.3c.9.3 1.7.8 2.4 1.3 0-.4-.2-.6-.2-.6l-2.3-3.7z" fill="#4b4b4b" />
    <path d="M339 281.6c0-.6-.3-1-1-1l.2.7v.1l.8.2z" fill="#4b4b4b" />
    <path d="M362.3 193.3c1.4.6 2.7 1.4 3.4 2.4 0 2.1-1.6 3-4.2 2l-.6-.3c-5.8-3-13.5-.5-19.1 3.6-3.8 2.8-8.2 4.8-11.1 8.6l-1.3 1.6a9 9 0 0 1-5 3.3l.4.8 1.1.1c11 1 22 2.5 32.9.3 2.5-.5 5-1.2 7.5-1.4 1-.2 1.9-.5 2.4-.8.2-.5.5-1 1-1.3.8-.5 1.4-1.1 1.8-1.8.5-1.2.7-2.6.7-3.9a26.8 26.8 0 0 0-2.3-6.4c-1.5-2.4-3.7-5-6-6.2l-1-.4v-.1l-.6-.3zM363.9 193.9l-1-.5 1 .5z" fill="#d4934a" />
    <path d="M369.7 212.3c-.5.3-.8.7-1 1.2l.3-.1c1.2-.8 2-1.8 2.5-3-.5.7-1 1.3-1.8 1.8zM372.2 206.5c0-1.2-.2-2.4-.6-3.4-.4-.9-1-2-1.7-3a25.8 25.8 0 0 1 2.3 6.4z" fill="#d4934a" />
    <path d="M341.8 201c5.6-4.1 13.3-6.6 19.2-3.6l.5.2c2 .7.9-2.2.8-4.3-1.4-.7-3-1.2-4.2-1.6-11.2-4-21.1-1-30.5 5.3-5 3.2-7.4 13.3-4.5 17.3l1.3.2a9 9 0 0 0 5-3.3l1.3-1.6c2.9-3.8 7.3-5.9 11.1-8.6z" fill="#e0ad72" />
    <path d="M361.5 197.6c2.5 1 4.2.2 4.2-2-.7-1-2-1.7-3.4-2.3.1 2 1.3 5-.8 4.3z" fill="#e0ad72" />
    <path d="M369.4 225.4c-.5.2-1.1 0-1.7 0l.1-2.9v-.1c-4.2 2.3-9 2.3-13.6 3.2a72 72 0 0 1-19.8 1.2c-3.7-.3-7.6-.9-9.1-5.7-2.6.3-5.5.4-5.5 4 0 3.2 2.7 3.3 4.9 3.7.4.2.7.5 1.1.5 5.2.5 10.8-1 15 4 .2.2.9.2 1.2 0 3.5-1.6 7-1.4 10.6 0 .3 0 1 0 1.2-.4 2.6-4 6-3.2 9.7-2.4 1.7.4 3.3-.6 4.2-2.4.8-1.6 2-2 3.4-1l2-.5.2-.1c-.7-1.7-2.2-1.8-3.9-1.1z" fill="#96c122" />
    <path d="m367.8 222.5-.1 3 1.7-.1c1.7-.7 3.2-.6 4 1 1.6-.6 2.6-1.9 2.1-3.9-.5-2.2-2-2.4-3.8-1.7-.5.2-1 0-1.6.1-.7.6-1.5 1-2.2 1.5l-.1.1z" fill="#96c122" />
    <path d="M367.7 228.1c-1 1.8-2.5 2.8-4.2 2.4-3.6-.8-7.1-1.6-9.7 2.4-.2.3-.9.5-1.2.4-3.5-1.4-7-1.6-10.6 0-.3.2-1 .2-1.2 0-4.2-5-9.8-3.5-15-4-.4 0-.8-.3-1.1-.5-.8 5.2 3 6 6 7a70.3 70.3 0 0 0 33.6.5c1.9-.3 3.3-1 4.4-2l.1-2.1 1.6-.5c.5-1.3.8-2.8.7-4.6-1.5-1-2.6-.6-3.4 1z" fill="#d4934a" />
    <path d="M368.8 234.3a7 7 0 0 0 1.6-2.6l-1.6.5v2z" fill="#d4934a" />
    <path d="M334.4 226.8c6.6.7 13.3 0 19.8-1.2 4.6-.9 9.4-.9 13.7-3.2.5-1.5 1.8-2.8 1.7-4.3-.9.4-1.8.8-2.8 1-.8.1-1.7.1-2.5.3-2 .6-3.6 2.3-5.7 2.4-2 0-4-1.7-6.1-1.5-1.3 0-2.4.8-3.6 1.4-2.2 1-4.8 1.4-7.2.9-1-.2-2.1-.6-3.2-.5-1 .1-2 .7-3 .7-.7 0-1.4-.4-2-.6-1.5-.6-3-1-4.6-1h-2l-1.6-.5v.4c1.5 4.8 5.4 5.4 9 5.7z" fill="#693f11" />
    <path d="m367.9 222.4 2.2-1.5v-2.7l-.4-.1c0 1.5-1.2 2.9-1.8 4.3z" fill="#693f11" />
    <path d="m366.3 214.3-3.3 1.1c.2.3-12.4 1.3-11.7 1.4-4.3 1.5-16-.4-18.5-.5-2.3 0-4.6-.5-6.9-.9h-.7c-.9-.1-1.8-.1-2.5.4-1 1-.7 3 .4 4 .6.5 1.4.8 2.2 1v-.3c5.8-1.2 11.5 1.6 17.4 0 7.9-2 16.2-.9 24.2-2.8.9-.2 1.8.1 2.7.4 0-.8-.4-1.5-1.2-2.3l.1-1.4h-2.2z" fill="#da1116" />
    <path d="M369.6 218c.2 0 .4 0 .6-.2 1-.4 2-1.4 1.5-2.4-.2-.4-.6-.5-1-.6-.7-.3-1.4-.4-2.1-.4l-.2 1.4c.9.8 1.2 1.5 1.2 2.3zM351.3 216.8c-.7-.1 11.9-1 11.7-1.4l3.3-1c-2.5.1-5 .8-7.5 1.3-10.8 2.2-22 .7-32.9-.3 2.3.4 4.6.9 7 1 2.4 0 14.1 1.9 18.4.4z" fill="#da1116" />
    <path d="M328.9 221.3c1.5 0 3.1.3 4.6.9.6.3 1.3.6 2 .6 1 0 2-.5 3-.7 1-.1 2.1.3 3.2.5 2.4.5 5 .2 7.3-.9 1.1-.5 2.2-1.3 3.5-1.4 2.1-.2 4 1.5 6.1 1.5 2-.1 3.7-1.8 5.7-2.4.8-.2 1.7-.2 2.5-.3 1-.2 2-.6 2.8-1-.9-.3-1.8-.6-2.6-.4-8 2-16.4.8-24.3 2.9-5.9 1.5-11.6-1.3-17.3 0v.2l1.6.3c.6.2 1.2.1 1.9.2zM369.6 218.1z" fill="#da1116" />
  </g>
  <g class="voila" transform="translate(-120 0)">
    <path d="M727.3 266.8v-.3c-5-1.6-9.6-4.2-14-7-11-7-15.7-19.2-15.7-30.6a35.8 35.8 0 0 1 4.1-18c6.8-11.9 17-19.9 29.1-24.9 18.1-7.4 37-7.7 56.2-3.7 19.3 4 30.6 25 30.5 43 0 7.6-1.8 14.8-6 20a59.6 59.6 0 0 1-36 24c-3.6.7-7.4 1.3-11.2 1.8-2.1.3-3 1.3-3.2 3.6v.5c.2 5.7 3.2 10.3 6.2 15 0 .1-1 .8-1 1l2.6.4.7-.3h.3c.2-1.6-.9-2.6-1.8-3.7a28.4 28.4 0 0 1-4.7-9.9c-1-3.2-.6-5.1 3.6-5.7a63 63 0 0 0 25.8-7.4c16.3-10 28.3-22.8 26.8-43.5a44.2 44.2 0 0 0-31.9-40.6 101.4 101.4 0 0 0-30.7-2c-14.6.6-28.1 4.4-40 13.4-12.7 9.6-21.9 21-21.2 38.2.7 18.6 13.4 31.9 31.5 36.7z" fill="#4b4b4b" />
    <path d="M751 281c.8.1-3.2-4.7-2.5-4.4.6.4 1.8 1.5 3.1 2.8-3.7-6-8.8-13.6-17.4-12.5-2.2.3-4.6-.8-7-1.2l.1.8c2.3.5 4.7 1.5 7 1.2 9.4-1.2 11.6 6 15 11.8l1 1.2v-.6c.4 0 .7.3.7.8l-.6-.1.3.3.3.3.4.5h.3c-.3-.2-.5-.6-.6-1zM768.7 291.3l-.7-.2-.5-.6c-.2 0-.4 0-.7-.2l.5.7-1 .1c-3.2-.5-5.6-2.4-8.1-4.3-1.6-1-2.9-2.5-4.5-3.7.3.8.5 1.9-.1 1.2l-1.6-1.7c2.9 4.4 6.9 6.2 11.7 8.5.8.3 3.8.7 5.2.4l-.2-.2z" fill="#4b4b4b" />
    <path d="M751.6 279.5c.7 1 1.3 2.2 2 3.1l.2.5c1.5 1.1 2.8 2.6 4.4 3.8 2.5 1.8 5 3.7 8.1 4.2h1l-.4-.8c-3.1-1-6.8-2.9-8.7-4.3-1.2-.8-4.1-4-6.6-6.5zM753.8 283.1l-2.2-1.1.4.6 1.6 1.7c.7.7.4-.4.2-1.2z" fill="#4b4b4b" />
    <path d="M751.6 279.5a23.1 23.1 0 0 0-3.1-2.8c-.6-.4 3.3 4.5 2.6 4.2l.5 1.1c.8.3 1.5.7 2.1 1.1l-.1-.5-2-3.1z" fill="#4b4b4b" />
    <text font-family="Merriweather Sans" font-size="24" font-weight="800" transform="translate(723.5 235.8)">Voil!</text>
  </g>
  <g class="gaston">
    <path d="M697.3 795c1-.3 2-.7 2.3-1.8.2-1-.4-2-1-2.7a47.1 47.1 0 0 0-33.1-19.7c-10.2-1-21-.2-31.1 1.8-4 .8-16 2.8-14.8 10.6.7 5 5.4 8 9 9.2a138.6 138.6 0 0 0 68.7 2.5zM867 783.8c-.8.4-1.6.9-2.2 1.6-1.3 1.7-.7 4.3.8 5.8s3.7 2.3 5.8 2.8c11 2.8 22.7 2.1 34 1.4l36.2-2.2c2.8-.2 5.7-.4 8.1-1.6s4.6-3.6 4.4-6.3c-.3-4-4.8-6.2-8.8-7.3a95.5 95.5 0 0 0-17-3c-5.3-.5-11 .4-16.1-.6-1.6-.3-3-.8-4.6-1-2.5-.5-5.1-.2-7.6 0a84.4 84.4 0 0 0-33 10.4z" fill="#cec8c4" />
    <path d="m817.4 342.6-1.2 12s-4.5-.6-5 4c-.4 4.7 2.2 7 4.4 7.3 2.3.2 1 37.8 1 37.8l26.6 1.3 15.6-79.4zM945.8 507.6c-.3 2.4-1.7 4.5-3.3 6.2-4 4-9.3 5.8-14.6 6-5.3.4-10.5-.7-15.8-1.8l-1.5-10.8a21 21 0 0 1-.2-6.3c.3-2 1.4-4 3.1-4.7 2-.8 4.6.3 6.1-1.4 1.1-1.2 1.1-3.2.7-5-.6-2.2-1.7-4.3-1.3-6.8.3-2 1.5-3.7 2.9-4.9a11 11 0 0 1 8.7-2.5c5.8 1 8.5 8.9 10.5 14.4l3 8.9c1 2.7 2.1 5.6 1.7 8.7zM673.5 430.9c-4-.5-8.1-1.1-10.7-4.2-3.5-4-14.2-9.2-16.3-14 18.2.4 47.8-.2 66 .2 1.6 1.7 6.3 4.8 5 6.7-2.6 3.3-11.4 6.3-14.4 9.1.3-.2 20.7 22.4 21.3 24 1.3 2.9-5.9 12.7-8.5 11a121.4 121.4 0 0 1-22.3-26l-.9-2.8c-.4-1.4-.3-1.6-1.6-1.9-1.9-.4-4-.5-5.8-.7l-11.8-1.4z" fill="#f7dac6" />
    <path d="M840.7 394.6s84.6 21.3 85.6 26c1 4.8 18 61 12.2 60.3-3.3-.4-19.2-3.3-21.2 4.5-2 7.7-8.6-45.4-10.6-46s-71-7.2-71-7.2z" fill="#fff" />
    <path d="M840.7 394.6s84.6 21.3 85.6 26c1 4.8 18 61 12.2 60.3-3.3-.4-19.2-3.3-21.2 4.5-2 7.7-8.6-45.4-10.6-46s-71-7.2-71-7.2z" fill="none" stroke="#757678" stroke-miterlimit="10" stroke-width="2" />
    <path d="M745 542.1c6.6 1.2 93.3-1.7 98.3-5s6.3-4.5 7.2-9.1c1-4.7 11.8-97.2 9.4-113-2.5-15.8-11.4-20.7-20-21.8-8.5-1-40.9 12-52 21.4s-39 30-42.6 33.7-27.4-9.2-30.2-11.2-11.2 17.5-10.3 20.3 33.2 24.1 44.3 24.3c11.1.3 19.3-12.4 19.3-12.4l-30 70.5z" fill="#fff" />
    <path d="M681.4 754.1 665.7 781l-18.6-7.5 2-6-6.7-3.5-3.1 4.7s-39.6-25.3-43.1-30.1c-3.5-4.8-9.5-10.2-7.1-14.8 3.2-6.4 14.3-1.2 18.9 1l55 25.3zM914.3 672.4l29.8-.1 3.8 20.5-5.8 1.5.7 7.8 5.4.3s.5 48.8-1.5 54.5-3.2 13.8-8.2 14.1c-6.8.5-8.5-12.1-9.2-17.4l-8.6-62.5z" fill="#030303" />
    <path d="m651.6 745.2 47.8-85.4 40 .4-59.6 97.6z" fill="#2d2d2d" />
    <path d="M745 542.1c6.6 1.2 93.4-1 98.4-4.3s6.2-4.5 7.2-9.1c1-4.7 11.7-97.9 9.3-113.7-2.5-15.8-11.4-20.7-20-21.8-8.5-1-40.9 12-52 21.4s-38.9 30.9-42.5 34.6-27.5-9.2-30.2-11.2-11.3 16.6-10.4 19.3c.9 2.8 33.2 24.2 44.3 24.4 11.1.3 19.3-12.4 19.3-12.4l-30 70.5z" fill="none" stroke="#757678" stroke-miterlimit="10" stroke-width="2" />
    <path d="M722.2 469.5c0-7.6 6.3-17.6 12.3-22M913 466.2a25.9 25.9 0 0 1 23.7-4.2" fill="none" stroke="#757678" stroke-miterlimit="10" stroke-width="2" />
    <path d="M785.5 594.5S813.3 721 817 722s107.2-27 109.3-29.2-3-21.8-3-21.8L840 684l3.4-100.4 1.4-43.4-37.9 1z" fill="#2d2d2d" />
    <ellipse cx="713.9" cy="457.2" fill="#757678" rx="2.8" ry="2.9" />
    <path d="M787.2 388.7c1.6.2 2.7 2.3 3.5 4.2 2.4 5.5 4.4 11.3 5.8 17.3a11 11 0 0 1-7.1 4.7c-2.4.5-5.5 1.7-7.8 0-4.4-3.2-2.1-12.6-.7-17 1-3.1 3.2-9.7 6.3-9.2z" fill="#030303" />
    <path d="M792.1 411.6c-1-2.1-.4-5 1.1-6.7s3.9-2.3 6-1.9c1.4.3 3 1.2 3.1 2.8.1.9-.2 1.7-.5 2.5-1.3 2.9-3.2 5.7-6 6.4-2.8.6-6.2-2.2-5.5-5.3" fill="#030303" />
    <path d="M801 404.2c2.1-4 6-6.7 10-7.4.5-.1 1.1-.1 1.5.2.5.5.5 1.2.5 1.9a73.6 73.6 0 0 1-3.1 17c-.9 3.1-2.2 6.7-5 7.3-2 .5-4.1-1.1-5.3-3.2-1.1-2-1.5-4.5-1.8-6.8-.4-3 1.8-6.5 3.1-9zM693.5 659.2l90 16 61.2-137c-17.3 4-97-3.2-102.5-6.9-5.4-3.7-48.7 127.9-48.7 127.9zM887.5 287.6c2 1.5 2.3 4.3 2.5 6.8.3 6.9 0 13.8-1 20.5a43 43 0 0 1-2 8.2 53.7 53.7 0 0 1-16 20.6c-2.7 1.1-5.7.3-8.4-.7-.5-.2-1-.4-1.3-.7-.5-.6-.7-1.3-.8-2-.7-5.5 2.3-10.5 5.3-15l8.9-13.6c3.5-5.2 7.3-10.7 11-15.8 2-2.8 3.7-5.5 1.7-8.3zM822.6 288.5c-1.6-3.3-.1-7.5 2.5-10s6.2-3.5 9.6-4.6c1-.3 2.2-.6 3.3-.5 2.9.3 4.8 3.8 4.4 6.8s-2.8 5.4-5.4 6.7-5.6 1.6-8.5 1.8" fill="#030303" />
    <path d="M837 279.8c-13.4 4-30.1 28.1-31.4 34.7s-19.3-2.1-22.5.9 7.5 19.5 12.8 20-8.2 8-8.2 8l4 6.1 1.3 6.3s-5.8 4.2-3.7 8.6c2 4.4 27.6 20.6 38.5 14.2s28.2-6.8 31.4-21.8-2.3-2.7-2.3-2.7 8.8.9 14.2-.5c8.3-2.2 15.5-29.3 3.2-28.9-7.7.3-10 .8-10 .8s15.7-20 16.7-29.3-39.7-17.6-44-16.4z" fill="#f7dac6" />
    <path d="M832.1 283.5c1.2 2.6 3.4 4.6 5.7 6.2 8.5 6.2 17.6 16 28 16.7a113 113 0 0 1-16.2 30l9 3.9c1.2-3.1 9-16.1 11.6-17.9a49.2 49.2 0 0 0 19-24.8c1-2.9 1.8-6.1 1-9.2-1-3.2-3.5-5.7-6.2-7.6a54.7 54.7 0 0 0-24.8-9c-4.5-.5-9-.8-13.6-1-3.2-.1-6.9-1.3-9.7.7-3.6 2.5-5.6 7.7-3.8 12zM783 339.7a9.4 9.4 0 0 0 9.9 3.5c.8-.2 1.8-.7 2.3-2.3.9-2.4.1-4.6-.7-5.4-2-1.8-4.2-2-6.5-2.3-2.3-.3-4.6-.5-6.4-2.4a8.3 8.3 0 0 1-1.6-2.2c-.3-.8-.6-2.2-1-2.6-.5 1.7.3 4.6.5 5.6.5 2.2 1.2 4.1 2 5.7.4 1 1 1.7 1.5 2.4z" fill="#030303" />
    <ellipse cx="823.9" cy="316.3" rx="6.8" ry="4.8" transform="rotate(-70.1 823.9 316.3)" />
    <path d="M796.1 343.4c1.2 2.7 3.8 4.4 6.3 5s5.2.1 7.7-.6c3.3-1 6.7-2.9 8.5-6.2 1.4-2.8 1.7-6.2 1.8-9.4-2 3.3-5.7 4.7-9.2 6-2.5.8-5.6 1.6-7.6-.6l-1.3-1.5c-.9-.8-2-.8-3.1-.7-1 .1-2 0-2.6.8-1.5 1.8-1.5 5-.5 7.2zM867.6 516c1.4-.8 3.2-1.5 4.7-.7.9.4 1.5 1.3 2 2.1a46.5 46.5 0 0 1 6.6 19l-33.2 2.1 42.9 11-6.7 15.9c-6.1-2.8-13-3-19.2-6-4-1.8-7.5-4.7-11-7.7-3.2-2.8-7-5.3-10-8.3-7.7-7.4 4.7-15.4 9.7-18.8 4.5-3.2 9.3-6 14.2-8.6zM871.7 576.2a57 57 0 0 0 31.6 11.5 24.6 24.6 0 0 1-7.8 9c-18.9-4.8-36-16-50.8-29.7-3.7-3.4-7.8-7-10.9-11a6.7 6.7 0 0 1-.9-7c1-2.2 2.8-4.4 5-5 3.4-.8 5.7 2.7 7.8 5 8.3 9.4 16 19.8 26 27.2z" fill="#030303" />
    <ellipse cx="681.9" cy="408.8" fill="#030303" rx="59" ry="12.7" />
    <path d="M623 402h118v7.4H623z" fill="#030303" />
    <ellipse cx="681.9" cy="403.3" fill="#caa674" rx="59" ry="12.7" />
    <ellipse cx="678.1" cy="401.6" fill="#8b745b" rx="28.7" ry="6.6" />
    <path d="M702.8 375.4c0 1.2-.2 2.4-.7 3.6M693.6 367.4l-.4-.3.4.3zM695.7 364c2 1.2 3.8 3.4 5.2 5.6" fill="#fefefe" />
    <path d="M694.4 363.4a7 7 0 0 1 2.8 2.2c0 2-1.4 2.7-3.6 1.7l-.4-.2c-5-2.6-11.6-.4-16.4 3.2-3.2 2.5-7 4.4-9.5 7.8l-1.1 1.5a7.7 7.7 0 0 1-4.2 3l.3.6 1 .2c9.3.9 18.8 2.3 28 .3 2.1-.5 4.3-1.1 6.4-1.2.9-.3 1.6-.5 2.1-.8.1-.4.4-.8.8-1.1.7-.5 1.2-1 1.5-1.7.5-1 .7-2.3.7-3.5a27.8 27.8 0 0 0-2-5.8 17.2 17.2 0 0 0-5.1-5.7c-.3 0-.5-.2-.8-.3l-.5-.3v.1z" fill="#d4934a" />
    <path d="M700.6 380.6c-.4.3-.6.7-.8 1.1l.3-.1c1-.7 1.6-1.6 2-2.6a6 6 0 0 1-1.5 1.6zM702.8 375.4c0-1.1-.2-2.2-.6-3-.3-.9-.8-1.8-1.3-2.8a23.8 23.8 0 0 1 1.9 5.8z" fill="#d4934a" />
    <path d="M676.8 370.3c4.8-3.6 11.4-5.8 16.4-3.2l.5.2c1.7.7.7-2 .7-3.9l-3.6-1.4c-9.6-3.7-18-.9-26 4.7-4.3 3-6.5 12-4 15.6l1.2.2c1.8-.4 3-1.5 4.2-3l1.1-1.4c2.5-3.4 6.3-5.3 9.5-7.8z" fill="#e0ad72" />
    <path d="M693.6 367.4c2.2 1 3.6.1 3.6-1.8a7.1 7.1 0 0 0-2.8-2.2c0 2 1 4.6-.7 4z" fill="#e0ad72" />
    <path d="M700.4 392.4c-.5.2-1 0-1.5 0v-2.6l.2-.1c-3.7 2.1-7.8 2.1-11.7 2.9-5.6 1-11.3 1.7-17 1-3.1-.3-6.4-.8-7.7-5-2.2.1-4.7.3-4.7 3.5 0 2.9 2.3 3 4.2 3.3.3.2.6.5 1 .5 4.4.4 9.1-1 12.7 3.6.2.2.8.2 1 0 3-1.5 6.1-1.3 9.1 0 .3 0 .9 0 1-.3 2.3-3.6 5.2-3 8.3-2.2 1.5.4 2.8-.5 3.6-2.1.7-1.5 1.7-1.9 3-1l1.6-.4.2-.1c-.6-1.5-1.9-1.6-3.4-1z" fill="#96c122" />
    <path d="m699 389.8-.1 2.7h1.5c1.4-.7 2.7-.6 3.3.9 1.4-.6 2.3-1.8 1.9-3.5-.4-2-1.8-2.3-3.3-1.6-.4.2-1 0-1.4 0-.6.6-1.2 1-1.9 1.4v.1z" fill="#96c122" />
    <path d="M698.9 394.9c-.8 1.6-2.1 2.5-3.6 2.1-3-.7-6-1.4-8.3 2.2-.1.3-.7.4-1 .3-3-1.3-6-1.5-9 0-.3.2-.9.2-1 0-3.7-4.6-8.4-3.2-12.9-3.6-.3 0-.6-.3-1-.5-.6 4.7 2.6 5.5 5.2 6.4 9.5 3.3 19.1 2 28.7.5 1.6-.3 2.8-1 3.8-1.9v-1.9l1.4-.4c.4-1.1.6-2.5.6-4.1-1.2-1-2.2-.6-3 .9z" fill="#d4934a" />
    <path d="M699.8 400.5a6 6 0 0 0 1.4-2.3l-1.4.3v2z" fill="#d4934a" />
    <path d="M670.5 393.7c5.6.6 11.3 0 16.9-1.1 4-.8 8-.8 11.6-2.9.5-1.3 1.6-2.5 1.5-3.9l-2.3 1c-.8 0-1.5 0-2.2.2-1.7.5-3.1 2-4.9 2.1-1.8.1-3.4-1.4-5.2-1.3-1 0-2 .8-3 1.2-2 1-4.1 1.3-6.2.8-1-.2-1.8-.5-2.7-.4-1 .1-1.7.7-2.6.6-.6 0-1.2-.3-1.7-.5a11 11 0 0 0-4-.9l-1.6-.1c-.4-.1-.9-.3-1.4-.3v.3c1.3 4.3 4.6 4.8 7.7 5.2z" fill="#693f11" />
    <path d="m699 389.7 2-1.3v-2.5h-.4c0 1.3-1 2.5-1.6 3.8z" fill="#693f11" />
    <path d="M697.7 382.5c-.9.2-1.9.5-2.8 1 .1.2-10.6 1-10 1.2-3.7 1.3-13.7-.5-15.8-.5-2 0-3.9-.5-5.9-.8h-.6c-.7-.1-1.5-.2-2.1.3-1 .9-.6 2.8.3 3.6.6.5 1.2.7 2 .9v-.2c4.9-1.1 9.7 1.4 14.8 0 6.7-1.9 13.8-.8 20.7-2.6.7-.1 1.5.2 2.2.4 0-.6-.3-1.3-1-2l.1-1.3h-1.9z" fill="#da1116" />
    <path d="m700.5 385.8.5-.2c.8-.4 1.8-1.3 1.4-2.2-.2-.3-.6-.4-1-.6-.5-.2-1.1-.3-1.7-.3l-.2 1.3c.7.7 1 1.4 1 2zM685 384.7c-.7-.2 10-1 9.9-1.3l2.8-1c-2.1.2-4.3.8-6.4 1.3-9.2 2-18.7.6-28-.3 2 .3 3.9.7 5.9.8 2 0 12 1.8 15.7.5zM665.7 388.6c1.4 0 2.7.4 4 .9.5.2 1 .5 1.7.5.9 0 1.7-.4 2.6-.6.9 0 1.8.3 2.7.5 2 .4 4.3.1 6.2-.8 1-.5 2-1.2 3-1.3 1.8-.1 3.5 1.4 5.2 1.3 1.8 0 3.2-1.6 5-2l2-.4c.9-.1 1.7-.5 2.4-.8-.7-.3-1.5-.6-2.2-.4-6.9 1.7-14 .6-20.7 2.5-5 1.4-10-1.1-14.8 0v.2l1.4.3c.5.2 1 .1 1.5.1zM700.5 385.9z" fill="#da1116" />
    <path d="M685.7 352c1.8-11 10.9-19 16.2-18.4s10.2 4.6 17.2 1a29 29 0 0 0 12.7-18M693.7 355c2.9-7.8 12.3-13 17.2-11.9s9 4.4 15.9 2.4c7-2 12.7-8.5 13.9-11.9" fill="none" stroke="#757678" stroke-miterlimit="10" stroke-width="2" />
    <path d="M703.2 361.2c1-9.2 8.6-12 13-9.2 3.3 2 11 5 16.7 0" fill="none" stroke="#757678" stroke-miterlimit="10" stroke-width="2" />
  </g>
  <g class="description" transform="translate(543 850)">
    <g class="order">
      <text text-anchor="middle">Self-Order|Pay </text>
    </g>
    <g class="waving">
      <text text-anchor="middle">Classic menu </text>
    </g>
  </g>
</svg>