<svg clip-rule="evenodd" fill-rule="evenodd" stroke-linejoin="round" stroke-miterlimit="2" viewBox="0 0 276 273" xmlns="http://www.w3.org/2000/svg" xmlns:xlink="http://www.w3.org/1999/xlink"><clipPath id="a"><path clip-rule="evenodd" d="m113.983 9.153c6.511-5.873 14.968-9.124 23.737-9.124s17.226 3.251 23.738 9.124l15.105 13.626c.834.753 1.806 1.337 2.862 1.722 1.056.384 2.176.561 3.299.521l20.33-.729c8.763-.314 17.332 2.632 24.049 8.268 6.717 5.637 11.107 13.564 12.319 22.248l2.813 20.148c.155 1.113.524 2.185 1.086 3.158.562.974 1.306 1.829 2.192 2.52l16.042 12.51c6.915 5.392 11.585 13.156 13.108 21.792 1.522 8.636-.21 17.529-4.864 24.961l-10.796 17.242c-.596.953-1.003 2.011-1.198 3.118-.196 1.107-.175 2.241.059 3.34l4.248 19.894c1.831 8.575.418 17.525-3.967 25.119-4.384 7.594-11.428 13.293-19.77 15.995l-19.353 6.269c-1.069.346-2.061.896-2.922 1.618s-1.575 1.604-2.101 2.597l-9.534 17.97c-4.11 7.746-10.945 13.694-19.185 16.693s-17.3 2.837-25.427-.456l-18.854-7.637c-1.042-.422-2.155-.639-3.279-.639s-2.237.217-3.278.639l-18.855 7.637c-8.127 3.293-17.187 3.455-25.427.456s-15.075-8.947-19.185-16.693l-9.533-17.97c-.527-.993-1.241-1.875-2.101-2.597-.861-.722-1.853-1.272-2.923-1.618l-19.352-6.269c-8.343-2.702-15.387-8.401-19.771-15.995-4.385-7.594-5.798-16.544-3.967-25.119l4.248-19.894c.235-1.099.255-2.233.06-3.34s-.602-2.165-1.199-3.118l-10.796-17.242c-4.653-7.432-6.386-16.325-4.863-24.961 1.522-8.636 6.192-16.4 13.107-21.792l16.042-12.51c.886-.691 1.631-1.546 2.193-2.52.562-.973.93-2.045 1.086-3.158l2.812-20.148c1.213-8.684 5.602-16.611 12.319-22.248 6.718-5.636 15.286-8.582 24.049-8.268l20.33.729c1.123.04 2.243-.137 3.299-.521 1.056-.385 2.028-.969 2.863-1.722l15.105-13.626z"/></clipPath><path d="m113.983 9.153c6.511-5.873 14.968-9.124 23.737-9.124s17.226 3.251 23.738 9.124l15.105 13.626c.834.753 1.806 1.337 2.862 1.722 1.056.384 2.176.561 3.299.521l20.33-.729c8.763-.314 17.332 2.632 24.049 8.268 6.717 5.637 11.107 13.564 12.319 22.248l2.813 20.148c.155 1.113.524 2.185 1.086 3.158.562.974 1.306 1.829 2.192 2.52l16.042 12.51c6.915 5.392 11.585 13.156 13.108 21.792 1.522 8.636-.21 17.529-4.864 24.961l-10.796 17.242c-.596.953-1.003 2.011-1.198 3.118-.196 1.107-.175 2.241.059 3.34l4.248 19.894c1.831 8.575.418 17.525-3.967 25.119-4.384 7.594-11.428 13.293-19.77 15.995l-19.353 6.269c-1.069.346-2.061.896-2.922 1.618s-1.575 1.604-2.101 2.597l-9.534 17.97c-4.11 7.746-10.945 13.694-19.185 16.693s-17.3 2.837-25.427-.456l-18.854-7.637c-1.042-.422-2.155-.639-3.279-.639s-2.237.217-3.278.639l-18.855 7.637c-8.127 3.293-17.187 3.455-25.427.456s-15.075-8.947-19.185-16.693l-9.533-17.97c-.527-.993-1.241-1.875-2.101-2.597-.861-.722-1.853-1.272-2.923-1.618l-19.352-6.269c-8.343-2.702-15.387-8.401-19.771-15.995-4.385-7.594-5.798-16.544-3.967-25.119l4.248-19.894c.235-1.099.255-2.233.06-3.34s-.602-2.165-1.199-3.118l-10.796-17.242c-4.653-7.432-6.386-16.325-4.863-24.961 1.522-8.636 6.192-16.4 13.107-21.792l16.042-12.51c.886-.691 1.631-1.546 2.193-2.52.562-.973.93-2.045 1.086-3.158l2.812-20.148c1.213-8.684 5.602-16.611 12.319-22.248 6.718-5.636 15.286-8.582 24.049-8.268l20.33.729c1.123.04 2.243-.137 3.299-.521 1.056-.385 2.028-.969 2.863-1.722l15.105-13.626z" fill="#08aec7"/><g clip-path="url(#a)"><circle cx="137.72" cy="135.959" fill="#fff" r="110.562"/><path d="m70.77 69.009h133.901v133.901h-133.901z" fill="#fff"/><path d="m85.245 83.485h3.619v3.619h-3.619z"/><path d="m85.245 87.104h3.619v3.619h-3.619z"/><path d="m85.245 90.722h3.619v3.619h-3.619z"/><path d="m85.245 94.341h3.619v3.619h-3.619z"/><path d="m85.245 97.96h3.619v3.619h-3.619z"/><path d="m85.245 101.579h3.619v3.619h-3.619z"/><path d="m85.245 105.198h3.619v3.619h-3.619z"/><path d="m85.245 112.436h3.619v3.619h-3.619z"/><path d="m85.245 126.912h3.619v3.619h-3.619z"/><path d="m85.245 134.15h3.619v3.619h-3.619z"/><path d="m85.245 137.769h3.619v3.619h-3.619z"/><path d="m85.245 145.007h3.619v3.619h-3.619z"/><path d="m85.245 152.245h3.619v3.619h-3.619z"/><path d="m85.245 155.864h3.619v3.619h-3.619z"/><path d="m85.245 163.102h3.619v3.619h-3.619z"/><path d="m85.245 166.72h3.619v3.619h-3.619z"/><path d="m85.245 170.339h3.619v3.619h-3.619z"/><path d="m85.245 173.958h3.619v3.619h-3.619z"/><path d="m85.245 177.577h3.619v3.619h-3.619z"/><path d="m85.245 181.196h3.619v3.619h-3.619z"/><path d="m85.245 184.815h3.619v3.619h-3.619z"/><path d="m88.864 83.485h3.619v3.619h-3.619z"/><path d="m88.864 105.198h3.619v3.619h-3.619z"/><path d="m88.864 112.436h3.619v3.619h-3.619z"/><path d="m88.864 116.055h3.619v3.619h-3.619z"/><path d="m88.864 123.293h3.619v3.619h-3.619z"/><path d="m88.864 130.531h3.619v3.619h-3.619z"/><path d="m88.864 148.626h3.619v3.619h-3.619z"/><path d="m88.864 152.245h3.619v3.619h-3.619z"/><path d="m88.864 163.102h3.619v3.619h-3.619z"/><path d="m88.864 184.815h3.619v3.619h-3.619z"/><path d="m92.483 83.485h3.619v3.619h-3.619z"/><path d="m92.483 90.722h3.619v3.619h-3.619z"/><path d="m92.483 94.341h3.619v3.619h-3.619z"/><path d="m92.483 97.96h3.619v3.619h-3.619z"/><path d="m92.483 105.198h3.619v3.619h-3.619z"/><path d="m92.483 112.436h3.619v3.619h-3.619z"/><path d="m92.483 119.674h3.619v3.619h-3.619z"/><path d="m92.483 126.912h3.619v3.619h-3.619z"/><path d="m92.483 130.531h3.619v3.619h-3.619z"/><path d="m92.483 134.15h3.619v3.619h-3.619z"/><path d="m92.483 145.007h3.619v3.619h-3.619z"/><path d="m92.483 148.626h3.619v3.619h-3.619z"/><path d="m92.483 155.864h3.619v3.619h-3.619z"/><path d="m92.483 163.102h3.619v3.619h-3.619z"/><path d="m92.483 170.339h3.619v3.619h-3.619z"/><path d="m92.483 173.958h3.619v3.619h-3.619z"/><path d="m92.483 177.577h3.619v3.619h-3.619z"/><path d="m92.483 184.815h3.619v3.619h-3.619z"/><path d="m96.102 83.485h3.619v3.619h-3.619z"/><path d="m96.102 90.722h3.619v3.619h-3.619z"/><path d="m96.102 94.341h3.619v3.619h-3.619z"/><path d="m96.102 97.96h3.619v3.619h-3.619z"/><path d="m96.102 105.198h3.619v3.619h-3.619z"/><path d="m96.102 112.436h3.619v3.619h-3.619z"/><path d="m96.102 119.674h3.619v3.619h-3.619z"/><path d="m96.102 123.293h3.619v3.619h-3.619z"/><path d="m96.102 130.531h3.619v3.619h-3.619z"/><path d="m96.102 137.769h3.619v3.619h-3.619z"/><path d="m96.102 148.626h3.619v3.619h-3.619z"/><path d="m96.102 152.245h3.619v3.619h-3.619z"/><path d="m96.102 155.864h3.619v3.619h-3.619z"/><path d="m96.102 163.102h3.619v3.619h-3.619z"/><path d="m96.102 170.339h3.619v3.619h-3.619z"/><path d="m96.102 173.958h3.619v3.619h-3.619z"/><path d="m96.102 177.577h3.619v3.619h-3.619z"/><path d="m96.102 184.815h3.619v3.619h-3.619z"/><path d="m99.721 83.485h3.619v3.619h-3.619z"/><path d="m99.721 90.722h3.619v3.619h-3.619z"/><path d="m99.721 94.341h3.619v3.619h-3.619z"/><path d="m99.721 97.96h3.619v3.619h-3.619z"/><path d="m99.721 105.198h3.619v3.619h-3.619z"/><path d="m99.721 119.674h3.619v3.619h-3.619z"/><path d="m99.721 123.293h3.619v3.619h-3.619z"/><path d="m99.721 130.531h3.619v3.619h-3.619z"/><path d="m99.721 137.769h3.619v3.619h-3.619z"/><path d="m99.721 141.388h3.619v3.619h-3.619z"/><path d="m99.721 145.007h3.619v3.619h-3.619z"/><path d="m99.721 155.864h3.619v3.619h-3.619z"/><path d="m99.721 163.102h3.619v3.619h-3.619z"/><path d="m99.721 170.339h3.619v3.619h-3.619z"/><path d="m99.721 173.958h3.619v3.619h-3.619z"/><path d="m99.721 177.577h3.619v3.619h-3.619z"/><path d="m99.721 184.815h3.619v3.619h-3.619z"/><path d="m103.34 83.485h3.619v3.619h-3.619z"/><path d="m103.34 105.198h3.619v3.619h-3.619z"/><path d="m103.34 116.055h3.619v3.619h-3.619z"/><path d="m103.34 126.912h3.619v3.619h-3.619z"/><path d="m103.34 130.531h3.619v3.619h-3.619z"/><path d="m103.34 141.388h3.619v3.619h-3.619z"/><path d="m103.34 145.007h3.619v3.619h-3.619z"/><path d="m103.34 152.245h3.619v3.619h-3.619z"/><path d="m103.34 155.864h3.619v3.619h-3.619z"/><path d="m103.34 163.102h3.619v3.619h-3.619z"/><path d="m103.34 184.815h3.619v3.619h-3.619z"/><path d="m106.959 83.485h3.619v3.619h-3.619z"/><path d="m106.959 87.104h3.619v3.619h-3.619z"/><path d="m106.959 90.722h3.619v3.619h-3.619z"/><path d="m106.959 94.341h3.619v3.619h-3.619z"/><path d="m106.959 97.96h3.619v3.619h-3.619z"/><path d="m106.959 101.579h3.619v3.619h-3.619z"/><path d="m106.959 105.198h3.619v3.619h-3.619z"/><path d="m106.959 112.436h3.619v3.619h-3.619z"/><path d="m106.959 119.674h3.619v3.619h-3.619z"/><path d="m106.959 126.912h3.619v3.619h-3.619z"/><path d="m106.959 134.15h3.619v3.619h-3.619z"/><path d="m106.959 141.388h3.619v3.619h-3.619z"/><path d="m106.959 148.626h3.619v3.619h-3.619z"/><path d="m106.959 155.864h3.619v3.619h-3.619z"/><path d="m106.959 163.102h3.619v3.619h-3.619z"/><path d="m106.959 166.72h3.619v3.619h-3.619z"/><path d="m106.959 170.339h3.619v3.619h-3.619z"/><path d="m106.959 173.958h3.619v3.619h-3.619z"/><path d="m106.959 177.577h3.619v3.619h-3.619z"/><path d="m106.959 181.196h3.619v3.619h-3.619z"/><path d="m106.959 184.815h3.619v3.619h-3.619z"/><path d="m110.578 116.055h3.619v3.619h-3.619z"/><path d="m110.578 119.674h3.619v3.619h-3.619z"/><path d="m110.578 123.293h3.619v3.619h-3.619z"/><path d="m110.578 126.912h3.619v3.619h-3.619z"/><path d="m110.578 134.15h3.619v3.619h-3.619z"/><path d="m110.578 137.769h3.619v3.619h-3.619z"/><path d="m110.578 148.626h3.619v3.619h-3.619z"/><path d="m110.578 152.245h3.619v3.619h-3.619z"/><path d="m110.578 155.864h3.619v3.619h-3.619z"/><path d="m114.197 83.485h3.619v3.619h-3.619z"/><path d="m114.197 90.722h3.619v3.619h-3.619z"/><path d="m114.197 94.341h3.619v3.619h-3.619z"/><path d="m114.197 97.96h3.619v3.619h-3.619z"/><path d="m114.197 105.198h3.619v3.619h-3.619z"/><path d="m114.197 112.436h3.619v3.619h-3.619z"/><path d="m114.197 119.674h3.619v3.619h-3.619z"/><path d="m114.197 130.531h3.619v3.619h-3.619z"/><path d="m114.197 134.15h3.619v3.619h-3.619z"/><path d="m114.197 137.769h3.619v3.619h-3.619z"/><path d="m114.197 141.388h3.619v3.619h-3.619z"/><path d="m114.197 145.007h3.619v3.619h-3.619z"/><path d="m114.197 148.626h3.619v3.619h-3.619z"/><path d="m114.197 155.864h3.619v3.619h-3.619z"/><path d="m114.197 159.483h3.619v3.619h-3.619z"/><path d="m114.197 173.958h3.619v3.619h-3.619z"/><path d="m114.197 177.577h3.619v3.619h-3.619z"/><path d="m114.197 181.196h3.619v3.619h-3.619z"/><path d="m114.197 184.815h3.619v3.619h-3.619z"/><path d="m117.816 87.104h3.619v3.619h-3.619z"/><path d="m117.816 90.722h3.619v3.619h-3.619z"/><path d="m117.816 94.341h3.619v3.619h-3.619z"/><path d="m117.816 119.674h3.619v3.619h-3.619z"/><path d="m117.816 123.293h3.619v3.619h-3.619z"/><path d="m117.816 126.912h3.619v3.619h-3.619z"/><path d="m117.816 130.531h3.619v3.619h-3.619z"/><path d="m117.816 134.15h3.619v3.619h-3.619z"/><path d="m117.816 145.007h3.619v3.619h-3.619z"/><path d="m117.816 163.102h3.619v3.619h-3.619z"/><path d="m117.816 177.577h3.619v3.619h-3.619z"/><path d="m121.435 83.485h3.619v3.619h-3.619z"/><path d="m121.435 87.104h3.619v3.619h-3.619z"/><path d="m121.435 90.722h3.619v3.619h-3.619z"/><path d="m121.435 94.341h3.619v3.619h-3.619z"/><path d="m121.435 101.579h3.619v3.619h-3.619z"/><path d="m121.435 105.198h3.619v3.619h-3.619z"/><path d="m121.435 108.817h3.619v3.619h-3.619z"/><path d="m121.435 112.436h3.619v3.619h-3.619z"/><path d="m121.435 116.055h3.619v3.619h-3.619z"/><path d="m121.435 119.674h3.619v3.619h-3.619z"/><path d="m121.435 123.293h3.619v3.619h-3.619z"/><path d="m121.435 126.912h3.619v3.619h-3.619z"/><path d="m121.435 141.388h3.619v3.619h-3.619z"/><path d="m121.435 145.007h3.619v3.619h-3.619z"/><path d="m121.435 152.245h3.619v3.619h-3.619z"/><path d="m121.435 163.102h3.619v3.619h-3.619z"/><path d="m121.435 166.72h3.619v3.619h-3.619z"/><path d="m121.435 170.339h3.619v3.619h-3.619z"/><path d="m125.054 87.104h3.619v3.619h-3.619z"/><path d="m125.054 97.96h3.619v3.619h-3.619z"/><path d="m125.054 101.579h3.619v3.619h-3.619z"/><path d="m125.054 112.436h3.619v3.619h-3.619z"/><path d="m125.054 119.674h3.619v3.619h-3.619z"/><path d="m125.054 130.531h3.619v3.619h-3.619z"/><path d="m125.054 134.15h3.619v3.619h-3.619z"/><path d="m125.054 137.769h3.619v3.619h-3.619z"/><path d="m125.054 152.245h3.619v3.619h-3.619z"/><path d="m125.054 166.72h3.619v3.619h-3.619z"/><path d="m125.054 170.339h3.619v3.619h-3.619z"/><path d="m125.054 173.958h3.619v3.619h-3.619z"/><path d="m125.054 184.815h3.619v3.619h-3.619z"/><path d="m128.673 83.485h3.619v3.619h-3.619z"/><path d="m128.673 87.104h3.619v3.619h-3.619z"/><path d="m128.673 94.341h3.619v3.619h-3.619z"/><path d="m128.673 97.96h3.619v3.619h-3.619z"/><path d="m128.673 105.198h3.619v3.619h-3.619z"/><path d="m128.673 108.817h3.619v3.619h-3.619z"/><path d="m128.673 112.436h3.619v3.619h-3.619z"/><path d="m128.673 116.055h3.619v3.619h-3.619z"/><path d="m128.673 119.674h3.619v3.619h-3.619z"/><path d="m128.673 126.912h3.619v3.619h-3.619z"/><path d="m128.673 130.531h3.619v3.619h-3.619z"/><path d="m128.673 141.388h3.619v3.619h-3.619z"/><path d="m128.673 166.72h3.619v3.619h-3.619z"/><path d="m128.673 177.577h3.619v3.619h-3.619z"/><path d="m128.673 181.196h3.619v3.619h-3.619z"/><path d="m132.292 83.485h3.619v3.619h-3.619z"/><path d="m132.292 90.722h3.619v3.619h-3.619z"/><path d="m132.292 94.341h3.619v3.619h-3.619z"/><path d="m132.292 101.579h3.619v3.619h-3.619z"/><path d="m132.292 116.055h3.619v3.619h-3.619z"/><path d="m132.292 123.293h3.619v3.619h-3.619z"/><path d="m132.292 126.912h3.619v3.619h-3.619z"/><path d="m132.292 148.626h3.619v3.619h-3.619z"/><path d="m132.292 152.245h3.619v3.619h-3.619z"/><path d="m132.292 155.864h3.619v3.619h-3.619z"/><path d="m132.292 166.72h3.619v3.619h-3.619z"/><path d="m132.292 173.958h3.619v3.619h-3.619z"/><path d="m132.292 181.196h3.619v3.619h-3.619z"/><path d="m135.911 94.341h3.619v3.619h-3.619z"/><path d="m135.911 97.96h3.619v3.619h-3.619z"/><path d="m135.911 101.579h3.619v3.619h-3.619z"/><path d="m135.911 105.198h3.619v3.619h-3.619z"/><path d="m135.911 116.055h3.619v3.619h-3.619z"/><path d="m135.911 123.293h3.619v3.619h-3.619z"/><path d="m135.911 134.15h3.619v3.619h-3.619z"/><path d="m135.911 137.769h3.619v3.619h-3.619z"/><path d="m135.911 141.388h3.619v3.619h-3.619z"/><path d="m135.911 148.626h3.619v3.619h-3.619z"/><path d="m135.911 152.245h3.619v3.619h-3.619z"/><path d="m135.911 155.864h3.619v3.619h-3.619z"/><path d="m135.911 163.102h3.619v3.619h-3.619z"/><path d="m135.911 166.72h3.619v3.619h-3.619z"/><path d="m135.911 177.577h3.619v3.619h-3.619z"/><path d="m139.53 90.722h3.619v3.619h-3.619z"/><path d="m139.53 94.341h3.619v3.619h-3.619z"/><path d="m139.53 97.96h3.619v3.619h-3.619z"/><path d="m139.53 126.912h3.619v3.619h-3.619z"/><path d="m139.53 130.531h3.619v3.619h-3.619z"/><path d="m139.53 141.388h3.619v3.619h-3.619z"/><path d="m139.53 145.007h3.619v3.619h-3.619z"/><path d="m139.53 148.626h3.619v3.619h-3.619z"/><path d="m139.53 152.245h3.619v3.619h-3.619z"/><path d="m139.53 155.864h3.619v3.619h-3.619z"/><path d="m139.53 173.958h3.619v3.619h-3.619z"/><path d="m139.53 184.815h3.619v3.619h-3.619z"/><path d="m143.149 83.485h3.619v3.619h-3.619z"/><path d="m143.149 90.722h3.619v3.619h-3.619z"/><path d="m143.149 97.96h3.619v3.619h-3.619z"/><path d="m143.149 105.198h3.619v3.619h-3.619z"/><path d="m143.149 112.436h3.619v3.619h-3.619z"/><path d="m143.149 116.055h3.619v3.619h-3.619z"/><path d="m143.149 126.912h3.619v3.619h-3.619z"/><path d="m143.149 130.531h3.619v3.619h-3.619z"/><path d="m143.149 137.769h3.619v3.619h-3.619z"/><path d="m143.149 141.388h3.619v3.619h-3.619z"/><path d="m143.149 145.007h3.619v3.619h-3.619z"/><path d="m143.149 148.626h3.619v3.619h-3.619z"/><path d="m143.149 152.245h3.619v3.619h-3.619z"/><path d="m143.149 155.864h3.619v3.619h-3.619z"/><path d="m143.149 163.102h3.619v3.619h-3.619z"/><path d="m143.149 173.958h3.619v3.619h-3.619z"/><path d="m143.149 181.196h3.619v3.619h-3.619z"/><path d="m146.768 87.104h3.619v3.619h-3.619z"/><path d="m146.768 94.341h3.619v3.619h-3.619z"/><path d="m146.768 97.96h3.619v3.619h-3.619z"/><path d="m146.768 108.817h3.619v3.619h-3.619z"/><path d="m146.768 112.436h3.619v3.619h-3.619z"/><path d="m146.768 116.055h3.619v3.619h-3.619z"/><path d="m146.768 119.674h3.619v3.619h-3.619z"/><path d="m146.768 126.912h3.619v3.619h-3.619z"/><path d="m146.768 134.15h3.619v3.619h-3.619z"/><path d="m146.768 145.007h3.619v3.619h-3.619z"/><path d="m146.768 148.626h3.619v3.619h-3.619z"/><path d="m146.768 152.245h3.619v3.619h-3.619z"/><path d="m146.768 155.864h3.619v3.619h-3.619z"/><path d="m146.768 159.483h3.619v3.619h-3.619z"/><path d="m146.768 170.339h3.619v3.619h-3.619z"/><path d="m146.768 173.958h3.619v3.619h-3.619z"/><path d="m146.768 177.577h3.619v3.619h-3.619z"/><path d="m150.386 87.104h3.619v3.619h-3.619z"/><path d="m150.386 90.722h3.619v3.619h-3.619z"/><path d="m150.386 97.96h3.619v3.619h-3.619z"/><path d="m150.386 101.579h3.619v3.619h-3.619z"/><path d="m150.386 105.198h3.619v3.619h-3.619z"/><path d="m150.386 112.436h3.619v3.619h-3.619z"/><path d="m150.386 116.055h3.619v3.619h-3.619z"/><path d="m150.386 123.293h3.619v3.619h-3.619z"/><path d="m150.386 134.15h3.619v3.619h-3.619z"/><path d="m150.386 141.388h3.619v3.619h-3.619z"/><path d="m150.386 159.483h3.619v3.619h-3.619z"/><path d="m150.386 163.102h3.619v3.619h-3.619z"/><path d="m150.386 184.815h3.619v3.619h-3.619z"/><path d="m154.005 83.485h3.619v3.619h-3.619z"/><path d="m154.005 90.722h3.619v3.619h-3.619z"/><path d="m154.005 94.341h3.619v3.619h-3.619z"/><path d="m154.005 97.96h3.619v3.619h-3.619z"/><path d="m154.005 101.579h3.619v3.619h-3.619z"/><path d="m154.005 108.817h3.619v3.619h-3.619z"/><path d="m154.005 116.055h3.619v3.619h-3.619z"/><path d="m154.005 130.531h3.619v3.619h-3.619z"/><path d="m154.005 134.15h3.619v3.619h-3.619z"/><path d="m154.005 137.769h3.619v3.619h-3.619z"/><path d="m154.005 141.388h3.619v3.619h-3.619z"/><path d="m154.005 152.245h3.619v3.619h-3.619z"/><path d="m154.005 163.102h3.619v3.619h-3.619z"/><path d="m154.005 181.196h3.619v3.619h-3.619z"/><path d="m154.005 184.815h3.619v3.619h-3.619z"/><path d="m157.624 83.485h3.619v3.619h-3.619z"/><path d="m157.624 87.104h3.619v3.619h-3.619z"/><path d="m157.624 90.722h3.619v3.619h-3.619z"/><path d="m157.624 101.579h3.619v3.619h-3.619z"/><path d="m157.624 105.198h3.619v3.619h-3.619z"/><path d="m157.624 116.055h3.619v3.619h-3.619z"/><path d="m157.624 126.912h3.619v3.619h-3.619z"/><path d="m157.624 137.769h3.619v3.619h-3.619z"/><path d="m157.624 141.388h3.619v3.619h-3.619z"/><path d="m157.624 145.007h3.619v3.619h-3.619z"/><path d="m157.624 148.626h3.619v3.619h-3.619z"/><path d="m157.624 155.864h3.619v3.619h-3.619z"/><path d="m157.624 159.483h3.619v3.619h-3.619z"/><path d="m157.624 163.102h3.619v3.619h-3.619z"/><path d="m157.624 166.72h3.619v3.619h-3.619z"/><path d="m157.624 170.339h3.619v3.619h-3.619z"/><path d="m157.624 173.958h3.619v3.619h-3.619z"/><path d="m157.624 181.196h3.619v3.619h-3.619z"/><path d="m157.624 184.815h3.619v3.619h-3.619z"/><path d="m161.243 112.436h3.619v3.619h-3.619z"/><path d="m161.243 116.055h3.619v3.619h-3.619z"/><path d="m161.243 119.674h3.619v3.619h-3.619z"/><path d="m161.243 134.15h3.619v3.619h-3.619z"/><path d="m161.243 141.388h3.619v3.619h-3.619z"/><path d="m161.243 148.626h3.619v3.619h-3.619z"/><path d="m161.243 152.245h3.619v3.619h-3.619z"/><path d="m161.243 155.864h3.619v3.619h-3.619z"/><path d="m161.243 170.339h3.619v3.619h-3.619z"/><path d="m161.243 173.958h3.619v3.619h-3.619z"/><path d="m161.243 177.577h3.619v3.619h-3.619z"/><path d="m161.243 181.196h3.619v3.619h-3.619z"/><path d="m161.243 184.815h3.619v3.619h-3.619z"/><path d="m164.862 83.485h3.619v3.619h-3.619z"/><path d="m164.862 87.104h3.619v3.619h-3.619z"/><path d="m164.862 90.722h3.619v3.619h-3.619z"/><path d="m164.862 94.341h3.619v3.619h-3.619z"/><path d="m164.862 97.96h3.619v3.619h-3.619z"/><path d="m164.862 101.579h3.619v3.619h-3.619z"/><path d="m164.862 105.198h3.619v3.619h-3.619z"/><path d="m164.862 116.055h3.619v3.619h-3.619z"/><path d="m164.862 119.674h3.619v3.619h-3.619z"/><path d="m164.862 130.531h3.619v3.619h-3.619z"/><path d="m164.862 134.15h3.619v3.619h-3.619z"/><path d="m164.862 137.769h3.619v3.619h-3.619z"/><path d="m164.862 155.864h3.619v3.619h-3.619z"/><path d="m164.862 163.102h3.619v3.619h-3.619z"/><path d="m164.862 170.339h3.619v3.619h-3.619z"/><path d="m164.862 184.815h3.619v3.619h-3.619z"/><path d="m168.481 83.485h3.619v3.619h-3.619z"/><path d="m168.481 105.198h3.619v3.619h-3.619z"/><path d="m168.481 123.293h3.619v3.619h-3.619z"/><path d="m168.481 134.15h3.619v3.619h-3.619z"/><path d="m168.481 137.769h3.619v3.619h-3.619z"/><path d="m168.481 141.388h3.619v3.619h-3.619z"/><path d="m168.481 145.007h3.619v3.619h-3.619z"/><path d="m168.481 148.626h3.619v3.619h-3.619z"/><path d="m168.481 155.864h3.619v3.619h-3.619z"/><path d="m168.481 170.339h3.619v3.619h-3.619z"/><path d="m168.481 173.958h3.619v3.619h-3.619z"/><path d="m168.481 177.577h3.619v3.619h-3.619z"/><path d="m172.1 83.485h3.619v3.619h-3.619z"/><path d="m172.1 90.722h3.619v3.619h-3.619z"/><path d="m172.1 94.341h3.619v3.619h-3.619z"/><path d="m172.1 97.96h3.619v3.619h-3.619z"/><path d="m172.1 105.198h3.619v3.619h-3.619z"/><path d="m172.1 112.436h3.619v3.619h-3.619z"/><path d="m172.1 116.055h3.619v3.619h-3.619z"/><path d="m172.1 119.674h3.619v3.619h-3.619z"/><path d="m172.1 123.293h3.619v3.619h-3.619z"/><path d="m172.1 141.388h3.619v3.619h-3.619z"/><path d="m172.1 148.626h3.619v3.619h-3.619z"/><path d="m172.1 155.864h3.619v3.619h-3.619z"/><path d="m172.1 159.483h3.619v3.619h-3.619z"/><path d="m172.1 163.102h3.619v3.619h-3.619z"/><path d="m172.1 166.72h3.619v3.619h-3.619z"/><path d="m172.1 170.339h3.619v3.619h-3.619z"/><path d="m172.1 173.958h3.619v3.619h-3.619z"/><path d="m172.1 181.196h3.619v3.619h-3.619z"/><path d="m175.719 83.485h3.619v3.619h-3.619z"/><path d="m175.719 90.722h3.619v3.619h-3.619z"/><path d="m175.719 94.341h3.619v3.619h-3.619z"/><path d="m175.719 97.96h3.619v3.619h-3.619z"/><path d="m175.719 105.198h3.619v3.619h-3.619z"/><path d="m175.719 112.436h3.619v3.619h-3.619z"/><path d="m175.719 126.912h3.619v3.619h-3.619z"/><path d="m175.719 141.388h3.619v3.619h-3.619z"/><path d="m175.719 145.007h3.619v3.619h-3.619z"/><path d="m175.719 155.864h3.619v3.619h-3.619z"/><path d="m175.719 159.483h3.619v3.619h-3.619z"/><path d="m175.719 163.102h3.619v3.619h-3.619z"/><path d="m175.719 166.72h3.619v3.619h-3.619z"/><path d="m175.719 173.958h3.619v3.619h-3.619z"/><path d="m175.719 181.196h3.619v3.619h-3.619z"/><path d="m179.338 83.485h3.619v3.619h-3.619z"/><path d="m179.338 90.722h3.619v3.619h-3.619z"/><path d="m179.338 94.341h3.619v3.619h-3.619z"/><path d="m179.338 97.96h3.619v3.619h-3.619z"/><path d="m179.338 105.198h3.619v3.619h-3.619z"/><path d="m179.338 112.436h3.619v3.619h-3.619z"/><path d="m179.338 119.674h3.619v3.619h-3.619z"/><path d="m179.338 126.912h3.619v3.619h-3.619z"/><path d="m179.338 130.531h3.619v3.619h-3.619z"/><path d="m179.338 134.15h3.619v3.619h-3.619z"/><path d="m179.338 145.007h3.619v3.619h-3.619z"/><path d="m179.338 148.626h3.619v3.619h-3.619z"/><path d="m179.338 152.245h3.619v3.619h-3.619z"/><path d="m179.338 155.864h3.619v3.619h-3.619z"/><path d="m179.338 159.483h3.619v3.619h-3.619z"/><path d="m179.338 170.339h3.619v3.619h-3.619z"/><path d="m179.338 177.577h3.619v3.619h-3.619z"/><path d="m182.957 83.485h3.619v3.619h-3.619z"/><path d="m182.957 105.198h3.619v3.619h-3.619z"/><path d="m182.957 119.674h3.619v3.619h-3.619z"/><path d="m182.957 130.531h3.619v3.619h-3.619z"/><path d="m182.957 134.15h3.619v3.619h-3.619z"/><path d="m182.957 137.769h3.619v3.619h-3.619z"/><path d="m182.957 141.388h3.619v3.619h-3.619z"/><path d="m182.957 145.007h3.619v3.619h-3.619z"/><path d="m182.957 159.483h3.619v3.619h-3.619z"/><path d="m182.957 163.102h3.619v3.619h-3.619z"/><path d="m182.957 170.339h3.619v3.619h-3.619z"/><path d="m182.957 181.196h3.619v3.619h-3.619z"/><path d="m182.957 184.815h3.619v3.619h-3.619z"/><path d="m186.576 83.485h3.619v3.619h-3.619z"/><path d="m186.576 87.104h3.619v3.619h-3.619z"/><path d="m186.576 90.722h3.619v3.619h-3.619z"/><path d="m186.576 94.341h3.619v3.619h-3.619z"/><path d="m186.576 97.96h3.619v3.619h-3.619z"/><path d="m186.576 101.579h3.619v3.619h-3.619z"/><path d="m186.576 105.198h3.619v3.619h-3.619z"/><path d="m186.576 112.436h3.619v3.619h-3.619z"/><path d="m186.576 116.055h3.619v3.619h-3.619z"/><path d="m186.576 123.293h3.619v3.619h-3.619z"/><path d="m186.576 130.531h3.619v3.619h-3.619z"/><path d="m186.576 134.15h3.619v3.619h-3.619z"/><path d="m186.576 159.483h3.619v3.619h-3.619z"/><path d="m186.576 166.72h3.619v3.619h-3.619z"/><path d="m186.576 170.339h3.619v3.619h-3.619z"/><path d="m186.576 173.958h3.619v3.619h-3.619z"/><path d="m186.576 177.577h3.619v3.619h-3.619z"/><path d="m118.084 208.89h1.335l.364 1.812c.119.143.328.265.628.368.299.102.644.153 1.034.153.6 0 1.044-.128 1.331-.385.288-.257.432-.621.432-1.092 0-.319-.091-.6-.275-.842-.183-.243-.44-.463-.77-.66-.331-.198-.786-.432-1.367-.703-.775-.362-1.433-.814-1.973-1.356-.54-.543-.81-1.256-.81-2.141 0-.542.141-1.037.424-1.484.284-.448.711-.805 1.281-1.071.571-.266 1.271-.4 2.099-.4.494 0 .938.037 1.331.111.392.074.795.168 1.209.282.281.076.462.119.543.128l-.093 2.569h-1.299l-.35-1.741c-.071-.09-.227-.173-.467-.25-.24-.076-.508-.114-.803-.114-.542 0-.942.122-1.199.364-.257.243-.385.571-.385.985 0 .338.104.634.314.889.209.254.477.479.803.674.325.195.8.447 1.423.756.533.267.993.532 1.381.796s.72.601.996 1.01.414.887.414 1.434c0 .538-.134 1.054-.4 1.549s-.707.905-1.32 1.231c-.614.326-1.411.489-2.391.489-.542 0-1.041-.045-1.495-.136-.454-.09-.927-.207-1.417-.349-.328-.1-.544-.155-.649-.165z" fill="#08aec7" fill-rule="nonzero"/><path d="m126.42 206.734c0-1.156.234-2.158.703-3.008.468-.849 1.112-1.497 1.93-1.944.818-.448 1.744-.671 2.776-.671.423 0 .837.024 1.242.071.404.048.859.114 1.363.2.395.062.644.098.749.107l-.171 3.183h-1.527l-.5-2.155c-.081-.11-.231-.199-.449-.268-.219-.069-.514-.103-.885-.103-.505 0-.944.164-1.317.492-.374.328-.663.82-.867 1.474-.205.654-.307 1.457-.307 2.408 0 .895.094 1.695.282 2.402.188.706.477 1.264.867 1.673s.875.614 1.456.614c.371 0 .66-.044.867-.132s.37-.201.489-.339l.685-1.577 1.384.128-.271 2.398c-.152.014-.296.038-.432.071-.135.034-.31.081-.524.143-.367.11-.71.195-1.031.257-.322.062-.72.093-1.196.093-1.156 0-2.131-.221-2.926-.664-.794-.442-1.391-1.075-1.791-1.898s-.599-1.808-.599-2.955z" fill="#08aec7" fill-rule="nonzero"/><path d="m136.225 210.945 3.297-9.77h2.519l3.319 9.777.828.178v.957h-4.518v-.957l1.028-.185-.514-1.763h-3.59l-.499 1.791 1.135.157v.957h-3.847l-.014-.957zm5.638-2.862-1.292-4.417-.221-1.007-.221 1.007-1.228 4.417z" fill="#08aec7" fill-rule="nonzero"/><path d="m147.643 210.952v-8.521l-1.156-.2v-1.006h3.561l4.154 6.301.778 1.656v-6.758l-1.256-.193v-1.006h3.753v1.006l-1.127.2v9.656h-1.984l-4.375-6.687-.97-1.956v7.508l1.498.178v.957h-4.032v-.957z" fill="#08aec7" fill-rule="nonzero"/><path d="m137.72 22.429c62.659 0 113.531 50.871 113.531 113.53 0 62.66-50.872 113.531-113.531 113.531s-113.531-50.871-113.531-113.531c0-62.659 50.872-113.53 113.531-113.53zm0 26.713c47.916 0 86.818 38.901 86.818 86.817s-38.902 86.818-86.818 86.818-86.817-38.902-86.817-86.818 38.901-86.817 86.817-86.817z" fill="#08aec7"/><g fill="#fff"><path d="m.114-.078v-.583l-.072-.013v-.069h.318v.069l-.082.013v.241h.281v-.24l-.076-.014v-.069h.315v.069l-.074.013v.583l.074.013v.065h-.314v-.065l.075-.013v-.26h-.281v.26l.082.013v.065h-.32v-.065l.074-.013z" fill-rule="nonzero" transform="matrix(12.75994270777 17.76796718123 -17.76796718123 12.75994270777 42.83500382425 192.69794988575)"/><path d="m.103-.075v-.375l-.066-.02v-.075l.192-.024h.003l.03.021v.473l.063.01v.065h-.287v-.065l.065-.01zm-.024-.652c0-.017.004-.033.011-.048s.018-.026.032-.035c.014-.008.031-.013.051-.013.019 0 .035.004.048.011.013.008.023.018.03.03.007.013.011.026.011.041 0 .028-.009.051-.026.069s-.041.026-.072.026h-.001c-.016 0-.031-.003-.043-.01-.013-.007-.023-.017-.03-.029-.007-.013-.011-.026-.011-.042z" fill-rule="nonzero" transform="matrix(15.1187047785 15.80953994302 -15.80953994302 15.1187047785 55.3650134425 209.22153020825)"/><path d="m.033-.277c0-.061.011-.113.034-.157.022-.044.054-.077.095-.101.041-.023.089-.035.143-.035.068 0 .121.018.158.052.036.035.055.085.057.15 0 .046-.002.08-.007.103h-.316c.004.06.019.105.044.134.026.029.06.043.102.043.025 0 .05-.004.077-.013.026-.008.048-.018.064-.028l.029.06c-.012.012-.029.024-.051.037-.022.012-.048.022-.077.031-.028.008-.057.012-.086.012-.061 0-.111-.012-.151-.036-.039-.024-.068-.058-.087-.101s-.028-.093-.028-.151zm.331-.055.001-.041c0-.04-.006-.072-.018-.094-.012-.023-.031-.034-.059-.034-.019 0-.035.005-.048.014-.013.01-.023.027-.031.052s-.012.059-.013.103z" fill-rule="nonzero" transform="matrix(16.68191594002 14.15029742175 -14.15029742175 16.68191594002 61.8901829515 216.097866545)"/><path d="m.107-.075v-.375l-.059-.02v-.077l.163-.022h.003l.029.021v.028l-.003.078h.003c.004-.015.015-.032.031-.053.016-.02.036-.037.061-.053.026-.015.053-.022.082-.022.009 0 .016 0 .023.002.006.001.012.003.016.006v.166c-.012-.008-.023-.014-.035-.017-.012-.004-.027-.005-.044-.005-.024 0-.046.002-.066.007-.02.006-.035.012-.046.02v.316l.115.01v.065h-.338v-.065z" fill-rule="nonzero" transform="matrix(18.2834958954 12.00960747525 -12.00960747525 18.2834958954 72.774057532 225.1130986625)"/><path d="m.352-.363c0-.024-.003-.044-.008-.058s-.015-.025-.03-.032c-.014-.007-.034-.011-.061-.011-.033 0-.063.004-.09.011s-.054.017-.081.029l-.032-.066c.011-.009.028-.02.053-.032s.054-.023.088-.032c.033-.01.067-.014.102-.014.052 0 .093.006.123.02.03.013.051.035.063.064.013.029.02.069.02.119v.299h.053v.062c-.017.004-.038.007-.063.011-.025.003-.047.005-.066.005-.017 0-.03-.001-.039-.004-.01-.004-.016-.009-.02-.017s-.006-.02-.006-.035v-.015c-.016.018-.038.035-.065.049s-.059.021-.094.021c-.032 0-.06-.006-.086-.019s-.046-.032-.062-.057c-.015-.025-.023-.055-.023-.091 0-.061.029-.107.086-.138.058-.031.137-.047.238-.048zm0 .087c-.054 0-.094.01-.118.029s-.036.044-.036.073c0 .03.007.053.021.069.013.016.032.024.055.024.012 0 .025-.003.04-.009s.028-.013.038-.022z" fill-rule="nonzero" transform="matrix(20.20311683925 8.38754083575 -8.38754083575 20.20311683925 89.6755907425 235.3278068075)"/><path d="m.428-.068c-.011.013-.025.026-.043.038-.017.012-.037.022-.059.03-.022.007-.043.011-.065.011-.043 0-.077-.007-.104-.021-.026-.014-.045-.036-.058-.067-.012-.031-.018-.072-.018-.124v-.276l-.048-.015v-.062l.182-.014h.001l.023.014v.357c0 .03.002.053.007.07s.012.03.024.037c.011.007.026.011.045.011.034 0 .066-.012.095-.035v-.363l-.062-.016v-.061l.192-.014h.002l.026.014v.485h.053v.063c-.021.005-.041.009-.06.012-.019.004-.04.005-.063.005-.025 0-.042-.005-.053-.015-.012-.01-.017-.026-.017-.046z" fill-rule="nonzero" transform="matrix(21.19221796965 5.42275307242 -5.42275307242 21.19221796965 103.440522319 240.9373565255)"/><path d="m.146-.162.024.076c.005.008.016.016.034.022.017.007.035.01.054.01.028 0 .049-.006.062-.018.014-.011.02-.027.02-.046 0-.014-.005-.026-.015-.037s-.024-.021-.041-.03c-.016-.009-.041-.021-.073-.036l-.025-.011c-.046-.021-.08-.044-.102-.072-.022-.027-.033-.062-.033-.105 0-.03.009-.058.027-.082s.044-.043.077-.057c.033-.013.073-.02.118-.02.031 0 .057.002.08.006.022.003.046.009.073.016.014.004.025.007.034.008v.133h-.088l-.025-.072c-.004-.007-.012-.013-.024-.019-.013-.005-.028-.008-.045-.008-.026 0-.046.006-.06.017s-.021.025-.021.043c0 .015.004.028.013.038.009.011.02.02.034.027.013.008.033.017.057.027l.023.01c.036.016.065.031.089.046.023.015.042.033.058.056.015.023.023.051.023.083s-.008.06-.025.086c-.016.025-.042.045-.076.06-.035.015-.077.022-.127.022-.036 0-.068-.003-.096-.009-.029-.006-.059-.014-.091-.023-.007-.003-.016-.005-.027-.008v-.133h.094z" fill-rule="nonzero" transform="matrix(21.74084359665 2.41909338968 -2.41909338968 21.74084359665 119.511063739 244.79999524175)"/><path d="m.31.011c-.011 0-.023-.001-.035-.003s-.023-.004-.031-.006l.003.081v.084l.087.013v.062h-.306v-.062l.063-.013v-.617l-.06-.02v-.077l.174-.022h.002l.026.021v.052c.017-.02.038-.038.066-.052.027-.015.057-.022.09-.022.041 0 .078.009.111.028.032.02.058.05.077.091.019.04.029.092.029.155 0 .056-.012.107-.035.154-.023.046-.057.084-.101.111-.045.028-.098.042-.16.042zm-.063-.089c.004.007.013.012.025.016.012.005.026.007.041.007.038 0 .068-.018.091-.054.023-.037.034-.095.034-.176 0-.065-.01-.114-.03-.146-.019-.032-.046-.048-.079-.048-.016 0-.032.004-.047.011-.014.007-.026.015-.035.025v.365z" fill-rule="nonzero" transform="matrix(21.86964374385 -.48550305486 .48550305486 21.86964374385 133.271297029 246.2633364608)"/><path d="m.107-.075v-.375l-.059-.02v-.077l.163-.022h.003l.029.021v.028l-.003.078h.003c.004-.015.015-.032.031-.053.016-.02.036-.037.061-.053.026-.015.053-.022.082-.022.009 0 .016 0 .023.002.006.001.012.003.016.006v.166c-.012-.008-.023-.014-.035-.017-.012-.004-.027-.005-.044-.005-.024 0-.046.002-.066.007-.02.006-.035.012-.046.02v.316l.115.01v.065h-.338v-.065z" fill-rule="nonzero" transform="matrix(21.61029344745 -3.3929913777 3.3929913777 21.61029344745 149.5189455895 245.648348573)"/><path d="m.311-.57c.055 0 .102.011.142.034s.071.056.092.099.031.095.031.154c0 .065-.013.119-.038.163-.025.045-.059.078-.101.099-.043.021-.09.032-.141.032-.055 0-.103-.011-.142-.034-.04-.023-.071-.056-.092-.099s-.031-.095-.031-.154c0-.063.013-.117.038-.161.026-.044.06-.078.102-.1.043-.022.089-.033.14-.033zm.093.299c0-.076-.008-.134-.024-.172s-.041-.057-.077-.057c-.034 0-.059.017-.076.051-.017.035-.025.088-.025.161 0 .076.008.133.025.172.016.038.042.057.078.057.034 0 .059-.017.075-.051s.024-.088.024-.161z" fill-rule="nonzero" transform="matrix(21.01557714278 -6.07143506378 6.07143506378 21.01557714278 161.93802004375 243.66773332625)"/><path d="m0-.738v-.058l.193-.024h.003l.032.02v.291c.017-.017.038-.032.063-.044.025-.011.052-.017.081-.017.041 0 .078.009.11.028.033.019.058.049.077.09s.029.093.029.156c0 .058-.012.11-.036.157-.024.046-.059.083-.104.11-.045.027-.098.04-.158.04-.039 0-.074-.002-.105-.007-.031-.004-.056-.01-.075-.016-.02-.006-.032-.011-.038-.015v-.699l-.072-.012zm.228.663c.003.007.011.013.023.018.012.004.027.006.044.006.025 0 .046-.008.065-.026.018-.017.033-.043.043-.078.011-.034.016-.077.016-.128 0-.065-.01-.113-.029-.144-.019-.032-.046-.048-.079-.048-.018 0-.034.004-.048.012-.015.007-.027.016-.035.026z" fill-rule="nonzero" transform="matrix(19.95076655085 -8.97123212783 8.97123212783 19.95076655085 176.965088734 239.13033326825)"/><path d="m.103-.075v-.375l-.066-.02v-.075l.192-.024h.003l.03.021v.473l.063.01v.065h-.287v-.065l.065-.01zm-.024-.652c0-.017.004-.033.011-.048s.018-.026.032-.035c.014-.008.031-.013.051-.013.019 0 .035.004.048.011.013.008.023.018.03.03.007.013.011.026.011.041 0 .028-.009.051-.026.069s-.041.026-.072.026h-.001c-.016 0-.031-.003-.043-.01-.013-.007-.023-.017-.03-.029-.007-.013-.011-.026-.011-.042z" fill-rule="nonzero" transform="matrix(18.73504016145 -11.29225978043 11.29225978043 18.73504016145 191.107672219 232.42568143025)"/><path d="m.033-.277c0-.061.011-.113.034-.157.022-.044.054-.077.095-.101.041-.023.089-.035.143-.035.068 0 .121.018.158.052.036.035.055.085.057.15 0 .046-.002.08-.007.103h-.316c.004.06.019.105.044.134.026.029.06.043.102.043.025 0 .05-.004.077-.013.026-.008.048-.018.064-.028l.029.06c-.012.012-.029.024-.051.037-.022.012-.048.022-.077.031-.028.008-.057.012-.086.012-.061 0-.111-.012-.151-.036-.039-.024-.068-.058-.087-.101s-.028-.093-.028-.151zm.331-.055.001-.041c0-.04-.006-.072-.018-.094-.012-.023-.031-.034-.059-.034-.019 0-.035.005-.048.014-.013.01-.023.027-.031.052s-.012.059-.013.103z" fill-rule="nonzero" transform="matrix(17.45248557067 -13.18814632215 13.18814632215 17.45248557067 199.24413571975 227.550910232)"/><path d="m.107-.075v-.375l-.059-.02v-.077l.163-.022h.003l.029.021v.028l-.003.078h.003c.004-.015.015-.032.031-.053.016-.02.036-.037.061-.053.026-.015.053-.022.082-.022.009 0 .016 0 .023.002.006.001.012.003.016.006v.166c-.012-.008-.023-.014-.035-.017-.012-.004-.027-.005-.044-.005-.024 0-.046.002-.066.007-.02.006-.035.012-.046.02v.316l.115.01v.065h-.338v-.065z" fill-rule="nonzero" transform="matrix(15.71355233333 -15.21843301747 15.21843301747 15.71355233333 210.4364275045 218.8887078365)"/><path d="m.033-.277c0-.061.011-.113.034-.157.022-.044.054-.077.095-.101.041-.023.089-.035.143-.035.068 0 .121.018.158.052.036.035.055.085.057.15 0 .046-.002.08-.007.103h-.316c.004.06.019.105.044.134.026.029.06.043.102.043.025 0 .05-.004.077-.013.026-.008.048-.018.064-.028l.029.06c-.012.012-.029.024-.051.037-.022.012-.048.022-.077.031-.028.008-.057.012-.086.012-.061 0-.111-.012-.151-.036-.039-.024-.068-.058-.087-.101s-.028-.093-.028-.151zm.331-.055.001-.041c0-.04-.006-.072-.018-.094-.012-.023-.031-.034-.059-.034-.019 0-.035.005-.048.014-.013.01-.023.027-.031.052s-.012.059-.013.103z" fill-rule="nonzero" transform="matrix(13.82416267402 -16.953144375 16.953144375 13.82416267402 219.31845662875 210.2103115025)"/><path d="m.107-.074v-.376l-.06-.02v-.077l.177-.022h.002l.027.021v.036l-.001.022c.023-.021.053-.04.089-.055s.072-.022.11-.022c.04 0 .072.007.095.021.023.015.04.038.05.07.011.032.016.075.016.13v.271l.058.009v.066h-.271v-.065l.051-.01v-.271c0-.032-.002-.058-.006-.076s-.012-.031-.023-.039c-.011-.009-.027-.013-.048-.013-.019 0-.038.004-.056.012-.019.008-.035.017-.048.028v.359l.056.01v.065h-.274v-.065z" fill-rule="nonzero" transform="matrix(11.16485963482 -18.81123087352 18.81123087352 11.16485963482 228.521691337 198.847826831)"/><path d="m.114-.078v-.583l-.073-.013v-.069h.152c.02 0 .049-.001.086-.003.033-.002.062-.004.088-.004.123 0 .215.031.276.092.062.061.092.148.092.261 0 .078-.015.148-.045.209s-.073.109-.129.144c-.056.034-.121.052-.195.052-.016 0-.047-.002-.095-.005-.008 0-.02-.001-.036-.002s-.029-.001-.038-.001h-.159v-.065l.076-.013zm.163.004c.011.004.023.007.037.008s.029.002.047.002c.061-.001.109-.027.143-.077.034-.051.051-.128.051-.231 0-.098-.017-.174-.051-.228s-.087-.081-.16-.081c-.02 0-.036.002-.047.004-.012.002-.018.004-.02.004z" fill-rule="nonzero" transform="matrix(21.2006617293 -5.38969990965 5.38969990965 21.2006617293 106.532899597 47.7382878515)"/><path d="m.033-.277c0-.061.011-.113.034-.157.022-.044.054-.077.095-.101.041-.023.089-.035.143-.035.068 0 .121.018.158.052.036.035.055.085.057.15 0 .046-.002.08-.007.103h-.316c.004.06.019.105.044.134.026.029.06.043.102.043.025 0 .05-.004.077-.013.026-.008.048-.018.064-.028l.029.06c-.012.012-.029.024-.051.037-.022.012-.048.022-.077.031-.028.008-.057.012-.086.012-.061 0-.111-.012-.151-.036-.039-.024-.068-.058-.087-.101s-.028-.093-.028-.151zm.331-.055.001-.041c0-.04-.006-.072-.018-.094-.012-.023-.031-.034-.059-.034-.019 0-.035.005-.048.014-.013.01-.023.027-.031.052s-.012.059-.013.103z" fill-rule="nonzero" transform="matrix(21.77717801318 -2.06679392455 2.06679392455 21.77717801318 122.80642316725 43.785829439)"/><path d="m.107-.074v-.376l-.06-.02v-.077l.177-.022h.002l.026.021v.036.023c.014-.014.033-.027.057-.039s.049-.022.074-.029c.026-.007.048-.01.067-.01.036 0 .066.006.088.018s.039.031.05.057c.023-.021.051-.039.086-.053.035-.015.07-.022.105-.022.041 0 .073.007.096.023.024.015.041.039.052.071.01.032.015.074.015.126v.273l.061.009v.065h-.267v-.065l.046-.01v-.268c0-.033-.003-.059-.007-.078-.005-.018-.013-.032-.025-.04-.011-.009-.028-.013-.049-.013-.016 0-.033.004-.05.011s-.033.016-.047.026c.004.025.006.056.006.091v.271l.06.01v.065h-.273v-.065l.052-.01v-.271c0-.032-.002-.058-.006-.076s-.012-.031-.023-.039c-.011-.009-.027-.013-.048-.013-.018 0-.037.004-.056.011-.019.008-.035.017-.048.028v.36l.056.01v.065h-.271v-.065l.054-.009z" fill-rule="nonzero" transform="matrix(21.7835873955 1.99794447086 -1.99794447086 21.7835873955 134.87709590125 42.13527602562)"/><path d="m.311-.57c.055 0 .102.011.142.034s.071.056.092.099.031.095.031.154c0 .065-.013.119-.038.163-.025.045-.059.078-.101.099-.043.021-.09.032-.141.032-.055 0-.103-.011-.142-.034-.04-.023-.071-.056-.092-.099s-.031-.095-.031-.154c0-.063.013-.117.038-.161.026-.044.06-.078.102-.1.043-.022.089-.033.14-.033zm.093.299c0-.076-.008-.134-.024-.172s-.041-.057-.077-.057c-.034 0-.059.017-.076.051-.017.035-.025.088-.025.161 0 .076.008.133.025.172.016.038.042.057.078.057.034 0 .059-.017.075-.051s.024-.088.024-.161z" fill-rule="nonzero" transform="matrix(21.01557714278 6.07143506378 -6.07143506378 21.01557714278 157.2150630625 44.5954692875)"/></g></g></svg>