<svg viewBox="0 0 880 160" xmlns="http://www.w3.org/2000/svg" xml:space="preserve" style="fill-rule:evenodd;clip-rule:evenodd;stroke-miterlimit:2">
  <path style="fill:none" d="M0 0h879.658v159.198H0z" />
  <path d="m83.978 2.871 18.916 58.216h61.212l-49.522 35.979 18.916 58.216-49.522-35.979-49.521 35.979 18.915-58.216L3.851 61.087h61.212L83.978 2.871Zm177.646 0 18.916 58.216h61.212L292.23 97.066l18.916 58.216-49.522-35.979-49.521 35.979 18.915-58.216-49.521-35.979h61.212l18.915-58.216Zm177.646 0 18.916 58.216h61.212l-49.522 35.979 18.916 58.216-49.522-35.979-49.521 35.979 18.915-58.216-49.521-35.979h61.212L439.27 2.871Zm177.646 0 18.916 58.216h61.212l-49.522 35.979 18.916 58.216-49.522-35.979-49.522 35.979 18.916-58.216-49.521-35.979H598l18.916-58.216Z" style="fill:#ffc700" />
  <path d="m794.562 2.871 18.915 58.216h61.212l-49.521 35.979 18.915 58.216-49.521-35.979-49.522 35.979 18.916-58.216-49.522-35.979h61.212l18.916-58.216Z" style="fill:#e1e1e1" />
  <clipPath id="a">
    <path d="M710.311 2.871h54.582v168.502h-54.582z" />
  </clipPath>
  <g clip-path="url(#a)">
    <path d="m794.562 2.871 18.915 58.216h61.212l-49.521 35.979 18.915 58.216-49.521-35.979-49.522 35.979 18.916-58.216-49.522-35.979h61.212l18.916-58.216Z" style="fill:#ffc700" />
  </g>
</svg>