<svg viewBox="0 0 40 30" xmlns="http://www.w3.org/2000/svg" xml:space="preserve" style="fill-rule:evenodd;clip-rule:evenodd;stroke-linecap:round;stroke-linejoin:round;stroke-miterlimit:1.5">
  <path style="fill:none" d="M0 0h39.972v29.139H0z" />
  <path d="M19.48.371 1.075 5.303l4.184 15.618c1.361 5.077 6.579 8.089 11.655 6.729l.016-.004c5.08-1.361 8.094-6.583 6.733-11.662L19.48.371Z" style="fill:red" />
  <clipPath id="a">
    <path d="M19.48.371 1.075 5.303l4.184 15.618c1.361 5.077 6.579 8.089 11.655 6.729l.016-.004c5.08-1.361 8.094-6.583 6.733-11.662L19.48.371Z" />
  </clipPath>
  <g clip-path="url(#a)">
    <path d="m19.569 9.562 1.248 4.658-4.659 1.249 1.248 4.658-4.658 1.248-1.248-4.658-4.659 1.248-1.248-4.659 4.658-1.248-1.248-4.659 4.659-1.248 1.248 4.659 4.659-1.248Z" style="fill:#fff" />
  </g>
  <path d="M19.48.371 1.075 5.303l4.184 15.618c1.361 5.077 6.579 8.089 11.655 6.729l.016-.004c5.08-1.361 8.094-6.583 6.733-11.662L19.48.371Z" style="fill:none;stroke:#000;stroke-width:.25px" />
  <path d="M38.783 5.304 20.378.373l-4.185 15.618c-1.36 5.076 1.652 10.294 6.729 11.655l.016.004c5.079 1.361 10.301-1.654 11.662-6.733l4.183-15.613Z" style="fill:#fff" />
  <clipPath id="b">
    <path d="M38.783 5.304 20.378.373l-4.185 15.618c-1.36 5.076 1.652 10.294 6.729 11.655l.016.004c5.079 1.361 10.301-1.654 11.662-6.733l4.183-15.613Z" />
  </clipPath>
  <g clip-path="url(#b)">
    <path d="M29.937 1.51 18.885-1.451l-7.821 29.188 11.052 2.961L29.937 1.51Z" style="fill:#0082c7" />
  </g>
  <path d="M38.783 5.304 20.378.373l-4.185 15.618c-1.36 5.076 1.652 10.294 6.729 11.655l.016.004c5.079 1.361 10.301-1.654 11.662-6.733l4.183-15.613Z" style="fill:none;stroke:#000;stroke-width:.25px" />
</svg>