<svg viewBox="0 0 288 331" xmlns="http://www.w3.org/2000/svg" xml:space="preserve" style="fill-rule:evenodd;clip-rule:evenodd;stroke-miterlimit:10">
  <path d="M208.12 273.75H60.2L58.14 7.4l149.98.7v265.65Z" style="fill:#00435f;fill-rule:nonzero" />
  <path d="M207.88 7.51 157.9 41.79l-4.27 209.11 48.77 20.08 5.48-263.47Z" style="fill:#4d4d4d;fill-rule:nonzero" />
  <path d="M162.4 137.85c1.22-1.85 4.8-4.63 6.63-.31v21.31s.91 4.32-2.44 4.32-4.35-.31-4.65-4.32l.46-21Z" style="fill:#999;fill-rule:nonzero" />
  <path d="M164.15 142.49c1.83-1.24 17.69-.93 17.69-.93s6.4 1.85 3.66 3.4c-2.74 1.55-20.13 2.78-21.04 1.54-.92-1.23-.31-4.01-.31-4.01Z" style="fill:#898989;fill-rule:nonzero;stroke:#4d4d4d;stroke-width:1px" />
  <ellipse cx="165.37" cy="153.61" rx="2.07" ry="2.33" style="fill:#898989" />
  <path d="M286.56 265.21h-74.1c.79-49.62 6.95-263.2 4.53-264.93L58.34.59l-1.83 2.47-4.27 262.15H.55v10.4l62.94-.37 3.62-263.6 140.42-1-5.18 264.78 84.21.2v-10.41Z" style="fill:#4d4d4d;fill-rule:nonzero" />
  <path d="m128.26 144.21-26.08-34.77-6.11.96 16.65 34.87 15.54-1.06Z" style="fill:#f9d4bb;fill-rule:nonzero" />
  <path d="M115.48 301.76c-29.01 1.22-41.8 26.27-28.01 27.95 13.79 1.68 120.83 1.02 126.05-1.22 5.22-2.24-26.42-30.38-32.01-30.38-5.59 0-66.03 3.65-66.03 3.65Z" style="fill:#e6e6e655;fill-rule:nonzero" />
  <path d="M144.6 290.15s2 19.1 0 20.57c-2 1.47-28.19 4.93-28.19 4.93l2.3-11.96 18.09-6.37 7.8-7.17ZM169.67 295.93s-2.65 13.81-.64 15.43c2.01 1.62 29.01 6.59 29.01 6.59l-.47-11.84-19.41-7.86-8.49-2.32Z" style="fill:#fff;fill-rule:nonzero" />
  <path d="m148.58 313.54-43.13 7.18s-5.48-13.56 13.29-17.68c11.41-2.5 10.06 11.27 10.06 11.27s19.56-4.73 20.75-2.8c1.19 1.94-.97 2.03-.97 2.03ZM164.53 314.87l43.56 3.74s4.39-13.96-14.65-16.57c-11.58-1.59-9.13 12.03-9.13 12.03s-19.87-3.17-20.9-1.14c-1.03 2.03 1.12 1.94 1.12 1.94Z" style="fill:#ff6a38;fill-rule:nonzero" />
  <path d="M189.1 193.01c-.4 14.8 1.54 98.92-6.75 105.71-3.97 3.25-7.57 2.94-7.57 2.94-2.66-.33-4.46-2.39-6.5-3.69-3.52-2.24-12.66-92.38-10.55-94.25 2.11-1.87-10.2 96.87-11.61 97.62-1.41.75-13.72-1.12-15.12-1.87-1.41-.75-8.09-110.71 5.98-135.02 0 0 1.06-.37 3.87-1.5 7.6-3.03 22.97-8.11 36.23-2.24 8.86 3.91 10.96 20.57 12.02 32.3ZM176.85 21.71c-8.2-3.57-40.49 2.14-28.24 30.38l15.1-6.66 8.52 11.72-2.84 21.31s-3.91 5.33-.36 12.43c3.55 7.1 20.6 16.34 27 3.02 9.19-19.14-3.64-28.33-6.48-30.11-2.84-1.77 11.81-31.44-12.7-42.09Z" style="fill-rule:nonzero" />
  <path d="M80.58 92.74c-.81-.26 2.59 4.42 2.46 7.31-.28 6.33-7.13 3.06-6.74 8.79.25 3.7 3.54 7.8 5.68 8.98 2.13 1.18 2 1.14 2 1.14s-4.96-5.71-3.4-8.93c2.01-4.15 5.82-1.7 6.94-5.98 1.2-4.64-.91-9.35-6.94-11.31Z" style="fill:#fff;fill-rule:nonzero" />
  <path d="M148.61 49.68s-2.66 27.43 4.26 29.03c6.92 1.6 20.42-.97 26.29-13.23 0 0 5.86.53 6.22-5.08.11-1.71-1.87-2.96-4.26-5.4a8.23 8.23 0 0 1-1.42-.18c-9.77-2-13.61-19.36-14.56-24.15-4.62 3.32-9.24 6.63-13.85 9.95l-2.68 9.06Z" style="fill:#f9d4bb;fill-rule:nonzero" />
  <ellipse cx="151.77" cy="53.04" rx="1.86" ry="4.26" />
  <ellipse cx="163.66" cy="53.28" rx="1.86" ry="4.26" />
  <path d="M151.17 57.37s-6.94-.19-7.19 1.96c-.62 5.15 5.77 4.53 5.77 4.53l1.42-6.49Z" style="fill:#f9d4bb;fill-rule:nonzero" />
  <path d="M171.52 93.55c7.1 1.42 20.25 7.46 21.67 9.24 1.42 1.78 23.8 33.39 13.5 46.89l-14.34-4.48s-5.38-14.7-9.64-16.48c-4.26-1.78 1.61 34.46 1.61 34.46l-45.83 1.07-4.9-14.98s2.31 11.17-4.24 14.02c-7.34 3.19-12.17-10.76-12.17-10.76l3.73-9.06s7.46-37.83 14.92-44.22c3.07-2.64 19.71-8.17 19.71-8.17l15.98 2.47Z" style="fill:#ffc467;fill-rule:nonzero" />
  <path d="m109.01 130.94 10.3 23.7 5.85-8.04-13.67-26.41-2.48 10.75Z" style="fill:#f9d4bb;fill-rule:nonzero" />
  <path d="M144.06 151.9c-3.2 1.13-4.74 6.92-4.89 8.84-.15 1.92 19.61 19.48 21.85 19.61 2.24.13 6.56-7.12 6.44-8.25-.14-1.13-21.97-20.7-23.4-20.2Z" style="fill:#00435f;fill-rule:nonzero" />
  <path d="m144.39 154.61-2.03 5.18 19.3 17.81 3.82-5.2-21.09-17.79Z" style="fill:#fff;fill-rule:nonzero" />
  <path d="m206.69 149.67-30.55 25.58s-2.92 4-7.81 6.04c-2.86 1.19-7.65.65-9.59 1.07-4.97 1.07-9.06-9.06-9.06-9.06s11.72-1.6 13.85-1.6c2.13 0-1.2-5.17-2.31-6.04-.29-.23-4.01-3.5-4.01-3.5 1.51-1.51 11.47 2.43 12.54 3.15 1.07.71 4.26 1.78 4.26 1.78L193.19 144l13.5 5.67ZM172.59 73.3s-4.97 15.63-1.07 20.25c3.91 4.62-15.99 9.15-15.99 9.15l-4.61-7.02 4.26-4.62s1.42-11.01.71-13.5" style="fill:#f9d4bb;fill-rule:nonzero" />
  <path d="m117.84 186.06 13.97-10.64-7.31-47.89-9.32 2 2.66 56.53Z" style="fill:#b3b3b3;fill-rule:nonzero" />
  <path d="m96.78 103.77 17.07 1.6 6.88 24.04-6.88 1-1.99-20.63-13.97-2.4-3.32 21.63-4.44-.6 6.65-24.64Z" style="fill:#b3b3b3;fill-rule:nonzero" />
  <path d="m79.27 124.87 35.91 4.66 2.66 56.53-46.55-5.32 7.98-55.87Z" style="fill:#fff;fill-rule:nonzero" />
  <path d="m87.25 127.03 6.65-24.11 19.95 3.18-2.43 23.89-6.43-.63 2.66-18.51-11.09-2.01-4.21 18.61-5.1-.42Z" style="fill:#fff;fill-rule:nonzero" />
  <path d="M96.77 112.23c1.75 2.26 4.67 5.49 9.48 8.96l.25-6.89c.45-4.03-3.06-6.75-3.06-6.75 2.11-2.32 6.22-6.54 5.38-7.39-.84-.84-7.18 4.01-7.18 4.01s8.65-8.23 6.75-8.86c-1.9-.63-8.02 4.43-8.02 4.43s.63-1.48 1.48-2.11c.85-.63 5.91-7.18 4.22-7.18-1.69 0-8.44 7.18-8.44 7.18-1.6 2.8-4.31 8.51-1.9 13.09.23.4.47.77 1.04 1.51Z" style="fill:#f9d4bb;fill-rule:nonzero" />
  <path d="M85.68 158.17c5.48-4.55 17.13-4.83 21.79 3.93 4.82 9.08-21.08 4.72-23.5 2.6-3.13-2.76 1.71-6.53 1.71-6.53Z" style="fill:#ffc467;fill-rule:nonzero" />
  <path d="M84.81 162.49c1.55.3 3.11-.41 4.69-.29 1.78.13 3.23 1.27 4.77 2.08 1.54.81 3.74 1.23 4.92.11.55-.52.82-1.33 1.6-1.56.53-.15 1.12.03 1.66.21 1.28.43 2.55.87 3.83 1.31.52.18 1.08.36 1.63.29.8-.1 1.4-.74 1.51-1.43.11-.69-.2-1.4-.66-1.99-1.42-1.79-4.06-2.49-6.5-2.96a89.22 89.22 0 0 0-12.63-1.51c-1.99-.1-5.82-.35-7.04 1.35-1.07 1.48.22 4.01 2.22 4.39Z" style="fill:#96c122;fill-rule:nonzero" />
  <path d="M86.86 154.47c5.22-2.75 23.99-3.57 21.84 3.55-1.94 6.45-21.25 3.01-23.23.66-2.35-2.79 1.39-4.21 1.39-4.21Z" style="fill:#642f16;fill-rule:nonzero" />
  <path d="M95.27 157.16c.97.38 2.5.93 3.32.48.8-.44 1.05-1.38 2.16-1.36.66.01 1.13.39 1.58.69 1.24.81 3.25 1.23 4.89.83 1.64-.4 2.55-1.7 1.64-2.65-1.83-1.91-9.79-2.07-12.86-2.07-3.1.01-8.85-.98-11.39.01-.94.37-1.12 3.07.64 3.56 1.86.52 3.31-1.3 4.63-1.38 2.15-.12 3.82 1.27 5.39 1.89Z" style="fill:#ff6a38;fill-rule:nonzero" />
  <path d="M86.7 145.81c5.48-4.55 17.13-4.83 21.79 3.93 4.82 9.08-21.08 4.72-23.5 2.6-3.13-2.75 1.71-6.53 1.71-6.53Z" style="fill:#ffc467;fill-rule:nonzero" />
  <path d="M92.76 145.78c-.91.33-1.83 1.3-2.1 2.31.58.26 1.31.09 1.76-.41.45-.5.58-1.3.32-1.92M95.2 147.77c.27.86 1.25 1.82 2.33 2.19.35-.48.24-1.16-.27-1.62-.51-.47-1.37-.7-2.09-.56M98.63 145.34c.27.86 1.25 1.82 2.33 2.2.35-.48.24-1.16-.27-1.62-.51-.47-1.37-.7-2.09-.56M152.52 67.23l1.63 5.79c.71.12 5.91.97 10.39-1.79 3.64-2.24 4.38-6.37 4.53-7.11-1.62.85-6 1.98-9.55 2.66-3.66.71-5.04.63-7 .45Z" style="fill:#fff;fill-rule:nonzero" />
</svg>