<?xml version="1.0" encoding="UTF-8" standalone="no"?><!DOCTYPE svg PUBLIC "-//W3C//DTD SVG 1.1//EN" "http://www.w3.org/Graphics/SVG/1.1/DTD/svg11.dtd"><svg width="100%" height="100%" viewBox="0 0 183 379" version="1.1" xmlns="http://www.w3.org/2000/svg" xmlns:xlink="http://www.w3.org/1999/xlink" xml:space="preserve" xmlns:serif="http://www.serif.com/" style="fill-rule:evenodd;clip-rule:evenodd;stroke-linejoin:round;stroke-miterlimit:2;"><g id="display"><path d="M78.548,275.593c0,0 5.949,87.704 0.96,90.957c-4.627,3.017 -35.615,0.554 -44.365,2.054c-2.967,0.508 -3.754,8.806 -0.75,9c19.182,1.236 96.349,0.286 115.84,-1.584c3.218,-0.309 4.256,-8.911 1.106,-9.633c-7.51,-1.723 -35.041,2.627 -39.597,-0.634c-2.436,-1.743 -2.252,-90.481 -2.252,-90.481" style="fill:#004360;"/><path d="M175.966,13.654c4.062,35.273 10.743,237.761 4.172,251.132c-3.638,7.394 -163.061,21.816 -169.524,4.531c-7.976,-21.304 -14.631,-262.877 -7.202,-263.097c7.429,-0.22 169.686,-17.488 172.554,7.434Z" style="fill:#00435f;fill-rule:nonzero;"/><path d="M167.995,19.307l5.14,237.346l-157.327,7.326l-3.961,-247.481l156.148,2.809Z" style="fill:#fff;fill-rule:nonzero;"/><g><circle cx="94.046" cy="138.221" r="27.213" style="fill:#cd3385;"/><path d="M81.276,120.13c-0.785,0.38 -3.165,2.35 -3.387,3.224c-0.602,2.362 -0.955,4.788 -1.052,7.219c-0.041,0.998 -0.038,2.002 0.115,2.984c0.387,2.498 1.703,4.696 2.991,6.82c0.332,0.545 0.677,1.106 1.189,1.466c0.837,0.588 1.947,0.524 2.951,0.338c0.169,-0.032 0.343,-0.068 0.488,-0.165c0.218,-0.146 0.341,-0.404 0.429,-0.658c0.628,-1.826 1.689,-4.623 0.973,-6.386c-0.724,-1.784 -1.596,-3.91 -2.321,-5.692c-0.846,-2.081 -0.792,-3.23 -1.728,-5.267c-0.505,-1.1 -1.537,-3.062 -0.648,-3.883Z" style="fill:#030303;fill-rule:nonzero;"/><path d="M108.45,143.774c1.855,-0.299 6.771,-4.83 5.842,-6.107c-0.929,-1.278 -7.113,-0.705 -7.805,-1.881c-1.197,-2.036 -3.175,-12.579 -8.564,-14.251c-1.509,-0.469 -16.216,-0.634 -16.485,2.667c-0.269,3.3 3.814,11.391 3.814,11.391c0,0 -0.749,-0.355 -3.424,-0.972c-4.288,-0.989 -3.636,8.956 -0.878,10.288c0.879,0.424 2.08,0.713 3.072,0.894l0.025,15.654l13.052,1.93l1.482,-8.235c4.311,0.461 8.507,-0.645 9.768,-1.977c1.19,-1.26 0.164,-5.852 0.164,-5.852c-0,0 -0.336,-3.504 -0.063,-3.549Z" style="fill:#f7dac6;fill-rule:nonzero;"/><path d="M99.621,132.759c0.933,-0.143 1.853,0.814 2.055,2.134c0.202,1.32 -0.391,2.508 -1.323,2.65c-0.932,0.143 -1.853,-0.813 -2.055,-2.134c-0.202,-1.32 0.391,-2.508 1.323,-2.65Z"/><g><path d="M111.572,146.878c-1.247,1.217 -3.724,1.334 -4.373,-0.43c-0.295,-1.661 0.461,-2.245 0.785,-2.527c1.409,-1.102 3.326,0.895 4.241,-2.097c1.282,1.2 0.88,3.968 -0.653,5.054Z" style="fill:#030303;fill-rule:nonzero;"/><path d="M106.67,147.193c-3.384,3.713 -8.157,-0.076 -6.494,-4.441c0.781,1.461 1.759,2.767 3.444,1.389c2.364,-1.414 4.704,0.599 3.05,3.052Z" style="fill:#030303;fill-rule:nonzero;"/></g><path d="M86.349,116.916c2.695,-0.504 7.738,-2.769 10.69,-1.735c0.879,0.183 8.443,0.142 8.314,0.733c-2.483,11.333 -16.134,7.185 -16.134,7.185c-0,-0 2.859,4.614 2.285,5.517c-0.574,0.903 -2.6,2.362 -2.6,2.362l1.908,7.282l-2.209,0.756l-5.159,-4.399l-4.534,-12.522c-0.003,-0 2.983,-4.344 7.439,-5.179Z" style="fill:#030303;fill-rule:nonzero;"/><g><path d="M82.992,154.496l-0.292,8.165c3.741,1.896 7.971,2.965 12.45,2.965c1.305,-0 2.59,-0.093 3.847,-0.268l0.186,-6.598l-16.191,-4.264Z" style="fill:#fff;fill-rule:nonzero;"/><path d="M95.15,165.973c-4.434,-0 -8.676,-1.01 -12.606,-3.003l-0.199,-0.1l0.315,-8.82l16.876,4.443l-0.202,7.166l-0.289,0.04c-1.292,0.183 -2.602,0.274 -3.895,0.274Zm-12.095,-3.522c3.777,1.877 7.846,2.828 12.095,2.828c1.164,0 2.343,-0.076 3.509,-0.226l0.169,-6.029l-15.505,-4.083l-0.268,7.51Z" style="fill-rule:nonzero;"/></g><g><path d="M103.122,157.621c-0.542,-0.038 -1.039,0.539 -1.431,1.083c-1.126,1.559 -2.131,3.251 -2.992,5.036c0.426,1.02 1.276,1.57 2.124,1.954c0.751,0.341 1.733,0.904 2.604,0.539c1.666,-0.696 1.472,-3.818 1.251,-5.288c-0.157,-1.058 -0.48,-3.249 -1.556,-3.324Z" style="fill:#030303;fill-rule:nonzero;"/><path d="M100.088,164.497c0.479,-0.609 0.461,-1.552 0.047,-2.188c-0.415,-0.637 -1.157,-0.974 -1.895,-0.993c-0.482,-0.013 -1.054,0.173 -1.215,0.662c-0.084,0.261 -0.03,0.543 0.036,0.805c0.251,0.996 0.731,2.022 1.624,2.419c0.894,0.395 2.199,-0.261 2.161,-1.297" style="fill:#030303;fill-rule:nonzero;"/><path d="M97.59,161.567c-0.495,-1.4 -1.59,-2.533 -2.921,-3.022c-0.168,-0.063 -0.362,-0.111 -0.52,-0.017c-0.173,0.104 -0.23,0.336 -0.265,0.542c-0.306,1.841 -0.146,3.716 0.015,5.564c0.09,1.032 0.307,2.255 1.21,2.628c0.667,0.276 1.463,-0.073 1.965,-0.642c0.5,-0.568 0.771,-1.314 1.03,-2.038c0.314,-0.882 -0.206,-2.147 -0.514,-3.015Z" style="fill:#030303;fill-rule:nonzero;"/></g></g></g></svg>