<svg viewBox="0 0 417 624" xmlns="http://www.w3.org/2000/svg" xml:space="preserve" style="fill-rule:evenodd;clip-rule:evenodd;stroke-miterlimit:10">
  <ellipse cx="319.84" cy="607.69" rx="53.32" ry="15.34" style="fill:#222; opacity:0.3;" />
  <ellipse cx="25.64" cy="610.86" rx="25.22" ry="12.1" style="fill:#222; opacity:0.3;" />
  <path d="m153.3 91.12 1.29 13.12s4.94-.54 5.45 4.56c.5 5.1-2.37 7.63-4.84 7.9-2.47.27-1.12 41.61-1.12 41.61l-34.7 1.33-15.27-69.03 49.19.51ZM21.51 284.17c5.19 16.73 43.12 17.67 38.5-3.22 1.11-10.24-2.82-18.53-11.56-19.75-3.76-5.21 4.31-7.12-3.11-11.21-18.52-11.09-22.76 21.83-23.83 34.18ZM316.08 189.9c10.92-1.12 25.79-11.71 32.83-19.36-14.27 2.68-136.38-17.68-70.12 15.21-.4-.2-22.76 24.57-23.45 26.21-1.37 3.26 6.46 14.01 9.39 12.17 5.87-4.45 23.41-23.24 29.44-27.67 1.18-.87 15.51-4.5 21.91-6.56Z" style="fill:#f7dac6;fill-rule:nonzero" />
  <path d="M127.48 151.96s-89.66 13.2-90.38 18.47c-.71 5.27-16.07 85.26-9.79 83.98 3.58-.73 20.76-5.12 23.62 3.19 2.86 8.31 5.7-50.43 7.85-51.17 2.15-.74 77.3-13.73 77.3-13.73l-8.6-40.74Z" style="fill:#fff;fill-rule:nonzero" />
  <path d="M127.48 151.96s-89.66 13.2-90.38 18.47c-.71 5.27-16.07 85.26-9.79 83.98 3.58-.73 20.76-5.12 23.62 3.19 2.86 8.31 5.7-50.43 7.85-51.17 2.15-.74 77.3-13.73 77.3-13.73l-8.6-40.74Z" style="fill:none;fill-rule:nonzero;stroke:#757678;stroke-width:2px" />
  <path d="m314.62 580.28 17.21 29.4 20.37-8.26-2.06-6.51 7.33-3.83 3.37 5.15s43.51-27.83 47.34-33.12c3.83-5.29 10.39-11.15 7.79-16.26-3.55-6.97-15.7-1.27-20.77 1.1-1.54.72-61.49 22.51-61.49 22.51l-19.09 9.82ZM46.89 493.24l-32.79-.16-4.11 22.57 6.34 1.6-.79 8.58-5.94.29s-.57 53.6 1.68 59.82c2.25 6.22 3.49 15.18 8.99 15.56 7.49.52 9.32-13.37 10.09-19.14.23-1.76 19.4-68.62 19.4-68.62l-2.87-20.5Z" style="fill:#030303;fill-rule:nonzero" />
  <path d="m345.05 567.16-93.31-203.04-54.54 65.18 85.39 165.97 62.46-28.11Z" style="fill:#2d2d2d;fill-rule:nonzero" />
  <path d="M54.04 236.23c-7.86-5.13-17.93-6.15-26.2-2.66" style="fill:none;fill-rule:nonzero;stroke:#757678;stroke-width:2px" />
  <path d="M188.33 407.73s-30.61 138.82-34.63 139.99c-4.02 1.17-111.49 9.39-113.87 7.13-2.37-2.26-2.81-63.21-2.81-63.21l83.15-6.9 4.45-89-.58-76.84 45.23 6.65 19.06 82.18Z" style="fill:#2d2d2d;fill-rule:nonzero" />
  <path d="M80.47 27.95c-2.15 1.62-8.17 9.01-8.32 11.79-.41 7.51-.02 15.07 1.14 22.49.48 3.05 1.09 6.09 2.14 8.97 2.67 7.33 7.97 13.2 13.14 18.85 1.33 1.45 2.71 2.95 4.48 3.73 2.89 1.28 6.21.42 9.14-.75.49-.2 1-.41 1.38-.79.57-.57.79-1.43.9-2.25.81-5.91 2.34-15.01-.88-19.92-3.26-4.97-7.18-10.88-10.44-15.85-3.81-5.8-4.34-9.31-8.39-14.91-2.2-3.02-6.5-8.34-4.29-11.36Z" style="fill:#030303;fill-rule:nonzero" />
  <path d="M131.72 22.23c17.32 1.84 29.63 32.58 34.47 38.02 2.8 3.15 21.18-2.29 24.76 1.02 3.58 3.31-8.6 19.97-14.03 21.99-.8.3 2.32 10.71 2.32 10.71s5.86 13.29 3.01 17.81c-4.34 6.89-27.37 16-46.01 10.22-13.2-4.09-24.82-.09-28.4-16.48-3.57-16.39 2-1.77 2-1.77s-9.59.96-15.51-.58c-9.15-2.38-17.08-32.1-3.51-31.68 8.47.26 10.95.89 10.95.89S84.56 50.33 83.4 40.17c-1.16-10.14 43.47-18.45 48.32-17.94Z" style="fill:#f7dac6;fill-rule:nonzero" />
  <path d="M143.599 55.264c2.74-.991 6.104 1.352 7.506 5.229 1.402 3.877.315 7.829-2.425 8.821-2.74.991-6.104-1.352-7.506-5.23-1.402-3.877-.315-7.829 2.425-8.82Z" />
  <path d="M98.18 281.56c-1.64-.84-3.56-1.66-5.21-.81-.94.49-1.6 1.44-2.19 2.38-3.88 6.21-6.41 13.41-7.3 20.84l36.5 2.31-47.11 11.97c2.45 5.85 4.89 11.71 7.34 17.56 6.74-3.12 14.37-3.36 21.1-6.51 4.41-2.06 8.26-5.27 11.99-8.51 3.57-3.1 7.72-5.8 11.1-9.1 8.39-8.19-5.2-16.92-10.63-20.72-5.01-3.49-10.22-6.64-15.59-9.41Z" style="fill:#030303;fill-rule:nonzero" />
  <path d="M92.3 341.07c-10.26 7.66-22.54 12.09-34.73 12.54 2.03 4.03 5 7.48 8.59 10 20.74-5.32 39.61-17.64 55.79-32.68 4.05-3.77 8.51-7.69 11.97-12.08 1.86-2.36 2.03-5.04.97-7.69-.98-2.44-3.02-4.87-5.56-5.49-3.67-.9-6.11 2.94-8.42 5.51-9.22 10.26-17.59 21.67-28.61 29.89Z" style="fill:#030303;fill-rule:nonzero" />
  <ellipse cx="302.01" cy="163.8" rx="64.76" ry="13.94" style="fill:#00435f" />
  <path style="fill:#00435f" d="M237.25 156.39h129.52v8.17H237.25z" />
  <ellipse cx="302.01" cy="157.79" rx="64.76" ry="13.94" style="fill:#fff;stroke:#00435f;stroke-width:1px" />
  <path d="M93.9 15.18c7.86-3.14 21.77-13.02 31.33-11.66 2.77.03 25.65-4.63 25.61-2.76-.73 35.81-44.55 31.42-44.55 31.42s11.42 12.26 10.22 15.34c-1.2 3.08-6.46 8.71-6.46 8.71l10.14 20.91-6.24 3.61-18.26-10.23-21.23-35.2c.01 0 6.45-14.94 19.44-20.14Z" style="fill:#030303;fill-rule:nonzero" />
  <path d="M325.66 138.17c-11.65-12.83-38.27-16.07-50.62 5.34-12.79 22.19 47.32 16.64 53.27 11.73 7.71-6.35-2.65-17.07-2.65-17.07Z" style="fill:#ffc467;fill-rule:nonzero" />
  <path d="M326.83 149.43c-3.61.42-7.04-1.73-10.68-1.77-4.1-.04-7.63 2.55-11.31 4.28-3.68 1.73-8.81 2.33-11.29-.78-1.16-1.45-1.61-3.59-3.36-4.34-1.19-.51-2.58-.17-3.84.18-3.01.84-6.01 1.67-9.02 2.51-1.23.34-2.53.69-3.78.4-1.82-.43-3.07-2.2-3.19-3.99-.12-1.79.72-3.54 1.89-4.94 3.59-4.28 9.77-5.5 15.45-6.17 9.68-1.15 19.45-1.53 29.19-1.14 4.57.18 13.38.36 15.85 4.98 2.17 4.03-1.28 10.24-5.91 10.78Z" style="fill:#96c122;fill-rule:nonzero" />
  <path d="M323.69 128.47c-11.42-8.16-54.2-14.34-50.67 4.35 3.2 16.93 48.05 12.31 53.02 6.72 5.92-6.65-2.35-11.07-2.35-11.07Z" style="fill:#642f16;fill-rule:nonzero" />
  <path d="M303.91 133.51c-2.29.76-5.9 1.84-7.69.5-1.75-1.31-2.15-3.76-4.68-3.95-1.51-.11-2.65.75-3.76 1.41-2.99 1.8-7.68 2.43-11.34 1.07s-5.51-4.9-3.24-7.14c4.56-4.5 22.81-3.18 29.83-2.5 7.1.69 20.43-.58 26.06 2.5 2.09 1.15 1.97 8.09-2.17 8.96-4.35.92-7.32-4.04-10.33-4.52-4.88-.77-8.95 2.43-12.68 3.67Z" style="fill:#ff6a38;fill-rule:nonzero" />
  <path d="M325.72 106.35c-11.65-12.83-38.27-16.07-50.62 5.34-12.79 22.19 47.32 16.64 53.27 11.73 7.7-6.36-2.65-17.07-2.65-17.07Z" style="fill:#ffc467;fill-rule:nonzero" />
  <path d="M311.87 104.97c2.03 1.04 3.94 3.73 4.36 6.35-1.38.54-3.02-.06-3.95-1.43-.93-1.38-1.08-3.44-.37-4.98M305.89 109.53c-.78 2.14-3.21 4.37-5.76 5.11-.7-1.3-.32-3.01.93-4.1 1.25-1.09 3.28-1.5 4.89-.98M298.51 102.56c-.78 2.14-3.21 4.37-5.76 5.11-.7-1.3-.32-3.01.93-4.1 1.25-1.09 3.28-1.5 4.89-.98" style="fill:#fff;fill-rule:nonzero" />
  <path d="M283.62 52.93c-5.37-3.76-12.05-2.88-17.64-.58-2.13.88-4.27 1.95-6.6 1.85-4.12-.18-7.68-4-9.99-8.09-2.31-4.09-3.88-8.7-6.6-12.47-2.72-3.77-7.21-6.59-10.98-5.03 4.3 1.84 6.71 7.31 7.61 12.39.9 5.08.79 10.34 2.36 15.27 2.7 8.51 10.3 14.65 18.03 15.89 6.38 1.03 12.64-.87 18.57-3.08 2.3-.86 4.93-1.74 7.17-.33 1.28.8 2.19 2.21 2.99 3.61 2.21 3.86 3.95 8.01 5.28 12.31.5-10.01-1.64-25.75-10.2-31.74Z" style="fill:none;fill-rule:nonzero;stroke:#b3b3b3;stroke-width:2px" />
  <path d="m164.71 138.86-57.96-8.51 5.52 29.29L166.61 171l-1.9-32.14Z" style="fill:#fff;fill-rule:nonzero;stroke:#757678;stroke-width:2px" />
  <path d="M232.76 310.22c-7.27 1.29-102.5-1.86-107.98-5.44-5.48-3.58-6.81-4.94-7.87-10.05-1.06-5.1-12.97-106.72-10.26-124.06 2.71-17.34 12.44-22.81 21.85-23.93 9.41-1.11 44.97 13.07 57.13 23.47 12.16 10.4 42.79 32.93 46.8 37.02 4.01 4.09 30.17-10.08 33.2-12.34 3.03-2.26 12.23 19.21 11.29 22.26-.94 3.06-36.4 26.5-48.62 26.76-12.22.26-21.25-13.64-21.25-13.64l29.77 77.41-4.06 2.54Z" style="fill:#fff;fill-rule:nonzero" />
  <path d="M232.76 310.22c-7.27 1.29-102.55-1.11-108.03-4.69-5.48-3.58-6.81-4.94-7.87-10.05-1.06-5.1-12.92-107.47-10.21-124.81 2.71-17.34 12.44-22.81 21.85-23.93 9.41-1.11 44.97 13.07 57.13 23.47 12.16 10.4 42.72 33.93 46.73 38.02 4.01 4.09 30.17-10.08 33.2-12.34 3.04-2.26 12.3 18.2 11.36 21.26-.94 3.06-36.4 26.5-48.62 26.76-12.22.26-21.25-13.64-21.25-13.64l30.87 77.41-5.16 2.54Z" style="fill:none;fill-rule:nonzero;stroke:#757678;stroke-width:2px" />
  <path d="M257.8 230.49c-.09-8.34-6.93-19.31-13.46-24.07" style="fill:none;fill-rule:nonzero;stroke:#757678;stroke-width:2px" />
  <ellipse cx="266.88" cy="217.02" rx="3.04" ry="3.2" style="fill:#757678" />
  <path d="m290.19 437.62-114.51 33.5-54.02-167.38c19.04 4.57 106.47-3.42 112.51-7.46 6.04-4.04 56.02 141.34 56.02 141.34ZM178.33 137c-1.66.21-2.82 2.26-3.69 4.14-2.48 5.4-4.5 11.12-6.04 17.04 1.9 2.84 4.8 3.99 7.6 4.64 2.48.58 5.79 1.7 8.21.07 4.62-3.11 2.17-12.44.62-16.76-1.11-3.11-3.4-9.55-6.7-9.13Z" style="fill:#030303;fill-rule:nonzero" />
  <path d="M173.26 159.64c1.09-2.13.47-4.98-1.17-6.65s-4.09-2.26-6.33-1.87c-1.47.25-3.09 1.16-3.28 2.74-.1.84.23 1.66.59 2.41 1.36 2.86 3.43 5.69 6.37 6.35 2.94.66 6.5-2.11 5.77-5.22" style="fill:#030303;fill-rule:nonzero" />
  <path d="M163.94 152.26c-2.34-3.94-6.33-6.71-10.65-7.4-.55-.09-1.16-.12-1.58.26-.46.42-.5 1.16-.48 1.8.18 5.76 1.78 11.34 3.38 16.84.89 3.07 2.28 6.64 5.24 7.23 2.19.44 4.39-1.1 5.56-3.12s1.55-4.44 1.9-6.79c.42-2.85-1.92-6.37-3.37-8.82ZM189.28 92.29c-3.97 3.87-11.85 4.24-13.91-1.37-.94-5.29 1.47-7.14 2.49-8.04 4.48-3.51 10.58 2.84 13.49-6.67 4.08 3.82 2.8 12.63-2.07 16.08Z" style="fill:#030303;fill-rule:nonzero" />
  <path d="M173.69 93.29c-10.76 11.81-25.94-.24-20.65-14.13 2.48 4.65 5.59 8.8 10.95 4.41 7.52-4.48 14.96 1.92 9.7 9.72Z" style="fill:#030303;fill-rule:nonzero" />
</svg>