<?xml version="1.0" encoding="UTF-8" standalone="no"?><!DOCTYPE svg PUBLIC "-//W3C//DTD SVG 1.1//EN" "http://www.w3.org/Graphics/SVG/1.1/DTD/svg11.dtd"><svg width="100%" height="100%" viewBox="0 0 436 689" version="1.1" xmlns="http://www.w3.org/2000/svg" xmlns:xlink="http://www.w3.org/1999/xlink" xml:space="preserve" xmlns:serif="http://www.serif.com/" style="fill-rule:evenodd;clip-rule:evenodd;stroke-miterlimit:10;"><g><ellipse cx="123.73" cy="659.41" rx="123.4" ry="28.41" style="fill:#e6e6e6;"/><g><path d="M73.59,300.54l-18.52,-18.61l-5.98,19.95l26.93,8.98l-2.43,-10.32Z" style="fill:#030303;fill-rule:nonzero;"/><path d="M76.02,310.86l-30.92,22.94l2.99,6.98l30.92,-20.95l-2.99,-8.97Z" style="fill:#030303;fill-rule:nonzero;"/></g><path d="M140.01,624.45l-10.42,31.63l30.6,6.48l1.79,-6.59l8.24,0.74l0.05,6.16c0,-0 51.65,0.13 57.73,-2.26c6.08,-2.39 14.77,-3.75 15.35,-9.47c0.79,-7.78 -12.52,-9.56 -18.06,-10.31c-1.69,-0.23 -63.89,-14.33 -63.89,-14.33l-21.39,-2.05Z" style="fill:#030303;fill-rule:nonzero;"/><g><path d="M84.59,638.87l-8.59,35.79l29.47,1.94l1.67,-6.62l8.25,0.59l0.16,6.16c0,0 51.64,-0.83 57.68,-3.32c6.04,-2.5 14.7,-4.03 15.17,-9.75c0.64,-7.79 -12.7,-9.33 -18.25,-9.97c-1.69,-0.2 -64.14,-13.14 -64.14,-13.14l-21.42,-1.68Z" style="fill:#030303;fill-rule:nonzero;"/><path d="M84.59,638.87l6.13,-23.8l31.31,0.75l22.03,41.58l-59.47,-18.53Z" style="fill:#030303;fill-rule:nonzero;"/></g><path d="M328.87,149.47l32.04,1.22l1.83,19.49l-35.44,1.15l1.57,-21.86Z" style="fill:#f7dac6;fill-rule:nonzero;"/><path d="M354.98,149.44c8.6,-6.88 34.71,-12.46 40.09,-10.43c5.38,2.02 -4.78,10.3 -4.78,10.3c0,0 2.51,13.24 31.09,-6.95c3.71,-2.62 21.78,6.47 9.57,17.75c-12.21,11.27 -26.09,13.59 -26.09,13.59c-8.79,4.62 -18.98,4.01 -18.98,4.01c0,0 -24.65,-4.41 -30.12,-5.89c-5.47,-1.5 -0.78,-22.38 -0.78,-22.38Z" style="fill:#f7dac6;fill-rule:nonzero;"/><path d="M127.18,88.25l-2.51,12.94c0,0 4.89,0.89 3.92,5.93c-0.98,5.03 -4.45,6.63 -6.9,6.19c-2.45,-0.44 -12.96,39.55 -12.96,39.55l-33.64,-8.64l-3.56,-66.47l55.65,10.5Z" style="fill:#f7dac6;fill-rule:nonzero;"/><path d="M70.12,317.25c1.17,2.32 109.63,-11.26 109.63,-11.26l-3.66,-99.87c17.65,3.43 168.63,-24.29 168.63,-24.29l-9.53,-32.62c0,0 -161.57,-3.42 -170.87,-4.53c-9.3,-1.11 -87.32,0.45 -95.44,1.65c-2.17,0.32 -7.1,0.32 -12.1,3.35c-11.4,6.91 -13.74,22.73 -14.33,31.3c0.25,3.81 0.54,7.64 0.87,11.5c3.96,45.29 13.73,86.97 26.8,124.77Z" style="fill:#fff;fill-rule:nonzero;stroke:#757678;stroke-width:2px;"/><path d="M109.95,146.2l-39.73,-22.42l-3.62,20.87l13.72,20.22l28.29,-19.44l26.9,7.91l-12.24,-26.7l-10.58,0.27l-6.04,22.13" style="fill:#fff;fill-rule:nonzero;stroke:#757678;stroke-width:2px;"/><g><path d="M118.94,133.12c-1.67,0.19 -2.86,2.21 -3.75,4.08c-2.56,5.36 -4.67,11.05 -6.3,16.95c1.86,2.86 4.74,4.06 7.53,4.76c2.47,0.62 5.77,1.79 8.21,0.2c4.67,-3.04 2.36,-12.41 0.88,-16.75c-1.07,-3.13 -3.26,-9.61 -6.57,-9.24Z" style="fill:#030303;fill-rule:nonzero;"/><path d="M113.53,155.68c1.12,-2.11 0.54,-4.97 -1.07,-6.67c-1.61,-1.7 -4.05,-2.32 -6.3,-1.97c-1.47,0.23 -3.11,1.11 -3.32,2.69c-0.11,0.84 0.21,1.66 0.55,2.42c1.31,2.89 3.34,5.74 6.27,6.45c2.93,0.71 6.53,-2.01 5.84,-5.13" style="fill:#030303;fill-rule:nonzero;"/><path d="M104.32,148.16c-2.28,-3.98 -6.23,-6.81 -10.54,-7.56c-0.54,-0.09 -1.16,-0.14 -1.59,0.24c-0.47,0.41 -0.52,1.15 -0.51,1.79c0.09,5.76 1.61,11.36 3.12,16.89c0.84,3.08 2.18,6.68 5.13,7.31c2.18,0.47 4.4,-1.03 5.61,-3.04c1.21,-2 1.62,-4.42 2,-6.76c0.48,-2.85 -1.81,-6.4 -3.22,-8.87Z" style="fill:#030303;fill-rule:nonzero;"/></g><path d="M215.54,232.11l30.46,-10.02l8.51,17.64l-32.83,13.41l-6.14,-21.03Z" style="fill:#f7dac6;fill-rule:nonzero;"/><path d="M243.97,223.72c7.48,-8.08 32.48,-17.48 38.09,-16.28c5.62,1.2 -7,12.48 -7,12.48c0,-0 8.26,11.13 33.52,-13.07c3.28,-3.14 22.5,3.16 12.1,16.13c-10.4,12.96 -23.49,19.29 -23.49,19.29c-8.01,5.88 -18.18,6.78 -18.18,6.78c0,-0 -25.33,-2.67 -30.96,-3.32c-5.61,-0.66 -4.08,-22.01 -4.08,-22.01Z" style="fill:#f7dac6;fill-rule:nonzero;"/><path d="M69.61,309.64c0,-0 -8.79,37.29 -8.95,41.5c-0.15,4.21 11.89,65.48 12.7,70.78c0.81,5.3 2.83,220.95 2.83,220.95l69.66,-1.47l1.66,-65.18l-30.05,52.11l57.87,-4l6.9,-127.33l0.36,-178.84l-112.98,-8.52Z" style="fill:#2d2d2d;fill-rule:nonzero;"/><g><path d="M88.17,298.3l2.56,208.73l98.36,-1.3l-7.38,-200.46l-93.54,-6.97Z" style="fill:#030303;fill-rule:nonzero;"/><path d="M101.49,316.75l-37.11,-0.24l-0.99,-17.96l36.38,-0.03l1.72,18.23Z" style="fill:#030303;fill-rule:nonzero;"/></g><path d="M64.19,146.81c-57.23,14.23 -33.58,66.21 -31.13,70.03c23.06,35.92 50.28,98.67 77.5,96.08c5.17,-0.49 12.63,-0.53 21.95,-4.19c34.82,-14.81 69.64,-29.63 104.46,-44.44l-15.79,-34.73l-96.16,32.02l-23.44,-47.01" style="fill:#fff;fill-rule:nonzero;stroke:#757678;stroke-width:2px;"/><path d="M75.79,8.73c-2.6,0.7 -10.94,5.32 -12.12,7.84c-3.17,6.82 -5.63,13.98 -7.32,21.3c-0.69,3.01 -1.26,6.05 -1.36,9.12c-0.25,7.8 2.48,15.22 5.18,22.39c0.69,1.84 1.42,3.74 2.77,5.13c2.2,2.26 5.61,2.7 8.76,2.71c0.53,0 1.08,-0.01 1.57,-0.22c0.74,-0.32 1.27,-1.03 1.68,-1.75c2.95,-5.18 7.77,-13.06 6.6,-18.82c-1.18,-5.82 -2.61,-12.77 -3.79,-18.59c-1.38,-6.8 -0.56,-10.25 -2.23,-16.96c-0.9,-3.63 -2.91,-10.17 0.26,-12.15Z" style="fill:#030303;fill-rule:nonzero;"/><path d="M125.48,22.5c15.39,8.15 15.37,41.27 17.83,48.12c1.43,3.96 20.51,5.76 22.6,10.16c2.09,4.4 -15.42,15.34 -21.21,15.19c-0.86,-0.02 -1.83,10.8 -1.83,10.8c0,-0 0.49,14.51 -3.84,17.66c-6.59,4.78 -31.36,4.66 -46.51,-7.64c-10.72,-8.71 -23.01,-9.33 -20.22,-25.87c2.79,-16.54 2.51,-0.9 2.51,-0.9c0,0 -9.26,-2.68 -14.18,-6.32c-7.61,-5.62 -3.9,-36.16 8.54,-30.71c7.76,3.4 9.83,4.91 9.83,4.91c0,-0 -7.76,-26.87 -5.06,-36.73c2.72,-9.86 47.23,-0.95 51.54,1.33Z" style="fill:#f7dac6;fill-rule:nonzero;"/><path d="M93.01,1.88c8.46,0.01 25.05,-3.98 33.42,0.84c2.56,1.06 25.53,5.26 24.8,6.97c-14.01,32.96 -53.05,12.57 -53.05,12.57c0,0 6.04,15.63 3.78,18.04c-2.26,2.41 -9.24,5.68 -9.24,5.68l1.63,23.18l-7.13,1.03l-13.14,-16.29l-6.6,-40.58c0,0.01 11.54,-11.46 25.53,-11.44Z" style="fill:#030303;fill-rule:nonzero;"/><path d="M130.23,110.99c6.69,3.11 19.28,-13.3 19.28,-13.3l-33.53,-2.58c0,0 6.03,12.06 14.25,15.88Z" style="fill:#fff;fill-rule:nonzero;"/><g><path d="M148.83,105.82c-5.12,2.11 -12.57,-0.47 -12.4,-6.45c1.1,-5.25 4.02,-6.08 5.31,-6.53c5.47,-1.59 8.76,6.58 15,-1.17c2.37,5.06 -2.1,12.76 -7.91,14.15Z" style="fill:#030303;fill-rule:nonzero;"/><path d="M133.99,100.94c-14.39,6.95 -23.99,-9.89 -13.91,-20.8c0.57,5.24 1.91,10.25 8.52,8.18c8.65,-1.37 13.18,7.34 5.39,12.62Z" style="fill:#030303;fill-rule:nonzero;"/></g><path d="M119.97,62.785c0.185,-4.119 2.7,-7.356 5.611,-7.225c2.911,0.132 5.124,3.582 4.938,7.701c-0.186,4.119 -2.7,7.356 -5.612,7.224c-2.911,-0.131 -5.123,-3.582 -4.937,-7.7Z"/><path d="M310.49,148.37l4.25,37.7" style="fill:none;fill-rule:nonzero;stroke:#757678;stroke-width:2px;"/><path d="M195.17,237.74l12.94,39.26" style="fill:none;fill-rule:nonzero;stroke:#757678;stroke-width:2px;"/><path d="M114.067,172.8c0.046,-1.765 1.446,-3.163 3.123,-3.119c1.678,0.044 3.002,1.514 2.955,3.279c-0.046,1.766 -1.446,3.164 -3.123,3.119c-1.677,-0.044 -3.001,-1.513 -2.955,-3.279Z"/><path d="M118.817,196.235c0.046,-1.766 1.446,-3.163 3.123,-3.119c1.677,0.044 3.001,1.513 2.955,3.279c-0.047,1.765 -1.446,3.163 -3.123,3.119c-1.678,-0.044 -3.002,-1.513 -2.955,-3.279Z"/><path d="M123.54,220.313c0.046,-1.766 1.446,-3.163 3.123,-3.119c1.677,0.044 3.001,1.513 2.955,3.279c-0.046,1.766 -1.446,3.163 -3.123,3.119c-1.678,-0.044 -3.002,-1.513 -2.955,-3.279Z"/><path d="M128.538,245.551c0.046,-1.766 1.446,-3.164 3.123,-3.119c1.677,0.044 3.001,1.513 2.955,3.279c-0.047,1.765 -1.446,3.163 -3.123,3.119c-1.678,-0.044 -3.002,-1.514 -2.955,-3.279Z"/></g></svg>