<svg viewBox="0 0 436 689" xmlns="http://www.w3.org/2000/svg" xml:space="preserve" style="fill-rule:evenodd;clip-rule:evenodd;stroke-miterlimit:10">
  <ellipse cx="123.73" cy="659.41" rx="123.4" ry="28.41" style="fill:#222; opacity:0.3" />
  <path d="m73.59 300.54-18.52-18.61-5.98 19.95 26.93 8.98-2.43-10.32ZM76.02 310.86 45.1 333.8l2.99 6.98 30.92-20.95-2.99-8.97ZM140.01 624.45l-10.42 31.63 30.6 6.48 1.79-6.59 8.24.74.05 6.16s51.65.13 57.73-2.26c6.08-2.39 14.77-3.75 15.35-9.47.79-7.78-12.52-9.56-18.06-10.31-1.69-.23-63.89-14.33-63.89-14.33l-21.39-2.05Z" style="fill:#030303;fill-rule:nonzero" />
  <path d="M84.59 638.87 76 674.66l29.47 1.94 1.67-6.62 8.25.59.16 6.16s51.64-.83 57.68-3.32c6.04-2.5 14.7-4.03 15.17-9.75.64-7.79-12.7-9.33-18.25-9.97-1.69-.2-64.14-13.14-64.14-13.14l-21.42-1.68Z" style="fill:#030303;fill-rule:nonzero" />
  <path d="m84.59 638.87 6.13-23.8 31.31.75 22.03 41.58-59.47-18.53Z" style="fill:#030303;fill-rule:nonzero" />
  <path d="m328.87 149.47 32.04 1.22 1.83 19.49-35.44 1.15 1.57-21.86Z" style="fill:#f7dac6;fill-rule:nonzero" />
  <path d="M354.98 149.44c8.6-6.88 34.71-12.46 40.09-10.43 5.38 2.02-4.78 10.3-4.78 10.3s2.51 13.24 31.09-6.95c3.71-2.62 21.78 6.47 9.57 17.75-12.21 11.27-26.09 13.59-26.09 13.59-8.79 4.62-18.98 4.01-18.98 4.01s-24.65-4.41-30.12-5.89c-5.47-1.5-.78-22.38-.78-22.38ZM127.18 88.25l-2.51 12.94s4.89.89 3.92 5.93c-.98 5.03-4.45 6.63-6.9 6.19-2.45-.44-12.96 39.55-12.96 39.55l-33.64-8.64-3.56-66.47 55.65 10.5Z" style="fill:#f7dac6;fill-rule:nonzero" />
  <path d="M70.12 317.25c1.17 2.32 109.63-11.26 109.63-11.26l-3.66-99.87c17.65 3.43 168.63-24.29 168.63-24.29l-9.53-32.62s-161.57-3.42-170.87-4.53c-9.3-1.11-87.32.45-95.44 1.65-2.17.32-7.1.32-12.1 3.35-11.4 6.91-13.74 22.73-14.33 31.3.25 3.81.54 7.64.87 11.5 3.96 45.29 13.73 86.97 26.8 124.77Z" style="fill:#fff;fill-rule:nonzero;stroke:#757678;stroke-width:2px" />
  <path d="m109.95 146.2-39.73-22.42-3.62 20.87 13.72 20.22 28.29-19.44 26.9 7.91-12.24-26.7-10.58.27-6.04 22.13" style="fill:#fff;fill-rule:nonzero;stroke:#757678;stroke-width:2px" />
  <path d="M118.94 133.12c-1.67.19-2.86 2.21-3.75 4.08-2.56 5.36-4.67 11.05-6.3 16.95 1.86 2.86 4.74 4.06 7.53 4.76 2.47.62 5.77 1.79 8.21.2 4.67-3.04 2.36-12.41.88-16.75-1.07-3.13-3.26-9.61-6.57-9.24Z" style="fill:#030303;fill-rule:nonzero" />
  <path d="M113.53 155.68c1.12-2.11.54-4.97-1.07-6.67-1.61-1.7-4.05-2.32-6.3-1.97-1.47.23-3.11 1.11-3.32 2.69-.11.84.21 1.66.55 2.42 1.31 2.89 3.34 5.74 6.27 6.45 2.93.71 6.53-2.01 5.84-5.13" style="fill:#030303;fill-rule:nonzero" />
  <path d="M104.32 148.16c-2.28-3.98-6.23-6.81-10.54-7.56-.54-.09-1.16-.14-1.59.24-.47.41-.52 1.15-.51 1.79.09 5.76 1.61 11.36 3.12 16.89.84 3.08 2.18 6.68 5.13 7.31 2.18.47 4.4-1.03 5.61-3.04 1.21-2 1.62-4.42 2-6.76.48-2.85-1.81-6.4-3.22-8.87Z" style="fill:#030303;fill-rule:nonzero" />
  <path d="M215.54 232.11 246 222.09l8.51 17.64-32.83 13.41-6.14-21.03Z" style="fill:#f7dac6;fill-rule:nonzero" />
  <path d="M243.97 223.72c7.48-8.08 32.48-17.48 38.09-16.28 5.62 1.2-7 12.48-7 12.48s8.26 11.13 33.52-13.07c3.28-3.14 22.5 3.16 12.1 16.13-10.4 12.96-23.49 19.29-23.49 19.29-8.01 5.88-18.18 6.78-18.18 6.78s-25.33-2.67-30.96-3.32c-5.61-.66-4.08-22.01-4.08-22.01Z" style="fill:#f7dac6;fill-rule:nonzero" />
  <path d="M69.61 309.64s-8.79 37.29-8.95 41.5c-.15 4.21 11.89 65.48 12.7 70.78.81 5.3 2.83 220.95 2.83 220.95l69.66-1.47 1.66-65.18-30.05 52.11 57.87-4 6.9-127.33.36-178.84-112.98-8.52Z" style="fill:#2d2d2d;fill-rule:nonzero" />
  <path d="m88.17 298.3 2.56 208.73 98.36-1.3-7.38-200.46-93.54-6.97Z" style="fill:#030303;fill-rule:nonzero" />
  <path d="m101.49 316.75-37.11-.24-.99-17.96 36.38-.03 1.72 18.23Z" style="fill:#030303;fill-rule:nonzero" />
  <path d="M64.19 146.81c-57.23 14.23-33.58 66.21-31.13 70.03 23.06 35.92 50.28 98.67 77.5 96.08 5.17-.49 12.63-.53 21.95-4.19 34.82-14.81 69.64-29.63 104.46-44.44l-15.79-34.73-96.16 32.02-23.44-47.01" style="fill:#fff;fill-rule:nonzero;stroke:#757678;stroke-width:2px" />
  <path d="M75.79 8.73c-2.6.7-10.94 5.32-12.12 7.84-3.17 6.82-5.63 13.98-7.32 21.3-.69 3.01-1.26 6.05-1.36 9.12-.25 7.8 2.48 15.22 5.18 22.39.69 1.84 1.42 3.74 2.77 5.13 2.2 2.26 5.61 2.7 8.76 2.71.53 0 1.08-.01 1.57-.22.74-.32 1.27-1.03 1.68-1.75 2.95-5.18 7.77-13.06 6.6-18.82-1.18-5.82-2.61-12.77-3.79-18.59-1.38-6.8-.56-10.25-2.23-16.96-.9-3.63-2.91-10.17.26-12.15Z" style="fill:#030303;fill-rule:nonzero" />
  <path d="M125.48 22.5c15.39 8.15 15.37 41.27 17.83 48.12 1.43 3.96 20.51 5.76 22.6 10.16s-15.42 15.34-21.21 15.19c-.86-.02-1.83 10.8-1.83 10.8s.49 14.51-3.84 17.66c-6.59 4.78-31.36 4.66-46.51-7.64-10.72-8.71-23.01-9.33-20.22-25.87 2.79-16.54 2.51-.9 2.51-.9s-9.26-2.68-14.18-6.32c-7.61-5.62-3.9-36.16 8.54-30.71C76.93 56.39 79 57.9 79 57.9s-7.76-26.87-5.06-36.73c2.72-9.86 47.23-.95 51.54 1.33Z" style="fill:#f7dac6;fill-rule:nonzero" />
  <path d="M93.01 1.88c8.46.01 25.05-3.98 33.42.84 2.56 1.06 25.53 5.26 24.8 6.97-14.01 32.96-53.05 12.57-53.05 12.57s6.04 15.63 3.78 18.04c-2.26 2.41-9.24 5.68-9.24 5.68l1.63 23.18-7.13 1.03L74.08 53.9l-6.6-40.58c0 .01 11.54-11.46 25.53-11.44Z" style="fill:#030303;fill-rule:nonzero" />
  <path d="M130.23 110.99c6.69 3.11 19.28-13.3 19.28-13.3l-33.53-2.58s6.03 12.06 14.25 15.88Z" style="fill:#fff;fill-rule:nonzero" />
  <path d="M148.83 105.82c-5.12 2.11-12.57-.47-12.4-6.45 1.1-5.25 4.02-6.08 5.31-6.53 5.47-1.59 8.76 6.58 15-1.17 2.37 5.06-2.1 12.76-7.91 14.15Z" style="fill:#030303;fill-rule:nonzero" />
  <path d="M133.99 100.94c-14.39 6.95-23.99-9.89-13.91-20.8.57 5.24 1.91 10.25 8.52 8.18 8.65-1.37 13.18 7.34 5.39 12.62Z" style="fill:#030303;fill-rule:nonzero" />
  <path d="M119.97 62.785c.185-4.119 2.7-7.356 5.611-7.225 2.911.132 5.124 3.582 4.938 7.701-.186 4.119-2.7 7.356-5.612 7.224-2.911-.131-5.123-3.582-4.937-7.7Z" />
  <path d="m310.49 148.37 4.25 37.7M195.17 237.74 208.11 277" style="fill:none;fill-rule:nonzero;stroke:#757678;stroke-width:2px" />
  <path d="M114.067 172.8c.046-1.765 1.446-3.163 3.123-3.119 1.678.044 3.002 1.514 2.955 3.279-.046 1.766-1.446 3.164-3.123 3.119-1.677-.044-3.001-1.513-2.955-3.279ZM118.817 196.235c.046-1.766 1.446-3.163 3.123-3.119 1.677.044 3.001 1.513 2.955 3.279-.047 1.765-1.446 3.163-3.123 3.119-1.678-.044-3.002-1.513-2.955-3.279ZM123.54 220.313c.046-1.766 1.446-3.163 3.123-3.119 1.677.044 3.001 1.513 2.955 3.279-.046 1.766-1.446 3.163-3.123 3.119-1.678-.044-3.002-1.513-2.955-3.279ZM128.538 245.551c.046-1.766 1.446-3.164 3.123-3.119 1.677.044 3.001 1.513 2.955 3.279-.047 1.765-1.446 3.163-3.123 3.119-1.678-.044-3.002-1.514-2.955-3.279Z" />
</svg>