<svg viewBox="0 0 299 283" xmlns="http://www.w3.org/2000/svg" xml:space="preserve" style="fill-rule:evenodd;clip-rule:evenodd;stroke-miterlimit:10">
  <path d="M143.86 75.95s8.4-2.17 10.6-.37c2.2 1.8.42 4.51.42 4.51s-9.14 2.05-10.15 1.48c-1.01-.57-.87-5.62-.87-5.62Z" style="fill:#f9d4bb;fill-rule:nonzero" />
  <path d="M123.28 83.98s10.34-17.55 12.3-18.86c1.96-1.31 12.5-3.55 13.96-3.99 1.47-.44 3.8 2.68 2.33 3.99-1.47 1.31-.19 2.71-1.66 3.15-1.47.44-11.06 7.18-9.45 9.05 1.61 1.87 2.18 8.03 5.08 8.52 2.9.49 3.35-1.04 4.03 2.9.69 3.94-9.63 1.35-11.59.91-1.96-.44-6.37-4.47-6.37-4.47l-4.25 8.85-4.38-10.05Z" style="fill:#f9d4bb;fill-rule:nonzero" />
  <path d="M142.42 80.65c5.07-4.62 16.67-5.79 22.04 1.92 5.57 7.99-20.61 5.99-23.2 4.22-3.35-2.28 1.16-6.14 1.16-6.14Z" style="fill:#ffc467;fill-rule:nonzero" />
  <path d="M141.91 84.7c1.57.15 3.07-.62 4.65-.64 1.78-.01 3.32.92 4.92 1.54s3.83.84 4.92-.28c.51-.52.7-1.29 1.46-1.56.52-.18 1.12-.06 1.67.07l3.93.9c.54.12 1.1.25 1.65.14.79-.15 1.34-.79 1.39-1.44.05-.64-.31-1.28-.82-1.78-1.56-1.54-4.25-1.98-6.73-2.22-4.21-.41-8.47-.55-12.71-.41-1.99.07-5.82.13-6.9 1.79-.95 1.46.55 3.7 2.57 3.89Z" style="fill:#96c122;fill-rule:nonzero" />
  <path d="M143.28 77.15c4.97-2.94 23.6-5.16 22.06 1.57-1.39 6.1-20.92 4.43-23.09 2.42-2.57-2.39 1.03-3.99 1.03-3.99Z" style="fill:#642f16;fill-rule:nonzero" />
  <path d="M151.89 78.97c1 .28 2.57.66 3.35.18.76-.47.93-1.35 2.04-1.42.66-.04 1.16.27 1.64.51 1.3.65 3.34.88 4.94.39 1.6-.49 2.4-1.77 1.41-2.57-1.99-1.62-9.93-1.14-12.99-.9-3.09.25-8.9-.21-11.35.9-.91.41-.86 2.91.94 3.23 1.89.33 3.19-1.46 4.5-1.63 2.12-.29 3.9.86 5.52 1.31Z" style="fill:#ff6a38;fill-rule:nonzero" />
  <path d="M142.4 69.19c5.07-4.62 16.67-5.79 22.04 1.92 5.57 7.99-20.61 5.99-23.2 4.22-3.35-2.28 1.16-6.14 1.16-6.14Z" style="fill:#ffc467;fill-rule:nonzero" />
  <path d="M148.42 68.69c-.88.37-1.72 1.34-1.9 2.29.6.19 1.32-.02 1.72-.52.4-.5.47-1.24.16-1.79M151.03 70.33c.34.77 1.4 1.58 2.51 1.84.31-.47.14-1.08-.41-1.48-.55-.4-1.43-.54-2.13-.35M154.24 67.82c.34.77 1.4 1.58 2.51 1.84.31-.47.14-1.08-.41-1.48-.55-.4-1.43-.54-2.13-.35" style="fill:#fff;fill-rule:nonzero" />
  <path d="M140.05 64.41s8.81-3.62 10.53-3.27c1.72.35 11.06 9 8.15 8.88-2.91-.12-9.87-3.42-9.87-3.42l-11.03 4.47 2.22-6.66Z" style="fill:#f9d4bb;fill-rule:nonzero" />
  <path d="M14.94 250.94c-22.25 11.8-18.28 25.58 11.12 27.54 29.4 1.97 227.27 3.93 238.39 1.31 11.12-2.62-18.28-26.89-30.2-26.89-11.91 0-219.31-1.96-219.31-1.96Z" style="fill:#222;fill-rule:nonzero;opacity:0.2;" />
  <path d="M118.28 238.32c-1.61.38-3.02 2.04-3.14 3.68l-.97 13.24a2.816 2.816 0 0 0 2.78 3.05l39.22.75c1.65.03 2.8-1.28 2.56-2.91l-.69-4.69c-.24-1.63-1.69-3.47-3.22-4.09l-24.88-10.03c-1.53-.62-4.1-.81-5.7-.43l-5.96 1.43Z" style="fill:#fff;fill-rule:nonzero" />
  <path d="M118.28 238.32c-1.61.38-3.02 2.04-3.14 3.68l-.97 13.24a2.816 2.816 0 0 0 2.78 3.05l39.22.75c1.65.03 2.8-1.28 2.56-2.91l-.69-4.69c-.24-1.63-1.69-3.47-3.22-4.09l-24.88-10.03c-1.53-.62-4.1-.81-5.7-.43l-5.96 1.43Z" style="fill:none;fill-rule:nonzero;stroke:#b3b3b3;stroke-width:2px" />
  <path style="fill:#030303" d="M46.25 183.59h6.17v68.25h-6.17zM33.54 187.69h6.3v76.35h-6.3zM97.15 187.69h6.72v76.35h-6.72z" />
  <path d="M49.44 80.33c-3.88 1.6-39.08 9.07-39.08 9.07l16.12 105.99 85.62 2 15.2-12.03-57.07-21.65-20.79-83.38Z" style="fill:#00435f;fill-rule:nonzero" />
  <path d="m131.5 240.8 15.6-1.9s11.41-71.14 3.42-74.18c-7.99-3.04-42.61-21.3-57.44-20.16-14.84 1.14-.76 27.01-.76 27.01l36.9 7.61 2.28 61.62Z" style="fill-rule:nonzero" />
  <path d="m123.09 80.8 7.63 13.74s-15.87 47.4-32.24 45.92c-16.36-1.48-36.47-73.4-36.47-73.4l15.22 2.16s10.47 1.94 12.36 8.48c1.89 6.54 12.12 35.18 12.12 35.18l21.38-32.08Z" style="fill:#a1336d;fill-rule:nonzero" />
  <path d="M50.58 65.19 78 91.98l-7.88-23.3s2.8-7.67 4.55-13.95c1.75-6.28-15.72-18.14-15.72-18.14L43.26 52.63l7.32 12.56Z" style="fill:#f9d4bb;fill-rule:nonzero" />
  <path d="M52.11 39.4C64.73 56.13 40.08 97.23 25.4 78.15 8.86 56.65 42.83 44.21 42.83 44.21 26.12 16.52 51.11 3.6 51.69 3.6c.58 0 13.59-8.72 25.95 2.01 10.38 9.01 11.15 19.41 8.51 25.57" style="fill-rule:nonzero" />
  <path d="M80.78 57.91c-3.42.14-20.71 3.28-25.73-14.74 0 0-9.98 1.11-9.1-7.21.88-8.32 8.22-2.77 8.22-2.77s15.26-1.94 23.48-15.26c.41-.66 1.24-1.9 1.69-1.64 9.17 5.2 4.62 20.21 4.62 19.95 0-.28 6.05 1.11 5.88 4.44-.1 1.99-3.86 3.61-4.44 3.61-.58 0-.43 3.99-.43 3.99s-2.22 9.55-4.19 9.63Z" style="fill:#f9d4bb;fill-rule:nonzero" />
  <path d="m90.41 122.49 2.67 22.06-47.55-14.45 10.65-42.99 13.31.38 18.64 19.4 2.28 15.6Z" style="fill:#a1336d;fill-rule:nonzero" />
  <path d="M256.74 263.49h-90.09l37.16-24.43h12.22l40.71 24.43Z" style="fill-rule:nonzero" />
  <path d="M203.81 138.28h12.22v100.78h-12.22z" />
  <ellipse cx="77.64" cy="32.94" rx="1.72" ry="3.78" />
  <path d="M114.16 247.82c-1.62-.31-2.99.78-3.05 2.43l-.64 18.58a2.948 2.948 0 0 0 2.9 3.05l41.03.76c1.65.03 2.73-1.27 2.41-2.89l-.39-1.94c-.32-1.62-1.8-3.54-3.28-4.26l-24.77-12.17c-1.48-.73-4.02-1.58-5.64-1.89l-8.57-1.67Z" style="fill:#fff;fill-rule:nonzero" />
  <path d="M114.16 247.82c-1.62-.31-2.99.78-3.05 2.43l-.64 18.58a2.948 2.948 0 0 0 2.9 3.05l41.03.76c1.65.03 2.73-1.27 2.41-2.89l-.39-1.94c-.32-1.62-1.8-3.54-3.28-4.26l-24.77-12.17c-1.48-.73-4.02-1.58-5.64-1.89l-8.57-1.67Z" style="fill:none;fill-rule:nonzero;stroke:#b3b3b3;stroke-width:2px" />
  <path d="M48.12 130.96s-11.76 29.93-5.75 39.8c5.33 8.75 44.89 14.84 73.8 14.08 0 0-10.44 68.55-8.92 70.83 1.52 2.28 38.96.53 38.96.53s-2.27-69.08-6.83-78.21c-4.56-9.13-44.51-27.77-66.95-30.43-22.44-2.66-24.31-16.6-24.31-16.6Z" style="fill-rule:nonzero" />
  <path d="M84.86 144.04s11.25-1.94 14.48-.85c3.22 1.09 12.61 7.86 13.61 12.33s-28.71-4.87-28.71-4.87l.62-6.61Z" style="fill:#f9d4bb;fill-rule:nonzero" />
  <path d="M52.02 64.08c-36.65 31.3-13.07 39.58-12.67 65.58.04 2.44 11.98 16.03 11.98 16.03l36.65 7.63 2.37-15.47s-33.67-6.19-35.74-8.32c-2.07-2.13-.66-33.52-.66-33.52l24.11-3.76-26.04-28.17Z" style="fill:#a1336d;fill-rule:nonzero" />
  <path d="M140.82 109.29h135.23l22.02 37.65H124.23l16.59-37.65Z" style="fill:#ffc467;fill-rule:nonzero" />
  <path style="fill:#ff6a38" d="M123.93 146.84h174.25v10.2H123.93z" />
  <path d="M231.24 135.11s.88 2.48 0 3.8c-.88 1.32-37.34 2.61-37.78.99-1.08-3.99 3.8-8.33 5.27-8.75 1.8-.52 23.89-.76 27.24 0 4.39.99 5.27 3.96 5.27 3.96Z" style="fill:#00435f;fill-rule:nonzero" />
  <path d="M199.21 133.14s24.82-.37 26 0c1.56.49 4.26.76 4.26 1.77s-33.95 2.35-33.67 1.01c.29-1.35 3.41-2.78 3.41-2.78ZM70.96 45.11c-.05-.23 11.54 1.65 11.54 1.65s-7.34 16.72-11.54-1.65Z" style="fill:#fff;fill-rule:nonzero" />
  <path d="M138.72 126.06c-.39 10.69 43.26 12.7 44.06.36.6-9.2-43.67-10.96-44.06-.36Z" style="fill:#b3b3b3;fill-rule:nonzero" />
  <path d="M140.77 123.35c-.39 10.64 40.64 12.54 41.42.26.58-9.18-41.03-10.82-41.42-.26Z" style="fill:#fff;fill-rule:nonzero" />
  <path d="M72.15 49.37s6.12 1.53 6.34 3.5c.22 1.97-5.24 1.09-6.34-3.5Z" style="fill:#a1336d;fill-rule:nonzero" />
</svg>