<?xml version="1.0" encoding="UTF-8" standalone="no"?><!DOCTYPE svg PUBLIC "-//W3C//DTD SVG 1.1//EN" "http://www.w3.org/Graphics/SVG/1.1/DTD/svg11.dtd"><svg width="100%" height="100%" viewBox="0 0 222 270" version="1.1" xmlns="http://www.w3.org/2000/svg" xmlns:xlink="http://www.w3.org/1999/xlink" xml:space="preserve" xmlns:serif="http://www.serif.com/" style="fill-rule:evenodd;clip-rule:evenodd;stroke-miterlimit:10;"><g id="order"><path d="M210.17,264.76c0,1.1 -0.9,2 -2,2l-38.34,0c-1.1,0 -2,-0.9 -2,-2l0,-36.64c0,-1.1 0.9,-2 2,-2l38.34,0c1.1,0 2,0.9 2,2l0,36.64Z" style="fill:none;fill-rule:nonzero;stroke:#fff;stroke-width:4px;"/><path d="M174.54,179.53c0,16.43 -38.9,30.03 -86.09,30.03c-47.19,-0 -85.95,-11.59 -85.95,-28.02c0,-16.43 38.77,-31.46 85.95,-31.46c47.2,0 86.09,13.03 86.09,29.45Z" style="fill:#00435f;fill-rule:nonzero;"/><path d="M3.37,183.55l-0.29,-11.48l172.04,0.57l-1.15,9.77l-170.6,1.14Z" style="fill:#00435f;fill-rule:nonzero;"/><ellipse cx="89.03" cy="171.96" rx="85.44" ry="29.74" style="fill:#fff;stroke:#00435f;stroke-width:2px;"/><path d="M82.18,0.36c-2.37,-0.64 7.62,10.75 7.25,17.78c-0.8,15.4 -20.97,7.45 -19.81,21.39c0.75,9.01 10.43,18.97 16.71,21.85c6.28,2.88 5.87,2.78 5.87,2.78c0,0 -14.59,-13.91 -10.01,-21.73c5.91,-10.08 17.11,-4.12 20.4,-14.53c3.56,-11.28 -2.65,-22.76 -20.41,-27.54Z" style="fill:#fff;fill-rule:nonzero;"/><path d="M180.96,243.08l9.68,9.22l23.7,-31.77" style="fill:none;fill-rule:nonzero;stroke:#ffc467;stroke-width:11px;stroke-linecap:round;"/><path d="M33.53,159.94c24.29,-19.99 80.48,-24.41 107.14,9.79c27.63,35.43 -99.59,25.07 -112.29,17.15c-16.45,-10.26 5.15,-26.94 5.15,-26.94Z" style="fill:#e6e6e6;fill-rule:nonzero;"/><path d="M53.43,147.97c18.24,-20.09 59.9,-25.15 79.22,8.36c20.02,34.73 -74.06,26.05 -83.37,18.36c-12.05,-9.95 4.15,-26.72 4.15,-26.72Z" style="fill:#ffc467;fill-rule:nonzero;"/><path d="M51.61,165.59c5.65,0.66 11.02,-2.71 16.71,-2.77c6.41,-0.06 11.94,3.99 17.7,6.69c5.76,2.7 13.78,3.65 17.67,-1.22c1.82,-2.28 2.52,-5.62 5.26,-6.79c1.87,-0.8 4.04,-0.26 6,0.28c4.71,1.31 9.41,2.62 14.12,3.93c1.93,0.54 3.97,1.08 5.92,0.62c2.85,-0.67 4.8,-3.45 4.99,-6.25c0.18,-2.8 -1.13,-5.54 -2.96,-7.74c-5.61,-6.69 -15.29,-8.6 -24.19,-9.66c-15.14,-1.79 -30.44,-2.39 -45.68,-1.78c-7.15,0.29 -20.94,0.57 -24.8,7.79c-3.39,6.33 2.01,16.05 9.26,16.9Z" style="fill:#96c122;fill-rule:nonzero;"/><path d="M56.52,132.77c17.87,-12.77 84.82,-22.44 79.3,6.82c-5,26.5 -75.21,19.26 -82.98,10.52c-9.26,-10.41 3.68,-17.34 3.68,-17.34Z" style="fill:#642f16;fill-rule:nonzero;"/><path d="M87.48,140.67c3.58,1.2 9.23,2.88 12.03,0.79c2.73,-2.04 3.36,-5.89 7.32,-6.19c2.36,-0.18 4.15,1.17 5.88,2.21c4.69,2.81 12.02,3.81 17.75,1.68c5.73,-2.13 8.62,-7.67 5.07,-11.17c-7.14,-7.04 -35.71,-4.97 -46.69,-3.91c-11.12,1.07 -31.98,-0.91 -40.79,3.92c-3.27,1.79 -3.09,12.66 3.39,14.03c6.81,1.44 11.45,-6.33 16.17,-7.08c7.66,-1.22 14.03,3.78 19.87,5.72Z" style="fill:#ff6a38;fill-rule:nonzero;"/><path d="M53.35,98.16c18.24,-20.09 59.9,-25.15 79.22,8.36c20.02,34.73 -74.06,26.05 -83.37,18.36c-12.06,-9.95 4.15,-26.72 4.15,-26.72Z" style="fill:#ffc467;fill-rule:nonzero;"/><path d="M75.02,95.99c-3.18,1.63 -6.17,5.84 -6.82,9.94c2.16,0.84 4.73,-0.09 6.18,-2.24c1.45,-2.15 1.69,-5.39 0.58,-7.79" style="fill:#fff;fill-rule:nonzero;"/><path d="M84.39,103.14c1.22,3.35 5.03,6.85 9.02,8c1.1,-2.04 0.5,-4.71 -1.46,-6.41c-1.96,-1.7 -5.14,-2.35 -7.66,-1.54" style="fill:#fff;fill-rule:nonzero;"/><path d="M95.93,92.23c1.22,3.35 5.03,6.85 9.02,8c1.1,-2.04 0.5,-4.71 -1.46,-6.41c-1.96,-1.71 -5.14,-2.35 -7.66,-1.54" style="fill:#fff;fill-rule:nonzero;"/></g></svg>