<?xml version="1.0" encoding="UTF-8" standalone="no"?><!DOCTYPE svg PUBLIC "-//W3C//DTD SVG 1.1//EN" "http://www.w3.org/Graphics/SVG/1.1/DTD/svg11.dtd"><svg width="100%" height="100%" viewBox="0 0 227 262" version="1.1" xmlns="http://www.w3.org/2000/svg" xmlns:xlink="http://www.w3.org/1999/xlink" xml:space="preserve" xmlns:serif="http://www.serif.com/" style="fill-rule:evenodd;clip-rule:evenodd;stroke-miterlimit:10;"><g><path d="M84.18,125.95l-35.62,20c-1.35,17.71 -6.19,35.8 -6.19,35.8l-41.84,28.67l59.33,51.1c0,0 19.52,-30.43 28.33,-33.37c8.81,-2.94 65.2,-18.21 71.07,-22.91c5.87,-4.7 28.89,-93.98 28.89,-93.98c-0,-0 -34.66,-35.48 -58.84,-29.37c-21.17,5.35 -39.33,46.98 -45.13,44.06Z" style="fill:#f9d4bb;fill-rule:nonzero;"/><path d="M198.21,91.85c-3.87,1.68 6.65,4.25 5.91,11.46c-0.52,5.05 8.87,-5.73 6.84,-9.61c-2.03,-3.88 -4.25,-5.55 -12.75,-1.85Z" style="fill:#ffecdf;fill-rule:nonzero;stroke:#875b52;stroke-width:2px;"/><path d="M198.5,136.07c0,0 8.54,3.1 1.94,8.93" style="fill:#ffecdf;fill-rule:nonzero;stroke:#875b52;stroke-width:2px;"/><path d="M127.07,1.06c14.14,-0.81 82.07,-2.8 86.05,5.06c2.2,4.35 -21.38,182.47 -29.07,187.37c-9.48,6.05 -99.27,-1.45 -98.09,-8.95c1.18,-7.5 31.12,-182.91 41.11,-183.48Z" style="fill:#00435f;fill-rule:nonzero;"/><path d="M129.81,7.52l74.36,2.09l-27.77,176.83l-82.5,-7.65l35.91,-171.27Z" style="fill:#fff;fill-rule:nonzero;"/><g><g><g><path d="M143.66,69.14l-14.91,-1.58l2.35,-15.03l14.92,1.58l-2.36,15.03Z" style="fill:#fff;fill-rule:nonzero;"/><path d="M144.64,70.43l-17.24,-1.82l2.72,-17.38l17.24,1.82l-2.72,17.38Zm-14.55,-3.92l12.59,1.33l1.99,-12.68l-12.59,-1.33l-1.99,12.68Z" style="fill-rule:nonzero;"/></g><path d="M140.66,65.17l-7.79,-0.82l1.23,-7.85l7.79,0.82l-1.23,7.85Z" style="fill-rule:nonzero;"/><path d="M131.94,75.93l-5.31,-0.56l0.84,-5.35l5.31,0.56l-0.84,5.35Z" style="fill-rule:nonzero;"/><path d="M140.99,82.36l-10.11,-1.06l0.84,-5.36l10.11,1.07l-0.84,5.35Z" style="fill-rule:nonzero;"/><path d="M142.35,77.03l-5.31,-0.56l0.83,-5.35l5.32,0.56l-0.84,5.35Z" style="fill-rule:nonzero;"/><path d="M171.12,80.07l-5.31,-0.56l0.84,-5.36l5.31,0.56l-0.84,5.36Z" style="fill-rule:nonzero;"/><path d="M145.88,101.37l-6.53,-0.62l2.38,-12.89l6.12,0.98l-1.97,12.53Z" style="fill-rule:nonzero;"/><path d="M150.13,107.29l-5.31,-0.56l0.84,-5.35l5.31,0.56l-0.84,5.35Z" style="fill-rule:nonzero;"/><path d="M153.05,89.39l-5.31,-0.56l0.84,-5.36l5.31,0.56l-0.84,5.36Z" style="fill-rule:nonzero;"/><path d="M157.3,95.31l-5.31,-0.56l0.84,-5.36l5.31,0.56l-0.84,5.36Z" style="fill-rule:nonzero;"/><path d="M156.6,99.76l-5.31,-0.56l0.84,-5.35l5.31,0.56l-0.84,5.35Z" style="fill-rule:nonzero;"/><path d="M167.04,103.8l-5.32,-0.56l0.84,-5.36l5.32,0.56l-0.84,5.36Z" style="fill-rule:nonzero;"/><path d="M164.16,89.87l-5.31,-0.56l0.84,-5.36l5.31,0.57l-0.84,5.35Z" style="fill-rule:nonzero;"/><path d="M160.14,70.8l-5.32,-0.56l0.84,-5.36l5.32,0.56l-0.84,5.36Z" style="fill-rule:nonzero;"/><path d="M147.15,77.55l-5.32,-0.56l0.84,-5.35l5.32,0.56l-0.84,5.35Z" style="fill-rule:nonzero;"/><path d="M151.77,59.23l-5.31,-0.56l0.84,-5.36l5.31,0.56l-0.84,5.36Z" style="fill-rule:nonzero;"/><path d="M156.69,59.75l-5.31,-0.56l0.84,-5.36l5.31,0.56l-0.84,5.36Z" style="fill-rule:nonzero;"/><path d="M130.03,86.67l-5.31,-0.56l0.84,-5.36l5.31,0.56l-0.84,5.36Z" style="fill-rule:nonzero;"/><path d="M151.69,107.46l-5.32,-0.56l0.84,-5.36l5.32,0.56l-0.84,5.36Z" style="fill-rule:nonzero;"/><path d="M176.63,110.09l-5.31,-0.56l0.84,-5.36l5.31,0.56l-0.84,5.36Z" style="fill-rule:nonzero;"/><path d="M171.54,109.55l-5.32,-0.56l0.84,-5.35l5.32,0.56l-0.84,5.35Z" style="fill-rule:nonzero;"/><path d="M166.22,108.99l-5.31,-0.56l0.84,-5.36l5.31,0.57l-0.84,5.35Z" style="fill-rule:nonzero;"/><path d="M160.98,65.41l-5.31,-0.56l0.84,-5.36l5.31,0.57l-0.84,5.35Z" style="fill-rule:nonzero;"/><path d="M165.23,71.33l-5.32,-0.56l0.84,-5.35l5.32,0.56l-0.84,5.35Z" style="fill-rule:nonzero;"/><path d="M176.43,80.64l-5.31,-0.56l0.84,-5.35l5.31,0.56l-0.84,5.35Z" style="fill-rule:nonzero;"/><path d="M164.94,84.88l-11.22,-1.19l0.84,-5.35l11.22,1.18l-0.84,5.36Z" style="fill-rule:nonzero;"/><path d="M169.08,90.79l-5.32,-0.56l0.84,-5.36l5.32,0.56l-0.84,5.36Z" style="fill-rule:nonzero;"/><path d="M150.02,89.05l-8.39,-0.97l0.84,-5.35l8.39,0.96l-0.84,5.36Z" style="fill-rule:nonzero;"/><path d="M155.04,70.26l-5.31,-0.56l0.84,-5.36l5.31,0.56l-0.84,5.36Z" style="fill-rule:nonzero;"/><path d="M164.39,76.7l-10.41,-1.09l0.84,-5.36l10.41,1.1l-0.84,5.35Z" style="fill-rule:nonzero;"/><path d="M173.62,96.3l-5.32,-0.56l0.84,-5.36l5.32,0.56l-0.84,5.36Z" style="fill-rule:nonzero;"/><path d="M177.86,102.22l-5.31,-0.56l3.3,-21.05l5.31,0.56l-3.3,21.05Z" style="fill-rule:nonzero;"/><path d="M168.3,95.75l-5.31,-0.56l0.83,-5.35l5.32,0.56l-0.84,5.35Z" style="fill-rule:nonzero;"/><g><path d="M137.94,105.38l-14.91,-1.57l2.35,-15.03l14.92,1.57l-2.36,15.03Z" style="fill:#fff;fill-rule:nonzero;"/><path d="M138.92,106.68l-17.24,-1.82l2.72,-17.38l17.24,1.82l-2.72,17.38Zm-14.55,-3.92l12.59,1.33l1.99,-12.68l-12.59,-1.33l-1.99,12.68Z" style="fill-rule:nonzero;"/></g><g><path d="M181.83,73.16l-14.92,-1.57l2.36,-15.03l14.91,1.58l-2.35,15.02Z" style="fill:#fff;fill-rule:nonzero;"/><path d="M182.81,74.46l-17.24,-1.82l2.72,-17.38l17.24,1.82l-2.72,17.38Zm-14.55,-3.92l12.58,1.33l1.99,-12.68l-12.58,-1.33l-1.99,12.68Z" style="fill-rule:nonzero;"/></g><path d="M134.98,101.42l-7.79,-0.82l1.23,-7.85l7.79,0.82l-1.23,7.85Z" style="fill-rule:nonzero;"/><path d="M178.83,69.2l-7.79,-0.82l1.23,-7.85l7.79,0.82l-1.23,7.85Z" style="fill-rule:nonzero;"/></g></g><path d="M92.14,129.65c4.93,-10.12 -6.46,-19.97 2.94,-23.5c33.23,-12.46 16.12,-47.03 16.12,-47.03l-6.46,-0l-13.51,18.21l-9.99,-0c-2.94,-0 -28.19,39.94 -29.96,43.47c-0.46,0.93 -1.05,5.78 -1.66,12.42c-0.35,3.83 -0.71,8.25 -1.07,12.86l44.65,-12.57c-1.51,-0.76 -1.96,-2.01 -1.06,-3.86Z" style="fill:#f9d4bb;fill-rule:nonzero;"/><g><path d="M224.46,87.6c-7.41,-12.35 -32.31,-2.94 -29.37,7.05c2.94,9.99 5.56,14.1 14.53,11.16c8.97,-2.94 18.37,-12.34 14.84,-18.21Z" style="fill:#f9d4bb;fill-rule:nonzero;"/><path d="M225.95,114.32c1.33,-8.63 -10.3,-12.33 -18.95,-7.64c-8.65,4.7 -13.94,5.87 -10.42,12.92c3.52,7.05 7.12,11.75 14.13,10.57c7.02,-1.17 14.07,-8.22 15.24,-15.85Z" style="fill:#f9d4bb;fill-rule:nonzero;"/><path d="M191.36,141.64c4.04,6.59 16.69,14.56 25.5,-2.71c8.81,-17.27 -31.62,-7.28 -25.5,2.71Z" style="fill:#f9d4bb;fill-rule:nonzero;"/><path d="M181.29,154.62c-2.09,5.34 12.05,10.57 12.05,10.57l-1.78,5.83c0,-0 13.15,3.52 17.59,-8.2c4.45,-11.72 -21.04,-25.61 -27.86,-8.2Z" style="fill:#f9d4bb;fill-rule:nonzero;"/></g></g></svg>