<?xml version="1.0" encoding="UTF-8" standalone="no"?><!DOCTYPE svg PUBLIC "-//W3C//DTD SVG 1.1//EN" "http://www.w3.org/Graphics/SVG/1.1/DTD/svg11.dtd"><svg width="100%" height="100%" viewBox="0 0 226 262" version="1.1" xmlns="http://www.w3.org/2000/svg" xmlns:xlink="http://www.w3.org/1999/xlink" xml:space="preserve" xmlns:serif="http://www.serif.com/" style="fill-rule:evenodd;clip-rule:evenodd;stroke-miterlimit:10;"><g id="smartphone"><path d="M83.744,125.773l-35.62,20c-1.35,17.71 -6.19,35.8 -6.19,35.8l-41.84,28.67l59.33,51.1c-0,0 19.52,-30.43 28.33,-33.37c8.81,-2.94 65.2,-18.21 71.07,-22.91c5.87,-4.7 28.89,-93.98 28.89,-93.98c-0,0 -34.66,-35.48 -58.84,-29.37c-21.17,5.35 -39.33,46.98 -45.13,44.06Z" style="fill:#f9d4bb;fill-rule:nonzero;"/><path d="M197.774,91.673c-3.87,1.68 6.65,4.25 5.91,11.46c-0.52,5.05 8.87,-5.73 6.84,-9.61c-2.03,-3.88 -4.25,-5.55 -12.75,-1.85Z" style="fill:#ffecdf;fill-rule:nonzero;stroke:#875b52;stroke-width:2px;"/><path d="M198.064,135.893c-0,0 8.54,3.1 1.94,8.93" style="fill:#ffecdf;fill-rule:nonzero;stroke:#875b52;stroke-width:2px;"/><path d="M126.634,0.883c14.14,-0.81 82.07,-2.8 86.05,5.06c2.2,4.35 -21.38,182.47 -29.07,187.37c-9.48,6.05 -99.27,-1.45 -98.09,-8.95c1.18,-7.5 31.12,-182.91 41.11,-183.48Z" style="fill:#00435f;fill-rule:nonzero;"/><path d="M129.374,7.343l74.36,2.09l-27.77,176.83l-82.5,-7.65l35.91,-171.27Z" style="fill:#fff;fill-rule:nonzero;"/><clipPath id="_clip1"><path d="M129.374,7.343l74.36,2.09l-27.77,176.83l-82.5,-7.65l35.91,-171.27Z" clip-rule="nonzero"/></clipPath><g clip-path="url(#_clip1)"><g><path d="M156.507,55.123c17.785,0.742 30.054,15.718 27.38,33.423c-2.674,17.705 -19.284,31.476 -37.069,30.734c-17.786,-0.742 -30.054,-15.719 -27.381,-33.423c2.674,-17.705 19.284,-31.476 37.07,-30.734Z" style="fill:#cd3385;"/><path d="M139.761,65.244c-0.997,0.409 -4.166,2.615 -4.585,3.634c-1.133,2.754 -1.984,5.596 -2.531,8.457c-0.226,1.175 -0.401,2.359 -0.395,3.524c0.013,2.963 1.18,5.619 2.328,8.186c0.296,0.659 0.605,1.338 1.147,1.787c0.887,0.734 2.212,0.714 3.434,0.545c0.206,-0.03 0.418,-0.064 0.608,-0.171c0.283,-0.161 0.475,-0.459 0.624,-0.754c1.069,-2.122 2.824,-5.367 2.29,-7.48c-0.54,-2.138 -1.194,-4.687 -1.736,-6.824c-0.631,-2.496 -0.363,-3.847 -1.109,-6.294c-0.402,-1.322 -1.274,-3.686 -0.075,-4.61Z" style="fill:#030303;fill-rule:nonzero;"/><path d="M167.73,94.459c2.249,-0.262 8.878,-5.36 8.005,-6.911c-0.873,-1.552 -8.298,-1.182 -8.908,-2.603c-1.055,-2.459 -1.52,-14.985 -7.604,-17.222c-1.704,-0.628 -19.089,-1.549 -19.995,2.329c-0.906,3.877 2.488,13.617 2.488,13.617c0,-0 -0.823,-0.456 -3.881,-1.315c-4.902,-1.378 -5.901,10.378 -2.871,12.083c0.965,0.544 2.336,0.944 3.478,1.207l-2.757,18.453l15.112,2.921l3.221,-9.635c5.023,0.756 10.189,-0.339 11.919,-1.848c1.633,-1.426 1.235,-6.889 1.235,-6.889c0,-0 0.227,-4.148 0.558,-4.187Z" style="fill:#f7dac6;fill-rule:nonzero;"/><path d="M159.236,81.038c1.13,-0.122 2.05,1.05 2.054,2.617c0.003,1.566 -0.91,2.937 -2.039,3.059c-1.13,0.122 -2.049,-1.051 -2.053,-2.617c-0.004,-1.567 0.909,-2.937 2.038,-3.059Z"/><g><path d="M170.875,98.272c-1.693,1.372 -4.648,1.389 -5.102,-0.723c-0.054,-1.973 0.945,-2.624 1.379,-2.94c1.865,-1.23 3.779,1.219 5.396,-2.262c1.304,1.477 0.335,4.721 -1.673,5.925Z" style="fill:#030303;fill-rule:nonzero;"/><path d="M165.013,98.401c-4.668,4.209 -9.645,-0.493 -6.899,-5.556c0.665,1.76 1.59,3.349 3.831,1.807c3.052,-1.549 5.464,0.939 3.068,3.749Z" style="fill:#030303;fill-rule:nonzero;"/></g><path d="M146.34,61.707c3.281,-0.462 9.655,-2.883 12.968,-1.517c1.008,0.259 9.973,0.584 9.715,1.274c-4.959,13.237 -20.386,7.673 -20.386,7.673c0,-0 2.565,5.58 1.725,6.616c-0.841,1.036 -3.5,2.656 -3.5,2.656l0.963,8.678l-2.75,0.782l-5.326,-5.44l-3.14,-14.985c-0.003,-0.001 4.306,-4.973 9.731,-5.737Z" style="fill:#030303;fill-rule:nonzero;"/><g><path d="M135.674,105.84l-1.798,9.61c4.092,2.419 8.91,3.889 14.215,4.11c1.545,0.065 3.083,0.019 4.603,-0.125l1.395,-7.77l-18.415,-5.825Z" style="fill:#fff;fill-rule:nonzero;"/><path d="M148.029,119.969c-5.25,-0.219 -10.094,-1.619 -14.394,-4.162l-0.217,-0.128l1.943,-10.382l19.193,6.072l-1.514,8.437l-0.351,0.033c-1.561,0.152 -3.129,0.194 -4.66,0.13Zm-13.695,-4.749c4.138,2.399 8.787,3.722 13.819,3.932c1.378,0.057 2.787,0.025 4.195,-0.094l1.273,-7.098l-17.633,-5.579l-1.654,8.839Z" style="fill-rule:nonzero;"/></g><g><path d="M158.956,110.518c-0.636,-0.071 -1.326,0.584 -1.888,1.206c-1.611,1.782 -3.101,3.727 -4.439,5.788c0.323,1.224 1.232,1.914 2.167,2.409c0.829,0.439 1.892,1.151 2.988,0.764c2.096,-0.738 2.422,-4.428 2.423,-6.172c0.002,-1.255 0.01,-3.854 -1.251,-3.995Z" style="fill:#030303;fill-rule:nonzero;"/><path d="M154.138,118.473c0.677,-0.694 0.824,-1.806 0.446,-2.577c-0.378,-0.771 -1.197,-1.205 -2.067,-1.264c-0.569,-0.039 -1.279,0.152 -1.556,0.721c-0.147,0.303 -0.133,0.638 -0.101,0.95c0.12,1.186 0.506,2.42 1.493,2.932c0.987,0.51 2.649,-0.199 2.789,-1.422" style="fill:#030303;fill-rule:nonzero;"/><path d="M151.702,114.896c-0.337,-1.674 -1.431,-3.064 -2.92,-3.707c-0.188,-0.082 -0.409,-0.149 -0.613,-0.045c-0.224,0.114 -0.333,0.384 -0.41,0.626c-0.691,2.154 -0.834,4.372 -0.973,6.559c-0.077,1.221 -0.038,2.674 0.964,3.158c0.741,0.359 1.746,-0.014 2.442,-0.66c0.694,-0.645 1.147,-1.511 1.583,-2.352c0.528,-1.024 0.137,-2.541 -0.073,-3.579Z" style="fill:#030303;fill-rule:nonzero;"/></g></g></g><path d="M91.704,129.473c4.93,-10.12 -6.46,-19.97 2.94,-23.5c33.23,-12.46 16.12,-47.03 16.12,-47.03l-6.46,0l-13.51,18.21l-9.99,0c-2.94,0 -28.19,39.94 -29.96,43.47c-0.46,0.93 -1.05,5.78 -1.66,12.42c-0.35,3.83 -0.71,8.25 -1.07,12.86l44.65,-12.57c-1.51,-0.76 -1.96,-2.01 -1.06,-3.86Z" style="fill:#f9d4bb;fill-rule:nonzero;"/><g><path d="M224.024,87.423c-7.41,-12.35 -32.31,-2.94 -29.37,7.05c2.94,9.99 5.56,14.1 14.53,11.16c8.97,-2.94 18.37,-12.34 14.84,-18.21Z" style="fill:#f9d4bb;fill-rule:nonzero;"/><path d="M225.514,114.143c1.33,-8.63 -10.3,-12.33 -18.95,-7.64c-8.65,4.7 -13.94,5.87 -10.42,12.92c3.52,7.05 7.12,11.75 14.13,10.57c7.02,-1.17 14.07,-8.22 15.24,-15.85Z" style="fill:#f9d4bb;fill-rule:nonzero;"/><path d="M190.924,141.463c4.04,6.59 16.69,14.56 25.5,-2.71c8.81,-17.27 -31.62,-7.28 -25.5,2.71Z" style="fill:#f9d4bb;fill-rule:nonzero;"/><path d="M180.854,154.443c-2.09,5.34 12.05,10.57 12.05,10.57l-1.78,5.83c-0,0 13.15,3.52 17.59,-8.2c4.45,-11.72 -21.04,-25.61 -27.86,-8.2Z" style="fill:#f9d4bb;fill-rule:nonzero;"/></g></g></svg>