<?xml version="1.0" encoding="UTF-8" standalone="no"?><!DOCTYPE svg PUBLIC "-//W3C//DTD SVG 1.1//EN" "http://www.w3.org/Graphics/SVG/1.1/DTD/svg11.dtd"><svg width="100%" height="100%" viewBox="0 0 318 355" version="1.1" xmlns="http://www.w3.org/2000/svg" xmlns:xlink="http://www.w3.org/1999/xlink" xml:space="preserve" xmlns:serif="http://www.serif.com/" style="fill-rule:evenodd;clip-rule:evenodd;stroke-linejoin:round;stroke-miterlimit:2;"><g id="tablet"><path d="M84.118,218.938l-35.62,20c-1.35,17.71 -6.19,35.8 -6.19,35.8l-41.84,28.67l59.33,51.1c-0,-0 19.52,-30.43 28.33,-33.37c8.81,-2.94 65.2,-18.21 71.07,-22.91c5.87,-4.7 28.89,-93.98 28.89,-93.98c-0,-0 -34.66,-35.48 -58.84,-29.37c-21.17,5.35 -39.33,46.98 -45.13,44.06Z" style="fill:#f9d4bb;fill-rule:nonzero;"/><path d="M160.456,1.642c25.641,-1.194 148.825,-4.129 156.042,7.462c3.99,6.416 -38.77,269.098 -52.715,276.325c-17.191,8.922 -180.016,-2.139 -177.876,-13.2c2.14,-11.06 56.433,-269.746 74.549,-270.587Z" style="fill:#00435f;fill-rule:nonzero;"/><path d="M165.425,11.169l134.844,3.082l-50.358,260.781l-149.605,-11.282l65.119,-252.581Z" style="fill:#fff;fill-rule:nonzero;"/><g><path d="M216.204,95.435c17.786,0.742 30.054,15.718 27.381,33.423c-2.674,17.705 -19.284,31.476 -37.07,30.734c-17.785,-0.742 -30.054,-15.719 -27.38,-33.423c2.674,-17.705 19.284,-31.477 37.069,-30.734Z" style="fill:#cd3385;"/><path d="M199.458,105.556c-0.997,0.409 -4.166,2.614 -4.584,3.633c-1.133,2.755 -1.984,5.597 -2.532,8.458c-0.225,1.175 -0.4,2.359 -0.395,3.524c0.014,2.963 1.181,5.619 2.329,8.186c0.295,0.659 0.604,1.338 1.146,1.787c0.888,0.734 2.213,0.714 3.435,0.544c0.206,-0.029 0.418,-0.063 0.607,-0.17c0.284,-0.161 0.476,-0.459 0.625,-0.754c1.069,-2.122 2.823,-5.367 2.29,-7.48c-0.54,-2.138 -1.195,-4.688 -1.736,-6.824c-0.632,-2.496 -0.363,-3.847 -1.109,-6.295c-0.402,-1.321 -1.274,-3.685 -0.076,-4.609Z" style="fill:#030303;fill-rule:nonzero;"/><path d="M227.428,134.771c2.249,-0.262 8.877,-5.36 8.005,-6.911c-0.873,-1.552 -8.298,-1.182 -8.908,-2.603c-1.055,-2.459 -1.52,-14.985 -7.604,-17.223c-1.704,-0.627 -19.089,-1.548 -19.995,2.33c-0.906,3.877 2.488,13.617 2.488,13.617c0,-0 -0.824,-0.456 -3.882,-1.316c-4.902,-1.377 -5.9,10.379 -2.871,12.084c0.966,0.544 2.337,0.943 3.479,1.207l-2.757,18.453l15.112,2.921l3.221,-9.635c5.022,0.756 10.189,-0.34 11.919,-1.848c1.633,-1.426 1.235,-6.89 1.235,-6.89c0,0 0.227,-4.147 0.558,-4.186Z" style="fill:#f7dac6;fill-rule:nonzero;"/><path d="M218.934,121.35c1.129,-0.122 2.049,1.05 2.053,2.617c0.004,1.566 -0.909,2.937 -2.039,3.059c-1.129,0.122 -2.049,-1.051 -2.053,-2.618c-0.004,-1.566 0.91,-2.937 2.039,-3.058Z"/><g><path d="M230.572,138.584c-1.693,1.372 -4.647,1.389 -5.101,-0.723c-0.054,-1.973 0.945,-2.624 1.379,-2.94c1.865,-1.23 3.779,1.219 5.395,-2.262c1.304,1.477 0.335,4.72 -1.673,5.925Z" style="fill:#030303;fill-rule:nonzero;"/><path d="M224.711,138.713c-4.668,4.209 -9.645,-0.493 -6.899,-5.556c0.665,1.76 1.59,3.348 3.831,1.807c3.051,-1.549 5.464,0.938 3.068,3.749Z" style="fill:#030303;fill-rule:nonzero;"/></g><path d="M206.038,102.019c3.281,-0.462 9.655,-2.883 12.967,-1.517c1.009,0.259 9.973,0.584 9.715,1.274c-4.958,13.237 -20.385,7.672 -20.385,7.672c0,0 2.565,5.581 1.724,6.617c-0.84,1.036 -3.499,2.655 -3.499,2.655l0.963,8.679l-2.751,0.782l-5.326,-5.441l-3.139,-14.985c-0.003,0 4.306,-4.972 9.731,-5.736Z" style="fill:#030303;fill-rule:nonzero;"/><g><path d="M195.372,146.152l-1.798,9.61c4.091,2.419 8.91,3.889 14.215,4.11c1.545,0.065 3.082,0.018 4.603,-0.125l1.395,-7.77l-18.415,-5.825Z" style="fill:#fff;fill-rule:nonzero;"/><path d="M207.727,160.281c-5.25,-0.219 -10.094,-1.619 -14.394,-4.163l-0.217,-0.127l1.943,-10.382l19.192,6.072l-1.514,8.437l-0.35,0.033c-1.561,0.152 -3.129,0.194 -4.66,0.13Zm-13.696,-4.749c4.138,2.399 8.787,3.721 13.819,3.931c1.378,0.058 2.788,0.026 4.196,-0.093l1.273,-7.098l-17.634,-5.579l-1.654,8.839Z" style="fill-rule:nonzero;"/></g><g><path d="M218.653,150.83c-0.635,-0.071 -1.326,0.584 -1.887,1.206c-1.611,1.782 -3.101,3.727 -4.439,5.788c0.322,1.224 1.231,1.914 2.166,2.408c0.83,0.44 1.892,1.152 2.989,0.765c2.096,-0.738 2.422,-4.428 2.422,-6.172c0.003,-1.255 0.011,-3.854 -1.251,-3.995Z" style="fill:#030303;fill-rule:nonzero;"/><path d="M213.836,158.785c0.677,-0.694 0.823,-1.806 0.446,-2.577c-0.378,-0.771 -1.197,-1.205 -2.067,-1.264c-0.569,-0.039 -1.279,0.152 -1.557,0.721c-0.146,0.303 -0.132,0.638 -0.1,0.95c0.12,1.186 0.505,2.42 1.492,2.931c0.988,0.511 2.65,-0.198 2.79,-1.421" style="fill:#030303;fill-rule:nonzero;"/><path d="M211.4,155.207c-0.337,-1.674 -1.431,-3.063 -2.921,-3.706c-0.187,-0.082 -0.409,-0.149 -0.613,-0.045c-0.223,0.114 -0.332,0.384 -0.41,0.626c-0.69,2.154 -0.834,4.372 -0.972,6.559c-0.077,1.221 -0.039,2.674 0.964,3.158c0.741,0.358 1.746,-0.014 2.441,-0.66c0.695,-0.645 1.148,-1.511 1.584,-2.352c0.528,-1.024 0.137,-2.541 -0.073,-3.58Z" style="fill:#030303;fill-rule:nonzero;"/></g></g><path d="M92.078,222.638c4.93,-10.12 -6.46,-19.97 2.94,-23.5c33.23,-12.46 16.12,-47.03 16.12,-47.03l-6.46,-0l-13.51,18.21l-9.99,-0c-2.94,-0 -28.19,39.94 -29.96,43.47c-0.46,0.93 -1.05,5.78 -1.66,12.42c-0.35,3.83 -0.71,8.25 -1.07,12.86l44.65,-12.57c-1.51,-0.76 -1.96,-2.01 -1.06,-3.86Z" style="fill:#f9d4bb;fill-rule:nonzero;"/></g></svg>