<svg viewBox="0 0 332 282" xmlns="http://www.w3.org/2000/svg" xml:space="preserve" style="fill-rule:evenodd;clip-rule:evenodd;stroke-linecap:round;stroke-miterlimit:10">
  <path d="M16.95 265.4c-26.37 6.24-21.66 13.52 13.19 14.56 35.12 1.05 268.55 2.17 282.57.69 13.19-1.39-21.66-14.21-35.79-14.21-14.13 0-259.97-1.04-259.97-1.04Z" style="fill:#e6e6e655;fill-rule:nonzero" />
  <path d="m185.26 177.95-17.97 35.43 4.23 13.75 12.69-10.58 1.05-38.6Z" style="fill:#af436e;fill-rule:nonzero" />
  <path d="M102.78 175.84c-28.91 0-52.35 23.44-52.35 52.35s23.44 52.35 52.35 52.35 52.35-23.44 52.35-52.35-23.44-52.35-52.35-52.35Zm-.38 95.82c-23.97 0-43.39-19.43-43.39-43.39s19.43-43.39 43.39-43.39 43.39 19.43 43.39 43.39-19.42 43.39-43.39 43.39Z" style="fill-rule:nonzero" />
  <circle cx="102.4" cy="228.26" r="43.39" style="fill:#fff;fill-opacity:.2" />
  <path d="M279.15 175.84c-28.91 0-52.35 23.44-52.35 52.35s23.44 52.35 52.35 52.35 52.35-23.44 52.35-52.35-23.44-52.35-52.35-52.35Zm-.37 95.82c-23.97 0-43.39-19.43-43.39-43.39s19.43-43.39 43.39-43.39 43.39 19.43 43.39 43.39-19.43 43.39-43.39 43.39Z" style="fill-rule:nonzero" />
  <circle cx="278.78" cy="228.26" r="43.39" style="fill:#fff;fill-opacity:.2" />
  <path d="m219.051 231.457-18.328 6.836 3.142 8.424 18.328-6.836-3.142-8.424Z" />
  <circle cx="278.89" cy="228.98" r="8.72" />
  <path d="M253.47 157.33s-31.73-17.98-64.51 36.48l-3.7-15.86s30.67-49.17 65.04-34.9l3.17 14.28Z" style="fill:#a1336d;fill-rule:nonzero" />
  <path d="m134.5 159.97 28.56 68.74h16.92l76.14-62.92 4.23 13.22 6.87-1.59-18.06-55.05-6.87 3.18 11.18 31.78-81.95 61.87-24.74-59.75-12.28.52Z" style="fill:#a1336d;fill-rule:nonzero" />
  <path d="m250.3 143.05 13.22-6.34 2.64 6.34-12.16 5.29-3.7-5.29ZM254 156.27l13.22-6.34 2.64 6.34-12.16 5.29-3.7-5.29ZM259.92 165.31c-1.83.58-1.82 6.25.01 12.59l12.13 41.97c1.83 6.34 4.71 10.89 6.4 10.1 1.69-.79 1.59-6.62-.21-12.97l-11.73-41.21c-1.8-6.34-4.77-11.06-6.6-10.48Z" style="fill:#a1336d;fill-rule:nonzero" />
  <path d="M120.76 146.23c-8.46 4.76-12.69 17.98 34.37 16.39 47.05-1.59-34.37-16.39-34.37-16.39Z" style="fill-rule:nonzero" />
  <path d="m183.46 213.23-72.48-.44s-17.72-.62-17.69 14.16c.02 10.09 7.99 16.53 17.59 16.53s73.31.57 73.31.57 18.33-1.16 18.33-16.25c.01-12.98-19.06-14.57-19.06-14.57Z" style="fill:#b3b3b3;fill-rule:nonzero" />
  <path d="M184.8 214.27c-1.58-.46-2.55.47-2.15 2.07l5.7 22.68c.4 1.6 2.02 2.49 3.59 1.99l36.6-11.82c1.57-.51 1.99-1.96.94-3.23l-1.8-2.17c-1.06-1.27-3.26-2.42-4.91-2.57l-17.1-1.5c-1.64-.14-4.28-.64-5.87-1.1l-15-4.35Z" style="fill:#4d4d4d;fill-rule:nonzero" />
  <path d="M121.81 121.9s-8.33 9.61-7.4 20.09c.9 10.18 67.04 33.66 67.04 33.66l-15.29 42.01s27.96 3.4 38.67 2.06c12.24-1.53-3.58-55.17-3.58-55.17l-46.66-38.95-32.78-3.7Z" style="fill:#00435f;fill-rule:nonzero" />
  <path d="m171.41 64.75 8.88 8.35 5.27-13.05s5.03-5.49 6.94-10.9c1.91-5.41-7.47-17.71-7.47-17.71l-23.1 29.53 9.48 3.78Z" style="fill:#f9d4bb;fill-rule:nonzero" />
  <path d="M181.02 35.59c-10.48 27.47-64.36 19.12-67.45-1.27-4.38-28.82 37.5-8.81 37.5-8.81-7.08-20.85 29.1-23.61 29.57-23.65.47-.04 7.06-4.58 18.77 1.96s10.36 17.15 8.61 22.55" style="fill-rule:nonzero" />
  <path d="M204.81 50.05c-1.11 1.09-15.82 5.63-21.09-10.18 0 0-7.99 1.66-7.84-5.86.15-7.51 6.46-3.03 6.46-3.03s12.21-2.75 17.96-15.23c.29-.62 1.54-.12 1.92.09 8.97 5.01 5.02 16.07 5.01 15.84-.02-.25 5.38 1.28 4.74 4.56-.47 2.44-3.56 2.25-4.03 2.29l-3.13 11.52Z" style="fill:#f9d4bb;fill-rule:nonzero" />
  <path d="M202.311 26.6c.898-.065 1.735 1.379 1.869 3.223.134 1.844-.486 3.394-1.383 3.46-.897.065-1.734-1.379-1.869-3.224-.134-1.844.486-3.394 1.383-3.459Z" />
  <path d="m191.61 71.14 47.59 36.48s10.05-5.29 12.16-3.17c2.11 2.11 8.46 5.82 8.46 7.93 0 2.11-2.28 8.67-3.86 10.26-1.58 1.59-5.44-.54-5.44-.54s1.79-9.69-6.56-7.6c-6.48 1.62-2.36 7.9-.78 8.96 1.59 1.06-9.8-5.26-13.5-10.02-3.7-4.76-41.27-25.47-41.27-25.47l3.2-16.83Z" style="fill:#f9d4bb;fill-rule:nonzero" />
  <path d="M102.78 107.1c1.59 7.4 35.94 32.78 62.38 25.91l17.46-40.19 5.29 1.06 7.81-22.1s-25.26-23.38-29.49-20.2c-4.23 3.17-4.76 2.64-5.29 3.17-3.7 3.7-58.27 51.83-58.16 52.35Z" style="fill:#ff6a38;fill-rule:nonzero" />
  <path d="M246.97 113.25c-1.92-.2-19.62 8.76-21.01 9.43-7.52 3.6-4.32 12.43 3.72 10.18.39-.11 20.38-10.35 20.8-10.92 2.86-3.87 1.31-8.2-3.51-8.69Z" style="fill-rule:nonzero" />
  <path d="m259.82 126.13 11.1 41.78 28.03-1.06 7.08-13.08-2.89-40.18-30.1 1.44-13.22 11.1Z" style="fill:#b3b3b3;fill-rule:nonzero" />
  <path d="m291.54 125.61 11.6-11.7 3.74 39.72-7.93 13.22-7.41-41.24Z" style="fill:#ffc467;fill-rule:nonzero" />
  <path d="M290.96 113.24c-2.64-2.19-11.93-3.02-13.68-2.15-1.74.87-6.69 27.09-5.64 29.09 1.05 2 13.06 4.49 13.97 3.8.91-.69 6.53-29.76 5.35-30.74Z" style="fill:#00435f;fill-rule:nonzero" />
  <path d="m287.79 114.94-8.94-1.04-5.4 25.95 9.88 2.58 4.46-27.49Z" style="fill:#fff;fill-rule:nonzero" />
  <path d="m259.82 126.13 31.72-.52 7.41 41.24-28.03 1.06-11.1-41.78Z" style="fill:#4d4d4d;fill-rule:nonzero" />
  <path d="M198.09 40.17c3.26 4.74 7.47 3.54 7.47 3.54" style="fill:none;fill-rule:nonzero;stroke:#000;stroke-width:1.5px" />
  <path d="M195.66 117.31s7.55-1.95 9.53-.33c1.98 1.61.38 4.06.38 4.06s-8.21 1.84-9.13 1.33c-.92-.52-.78-5.06-.78-5.06ZM191.16 129.12s7.77 4.25 9.32 3.93c1.55-.32 9.94-8.09 7.33-7.98-2.61.11-8.87 3.07-8.87 3.07l-10.8-5.09 3.02 6.07Z" style="fill:#f9d4bb;fill-rule:nonzero" />
  <path d="M173.63 118.77s11.97 9.44 13.73 10.61c1.76 1.18 11.23 3.19 12.55 3.59 1.32.39 3.41-2.41 2.09-3.59-1.32-1.18-.17-2.43-1.49-2.83-1.32-.39-9.94-6.46-8.49-8.13 1.45-1.67 1.96-7.21 4.56-7.66 2.61-.44 2.47-2.33 2.69-5.91.07-1.09-9.46.57-11.09 2.2-2.22 2.22-4.12 4.3-4.12 4.3l-8.76-.67-1.67 8.09Z" style="fill:#f9d4bb;fill-rule:nonzero" />
  <path d="M190.87 120.7c4.56-4.24 14.98-5.31 19.81 1.77 5.01 7.34-18.52 5.5-20.85 3.88-3.01-2.11 1.04-5.65 1.04-5.65Z" style="fill:#ffc467;fill-rule:nonzero" />
  <path d="M190.42 124.42c1.41.14 2.76-.57 4.18-.58 1.6-.01 2.99.84 4.43 1.41 1.44.57 3.45.77 4.42-.26.45-.48.63-1.19 1.31-1.43.47-.17 1.01-.06 1.5.06 1.18.28 2.35.55 3.53.83.48.11.99.23 1.48.13.71-.14 1.2-.73 1.25-1.32.05-.59-.28-1.17-.74-1.63-1.4-1.41-3.82-1.82-6.05-2.04-3.79-.38-7.61-.5-11.42-.38-1.79.06-5.24.12-6.2 1.65-.86 1.33.49 3.38 2.31 3.56Z" style="fill:#96c122;fill-rule:nonzero" />
  <path d="M191.64 117.49c4.47-2.7 21.21-4.74 19.83 1.44-1.25 5.6-18.81 4.07-20.75 2.22-2.31-2.2.92-3.66.92-3.66Z" style="fill:#642f16;fill-rule:nonzero" />
  <path d="M199.39 119.16c.9.25 2.31.61 3.01.17.68-.43.84-1.24 1.83-1.31.59-.04 1.04.25 1.47.47 1.17.59 3.01.8 4.44.36 1.43-.44 2.16-1.62 1.27-2.36-1.78-1.49-8.93-1.05-11.68-.83-2.78.23-8-.19-10.2.83-.82.38-.77 2.67.85 2.96 1.7.31 2.86-1.34 4.04-1.5 1.91-.26 3.51.8 4.97 1.21Z" style="fill:#ff6a38;fill-rule:nonzero" />
  <path d="M190.85 110.18c4.56-4.24 14.98-5.31 19.81 1.77 5.01 7.34-18.52 5.5-20.85 3.88-3.01-2.11 1.04-5.65 1.04-5.65Z" style="fill:#ffc467;fill-rule:nonzero" />
  <path d="M196.27 109.72c-.79.34-1.54 1.23-1.71 2.1.54.18 1.18-.02 1.55-.47.36-.45.42-1.14.15-1.65M198.61 111.23c.31.71 1.26 1.45 2.26 1.69.28-.43.12-.99-.37-1.35-.49-.36-1.28-.5-1.91-.33M201.5 108.92c.31.71 1.26 1.45 2.26 1.69.28-.43.12-.99-.37-1.35-.49-.36-1.28-.5-1.91-.33" style="fill:#fff;fill-rule:nonzero" />
  <path d="M181.03 111.86c0 3.7-21.15-10.05-21.15-10.05l7.93-18.51-16.39-1.59s-8.46 25.91-8.46 29.61c0 3.7 36.48 10.05 36.48 10.05M189.6 105.96c2-.86 6.08-2.77 8.22-2.08 3.59 1.16.82 3.47.82 3.47s-6.73 3.51-11.35 2.77c-2.22-.36 2.31-4.16 2.31-4.16Z" style="fill:#f9d4bb;fill-rule:nonzero" />
  <path d="M188.44 102c-7.33-7.4-21.37-13.78-27.83-10.2-6.46 3.58-25.19 6.07-32.29-2.86-7.1-8.93-21.96-6.43-23.57-5.36l-2.91 2.14s4.52-1.43 12.27.71c7.75 2.14 10.66 18.94 23.9 19.65 13.24.71 25.86-11.89 28.74-11.43 13.55 2.15 24 9.69 21.69 7.35Z" style="fill:#fff;fill-rule:nonzero;stroke:#b3b3b3;stroke-width:2px;stroke-linecap:butt" />
</svg>