<?xml version="1.0" encoding="UTF-8" standalone="no"?><!DOCTYPE svg PUBLIC "-//W3C//DTD SVG 1.1//EN" "http://www.w3.org/Graphics/SVG/1.1/DTD/svg11.dtd"><svg width="100%" height="100%" viewBox="0 0 584 689" version="1.1" xmlns="http://www.w3.org/2000/svg" xmlns:xlink="http://www.w3.org/1999/xlink" xml:space="preserve" xmlns:serif="http://www.serif.com/" style="fill-rule:evenodd;clip-rule:evenodd;stroke-linecap:round;stroke-linejoin:round;stroke-miterlimit:1.5;"><g id="trash"><path d="M576.457,122.67c8.711,56.307 -555.759,64.629 -569.78,17.343m569.78,-17.343c-15.583,-50.986 -548.234,-33.193 -569.78,17.343" style="fill:none;stroke:#4d4d4d;stroke-width:13px;"/><g><g><path d="M470.179,452.134c0,0 16.184,155.691 10.05,164.405c-6.133,8.714 -117.898,61.801 -117.898,61.801l-39.662,-48.836l52.377,-164.67l95.133,-12.7Z" style="fill:#ff6a38;fill-rule:nonzero;"/><path d="M168.971,678.501c-0,0 -4.34,-70.993 5.013,-81.564c9.353,-10.571 64.635,-34.915 70.63,-44.328c12.166,-19.082 14.342,-80.067 22.954,-88.075c26.811,-24.971 189.418,-9.906 202.599,-12.385c-0,-0 -33.155,0.435 -37.765,22.715c-4.378,21.177 -1.168,69.684 -15.509,80.56c-14.34,10.875 -41.519,34.29 -47.781,50.018c-7.606,19.116 -5.56,72.837 -5.56,72.837l-194.581,0.222Z" style="fill:#cd3385;fill-rule:nonzero;"/><path d="M279.832,475.334l-14.488,69.655l132.392,-1.849l9.363,-71.831l-127.267,4.025Z" style="fill-rule:nonzero;"/><path d="M283.031,481.587l-12.247,63.6l126.857,-2.041l8.421,-65.652l-123.031,4.093Z" style="fill:#fff;fill-rule:nonzero;"/><g><path d="M473.014,389.463c0,0 27.874,-6.479 29.534,46.939l-14.018,-11.21l-9.454,8.904l-9.019,-11.108l-7.7,10.456l-4.204,-41.399l14.861,-2.582Z" style="fill:#00435f;fill-rule:nonzero;"/><path d="M412.137,455.138c-0,0 -9.544,-52.867 19.018,-64.095l42.52,0.325c-0,0 -39.112,22.702 -25.29,63.65" style="fill:#fff;fill-rule:nonzero;stroke:#00435f;stroke-width:4.07px;stroke-linecap:butt;stroke-linejoin:miter;stroke-miterlimit:10;"/><path d="M420.317,440.299l18.71,0.503" style="fill:none;fill-rule:nonzero;stroke:#00435f;stroke-width:4.07px;stroke-linecap:butt;stroke-linejoin:miter;stroke-miterlimit:10;"/><path d="M419.557,427.857l18.709,0.503" style="fill:none;fill-rule:nonzero;stroke:#00435f;stroke-width:4.07px;stroke-linecap:butt;stroke-linejoin:miter;stroke-miterlimit:10;"/><path d="M422.142,415.401l18.722,0.488" style="fill:none;fill-rule:nonzero;stroke:#00435f;stroke-width:4.07px;stroke-linecap:butt;stroke-linejoin:miter;stroke-miterlimit:10;"/><path d="M427.679,403.825l18.723,0.502" style="fill:none;fill-rule:nonzero;stroke:#00435f;stroke-width:4.07px;stroke-linecap:butt;stroke-linejoin:miter;stroke-miterlimit:10;"/></g><path d="M292.606,520.726l79.994,-1.761" style="fill:none;fill-rule:nonzero;stroke:#00435f;stroke-width:6.79px;stroke-linecap:butt;stroke-linejoin:miter;stroke-miterlimit:10;"/><path d="M297.775,502.901l60.016,-0.526" style="fill:none;fill-rule:nonzero;stroke:#00435f;stroke-width:6.79px;stroke-linecap:butt;stroke-linejoin:miter;stroke-miterlimit:10;"/></g><path d="M201.978,598.885c2.575,-1.042 63.79,-37.379 63.79,-37.379l124.08,-2.293l-45.295,37.269l-142.575,2.403Z" style="fill:#fff;fill-rule:nonzero;"/><path d="M224.609,579.87l152.271,-2.247" style="fill:none;fill-rule:nonzero;stroke:#cd3385;stroke-width:4.07px;stroke-linecap:butt;stroke-linejoin:miter;stroke-miterlimit:10;"/><path d="M235.205,604.771l74.721,-46.849" style="fill:none;fill-rule:nonzero;stroke:#cd3385;stroke-width:4.07px;stroke-linecap:butt;stroke-linejoin:miter;stroke-miterlimit:10;"/><path d="M288.075,605.947l69.682,-50.065" style="fill:none;fill-rule:nonzero;stroke:#cd3385;stroke-width:4.07px;stroke-linecap:butt;stroke-linejoin:miter;stroke-miterlimit:10;"/></g><g id="webpage"><path d="M295.336,438.908c-0,-0 12.744,34.897 7.337,40.336c-5.015,5.045 -44.704,10.287 -55.319,14.532c-3.6,1.439 -2.357,12.101 1.478,11.536c24.49,-3.608 121.418,-25.582 145.461,-33.184c3.969,-1.255 2.96,-12.368 -1.202,-12.43c-9.921,-0.147 -43.421,12.744 -50.038,9.864c-3.537,-1.539 -8.837,-39.389 -8.837,-39.389" style="fill:#004360;"/><path d="M62.845,203.072c53.99,-17.329 369.092,-90.744 392.08,-84.607c12.712,3.4 84.865,248.638 59.799,264.135c-30.892,19.117 -407.226,104.641 -409.88,93.073c-2.655,-11.568 -80.145,-260.362 -41.999,-272.601Z" style="fill:#00435f;fill-rule:nonzero;"/><path d="M74.178,213.799l370.184,-81.836l60.386,244.16l-386.427,83.143l-44.143,-245.467Z" style="fill:#fff;fill-rule:nonzero;"/></g><g id="tablet"><path d="M427.638,46.987c22.401,7.111 129.125,43.682 131.645,55.928c1.391,6.775 -118.692,218.804 -132.962,220.584c-17.595,2.208 -153.923,-58.962 -148.575,-67.782c5.348,-8.82 134.067,-213.757 149.892,-208.73Z" style="fill:#00435f;fill-rule:nonzero;"/><path d="M428.882,56.746l114.829,45.439l-126.004,207.983l-124.904,-57.165l136.079,-196.257Z" style="fill:#fff;fill-rule:nonzero;"/></g><g id="smartphone"><path d="M212.742,66.302c-6.387,-16.21 1.65,-31.296 15.735,-41.187c20.657,-14.506 41.128,-26.614 45.755,-24.02c0.762,0.428 13.214,7.836 18.497,17.556c24.2,44.522 82.875,161.01 79.875,167.867c-3.239,7.417 -47.23,33.114 -72.83,44.371c-9.971,4.385 -34.691,-19.661 -35.587,-21.591c-3.2,-6.885 -44.167,-124.523 -51.445,-142.996Z" style="fill:#00435f;fill-rule:nonzero;"/><path d="M220.434,61.14l53.524,-33.402l32.062,65.684l-60.568,36.186l-25.018,-68.468Z" style="fill:#fff;fill-rule:nonzero;"/><path d="M251.058,138.53l13.789,-8.804l5.053,12.174l-15.544,9.635l-3.298,-13.005Z" style="fill:#fff;fill-rule:nonzero;"/><path d="M258.431,156.143l13.789,-8.804l5.053,12.174l-15.544,9.635l-3.298,-13.005Z" style="fill:#fff;fill-rule:nonzero;"/><path d="M267.185,174.237l13.789,-8.804l5.053,12.174l-15.544,9.635l-3.298,-13.005Z" style="fill:#fff;fill-rule:nonzero;"/><path d="M273.123,125.222l13.79,-8.804l5.052,12.174l-15.543,9.635l-3.299,-13.005Z" style="fill:#fff;fill-rule:nonzero;"/><path d="M280.496,142.835l13.789,-8.804l5.053,12.174l-15.543,9.635l-3.299,-13.005Z" style="fill:#fff;fill-rule:nonzero;"/><path d="M289.25,160.929l13.789,-8.805l5.053,12.175l-15.543,9.635l-3.299,-13.005Z" style="fill:#fff;fill-rule:nonzero;"/><path d="M297.569,178.889l13.789,-8.805l5.053,12.175l-15.543,9.634l-3.299,-13.004Z" style="fill:#fff;fill-rule:nonzero;"/><path d="M296.036,111.072l13.789,-8.804l5.053,12.174l-15.543,9.635l-3.299,-13.005Z" style="fill:#fff;fill-rule:nonzero;"/><path d="M303.409,128.685l13.789,-8.804l5.053,12.174l-15.543,9.635l-3.299,-13.005Z" style="fill:#fff;fill-rule:nonzero;"/><path d="M312.163,146.779l13.789,-8.805l5.053,12.175l-15.543,9.635l-3.299,-13.005Z" style="fill:#fff;fill-rule:nonzero;"/></g><path d="M576.457,122.67c8.711,56.307 -555.759,64.629 -569.78,17.343c40.133,169.363 94.474,382.521 155.392,541.553l295.508,0c72.099,-162.927 84.699,-392.809 118.88,-558.896Zm-120.846,37.995l-365.888,300.395l256.115,220.506l166.88,-179.806l-407.998,-336.421l-69.58,91.742l453.39,339.752l-277.606,84.733l325.749,-311.886l-193.347,-200.88l-284.326,181.04m69.045,235.69l429.462,-354.115m-0,-0l-85.624,-72.678" style="fill:none;stroke:#4d4d4d;stroke-width:13px;"/></g></svg>