<?xml version="1.0" encoding="UTF-8" standalone="no"?><!DOCTYPE svg PUBLIC "-//W3C//DTD SVG 1.1//EN" "http://www.w3.org/Graphics/SVG/1.1/DTD/svg11.dtd"><svg width="100%" height="100%" viewBox="0 0 345 267" version="1.1" xmlns="http://www.w3.org/2000/svg" xmlns:xlink="http://www.w3.org/1999/xlink" xml:space="preserve" xmlns:serif="http://www.serif.com/" style="fill-rule:evenodd;clip-rule:evenodd;stroke-linejoin:round;stroke-miterlimit:2;"><g id="webpage"><path d="M156.8,222.474c0,-0 4.012,28.567 -0.977,31.82c-4.627,3.017 -35.615,0.553 -44.365,2.053c-2.967,0.509 -3.754,8.807 -0.75,9c19.182,1.237 96.35,0.286 115.841,-1.583c3.217,-0.309 4.255,-8.911 1.105,-9.633c-7.51,-1.723 -35.04,2.627 -39.597,-0.634c-2.436,-1.743 -0.316,-31.344 -0.316,-31.344" style="fill:#004360;"/><path d="M18.549,5.653c43.809,-4.393 294.995,-8.985 311.454,-0.593c9.101,4.645 24.076,202.576 2.527,210.274c-26.561,9.501 -326.207,13.347 -326.345,4.132c-0.137,-9.215 -18.589,-210.711 12.364,-213.813Z" style="fill:#00435f;fill-rule:nonzero;"/><path d="M25.413,15.639l294.377,-2.044l6.216,195.201l-306.923,0.399l6.33,-193.556Z" style="fill:#fff;fill-rule:nonzero;"/><g><circle cx="172.699" cy="108.321" r="33.745" style="fill:#cd3385;"/><path d="M156.863,85.887c-0.973,0.471 -3.924,2.915 -4.199,3.998c-0.747,2.929 -1.185,5.937 -1.306,8.951c-0.05,1.239 -0.046,2.484 0.143,3.701c0.48,3.098 2.112,5.823 3.71,8.456c0.411,0.676 0.839,1.373 1.473,1.818c1.039,0.729 2.415,0.65 3.66,0.42c0.21,-0.04 0.425,-0.085 0.605,-0.205c0.27,-0.181 0.423,-0.5 0.532,-0.815c0.779,-2.265 2.094,-5.734 1.207,-7.92c-0.898,-2.211 -1.979,-4.848 -2.879,-7.057c-1.049,-2.582 -0.982,-4.006 -2.143,-6.532c-0.626,-1.364 -1.905,-3.797 -0.803,-4.815Z" style="fill:#030303;fill-rule:nonzero;"/><path d="M190.56,115.207c2.299,-0.372 8.396,-5.99 7.244,-7.574c-1.152,-1.584 -8.821,-0.874 -9.679,-2.332c-1.484,-2.525 -3.937,-15.598 -10.62,-17.672c-1.871,-0.582 -20.107,-0.786 -20.441,3.307c-0.333,4.093 4.73,14.126 4.73,14.126c-0,-0 -0.929,-0.44 -4.246,-1.206c-5.318,-1.226 -4.509,11.107 -1.089,12.757c1.09,0.527 2.58,0.884 3.809,1.11l0.031,19.411l16.185,2.394l1.838,-10.212c5.345,0.571 10.549,-0.8 12.113,-2.453c1.475,-1.561 0.203,-7.255 0.203,-7.255c-0,-0 -0.417,-4.346 -0.078,-4.401Z" style="fill:#f7dac6;fill-rule:nonzero;"/><path d="M179.612,101.547c1.156,-0.177 2.298,1.009 2.548,2.646c0.25,1.638 -0.485,3.11 -1.641,3.287c-1.156,0.177 -2.298,-1.009 -2.548,-2.646c-0.25,-1.637 0.485,-3.11 1.641,-3.287Z"/><g><path d="M194.431,119.056c-1.546,1.508 -4.617,1.654 -5.422,-0.534c-0.366,-2.06 0.571,-2.784 0.973,-3.133c1.748,-1.367 4.124,1.109 5.259,-2.6c1.589,1.487 1.091,4.92 -0.81,6.267Z" style="fill:#030303;fill-rule:nonzero;"/><path d="M188.352,119.446c-4.196,4.604 -10.114,-0.095 -8.052,-5.507c0.968,1.811 2.181,3.431 4.27,1.722c2.932,-1.753 5.834,0.743 3.782,3.785Z" style="fill:#030303;fill-rule:nonzero;"/></g><path d="M163.154,81.902c3.342,-0.626 9.595,-3.434 13.256,-2.152c1.09,0.228 10.47,0.176 10.31,0.909c-3.08,14.053 -20.008,8.91 -20.008,8.91c0,-0 3.546,5.721 2.834,6.841c-0.712,1.119 -3.224,2.929 -3.224,2.929l2.366,9.03l-2.739,0.937l-6.398,-5.455l-5.622,-15.528c-0.003,0 3.7,-5.386 9.225,-6.421Z" style="fill:#030303;fill-rule:nonzero;"/><g><path d="M158.991,128.502l-0.362,10.124c4.639,2.351 9.884,3.677 15.439,3.677c1.618,0 3.21,-0.115 4.77,-0.332l0.231,-8.182l-20.078,-5.287Z" style="fill:#fff;fill-rule:nonzero;"/><path d="M174.068,142.733c-5.498,0 -10.759,-1.252 -15.633,-3.723l-0.246,-0.124l0.391,-10.938l20.926,5.51l-0.25,8.886l-0.359,0.05c-1.601,0.227 -3.226,0.339 -4.829,0.339Zm-14.998,-4.366c4.683,2.326 9.728,3.506 14.998,3.506c1.443,0 2.904,-0.094 4.351,-0.28l0.209,-7.476l-19.226,-5.063l-0.332,9.313Z" style="fill-rule:nonzero;"/></g><g><path d="M183.953,132.377c-0.673,-0.047 -1.288,0.669 -1.775,1.343c-1.396,1.933 -2.641,4.031 -3.709,6.244c0.528,1.266 1.582,1.947 2.633,2.423c0.932,0.424 2.149,1.122 3.229,0.669c2.066,-0.863 1.825,-4.734 1.551,-6.557c-0.194,-1.312 -0.595,-4.029 -1.929,-4.122Z" style="fill:#030303;fill-rule:nonzero;"/><path d="M180.19,140.903c0.595,-0.755 0.573,-1.924 0.059,-2.713c-0.515,-0.79 -1.435,-1.208 -2.35,-1.232c-0.598,-0.015 -1.307,0.215 -1.506,0.822c-0.105,0.324 -0.038,0.673 0.045,0.998c0.311,1.234 0.906,2.507 2.013,2.999c1.108,0.49 2.726,-0.323 2.68,-1.608" style="fill:#030303;fill-rule:nonzero;"/><path d="M177.093,137.269c-0.614,-1.735 -1.971,-3.14 -3.622,-3.747c-0.208,-0.077 -0.449,-0.137 -0.645,-0.021c-0.215,0.129 -0.285,0.417 -0.328,0.673c-0.38,2.282 -0.181,4.607 0.018,6.9c0.112,1.279 0.381,2.796 1.5,3.259c0.827,0.342 1.814,-0.092 2.437,-0.797c0.621,-0.705 0.956,-1.63 1.278,-2.528c0.388,-1.094 -0.256,-2.662 -0.638,-3.739Z" style="fill:#030303;fill-rule:nonzero;"/></g></g></g></svg>