<svg viewBox="0 150 1086 650" xmlns="http://www.w3.org/2000/svg"><g fill="none"><path d="M514.8 614.3c3.3 13.6 4.5 27.6 3 41.6-2.2 19.2-6.2 38-7.7 57.3-.1 2.3-1.3 3.3-3.2 3.8l-6 1c-.2.5-.6.5-.9 0H498c-.7.7-2 1-1.9 2.5 1.4-.2 2.6 0 3.9.5 8 3.2 16.4 4.1 24.8 5.4 0-37.7 0-75.4.2-113 0-10.7-.7-21.3 1.2-31.9H545h-19l-46.3.2c4.2 2 8.6 3.5 12.5 5.9 10.5 6.3 19.6 14.1 22.6 26.7zM483.4 723.4l-.3.6.3-.6zM501 743l1.1-.3 12-.3-12 .3-1 .2zM484 719.7zM486 715.8zM486.6 716.3zM490.3 717.6z"/><path d="M496.4 717.6c-1.5-.2-3 0-4.6 0 1.5 0 3.1-.2 4.6 0zM477 733c3.5.4 7 .9 10.6 1.2-3.6-.3-7.1-.8-10.7-1.2zM452 728.6l2.6.5-2.6-.5zM413.9 643c5.6-.8 11-.2 16.6.3-5.5-.5-11-1.1-16.6-.2zM440 726c-8.9-1.9-9.4-2.7-7.2-11.8 2.4-10 4.8-20 7-30 2.1-10.6 4.3-21.2 4.7-32 .1-2.5 3.3-5.7.3-7.5-2.3-1.3-5.8-.7-8.8-1-.1 2.8-1.7 4.7-3.8 6.2-5.4 4-10.4 8.2-15.2 12.9a15.9 15.9 0 0 1-9.3 4c-6.3.9-12.6-.1-18.8 1.7 7.3 21.2 14 42.6 23 63.2 1.5-1 3.3-1 5.2-1.2 8.6-1.1 17.3-1.8 25.8-3.8l3.4.3-3.4-.3-2.9-.7zM448.1 742.5c-1.3-.9-2.4-.8-3 0 .6-.8 1.7-.9 3 0zM348.3 609.6zM359.3 617.3l-9.2.2 9.2-.2zM403.9 567.5c3.8-4.7 9.1-7.2 14.2-10.1-5 2.9-10.4 5.4-14.3 10.1zM317.8 498.4a46.8 46.8 0 0 0 .2 0h-.2zM482 726.9l.3-.9-.3.9zM343.3 471.3zM376.6 668.7c-13.6.6-27 0-40.5-2-1.2 2.3-2.3 4.7-3.6 7a666 666 0 0 0-30.6 60.9c11.8-.5 23.5 0 35.3-.9 18.8-1.3 37.6-3 56.6-2.2 1.5 0 3.3.4 4.5-1.3l-21.7-61.5zM358 442.5c-.3-2.2-3.2-1.5-4-3.7-1.5-4-3.5-7.6-5.4-11.4-1.6 0-3.3.3-4.9.1-3.4-.3-4 1.6-3.6 4.3 1.8 11.6.7 23.3.8 35l2.4 4.1c2.4-7.6 4.6-15.3 10-21.7 1.7-2.1 4-3.8 4.8-6.7zM385.9 667.8zM752 461.6c1.6-2.4 1.4-5.3 1.9-8 .3-1.6 0-3.1-2.2-3-3.8.2-7.8-1-11.6.7l-10.1.3c3.4 0 6.7-.2 10.1-.3a33 33 0 0 1 11.9 10.3zM615.3 516.8c-.7-2-.7-4.2-3.7-4.3-2.8-.2-4.7.7-6.1 3.1-2 3.4-4.3 6.6-6.5 10h19.2c-.4-3-1.9-5.9-2.9-8.8zM702.2 462.8l.9-1.2-1 1.1 1-1c0-2.2-.5-4.5 0-6.5 1.4-4 0-4.8-3.8-4.7h-42.4c-2.8 0-4 .4-3 3.6 1.7 5.5 3 11.1-3.8 14.7-2.1 1-1.1 3.6-1 5.5s2 2 3.4 2.3c4.6 1.2 9.3.5 13.9 1 6.8.8 14 .2 19.8 5.2 5.3-6.7 10-13.9 16-20zM516.8 766.7zM735 480v-2.8 2.7zM673 603.6zM514.7 752.6zM716.6 452.7l-13.5 9 13.5-9zM517.2 756.4l1.6 1.9-1.6-2c.1-1.4-.5-2.3-1.4-3 .9.7 1.5 1.6 1.4 3zM519 758.5c0 3.7-.6 6.3-2.2 8.2 1.6-1.9 2.2-4.5 2.2-8.2l22-.4-22 .4zM495.9 746.1zM404.1 549.3zM496.2 746.2l.3.2-.3-.2zM442 553.4l4.6.3-4.5-.3zM432.1 550.8zM407.8 571.5zM501 529.4c-1.6 2.8-3.2 5.6-7 6.3 3.8-.7 5.4-3.5 7-6.3zM482.8 724.7zM263.7 453.6zM432.5 352.3c1.4.2 1.6-1 1.6-2.4v-.1c-.1 1.3-.5 2.4-1.6 2.5zM678.1 567.5zM661.9 538.3c3.5-12.4 6.4-25 12.4-36.5l7.2-11.6-7.2 11.6-.3-3.5c-.2-4.7-2-5.6-9-5.8-4.8-.2-4 2.8-4 5.5.4 11-.9 21.9-3.1 32.6-.2 3.4 1.7 5.6 4 7.7zM118.2 554.6c-4-5.5-7.4-11.4-8.2-18.4-.4-3.2-3-2.8-5-2.5-12 1.8-24.1 2-36.2 2.7-3.2.2-3.7 1.5-3.7 4.3-.3 9.7 1.3 19.3.9 28.9-.8 19.2-2.2 38.4-3.3 57.6h.4c0 3.8.2 7.7 0 11.5-.2 3.2 1.2 4.1 4 3.8 3.2-.4 6.3-1 9.5-1 6.5.1 6.8 0 6.4-6.3-1-17.1-1.2-34.3-.7-51.4.4-14.2 1.5-15.8 14.5-19l19.7-5.3c3.4-.8 3.9-1.9 1.7-4.9zM122.8 628.2c-1.4-4.7-6-8-10.3-8.2-2.8-.3-3.1 1.5-3.2 2.8-.3 3.8-1.1 7.6-1.3 11.4-.3 4.8.8 7.1 5.9 8.7 5 1.5 11.6 2.2 13.1 9.1.5 2.3 1.3 3 3.4 1.9 1.8-1 3.2-1.7 1.6-4.1-4.3-6.7-6.9-14-9.2-21.6zM310.4 436.3c-.7 3.3-.8 7.6 3 9 5.4 1.9 10.8 3.4 16.7 6v-20.7c0-2.6-1-4-3.8-4-5-.2-10.2.4-15.3-.9-2-.5-3.5.2-1.7 2.7 1.9 2.4 1.7 5 1.1 8zM110.3 661.6c-1 0-2 .3-2 1.6-.2 1.4.2 2.7 1.2 3.6 1 1 1.7-.2 2.5-.7l5.3-3.6-.1-1h-6.9zM641 525.7c0-2 .4-4 .6-5.9.4-2.9 2-6.1.4-8.5-.6-1-4.5.1-7 .3h-2c-3 0-3.3 1.2-2.2 3.7 1.5 3.4 4 6.3 4.3 10l-16.9.4 17-.3 5.8.3zM619.8 581.5l-68.9-.2-6 .2c4.2 42.2 1.5 84.4 2.5 126.6l.6 18.4H628l-2 5.3 2-5.2 23.7-54a502 502 0 0 1-60.2-3.3c-4-.5-5.6-2.7-5.6-6.3 0-9-.5-18 .4-26.9 2.3-22.1 15.2-42.2 39.6-42 2.6.1 5.3-.5 7.9-1 3.3-.4 7-.2 9.7-1.8 3.1-2 .6-6.5 2-9.6-8.5-1-17.2-.2-25.8-.2zM640.5 727.5c5 0 10 0 15 .6 12 1.3 23.6 4.5 35.8 4.6 14 .1 27.8-2.4 41.7-2.3.7 0 1.4-.7 2.1-1l-29-57c-12.7-1-25.3-.6-38 .3-10 17.8-19.6 35.9-27.6 54.8z"/></g><path d="M327 486.6c6.3-4.7 9.8 4.1 12.7 4.9 0-1.8 0-2 .1-1.7.5-6.2 3.6-11.9 3.3-18.1l.1-.3v.3c-3.1-.3-6-.4-8.6 1.8a54.9 54.9 0 0 0-16.8 25h.2c4.2-11.6 5.3-9.1 9-12zM339.7 491.5v.2-.2z" fill="#a64672"/><path d="M263.7 453.6a19.7 19.7 0 0 0-10.3-6.8c-.7-.2-1.6-.2-2.4-.3a36.4 36.4 0 0 0-31.8 7.4c-1.6 1.3-2.8 4.5-4.8 3.6-2-.8-1.4-4.1-2.1-6.3-.3-1-.1-2-.2-3-.3-4.2-1.8-7.7-4.6-11.1-4.7-5.8-12.1-9.6-12.6-18.6-.3-5-1.7-9.7 1.7-14.2a11 11 0 0 0 2.4-5.5c1-15.5-.6-30.2-13.4-41.5-3.8-3.3-7.6-5.3-12.5-4.7-9.2 1.3-18.3 2.7-27.5 4.2-1.9.3-4.6 1.6-2.6 3.9 3 3.5 2.6 7.1 2 11-.6 4.8-.8 9.5.1 14.3.2 1.1 0 2.6-1.3 2.9-1.1.3-1.5-1-2-2-.3-.7-.6-1.4-1.1-2.1-.8-1-1.7-2.3-3.3-1.7-1.2.5-1.4 1.8-1.3 3l.6 5c.3 2 1 4.1-.3 6.2-2.5 4.2-1.4 7 3.5 6.8 4.4-.3 4 1.6 4.2 4.7.4 7.8 6.6 15 14.3 16.3 3.4.6 7 .3 10.5.5 1 .1 2.6-.5 2.7 1.3 0 1.1-1.3 1.3-2.3 1.6l-13.8 4.4c-6.8 2.1-7 2.8-6 9.9.9 4.8 3 9.7.7 14.6-3 6.6-6.3 12.9-9 19.5-3 7.6-10.7 11-15.3 17.2-1.2 1.8-2 .6-2.9-.7-3.4-5.5-6.6-11.1-10.3-16.4-3.7-5.4-5-11-4.7-17.4.5-10 .4-19.9-3-29.5-.8-2.5-2-4.3-4.6-4.5a26 26 0 0 0-16 2.7c-3.4 2-5 4.5-3.7 8.6 1 3.8 1.5 7.8 2.3 11.7.2 1.5-.2 2.5-1.2 3.6-11.4 11.5-7.3 27.4 8.3 32.5 4.8 1.6 11 11.5 9.8 16.4-1 4.2-3.7 7.2-8.2 7.4-5.5.2-11 0-16.4 1-4.6 1-6.9-.6-6.2-5.7.4-2.8.1-5.7 0-8.5 0-3.6-1.8-6.1-5.5-6.6-3.8-.6-5.8 1.8-6.7 5.2a25 25 0 0 0 0 12.3c.5 2.3 0 4-2.8 4.3-2.4.2-4-.2-4-3.4-.2-7.4-.8-14.9-1-22.4-.1-6-1.7-7.8-8-8.1-3.4-.3-6.9 0-10.4-.5-3-.5-5.5 1.5-5.5 5 0 8-.2 16 .4 24 .3 3.4-.8 3.5-3.3 3.5H6.8c-2.8-.1-3.8 1-3.7 3.7.1 7 .2 14 0 21-.1 3.4 1 4.3 4.3 4.3 11.2-.2 22.3 0 33.5-.2 3.3 0 4.3 1 4.3 4.3 0 10.1.3 20.3.7 30.4.7 22.3.2 44.7.3 67 0 3.5-1 4.7-4.5 4.5-12.2-.5-24.3.2-36.4 1-1.7 0-4-.6-4.1 2.2 0 5.7-1.5 11.2-1 17 0 1.7.6 2.5 2.5 2.8 5.3.8 10.7 1.7 15.9.7 19.9-4.3 40.1-1.6 60-3.8 1.6-.1 4.1-1 4.4 1.9.2 2.5-2 2.7-3.8 3a69.2 69.2 0 0 0-21.1 8.6c-4.1 2.4-7.2 5.6-6.3 10.7.9 4.8 5 7.7 10.8 7.7 12.4.2 24.7.2 37 0 5.6 0 8.4-3 8.6-8.7 0-1.2-.1-2.4.2-3.5 1.3-4.1 4.5-5.7 8.1-3.5 3 2-.5 3.8-.9 5.7-.2 1.3-1 2.5-1.5 3.7-1.4 3-1.2 5.6 1.7 7.4 3 2 5-.2 6.9-2a80.4 80.4 0 0 0 12.5-16.7 9.6 9.6 0 0 1 7-4.9c7.8-1.3 15.7-2.7 23.4-4.4 6.5-1.4 9-8 4.7-13-3.6-4.2-6.3-9.1-10-13-4-4.2-3.7-8-.5-12 1.8-2.2 1.9-6.3 6.3-6h13c2 0 3.4.5 4 2.8 5 18.8 14.1 35.8 24.2 52.3 3.7 6 6.6 12.8 13 16.7 4 2.4 7 1.2 7.7-3.3.7-4.3 0-8.3-2.3-12-2-3.6-4.2-7.2-6.4-10.7-8.2-13.2-15-27-21.3-41.2-1-2.3-2-5 1.6-5.4 5.4-.6 10.8-3 16.2-2.2 14 2 23.5-11 25.2-20.8 4-23 11.6-45.3 17-68 4.9-20.1 14.2-39.5 11.2-61a30 30 0 0 0-5.5-18.1zm-167 111.2c-13 3.2-14 4.9-14.4 19-.5 17.1-.3 34.3.7 51.4.4 6.3.1 6.4-6.5 6.3-3.2 0-6.2.6-9.3 1-3 .3-4.4-.6-4.2-3.8.2-3.8 0-7.7 0-11.5h-.3c1.1-19.2 2.4-38.4 3.2-57.6.4-9.6-1.2-19.2-.9-28.9.1-2.8.6-4 3.8-4.3 12-.8 24.2-.9 36.1-2.7 2.1-.4 4.7-.7 5 2.5.9 7 4.3 12.9 8.3 18.4 2.2 3 1.7 4-1.8 5-6.5 1.6-13 3.5-19.7 5.2zM112 666c-.8.5-1.5 1.7-2.5.7-1-.9-1.4-2.2-1.3-3.6.2-1.3 1-1.6 2.2-1.6h6.8l.1 1-5.3 3.5zm18.4-12.3c-2 1.1-2.9.5-3.4-1.8-1.5-6.9-8-7.7-13.1-9.2-5.1-1.5-6.2-3.8-6-8.6.3-3.9 1.1-7.6 1.4-11.4 0-1.3.4-3.1 3.2-2.8 4.3.1 8.9 3.5 10.3 8.2a85.7 85.7 0 0 0 9.2 21.6c1.5 2.4.2 3.1-1.6 4zM850.4 498.9c-4-6.9-2.4-14.3-3.2-21.4-1.3-11.9.4-23.9 1-35.8.4-6 .7-12 1.4-17.9 1-6.8.5-14 .2-21 0-3-1-6-4.7-7.4-3.5-1.3-6.4-.8-9.2 1.7-1 .9-2 2-3.2 2.3-7.9 2.3-12.6 8-16.7 14.7-3.2 5.4-6.4 10.6-8.4 18l-2.5-13.6c-.6-3.2.1-5.3 3.4-6.8a56 56 0 0 0 10.4-5.8c6.3-4.7 6-11-.4-15.3a13.8 13.8 0 0 1-4.6-4.5 46.5 46.5 0 0 1-6.3-31.9c.8-5.2.3-10.2-1.8-15-1.9-4.5-5.4-6-9.7-5.5s-8.4 1.6-12.1 4.2a17 17 0 0 0-7.4 11c-1.5 6.6.1 14.2-5.8 19.6-2 1.8-.4 4 2 4 2.5 0 3.2 1.3 3.8 3.2 1.7 5.3 5.5 6.7 10.6 5.7 1-.3 2.3-1.1 2.6.8.3 1.4-.4 2.2-1.8 2.4-2.2.3-4.3.8-6.4.9-3.5.1-6.6 1.3-9.4 3-4.5 2.7-4.4 7.6.4 9.6 2.8 1.3 2.6 2.3 1.1 4.4-4 5.7-9.3 10.5-13 16.3-4.1 6.1-9.2 7.1-15.7 6.9-3.5-.1-4.8-1.5-5-4.7-.3-3.3-.6-6.6-1.2-9.8-.4-2.6-1.4-5-4.3-5.5-2.8-.4-4 1.8-5.4 3.7-3 4.3-3 8.8-1.6 13.6.8 2.4 1.7 5.6-3 5.5h-31.2c.6-2.4 1.3-4.7 2.9-6.8 2.6-3.2 2-6.6-.4-9.6-2.7-3.5-9.9-5.6-13-3.9-4 2.1-4.2 5.7-3.2 9.5.9 3.5-.6 4-3.7 3.7-10.5-1.4-21-2.9-31.5-3.7-4.5-.3-4.9-2-4.1-5.6 1.2-5.5 2.5-11 3.4-16.5.6-3.3.8-6.6-1-9.8-2.3-4 .6-8.2 0-12.4-.2-1.2 1.3-1.8 2.6-1.8 4.3 0 6-2.9 7-6.6.6-2 .8-4 3-5.4 3.3-2.1 3.6-4.9.5-7.8-2.7-2.4-3-5.8-2.8-9.2.1-3 3.2-2.4 4.8-3.6 2.2-1.7 4.8-3.5 4-6.8-.6-3.2-2.8-4.8-6.1-4.6-1.5 0-2.5-.5-3.6-1.4-8.9-6.5-21-3.8-26.8 5.4-5.5 8.7-4.3 18.2-4.2 27.6 0 2.2 1.6 4 3.6 5.2 2.7 1.5 3.8 3.1 2.7 6.5-1 3.4-3 3.8-6 3.6-6.5-.2-11.9 2.4-16.2 7.3a51.5 51.5 0 0 0-10.3 22.4c-2.4 9.6-5.2 19-8.2 29.5a34.4 34.4 0 0 1-1.8-9.2c-.2-2.8-1.5-5.5-3-8-3-5.1-8.2-7.3-12.4-4.4-5 3.4-9.5 7.7-9.5 14.4 0 6.5 0 13-1.1 19.4-1.3 7.8 0 15.7-1.2 23.4-1.9 12 .2 23.2 4.5 34 2.2 5.7 6.5 9.5 13 10.4 3.4.5 6.7.8 10 .8 2.3 0 3 .6 1.6 2.9-1.6 2.5-4 4.6-4 8l16.2.1c2.2-3.3 4.4-6.5 6.5-10 1.4-2.3 3.3-3.2 6-3 3.1.1 3.1 2.2 3.8 4.3 1 3 2.5 5.7 2.9 8.9l16.9-.4c-.3-3.8-2.8-6.7-4.3-10-1-2.5-.8-3.8 2.2-3.7h2c2.5-.2 6.4-1.3 7-.3 1.6 2.3 0 5.6-.4 8.5-.2 2-.6 3.9-.6 5.9 2.7.9 5.5 1 8.2.7 1.5-.1 2.8 0 4 .3 1.9.5 3.5 1.8 4.7 3.9 2.2-10.8 3.5-21.6 3.2-32.6-.1-2.7-1-5.7 3.9-5.6 7 .3 8.8 1.1 9 6l.3 3.4 7.2-11.6 4.7-7.4c-5.8-5-13-4.4-19.8-5.2-4.6-.5-9.3.1-13.9-1-1.5-.4-3.2-.5-3.3-2.3-.2-2-1.2-4.5.9-5.6 6.7-3.5 5.5-9.1 3.8-14.6-1-3.3.2-3.7 3-3.6h42.4c3.7-.1 5.2.6 3.9 4.7-.6 2-.1 4.2-.1 6.4l13.5-9c1-.6 2-.8 3.2-.8l10.2-.2 10.1-.3c3.8-1.7 7.8-.5 11.6-.7 2.1-.2 2.5 1.4 2.2 3-.5 2.7-.3 5.5-2 8a84.6 84.6 0 0 1 12 40c.1 1 .5 2 .8 2.9 9.4 9.5 21.8 7.7 34 8a227.2 227.2 0 0 0-21.3 36.2c-1.7 3.5-3.5 8.3.5 10.1 3.8 1.8 7.3-2.1 9.3-5.8 3.8-7 7.5-14.1 11.1-21.2 2.8-5.5 5.3-11 8.3-17.2 3 14.4 6.2 28 13 40.3 3.2 5.7 7 8.3 10.2 6.7 3.7-1.9 4-5.9 1-12.4-4.9-10.6-8.8-21.5-12.7-32.5-1.6-4.2-.1-5 3.9-5.3 7-.3 13.9-1 20.7-2 6-.9 10-6.3 7.7-10.5z" fill="#e5d1c4"/><path d="M451.5 412.5c-1.2 1.3-2.9 2.3-3.5 4-1.5 13-9 17.5-23.9 19.6a77 77 0 0 1-33.8-4.4c-5.3-.5-10.7-.3-15.7-2.4-2.2-.9-2.5 1-3.2 2.1-2.7 4.3-7.2 6.8-10.6 10.4-.4.5-1.2.5-2 .6l-.7.1c-.8 2.9-3.2 4.6-5 6.7-5.2 6.3-7.4 14-9.9 21.7v.4c1.3 1.5 2 3.5 2.5 5 1 3.2 1 6.6 1 10-.2 2.1-.4 4.5-1.5 6.4a9.7 9.7 0 0 1-5.5 4c-.2 8-.7 16-.6 24.2.1 6 5.3 9.2 10 11.4 9.5 4.7 14.4 11.8 14.1 22.5 0 .6.5 1.2.7 1.8 7.6-4.4 16-6.3 24.6-6.7 5.2-.2 10.4-.6 15.6-.7a82.1 82.1 0 0 1 19.9 2.3c1.7-.4 3.4.3 5 .6 1.4.3 2.7.3 4-.6l-.9-.7a6.7 6.7 0 0 1-1.8-2.7c-.4-1.3-.6-2.7-.5-4.3.1-4 1.8-5.8 5.8-5.1 3.2.5 6.2.3 9-1.3.8-2.2 2.4-4 2.7-6.4.8-6 2-12.1 2.7-18.2.8-6 3.5-11.3 7.5-15.5 2.6-2.7 5-5.5 7.4-8.4l-5-86.4c-.8.7-1.5 1.3-2.5 1.8-.4 2.9-2.3 4.6-4.1 6.4l-1.8 1.8z" fill="#caa674"/><path d="m339.8 489.8.2 1.8c.2 3.5.1 1.7 0 0h-.3v5c2.2-.7 4.3-2 5.5-4 1.1-1.8 1.4-4.1 1.5-6.4a29 29 0 0 0-1-10c-.4-1.4-1.2-3.4-2.4-4.8l-.2.3c.3 6.3-2.8 11.9-3.3 18.1z" fill="#caa674"/><path d="M752 461.6a33 33 0 0 0-11.9-10.3l-10.1.3-10.2.2c-1.2 0-2.1.2-3.2 1-4.4 3-9 5.9-13.5 8.8l-1 1.2c-6 6.1-10.6 13.3-16 20l-4.6 7.5-7.2 11.5c-6 11.5-8.9 24.1-12.5 36.5a245.6 245.6 0 0 0 16.3 29.2c2.8-8.3 5-17 7.8-25.3 1-2.7 2-5.5 3.2-8.2a212.4 212.4 0 0 1 24.6-43.7c3.9-5 8.7-5.5 14.2-4.3 6.5 1.4 7-1 7-6l.1-2.8c0-1.3-.6-3.4 1.8-3.4 1.9.1 2 1.8 2.2 3.4 3 18.6 2 37.2.2 56-1.2 13-1.8 26.1-4.4 38.9-2 10.2-3.2 20.7-7.7 30.3-2 4.3-4.5 8.4-6.9 12.5-1.3 2.2 11.2 3.3 13.4 4.6a14 14 0 0 1 7.3 11.2c.2 1.3 0 2.7-1.4 3.4-1.5.8-2.6-.1-3.5-1-.9-.9-2-1.6-2.5-2.6-4.4-7.6-11.3-6.9-18.6-6.2l-21.7 1.9c-9.6.8-19.1 2.1-28.6 3.5a127 127 0 0 1-25.7 1.5c-15.8-1-26 6.8-34.9 18.3l-4.4 6c-.9 1.3-1.8 2.7-3.6 1.7-1.6-1-1.3-2.8-.7-4 1.8-3.2 3.6-6.4 5.9-9.2a44 44 0 0 1 36-18.8c8.8 0 17.8-1.4 26.7-2.2 5.8-.6 12 0 18.6-1.1-10.7-.7-9.7-8-9.6-15.1a84.4 84.4 0 0 1 .3-6.6c.5-6.3 1.3-12.5.8-18.8l-28.3.3c-1.5 3.1 1 7.6-2.1 9.6-2.6 1.6-6.4 1.4-9.7 1.9-2.6.4-5.3 1-8 1-24.3-.3-37.2 19.8-39.5 42-1 8.8-.4 17.9-.4 26.8 0 3.6 1.7 5.8 5.7 6.3 20 2.3 40 3.6 60.1 3.4h16.3c12.7-.9 25.3-1.2 38-.2l.5-.8c4.1.2 8.1-1.7 12.2-.2 5-1 10-2.3 15.2-3 4.4-.4 7.1-2.4 9.1-6.4 4.1-8.2 7.7-16.5 9.8-25.5 2.3-9.9 4.6-19.8 7.3-29.5 2-7.3 3.2-14.7 3.6-22.2 1.4-26.7 1.4-53.6.9-80.4-.3-.9-.7-1.8-.7-2.8a84.5 84.5 0 0 0-12-40.1zM686.2 482.8l-4.7 7.5 4.7-7.5z" fill="#ba5c8b"/><path d="M753.8 753.6c-3.7 1.6-6.5-.3-9-5.3-3-6.4-6.4-12.6-9.7-19-.7.4-1.4 1.1-2 1.1-14 0-27.8 2.4-41.8 2.3-12.1-.1-23.9-3.3-35.8-4.6-5-.6-10-.5-15-.6-3 6-6 12-9.2 18l-3.1 5.8c-1.5 2.8-3.1 7-7.3 5.3-4.6-2-1.9-6.1-.8-9.1 1.8-5.3 3.9-10.5 6-15.7l2-5.2H548c-.5 11-.5 11 10.8 11 13.2 0 26.3.2 39.5 0 3.3 0 5.8 1 7.7 3.6l7 9.1c1.3 1.7 2.3 3.4 1.3 5.5-1.2 2.3-3.1 3-5.4 2.8-15.3-1.6-30.7-.7-46-.7-7.3 0-14.6 0-22 .2l-21.9.4c0 3.7-.6 6.4-2.2 8.2-.5.5-1 1-1.7 1.4a22.2 22.2 0 0 1-10.6 2.3c-19 .8-37.9 1-56.6-2.9-9.3-1.9-10.2-3.4-5.8-12 .7-3.8 1.2-7.5 2-11.2l.2-.4.2-.6.2-.3c0-.2.2-.4.3-.5.7-.7 1.8-.9 3.1 0 1.8-3.9 2.9-8 3.6-12l.3-1.9-2.1-1-2.3-.4-1.2-.2c-1.2 0-2.3-.1-3.4-.3-8.6 2-17.3 2.7-26 3.8-1.7.2-3.6.1-5.2 1.2l6.2 15.8a15 15 0 0 1 1.2 6.3c-.2 2.6-1.3 4.6-3.8 5.3-2.3.6-3.8-1-4.8-2.7-4.8-7.7-8-16.1-11.4-24.4-.2-.6-.6-1.1-.9-1.7-1.1 1.7-3 1.3-4.5 1.2-19-.7-37.8 1-56.6 2.3-11.8.8-23.5.4-35.3.9-2.8 4.6-5.5 9.3-8.5 14-.9 1.3-2.3 2.3-3.5 3.4-1.4 1.3-3 2.3-5 1.2-2-1.2-1.3-3-.8-4.9l.5-3.4c-4.9.8-8.2 6-7.2 11 1 5.4 5 8.2 9.4 11 11.5 7 24.5 7.8 37.4 8.4 17.8.8 35.6-.2 53.3-2 9.9-1 19.7-2.1 29.7-2.7 6.8-.3 13.5-1.5 20.6 1a176.9 176.9 0 0 0 55 10.6c15.9.2 31.8.8 47.8-.6 18.6-1.6 37.3-3 56-5.2 6.2-.8 12.7-1.2 17.8-5.4a12 12 0 0 1 8.7-2.7c16 .4 32.2-.6 48.2-1.6 7.8-.6 15.7-1.4 23.4.8 17.7 5.2 35.7 7.8 54 4.8a62.5 62.5 0 0 0 26.6-9.2c8.8-6.2 9.3-19.5 1-25.7a27.4 27.4 0 0 0-14.8-5.5c1.8 3.5 3.6 7 5.3 10.7 2.3 5 1.1 9.2-3 11z" fill="#cec8c4"/><path d="M336 666.6c13.5 2.1 27 2.7 40.6 2 3 .5 6.2-.8 9.2-.8a8.2 8.2 0 0 1 3.1.7c6.2-1.9 12.6-.8 18.8-1.7 3.7-.6 6.8-1.5 9.3-4 4.8-4.7 9.9-9 15.2-13 2-1.4 3.7-3.3 3.8-6l-5.5-.5c-5.5-.5-11-1.1-16.6-.2l2.3 6.6.7 2.3c.5 1.8.2 4.1-1.5 4.9-1.8.8-3.2-1-4.4-2.5-3.8-4.8-5-10.8-6.9-16.4l-.7-2.9c-3.2-10.4-4.3-11.5-15-11-11 .6-22 .5-32.9.3-8.8-.2-17.5 1.5-26.3 1-6.4-.3-12.8-.7-19.2-1.5-4-.5-5.7 2-8 4-1.2 1.2-2.3 3.7-4.4 1.9-1.5-1.4 0-3 1-4.4 3-5 7.8-6.5 13-6.8 5.2-.3 10.3-.1 15.5-.1a55.7 55.7 0 0 1-14.7-38.2c-1.4-26.6-1.9-53.4 4.8-79.5l.6-2.4h-.8a9 9 0 0 1-3.2-.6c-3.3-1.5-3.7-6-3.8-9.7 0-.8 0-1.6.5-2.2.3-.5.9-.9 1.5-1.2l16.3-8.9 7.7-4.2c1.5-.8 3.3-2.1 5-1.7 1 .2 1.6.8 2.3 1.5v-.5l-2.4-4-1.9-1.7c-12.7-15.3-31.2-13.6-45.2-.6-14.5 13.4-20.9 30.8-24.7 49.6l-1.3 7.3-.6 7.4c-1.3 43.7 4.8 86 21.4 126.8 3.1 7.8 8 9 14.5 9.4 6.8.3 13.7.3 20.5.5l12.5 1zm-42-58.5c0 1.2-.1 2.6-1.4 2.9-1.8.3-2.2-1.5-2.4-2.6-1.1-6.5-2.4-13-3-19.6-1.5-16-3-32.1-2-47.5-.6-18.2 0-35.6 3.9-52.7.9-4 2.1-7.7 4-11.2.8-1.3 1.8-2.2 3.3-1.5 1.7.7 1.4 2 .8 3.3-5.8 14.6-6.7 30-7.1 45.4-.3 12-.5 24 0 36 .6 13.4 1.3 26.8 3.7 40 .5 2.4.2 5 .3 7.5z" fill="#ba5c8b"/><path d="M334.6 473.5c2.5-2.2 5.5-2 8.5-1.8l.1-.3a4.4 4.4 0 0 0-2.1-1.5c-1.8-.4-3.6.9-5.1 1.7l-7.7 4.3-16.4 8.8a4 4 0 0 0-1.4 1.2c-.5.7-.5 1.5-.5 2.2 0 3.7.5 8.2 3.8 9.7 1 .4 2.1.5 3.2.6h.8c3-9.7 9-18 16.8-24.9zM343.3 471z" fill="#ba5c8b"/><path d="M501 529.4c-1.6 2.8-3.2 5.6-7 6.3.7 1.6 3.3 1.7 3 4a7.3 7.3 0 0 1 .8 4.8c-1.8 8.3-13.6 18-22.2 18-13.5 0-27-.1-40.3-2.3-4.4-.7-10-.3-12.3-6a52.5 52.5 0 0 1-4.9 3.2c-5 3-10.4 5.4-14.2 10.1l-.1 1.1.2 1.9c1.2.7 2.5 1 3.8 1h266.3c1.7 0 3.3.2 4.8-1l-.8-3a244.5 244.5 0 0 1-16.2-29.2c-2.3-2-4.2-4.3-4-7.7a7.8 7.8 0 0 0-4.7-3.9c-1.2-.3-2.5-.4-4-.3-2.7.3-5.5.2-8.2-.7-2 0-4-.2-5.9-.3l-16.9.3-19.2-.1-16.1-.2c-2.3.1-4.6.4-7 .4l-73 1c-.7.8-1.3 1.7-1.8 2.6zM658 530.6z" fill="#caa674"/><path d="M347.2 420.9a40.7 40.7 0 0 0 1.4 6.5c1.9 3.8 4 7.5 5.4 11.4.8 2.2 3.7 1.5 4 3.7h.8c.8-.2 1.6-.2 2-.7 3.5-3.5 8-6 10.6-10.4.7-1.1 1-3 3.3-2 5 2 10.3 1.8 15.6 2.3a40 40 0 0 0 18.4-3c10.6-5.4 15.2-16 10.5-26.8-3-6.7-7.1-12.7-14.2-16-1.3-.7-2-1.3-3.4 0-1.8 1.8-4 1.3-6 .3-4.4-2.2-8.2-10-7.6-14.8.3-2.5 1.4-3.3 3.6-2.1 6 3 10-.1 13.8-4.2 3.2-3.5 6.5-7 8-11.4 3.3-9 6.8-17.9 11.4-26.4.6-1.2 0-3.6 1.8-3.5 1.1 0 2.5 1.6 3.3 2.8 4.3 6.1 7.9 12.7 10.8 19.5 1.3 3 3 4.2 6 3.4a400 400 0 0 1-2.3-14.9c-.2-7.4-.7-14.9-7.7-19.5a43 43 0 0 0-20.8-7.5 53.7 53.7 0 0 0-54.2 39.2c-2 8.4-1.4 16.4 0 24.6.4 2.8 1.3 5.6-1 8-3.2 3.2-3.5 7.2-2.3 11.2.5 1.9.5 2.9-1.4 4-5.7 3.4-8.5 9-10.4 15.2a105 105 0 0 0 .6 11zM358.8 442.4z" fill="#030303"/><path d="M293.8 464.6c14-13 32.5-14.6 45.2.6l1.9 1.6c0-11.7 1-23.4-.8-35-.4-2.7.2-4.6 3.6-4.3 1.6.1 3.3 0 5-.1a40.6 40.6 0 0 1-2-11l-.1-6.6c-6.7-.3-13.4-.8-20 .2-3.4.6-3.6-.7-3.5-3.3 0-3.5.2-7-.2-10.4-.4-3.1-1.9-5.7-5.7-5.8-3.3 0-4.6 1.7-5.4 4.8-1 4.1-.6 8.2-.7 12.4-.2 3-1 4.1-4.4 3.3-6-1.4-10.5-6.6-10.6-12.8 0-3-.1-6-.8-8.9-.7-3.2-1.1-7.4 1.7-9.4 8-5.6 8.5-13 7-21.5-1.4-8.7-9.7-13.4-17.5-9.7-2.3 1.1-3-.2-4-1.5-2.3-3-5.3-3.2-8.5-2-4.2 1.5-7 6.6-6.6 11.8.3 5 3.5 9.7 8 10.4 5.6.8 5.4 5.7 6.4 9.2s-.1 7.3-4.4 8.8c-4.2 1.5-7.1 4.2-8.9 8.2l-2.3 5.8c-6.4-4.4-12.7-4.1-15.7.6-3.4 5.2-4.5 11-3.7 17 1.5 9.8 4 19.5 4.2 29.5.8 0 1.7 0 2.4.3a20.5 20.5 0 0 1 10.3 6.8 29.9 29.9 0 0 1 5.5 18h10.4c1.7 0 2.5.4 1.5 2.4-6.1 12.7-10.5 26-14.2 39.6-.9 3-1.1 5.5.9 8l1.3-7.4c3.8-18.7 10.2-36.2 24.7-49.6zm17.2-38.9c5 1.3 10.2.7 15.4.9 2.7 0 3.7 1.4 3.7 4v20.7c-6-2.6-11.3-4.1-16.6-6-3.9-1.4-3.8-5.7-3-9 .5-3 .7-5.5-1.2-8-1.8-2.4-.3-3.1 1.7-2.6zM269.1 471.6zM348 425.2zM347.2 420.9zM348 425.2z" fill="#f2e2d6"/><path d="M440.7 346.1c-3-6.9-6.5-13.4-10.8-19.5-.8-1.2-2.2-2.8-3.3-2.8-1.9 0-1.2 2.3-1.9 3.5-4.5 8.5-8 17.4-11.3 26.4-1.5 4.4-4.8 8-8 11.4-3.7 4-7.8 7.2-13.8 4.1-2.2-1.1-3.3-.4-3.6 2.2-.6 4.8 3.2 12.6 7.5 14.7 2 1 4.3 1.6 6-.2 1.4-1.3 2.2-.7 3.5-.1 7 3.3 11.2 9.4 14.1 16.1 4.7 10.9.2 21.4-10.4 26.7-6 3-12.1 3-18.4 3a77 77 0 0 0 33.8 4.5c15-2 22.4-6.6 23.9-19.5-6.2 2.7-12.8 4.2-20 6.4 4.1-10 6.5-20 9.2-29.7 1.1-4.1 5-4.7 8.8-4.8.5-1.2 1.6-1.5 2.7-2 7-3.4 7.6-5.4 4.6-12.4-1.9-4.4-1-9.6-4-13.7-.6-.7.4-1.4 1-2 1.8-1.6 3.2-3.3 2.1-6-1-2.8-3.3-2.9-5.7-3-3 .9-4.7-.3-6-3.3zm-6.6 3.8c0 1.3-.2 2.6-1.6 2.4h-.9c-2.7-.6-2.6-3.3-2.8-5.5-.2-1.4 0-3.4 1.5-3.2 3 .3 3 3.3 3.8 5.4v.9z" fill="#f7dac6"/><path d="M483.6 455.2c5-12.5 6.3-26.1 9-39.3 3.6-18 6.3-36 9.4-54.1.4-2.5 2-5.8-2-7.3-2.1 4.9-6.2 5-10.4 4-4.5-1.1-5.3-5-5.6-8.9-4.1-1.6-4 1.9-4.5 4-3.3 15-9.2 29.1-16 42.8-1 2.1-2 4.4-3.7 6.1l5 86.4c8-10.2 14-21.6 18.8-33.7z" fill="#caa674"/><path d="M489.6 358.5c4.2 1 8.3.9 10.4-4 .6-11.7 2.4-23.4 3.5-35 .9-9.8 1.3-19.7 5-29.3 2.5-6.6 1.2-14.8 1.5-22.2 0-3.7 0-7.4-.2-11 0-1.6-.6-3.5-2.5-4-2-.6-1.8 2-3 2.8l-1.4-5.9c-1.2-4.3-5.5-4-8.5-4.7-2.3-.5-3.3 2.7-3.4 5.2 0 1.3.2 2.9-1.7 3-3.3.4-3.3 2.7-3.3 5.2V270c0 2 .5 4.2-2 6v-5.5c-.3-2.2-1.5-3.8-3.8-3.8-2.8-.1-3.2 1.9-3.2 4 0 3-.4 6.1.1 9 1.5 8.7 2.4 17.7 10.3 23.5 1.7 1.2 1.6 2.7 1.6 4.3.1 10.3-2.7 20.4-2.3 30.7 0 3.7-.2 8-2.7 11.4.3 4 1 7.8 5.6 8.9z" fill="#faddc9"/><path d="M489.1 500.1c-5 8.8-9.8 17.7-14.8 26.4-1.2 2-2.3 4.1-4.3 5.4 0 .7 0 1.4-.2 2-2.8 5.8-2.8 5.6 3.6 5.6 3.6 0 6.5-1.4 9-3.5 3.6-2.7 6.8-5 10.3 0 0 .2.9-.2 1.4-.3 3.7-.7 5.3-3.5 7-6.3.5-.9 1.1-1.8 1.8-2.6 1.6-7.9 5.2-15 8.7-22 3.4-7.2 7-14.2 8.6-22l-28 13.6c-1.8.8-2.3 2.3-3.1 3.8zM501 529.4z" fill="#8fb8cb"/><path d="m706.6 671.6-.5.8 29 57c3.3 6.3 6.6 12.5 9.7 18.9 2.5 5 5.3 6.9 9 5.3 4.1-1.8 5.3-6 3-11l-5.3-10.7c-10.8-20.2-21-40.7-32.7-60.5-4-1.5-8.1.4-12.2.2z" fill="#030303"/><path d="M435.6 538.7c-4-.7-5.7 1.1-5.8 5.1 0 1.6.1 3 .6 4.4a6.8 6.8 0 0 0 2.7 3.4c2.9 1 6 1.5 9 1.8a173 173 0 0 0 9.1.7c7.6.8 15.1 2.2 22.7 2.2a22 22 0 0 0 19.7-11.9c1-1.7 1.4-3.8 3.4-4.7.3-2.3-2.3-2.4-3-4-.4.1-1.2.4-1.3.3-3.5-5-6.8-2.7-10.2 0-2.6 2-5.6 3.5-9 3.5-6.6 0-6.5.1-3.7-5.6.3-.6.1-1.3.2-2-3.3-2.6-6 .2-8.8 1.1-3.8 1.3-6.8 4.9-11.3 4.5h-5.2a13.2 13.2 0 0 1-9 1.2zM432.1 550.8z" fill="#f7dac6"/><path d="M494 535.7c.7 1.6 3.3 1.7 3 4 .3-2.3-2.3-2.4-3-4z" fill="#f7dac6"/><path d="M285 753.3c1.8 1 3.5 0 4.9-1.2 1.2-1.1 2.6-2.2 3.5-3.5 3-4.6 5.7-9.3 8.5-14a666 666 0 0 1 30.6-60.9c1.3-2.3 2.4-4.7 3.6-7l-12.5-1.1c-.3.7-.5 1.6-1 2.3-14.7 24.6-25.3 51.4-38 77l-.6 3.5c-.4 1.8-1.1 3.7 1 4.9z" fill="#030303"/><path d="m336 666.6-12.4-1 12.5 1z" fill="#4d4d4d"/><path d="M461.2 533c2.9-.9 5.5-3.7 8.8-1 2-1.4 3.1-3.5 4.3-5.5 5-8.7 9.9-17.6 14.8-26.4.8-1.4 1.3-3 3-3.7l28-13.7c.4-3.6-2.3-2-3.6-1.8-6.5 1.1-13 2.5-19.5 3.8-7.1 1.3-15.8.7-21 4.7-5.1 4-6.7 12.5-10 19-4.2 8.7-7.6 17.7-13.7 25.3-1 1.1-3.3 1.6-2.4 3.8 4.5.4 7.5-3.2 11.3-4.5z" fill="#5a7686"/><path d="M437.2 393.3C434.5 403 432 413 428 423c7-2.2 13.7-3.7 19.9-6.4.6-1.8 2.3-2.7 3.5-4l1.8-1.9c1.9-1.7 3.7-3.5 4.1-6.3 1.2-9-5.1-12.4-11.4-15.9-3.8.1-7.7.7-8.8 4.8z" fill="#030303"/><path d="m454.6 729 13.5 2.7 8.8 1.3 1.6-.7c.9-.6 1.5-1.3 2-2.1.7-1 1-2.2 1.5-3.3l.3-.9a52.2 52.2 0 0 1 .6-1.6l.2-.4.3-.6.7-3.8c.2-1 .6-2 1.2-3l.6-.9 2-6.2 2-6.3 1.9-6.3a107 107 0 0 0 1.6-6.3c2.8-13.3 9.4-25.5 11-39 1.4-10.5 3.5-21.4-3.7-30.6-5-6.4-12.1-10.2-19-14.2-11.4-6.5-23.8-9.9-36.3-13.3-8-2.2-15.8-4.6-23.6-7.4-2-.6-4.5-1.6-4.7-4.5l-5-.2c-8.5-.2-9.7-1.8-8.1-11l-.2-1.8-.2-.8.3-.3c3.8-4.7 9.2-7.2 14.2-10.1 1.7-1 3.4-2 5-3.2l1-2.7c-5.2-1.5-10.3-2-15.5-2.2H404c-5.2 0-10.4.4-15.5.6-8.7.4-17 2.3-24.6 6.7-4 12-10.4 23.1-13.3 35.6-1.3 5.8-2.8 11.6-2.4 17.3a25.2 25.2 0 0 0 1.8 8l9.2-.3 27.7-.6c11.7-.2 17 3.6 21 14.6 1.5 4.2 2.3 8.7 6 11.9 5.5-1 11-.3 16.5.2l5.6.4c3 .3 6.4-.4 8.8 1 3 1.8-.2 5-.3 7.5-.5 10.8-2.7 21.4-4.8 32-2.1 10-4.6 20-7 30-2.1 9.1-1.7 9.9 7.3 11.8l2.9.7 3.4.2a47.7 47.7 0 0 1 3.5.7c.7.2 1.4.5 2.1 1l2.6.5zM424 551.5zM406.3 549.3h2.3-2.3zM447.6 727.1z" fill="#015478"/><path d="m404 570.5-.2-1.9.1 1.9z" fill="#015478"/><path d="M350 617.5a19.3 19.3 0 0 1-1-3.2c-.4-1.6-.6-3.2-.7-4.7-.4-5.8 1-11.6 2.4-17.4 2.8-12.5 9.4-23.5 13.3-35.6-.3-.6-.7-1.2-.7-1.8.3-10.7-4.6-17.7-14.2-22.4-4.6-2.3-9.9-5.4-10-11.5-.1-8 .5-16.2.6-24.3a87.4 87.4 0 0 1-21.7 1.8l-.8 2.4c-6.7 26.2-6.2 53-4.8 79.6a55.7 55.7 0 0 0 14.7 38.1c7.6-1.8 15.3.2 23-1zM339.8 489.8v1.7-1.7z" fill="#a64672"/><path d="M339.7 491.5c-3-.8-6.4-9.6-12.7-5-3.7 2.9-4.8.4-9 12a87.4 87.4 0 0 0 21.7-1.9v-5zM340 491.6c.1 1.7.2 3.5 0 0zM340 491.6a50.4 50.4 0 0 0-.3-.1h.3z" fill="#a64672"/><path d="m424 551.5-1 2.7c2.3 5.7 8 5.3 12.2 6 13.4 2.2 27 2.3 40.4 2.3 8.6 0 20.4-9.7 22.2-18l.1-1.3c0-1.2-.3-2.4-.9-3.5-2 1-2.4 3-3.4 4.7a22.1 22.1 0 0 1-19.7 11.9c-7.6 0-15.1-1.4-22.7-2.2a173 173 0 0 0-9.1-.7c-3-.3-6.1-.8-9-1.8-1.4.9-2.7.8-4 .6-1.7-.4-3.4-1-5-.6z" fill="#8b745b"/><path d="M424 551.5c1.7-.4 3.4.3 5.1.6-1.7-.3-3.4-1-5-.6zM497.9 543.2zM442 553.4z" fill="#8b745b"/><path d="M678.9 570.6v3.4c.8 4.1-.8 6.6-4.9 7.4.5 6.3-.3 12.5-.8 18.8a98.7 98.7 0 0 0-.3 6.6c0 7.1-1.1 14.4 9.6 15-6.6 1.1-12.8.6-18.6 1.2-8.9.8-17.9 2.2-26.7 2.2a44 44 0 0 0-36 18.7c-2.3 2.9-4.1 6.1-5.9 9.3-.6 1.2-1 3 .7 4 1.8 1 2.7-.4 3.6-1.7l4.4-6c8.8-11.5 19.1-19.3 34.9-18.3 8.4.5 17.2-.3 25.7-1.6 9.5-1.3 19-2.7 28.6-3.5l21.7-1.8c7.3-.7 14.2-1.4 18.6 6.2.6 1 1.6 1.7 2.5 2.5 1 1 2 1.9 3.5 1.1 1.4-.7 1.6-2 1.4-3.4a14 14 0 0 0-7.3-11.2c-2.2-1.4-14.7-2.4-13.4-4.7 2.4-4 4.9-8.2 6.9-12.5 4.5-9.5 5.7-20 7.7-30.2 2.6-12.8 3.2-26 4.4-39 1.8-18.7 2.9-37.3-.2-56-.3-1.5-.3-3.2-2.2-3.3-2.4 0-1.8 2-1.8 3.4V498c-5.8-5.7.5-10.5-7-12.1-5.6-1.2-10.4-.8-14.2 4.3a212 212 0 0 0-28 52c-2.8 8.2-4.9 16.8-7.7 25.2l.8 3z" fill="#af436e"/><path d="M674 581.4c.5 6.3-.3 12.5-.8 18.8.5-6.3 1.3-12.5.8-18.8zM685.9 542.2c-2.9 8.3-5 17-7.8 25.3 2.8-8.3 5-17 7.8-25.3zM735 498v-18c0 5-.6 7.4-7 6 7.5 1.7 1.2 6.4 7 12z" fill="#af436e"/><path d="M674 581.4c4.1-.8 5.7-3.3 5-7.4-.2-1.1-.1-2.3-.1-3.4-1.5 1-3.1 1-4.8 1l-263.8-.1h-2.5c-1.3 0-2.6-.3-3.8-1-1.6 9.1-.4 10.7 8.1 10.9l5 .2h62.6a71797.1 71797.1 0 0 0 65.3 0l6-.3 68.8.2c8.6 0 17.3-.8 25.9.1l28.3-.2zM674 581.4l-28.3.3 28.3-.3z" fill="#8b745b"/><path d="m626 731.8-6 15.7c-1 3-3.7 7 1 9 4 1.8 5.7-2.5 7.2-5.2l3.1-5.9 9.3-18c8-18.8 17.6-36.8 27.5-54.7h-16.3l-23.7 53.9-2 5.2z" fill="#030303"/><path d="M668.1 672.7h-16.3 16.3zM631.3 745.4l9.3-18-9.3 18z" fill="#4d4d4d"/><path d="M545 581.5h-19c-1.8 10.6-1 21.2-1 31.8-.3 37.7-.3 75.4-.3 113.1a20.9 20.9 0 0 1 0 8.2c.3 4 .3 5.7-1 6.6-1 .7-2.7.9-5.7 1l-4 .2-11.9.3-1 .2c-3.2.5-6.3.5-9.5-.1a9.3 9.3 0 0 0 4.6 3.4l.3.1c.9.4 1.7.6 2.6.8.7 0 1.4.2 2 .3 4.7.8 9 2.3 13 4.8l.6.4 1.1.7c.9.7 1.5 1.6 1.4 3l1.6 2 .2.2 22-.4c7.4-.1 14.6-.3 22-.2 15.2 0 30.6-1 45.8.6 2.3.3 4.3-.5 5.4-2.7 1.1-2.2 0-3.9-1.2-5.5l-7-9a8.7 8.7 0 0 0-7.7-3.7h-39.5c-11.3 0-11.3 0-10.8-11.1l-.6-18.4c-1-42.2 1.8-84.5-2.4-126.6z" fill="#030303"/><path d="M491 761.3c9-.3 18-.6 26.2-5 .1-1.4-.5-2.3-1.4-3a11 11 0 0 0-1-.7l-.6-.4a36 36 0 0 0-13-4.8c-.7 0-1.4-.2-2-.3a22 22 0 0 1-2.7-.7l-.3-.2h-.3a9.3 9.3 0 0 1-4.3-3.4c-4.3-.3-8.4-1.6-12.4-3.3l-1.6-.8a17.9 17.9 0 0 0-8.6-2.2c-1.8.7-3.1 1.7-4.1 3s-1.7 2.9-2 4.7c-1 4.8-4.3 7-9 6.2-4.3-.8-6-3.7-5.8-8-1.3-.8-2.4-.7-3 0l-.4.5-.2.3a4.2 4.2 0 0 0-.3 1c-.9 3.7-1.4 7.5-2.1 11.2 16 5.2 32.4 6.6 49 6zM444.7 743zM444.3 743.9zM495.9 746.1zM496.5 746.4z" fill="#c8a57d"/><path d="m387.4 668-1.6-.2c-3 0-6.1 1.3-9.2.9l21.7 61.5.9 1.8c3.4 8.2 6.6 16.7 11.3 24.3 1.1 1.7 2.5 3.4 4.9 2.7 2.5-.7 3.6-2.7 3.8-5.3.1-2.2-.4-4.3-1.2-6.3l-6.2-15.7c-8.9-20.6-15.6-42-22.9-63.2l-1.5-.5z" fill="#030303"/><path d="M385.9 667.8c-3.1 0-6.2 1.3-9.3.9 3 .4 6.2-1 9.3-.9z" fill="#4d4d4d"/><path d="m518.8 758.3-1.6-2c-8.2 4.5-17.3 4.7-26.1 5-16.6.7-33-.7-49-5.9-4.4 8.6-3.5 10.2 5.8 12 18.7 4 37.6 3.8 56.6 3 5-.2 8.4-1 10.6-2.3.7-.4 1.2-.9 1.7-1.4 1.6-1.9 2.2-4.5 2.2-8.2l-.2-.2zM519 758.5l-.2-.2.2.2z" fill="#e5d1c4"/><path d="M453.9 750.4c4.7.8 8-1.4 9-6.1a9.2 9.2 0 0 1 6.2-7.7c0-1 .6-1.9.8-2.8v-.9l-.5-.6-.3-.2-1-.4-13.5-2.6-2.6-.5a55.7 55.7 0 0 1-3.9 13.9c-.3 4.2 1.5 7.1 5.8 7.9zM451.7 730.4z" fill="#f7dac6"/><path d="m468 731.7-13.4-2.6 13.5 2.6zM464.9 739.5z" fill="#f7dac6"/><path d="M408 631.3c-4-11-9.4-15-21-14.7-9.2.1-18.5.4-27.7.7l-9.2.2c-7.7 1.2-15.4-.8-23 1-5.2 0-10.3-.2-15.5.1-5.2.4-10 1.8-13 6.8-1 1.4-2.5 3-1 4.4 2 1.8 3.2-.7 4.4-1.8 2.3-2 4.1-4.6 8-4.1 6.3.8 12.8 1.3 19.2 1.6 8.8.4 17.5-1.2 26.3-1 11 .1 22 .2 32.9-.3 10.7-.6 11.8.6 15 11l.7 2.8c2 5.7 3.1 11.6 6.9 16.5 1.2 1.5 2.6 3.2 4.4 2.4 1.7-.7 2-3 1.5-4.9l-.7-2.2-2.3-6.7c-3.6-3.1-4.4-7.7-6-11.8zM416.2 649.7l-2.3-6.6 2.3 6.6zM293.8 600.6a297 297 0 0 1-3.7-40c-.5-12-.3-24 0-36 .4-15.4 1.3-30.8 7.1-45.4.6-1.4.9-2.6-.8-3.3-1.5-.6-2.5.2-3.2 1.5-2 3.5-3.2 7.3-4.1 11.2-4 17-4.5 34.5-4 52.7-.8 15.4.6 31.4 2 47.5.7 6.5 2 13 3.1 19.6.2 1.1.6 3 2.4 2.6 1.3-.3 1.5-1.7 1.5-2.9 0-2.5.2-5-.3-7.5z" fill="#af436e"/><path d="m403.6 567.8.2.8v-1s-.3.1-.2.2zM403.8 568.6v-1 1z" fill="#8b745b"/><path d="M421.8 586.1c7.8 2.8 15.7 5.2 23.6 7.4 12.5 3.4 25 6.8 36.3 13.3 6.9 4 14 7.8 19 14.2 7.2 9.3 5 20 3.8 30.5-1.7 13.6-8.3 25.8-11.1 39a108.9 108.9 0 0 1-3.5 12.7l-2 6.3-2 6.2.7.6a7 7 0 0 0 3.5 1.2h6.3l1.5.4 2.2.1h.9l5.9-1c2-.5 3-1.5 3.2-3.8 1.5-19.3 5.5-38.2 7.6-57.3 1.6-14 .4-28-2.9-41.7-3-12.5-12-20.3-22.6-26.6-3.9-2.4-8.3-4-12.5-6H417c.1 3 2.8 3.9 4.7 4.5zM489.9 703.2zM486 715.8zM479.7 581.7H417h62.6z" fill="#043b53"/><path d="M499.9 721a7.6 7.6 0 0 0-3.9-.5c-2.5 5.8-4.5 6.3-12.6 2.9l-.3.6-.2.5-.1.2-.5 1.3-.3.9c-.4 1.1-.8 2.3-1.4 3.3a6.2 6.2 0 0 1-3.7 2.8c3.6.4 7.1.9 10.7 1.2l3.6.2c11.2.6 22.3 1.6 33.5.2a26.7 26.7 0 0 0 0-8.2c-8.4-1.3-16.9-2.2-24.8-5.4zM482.3 726zM477 733z" fill="#c8a57d"/><path d="M482.9 724.5c0-.2 0-.3.2-.5l-.2.5zM480.6 730.2zM524.7 734.6z" fill="#c8a57d"/><path d="M524.7 734.6c-11.2 1.4-22.3.4-33.5-.2l-3.6-.2c-3.6-.3-7.1-.8-10.7-1.2l-8.8-1.3 1 .4a1.9 1.9 0 0 1 .7.8c.2.3.2.6 0 1 0 .8-.7 1.8-.8 2.6 3.1-.2 5.8 1 8.6 2.3l1.6.7c4 1.7 8 3 12.4 3.3a26.7 26.7 0 0 0 10.5 0l12-.4 3.9-.2c3-.1 4.8-.3 5.7-1 1.3-.9 1.2-2.7 1-6.6z" fill="#e5d1c4"/><path d="M523.7 741.2c1.3-.9 1.2-2.7 1-6.6.2 4 .3 5.7-1 6.6zM479.3 739.5zM469 736.5c0-.8.7-1.8.9-2.7-.2 1-.8 1.9-.9 2.7zM468 731.7zM469.8 732.9zM496 720.5c-.2-1.5 1.1-1.8 1.9-2.6l-1.5-.3c-1.5-.2-3 0-4.6 0H490a7 7 0 0 1-4.2-1.8l-.6.8c-.7 1-1 2-1.2 3l-.7 3.8c8 3.4 10.1 3 12.6-3z" fill="#e5d1c4"/><path d="m484 719.7-.6 3.7.7-3.7zM491.8 717.6zM498 717.9zM490.1 717.6h.2-.2zM501 718h-1c.4.5.7.5 1 0zM501 718z" fill="#e5d1c4"/><path d="M428.4 344.8c-.4 1.5-.4 2.4 0 4s1.2 2.9 2.5 3.5 3 0 3.6-1.3c.4-1 .2-2.4-.2-3.6a7.3 7.3 0 0 0-1.7-3.2c-1-.8-2.2-1.1-3-.4" fill="#030303"/><path d="M449.4 364c.4-.3.9-.5 1.3-.6 1 0 2 .5 2.2 1.4s-.5 2-1.4 2c1 0 2.2.2 2.6 1.2.2.8-.2 1.5-.6 2.2l-1.6 2.5" fill="#f7dac6"/><path d="m339 282.6.5.2-.6-.7.1.5zM338.2 281.3 337 280l1 1.7.6.2-.3-.4z" fill="#fdfdfd"/><path d="M311.1 265v-.4c-6-1.8-11.3-4.9-16.5-8.2a41.8 41.8 0 0 1-18.5-36 42.2 42.2 0 0 1 5-21.2c7.8-14 20-23.5 34.2-29.4 21.2-8.7 43.5-9 66-4.4 22.8 4.7 36.1 29.4 36 50.7.1 9-2.1 17.4-7 23.6-11.5 14.5-24.4 24.7-42.4 28.2-4.4.9-8.8 1.5-13.2 2.1-2.6.4-3.7 1.5-3.8 4.2v.7c.2 6.7 3.8 12 7.3 17.6h-.1c.1.1-1.2 1-1 1 .9.4 2.2.5 3 .6l.8-.3h.3c.2-1.9-1-3.1-2-4.4a33.4 33.4 0 0 1-5.7-11.6c-1.2-3.8-.6-6 4.3-6.7 10.5-1.4 21-3 30.4-8.7 19.2-11.8 33.4-26.9 31.6-51.3a52 52 0 0 0-37.6-47.7c-12-3.2-24-3-36.2-2.5-17 .8-33 5.3-47 15.9-15 11.3-25.8 24.6-25 45 .9 21.9 15.8 37.5 37.1 43.2z" fill="#4b4b4b"/><path d="M294.6 255.4c-12.7-8-18.2-22-18.5-35 0 13.3 5.5 27.8 18.5 36a70.4 70.4 0 0 0 16.4 8.2v-1c-5.9-1.8-11.2-4.9-16.4-8.2zM368 267c-4.5.8-8.9 1.4-13.3 2-2.6.4-3.6 1.5-3.8 4.3v1.6-.6c.2-2.8 1.2-4 3.8-4.3 4.4-.6 8.8-1.2 13.2-2 18-3.6 30.9-13.8 42.4-28.3 4.9-6.2 7.1-14.6 7-23.6 0 8.6-2.3 16.6-7 22.6-11.5 14.5-24.4 24.7-42.4 28.2z" fill="#4b4b4b"/><path d="m339.5 282.8.7.7-.4-.6-.3-.1z" fill="#afa8a1"/><path d="M319.3 266c-2.7.4-5.5-.8-8.2-1.4v.4c3.7 2.2 7.9 2.3 12 2.4 3.4.2 5.4 1 7.3 4.3a99 99 0 0 0 6.6 8.2c-4-6.8-6.6-15.3-17.7-13.8z" fill="#4b4b4b"/><path d="m338.6 281.8.3.3-.3-.3z" fill="#afa8a1"/><path d="M339 281.6c1 .3-3.7-5.5-3-5 .8.4 2.2 1.7 3.7 3.3-4.4-7.1-10.3-16.2-20.4-14.8-2.7.3-5.5-1-8.3-1.5v1c2.8.5 5.6 1.8 8.3 1.4 11-1.4 13.7 7 17.7 13.9l1.2 1.4c-.1-.1-.2-.4-.1-.7.6 0 .9.3 1 1-.4 0-.7 0-.8-.2l.3.4c.2 0 .3.2.3.3l.6.6.3.1a16 16 0 0 1-.7-1.2zM359.8 293.9c-.2-.2-.5-.2-.8-.3l-.6-.7-.8-.2.5.8-1 .1c-3.9-.6-6.7-2.8-9.7-5-1.8-1.3-3.3-3-5.2-4.4.3.9.6 2.2-.2 1.4l-1.8-2c3.4 5.2 8 7.3 13.8 10 .9.4 4.4.8 6 .5l-.2-.2z" fill="#4b4b4b"/><path d="m339.7 279.9 2.3 3.7.2.6c1.9 1.3 3.4 3 5.3 4.4 3 2.2 5.8 4.4 9.5 5l1.2-.1-.6-.8c-3.6-1.3-8-3.5-10.1-5.1-1.4-1-5-4.8-7.8-7.7zM342.2 284.2a11 11 0 0 0-2.4-1.3l.4.6 1.8 2c.8.9.5-.4.2-1.3z" fill="#4b4b4b"/><path d="M339.7 279.9a27.1 27.1 0 0 0-3.7-3.3c-.7-.5 4 5.3 3 5l.8 1.3c.9.3 1.7.8 2.4 1.3 0-.4-.2-.6-.2-.6l-2.3-3.7z" fill="#4b4b4b"/><path d="M338.3 281.4z" fill="#cec8c4"/><path d="M339 281.6c0-.6-.3-1-1-1l.2.7v.1l.8.2z" fill="#4b4b4b"/><path d="M372.2 206.5c0 1.4-.2 2.7-.7 4 .8-1.3 1-2.6.7-4zM361.5 197.6l-.6-.2.6.2zM371.1 227a12 12 0 0 1-.7 4.7l.6-.1c1.8-.7 3-2.1 2.6-4.4 0-.3-.2-.5-.3-.7h-.2c-.6.3-1.3.4-2 .6zM368.6 214.4l.1-.9c-.5.3-1.4.6-2.4.9h2.2zM325.1 241.6a76 76 0 0 0 36.3.5c4.5-.7 6.9-3.4 7.4-7.8a8.2 8.2 0 0 1-4.5 2 70.3 70.3 0 0 1-33.5-.5c-3.2-1-6.8-1.8-6.1-7-2.2-.4-5-.5-5-3.7.1-3.6 3-3.7 5.6-4v-.4c-.8-.1-1.6-.4-2.2-1-1-.8-1.5-3-.4-3.9.7-.6 1.6-.5 2.5-.4a18.5 18.5 0 0 1-.4-.1l-.4-.8-1.3-.2c-3-4-.4-14 4.5-17.3 9.4-6.2 19.4-9.3 30.5-5.3l4.3 1.6v-.1l.5.2c-1.5-2.4-4-3.3-6.3-4.3-12.1-4.7-23-1-33 6.3-5.4 3.9-8.1 15.8-5 20.6-3-.3-6-.3-6.2 4-.2 4 2.6 4.7 5.6 4.9l1.3.2-.1.6c-2.7.3-6 .4-6 4.4 0 3.4 3 3.5 5.4 4-.8 5.5 3.2 6.4 6.5 7.5zM370 200.1a13 13 0 0 0-6.1-6.2c2.3 1.3 4.5 3.8 6 6.2z" fill="#fefefe"/><path d="M362.3 193.3c1.4.6 2.7 1.4 3.4 2.4 0 2.1-1.6 3-4.2 2l-.6-.3c-5.8-3-13.5-.5-19.1 3.6-3.8 2.8-8.2 4.8-11.1 8.6l-1.3 1.6a9 9 0 0 1-5 3.3l.4.8 1.1.1c11 1 22 2.5 32.9.3 2.5-.5 5-1.2 7.5-1.4 1-.2 1.9-.5 2.4-.8.2-.5.5-1 1-1.3.8-.5 1.4-1.1 1.8-1.8.5-1.2.7-2.6.7-3.9a26.8 26.8 0 0 0-2.3-6.4c-1.5-2.4-3.7-5-6-6.2l-1-.4v-.1l-.6-.3zM363.9 193.9l-1-.5 1 .5z" fill="#d4934a"/><path d="M369.7 212.3c-.5.3-.8.7-1 1.2l.3-.1c1.2-.8 2-1.8 2.5-3-.5.7-1 1.3-1.8 1.8zM372.2 206.5c0-1.2-.2-2.4-.6-3.4-.4-.9-1-2-1.7-3a25.8 25.8 0 0 1 2.3 6.4z" fill="#d4934a"/><path d="M341.8 201c5.6-4.1 13.3-6.6 19.2-3.6l.5.2c2 .7.9-2.2.8-4.3-1.4-.7-3-1.2-4.2-1.6-11.2-4-21.1-1-30.5 5.3-5 3.2-7.4 13.3-4.5 17.3l1.3.2a9 9 0 0 0 5-3.3l1.3-1.6c2.9-3.8 7.3-5.9 11.1-8.6z" fill="#e0ad72"/><path d="M361.5 197.6c2.5 1 4.2.2 4.2-2-.7-1-2-1.7-3.4-2.3.1 2 1.3 5-.8 4.3z" fill="#e0ad72"/><path d="M369.4 225.4c-.5.2-1.1 0-1.7 0l.1-2.9v-.1c-4.2 2.3-9 2.3-13.6 3.2a72 72 0 0 1-19.8 1.2c-3.7-.3-7.6-.9-9.1-5.7-2.6.3-5.5.4-5.5 4 0 3.2 2.7 3.3 4.9 3.7.4.2.7.5 1.1.5 5.2.5 10.8-1 15 4 .2.2.9.2 1.2 0 3.5-1.6 7-1.4 10.6 0 .3 0 1 0 1.2-.4 2.6-4 6-3.2 9.7-2.4 1.7.4 3.3-.6 4.2-2.4.8-1.6 2-2 3.4-1l2-.5.2-.1c-.7-1.7-2.2-1.8-3.9-1.1z" fill="#96c122"/><path d="m367.8 222.5-.1 3 1.7-.1c1.7-.7 3.2-.6 4 1 1.6-.6 2.6-1.9 2.1-3.9-.5-2.2-2-2.4-3.8-1.7-.5.2-1 0-1.6.1-.7.6-1.5 1-2.2 1.5l-.1.1z" fill="#96c122"/><path d="M367.7 228.1c-1 1.8-2.5 2.8-4.2 2.4-3.6-.8-7.1-1.6-9.7 2.4-.2.3-.9.5-1.2.4-3.5-1.4-7-1.6-10.6 0-.3.2-1 .2-1.2 0-4.2-5-9.8-3.5-15-4-.4 0-.8-.3-1.1-.5-.8 5.2 3 6 6 7a70.3 70.3 0 0 0 33.6.5c1.9-.3 3.3-1 4.4-2l.1-2.1 1.6-.5c.5-1.3.8-2.8.7-4.6-1.5-1-2.6-.6-3.4 1z" fill="#d4934a"/><path d="M368.8 234.3a7 7 0 0 0 1.6-2.6l-1.6.5v2z" fill="#d4934a"/><path d="M334.4 226.8c6.6.7 13.3 0 19.8-1.2 4.6-.9 9.4-.9 13.7-3.2.5-1.5 1.8-2.8 1.7-4.3-.9.4-1.8.8-2.8 1-.8.1-1.7.1-2.5.3-2 .6-3.6 2.3-5.7 2.4-2 0-4-1.7-6.1-1.5-1.3 0-2.4.8-3.6 1.4-2.2 1-4.8 1.4-7.2.9-1-.2-2.1-.6-3.2-.5-1 .1-2 .7-3 .7-.7 0-1.4-.4-2-.6-1.5-.6-3-1-4.6-1h-2l-1.6-.5v.4c1.5 4.8 5.4 5.4 9 5.7z" fill="#693f11"/><path d="m367.9 222.4 2.2-1.5v-2.7l-.4-.1c0 1.5-1.2 2.9-1.8 4.3z" fill="#693f11"/><path d="m366.3 214.3-3.3 1.1c.2.3-12.4 1.3-11.7 1.4-4.3 1.5-16-.4-18.5-.5-2.3 0-4.6-.5-6.9-.9h-.7c-.9-.1-1.8-.1-2.5.4-1 1-.7 3 .4 4 .6.5 1.4.8 2.2 1v-.3c5.8-1.2 11.5 1.6 17.4 0 7.9-2 16.2-.9 24.2-2.8.9-.2 1.8.1 2.7.4 0-.8-.4-1.5-1.2-2.3l.1-1.4h-2.2z" fill="#da1116"/><path d="M369.6 218c.2 0 .4 0 .6-.2 1-.4 2-1.4 1.5-2.4-.2-.4-.6-.5-1-.6-.7-.3-1.4-.4-2.1-.4l-.2 1.4c.9.8 1.2 1.5 1.2 2.3zM351.3 216.8c-.7-.1 11.9-1 11.7-1.4l3.3-1c-2.5.1-5 .8-7.5 1.3-10.8 2.2-22 .7-32.9-.3 2.3.4 4.6.9 7 1 2.4 0 14.1 1.9 18.4.4z" fill="#da1116"/><path d="M328.9 221.3c1.5 0 3.1.3 4.6.9.6.3 1.3.6 2 .6 1 0 2-.5 3-.7 1-.1 2.1.3 3.2.5 2.4.5 5 .2 7.3-.9 1.1-.5 2.2-1.3 3.5-1.4 2.1-.2 4 1.5 6.1 1.5 2-.1 3.7-1.8 5.7-2.4.8-.2 1.7-.2 2.5-.3 1-.2 2-.6 2.8-1-.9-.3-1.8-.6-2.6-.4-8 2-16.4.8-24.3 2.9-5.9 1.5-11.6-1.3-17.3 0v.2l1.6.3c.6.2 1.2.1 1.9.2zM369.6 218.1z" fill="#da1116"/></svg>