<svg viewBox="0 150 1086 650" xmlns="http://www.w3.org/2000/svg" xml:space="preserve" style="fill-rule:evenodd;clip-rule:evenodd;stroke-linejoin:round;stroke-miterlimit:2"><path d="M515 614c3 14 4 28 3 42l-8 57c0 3-1 4-3 4l-6 1h-3l-2 2 4 1c8 3 16 4 25 5V613c0-10-1-21 1-31h19-65l12 6c11 6 20 14 23 26ZM483 723v1-1ZM501 743h1l12-1-12 1h-1ZM484 720ZM486 716ZM487 716ZM490 718ZM496 718h-4 4ZM477 733l11 1-11-1ZM452 729h3-3ZM414 643h17-17ZM440 726c-9-2-9-3-7-12l7-30 5-32c0-2 3-5 0-7s-6-1-9-1c0 3-2 4-4 6l-15 13-9 4-19 1c7 22 14 43 23 64l5-2 26-3h3-3l-3-1ZM448 742h-3 3ZM348 610ZM359 617l-9 1 9-1ZM404 568c4-5 9-8 14-11-5 3-10 6-14 11ZM318 498ZM482 727v-1 1ZM343 471ZM377 669c-14 0-27 0-41-2l-4 7c-11 20-21 40-30 61l35-1 57-3c1 1 3 1 4-1l-21-61ZM358 443c0-3-3-2-4-4l-5-12-5 1c-4-1-4 1-4 4 2 11 1 23 1 35l2 4c3-8 5-15 10-22l5-6ZM386 668ZM752 462c2-3 1-6 2-8 0-2 0-4-2-3h-12l-10 1 10-1c5 3 9 6 12 11ZM615 517c0-2 0-4-3-5-3 0-5 1-7 4l-6 10h19l-3-9ZM702 463l1-1-1 1 1-1v-7c1-4 0-5-4-5h-42c-3 0-4 1-3 4 2 6 3 11-4 15-2 1-1 3-1 5s2 2 4 3l13 1c7 0 14 0 20 5l16-20ZM517 767ZM735 480v-3 3ZM673 604ZM515 753ZM717 453l-14 9 14-9ZM517 756l2 2-2-2-1-3 1 3ZM519 759l-2 8 2-8 22-1-22 1ZM496 746ZM404 549ZM496 746h1-1ZM442 553l5 1-5-1ZM432 551ZM408 572ZM501 529c-2 3-3 6-7 7 4-1 5-4 7-7ZM483 725ZM264 454ZM432 352c2 1 2-1 2-2 0 1 0 2-2 2ZM678 568ZM662 538c3-12 6-25 12-36l8-12-8 12v-4c0-4-2-5-9-6-5 0-4 3-4 6l-3 33c0 3 2 5 4 7ZM118 555c-4-6-7-12-8-19 0-3-3-3-5-2-12 2-24 2-36 2-3 1-4 2-4 5l1 29-3 57v12c0 3 1 4 4 3h10c6 0 6-1 6-7l-1-51c1-14 2-16 15-19l19-5c4-1 4-2 2-5ZM123 628c-2-4-6-8-10-8-3 0-4 2-4 3l-1 11c0 5 1 7 6 9 5 1 12 2 13 9 1 2 1 3 3 2s4-2 2-4c-4-7-7-14-9-22ZM310 436c0 4 0 8 3 9l17 6v-20c0-3-1-4-4-4l-15-1c-2-1-4 0-2 2 2 3 2 5 1 8ZM110 662l-2 1 1 4c1 1 2 0 3-1l5-3v-1h-7ZM641 526l1-6c0-3 2-6 0-9-1-1-5 0-7 1h-2c-3 0-3 1-2 3 1 4 4 7 4 10l-17 1 17-1 6 1ZM620 582l-69-1-6 1c4 42 1 84 2 126l1 19h80l-2 5 2-5 24-54c-20 0-40-1-60-4-4 0-6-2-6-6v-27c3-22 16-42 40-42l8-1c3 0 7 0 10-2s0-6 2-9h-26ZM641 728h14c12 1 24 5 36 5l42-3 2-1-29-57c-13-1-25 0-38 1l-27 54Z" style="fill:none;fill-rule:nonzero"/><path d="M327 487c6-5 10 4 13 5v-2l3-18v-1 1c-3-1-6-1-8 2-8 6-14 15-17 24 4-11 5-9 9-11ZM340 492Z" style="fill:#a64672;fill-rule:nonzero"/><path d="M264 454a20 20 0 0 0-11-7l-2-1c-12-2-22 0-32 8-1 1-3 4-5 4-2-1-1-5-2-7v-3c0-4-2-7-5-11-4-6-12-10-12-19 0-5-2-9 2-14l2-5c1-16-1-30-13-42-4-3-8-5-13-4l-27 4c-2 0-5 1-3 4 3 3 3 7 2 11v14l-1 3-2-2-1-2c-1-1-2-3-4-2l-1 3 1 5c0 2 1 4-1 6-2 4-1 7 4 7 4 0 4 2 4 5 1 8 7 15 14 16l11 1c1 0 3-1 3 1l-3 2-13 4c-7 2-8 3-6 10 0 5 2 10 0 14l-9 20c-3 8-11 11-15 17-1 2-2 1-3-1l-10-16c-4-5-5-11-5-17 0-10 0-20-3-30-1-2-2-4-5-4-5-1-11-1-16 2-3 2-5 5-3 9l2 12-1 3c-12 12-8 28 8 33 5 1 11 11 10 16-1 4-4 7-8 7-6 1-11 0-17 2-4 0-7-1-6-6v-9c0-3-2-6-5-6-4-1-6 2-7 5v12c0 2 0 4-3 4-2 1-4 0-4-3l-1-22c0-6-2-8-8-8l-10-1c-3 0-6 2-6 5l1 24c0 3-1 4-4 4H7c-3-1-4 1-4 3v21c0 4 1 5 4 5l34-1c3 0 4 1 4 5l1 30v67c0 4-1 5-4 5-12-1-25 0-37 1-1 0-4-1-4 2l-1 17c0 2 1 2 3 3h16c19-4 40-1 60-3 1-1 4-2 4 1s-2 3-4 3l-21 9c-4 2-7 6-6 11 1 4 5 7 11 7h37c5 0 8-3 8-8v-4c2-4 5-6 9-3 3 2-1 4-1 5l-2 4c-1 3-1 6 2 8s5-1 7-3c5-4 9-10 12-16 2-3 4-5 7-5l24-4c6-2 9-9 4-14l-10-13c-4-4-3-7 0-11 2-3 2-7 6-7h13c2 0 3 1 4 3 5 19 14 36 24 53 4 6 7 12 13 16 4 3 7 1 8-3s0-8-2-12l-7-11c-8-13-15-27-21-41-1-2-2-5 2-5 5-1 10-3 16-2 14 2 23-11 25-21 4-23 12-46 17-68 5-20 14-40 11-61 0-8-2-14-5-18ZM97 565c-13 3-14 5-15 19l1 51c0 6 0 7-6 7H67c-3 1-4 0-4-3v-12l3-57-1-29c0-3 1-4 4-5 12 0 24 0 36-2 2-1 5-1 5 2 1 7 4 13 8 19 2 3 2 4-2 5l-19 5Zm15 101c-1 1-2 2-3 1l-1-4 2-1h7v1l-5 3Zm18-12c-2 1-2 0-3-2-2-7-8-8-13-9-5-2-6-4-6-9l1-11c0-1 1-3 3-3 5 0 9 4 11 8 2 8 5 15 9 22 2 2 0 3-2 4ZM850 499c-4-7-2-14-3-21-1-12 1-24 1-36l2-18v-21c0-3-1-6-5-8-3-1-6 0-9 2l-3 2c-8 3-13 8-17 15-3 5-6 11-8 18l-3-14c0-3 0-5 3-6l11-6c6-5 6-11-1-15l-4-5c-6-10-8-20-6-32 0-5 0-10-2-15-2-4-6-6-10-5-4 0-8 1-12 4s-6 6-7 11c-2 6 0 14-6 19-2 2-1 4 2 5 2 0 3 1 4 3 1 5 5 6 10 5 1 0 3-1 3 1s-1 2-2 3l-6 1c-4 0-7 1-10 3-4 2-4 7 1 9 2 1 2 2 1 4-4 6-10 11-13 17-4 6-10 7-16 7-4 0-5-2-5-5l-1-10c-1-2-2-5-5-5-2-1-3 1-5 3-3 5-3 9-1 14 0 2 1 6-3 6h-32l3-7c3-4 2-7 0-10-3-3-10-6-13-4-4 2-4 6-3 10 0 3-1 4-4 3l-32-3c-4-1-4-2-4-6l4-16-1-10c-3-4 0-8 0-13l2-1c5 0 6-3 7-7 1-2 1-4 3-5 4-3 4-5 1-8s-3-6-3-9 3-3 5-4c2-2 5-3 4-7-1-3-3-5-6-4l-4-2c-9-6-21-4-27 6-5 8-4 18-4 27 0 2 2 4 4 5 2 2 3 4 2 7s-3 4-6 4c-6-1-11 2-16 7-5 6-8 14-10 22l-8 30c-2-4-2-7-2-10l-3-7c-3-6-8-8-13-5-4 4-9 8-9 15l-1 19-1 23c-2 12 0 23 4 34 2 6 7 10 13 11l10 1c2-1 3 0 2 2-2 3-4 5-4 8l16 1 6-10c2-3 4-4 7-4 3 1 3 3 3 5 1 3 3 5 3 9l17-1c0-3-3-6-4-10-1-2-1-4 2-3h2c2-1 6-2 7-1 2 3 0 6 0 9l-1 6h8l4 1c2 0 4 1 5 4l3-33c0-3-1-6 4-6 7 1 9 2 9 6v4l8-12 4-7c-6-5-13-5-20-5l-13-1c-2-1-4-1-4-3s-1-4 1-5c7-4 6-9 4-15-1-3 0-4 3-4h42c4 0 6 1 4 5v7l14-9 3-1h10l10-1h12c2-1 2 1 2 3-1 2 0 5-2 8 8 12 11 25 12 40l1 2c9 10 21 8 34 9-9 11-16 23-22 36-1 3-3 8 1 10s7-2 9-6l11-21 9-17c3 14 6 28 13 40 3 6 7 8 10 7 3-2 4-6 1-13l-13-32c-1-5 0-5 4-6l21-2c6 0 10-6 7-10Z" style="fill:#e5d1c4;fill-rule:nonzero"/><path d="M340 490v2c0 3 0 1 0 0v5l5-4 2-7-1-10-3-5v1l-3 18Z" style="fill:#caa674;fill-rule:nonzero"/><path d="M752 462c-3-5-7-8-12-11l-10 1a856 856 0 0 1-13 1l-14 9-1 1-16 20-4 7-8 12c-6 11-9 24-12 36a164 164 0 0 0 16 30l8-26 3-8c7-15 15-30 25-44 4-5 8-5 14-4s7-1 7-6v-3c0-1-1-3 2-3 2 0 2 2 2 3 3 19 2 37 0 56l-4 39c-2 10-3 21-8 30l-7 13c-1 2 11 3 14 4 4 3 6 7 7 12 0 1 0 2-2 3-1 1-2 0-3-1l-2-2c-5-8-12-7-19-7a2774 2774 0 0 1-76 7c-16-1-26 7-35 18l-4 7c-1 1-2 2-4 1s-1-3-1-4l6-9c9-12 21-19 36-19l27-2 19-1c-11-1-10-8-10-15a84 84 0 0 1 0-7l1-19-28 1c-2 3 1 7-2 9s-7 2-10 2l-8 1c-24 0-37 20-40 42v27c0 4 2 6 6 6 20 3 40 4 60 4h16l38-1h1c4 0 8-2 12-1l15-2c4-1 7-3 9-7 4-8 8-16 10-25l7-30 4-22 1-80-1-3c-1-15-4-28-12-40ZM298 466l11-10h9a672 672 0 0 0 11 2l11 9 2 2 14 17 4 7 6 11c6 11 23 72 23 72 2 5 1 11 4 13 2 2 6 1 9 2l7 1c21 0 32 19 34 40l1 25c0 4-2 6-5 6-18 2-35 4-53 3h-48v-1h-11l-13-2c-4-1-6-3-8-7-4-7-12-43-15-52l-3-21-1-76 1-3c1-14 4-26 10-38ZM686 483l-4 7 4-7Z" style="fill:#ba5c8b;fill-rule:nonzero"/><path d="M752 732c1 4-14 4-17-3l-2 1-42 3c-12 0-24-4-36-5h-14c-4 5-14 0-13-1h-80l-105 1c-9 2-17 1-26 2l-5 2c2 5-9 8-13 0l-1-2c-1 2-3 2-4 2-19-1-38 0-57 2l-35 1-9 14-3 3c-2 1-3 2-5 1s-1-3-1-5l1-3c-5 1-9 6-8 11s5 8 10 11c11 7 24 8 37 8 18 1 36 0 53-2l30-2c7-1 14-2 21 1 18 6 36 10 55 10h48l56-6c6 0 12-1 17-5l9-3c16 1 32 0 48-1 8-1 16-2 24 1 17 5 35 7 54 4 9-1 18-3 26-9 9-6 10-19 1-25-4-4-9-6-14-6Z" style="fill:#cec8c4;fill-rule:nonzero"/><path d="M336 667c14 2 27 2 41 2l9-1a8 8 0 0 1 3 0l19-1 9-4 15-13c2-2 4-4 4-6l-5-1h-17l2 7 1 2c0 2 0 4-2 5-1 1-3-1-4-3-4-4-5-10-7-16l-1-3c-3-10-4-11-15-11h-32c-9 0-18 2-27 1l-19-1c-4-1-6 2-8 4-1 1-2 4-4 2s0-3 1-5c3-5 7-6 13-6l15-1a56 56 0 0 1-15-38 265 265 0 0 1 6-82s24-31 23-32l-2-2c-13-15-31-12-45 1a88 88 0 0 0-25 49l-1 8-1 7c-1 44 5 86 22 127 3 7 8 9 14 9l21 1 12 1Zm-42-59-1 3c-2 0-3-1-3-3l-3-19c-1-16-3-32-2-48 0-18 0-35 4-52l4-12c1-1 2-2 3-1 2 1 2 2 1 3-6 15-7 30-7 46a514 514 0 0 0 4 76v7Z" style="fill:#ba5c8b;fill-rule:nonzero"/><path d="M335 474c2-3 5-3 8-2v-1l-2-1c-2-1-4 1-5 2l-8 4-16 9-2 1v2c0 4 1 8 4 10h4c3-9 9-18 17-24ZM343 471Z" style="fill:#ba5c8b;fill-rule:nonzero"/><path d="M503 527h-37l-48 30c-5 3-10 6-14 11v2l4 2h266l5-1-1-3a245 245 0 0 1-20-37c-1-2-3-4-5-4l-4-1h-8l-6-1-17 1h-19l-16-1-7 1-73 1ZM658 531Z" style="fill:#caa674;fill-rule:nonzero"/><path d="M359 442Z" style="fill:#030303;fill-rule:nonzero"/><path d="M294 465c14-13 32-15 45 0l2 2c0-11 1-24-1-35 0-3 0-5 4-4l5-1a41 41 0 0 1-2-11v-6h-20c-4 1-4-1-4-3v-11c0-3-2-5-6-5-3 0-4 1-5 4l-1 13c0 3-1 4-4 3-6-1-11-7-11-13l-1-9c0-3-1-7 2-9 8-6 8-13 7-22-1-8-10-13-18-9-2 1-3-1-4-2-2-3-5-3-8-2-4 2-7 7-7 12 1 5 4 10 8 10 6 1 6 6 7 10 1 3 0 7-5 8-4 2-7 5-8 9l-3 5c-6-4-13-4-16 1s-4 11-3 17c1 10 4 19 4 29l2 1a20 20 0 0 1 11 7c3 4 5 10 5 18h11c1 0 2 0 1 2-6 13-10 26-14 40-1 3-1 5 1 8l1-8c4-19 10-36 25-49Zm17-39 15 1c3 0 4 1 4 4v20l-17-6c-3-1-3-5-3-9 1-3 1-5-1-8-2-2 0-3 2-2ZM269 472ZM348 425ZM347 421ZM348 425Z" style="fill:#f2e2d6;fill-rule:nonzero"/><path d="M501 529Z" style="fill:#8fb8cb;fill-rule:nonzero"/><path d="M707 672h-1l29 57 10 19c2 5 5 7 9 6 4-2 5-6 3-11l-5-11-33-61c-4-1-8 1-12 1Z" style="fill:#030303;fill-rule:nonzero"/><path d="M432 551ZM494 536c1 1 3 1 3 4 0-3-2-3-3-4Z" style="fill:#f7dac6;fill-rule:nonzero"/><path d="M285 753c2 1 3 0 5-1l3-3 9-14c9-21 19-42 30-61l4-7-12-1-1 2c-15 25-26 51-38 77l-1 3c0 2-1 4 1 5Z" style="fill:#030303;fill-rule:nonzero"/><path d="m336 667-12-1 12 1Z" style="fill:#4d4d4d;fill-rule:nonzero"/><path d="M424 552ZM406 549h3-3ZM448 727ZM404 570v-1 1Z" style="fill:#015478;fill-rule:nonzero"/><path d="M350 618c0-1 0 0 0 0h22c12 0-8-56-8-57-4-15-8-31-12-39s-7-26-15-32c-1 0-13 9-19 8l-1 3c-6 26-6 53-5 79 1 14 5 28 15 39 8-2 15 0 23-1ZM340 490v2-2Z" style="fill:#a64672;fill-rule:nonzero"/><path d="M339 492s-5-11-12-7c-3 1-4 3-6 5l-3 8a87 87 0 0 0 22-1l-1-5ZM340 492c0 1 0 3 0 0ZM340 492Z" style="fill:#a64672;fill-rule:nonzero"/><path d="M424 552h5-5ZM498 543ZM442 553Z" style="fill:#8b745b;fill-rule:nonzero"/><path d="M679 571v3c1 4-1 7-5 7l-1 19a99 99 0 0 0 0 7c0 7-1 14 10 15l-19 1-27 2c-15 0-27 7-36 19l-6 9c0 1-1 3 1 4s3 0 4-2l4-6c9-11 19-19 35-18 8 1 17 0 26-1a462 462 0 0 1 50-6c7 0 14-1 19 6l2 3c1 1 2 2 3 1 2-1 2-2 2-3-1-5-3-9-7-12-3-1-15-2-14-4l7-13c5-9 6-20 8-30l4-39c2-19 3-37 0-56 0-1 0-3-2-3-3 0-2 2-2 3v21c-6-6 1-10-7-12-6-1-10-1-14 4a212 212 0 0 0-28 52l-8 25 1 4ZM674 581l-1 19 1-19ZM686 542l-8 26 8-26Z" style="fill:#af436e;fill-rule:nonzero"/><path d="M735 498v-18c0 5-1 7-7 6 8 2 1 6 7 12Z" style="fill:#af436e;fill-rule:nonzero"/><path d="M674 581c4 0 6-3 5-7v-3l-5 1-264-1h-2l-4-1c-2 10 0 11 8 11l5 1h63a71797 71797 0 0 0 65 0l6-1h69l26 1 28-1ZM674 581l-28 1 28-1Z" style="fill:#8b745b;fill-rule:nonzero"/><path d="m626 732-6 15c-1 3-4 8 1 10 4 1 6-3 7-6l3-6 10-18 27-54h-16l-24 54-2 5Z" style="fill:#030303;fill-rule:nonzero"/><path d="M668 673h-16 16ZM631 745l10-18-10 18Z" style="fill:#4d4d4d;fill-rule:nonzero"/><path d="M545 582h-19c-2 10-1 21-1 31v113a21 21 0 0 1 0 9c0 4-1 1-2 2l-6 1h-4l-38 1c-8 0-25 20-16 20l60-1h44c15 0 31-1 46 1 2 0 4-1 5-3s0-4-1-6l-7-9c-2-2-4-3-8-3h-39c-11 0-11 0-11-12l-1-18c-1-42 2-84-2-126Z" style="fill:#030303;fill-rule:nonzero"/><path d="M445 743ZM444 744ZM496 746ZM497 746Z" style="fill:#c8a57d;fill-rule:nonzero"/><path d="M387 668h-1l-9 1 21 61 1 2c4 8 7 17 12 24 1 2 2 4 4 3 3-1 4-3 4-5l-1-7-6-15c-9-21-16-42-23-64h-2Z" style="fill:#030303;fill-rule:nonzero"/><path d="m386 668-9 1 9-1Z" style="fill:#4d4d4d;fill-rule:nonzero"/><path d="M519 759v-1 1Z" style="fill:#e5d1c4;fill-rule:nonzero"/><path d="M452 730ZM468 732l-13-3 13 3ZM465 739Z" style="fill:#f7dac6;fill-rule:nonzero"/><path d="M408 631c-4-11-9-15-21-14h-28l-9 1h-23l-15 1c-6 0-10 1-13 6-1 2-3 3-1 5s3-1 4-2c2-2 4-5 8-4l19 1c9 1 18-1 27-1h32c11 0 12 1 15 11l1 3c2 6 3 12 7 16 1 2 3 4 4 3 2-1 2-3 2-5l-1-2-2-7c-4-3-5-8-6-12ZM416 650l-2-7 2 7ZM294 601a297 297 0 0 1-4-76c0-16 1-31 7-46 1-1 1-2-1-3-1-1-2 0-3 1l-4 12c-4 17-4 34-4 52-1 16 1 32 2 48l3 19c0 2 1 3 3 3l1-3v-7Z" style="fill:#af436e;fill-rule:nonzero"/><path d="M404 568v1-1ZM404 569v-1 1Z" style="fill:#8b745b;fill-rule:nonzero"/><path d="M490 703ZM486 716ZM480 582h-63 63Z" style="fill:#043b53;fill-rule:nonzero"/><path d="M482 726ZM477 733ZM483 724ZM481 730ZM525 735Z" style="fill:#c8a57d;fill-rule:nonzero"/><path d="m524 741 1-6-1 6ZM479 739ZM469 737l1-3-1 3ZM468 732ZM470 733ZM484 720l-1 3 1-3ZM492 718ZM498 718ZM490 718ZM501 718ZM501 718Z" style="fill:#e5d1c4;fill-rule:nonzero"/></svg>