<svg viewBox="0 0 1086 832" xmlns="http://www.w3.org/2000/svg"><text font-family="Merriweather Sans" font-size="48" font-weight="800" transform="translate(400 75.7)">Mit Gaston</text><path d="M446.6 508c-5.3 7.1-14.3 10.2-22.5 13.5-9.3 3.8-18.3 8.5-26.8 13.9-1.9 1.2-4 2.9-3.8 5 .2 1.9 1.8 3.2 3.3 4.2 7.7 5 16.5 8.5 25.6 10.2 5.5 1 11.7 1.1 16.3-2.2 4.4-3.1 6.3-8.7 7.5-14s2-10.8 5.1-15.2" fill="#caa674"/><g fill="none"><path d="M514.8 614.3c3.3 13.6 4.5 27.6 3 41.6-2.2 19.2-6.2 38-7.7 57.3-.1 2.3-1.3 3.3-3.2 3.8l-6 1c-.2.5-.6.5-.9 0H498c-.7.7-2 1-1.9 2.5 1.4-.2 2.6 0 3.9.5 8 3.2 16.4 4.1 24.8 5.4 0-37.7 0-75.4.2-113 0-10.7-.7-21.3 1.2-31.9H545h-19l-46.3.2c4.2 2 8.6 3.5 12.5 5.9 10.5 6.3 19.6 14.1 22.6 26.7zM483.4 723.4l-.3.6.3-.6zM501 743l1.1-.3 12-.3-12 .3-1 .2zM484 719.7zM486 715.8zM486.6 716.3zM490.3 717.6z"/><path d="M496.4 717.6c-1.5-.2-3 0-4.6 0 1.5 0 3.1-.2 4.6 0zM477 733c3.5.4 7 .9 10.6 1.2-3.6-.3-7.1-.8-10.7-1.2zM452 728.6l2.6.5-2.6-.5zM413.9 643c5.6-.8 11-.2 16.6.3-5.5-.5-11-1.1-16.6-.2zM440 726c-8.9-1.9-9.4-2.7-7.2-11.8 2.4-10 4.8-20 7-30 2.1-10.6 4.3-21.2 4.7-32 .1-2.5 3.3-5.7.3-7.5-2.3-1.3-5.8-.7-8.8-1-.1 2.8-1.7 4.7-3.8 6.2-5.4 4-10.4 8.2-15.2 12.9a15.9 15.9 0 0 1-9.3 4c-6.3.9-12.6-.1-18.8 1.7 7.3 21.2 14 42.6 23 63.2 1.5-1 3.3-1 5.2-1.2 8.6-1.1 17.3-1.8 25.8-3.8l3.4.3-3.4-.3-2.9-.7zM448.1 742.5c-1.3-.9-2.4-.8-3 0 .6-.8 1.7-.9 3 0zM348.3 609.6zM359.3 617.3l-9.2.2 9.2-.2zM403.9 567.5c3.8-4.7 9.1-7.2 14.2-10.1-5 2.9-10.4 5.4-14.3 10.1zM317.8 498.4a46.8 46.8 0 0 0 .2 0h-.2zM482 726.9l.3-.9-.3.9zM343.3 471.3zM376.6 668.7c-13.6.6-27 0-40.5-2-1.2 2.3-2.3 4.7-3.6 7a666 666 0 0 0-30.6 60.9c11.8-.5 23.5 0 35.3-.9 18.8-1.3 37.6-3 56.6-2.2 1.5 0 3.3.4 4.5-1.3l-21.7-61.5zM358 442.5c-.3-2.2-3.2-1.5-4-3.7-1.5-4-3.5-7.6-5.4-11.4-1.6 0-3.3.3-4.9.1-3.4-.3-4 1.6-3.6 4.3 1.8 11.6.7 23.3.8 35l2.4 4.1c2.4-7.6 4.6-15.3 10-21.7 1.7-2.1 4-3.8 4.8-6.7zM385.9 667.8zM752 461.6c1.6-2.4 1.4-5.3 1.9-8 .3-1.6 0-3.1-2.2-3-3.8.2-7.8-1-11.6.7l-10.1.3c3.4 0 6.7-.2 10.1-.3a33 33 0 0 1 11.9 10.3zM615.3 516.8c-.7-2-.7-4.2-3.7-4.3-2.8-.2-4.7.7-6.1 3.1-2 3.4-4.3 6.6-6.5 10h19.2c-.4-3-1.9-5.9-2.9-8.8zM702.2 462.8l.9-1.2-1 1.1 1-1c0-2.2-.5-4.5 0-6.5 1.4-4 0-4.8-3.8-4.7h-42.4c-2.8 0-4 .4-3 3.6 1.7 5.5 3 11.1-3.8 14.7-2.1 1-1.1 3.6-1 5.5s2 2 3.4 2.3c4.6 1.2 9.3.5 13.9 1 6.8.8 14 .2 19.8 5.2 5.3-6.7 10-13.9 16-20zM516.8 766.7zM735 480v-2.8 2.7zM673 603.6zM514.7 752.6zM716.6 452.7l-13.5 9 13.5-9zM517.2 756.4l1.6 1.9-1.6-2c.1-1.4-.5-2.3-1.4-3 .9.7 1.5 1.6 1.4 3zM519 758.5c0 3.7-.6 6.3-2.2 8.2 1.6-1.9 2.2-4.5 2.2-8.2l22-.4-22 .4zM495.9 746.1zM404.1 549.3zM496.2 746.2l.3.2-.3-.2zM442 553.4l4.6.3-4.5-.3zM432.1 550.8zM407.8 571.5zM501 529.4c-1.6 2.8-3.2 5.6-7 6.3 3.8-.7 5.4-3.5 7-6.3zM482.8 724.7zM263.7 453.6zM678.1 567.5zM661.9 538.3c3.5-12.4 6.4-25 12.4-36.5l7.2-11.6-7.2 11.6-.3-3.5c-.2-4.7-2-5.6-9-5.8-4.8-.2-4 2.8-4 5.5.4 11-.9 21.9-3.1 32.6-.2 3.4 1.7 5.6 4 7.7zM118.2 554.6c-4-5.5-7.4-11.4-8.2-18.4-.4-3.2-3-2.8-5-2.5-12 1.8-24.1 2-36.2 2.7-3.2.2-3.7 1.5-3.7 4.3-.3 9.7 1.3 19.3.9 28.9-.8 19.2-2.2 38.4-3.3 57.6h.4c0 3.8.2 7.7 0 11.5-.2 3.2 1.2 4.1 4 3.8 3.2-.4 6.3-1 9.5-1 6.5.1 6.8 0 6.4-6.3-1-17.1-1.2-34.3-.7-51.4.4-14.2 1.5-15.8 14.5-19l19.7-5.3c3.4-.8 3.9-1.9 1.7-4.9zM122.8 628.2c-1.4-4.7-6-8-10.3-8.2-2.8-.3-3.1 1.5-3.2 2.8-.3 3.8-1.1 7.6-1.3 11.4-.3 4.8.8 7.1 5.9 8.7 5 1.5 11.6 2.2 13.1 9.1.5 2.3 1.3 3 3.4 1.9 1.8-1 3.2-1.7 1.6-4.1-4.3-6.7-6.9-14-9.2-21.6zM310.4 436.3c-.7 3.3-.8 7.6 3 9 5.4 1.9 10.8 3.4 16.7 6v-20.7c0-2.6-1-4-3.8-4-5-.2-10.2.4-15.3-.9-2-.5-3.5.2-1.7 2.7 1.9 2.4 1.7 5 1.1 8zM110.3 661.6c-1 0-2 .3-2 1.6-.2 1.4.2 2.7 1.2 3.6 1 1 1.7-.2 2.5-.7l5.3-3.6-.1-1h-6.9zM641 525.7c0-2 .4-4 .6-5.9.4-2.9 2-6.1.4-8.5-.6-1-4.5.1-7 .3h-2c-3 0-3.3 1.2-2.2 3.7 1.5 3.4 4 6.3 4.3 10l-16.9.4 17-.3 5.8.3zM619.8 581.5l-68.9-.2-6 .2c4.2 42.2 1.5 84.4 2.5 126.6l.6 18.4H628l-2 5.3 2-5.2 23.7-54a502 502 0 0 1-60.2-3.3c-4-.5-5.6-2.7-5.6-6.3 0-9-.5-18 .4-26.9 2.3-22.1 15.2-42.2 39.6-42 2.6.1 5.3-.5 7.9-1 3.3-.4 7-.2 9.7-1.8 3.1-2 .6-6.5 2-9.6-8.5-1-17.2-.2-25.8-.2zM640.5 727.5c5 0 10 0 15 .6 12 1.3 23.6 4.5 35.8 4.6 14 .1 27.8-2.4 41.7-2.3.7 0 1.4-.7 2.1-1l-29-57c-12.7-1-25.3-.6-38 .3-10 17.8-19.6 35.9-27.6 54.8z"/></g><path d="M327 486.6c6.3-4.7 9.8 4.1 12.7 4.9 0-1.8 0-2 .1-1.7.5-6.2 3.6-11.9 3.3-18.1l.1-.3v.3c-3.1-.3-6-.4-8.6 1.8a54.9 54.9 0 0 0-16.8 25h.2c4.2-11.6 5.3-9.1 9-12zM339.7 491.5v.2-.2z" fill="#a64672"/><path d="M263.7 453.6a19.7 19.7 0 0 0-10.3-6.8c-.7-.2-1.6-.2-2.4-.3a36.4 36.4 0 0 0-31.8 7.4c-1.6 1.3-2.8 4.5-4.8 3.6-2-.8-1.4-4.1-2.1-6.3-.3-1-.1-2-.2-3-.3-4.2-1.8-7.7-4.6-11.1-4.7-5.8-12.1-9.6-12.6-18.6-.3-5-1.7-9.7 1.7-14.2a11 11 0 0 0 2.4-5.5c1-15.5-.6-30.2-13.4-41.5-3.8-3.3-7.6-5.3-12.5-4.7-9.2 1.3-18.3 2.7-27.5 4.2-1.9.3-4.6 1.6-2.6 3.9 3 3.5 2.6 7.1 2 11-.6 4.8-.8 9.5.1 14.3.2 1.1 0 2.6-1.3 2.9-1.1.3-1.5-1-2-2-.3-.7-.6-1.4-1.1-2.1-.8-1-1.7-2.3-3.3-1.7-1.2.5-1.4 1.8-1.3 3l.6 5c.3 2 1 4.1-.3 6.2-2.5 4.2-1.4 7 3.5 6.8 4.4-.3 4 1.6 4.2 4.7.4 7.8 6.6 15 14.3 16.3 3.4.6 7 .3 10.5.5 1 .1 2.6-.5 2.7 1.3 0 1.1-1.3 1.3-2.3 1.6l-13.8 4.4c-6.8 2.1-7 2.8-6 9.9.9 4.8 3 9.7.7 14.6-3 6.6-6.3 12.9-9 19.5-3 7.6-10.7 11-15.3 17.2-1.2 1.8-2 .6-2.9-.7-3.4-5.5-6.6-11.1-10.3-16.4-3.7-5.4-5-11-4.7-17.4.5-10 .4-19.9-3-29.5-.8-2.5-2-4.3-4.6-4.5a26 26 0 0 0-16 2.7c-3.4 2-5 4.5-3.7 8.6 1 3.8 1.5 7.8 2.3 11.7.2 1.5-.2 2.5-1.2 3.6-11.4 11.5-7.3 27.4 8.3 32.5 4.8 1.6 11 11.5 9.8 16.4-1 4.2-3.7 7.2-8.2 7.4-5.5.2-11 0-16.4 1-4.6 1-6.9-.6-6.2-5.7.4-2.8.1-5.7 0-8.5 0-3.6-1.8-6.1-5.5-6.6-3.8-.6-5.8 1.8-6.7 5.2a25 25 0 0 0 0 12.3c.5 2.3 0 4-2.8 4.3-2.4.2-4-.2-4-3.4-.2-7.4-.8-14.9-1-22.4-.1-6-1.7-7.8-8-8.1-3.4-.3-6.9 0-10.4-.5-3-.5-5.5 1.5-5.5 5 0 8-.2 16 .4 24 .3 3.4-.8 3.5-3.3 3.5H6.8c-2.8-.1-3.8 1-3.7 3.7.1 7 .2 14 0 21-.1 3.4 1 4.3 4.3 4.3 11.2-.2 22.3 0 33.5-.2 3.3 0 4.3 1 4.3 4.3 0 10.1.3 20.3.7 30.4.7 22.3.2 44.7.3 67 0 3.5-1 4.7-4.5 4.5-12.2-.5-24.3.2-36.4 1-1.7 0-4-.6-4.1 2.2 0 5.7-1.5 11.2-1 17 0 1.7.6 2.5 2.5 2.8 5.3.8 10.7 1.7 15.9.7 19.9-4.3 40.1-1.6 60-3.8 1.6-.1 4.1-1 4.4 1.9.2 2.5-2 2.7-3.8 3a69.2 69.2 0 0 0-21.1 8.6c-4.1 2.4-7.2 5.6-6.3 10.7.9 4.8 5 7.7 10.8 7.7 12.4.2 24.7.2 37 0 5.6 0 8.4-3 8.6-8.7 0-1.2-.1-2.4.2-3.5 1.3-4.1 4.5-5.7 8.1-3.5 3 2-.5 3.8-.9 5.7-.2 1.3-1 2.5-1.5 3.7-1.4 3-1.2 5.6 1.7 7.4 3 2 5-.2 6.9-2a80.4 80.4 0 0 0 12.5-16.7 9.6 9.6 0 0 1 7-4.9c7.8-1.3 15.7-2.7 23.4-4.4 6.5-1.4 9-8 4.7-13-3.6-4.2-6.3-9.1-10-13-4-4.2-3.7-8-.5-12 1.8-2.2 1.9-6.3 6.3-6h13c2 0 3.4.5 4 2.8 5 18.8 14.1 35.8 24.2 52.3 3.7 6 6.6 12.8 13 16.7 4 2.4 7 1.2 7.7-3.3.7-4.3 0-8.3-2.3-12-2-3.6-4.2-7.2-6.4-10.7-8.2-13.2-15-27-21.3-41.2-1-2.3-2-5 1.6-5.4 5.4-.6 10.8-3 16.2-2.2 14 2 23.5-11 25.2-20.8 4-23 11.6-45.3 17-68 4.9-20.1 14.2-39.5 11.2-61a30 30 0 0 0-5.5-18.1zm-167 111.2c-13 3.2-14 4.9-14.4 19-.5 17.1-.3 34.3.7 51.4.4 6.3.1 6.4-6.5 6.3-3.2 0-6.2.6-9.3 1-3 .3-4.4-.6-4.2-3.8.2-3.8 0-7.7 0-11.5h-.3c1.1-19.2 2.4-38.4 3.2-57.6.4-9.6-1.2-19.2-.9-28.9.1-2.8.6-4 3.8-4.3 12-.8 24.2-.9 36.1-2.7 2.1-.4 4.7-.7 5 2.5.9 7 4.3 12.9 8.3 18.4 2.2 3 1.7 4-1.8 5-6.5 1.6-13 3.5-19.7 5.2zM112 666c-.8.5-1.5 1.7-2.5.7-1-.9-1.4-2.2-1.3-3.6.2-1.3 1-1.6 2.2-1.6h6.8l.1 1-5.3 3.5zm18.4-12.3c-2 1.1-2.9.5-3.4-1.8-1.5-6.9-8-7.7-13.1-9.2-5.1-1.5-6.2-3.8-6-8.6.3-3.9 1.1-7.6 1.4-11.4 0-1.3.4-3.1 3.2-2.8 4.3.1 8.9 3.5 10.3 8.2a85.7 85.7 0 0 0 9.2 21.6c1.5 2.4.2 3.1-1.6 4zM850.4 498.9c-4-6.9-2.4-14.3-3.2-21.4-1.3-11.9.4-23.9 1-35.8.4-6 .7-12 1.4-17.9 1-6.8.5-14 .2-21 0-3-1-6-4.7-7.4-3.5-1.3-6.4-.8-9.2 1.7-1 .9-2 2-3.2 2.3-7.9 2.3-12.6 8-16.7 14.7-3.2 5.4-6.4 10.6-8.4 18l-2.5-13.6c-.6-3.2.1-5.3 3.4-6.8a56 56 0 0 0 10.4-5.8c6.3-4.7 6-11-.4-15.3a13.8 13.8 0 0 1-4.6-4.5 46.5 46.5 0 0 1-6.3-31.9c.8-5.2.3-10.2-1.8-15-1.9-4.5-5.4-6-9.7-5.5s-8.4 1.6-12.1 4.2a17 17 0 0 0-7.4 11c-1.5 6.6.1 14.2-5.8 19.6-2 1.8-.4 4 2 4 2.5 0 3.2 1.3 3.8 3.2 1.7 5.3 5.5 6.7 10.6 5.7 1-.3 2.3-1.1 2.6.8.3 1.4-.4 2.2-1.8 2.4-2.2.3-4.3.8-6.4.9-3.5.1-6.6 1.3-9.4 3-4.5 2.7-4.4 7.6.4 9.6 2.8 1.3 2.6 2.3 1.1 4.4-4 5.7-9.3 10.5-13 16.3-4.1 6.1-9.2 7.1-15.7 6.9-3.5-.1-4.8-1.5-5-4.7-.3-3.3-.6-6.6-1.2-9.8-.4-2.6-1.4-5-4.3-5.5-2.8-.4-4 1.8-5.4 3.7-3 4.3-3 8.8-1.6 13.6.8 2.4 1.7 5.6-3 5.5h-31.2c.6-2.4 1.3-4.7 2.9-6.8 2.6-3.2 2-6.6-.4-9.6-2.7-3.5-9.9-5.6-13-3.9-4 2.1-4.2 5.7-3.2 9.5.9 3.5-.6 4-3.7 3.7-10.5-1.4-21-2.9-31.5-3.7-4.5-.3-4.9-2-4.1-5.6 1.2-5.5 2.5-11 3.4-16.5.6-3.3.8-6.6-1-9.8-2.3-4 .6-8.2 0-12.4-.2-1.2 1.3-1.8 2.6-1.8 4.3 0 6-2.9 7-6.6.6-2 .8-4 3-5.4 3.3-2.1 3.6-4.9.5-7.8-2.7-2.4-3-5.8-2.8-9.2.1-3 3.2-2.4 4.8-3.6 2.2-1.7 4.8-3.5 4-6.8-.6-3.2-2.8-4.8-6.1-4.6-1.5 0-2.5-.5-3.6-1.4-8.9-6.5-21-3.8-26.8 5.4-5.5 8.7-4.3 18.2-4.2 27.6 0 2.2 1.6 4 3.6 5.2 2.7 1.5 3.8 3.1 2.7 6.5-1 3.4-3 3.8-6 3.6-6.5-.2-11.9 2.4-16.2 7.3a51.5 51.5 0 0 0-10.3 22.4c-2.4 9.6-5.2 19-8.2 29.5a34.4 34.4 0 0 1-1.8-9.2c-.2-2.8-1.5-5.5-3-8-3-5.1-8.2-7.3-12.4-4.4-5 3.4-9.5 7.7-9.5 14.4 0 6.5 0 13-1.1 19.4-1.3 7.8 0 15.7-1.2 23.4-1.9 12 .2 23.2 4.5 34 2.2 5.7 6.5 9.5 13 10.4 3.4.5 6.7.8 10 .8 2.3 0 3 .6 1.6 2.9-1.6 2.5-4 4.6-4 8l16.2.1c2.2-3.3 4.4-6.5 6.5-10 1.4-2.3 3.3-3.2 6-3 3.1.1 3.1 2.2 3.8 4.3 1 3 2.5 5.7 2.9 8.9l16.9-.4c-.3-3.8-2.8-6.7-4.3-10-1-2.5-.8-3.8 2.2-3.7h2c2.5-.2 6.4-1.3 7-.3 1.6 2.3 0 5.6-.4 8.5-.2 2-.6 3.9-.6 5.9 2.7.9 5.5 1 8.2.7 1.5-.1 2.8 0 4 .3 1.9.5 3.5 1.8 4.7 3.9 2.2-10.8 3.5-21.6 3.2-32.6-.1-2.7-1-5.7 3.9-5.6 7 .3 8.8 1.1 9 6l.3 3.4 7.2-11.6 4.7-7.4c-5.8-5-13-4.4-19.8-5.2-4.6-.5-9.3.1-13.9-1-1.5-.4-3.2-.5-3.3-2.3-.2-2-1.2-4.5.9-5.6 6.7-3.5 5.5-9.1 3.8-14.6-1-3.3.2-3.7 3-3.6h42.4c3.7-.1 5.2.6 3.9 4.7-.6 2-.1 4.2-.1 6.4l13.5-9c1-.6 2-.8 3.2-.8l10.2-.2 10.1-.3c3.8-1.7 7.8-.5 11.6-.7 2.1-.2 2.5 1.4 2.2 3-.5 2.7-.3 5.5-2 8a84.6 84.6 0 0 1 12 40c.1 1 .5 2 .8 2.9 9.4 9.5 21.8 7.7 34 8a227.2 227.2 0 0 0-21.3 36.2c-1.7 3.5-3.5 8.3.5 10.1 3.8 1.8 7.3-2.1 9.3-5.8 3.8-7 7.5-14.1 11.1-21.2 2.8-5.5 5.3-11 8.3-17.2 3 14.4 6.2 28 13 40.3 3.2 5.7 7 8.3 10.2 6.7 3.7-1.9 4-5.9 1-12.4-4.9-10.6-8.8-21.5-12.7-32.5-1.6-4.2-.1-5 3.9-5.3 7-.3 13.9-1 20.7-2 6-.9 10-6.3 7.7-10.5z" fill="#e5d1c4"/><path d="m339.8 489.8.2 1.8c.2 3.5.1 1.7 0 0h-.3v5c2.2-.7 4.3-2 5.5-4 1.1-1.8 1.4-4.1 1.5-6.4a29 29 0 0 0-1-10c-.4-1.4-1.2-3.4-2.4-4.8l-.2.3c.3 6.3-2.8 11.9-3.3 18.1z" fill="#caa674"/><path d="M752 461.6a33 33 0 0 0-11.9-10.3l-10.1.3-10.2.2c-1.2 0-2.1.2-3.2 1-4.4 3-9 5.9-13.5 8.8l-1 1.2c-6 6.1-10.6 13.3-16 20l-4.6 7.5-7.2 11.5c-6 11.5-8.9 24.1-12.5 36.5a245.6 245.6 0 0 0 16.3 29.2c2.8-8.3 5-17 7.8-25.3 1-2.7 2-5.5 3.2-8.2a212.4 212.4 0 0 1 24.6-43.7c3.9-5 8.7-5.5 14.2-4.3 6.5 1.4 7-1 7-6l.1-2.8c0-1.3-.6-3.4 1.8-3.4 1.9.1 2 1.8 2.2 3.4 3 18.6 2 37.2.2 56-1.2 13-1.8 26.1-4.4 38.9-2 10.2-3.2 20.7-7.7 30.3-2 4.3-4.5 8.4-6.9 12.5-1.3 2.2 11.2 3.3 13.4 4.6a14 14 0 0 1 7.3 11.2c.2 1.3 0 2.7-1.4 3.4-1.5.8-2.6-.1-3.5-1-.9-.9-2-1.6-2.5-2.6-4.4-7.6-11.3-6.9-18.6-6.2l-21.7 1.9c-9.6.8-19.1 2.1-28.6 3.5a127 127 0 0 1-25.7 1.5c-15.8-1-26 6.8-34.9 18.3l-4.4 6c-.9 1.3-1.8 2.7-3.6 1.7-1.6-1-1.3-2.8-.7-4 1.8-3.2 3.6-6.4 5.9-9.2a44 44 0 0 1 36-18.8c8.8 0 17.8-1.4 26.7-2.2 5.8-.6 12 0 18.6-1.1-10.7-.7-9.7-8-9.6-15.1a84.4 84.4 0 0 1 .3-6.6c.5-6.3 1.3-12.5.8-18.8l-28.3.3c-1.5 3.1 1 7.6-2.1 9.6-2.6 1.6-6.4 1.4-9.7 1.9-2.6.4-5.3 1-8 1-24.3-.3-37.2 19.8-39.5 42-1 8.8-.4 17.9-.4 26.8 0 3.6 1.7 5.8 5.7 6.3 20 2.3 40 3.6 60.1 3.4h16.3c12.7-.9 25.3-1.2 38-.2l.5-.8c4.1.2 8.1-1.7 12.2-.2 5-1 10-2.3 15.2-3 4.4-.4 7.1-2.4 9.1-6.4 4.1-8.2 7.7-16.5 9.8-25.5 2.3-9.9 4.6-19.8 7.3-29.5 2-7.3 3.2-14.7 3.6-22.2 1.4-26.7 1.4-53.6.9-80.4-.3-.9-.7-1.8-.7-2.8a84.5 84.5 0 0 0-12-40.1zM686.2 482.8l-4.7 7.5 4.7-7.5z" fill="#ba5c8b"/><path d="M753.8 753.6c-3.7 1.6-6.5-.3-9-5.3-3-6.4-6.4-12.6-9.7-19-.7.4-1.4 1.1-2 1.1-14 0-27.8 2.4-41.8 2.3-12.1-.1-23.9-3.3-35.8-4.6-5-.6-10-.5-15-.6-3 6-6 12-9.2 18l-3.1 5.8c-1.5 2.8-3.1 7-7.3 5.3-4.6-2-1.9-6.1-.8-9.1 1.8-5.3 3.9-10.5 6-15.7l2-5.2H548c-.5 11-.5 11 10.8 11 13.2 0 26.3.2 39.5 0 3.3 0 5.8 1 7.7 3.6l7 9.1c1.3 1.7 2.3 3.4 1.3 5.5-1.2 2.3-3.1 3-5.4 2.8-15.3-1.6-30.7-.7-46-.7-7.3 0-14.6 0-22 .2l-21.9.4c0 3.7-.6 6.4-2.2 8.2-.5.5-1 1-1.7 1.4a22.2 22.2 0 0 1-10.6 2.3c-19 .8-37.9 1-56.6-2.9-9.3-1.9-10.2-3.4-5.8-12 .7-3.8 1.2-7.5 2-11.2l.2-.4.2-.6.2-.3c0-.2.2-.4.3-.5.7-.7 1.8-.9 3.1 0 1.8-3.9 2.9-8 3.6-12l.3-1.9-2.1-1-2.3-.4-1.2-.2c-1.2 0-2.3-.1-3.4-.3-8.6 2-17.3 2.7-26 3.8-1.7.2-3.6.1-5.2 1.2l6.2 15.8a15 15 0 0 1 1.2 6.3c-.2 2.6-1.3 4.6-3.8 5.3-2.3.6-3.8-1-4.8-2.7-4.8-7.7-8-16.1-11.4-24.4-.2-.6-.6-1.1-.9-1.7-1.1 1.7-3 1.3-4.5 1.2-19-.7-37.8 1-56.6 2.3-11.8.8-23.5.4-35.3.9-2.8 4.6-5.5 9.3-8.5 14-.9 1.3-2.3 2.3-3.5 3.4-1.4 1.3-3 2.3-5 1.2-2-1.2-1.3-3-.8-4.9l.5-3.4c-4.9.8-8.2 6-7.2 11 1 5.4 5 8.2 9.4 11 11.5 7 24.5 7.8 37.4 8.4 17.8.8 35.6-.2 53.3-2 9.9-1 19.7-2.1 29.7-2.7 6.8-.3 13.5-1.5 20.6 1a176.9 176.9 0 0 0 55 10.6c15.9.2 31.8.8 47.8-.6 18.6-1.6 37.3-3 56-5.2 6.2-.8 12.7-1.2 17.8-5.4a12 12 0 0 1 8.7-2.7c16 .4 32.2-.6 48.2-1.6 7.8-.6 15.7-1.4 23.4.8 17.7 5.2 35.7 7.8 54 4.8a62.5 62.5 0 0 0 26.6-9.2c8.8-6.2 9.3-19.5 1-25.7a27.4 27.4 0 0 0-14.8-5.5c1.8 3.5 3.6 7 5.3 10.7 2.3 5 1.1 9.2-3 11z" fill="#cec8c4"/><path d="M336 666.6c13.5 2.1 27 2.7 40.6 2 3 .5 6.2-.8 9.2-.8a8.2 8.2 0 0 1 3.1.7c6.2-1.9 12.6-.8 18.8-1.7 3.7-.6 6.8-1.5 9.3-4 4.8-4.7 9.9-9 15.2-13 2-1.4 3.7-3.3 3.8-6l-5.5-.5c-5.5-.5-11-1.1-16.6-.2l2.3 6.6.7 2.3c.5 1.8.2 4.1-1.5 4.9-1.8.8-3.2-1-4.4-2.5-3.8-4.8-5-10.8-6.9-16.4l-.7-2.9c-3.2-10.4-4.3-11.5-15-11-11 .6-22 .5-32.9.3-8.8-.2-17.5 1.5-26.3 1-6.4-.3-12.8-.7-19.2-1.5-4-.5-5.7 2-8 4-1.2 1.2-2.3 3.7-4.4 1.9-1.5-1.4 0-3 1-4.4 3-5 7.8-6.5 13-6.8 5.2-.3 10.3-.1 15.5-.1a55.7 55.7 0 0 1-14.7-38.2c-1.4-26.6-1.9-53.4 4.8-79.5l.6-2.4h-.8a9 9 0 0 1-3.2-.6c-3.3-1.5-3.7-6-3.8-9.7 0-.8 0-1.6.5-2.2.3-.5.9-.9 1.5-1.2l16.3-8.9 7.7-4.2c1.5-.8 3.3-2.1 5-1.7 1 .2 1.6.8 2.3 1.5v-.5l-2.4-4-1.9-1.7c-12.7-15.3-31.2-13.6-45.2-.6-14.5 13.4-20.9 30.8-24.7 49.6l-1.3 7.3-.6 7.4c-1.3 43.7 4.8 86 21.4 126.8 3.1 7.8 8 9 14.5 9.4 6.8.3 13.7.3 20.5.5l12.5 1zm-42-58.5c0 1.2-.1 2.6-1.4 2.9-1.8.3-2.2-1.5-2.4-2.6-1.1-6.5-2.4-13-3-19.6-1.5-16-3-32.1-2-47.5-.6-18.2 0-35.6 3.9-52.7.9-4 2.1-7.7 4-11.2.8-1.3 1.8-2.2 3.3-1.5 1.7.7 1.4 2 .8 3.3-5.8 14.6-6.7 30-7.1 45.4-.3 12-.5 24 0 36 .6 13.4 1.3 26.8 3.7 40 .5 2.4.2 5 .3 7.5z" fill="#ba5c8b"/><path d="M334.6 473.5c2.5-2.2 5.5-2 8.5-1.8l.1-.3a4.4 4.4 0 0 0-2.1-1.5c-1.8-.4-3.6.9-5.1 1.7l-7.7 4.3-16.4 8.8a4 4 0 0 0-1.4 1.2c-.5.7-.5 1.5-.5 2.2 0 3.7.5 8.2 3.8 9.7 1 .4 2.1.5 3.2.6h.8c3-9.7 9-18 16.8-24.9zM343.3 471z" fill="#ba5c8b"/><path d="M501 529.4c-1.6 2.8-3.2 5.6-7 6.3.7 1.6 3.3 1.7 3 4a7.3 7.3 0 0 1 .8 4.8c-1.8 8.3-13.6 18-22.2 18-13.5 0-27-.1-40.3-2.3-4.4-.7-10-.3-12.3-6a52.5 52.5 0 0 1-4.9 3.2c-5 3-10.4 5.4-14.2 10.1l-.1 1.1.2 1.9c1.2.7 2.5 1 3.8 1h266.3c1.7 0 3.3.2 4.8-1l-.8-3a244.5 244.5 0 0 1-16.2-29.2c-2.3-2-4.2-4.3-4-7.7a7.8 7.8 0 0 0-4.7-3.9c-1.2-.3-2.5-.4-4-.3-2.7.3-5.5.2-8.2-.7-2 0-4-.2-5.9-.3l-16.9.3-19.2-.1-16.1-.2c-2.3.1-4.6.4-7 .4l-73 1c-.7.8-1.3 1.7-1.8 2.6zM658 530.6z" fill="#caa674"/><path d="M358.8 442.4z" fill="#030303"/><path d="M293.8 464.6c14-13 32.5-14.6 45.2.6l1.9 1.6c0-11.7 1-23.4-.8-35-.4-2.7.2-4.6 3.6-4.3 1.6.1 3.3 0 5-.1a40.6 40.6 0 0 1-2-11l-.1-6.6c-6.7-.3-13.4-.8-20 .2-3.4.6-3.6-.7-3.5-3.3 0-3.5.2-7-.2-10.4-.4-3.1-1.9-5.7-5.7-5.8-3.3 0-4.6 1.7-5.4 4.8-1 4.1-.6 8.2-.7 12.4-.2 3-1 4.1-4.4 3.3-6-1.4-10.5-6.6-10.6-12.8 0-3-.1-6-.8-8.9-.7-3.2-1.1-7.4 1.7-9.4 8-5.6 8.5-13 7-21.5-1.4-8.7-9.7-13.4-17.5-9.7-2.3 1.1-3-.2-4-1.5-2.3-3-5.3-3.2-8.5-2-4.2 1.5-7 6.6-6.6 11.8.3 5 3.5 9.7 8 10.4 5.6.8 5.4 5.7 6.4 9.2s-.1 7.3-4.4 8.8c-4.2 1.5-7.1 4.2-8.9 8.2l-2.3 5.8c-6.4-4.4-12.7-4.1-15.7.6-3.4 5.2-4.5 11-3.7 17 1.5 9.8 4 19.5 4.2 29.5.8 0 1.7 0 2.4.3a20.5 20.5 0 0 1 10.3 6.8 29.9 29.9 0 0 1 5.5 18h10.4c1.7 0 2.5.4 1.5 2.4-6.1 12.7-10.5 26-14.2 39.6-.9 3-1.1 5.5.9 8l1.3-7.4c3.8-18.7 10.2-36.2 24.7-49.6zm17.2-38.9c5 1.3 10.2.7 15.4.9 2.7 0 3.7 1.4 3.7 4v20.7c-6-2.6-11.3-4.1-16.6-6-3.9-1.4-3.8-5.7-3-9 .5-3 .7-5.5-1.2-8-1.8-2.4-.3-3.1 1.7-2.6zM269.1 471.6zM348 425.2zM347.2 420.9zM348 425.2z" fill="#f2e2d6"/><path d="M501 529.4z" fill="#8fb8cb"/><path d="m706.6 671.6-.5.8 29 57c3.3 6.3 6.6 12.5 9.7 18.9 2.5 5 5.3 6.9 9 5.3 4.1-1.8 5.3-6 3-11l-5.3-10.7c-10.8-20.2-21-40.7-32.7-60.5-4-1.5-8.1.4-12.2.2z" fill="#030303"/><path d="M432.1 550.8zM494 535.7c.7 1.6 3.3 1.7 3 4 .3-2.3-2.3-2.4-3-4z" fill="#f7dac6"/><path d="M285 753.3c1.8 1 3.5 0 4.9-1.2 1.2-1.1 2.6-2.2 3.5-3.5 3-4.6 5.7-9.3 8.5-14a666 666 0 0 1 30.6-60.9c1.3-2.3 2.4-4.7 3.6-7l-12.5-1.1c-.3.7-.5 1.6-1 2.3-14.7 24.6-25.3 51.4-38 77l-.6 3.5c-.4 1.8-1.1 3.7 1 4.9z" fill="#030303"/><path d="m336 666.6-12.4-1 12.5 1z" fill="#4d4d4d"/><path d="M349 614.3a23.9 23.9 0 0 0 1 3.2l9.3-.2c9.2-.3 18.5-.6 27.7-.7 11.6-.2 16.9 3.7 21 14.7 1.5 4 2.3 8.7 5.9 11.8 5.6-.9 11-.3 16.6.2l5.5.5c3 .2 6.5-.4 8.8 1 3 1.7-.2 4.9-.3 7.4-.4 10.8-2.6 21.4-4.8 32-2 10-4.5 20-6.9 30-2.2 9.1-1.7 10 7.2 11.8l3 .7 3.3.3a47.7 47.7 0 0 1 3.5.6c.8.2 1.5.5 2.2 1l2.6.5 13.4 2.6 9 1.3 1.5-.7c.9-.6 1.5-1.3 2-2.1.7-1 1-2.2 1.5-3.3l.3-.9a52.2 52.2 0 0 1 .6-1.6c0-.1 0-.3.2-.4l.3-.6.7-3.8c.2-1 .6-2 1.2-3l.6-.9 2-6.2 2-6.3 1.9-6.3a107 107 0 0 0 1.6-6.3c2.8-13.3 9.4-25.5 11-39.1 1.4-10.4 3.4-21.3-3.8-30.5-5-6.4-12-10.2-19-14.2-11.3-6.5-23.7-9.9-36.2-13.3-8-2.2-15.8-4.7-23.6-7.4-2-.6-4.5-1.6-4.7-4.5l-5-.2c-8.6-.2-9.7-1.8-8.1-11l-.2-1.8-.2-.8.3-.3c3.8-4.7 9.1-7.2 14.2-10.1 1.7-1 3.4-2 5-3.2l1-2.7c-5.2-1.5-10.3-2-15.5-2.2H404c-5.2 0-10.4.4-15.6.6-8.6.4-17 2.3-24.5 6.7-4 12-29.3 17.7-32.2 30.2M424 551.5zM406.3 549.3h2.3-2.3zM447.6 727.1z" fill="#015478"/><path d="m404 570.5-.2-1.9.1 1.9z" fill="#015478"/><path d="M350 617.5a19.3 19.3 0 0 1-1-3.2c-.4-1.6-.6-3.2-.7-4.7-.4-5.8 1-11.6 2.4-17.4 2.8-12.5 9.4-23.5 13.3-35.6-.3-.6-.7-1.2-.7-1.8.3-10.7-4.6-17.7-14.2-22.4-4.6-2.3-9.9-5.4-10-11.5-.1-8 .5-16.2.6-24.3a87.4 87.4 0 0 1-21.7 1.8l-.8 2.4c-6.7 26.2-6.2 53-4.8 79.6a55.7 55.7 0 0 0 14.7 38.1c7.6-1.8 15.3.2 23-1zM339.8 489.8v1.7-1.7z" fill="#a64672"/><path d="M339.7 491.5c-3-.8-6.4-9.6-12.7-5-3.7 2.9-4.8.4-9 12a87.4 87.4 0 0 0 21.7-1.9v-5zM340 491.6c.1 1.7.2 3.5 0 0zM340 491.6a50.4 50.4 0 0 0-.3-.1h.3z" fill="#a64672"/><path d="M424 551.5c1.7-.4 3.4.3 5.1.6-1.7-.3-3.4-1-5-.6zM497.9 543.2zM442 553.4z" fill="#8b745b"/><path d="M678.9 570.6v3.4c.8 4.1-.8 6.6-4.9 7.4.5 6.3-.3 12.5-.8 18.8a98.7 98.7 0 0 0-.3 6.6c0 7.1-1.1 14.4 9.6 15-6.6 1.1-12.8.6-18.6 1.2-8.9.8-17.9 2.2-26.7 2.2a44 44 0 0 0-36 18.7c-2.3 2.9-4.1 6.1-5.9 9.3-.6 1.2-1 3 .7 4 1.8 1 2.7-.4 3.6-1.7l4.4-6c8.8-11.5 19.1-19.3 34.9-18.3 8.4.5 17.2-.3 25.7-1.6 9.5-1.3 19-2.7 28.6-3.5l21.7-1.8c7.3-.7 14.2-1.4 18.6 6.2.6 1 1.6 1.7 2.5 2.5 1 1 2 1.9 3.5 1.1 1.4-.7 1.6-2 1.4-3.4a14 14 0 0 0-7.3-11.2c-2.2-1.4-14.7-2.4-13.4-4.7 2.4-4 4.9-8.2 6.9-12.5 4.5-9.5 5.7-20 7.7-30.2 2.6-12.8 3.2-26 4.4-39 1.8-18.7 2.9-37.3-.2-56-.3-1.5-.3-3.2-2.2-3.3-2.4 0-1.8 2-1.8 3.4V498c-5.8-5.7.5-10.5-7-12.1-5.6-1.2-10.4-.8-14.2 4.3a212 212 0 0 0-28 52c-2.8 8.2-4.9 16.8-7.7 25.2l.8 3z" fill="#af436e"/><path d="M674 581.4c.5 6.3-.3 12.5-.8 18.8.5-6.3 1.3-12.5.8-18.8zM685.9 542.2c-2.9 8.3-5 17-7.8 25.3 2.8-8.3 5-17 7.8-25.3zM735 498v-18c0 5-.6 7.4-7 6 7.5 1.7 1.2 6.4 7 12z" fill="#af436e"/><path d="M674 581.4c4.1-.8 5.7-3.3 5-7.4-.2-1.1-.1-2.3-.1-3.4-1.5 1-3.1 1-4.8 1l-263.8-.1h-2.5c-1.3 0-2.6-.3-3.8-1-1.6 9.1-.4 10.7 8.1 10.9l5 .2h62.6a71797.1 71797.1 0 0 0 65.3 0l6-.3 68.8.2c8.6 0 17.3-.8 25.9.1l28.3-.2zM674 581.4l-28.3.3 28.3-.3z" fill="#8b745b"/><path d="m626 731.8-6 15.7c-1 3-3.7 7 1 9 4 1.8 5.7-2.5 7.2-5.2l3.1-5.9 9.3-18c8-18.8 17.6-36.8 27.5-54.7h-16.3l-23.7 53.9-2 5.2z" fill="#030303"/><path d="M668.1 672.7h-16.3 16.3zM631.3 745.4l9.3-18-9.3 18z" fill="#4d4d4d"/><path d="M545 581.5h-19c-1.8 10.6-1 21.2-1 31.8-.3 37.7-.3 75.4-.3 113.1a20.9 20.9 0 0 1 0 8.2c.3 4 .3 5.7-1 6.6-1 .7-2.7.9-5.7 1l-4 .2-11.9.3-1 .2c-3.2.5-6.3.5-9.5-.1a9.3 9.3 0 0 0 4.6 3.4l.3.1c.9.4 1.7.6 2.6.8.7 0 1.4.2 2 .3 4.7.8 9 2.3 13 4.8l.6.4 1.1.7c.9.7 1.5 1.6 1.4 3l1.6 2 .2.2 22-.4c7.4-.1 14.6-.3 22-.2 15.2 0 30.6-1 45.8.6 2.3.3 4.3-.5 5.4-2.7 1.1-2.2 0-3.9-1.2-5.5l-7-9a8.7 8.7 0 0 0-7.7-3.7h-39.5c-11.3 0-11.3 0-10.8-11.1l-.6-18.4c-1-42.2 1.8-84.5-2.4-126.6z" fill="#030303"/><path d="M491 761.3c9-.3 18-.6 26.2-5 .1-1.4-.5-2.3-1.4-3a11 11 0 0 0-1-.7l-.6-.4a36 36 0 0 0-13-4.8c-.7 0-1.4-.2-2-.3a22 22 0 0 1-2.7-.7l-.3-.2h-.3a9.3 9.3 0 0 1-4.3-3.4c-4.3-.3-8.4-1.6-12.4-3.3l-1.6-.8a17.9 17.9 0 0 0-8.6-2.2c-1.8.7-3.1 1.7-4.1 3s-1.7 2.9-2 4.7c-1 4.8-4.3 7-9 6.2-4.3-.8-6-3.7-5.8-8-1.3-.8-2.4-.7-3 0l-.4.5-.2.3a4.2 4.2 0 0 0-.3 1c-.9 3.7-1.4 7.5-2.1 11.2 16 5.2 32.4 6.6 49 6zM444.7 743zM444.3 743.9zM495.9 746.1zM496.5 746.4z" fill="#c8a57d"/><path d="m387.4 668-1.6-.2c-3 0-6.1 1.3-9.2.9l21.7 61.5.9 1.8c3.4 8.2 6.6 16.7 11.3 24.3 1.1 1.7 2.5 3.4 4.9 2.7 2.5-.7 3.6-2.7 3.8-5.3.1-2.2-.4-4.3-1.2-6.3l-6.2-15.7c-8.9-20.6-15.6-42-22.9-63.2l-1.5-.5z" fill="#030303"/><path d="M385.9 667.8c-3.1 0-6.2 1.3-9.3.9 3 .4 6.2-1 9.3-.9z" fill="#4d4d4d"/><path d="m518.8 758.3-1.6-2c-8.2 4.5-17.3 4.7-26.1 5-16.6.7-33-.7-49-5.9-4.4 8.6-3.5 10.2 5.8 12 18.7 4 37.6 3.8 56.6 3 5-.2 8.4-1 10.6-2.3.7-.4 1.2-.9 1.7-1.4 1.6-1.9 2.2-4.5 2.2-8.2l-.2-.2zM519 758.5l-.2-.2.2.2z" fill="#e5d1c4"/><path d="M453.9 750.4c4.7.8 8-1.4 9-6.1a9.2 9.2 0 0 1 6.2-7.7c0-1 .6-1.9.8-2.8v-.9l-.5-.6-.3-.2-1-.4-13.5-2.6-2.6-.5a55.7 55.7 0 0 1-3.9 13.9c-.3 4.2 1.5 7.1 5.8 7.9zM451.7 730.4z" fill="#f7dac6"/><path d="m468 731.7-13.4-2.6 13.5 2.6zM464.9 739.5z" fill="#f7dac6"/><path d="M408 631.3c-4-11-9.4-15-21-14.7-9.2.1-18.5.4-27.7.7l-9.2.2c-7.7 1.2-15.4-.8-23 1-5.2 0-10.3-.2-15.5.1-5.2.4-10 1.8-13 6.8-1 1.4-2.5 3-1 4.4 2 1.8 3.2-.7 4.4-1.8 2.3-2 4.1-4.6 8-4.1 6.3.8 12.8 1.3 19.2 1.6 8.8.4 17.5-1.2 26.3-1 11 .1 22 .2 32.9-.3 10.7-.6 11.8.6 15 11l.7 2.8c2 5.7 3.1 11.6 6.9 16.5 1.2 1.5 2.6 3.2 4.4 2.4 1.7-.7 2-3 1.5-4.9l-.7-2.2-2.3-6.7c-3.6-3.1-4.4-7.7-6-11.8zM416.2 649.7l-2.3-6.6 2.3 6.6zM293.8 600.6a297 297 0 0 1-3.7-40c-.5-12-.3-24 0-36 .4-15.4 1.3-30.8 7.1-45.4.6-1.4.9-2.6-.8-3.3-1.5-.6-2.5.2-3.2 1.5-2 3.5-3.2 7.3-4.1 11.2-4 17-4.5 34.5-4 52.7-.8 15.4.6 31.4 2 47.5.7 6.5 2 13 3.1 19.6.2 1.1.6 3 2.4 2.6 1.3-.3 1.5-1.7 1.5-2.9 0-2.5.2-5-.3-7.5z" fill="#af436e"/><path d="m403.6 567.8.2.8v-1s-.3.1-.2.2zM403.8 568.6v-1 1z" fill="#8b745b"/><path d="M421.8 586.1c7.8 2.8 15.7 5.2 23.6 7.4 12.5 3.4 25 6.8 36.3 13.3 6.9 4 14 7.8 19 14.2 7.2 9.3 5 20 3.8 30.5-1.7 13.6-8.3 25.8-11.1 39a108.9 108.9 0 0 1-3.5 12.7l-2 6.3-2 6.2.7.6a7 7 0 0 0 3.5 1.2h6.3l1.5.4 2.2.1h.9l5.9-1c2-.5 3-1.5 3.2-3.8 1.5-19.3 5.5-38.2 7.6-57.3 1.6-14 .4-28-2.9-41.7-3-12.5-12-20.3-22.6-26.6-3.9-2.4-8.3-4-12.5-6H417c.1 3 2.8 3.9 4.7 4.5zM489.9 703.2zM486 715.8zM479.7 581.7H417h62.6z" fill="#043b53"/><path d="M499.9 721a7.6 7.6 0 0 0-3.9-.5c-2.5 5.8-4.5 6.3-12.6 2.9l-.3.6-.2.5-.1.2-.5 1.3-.3.9c-.4 1.1-.8 2.3-1.4 3.3a6.2 6.2 0 0 1-3.7 2.8c3.6.4 7.1.9 10.7 1.2l3.6.2c11.2.6 22.3 1.6 33.5.2a26.7 26.7 0 0 0 0-8.2c-8.4-1.3-16.9-2.2-24.8-5.4zM482.3 726zM477 733z" fill="#c8a57d"/><path d="M482.9 724.5c0-.2 0-.3.2-.5l-.2.5zM480.6 730.2zM524.7 734.6z" fill="#c8a57d"/><path d="M524.7 734.6c-11.2 1.4-22.3.4-33.5-.2l-3.6-.2c-3.6-.3-7.1-.8-10.7-1.2l-8.8-1.3 1 .4a1.9 1.9 0 0 1 .7.8c.2.3.2.6 0 1 0 .8-.7 1.8-.8 2.6 3.1-.2 5.8 1 8.6 2.3l1.6.7c4 1.7 8 3 12.4 3.3a26.7 26.7 0 0 0 10.5 0l12-.4 3.9-.2c3-.1 4.8-.3 5.7-1 1.3-.9 1.2-2.7 1-6.6z" fill="#e5d1c4"/><path d="M523.7 741.2c1.3-.9 1.2-2.7 1-6.6.2 4 .3 5.7-1 6.6zM479.3 739.5zM469 736.5c0-.8.7-1.8.9-2.7-.2 1-.8 1.9-.9 2.7zM468 731.7zM469.8 732.9zM496 720.5c-.2-1.5 1.1-1.8 1.9-2.6l-1.5-.3c-1.5-.2-3 0-4.6 0H490a7 7 0 0 1-4.2-1.8l-.6.8c-.7 1-1 2-1.2 3l-.7 3.8c8 3.4 10.1 3 12.6-3z" fill="#e5d1c4"/><path d="m484 719.7-.6 3.7.7-3.7zM491.8 717.6zM498 717.9zM490.1 717.6h.2-.2zM501 718h-1c.4.5.7.5 1 0zM501 718z" fill="#e5d1c4"/><path d="M781.8 217.8c0 1-.2 2.2-.7 3.3.7-1 .9-2.2.7-3.3zM771.8 210.2zM780.8 235.2c0 1.5-.2 2.9-.7 4l.5-.2c1.8-.6 3-1.8 2.5-3.7l-.3-.6h-.2c-.6.3-1.2.4-1.8.5zM778.4 224.4c0-.2 0-.5.2-.7l-2.3.7h2zM737.7 247.6c11.3 3.3 22.6 2 34 .4 4.2-.6 6.4-3 6.9-6.7a8 8 0 0 1-4.2 1.7 72.4 72.4 0 0 1-31.4-.3c-3-.9-6.4-1.6-5.7-6-2-.3-4.6-.4-4.6-3.1 0-3.1 2.8-3.2 5.2-3.4v-.4c-.7 0-1.5-.3-2-.8-1-.8-1.4-2.5-.4-3.3.6-.5 1.5-.5 2.3-.4h.7l-1-.1a2 2 0 0 1-.4-.6l-1.3-.2c-2.7-3.5-.4-12 4.3-14.8 8.7-5.2 18-7.9 28.5-4.4 1 .3 2.6.7 4 1.3v-.1l.5.2c-1.5-2-3.7-2.8-6-3.6-11.3-4-21.4-1-30.9 5.3-5 3.3-7.5 13.4-4.6 17.5-2.7-.2-5.7-.3-5.8 3.4-.1 3.4 2.5 4 5.2 4.1l1.2.2v.5c-2.6.3-5.6.4-5.6 3.7 0 3 2.8 3 5 3.4-.8 4.8 3 5.5 6.1 6.5zM779.7 212.3c-1.3-2.3-3.1-4.2-5.7-5.3 2.2 1.1 4.2 3.3 5.7 5.3z" fill="#fefefe"/><path d="m751 281.8.4.1-.5-.5.1.4zM750.4 280.7l-1.1-1.2.9 1.4.5.2-.3-.4z" fill="#fdfdfd"/><path d="M713.3 258.7c4.4 2.8 9 5.4 14 7 2.3.4 4.7 1.5 7 1.2 8.5-1.1 13.5 6.5 17.3 12.6 2.4 2.4 5.4 5.7 6.6 6.5a38 38 0 0 0 8.6 4.3c-3-4.6-5.8-9.2-5.7-15v-1.5c.1-2.3 1-3.2 3.2-3.5l11.3-1.8a59.5 59.5 0 0 0 35.9-24c4-5 6-11.9 6-19.2-.3-17.9-11.6-38.2-30.6-42.1-19.1-4-38-3.7-56 3.7-12.2 5-22.5 13-29.2 24.9a35.5 35.5 0 0 0-4.1 17.1c.2 11.1 5 23 15.7 29.8zm47.5-76.3c22.7 0 41.2 17 41.2 37.8S783.5 258 760.8 258s-41.2-17-41.2-37.8 18.4-37.8 41.2-37.8z" fill="#fdfdfd"/><path d="M760.8 258c22.7 0 41.2-17 41.2-37.8s-18.5-37.8-41.2-37.8-41.2 17-41.2 37.8S738 258 760.8 258zm-34.2-20.2c0-3.4 3-3.5 5.6-3.7v-.6l-1.2-.2c-2.7 0-5.3-.7-5.2-4 .1-3.8 3-3.7 5.8-3.5-3-4-.4-14.2 4.6-17.5 9.5-6.2 19.6-9.4 31-5.3 2.2.8 4.4 1.6 5.9 3.6l.9.4c2.6 1 4.4 3 5.7 5.3l1.5 2.6c.4.8.6 1.8.6 2.9.2 1.1 0 2.3-.7 3.3-.5 1-1.2 1.9-2.3 2.5l-.2.1-.2.7c.6 0 1.3.2 2 .4.3 0 .7.2 1 .5.4.9-.6 1.7-1.5 2l-.5.3h.5l-.1 2.4h1.5c1.7-.7 3.1-.6 3.6 1.4.4 1.6-.5 2.7-2 3.3l.2.7c.4 1.8-.7 3-2.5 3.6l-.5.2c-.3.8-.9 1.6-1.5 2.1-.5 3.8-2.7 6-6.9 6.7a78.3 78.3 0 0 1-34-.4c-3.1-1-6.9-1.7-6.1-6.5-2.2-.3-5-.5-5-3.4z" fill="#fdfdfd"/><path d="M727.3 266.8v-.3c-5-1.6-9.6-4.2-14-7-11-7-15.7-19.2-15.7-30.6a35.8 35.8 0 0 1 4.1-18c6.8-11.9 17-19.9 29.1-24.9 18.1-7.4 37-7.7 56.2-3.7 19.3 4 30.6 25 30.5 43 0 7.6-1.8 14.8-6 20a59.6 59.6 0 0 1-36 24c-3.6.7-7.4 1.3-11.2 1.8-2.1.3-3 1.3-3.2 3.6v.5c.2 5.7 3.2 10.3 6.2 15 0 .1-1 .8-1 1l2.6.4.7-.3h.3c.2-1.6-.9-2.6-1.8-3.7a28.4 28.4 0 0 1-4.7-9.9c-1-3.2-.6-5.1 3.6-5.7a63 63 0 0 0 25.8-7.4c16.3-10 28.3-22.8 26.8-43.5a44.2 44.2 0 0 0-31.9-40.6 101.4 101.4 0 0 0-30.7-2c-14.6.6-28.1 4.4-40 13.4-12.7 9.6-21.9 21-21.2 38.2.7 18.6 13.4 31.9 31.5 36.7z" fill="#4b4b4b"/><path d="M713.3 258.7a35.3 35.3 0 0 1-15.7-29.8c0 11.4 4.6 23.7 15.7 30.6 4.4 2.8 9 5.4 14 7v-.8c-5-1.6-9.6-4.2-14-7zM775.6 268.5c-3.8.7-7.5 1.2-11.3 1.7-2.2.4-3 1.3-3.2 3.6v1.4-.5c.1-2.3 1-3.3 3.2-3.6 3.8-.5 7.5-1 11.3-1.8a59.5 59.5 0 0 0 35.9-24c4.2-5.2 6-12.4 6-20 0 7.3-2 14.1-6 19.2a59.5 59.5 0 0 1-36 24z" fill="#4b4b4b"/><path d="m751.4 282 .6.6-.4-.6h-.2z" fill="#afa8a1"/><path d="M734.2 267.7c-2.2.3-4.6-.7-7-1.2l.1.3c3.1 2 6.7 2 10.1 2.1 3 .1 4.7.9 6.3 3.6.5 1 3.1 4.2 5.6 7-3.4-5.8-5.6-13-15-11.8z" fill="#4b4b4b"/><path d="m750.7 281 .2.4-.2-.3z" fill="#afa8a1"/><path d="M751 281c.8.1-3.2-4.7-2.5-4.4.6.4 1.8 1.5 3.1 2.8-3.7-6-8.8-13.6-17.4-12.5-2.2.3-4.6-.8-7-1.2l.1.8c2.3.5 4.7 1.5 7 1.2 9.4-1.2 11.6 6 15 11.8l1 1.2v-.6c.4 0 .7.3.7.8l-.6-.1.3.3.3.3.4.5h.3c-.3-.2-.5-.6-.6-1zM768.7 291.3l-.7-.2-.5-.6c-.2 0-.4 0-.7-.2l.5.7-1 .1c-3.2-.5-5.6-2.4-8.1-4.3-1.6-1-2.9-2.5-4.5-3.7.3.8.5 1.9-.1 1.2l-1.6-1.7c2.9 4.4 6.9 6.2 11.7 8.5.8.3 3.8.7 5.2.4l-.2-.2z" fill="#4b4b4b"/><path d="M751.6 279.5c.7 1 1.3 2.2 2 3.1l.2.5c1.5 1.1 2.8 2.6 4.4 3.8 2.5 1.8 5 3.7 8.1 4.2h1l-.4-.8c-3.1-1-6.8-2.9-8.7-4.3-1.2-.8-4.1-4-6.6-6.5zM753.8 283.1l-2.2-1.1.4.6 1.6 1.7c.7.7.4-.4.2-1.2z" fill="#4b4b4b"/><path d="M751.6 279.5a23.1 23.1 0 0 0-3.1-2.8c-.6-.4 3.3 4.5 2.6 4.2l.5 1.1c.8.3 1.5.7 2.1 1.1l-.1-.5-2-3.1z" fill="#4b4b4b"/><path d="M750.4 280.8z" fill="#cec8c4"/><path d="M751 280.9c0-.5-.3-.8-.8-.8l.1.6c.2.2.4.2.7.2z" fill="#4b4b4b"/><path d="M772.5 206.5c1.3.5 2.5 1.2 3.2 2 0 1.9-1.6 2.6-4 1.7l-.4-.2c-5.5-2.5-12.8-.4-18 3-3.5 2.4-7.6 4.1-10.4 7.4l-1.2 1.4a8.6 8.6 0 0 1-4.6 2.8l.3.6 1 .1c10.3.9 20.7 2.1 30.8.3 2.3-.5 4.7-1 7-1.2l2.3-.7c.2-.4.4-.8.9-1 .8-.5 1.3-1 1.7-1.6.5-1 .7-2.2.7-3.3l-1-3.3-1.1-2.2c-1.5-2-3.6-4.2-5.7-5.3l-.9-.3v-.1a6 6 0 0 0-.6-.2v.1zM774 207a9 9 0 0 0-.9-.4l.9.4z" fill="#d4934a"/><path d="M779.4 222.6a2 2 0 0 0-.9 1h.3c1-.6 1.8-1.5 2.3-2.5-.4.5-1 1-1.7 1.5zM781.8 217.8c0-1.1-.2-2.1-.6-3l-1.5-2.5a20.6 20.6 0 0 1 2.1 5.5z" fill="#d4934a"/><path d="M753.3 213c5.2-3.4 12.5-5.5 18-3l.5.2c1.9.6.8-1.9.8-3.7-1.4-.6-2.9-1-4-1.3-10.5-3.4-19.8-.8-28.5 4.4-4.7 2.8-7 11.3-4.3 14.8l1.3.2c2-.5 3.3-1.5 4.6-2.8l1.2-1.4c2.7-3.2 6.9-5 10.4-7.4z" fill="#e0ad72"/><path d="M771.8 210.2c2.4.9 3.9.2 3.9-1.6a7.7 7.7 0 0 0-3.2-2c.1 1.7 1.2 4.2-.7 3.6z" fill="#e0ad72"/><path d="M779.2 233.8h-1.7l.2-2.5c-4 1.9-8.5 2-12.7 2.6-6.2 1-12.4 1.7-18.6 1.1-3.5-.3-7.1-.8-8.5-4.8-2.4.2-5.2.3-5.2 3.4 0 2.7 2.6 2.8 4.6 3 .4.2.7.5 1 .5 5 .4 10.1-.9 14 3.4.3.2.9.2 1.2 0 3.3-1.4 6.6-1.2 10 0 .3 0 .9 0 1-.3 2.5-3.4 5.7-2.8 9.1-2 1.6.2 3-.6 4-2.1.7-1.4 1.8-1.7 3.2-.9l1.8-.4.2-.1c-.6-1.5-2-1.5-3.6-1z" fill="#96c122"/><path d="m777.7 231.3-.2 2.5h1.7c1.6-.6 3-.6 3.6.9 1.6-.6 2.5-1.7 2.1-3.4-.5-1.9-2-2-3.6-1.4-.5.2-1 0-1.5 0-.7.6-1.4 1-2 1.3l-.1.1z" fill="#96c122"/><path d="M777.6 236.1c-1 1.5-2.3 2.3-4 2-3.3-.7-6.6-1.3-9 2-.2.3-.8.5-1.1.4a13.1 13.1 0 0 0-10 0c-.3.2-.9.2-1 0-4-4.3-9.3-3-14.1-3.4-.4 0-.7-.3-1-.4-.7 4.4 2.7 5.1 5.6 6 10.4 3 21 1.8 31.4.3a8 8 0 0 0 4.2-1.7v-1.8l1.5-.3c.5-1.1.7-2.5.7-4-1.4-.8-2.5-.5-3.2.9z" fill="#d4934a"/><path d="M778.5 241.3c.7-.6 1.3-1.3 1.6-2.1l-1.5.3v1.8z" fill="#d4934a"/><path d="M746.4 235c6.2.6 12.4 0 18.6-1 4.2-.8 8.8-.8 12.7-2.8.6-1.2 1.7-2.3 1.6-3.6l-2.5.8-2.4.3c-1.9.5-3.4 2-5.3 2-2 0-3.8-1.4-5.7-1.3-1.2.1-2.3.8-3.4 1.2-2 1-4.5 1.2-6.8.8-1-.2-2-.5-3-.4-.9.1-1.8.6-2.8.6-.6 0-1.2-.3-1.8-.5-1.4-.5-2.9-.8-4.4-.8l-1.7-.1-1.6-.4v.4c1.4 4 5 4.5 8.5 4.8z" fill="#693f11"/><path d="M777.7 231.2c.7-.3 1.4-.7 2-1.2l.2-2.3-.5-.1c0 1.3-1.1 2.4-1.7 3.6z" fill="#693f11"/><path d="M776.2 224.4c-1 .3-2 .5-3 1 .1.2-11.6 1-11 1.1-4 1.2-15-.4-17.3-.4-2.1 0-4.3-.4-6.4-.8h-.7c-.8 0-1.7-.1-2.3.4-1 .8-.7 2.5.3 3.3.6.5 1.4.7 2.1.8v-.2c5.4-1 10.8 1.4 16.3 0 7.4-1.7 15.2-.7 22.7-2.4.7-.2 1.6.1 2.5.4 0-.7-.4-1.3-1.1-2v-1.2h-2z" fill="#da1116"/><path d="m779.4 227.6.5-.2c.9-.4 2-1.3 1.4-2-.2-.4-.6-.5-1-.6l-2-.4v1.2c.7.7 1 1.3 1 2zM762.2 226.5c-.6-.1 11.1-1 11-1.2l3-.9c-2.3.1-4.6.7-7 1.2-10 1.8-20.5.6-30.7-.3 2.1.3 4.3.7 6.5.8 2.2 0 13.2 1.6 17.2.4zM741.2 230.3c1.5 0 3 .3 4.3.8.7.2 1.3.5 2 .5.9 0 1.8-.5 2.8-.6 1-.1 2 .2 3 .4 2.2.4 4.6.2 6.7-.8 1.1-.4 2.2-1 3.4-1.2 2 0 3.7 1.4 5.7 1.3 1.9 0 3.5-1.5 5.3-2l2.3-.3a12 12 0 0 0 2.6-.8c-.8-.3-1.7-.6-2.4-.4-7.5 1.7-15.3.7-22.7 2.5-5.6 1.3-10.9-1.1-16.3 0v.1l1.6.4h1.7zM779.4 227.6z" fill="#da1116"/><ellipse cx="758.3" cy="220.6" fill="#fdfdfd" rx="42.4" ry="27.1"/><path d="M723.5 213.8h137.3V273H723.5z" fill="none"/><text font-family="Merriweather Sans" font-size="24" font-weight="800" transform="translate(723.5 235.8)">Voilà!</text><path d="M395.4 396.5c1.2.7 2-.4 2.4-1.6v-.2c-.5 1.2-1.3 2-2.4 1.8z" fill="none"/><path d="M290.3 427a39.7 39.7 0 0 0-1 6.6c.1 4.2.6 8.4.5 12.6-.1 2.4 2.8 2.8 2.3 5l.7.2c.8.3 1.6.5 2.1.3 4.6-2 9.7-2.6 13.8-5.6 1-.8 2-2.4 3.8-.7 3.8 3.9 8.8 5.7 13.5 8.2a40 40 0 0 0 18.2 4.2c11.8-.8 20-8.8 19.9-20.6a29.7 29.7 0 0 0-7-20.3c-.9-1-1.4-2-3.1-1.2-2.3.9-4.2-.4-5.7-2.2-3.2-3.6-3.7-12.3-1.3-16.5 1.3-2.2 2.5-2.5 4.2-.6 4.3 5.2 10.8 7.5 15.9 5.2 4.2-2 8.6-4 11.7-7.4 6.5-7.2 13.2-14 20.6-20 1-1-.2-7.1 1.5-6.3 1 .4 1.7 2.4 2 3.8 1.6 7.3 2.4 14.7 2.5 22.2 0 3.3 1.1 5 4.3 5.4 0-.5 3.3-14 3.5-14.6 2.6-7 5-14 .4-21a43 43 0 0 0-16.4-15 53.7 53.7 0 0 0-65 15.5 62 62 0 0 0-9.6 22.7c-.6 2.7-.8 5.7-4 7-4 1.8-5.9 5.3-6.3 9.5-.2 2-.7 2.9-2.8 3.2-6.6 1-11.3 5-15.5 10a101.9 101.9 0 0 0-3.7 10.4z" fill="#030303"/><path d="M405.4 393.9c0-7.5-.9-15-2.5-22.2-.3-1.4-1-3.4-2-3.8-1.7-.8-.3 4.5-1.4 5.4-7.5 6-14.1 12.9-20.6 20-3 3.4-7.5 5.4-11.7 7.4-5 2.4-11.7 1-16-4.3-1.7-1.9-3-1.6-4.2.6-2.4 4.2-1.9 13 1.3 16.5 1.5 1.8 3.4 3.1 5.7 2.2 1.7-.7 2.2.1 3.2 1.2 5.2 5.8 6.7 13 6.9 20.3.2 11.8-8 19.8-19.9 20.6a40 40 0 0 1-18.2-4.2c8.8 7.5 19.1 20.3 30.2 23.3 14.6 3.9 23.6-3.3 30-14.6-6.9 0-14.6-1.5-22-2.2 7.6-7.7 13.6-16 19.9-24 2.6-3.3 6.4-2.4 10-1 .9-.9 2-.8 3.2-.9 7.8-.3 9-2 9-9.6 0-4.8 2.8-9.3 1.5-14.2-.2-.8 1-1.2 1.8-1.4 2.2-.8 4.1-1.9 4.2-4.8.1-3-2-4-4.1-4.9-3.2-.4-4.3-2.1-4.3-5.4z" fill="#f7dac6"/><path d="M384 436.1c-6.2 8-12.2 16.2-19.8 24 7.4.7 14.1 1.8 20.9 1.7 1.3-1.5 3.2-1.7 4.8-2.4l2.3-1c2.4-1 4.8-1.9 6.3-4.3 4.5-7.8 0-13.4-4.5-19-3.5-1.4-7.4-2.3-10 1z" fill="#030303"/><path d="M406.6 413.7h1.4c1 .3 1.6 1.2 1.5 2.1-.2 1-1.2 1.6-2 1.3.8.4 1.9 1.1 1.8 2.1 0 .8-.7 1.4-1.4 1.8l-2.4 1.7" fill="#f7dac6"/><path d="M394 394.1c-.9 1.2-1.2 2-1.5 3.6-.3 1.5 0 3.2 1 4.2s2.7 1.3 3.8.2c.8-.8 1.1-2.1 1.2-3.4s.1-2.5-.4-3.6c-.5-1-1.6-1.8-2.6-1.5M306.5 414.2c0-1-1.2-1.9-2.3-1.8s-2.1.7-3 1.4c-7 5.7-11.1 14.5-12.3 23.5s.1 18.1 2.4 26.9c1.6 6 4 12.3 9.2 15.6 5.9 3.7 14.5 2 18.4-3.8 4.1-5.8 3.3-14.5 8.5-19.5 2.8-2.8 7-3.9 9.8-6.6 5-4.6 4.8-13 1.3-19s-9.4-9.9-15.1-13.7" fill="#030303"/><path d="M335.7 596a9 9 0 0 1-.8-4.2c.1-1.5.9-2.9 1.7-4.1 2-3.2 4.5-6 7.3-8.5 1.8-1.6 3.8-3 6.1-3.6 2.3-.7 7.5-6.2 9.3-4.7 2.1 1.6.4 10.3.8 13a77.5 77.5 0 0 1 .2 24.5c-.2 1.9-.5 3.7-1.7 5.3a8.3 8.3 0 0 1-7.6 3.5c-4-.5-5.1-3.8-7-6.9-2.7-4.7-6.2-9.2-8.3-14.3z" fill="#015478"/><path d="M317.8 457.3c-7.5 3.2-12.9 10.3-15.6 17.9s-3.2 15.8-3.2 24a250 250 0 0 0 7 59c3.5 14.2 9 29.3 21.6 37.2a6 6 0 0 0 2.6 1.1c1.6.1 3-.8 4.2-1.8 4-3.3 7.2-7.4 10.8-11.3 12.6-13.7 30.2-24.1 49-24.4 4.4 0 9.7 0 12.1-3.5 1.2-1.8 1.3-4 2-6.1 1-3.5 3.5-6.6 6.9-8.2 2.8-1.3 6-1.7 8.6-3.5 3.7-2.6 5-7.6 4.2-12s-3-8.3-5.3-12.1a174.7 174.7 0 0 0-20.5-29.5c-2.5-2.7-5-5.2-7.1-8-1.9-2.7-14.4-16.9-8.3-15.2-4.8 7.4-9.1 14.7-18 15.4s-18-3-24-9.5c-3.3-3.7-5.6-4.1-8.6-8-1.1-1.4-2.4-3.5-4.4-3.8-1.6-.3-3.4.3-5 .4a26 26 0 0 0-9 2zM421.8 554.3c9.6-5.8 18.6-12.7 26.6-20.5 1.6-1.5 3-3 5-4 1.7-.8 3.6-1.1 5.4-1.4 8-1.4 16.1-2.8 24.3-2.9 7.3 0 14.5 1.1 21.7 2.2 2 .2 4 .6 5.4 2a7 7 0 0 1 1.7 3.5 14.3 14.3 0 0 1-12 16.6" fill="#caa674"/><path d="m424 551.5-1 2.7c2.3 5.7 8 5.3 12.2 6 13.4 2.2 27 2.3 40.4 2.3 8.6 0 20.4-9.7 22.2-18l.1-1.3c0-1.2-.3-2.4-.9-3.5-2 1-2.4 3-3.4 4.7a22.1 22.1 0 0 1-19.7 11.9c-7.6 0-15.1-1.4-22.7-2.2a173 173 0 0 0-9.1-.7c-3-.3-6.1-.8-9-1.8-1.4.9-2.7.8-4 .6-1.7-.4-3.4-1-5-.6z" fill="#8b745b"/><path d="M451 534.5c-4 4.3-10 6-15 9s-9.2 7.2-12.2 12.2c.3-.5 7 .5 8 .5l7.9.6 15.8 1.1c5.2.4 10.4 1 15.5 1 4.5 0 8.3-1.5 12-3.8 5-3 11.7-7.5 13.7-13.2 2.7-7.3-10.7-4.8-14-4.6-10.7.7-21-5-31.8-2.8z" fill="#8b745b"/><path d="M453.9 490.9c.8-2.8 1.5-5.9 3.7-8 2.2-2 5.5-2.9 8.6-3.5l7.6-1.4c.8-.1 1.7-.2 2.5.1 1.3.5 1.6 2 1.8 3.2.5 4.7 0 9.6-2.5 13.7s-7 7.4-12.2 7.7c-1 0-2.2 0-3 .6-.6.4-1 1-1.2 1.6a74 74 0 0 1-4.6 8c-1.6 2.4-3.4 5.1-5.6 7.2-1.6-2.9-3.5-6.6-3-10 .5-4 3.4-7.8 5-11.5 1.1-2.5 2-5 2.8-7.7z" fill="#f7dac6"/><path d="M485 472c3.7.4 25.9 7.8 32.6 19 .5.6.9 1.5.9 2.3 0 1-.7 1.8-1.2 2.5-9.5 12.7-21.2 28.5-31 41-.7 1-1.6 2.2-2.9 2.7-1.8.8-4 .2-5.8-.5a64.3 64.3 0 0 1-21.7-14.1c-1.9-1.8-3.1-3.9-4-6.4-.6-2.3.3-4.5 1.6-6.5 1.8-2.7 2.8-5.3 4.8-8a670 670 0 0 1 12.3-15.8c4.7-5.9 9.9-14.8 14.4-16.3z" fill="#030303"/><path d="M485.2 474.7c3.2.4 22 7 27.8 16.7.4.7.8 1.4.7 2.1 0 .9-.5 1.6-1 2.2-8 11.2-18 25.2-26.3 36.2-.7 1-1.5 2-2.5 2.4-1.6.7-3.4.2-5-.5a54.1 54.1 0 0 1-18.5-12.4 13.2 13.2 0 0 1-3.3-5.7c-.7-2 .2-4 1.2-5.7 1.5-2.4 2.4-4.7 4.1-7l10.5-14c4-5.1 8.5-13 12.3-14.3z" fill="#fff"/><path d="m496.4 505.8-1.1 1.4c.5-.3.9-.8 1-1.4zM494.6 500.3l-.1-.2.1.2zM491.6 513.5a6 6 0 0 1-1.3 1.7h.3c.8.1 1.5-.2 1.8-1.1v-.4c-.3 0-.6 0-.8-.2zM493.4 508.1l.3-.2-1-.2.8.4zM472.7 510.4c3.3 3.8 7.8 5.5 12.3 7 1.7.7 3.1 0 4.2-1.5a3 3 0 0 1-2-.1c-4.1-1.5-8.3-3-11.3-6.6-.8-1-2-2-.6-3.9-.6-.6-1.6-1.1-.9-2.3.8-1.4 1.9-1 2.8-.5v-.2c-.2-.2-.4-.4-.5-.8-.1-.5.2-1.4.7-1.6.4 0 .7.1 1 .3l.2.2-.3-.3v-.3l-.4-.4c-.1-2.1 2.9-5.5 5.3-5.8 4.5-.6 8.6.1 11.6 3.8l1 1.4c.1 0 .2 0 .2.2 0-1.3-.6-2-1.2-2.9-3.1-4.2-7.6-4.8-12.7-3.9-2.6.5-6.1 4.6-6 7-1-.6-2.1-1.3-3.1.4-.9 1.5-.1 2.3.9 2.9l.4.3-.2.3c-1-.4-2.1-1-3 .5-.7 1.3.3 2 1 2.6-1.5 2-.3 3.1.6 4.2zM497 503c.1-1.4 0-2.6-.7-3.7.5 1 .7 2.4.7 3.6z" fill="#fefefe"/><path d="M495.9 498.8c.3.5.6 1 .6 1.6-.5.8-1.2.8-1.9 0l-.1-.3c-1.4-2.2-4.5-2.7-7.3-2.2-2 .3-3.9.3-5.7 1.2l-.8.3c-.8.4-1.6.6-2.4.4v.3l.3.3c3.6 2.5 7 5.2 11.2 6.4 1 .3 2 .5 2.9 1h1l.6-.3c.4 0 .7-.1 1-.3.4-.4.8-.9 1-1.4a11 11 0 0 0 .6-3c0-1.1-.1-2.5-.6-3.5l-.3-.3-.1-.2z" fill="#d4934a"/><path d="M494.3 507.5c-.3 0-.4.2-.6.4h.1c.6-.1 1-.4 1.5-.7-.3.2-.6.3-1 .3zM496.4 505.8c.3-.5.4-1 .5-1.4v-1.5a13.8 13.8 0 0 1-.5 3z" fill="#d4934a"/><path d="M487.2 497.9c2.8-.5 6 0 7.3 2.3l.1.1c.6.7.8-.7 1.3-1.5l-1.1-1.4c-3-3.7-7-4.4-11.6-3.8-2.4.3-5.4 3.7-5.3 5.8l.4.4c.8.2 1.6 0 2.4-.4.3 0 .5-.2.8-.3 1.8-1 3.8-.9 5.7-1.2z" fill="#e0ad72"/><path d="M494.6 500.3c.7 1 1.4 1 1.9 0 0-.4-.3-1-.6-1.5-.5.8-.7 2.2-1.3 1.5z" fill="#e0ad72"/><path d="M491.4 512.5c-.3 0-.4-.2-.6-.3l.6-1v-.1c-1.9 0-3.5-.8-5.3-1.4-2.5-.8-4.9-1.8-7-3.3-1.2-.8-2.4-1.8-2-4-.8-.3-1.9-.8-2.7.6-.7 1.2.3 1.8 1 2.3 0 .2 0 .4.2.4 1.7 1.2 4 1.7 4.3 4.4 0 .2.2.3.4.3 1.5 0 2.7.8 3.6 2h.5c1.8-1 2.8 0 3.9 1 .5.5 1.2.4 1.9-.1.6-.5 1.1-.4 1.4.2l.8.2c.2-.8-.3-1-1-1.2z" fill="#96c122"/><path d="m491.4 511.1-.6 1.1c.2.1.3.3.6.3.7.1 1.2.4 1 1.2.8 0 1.4-.2 1.7-1 .3-1-.2-1.4-1-1.5l-.6-.3a6 6 0 0 1-1 .2z" fill="#96c122"/><path d="M490.2 513.3c-.7.5-1.4.6-2 .1-1-1-2-2-3.8-1-.1.2-.4.1-.5 0-.9-1.2-2-2-3.6-2-.2 0-.4-.1-.4-.3-.4-2.7-2.6-3.2-4.3-4.3l-.3-.5c-1.3 1.9-.3 3 .6 4 3 3.4 7.1 5 11.4 6.5a3 3 0 0 0 2 0l.4-.7.7.1 1.2-1.6c-.3-.7-.8-.8-1.4-.3z" fill="#d4934a"/><path d="m489.2 515.9 1.2-.7-.7-.1-.5.8z" fill="#d4934a"/><path d="M479 506.4a25 25 0 0 0 7.1 3.3c1.8.6 3.4 1.5 5.4 1.4.5-.4 1.2-.7 1.5-1.3a5 5 0 0 1-1.2-.2l-.9-.3c-.8-.2-1.7.2-2.4-.2-.8-.4-1-1.4-1.8-1.7-.5-.2-1-.2-1.5-.2-1 0-2-.4-2.7-1l-1-.8-1.2-.3-.5-.6c-.4-.5-.9-1-1.4-1.3-.2-.1-.5-.2-.6-.4l-.5-.5-.1.2c-.5 2.1.7 3 1.9 4z" fill="#693f11"/><path d="m491.5 511.1 1-.1.7-1-.2-.2c-.3.6-1 .9-1.5 1.3z" fill="#693f11"/><path d="m492.7 507.7-1.4-.2c0 .2-4.5-1.9-4.3-1.7-1.8-.3-5.4-3.2-6.2-3.7l-2.2-1.7-.2-.2c-.3-.1-.6-.3-1-.2-.5.1-.8 1-.7 1.6.1.3.3.5.6.7 2.3.6 3.6 2.8 6 3.3 3.1.7 5.7 2.7 8.9 3.5.3.1.6.4.8.7.2-.3.2-.7.1-1.1l.4-.5-.8-.5z" fill="#da1116"/><path d="M493 509.8h.3c.4 0 1-.2 1-.6l-.2-.5-.6-.6-.4.6v1zM487 505.8c-.2-.2 4.3 1.9 4.3 1.7l1.4.2-2.9-.9c-4.2-1.2-7.6-4-11.2-6.4l2.2 1.7c.8.5 4.4 3.4 6.2 3.7zM478.4 503.2c.5.3 1 .8 1.4 1.3l.5.6 1.2.3 1 .8a4 4 0 0 0 2.7 1c.5 0 1 0 1.5.2.7.3 1 1.3 1.8 1.7.7.4 1.6 0 2.4.2l1 .3 1.1.2c-.2-.3-.5-.6-.8-.7-3.2-.8-5.8-2.8-9-3.5-2.3-.5-3.6-2.7-5.9-3.3l.5.5c.1.2.4.3.6.4zM493 509.8z" fill="#da1116"/><path d="M474.9 505.2c.8-.3 1.6-.5 2.4-.3s1.6 1 1.4 1.8c-.2.6-1 1-1.6 1.3-7 2.8-13.7 6.2-20.1 10-.6.4-1.2.8-1.4 1.4-.3.6-.2 1.2 0 1.8.3 2.6.5 5.3.6 8 0 1 0 1.9-.2 2.7a8 8 0 0 1-2 2.8c-3 3.3-6.3 6.4-9.9 9.2-1.2 1-2.5 2-4.1 2.3a11 11 0 0 1-4.3-.2c-4-.8-8.2-1.6-10.9-4.6a261 261 0 0 0-20.2 8.7c.4-4.9-3.9-8.8-5-13.6l.1-1.2c.2-.3.6-.4 1-.6L416 529c5-2 10.1-4 15.2-5.8 4-1.5 7.7-3.4 11.5-5.2a269.1 269.1 0 0 1 32.2-12.7zM472.3 494c.2-.8.4-1.6 1-2.2.4-.5 1-.9 1.7-1.3 1.3-.8 2.5-1.7 3.5-2.8a5 5 0 0 0 1.4-2.2c.2-.8 0-1.8-.9-2.4-1-.6-2.3-.3-3.4 0-5.5 2-10.2 5.7-13 10.3-1 1.4-4.2 7.1-1 8 2.8.7 6.3-1.7 8-3.4 1.2-1.2 2-2.6 2.6-4z" fill="#f7dac6"/><path d="M697.3 795c1-.3 2-.7 2.3-1.8.2-1-.4-2-1-2.7a47.1 47.1 0 0 0-33.1-19.7c-10.2-1-21-.2-31.1 1.8-4 .8-16 2.8-14.8 10.6.7 5 5.4 8 9 9.2a138.6 138.6 0 0 0 68.7 2.5zM867 783.8c-.8.4-1.6.9-2.2 1.6-1.3 1.7-.7 4.3.8 5.8s3.7 2.3 5.8 2.8c11 2.8 22.7 2.1 34 1.4l36.2-2.2c2.8-.2 5.7-.4 8.1-1.6s4.6-3.6 4.4-6.3c-.3-4-4.8-6.2-8.8-7.3a95.5 95.5 0 0 0-17-3c-5.3-.5-11 .4-16.1-.6-1.6-.3-3-.8-4.6-1-2.5-.5-5.1-.2-7.6 0a84.4 84.4 0 0 0-33 10.4z" fill="#cec8c4"/><path d="m817.4 342.6-1.2 12s-4.5-.6-5 4c-.4 4.7 2.2 7 4.4 7.3 2.3.2 1 37.8 1 37.8l26.6 1.3 15.6-79.4zM945.8 507.6c-.3 2.4-1.7 4.5-3.3 6.2-4 4-9.3 5.8-14.6 6-5.3.4-10.5-.7-15.8-1.8l-1.5-10.8a21 21 0 0 1-.2-6.3c.3-2 1.4-4 3.1-4.7 2-.8 4.6.3 6.1-1.4 1.1-1.2 1.1-3.2.7-5-.6-2.2-1.7-4.3-1.3-6.8.3-2 1.5-3.7 2.9-4.9a11 11 0 0 1 8.7-2.5c5.8 1 8.5 8.9 10.5 14.4l3 8.9c1 2.7 2.1 5.6 1.7 8.7zM673.5 430.9c-4-.5-8.1-1.1-10.7-4.2-3.5-4-14.2-9.2-16.3-14 18.2.4 47.8-.2 66 .2 1.6 1.7 6.3 4.8 5 6.7-2.6 3.3-11.4 6.3-14.4 9.1.3-.2 20.7 22.4 21.3 24 1.3 2.9-5.9 12.7-8.5 11a121.4 121.4 0 0 1-22.3-26l-.9-2.8c-.4-1.4-.3-1.6-1.6-1.9-1.9-.4-4-.5-5.8-.7l-11.8-1.4z" fill="#f7dac6"/><path d="M840.7 394.6s84.6 21.3 85.6 26c1 4.8 18 61 12.2 60.3-3.3-.4-19.2-3.3-21.2 4.5-2 7.7-8.6-45.4-10.6-46s-71-7.2-71-7.2z" fill="#fff"/><path d="M840.7 394.6s84.6 21.3 85.6 26c1 4.8 18 61 12.2 60.3-3.3-.4-19.2-3.3-21.2 4.5-2 7.7-8.6-45.4-10.6-46s-71-7.2-71-7.2z" fill="none" stroke="#757678" stroke-miterlimit="10" stroke-width="2"/><path d="M745 542.1c6.6 1.2 93.3-1.7 98.3-5s6.3-4.5 7.2-9.1c1-4.7 11.8-97.2 9.4-113-2.5-15.8-11.4-20.7-20-21.8-8.5-1-40.9 12-52 21.4s-39 30-42.6 33.7-27.4-9.2-30.2-11.2-11.2 17.5-10.3 20.3 33.2 24.1 44.3 24.3c11.1.3 19.3-12.4 19.3-12.4l-30 70.5z" fill="#fff"/><path d="M681.4 754.1 665.7 781l-18.6-7.5 2-6-6.7-3.5-3.1 4.7s-39.6-25.3-43.1-30.1c-3.5-4.8-9.5-10.2-7.1-14.8 3.2-6.4 14.3-1.2 18.9 1l55 25.3zM914.3 672.4l29.8-.1 3.8 20.5-5.8 1.5.7 7.8 5.4.3s.5 48.8-1.5 54.5-3.2 13.8-8.2 14.1c-6.8.5-8.5-12.1-9.2-17.4l-8.6-62.5z" fill="#030303"/><path d="m651.6 745.2 47.8-85.4 40 .4-59.6 97.6z" fill="#2d2d2d"/><path d="M745 542.1c6.6 1.2 93.4-1 98.4-4.3s6.2-4.5 7.2-9.1c1-4.7 11.7-97.9 9.3-113.7-2.5-15.8-11.4-20.7-20-21.8-8.5-1-40.9 12-52 21.4s-38.9 30.9-42.5 34.6-27.5-9.2-30.2-11.2-11.3 16.6-10.4 19.3c.9 2.8 33.2 24.2 44.3 24.4 11.1.3 19.3-12.4 19.3-12.4l-30 70.5z" fill="none" stroke="#757678" stroke-miterlimit="10" stroke-width="2"/><path d="M722.2 469.5c0-7.6 6.3-17.6 12.3-22M913 466.2a25.9 25.9 0 0 1 23.7-4.2" fill="none" stroke="#757678" stroke-miterlimit="10" stroke-width="2"/><path d="M785.5 594.5S813.3 721 817 722s107.2-27 109.3-29.2-3-21.8-3-21.8L840 684l3.4-100.4 1.4-43.4-37.9 1z" fill="#2d2d2d"/><ellipse cx="713.9" cy="457.2" fill="#757678" rx="2.8" ry="2.9"/><path d="M787.2 388.7c1.6.2 2.7 2.3 3.5 4.2 2.4 5.5 4.4 11.3 5.8 17.3a11 11 0 0 1-7.1 4.7c-2.4.5-5.5 1.7-7.8 0-4.4-3.2-2.1-12.6-.7-17 1-3.1 3.2-9.7 6.3-9.2z" fill="#030303"/><path d="M792.1 411.6c-1-2.1-.4-5 1.1-6.7s3.9-2.3 6-1.9c1.4.3 3 1.2 3.1 2.8.1.9-.2 1.7-.5 2.5-1.3 2.9-3.2 5.7-6 6.4-2.8.6-6.2-2.2-5.5-5.3" fill="#030303"/><path d="M801 404.2c2.1-4 6-6.7 10-7.4.5-.1 1.1-.1 1.5.2.5.5.5 1.2.5 1.9a73.6 73.6 0 0 1-3.1 17c-.9 3.1-2.2 6.7-5 7.3-2 .5-4.1-1.1-5.3-3.2-1.1-2-1.5-4.5-1.8-6.8-.4-3 1.8-6.5 3.1-9zM693.5 659.2l90 16 61.2-137c-17.3 4-97-3.2-102.5-6.9-5.4-3.7-48.7 127.9-48.7 127.9zM887.5 287.6c2 1.5 2.3 4.3 2.5 6.8.3 6.9 0 13.8-1 20.5a43 43 0 0 1-2 8.2 53.7 53.7 0 0 1-16 20.6c-2.7 1.1-5.7.3-8.4-.7-.5-.2-1-.4-1.3-.7-.5-.6-.7-1.3-.8-2-.7-5.5 2.3-10.5 5.3-15l8.9-13.6c3.5-5.2 7.3-10.7 11-15.8 2-2.8 3.7-5.5 1.7-8.3zM822.6 288.5c-1.6-3.3-.1-7.5 2.5-10s6.2-3.5 9.6-4.6c1-.3 2.2-.6 3.3-.5 2.9.3 4.8 3.8 4.4 6.8s-2.8 5.4-5.4 6.7-5.6 1.6-8.5 1.8" fill="#030303"/><path d="M837 279.8c-13.4 4-30.1 28.1-31.4 34.7s-19.3-2.1-22.5.9 7.5 19.5 12.8 20-8.2 8-8.2 8l4 6.1 1.3 6.3s-5.8 4.2-3.7 8.6c2 4.4 27.6 20.6 38.5 14.2s28.2-6.8 31.4-21.8-2.3-2.7-2.3-2.7 8.8.9 14.2-.5c8.3-2.2 15.5-29.3 3.2-28.9-7.7.3-10 .8-10 .8s15.7-20 16.7-29.3-39.7-17.6-44-16.4z" fill="#f7dac6"/><path d="M832.1 283.5c1.2 2.6 3.4 4.6 5.7 6.2 8.5 6.2 17.6 16 28 16.7a113 113 0 0 1-16.2 30l9 3.9c1.2-3.1 9-16.1 11.6-17.9a49.2 49.2 0 0 0 19-24.8c1-2.9 1.8-6.1 1-9.2-1-3.2-3.5-5.7-6.2-7.6a54.7 54.7 0 0 0-24.8-9c-4.5-.5-9-.8-13.6-1-3.2-.1-6.9-1.3-9.7.7-3.6 2.5-5.6 7.7-3.8 12zM783 339.7a9.4 9.4 0 0 0 9.9 3.5c.8-.2 1.8-.7 2.3-2.3.9-2.4.1-4.6-.7-5.4-2-1.8-4.2-2-6.5-2.3-2.3-.3-4.6-.5-6.4-2.4a8.3 8.3 0 0 1-1.6-2.2c-.3-.8-.6-2.2-1-2.6-.5 1.7.3 4.6.5 5.6.5 2.2 1.2 4.1 2 5.7.4 1 1 1.7 1.5 2.4z" fill="#030303"/><ellipse cx="823.9" cy="316.3" rx="6.8" ry="4.8" transform="rotate(-70.1 823.9 316.3)"/><path d="M796.1 343.4c1.2 2.7 3.8 4.4 6.3 5s5.2.1 7.7-.6c3.3-1 6.7-2.9 8.5-6.2 1.4-2.8 1.7-6.2 1.8-9.4-2 3.3-5.7 4.7-9.2 6-2.5.8-5.6 1.6-7.6-.6l-1.3-1.5c-.9-.8-2-.8-3.1-.7-1 .1-2 0-2.6.8-1.5 1.8-1.5 5-.5 7.2zM867.6 516c1.4-.8 3.2-1.5 4.7-.7.9.4 1.5 1.3 2 2.1a46.5 46.5 0 0 1 6.6 19l-33.2 2.1 42.9 11-6.7 15.9c-6.1-2.8-13-3-19.2-6-4-1.8-7.5-4.7-11-7.7-3.2-2.8-7-5.3-10-8.3-7.7-7.4 4.7-15.4 9.7-18.8 4.5-3.2 9.3-6 14.2-8.6zM871.7 576.2a57 57 0 0 0 31.6 11.5 24.6 24.6 0 0 1-7.8 9c-18.9-4.8-36-16-50.8-29.7-3.7-3.4-7.8-7-10.9-11a6.7 6.7 0 0 1-.9-7c1-2.2 2.8-4.4 5-5 3.4-.8 5.7 2.7 7.8 5 8.3 9.4 16 19.8 26 27.2z" fill="#030303"/><ellipse cx="681.9" cy="408.8" fill="#030303" rx="59" ry="12.7"/><path d="M623 402h118v7.4H623z" fill="#030303"/><ellipse cx="681.9" cy="403.3" fill="#caa674" rx="59" ry="12.7"/><ellipse cx="678.1" cy="401.6" fill="#8b745b" rx="28.7" ry="6.6"/><path d="M702.8 375.4c0 1.2-.2 2.4-.7 3.6M693.6 367.4l-.4-.3.4.3zM695.7 364c2 1.2 3.8 3.4 5.2 5.6" fill="#fefefe"/><path d="M694.4 363.4a7 7 0 0 1 2.8 2.2c0 2-1.4 2.7-3.6 1.7l-.4-.2c-5-2.6-11.6-.4-16.4 3.2-3.2 2.5-7 4.4-9.5 7.8l-1.1 1.5a7.7 7.7 0 0 1-4.2 3l.3.6 1 .2c9.3.9 18.8 2.3 28 .3 2.1-.5 4.3-1.1 6.4-1.2.9-.3 1.6-.5 2.1-.8.1-.4.4-.8.8-1.1.7-.5 1.2-1 1.5-1.7.5-1 .7-2.3.7-3.5a27.8 27.8 0 0 0-2-5.8 17.2 17.2 0 0 0-5.1-5.7c-.3 0-.5-.2-.8-.3l-.5-.3v.1z" fill="#d4934a"/><path d="M700.6 380.6c-.4.3-.6.7-.8 1.1l.3-.1c1-.7 1.6-1.6 2-2.6a6 6 0 0 1-1.5 1.6zM702.8 375.4c0-1.1-.2-2.2-.6-3-.3-.9-.8-1.8-1.3-2.8a23.8 23.8 0 0 1 1.9 5.8z" fill="#d4934a"/><path d="M676.8 370.3c4.8-3.6 11.4-5.8 16.4-3.2l.5.2c1.7.7.7-2 .7-3.9l-3.6-1.4c-9.6-3.7-18-.9-26 4.7-4.3 3-6.5 12-4 15.6l1.2.2c1.8-.4 3-1.5 4.2-3l1.1-1.4c2.5-3.4 6.3-5.3 9.5-7.8z" fill="#e0ad72"/><path d="M693.6 367.4c2.2 1 3.6.1 3.6-1.8a7.1 7.1 0 0 0-2.8-2.2c0 2 1 4.6-.7 4z" fill="#e0ad72"/><path d="M700.4 392.4c-.5.2-1 0-1.5 0v-2.6l.2-.1c-3.7 2.1-7.8 2.1-11.7 2.9-5.6 1-11.3 1.7-17 1-3.1-.3-6.4-.8-7.7-5-2.2.1-4.7.3-4.7 3.5 0 2.9 2.3 3 4.2 3.3.3.2.6.5 1 .5 4.4.4 9.1-1 12.7 3.6.2.2.8.2 1 0 3-1.5 6.1-1.3 9.1 0 .3 0 .9 0 1-.3 2.3-3.6 5.2-3 8.3-2.2 1.5.4 2.8-.5 3.6-2.1.7-1.5 1.7-1.9 3-1l1.6-.4.2-.1c-.6-1.5-1.9-1.6-3.4-1z" fill="#96c122"/><path d="m699 389.8-.1 2.7h1.5c1.4-.7 2.7-.6 3.3.9 1.4-.6 2.3-1.8 1.9-3.5-.4-2-1.8-2.3-3.3-1.6-.4.2-1 0-1.4 0-.6.6-1.2 1-1.9 1.4v.1z" fill="#96c122"/><path d="M698.9 394.9c-.8 1.6-2.1 2.5-3.6 2.1-3-.7-6-1.4-8.3 2.2-.1.3-.7.4-1 .3-3-1.3-6-1.5-9 0-.3.2-.9.2-1 0-3.7-4.6-8.4-3.2-12.9-3.6-.3 0-.6-.3-1-.5-.6 4.7 2.6 5.5 5.2 6.4 9.5 3.3 19.1 2 28.7.5 1.6-.3 2.8-1 3.8-1.9v-1.9l1.4-.4c.4-1.1.6-2.5.6-4.1-1.2-1-2.2-.6-3 .9z" fill="#d4934a"/><path d="M699.8 400.5a6 6 0 0 0 1.4-2.3l-1.4.3v2z" fill="#d4934a"/><path d="M670.5 393.7c5.6.6 11.3 0 16.9-1.1 4-.8 8-.8 11.6-2.9.5-1.3 1.6-2.5 1.5-3.9l-2.3 1c-.8 0-1.5 0-2.2.2-1.7.5-3.1 2-4.9 2.1-1.8.1-3.4-1.4-5.2-1.3-1 0-2 .8-3 1.2-2 1-4.1 1.3-6.2.8-1-.2-1.8-.5-2.7-.4-1 .1-1.7.7-2.6.6-.6 0-1.2-.3-1.7-.5a11 11 0 0 0-4-.9l-1.6-.1c-.4-.1-.9-.3-1.4-.3v.3c1.3 4.3 4.6 4.8 7.7 5.2z" fill="#693f11"/><path d="m699 389.7 2-1.3v-2.5h-.4c0 1.3-1 2.5-1.6 3.8z" fill="#693f11"/><path d="M697.7 382.5c-.9.2-1.9.5-2.8 1 .1.2-10.6 1-10 1.2-3.7 1.3-13.7-.5-15.8-.5-2 0-3.9-.5-5.9-.8h-.6c-.7-.1-1.5-.2-2.1.3-1 .9-.6 2.8.3 3.6.6.5 1.2.7 2 .9v-.2c4.9-1.1 9.7 1.4 14.8 0 6.7-1.9 13.8-.8 20.7-2.6.7-.1 1.5.2 2.2.4 0-.6-.3-1.3-1-2l.1-1.3h-1.9z" fill="#da1116"/><path d="m700.5 385.8.5-.2c.8-.4 1.8-1.3 1.4-2.2-.2-.3-.6-.4-1-.6-.5-.2-1.1-.3-1.7-.3l-.2 1.3c.7.7 1 1.4 1 2zM685 384.7c-.7-.2 10-1 9.9-1.3l2.8-1c-2.1.2-4.3.8-6.4 1.3-9.2 2-18.7.6-28-.3 2 .3 3.9.7 5.9.8 2 0 12 1.8 15.7.5zM665.7 388.6c1.4 0 2.7.4 4 .9.5.2 1 .5 1.7.5.9 0 1.7-.4 2.6-.6.9 0 1.8.3 2.7.5 2 .4 4.3.1 6.2-.8 1-.5 2-1.2 3-1.3 1.8-.1 3.5 1.4 5.2 1.3 1.8 0 3.2-1.6 5-2l2-.4c.9-.1 1.7-.5 2.4-.8-.7-.3-1.5-.6-2.2-.4-6.9 1.7-14 .6-20.7 2.5-5 1.4-10-1.1-14.8 0v.2l1.4.3c.5.2 1 .1 1.5.1zM700.5 385.9z" fill="#da1116"/><path d="M685.7 352c1.8-11 10.9-19 16.2-18.4s10.2 4.6 17.2 1a29 29 0 0 0 12.7-18M693.7 355c2.9-7.8 12.3-13 17.2-11.9s9 4.4 15.9 2.4c7-2 12.7-8.5 13.9-11.9" fill="none" stroke="#757678" stroke-miterlimit="10" stroke-width="2"/><path d="M703.2 361.2c1-9.2 8.6-12 13-9.2 3.3 2 11 5 16.7 0" fill="none" stroke="#757678" stroke-miterlimit="10" stroke-width="2"/></svg>