<?xml version="1.0" standalone="no"?>
<!DOCTYPE svg PUBLIC "-//W3C//DTD SVG 20010904//EN"
 "http://www.w3.org/TR/2001/REC-SVG-20010904/DTD/svg10.dtd">
<svg version="1.0" xmlns="http://www.w3.org/2000/svg"
 width="512.000000pt" height="512.000000pt" viewBox="0 0 512.000000 512.000000"
 preserveAspectRatio="xMidYMid meet">
<metadata>
Created by potrace 1.14, written by Peter Selinger 2001-2017
</metadata>
<g transform="translate(0.000000,512.000000) scale(0.100000,-0.100000)"
fill="#000000" stroke="none">
<path d="M2738 5075 c-1 -1 -41 -5 -88 -9 -47 -3 -96 -8 -110 -10 -14 -3 -45
-7 -70 -10 -25 -3 -92 -15 -150 -26 -384 -77 -716 -221 -979 -425 -155 -119
-316 -288 -411 -430 -19 -27 -36 -52 -40 -55 -13 -11 -120 -202 -163 -291 -40
-84 -122 -301 -132 -353 -3 -10 -11 -42 -19 -70 -24 -84 -59 -269 -71 -376 -3
-30 -8 -66 -10 -80 -24 -159 -24 -643 0 -815 2 -16 6 -55 10 -85 6 -64 42
-261 55 -305 5 -16 23 -79 40 -140 55 -192 140 -394 228 -539 23 -37 42 -70
42 -72 0 -2 23 -37 52 -77 127 -178 281 -335 448 -458 324 -239 737 -387 1191
-426 165 -14 751 -5 779 12 3 2 35 6 71 9 62 6 80 9 139 21 14 3 50 10 80 15
30 6 107 24 170 41 63 16 122 31 130 33 9 2 76 23 150 47 74 23 140 44 145 45
6 1 60 19 120 39 123 41 117 40 202 59 34 7 65 11 68 8 3 -3 5 6 6 19 1 32 1
2306 0 2340 l-1 26 -870 0 c-634 0 -870 -3 -871 -11 -1 -15 -1 -727 0 -747 1
-11 11 -16 34 -16 33 -1 218 -10 344 -18 39 -2 129 -7 200 -11 70 -3 139 -7
153 -8 l25 -1 1 -492 c1 -349 -2 -496 -10 -502 -23 -18 -155 -53 -326 -86 -55
-11 -171 -24 -270 -31 -76 -5 -341 -6 -365 -1 -11 3 -42 8 -70 12 -243 34
-495 184 -646 382 -24 32 -47 60 -50 63 -3 3 -22 31 -42 63 -73 114 -150 293
-207 482 -15 48 -60 285 -66 345 -3 30 -7 60 -9 67 -17 53 -24 472 -11 623 8
97 31 249 45 298 5 18 10 33 9 35 -1 8 28 105 52 175 81 228 175 378 334 537
201 201 448 315 761 352 110 13 544 6 700 -12 102 -12 140 -18 232 -35 146
-29 320 -81 464 -140 167 -69 159 -67 160 -39 0 13 2 71 4 129 2 58 6 170 9
250 3 80 8 222 12 316 l6 171 -39 7 c-64 10 -82 14 -286 61 -109 25 -212 47
-230 50 -18 3 -54 10 -82 15 -92 18 -201 34 -310 45 -55 6 -661 16 -667 10z"/>
</g>
</svg>
