<?xml version="1.0" standalone="no"?>
<!DOCTYPE svg PUBLIC "-//W3C//DTD SVG 20010904//EN"
 "http://www.w3.org/TR/2001/REC-SVG-20010904/DTD/svg10.dtd">
<svg version="1.0" xmlns="http://www.w3.org/2000/svg"
 width="896.000000pt" height="896.000000pt" viewBox="0 0 896.000000 896.000000"
 preserveAspectRatio="xMidYMid meet">
<metadata>
Created by potrace 1.14, written by Peter Selinger 2001-2017
</metadata>
<g transform="translate(0.000000,896.000000) scale(0.100000,-0.100000)"
fill="#000000" stroke="none">
<path d="M3295 8153 c-11 -3 -31 -10 -45 -15 -14 -5 -25 -8 -25 -6 0 10 -96
-83 -128 -125 -12 -16 -51 -65 -87 -110 -36 -45 -92 -118 -125 -162 -33 -44
-66 -86 -72 -93 -7 -7 -13 -17 -13 -20 0 -4 -10 -18 -22 -32 -13 -14 -36 -45
-53 -70 -16 -25 -33 -47 -36 -50 -3 -3 -25 -34 -49 -70 -24 -36 -47 -66 -52
-68 -4 -2 -8 -8 -8 -13 0 -6 -5 -15 -11 -22 -29 -33 -326 -508 -350 -561 -6
-12 -15 -30 -22 -41 -80 -133 -299 -572 -300 -602 0 -7 -4 -13 -9 -13 -4 0 -8
-8 -8 -18 0 -10 -4 -22 -8 -28 -5 -5 -26 -54 -47 -109 -21 -55 -44 -113 -51
-130 -19 -44 -111 -320 -130 -390 -45 -167 -75 -283 -79 -314 -3 -19 -10 -55
-16 -80 -6 -25 -13 -59 -16 -76 -5 -33 -10 -60 -16 -90 -25 -110 -28 -238 -8
-290 33 -86 102 -155 178 -179 81 -26 189 -6 259 47 37 29 53 48 91 113 10 18
27 95 38 184 6 40 14 93 20 120 3 14 8 41 11 60 22 119 124 497 154 565 4 11
17 45 27 75 10 30 20 57 23 60 3 3 7 14 8 25 2 11 13 40 24 65 11 24 21 49 22
55 1 5 12 32 24 59 12 27 22 50 22 51 0 2 21 47 47 102 26 54 47 100 48 103 4
11 37 78 70 140 19 36 35 71 35 78 0 6 4 12 9 12 5 0 14 12 20 28 5 15 26 54
46 87 19 33 41 71 48 85 6 14 15 30 20 35 4 6 57 91 119 190 61 99 114 182
117 185 3 3 33 45 65 93 32 49 64 94 70 100 6 7 20 26 30 42 15 23 111 154
168 230 11 14 68 87 96 122 13 15 26 33 30 40 4 6 21 28 39 49 93 112 115 143
132 189 26 67 22 166 -8 228 -25 51 -81 117 -99 117 -7 0 -12 4 -12 8 0 25
-146 50 -205 35z"/>
<path d="M7874 6178 c-3 -5 -11 -7 -17 -5 -7 2 -25 0 -42 -5 -16 -5 -39 -11
-50 -13 -71 -15 -122 -27 -135 -32 -8 -3 -19 -7 -25 -9 -5 -1 -30 -7 -55 -13
-25 -7 -52 -13 -60 -16 -8 -2 -58 -16 -110 -30 -133 -35 -176 -48 -330 -95
-135 -41 -155 -46 -187 -54 -27 -6 -595 -196 -618 -206 -11 -5 -31 -12 -45
-15 -14 -4 -38 -13 -55 -20 -16 -8 -50 -20 -75 -29 -61 -20 -180 -64 -205 -76
-11 -5 -47 -19 -80 -31 -33 -12 -71 -26 -85 -32 -14 -6 -29 -11 -35 -13 -5 -1
-47 -18 -93 -38 -45 -19 -83 -35 -85 -35 -2 0 -52 -18 -87 -34 -14 -6 -27 -11
-30 -12 -19 -6 -51 -20 -84 -36 -22 -10 -43 -16 -48 -13 -4 3 -8 1 -8 -4 0 -5
-28 -20 -62 -32 -35 -13 -68 -27 -73 -31 -6 -4 -33 -16 -61 -28 -28 -11 -73
-30 -100 -42 -27 -12 -73 -32 -101 -45 -29 -13 -77 -35 -106 -49 -30 -14 -59
-25 -65 -25 -7 0 -12 -4 -12 -10 0 -5 -8 -10 -17 -10 -10 0 -27 -7 -37 -15
-10 -8 -23 -12 -27 -9 -5 3 -9 0 -9 -5 0 -6 -4 -11 -9 -11 -11 0 -321 -147
-376 -178 -11 -6 -49 -25 -85 -42 -73 -36 -327 -168 -407 -211 -29 -16 -79
-43 -110 -60 -31 -18 -78 -43 -103 -56 -25 -13 -52 -28 -60 -33 -8 -5 -76 -44
-150 -86 -167 -95 -323 -186 -330 -194 -3 -3 -18 -12 -35 -20 -16 -8 -34 -19
-40 -23 -5 -5 -27 -18 -47 -30 -145 -85 -196 -121 -226 -165 -51 -76 -63 -133
-50 -252 2 -26 49 -104 78 -132 35 -34 95 -68 120 -68 10 0 21 -4 24 -8 8 -13
109 -4 147 13 19 8 52 26 74 39 22 14 58 36 80 49 22 13 114 69 205 124 91 54
201 119 245 143 44 24 82 46 85 49 3 3 18 13 35 21 16 8 91 50 167 92 76 42
138 74 138 70 0 -4 4 -2 8 3 10 14 26 23 370 197 172 87 319 158 327 158 7 0
15 3 17 8 4 9 59 35 273 132 28 12 82 37 122 56 40 18 100 45 135 60 35 14 83
35 108 46 25 11 61 27 80 35 19 8 49 22 65 31 17 9 31 15 33 14 1 -1 19 5 40
14 20 8 60 24 87 35 28 11 64 26 82 34 17 8 35 15 40 15 4 1 26 9 48 20 22 11
48 19 57 20 9 0 19 4 22 9 3 5 18 12 33 16 15 3 48 16 72 27 25 11 50 21 56
23 5 1 19 6 30 10 48 20 120 47 125 47 3 0 16 5 30 10 14 6 87 32 164 59 76
27 142 52 147 55 5 3 17 7 26 9 10 2 101 31 203 65 102 34 190 63 195 64 31 7
136 40 170 53 22 8 51 17 64 20 14 2 28 6 33 9 4 3 16 7 25 9 10 2 68 17 128
35 105 30 243 68 275 75 8 2 93 24 189 49 96 25 178 43 183 40 4 -3 8 -2 8 3
0 4 14 14 31 22 44 19 92 69 120 121 29 56 30 61 33 140 7 160 -105 277 -277
294 -16 1 -31 -2 -33 -6z"/>
<path d="M1180 3364 c-36 -6 -85 -17 -110 -24 -25 -7 -46 -12 -48 -11 -9 4
-188 -95 -237 -132 -85 -65 -204 -189 -205 -214 0 -7 -4 -13 -9 -13 -12 0 -97
-176 -114 -240 -14 -49 -22 -93 -32 -170 -7 -52 -7 -198 -1 -209 4 -6 3 -11
-1 -11 -10 0 -9 -53 2 -69 3 -6 3 -11 -2 -11 -12 0 -1 -269 12 -290 2 -4 7
-22 10 -41 24 -135 126 -318 243 -434 56 -56 191 -155 211 -155 6 0 11 -4 11
-8 0 -5 6 -9 13 -9 6 0 38 -12 70 -27 31 -14 57 -23 57 -20 0 4 7 1 15 -6 8
-7 15 -9 15 -6 0 4 8 3 18 -3 30 -16 113 -25 227 -25 139 0 187 7 294 44 187
63 355 191 460 350 20 30 40 58 44 61 5 3 8 8 7 10 -1 2 12 34 28 70 42 93 72
222 75 318 1 44 6 81 10 81 5 0 5 6 1 12 -11 17 -11 228 -1 228 5 0 5 5 1 12
-4 6 -8 44 -10 84 -2 63 -10 119 -28 199 -13 61 -101 252 -127 275 -3 3 -18
23 -35 45 -73 99 -212 210 -335 268 -62 29 -218 77 -252 77 -12 0 -65 2 -117
3 -52 2 -124 -2 -160 -9z"/>
<path d="M3138 2325 c-2 -2 -15 -6 -30 -9 -85 -15 -181 -113 -207 -211 -11
-45 -2 -151 17 -193 39 -87 131 -156 220 -167 20 -2 87 -7 147 -10 61 -4 126
-8 145 -10 19 -2 64 -6 100 -10 36 -3 76 -8 90 -12 14 -3 39 -6 55 -8 17 -1
44 -4 60 -8 17 -3 48 -9 70 -12 36 -5 101 -16 175 -30 14 -2 48 -9 75 -15 28
-6 64 -13 80 -16 17 -3 44 -9 60 -14 17 -5 44 -11 60 -13 17 -3 37 -8 45 -11
8 -3 26 -8 40 -10 52 -10 78 -17 210 -52 74 -19 144 -37 155 -39 11 -2 119
-31 240 -65 121 -33 227 -63 235 -65 8 -2 33 -8 55 -13 22 -6 72 -18 110 -29
39 -10 84 -18 100 -17 192 3 331 194 277 379 -32 112 -110 180 -238 210 -20 4
-193 50 -394 104 -63 17 -139 38 -167 47 -29 9 -63 17 -75 19 -13 2 -50 11
-83 20 -33 9 -67 17 -75 19 -8 2 -53 14 -100 26 -47 12 -94 23 -105 25 -11 1
-27 5 -35 8 -8 4 -26 8 -40 11 -14 2 -57 11 -95 20 -39 8 -82 17 -95 20 -27 5
-120 24 -160 33 -14 2 -34 6 -45 8 -77 12 -103 16 -125 21 -14 3 -41 8 -60 10
-19 3 -48 7 -65 9 -51 8 -108 15 -150 19 -22 3 -67 7 -100 11 -33 4 -85 8
-115 10 -30 2 -55 4 -55 5 0 4 -204 8 -207 5z"/>
</g>
</svg>
