<?xml version="1.0" standalone="no"?>
<!DOCTYPE svg PUBLIC "-//W3C//DTD SVG 20010904//EN"
 "http://www.w3.org/TR/2001/REC-SVG-20010904/DTD/svg10.dtd">
<svg version="1.0" xmlns="http://www.w3.org/2000/svg"
 width="816.000000pt" height="816.000000pt" viewBox="0 0 816.000000 816.000000"
 preserveAspectRatio="xMidYMid meet">
<metadata>
Created by potrace 1.14, written by Peter Selinger 2001-2017
</metadata>
<g transform="translate(0.000000,816.000000) scale(0.100000,-0.100000)"
fill="#000000" stroke="none">
<path d="M3790 8129 c-947 -64 -1869 -498 -2540 -1196 -1222 -1271 -1440
-3207 -534 -4723 376 -629 946 -1160 1589 -1482 44 -22 82 -45 83 -50 5 -12
157 -87 298 -147 261 -109 588 -205 859 -250 148 -25 371 -51 445 -51 83 0 96
-7 114 -54 9 -24 32 -61 51 -84 106 -123 284 -80 403 98 l30 45 124 15 c121
15 123 15 126 41 3 22 9 28 43 33 35 6 55 -1 172 -59 154 -77 210 -95 286 -95
94 1 176 53 222 143 25 49 54 162 63 247 l7 65 107 50 c415 195 780 452 1107
780 438 437 756 952 949 1535 80 242 128 447 167 725 21 142 23 199 24 505 0
369 -7 453 -61 735 -267 1390 -1265 2534 -2599 2980 -492 164 -1006 229 -1535
194z m1237 -1751 c211 -221 406 -585 591 -1098 17 -47 68 -193 113 -325 45
-132 98 -275 117 -318 32 -70 40 -81 81 -102 75 -37 251 -67 536 -90 138 -11
337 -43 408 -65 47 -15 79 -33 108 -60 39 -37 41 -42 37 -85 -7 -59 -54 -153
-120 -241 -71 -95 -264 -286 -376 -372 -152 -116 -232 -162 -302 -172 -105
-15 -202 -92 -233 -184 l-14 -41 -20 45 c-26 60 -76 108 -141 138 -48 22 -64
24 -145 20 -101 -4 -164 -27 -247 -87 -54 -39 -139 -65 -183 -56 -84 19 -162
89 -237 213 l-39 66 -12 -30 c-24 -62 -40 -189 -34 -267 26 -348 313 -600 624
-547 157 26 335 152 395 279 l29 60 22 -47 c26 -56 90 -116 150 -142 50 -21
49 -20 69 -160 53 -378 19 -594 -107 -689 -140 -106 -389 -190 -697 -238 -89
-13 -178 -17 -391 -18 l-277 0 -16 -95 c-52 -309 -53 -310 -70 -310 -8 0 -151
36 -318 80 -166 44 -422 112 -568 150 -146 38 -458 121 -695 183 l-430 113 -6
520 c-3 285 -7 564 -8 620 l-1 101 -67 12 c-109 19 -272 69 -350 107 -88 42
-147 106 -203 219 -148 302 -176 747 -65 1040 60 161 163 245 300 245 59 0
401 -84 424 -104 9 -7 154 -131 324 -275 l307 -263 155 52 c85 28 157 55 159
58 2 4 -54 228 -125 497 -71 270 -132 504 -135 521 -5 29 0 35 93 109 120 96
237 208 265 253 17 28 19 43 14 89 -12 100 -116 334 -263 591 -36 62 -63 115
-61 117 1 2 39 -5 83 -16 250 -60 482 -83 760 -76 267 6 489 46 645 116 70 31
81 27 147 -41z m-2360 -4602 c70 -18 569 -149 1108 -291 539 -142 983 -260
987 -264 3 -3 4 -81 1 -173 l-6 -166 -51 5 c-28 3 -68 1 -88 -5 l-36 -10 -35
72 c-70 139 -185 252 -329 322 -138 66 -155 49 -179 -171 -13 -124 -6 -441 14
-643 7 -68 9 -126 5 -128 -13 -8 -337 26 -483 51 -345 58 -747 185 -1016 321
l-71 36 6 126 c3 70 10 262 16 427 11 341 20 525 25 525 2 0 62 -15 132 -34z
m2018 -1406 c17 -18 16 -19 -8 -26 -37 -9 -46 -3 -36 24 10 27 21 28 44 2z"/>
<path d="M4833 4994 c-89 -45 -144 -156 -144 -289 -1 -91 12 -147 47 -218 116
-229 353 -220 426 16 52 172 -15 391 -146 471 -58 36 -135 45 -183 20z"/>
</g>
</svg>
