<?xml version="1.0" encoding="UTF-8" standalone="no"?><!DOCTYPE svg PUBLIC "-//W3C//DTD SVG 1.1//EN" "http://www.w3.org/Graphics/SVG/1.1/DTD/svg11.dtd"><svg width="100%" height="100%" viewBox="0 0 92 92" version="1.1" xmlns="http://www.w3.org/2000/svg" xmlns:xlink="http://www.w3.org/1999/xlink" xml:space="preserve" xmlns:serif="http://www.serif.com/" style="fill-rule:evenodd;clip-rule:evenodd;stroke-linejoin:round;stroke-miterlimit:2;"><g><path d="M59.039,56.377c0,3.428 -1.036,6.117 -3.108,8.066c-2.072,1.949 -4.916,3.113 -8.532,3.489l-0.057,6.385l-4.605,0l0.057,-6.3c-2.223,-0.132 -4.276,-0.443 -6.16,-0.932c-1.883,-0.49 -3.211,-0.98 -3.983,-1.469l1.497,-5.171c1.149,0.716 2.665,1.333 4.549,1.851c1.883,0.518 3.748,0.777 5.594,0.777c2.788,0 4.911,-0.481 6.371,-1.441c1.46,-0.961 2.19,-2.468 2.19,-4.521c0,-1.356 -0.354,-2.514 -1.06,-3.475c-0.706,-0.96 -1.681,-1.817 -2.924,-2.571c-1.243,-0.753 -3.089,-1.723 -5.538,-2.91c-3.145,-1.526 -5.726,-3.353 -7.741,-5.481c-2.015,-2.128 -3.023,-4.615 -3.023,-7.459c0,-3.296 1.059,-5.829 3.178,-7.6c2.119,-1.77 4.836,-2.863 8.151,-3.277l0.057,-6.498l4.605,0l-0.056,6.385c1.94,0.094 3.616,0.353 5.029,0.777c1.412,0.424 2.524,0.89 3.334,1.398l-1.272,4.973c-1.224,-0.735 -2.477,-1.295 -3.758,-1.681c-1.28,-0.386 -2.966,-0.579 -5.057,-0.579c-1.431,0 -2.769,0.188 -4.012,0.565c-1.243,0.376 -2.251,0.96 -3.023,1.751c-0.772,0.791 -1.158,1.771 -1.158,2.939c0,1.375 0.273,2.519 0.819,3.432c0.546,0.914 1.389,1.752 2.529,2.515c1.139,0.763 2.877,1.747 5.212,2.952c2.411,1.243 4.432,2.416 6.061,3.518c1.629,1.102 3.009,2.453 4.139,4.054c1.13,1.601 1.695,3.447 1.695,5.538Z" style="fill:#e11387;fill-rule:nonzero;"/><path d="M46.045,0.617c20.825,0.198 40.36,16.141 44.436,36.695c2.94,14.822 -2.055,30.96 -12.881,41.531c-12.583,12.287 -32.54,16.368 -49.08,9.605c-14.598,-5.968 -25.604,-19.979 -27.889,-35.572c-2.824,-19.274 8.187,-39.742 25.856,-47.997c6.093,-2.847 12.788,-4.283 19.558,-4.262Zm-0.559,4.832c-19.7,0.191 -37.832,16.208 -40.211,35.832c-2.721,22.446 16.058,45.556 40.211,45.708c19.307,0.121 37.607,-15.252 40.565,-34.561c2.642,-17.253 -7.11,-35.703 -23.084,-43.173c-5.443,-2.545 -11.412,-3.824 -17.481,-3.806Z" style="fill:#e11387;"/></g></svg>