<?xml version="1.0" encoding="UTF-8" standalone="no"?><!DOCTYPE svg PUBLIC "-//W3C//DTD SVG 1.1//EN" "http://www.w3.org/Graphics/SVG/1.1/DTD/svg11.dtd"><svg width="100%" height="100%" viewBox="0 0 384 384" version="1.1" xmlns="http://www.w3.org/2000/svg" xmlns:xlink="http://www.w3.org/1999/xlink" xml:space="preserve" xmlns:serif="http://www.serif.com/" style="fill-rule:evenodd;clip-rule:evenodd;stroke-linecap:round;stroke-linejoin:round;stroke-miterlimit:1.5;"><g id="Layer1"><path d="M29.355,39.927c16.202,-0 29.355,13.153 29.355,29.355c0,16.202 -13.153,29.355 -29.355,29.355c-16.201,0 -29.355,-13.153 -29.355,-29.355c0,-16.202 13.154,-29.355 29.355,-29.355Zm0,14.677c8.101,0 14.678,6.577 14.678,14.678c-0,8.101 -6.577,14.678 -14.678,14.678c-8.101,-0 -14.677,-6.577 -14.677,-14.678c-0,-8.101 6.576,-14.678 14.677,-14.678Z" style="fill:#e11487;"/><path d="M213.855,39.927c16.202,-0 29.355,13.153 29.355,29.355c0,16.202 -13.153,29.355 -29.355,29.355c-16.201,0 -29.355,-13.153 -29.355,-29.355c-0,-16.202 13.154,-29.355 29.355,-29.355Zm0,14.677c8.101,0 14.678,6.577 14.678,14.678c-0,8.101 -6.577,14.678 -14.678,14.678c-8.101,-0 -14.677,-6.577 -14.677,-14.678c-0,-8.101 6.576,-14.678 14.677,-14.678Z" style="fill:#e11487;"/><path d="M167.355,164.895c16.202,-0 29.355,13.153 29.355,29.355c0,16.202 -13.153,29.355 -29.355,29.355c-16.201,0 -29.355,-13.153 -29.355,-29.355c0,-16.202 13.154,-29.355 29.355,-29.355Zm0,14.677c8.101,0 14.678,6.577 14.678,14.678c-0,8.101 -6.577,14.678 -14.678,14.678c-8.101,-0 -14.677,-6.577 -14.677,-14.678c-0,-8.101 6.576,-14.678 14.677,-14.678Z" style="fill:#e11487;"/><path d="M123.322,290.145c16.202,-0 29.356,13.153 29.356,29.355c-0,16.202 -13.154,29.355 -29.356,29.355c-16.201,0 -29.355,-13.153 -29.355,-29.355c0,-16.202 13.154,-29.355 29.355,-29.355Zm0,14.677c8.101,0 14.678,6.577 14.678,14.678c0,8.101 -6.577,14.678 -14.678,14.678c-8.1,-0 -14.677,-6.577 -14.677,-14.678c-0,-8.101 6.577,-14.678 14.677,-14.678Z" style="fill:#e11487;"/><path d="M319.072,299.895c11.235,-0 20.356,9.121 20.356,20.355c-0,11.234 -9.121,20.355 -20.356,20.355c-11.234,0 -20.355,-9.121 -20.355,-20.355c0,-11.234 9.121,-20.355 20.355,-20.355Zm0,10.177c5.618,0 10.178,4.561 10.178,10.178c0,5.617 -4.56,10.178 -10.178,10.178c-5.617,-0 -10.177,-4.561 -10.177,-10.178c-0,-5.617 4.56,-10.178 10.177,-10.178Z" style="fill:#e11487;"/><path d="M145.5,194.25l-66,0c-81.748,0.277 -81.748,125.667 0,126l21,-0" style="fill:none;stroke:#e11487;stroke-width:11px;"/><path d="M145.5,318.75l155.467,0" style="fill:none;stroke:#e11487;stroke-width:11px;"/><path d="M320.25,222.75l56.25,0l-19.55,19.55l19.478,19.479l-56.178,0" style="fill:none;stroke:#e11487;stroke-width:11px;"/><path d="M320.25,303l0,-89.25" style="fill:none;stroke:#e11487;stroke-width:11px;"/><path d="M51.75,69.75l140.25,0" style="fill:none;stroke:#e11487;stroke-width:11px;"/><path d="M235.5,69.75l48.75,0c78.994,-0.259 77.576,125.257 -0.75,125.25l-93,0" style="fill:none;stroke:#e11487;stroke-width:11px;"/></g></svg>