<svg clip-rule="evenodd" fill-rule="evenodd" stroke-linejoin="round" stroke-miterlimit="2" viewBox="0 0 512 512" xmlns="http://www.w3.org/2000/svg"><g fill="#e11387" transform="matrix(.844819 0 0 .844819 39.7263 39.7263)"><path d="m502 136h-104v-78c-.008 0-.016 0-.023-.004 0-2.598-.993-5.156-2.907-7.066l-48-48c-1.874-1.875-4.419-2.929-7.07-2.93h-168c-2.651.001-5.196 1.055-7.07 2.93l-48 48c-1.914 1.914-2.907 4.472-2.907 7.078-.007-.004-.015-.004-.023-.008v78h-104c-5.523 0-10 4.477-10 10v289c.001 2.651 1.055 5.196 2.93 7.07l67 67c1.874 1.875 4.419 2.929 7.07 2.93h197.832c5.523 0 10-4.477 10-10s-4.477-10-10-10h-193.691l-61.141-61.145v-274.855h472v274.855l-61.14 61.145h-76.028c-5.523 0-10 4.477-10 10s4.477 10 10 10h80.168c2.651-.001 5.196-1.055 7.07-2.93l67-67c1.875-1.874 2.929-4.419 2.93-7.07v-289c0-5.523-4.477-10-10-10zm-325.86-116h159.72l28 28h-215.72zm153.86 48v68h-148v-68zm-196 68v-68h28v68zm216 0v-68h28v68z" fill-rule="nonzero"/><path d="m95.952 493.095h331.952v18.905h-331.952z" transform="matrix(1.0632 0 0 1.10226 -22.5811 -52.3589)"/><g fill-rule="nonzero"><path d="m.228-.624h-.213v-.119h.581v.119h-.212v.624h-.156z" transform="matrix(85.22568 0 0 85.22568 141.312122046 316.33561676)"/><path d="m.267-.751h.157l.277.751h-.169l-.05-.157h-.274l-.048.157h-.167zm.179.482-.08-.255-.021-.077-.022.077-.079.255z" transform="matrix(85.22568 0 0 85.22568 193.33008931 316.33561676)"/><path d="m.092-.743h.155v.329l.261-.329h.171l-.251.314c.048.071.124.196.229.375l.032.054h-.173c-.003-.005-.008-.013-.015-.025-.006-.013-.014-.027-.022-.042s-.02-.034-.033-.057c-.014-.024-.028-.046-.042-.069-.024-.039-.051-.079-.08-.122l-.077.086v.229h-.155z" transform="matrix(85.22568 0 0 85.22568 252.46369064 316.33561676)"/><path d="m.092-.743h.453v.119h-.298v.185h.229v.117h-.229v.199h.33v.123h-.485z" transform="matrix(85.22568 0 0 85.22568 312.55371349 316.33561676)"/><path d="m.267-.751h.157l.277.751h-.169l-.05-.157h-.274l-.048.157h-.167zm.179.482-.08-.255-.021-.077-.022.077-.079.255z" transform="matrix(75.75616 0 0 75.75616 141.312122046 395.80640128)"/><path d="m.002-.743h.156l.092.436.026.181.03-.181.107-.436h.139l.114.436.03.173.025-.173.085-.436h.155l-.194.751h-.16l-.104-.415-.024-.16-.022.16-.107.415h-.148z" transform="matrix(75.75616 0 0 75.75616 193.8757704 395.80640128)"/><path d="m.267-.751h.157l.277.751h-.169l-.05-.157h-.274l-.048.157h-.167zm.179.482-.08-.255-.021-.077-.022.077-.079.255z" transform="matrix(75.75616 0 0 75.75616 266.85736104 395.80640128)"/><path d="m.225-.261-.249-.482h.17l.137.288.022.056.018-.056.141-.288h.166l-.249.483v.26h-.156z" transform="matrix(75.75616 0 0 75.75616 319.42029918 395.80640128)"/></g></g></svg>