<?xml version="1.0" encoding="UTF-8" standalone="no"?><!DOCTYPE svg PUBLIC "-//W3C//DTD SVG 1.1//EN" "http://www.w3.org/Graphics/SVG/1.1/DTD/svg11.dtd"><svg width="100%" height="100%" viewBox="0 0 103 114" version="1.1" xmlns="http://www.w3.org/2000/svg" xmlns:xlink="http://www.w3.org/1999/xlink" xml:space="preserve" xmlns:serif="http://www.serif.com/" style="fill-rule:evenodd;clip-rule:evenodd;stroke-linejoin:round;stroke-miterlimit:2;"><g><path d="M53.725,17.014l0,95.505l-2.807,0.358l-50.343,-15.699l0,-96.739l53.15,16.575Zm-48.319,76.61l43.488,13.561l0,-86.617l-43.488,-13.561l0,86.617Z" style="fill:#e11387;"/><path d="M102.922,97.178l-51.173,15.957l-1.978,-0.616l0,-95.505l53.151,-16.575l0,96.739Zm-48.32,-76.61l0,86.617l43.488,-13.561l0,-86.617l-43.488,13.561Z" style="fill:#e11387;"/><path d="M64.888,36.03l1.084,4.804l0.411,2.032l0.31,-2.257l0.977,-5.449l2.317,-0.724l0.972,9.481l-1.666,0.52l-0.401,-5.12l-0.144,-2.951l-0.598,3.183l-1.164,5.706l-1.345,0.421l-1.287,-4.94l-0.604,-2.807l-0.192,3.056l-0.347,5.354l-1.575,0.499l0.865,-10.062l2.387,-0.746Z" style="fill:#e11387;fill-rule:nonzero;"/><path d="M77.168,37.417c0,0.617 -0.019,1.082 -0.058,1.394l-3.599,1.125c0.032,0.595 0.19,0.995 0.472,1.203c0.283,0.207 0.667,0.235 1.151,0.083c0.232,-0.072 0.512,-0.197 0.841,-0.375c0.329,-0.178 0.571,-0.342 0.724,-0.493l0.272,1.053c-0.21,0.271 -0.525,0.543 -0.945,0.816c-0.42,0.273 -0.858,0.48 -1.314,0.623c-0.612,0.191 -1.133,0.204 -1.564,0.039c-0.431,-0.165 -0.757,-0.497 -0.977,-0.996c-0.221,-0.499 -0.331,-1.145 -0.331,-1.938c0,-0.72 0.115,-1.399 0.347,-2.037c0.231,-0.638 0.568,-1.187 1.012,-1.647c0.443,-0.46 0.97,-0.786 1.583,-0.977c0.441,-0.138 0.84,-0.167 1.196,-0.085c0.356,0.081 0.641,0.303 0.857,0.664c0.215,0.361 0.326,0.877 0.333,1.548Zm-1.548,0.748c0.004,-0.066 0.005,-0.161 0.005,-0.285c0,-0.467 -0.073,-0.799 -0.219,-0.995c-0.145,-0.197 -0.382,-0.244 -0.71,-0.142c-0.327,0.103 -0.588,0.314 -0.782,0.634c-0.194,0.32 -0.319,0.8 -0.376,1.439l2.082,-0.651Z" style="fill:#e11387;fill-rule:nonzero;"/><path d="M80.127,33.721l0.032,0.775c0.245,-0.3 0.551,-0.599 0.918,-0.898c0.367,-0.299 0.721,-0.509 1.062,-0.628c0.438,-0.154 0.796,-0.184 1.074,-0.088c0.277,0.095 0.485,0.332 0.622,0.712c0.137,0.379 0.205,0.924 0.205,1.636l0,4.596l-1.666,0.521l0,-4.166c0,-0.415 -0.026,-0.73 -0.08,-0.942c-0.053,-0.213 -0.144,-0.348 -0.272,-0.407c-0.128,-0.058 -0.31,-0.047 -0.545,0.035c-0.178,0.06 -0.379,0.173 -0.603,0.337c-0.224,0.164 -0.422,0.363 -0.593,0.597l0,5.201l-1.666,0.521l0,-7.329l1.512,-0.473Z" style="fill:#e11387;fill-rule:nonzero;"/><path d="M91.056,30.304l0,7.432l-1.1,0.343c-0.142,0.045 -0.245,0.053 -0.309,0.023c-0.064,-0.029 -0.096,-0.119 -0.096,-0.269l0,-0.334c-0.232,0.27 -0.514,0.525 -0.847,0.766c-0.333,0.241 -0.643,0.407 -0.931,0.497c-0.556,0.174 -0.979,0.18 -1.271,0.018c-0.292,-0.161 -0.487,-0.45 -0.585,-0.865c-0.098,-0.415 -0.147,-0.974 -0.147,-1.677l0,-4.281l1.666,-0.521l0,4.262c0,0.459 0.033,0.794 0.099,1.007c0.066,0.213 0.164,0.34 0.294,0.381c0.13,0.041 0.31,0.025 0.542,-0.047c0.178,-0.056 0.366,-0.16 0.566,-0.312c0.199,-0.153 0.35,-0.294 0.453,-0.425l0,-5.477l1.666,-0.521Z" style="fill:#e11387;fill-rule:nonzero;"/></g></svg>