<?xml version="1.0" encoding="UTF-8" standalone="no"?><!DOCTYPE svg PUBLIC "-//W3C//DTD SVG 1.1//EN" "http://www.w3.org/Graphics/SVG/1.1/DTD/svg11.dtd"><svg width="100%" height="100%" viewBox="0 0 128 71" version="1.1" xmlns="http://www.w3.org/2000/svg" xmlns:xlink="http://www.w3.org/1999/xlink" xml:space="preserve" xmlns:serif="http://www.serif.com/" style="fill-rule:evenodd;clip-rule:evenodd;stroke-linejoin:round;stroke-miterlimit:2;"><path d="M121.709,5.794c-4.15,-3.42 -10.709,-3.714 -15.014,0.906l-10.687,11.473c-1.382,-4.441 -5.529,-7.674 -10.418,-7.674l-19.072,0c-1.447,0 -1.931,-0.553 -4.445,-2.49c-9.585,-8.355 -23.98,-8.328 -33.536,0.08l-7.01,6.172c-3.151,-1.668 -6.83,-1.709 -9.999,-0.126l-8.04,4.019c-1.796,0.899 -2.523,3.083 -1.626,4.879l21.815,43.631c0.9,1.796 3.084,2.523 4.88,1.627l8.04,-4.022c3.963,-1.98 6.169,-6.023 6.026,-10.139l42.967,0c7.967,0 15.581,-3.806 20.361,-10.18l17.455,-23.275c3.386,-4.511 2.85,-11.127 -1.697,-14.881Zm-88.365,51.972l-4.787,2.394l-18.565,-37.127l4.789,-2.395c1.797,-0.897 3.978,-0.172 4.877,1.627l15.312,30.624c0.897,1.796 0.17,3.977 -1.626,4.877Zm84.244,-41.455l-17.454,23.275c-3.416,4.555 -8.853,7.272 -14.544,7.272l-45.505,0l-13.625,-27.252l6.881,-6.058c6.848,-6.023 17.174,-6.023 24.022,0c4.033,3.551 6.542,4.223 9.155,4.223l19.072,0c2.004,0 3.636,1.631 3.636,3.636c0,2.004 -1.632,3.636 -3.636,3.636l-18.57,0c-2.007,0 -3.636,1.629 -3.636,3.635c0,2.007 1.629,3.636 3.636,3.636l21.006,0c3.018,0 5.927,-1.265 7.982,-3.473l16.008,-17.184c1.464,-1.57 3.708,-1.439 5.085,-0.235c1.44,1.261 1.595,3.416 0.487,4.889Z" style="fill:#e11387;fill-rule:nonzero;stroke:#fff;stroke-width:2.85px;"/></svg>